999
dxflib 3.26.4.0
  0
SECTION
  2
HEADER
  9
$ACADVER
  1
AC1015
  9
$HANDSEED
  5
FFFF
  9
$DIMADEC
 70
0
  9
$DIMASZ
 40
2.5
  9
$DIMATFIT
 70
0
  9
$DIMAUNIT
 70
0
  9
$DIMAZIN
 70
2
  9
$DIMBLK
  1
0
  9
$DIMBLK1
  1
0
  9
$DIMBLK2
  1
0
  9
$DIMDEC
 70
4
  9
$DIMDLI
 40
5.0
  9
$DIMDSEP
 70
46
  9
$DIMEXE
 40
1.25
  9
$DIMEXO
 40
0.625
  9
$DIMGAP
 40
0.625
  9
$DIMLFAC
 40
1.0
  9
$DIMLUNIT
 70
2
  9
$DIMSCALE
 40
1.0
  9
$DIMTAD
 70
1
  9
$DIMTIH
 70
0
  9
$DIMTSZ
 40
0.0
  9
$DIMTXT
 40
2.5
  9
$DIMZIN
 70
8
  9
$DWGCODEPAGE
  3
ANSI_1252
  9
$INSUNITS
 70
4
  9
$LTSCALE
 40
1.0
  9
$MAXACTVP
 70
64
  9
$MEASUREMENT
 70
1
  9
$MIRRTEXT
 70
0
  9
$PDMODE
 70
0
  9
$PDSIZE
 40
0.0
  0
ENDSEC
  0
SECTION
  2
TABLES
  0
TABLE
  2
VPORT
  5
8
100
AcDbSymbolTable
 70
1
  0
VPORT
  5
30
100
AcDbSymbolTableRecord
100
AcDbViewportTableRecord
  2
*Active
 70
0
 10
0.0
 20
0.0
 11
1.0
 21
1.0
 12
286.3055555555554861
 22
148.5
 13
0.0
 23
0.0
 14
10.0
 24
10.0
 15
10.0
 25
10.0
 16
0.0
 26
0.0
 36
1.0
 17
0.0
 27
0.0
 37
0.0
 40
297.0
 41
1.92798353909465
 42
50.0
 43
0.0
 44
0.0
 50
0.0
 51
0.0
 71
0
 72
100
 73
1
 74
3
 75
1
 76
1
 77
0
 78
0
281
0
 65
1
110
0.0
120
0.0
130
0.0
111
1.0
121
0.0
131
0.0
112
0.0
122
1.0
132
0.0
 79
0
146
0.0
  0
ENDTAB
  0
TABLE
  2
LTYPE
  5
5
100
AcDbSymbolTable
 70
41
  0
LTYPE
  5
16
100
AcDbSymbolTableRecord
100
AcDbLinetypeTableRecord
  2
Continuous
 70
0
  3
Solid line
 72
65
 73
0
 40
0.0
  0
LTYPE
  5
31
100
AcDbSymbolTableRecord
100
AcDbLinetypeTableRecord
  2
DASHED
 70
0
  3
Dashed __ __ __ __ __ __ __ __ __ __ __ __ __ _
 72
65
 73
2
 40
19.0499999999999972
 49
12.6999999999999993
 74
0
 49
-6.3499999999999996
 74
0
  0
LTYPE
  5
32
100
AcDbSymbolTableRecord
100
AcDbLinetypeTableRecord
  2
DASHDOTX2
 70
0
  3
Dash dot (2x) ____  .  ____  .  ____  .  ___
 72
65
 73
4
 40
50.7999999999999972
 49
25.3999999999999986
 74
0
 49
-12.6499999999999986
 74
0
 49
0.1
 74
0
 49
-12.6499999999999986
 74
0
  0
LTYPE
  5
33
100
AcDbSymbolTableRecord
100
AcDbLinetypeTableRecord
  2
ACAD_ISO06W100
 70
0
  3
ISO long-dash triple-dot ____ ... ____ ... ____
 72
65
 73
8
 40
36.0000000000000071
 49
24.0
 74
0
 49
-2.9500000000000002
 74
0
 49
0.1
 74
0
 49
-2.9000000000000004
 74
0
 49
0.1
 74
0
 49
-2.9000000000000004
 74
0
 49
0.1
 74
0
 49
-2.9500000000000002
 74
0
  0
LTYPE
  5
34
100
AcDbSymbolTableRecord
100
AcDbLinetypeTableRecord
  2
CENTERX2
 70
0
  3
Center (2x) ________  __  ________  __  _____
 72
65
 73
4
 40
101.6000000000000085
 49
63.5
 74
0
 49
-12.6999999999999993
 74
0
 49
12.6999999999999993
 74
0
 49
-12.6999999999999993
 74
0
  0
LTYPE
  5
35
100
AcDbSymbolTableRecord
100
AcDbLinetypeTableRecord
  2
ACAD_ISO04W100
 70
0
  3
ISO long-dash dot ____ . ____ . ____ . ____ . _
 72
65
 73
4
 40
30.0
 49
24.0
 74
0
 49
-2.9500000000000002
 74
0
 49
0.1
 74
0
 49
-2.9500000000000002
 74
0
  0
LTYPE
  5
36
100
AcDbSymbolTableRecord
100
AcDbLinetypeTableRecord
  2
ACAD_ISO03W100
 70
0
  3
ISO dash space __    __    __    __    __    __
 72
65
 73
2
 40
30.0
 49
12.0
 74
0
 49
-18.0
 74
0
  0
LTYPE
  5
37
100
AcDbSymbolTableRecord
100
AcDbLinetypeTableRecord
  2
CENTER2
 70
0
  3
Center (.5x) ___ _ ___ _ ___ _ ___ _ ___ _ ___
 72
65
 73
4
 40
28.5750000000000028
 49
19.0500000000000007
 74
0
 49
-3.1749999999999998
 74
0
 49
3.1749999999999998
 74
0
 49
-3.1749999999999998
 74
0
  0
LTYPE
  5
38
100
AcDbSymbolTableRecord
100
AcDbLinetypeTableRecord
  2
BORDERX2
 70
0
  3
Border (2x) ____  ____  .  ____  ____  .  ___
 72
65
 73
6
 40
88.8999999999999773
 49
25.3999999999999986
 74
0
 49
-12.6999999999999993
 74
0
 49
25.3999999999999986
 74
0
 49
-12.6499999999999986
 74
0
 49
0.1
 74
0
 49
-12.6499999999999986
 74
0
  0
LTYPE
  5
39
100
AcDbSymbolTableRecord
100
AcDbLinetypeTableRecord
  2
DASHEDX2
 70
0
  3
Dashed (2x) ____  ____  ____  ____  ____  ___
 72
65
 73
2
 40
38.0999999999999943
 49
25.3999999999999986
 74
0
 49
-12.6999999999999993
 74
0
  0
LTYPE
  5
3A
100
AcDbSymbolTableRecord
100
AcDbLinetypeTableRecord
  2
DOTX2
 70
0
  3
Dot (2x) .  .  .  .  .  .  .  .  .  .  .  .  .  .
 72
65
 73
2
 40
12.6999999999999993
 49
0.1
 74
0
 49
-12.5999999999999996
 74
0
  0
LTYPE
  5
3B
100
AcDbSymbolTableRecord
100
AcDbLinetypeTableRecord
  2
DOT2
 70
0
  3
Dot (.5x) ........................................
 72
65
 73
2
 40
3.1749999999999998
 49
0.1
 74
0
 49
-3.0749999999999997
 74
0
  0
LTYPE
  5
3C
100
AcDbSymbolTableRecord
100
AcDbLinetypeTableRecord
  2
ACAD_ISO07W100
 70
0
  3
ISO dot . . . . . . . . . . . . . . . . . . . . 
 72
65
 73
2
 40
3.0
 49
0.1
 74
0
 49
-2.8999999999999999
 74
0
  0
LTYPE
  5
3D
100
AcDbSymbolTableRecord
100
AcDbLinetypeTableRecord
  2
ACAD_ISO08W100
 70
0
  3
ISO long-dash short-dash ____ __ ____ __ ____ _
 72
65
 73
4
 40
36.0
 49
24.0
 74
0
 49
-3.0
 74
0
 49
6.0
 74
0
 49
-3.0
 74
0
  0
LTYPE
  5
3E
100
AcDbSymbolTableRecord
100
AcDbLinetypeTableRecord
  2
ACAD_ISO02W100
 70
0
  3
ISO dash __ __ __ __ __ __ __ __ __ __ __ __ __
 72
65
 73
2
 40
15.0
 49
12.0
 74
0
 49
-3.0
 74
0
  0
LTYPE
  5
3F
100
AcDbSymbolTableRecord
100
AcDbLinetypeTableRecord
  2
DASHDOT2
 70
0
  3
Dash dot (.5x) _._._._._._._._._._._._._._._.
 72
65
 73
4
 40
12.6999999999999993
 49
6.3499999999999996
 74
0
 49
-3.125
 74
0
 49
0.1
 74
0
 49
-3.125
 74
0
  0
LTYPE
  5
40
100
AcDbSymbolTableRecord
100
AcDbLinetypeTableRecord
  2
PHANTOMX2
 70
0
  3
Phantom (2x) ____________    ____    ____   _
 72
65
 73
6
 40
127.0000000000000142
 49
63.5
 74
0
 49
-12.6999999999999993
 74
0
 49
12.6999999999999993
 74
0
 49
-12.6999999999999993
 74
0
 49
12.6999999999999993
 74
0
 49
-12.6999999999999993
 74
0
  0
LTYPE
  5
41
100
AcDbSymbolTableRecord
100
AcDbLinetypeTableRecord
  2
ACAD_ISO12W100
 70
0
  3
ISO dash double-dot __ . . __ . . __ . . __ . . 
 72
65
 73
6
 40
21.0
 49
12.0
 74
0
 49
-2.9500000000000002
 74
0
 49
0.1
 74
0
 49
-2.9000000000000004
 74
0
 49
0.1
 74
0
 49
-2.9500000000000002
 74
0
  0
LTYPE
  5
42
100
AcDbSymbolTableRecord
100
AcDbLinetypeTableRecord
  2
ACAD_ISO10W100
 70
0
  3
ISO dash dot __ . __ . __ . __ . __ . __ . __ . 
 72
65
 73
4
 40
18.0
 49
12.0
 74
0
 49
-2.9500000000000002
 74
0
 49
0.1
 74
0
 49
-2.9500000000000002
 74
0
  0
LTYPE
  5
43
100
AcDbSymbolTableRecord
100
AcDbLinetypeTableRecord
  2
HIDDEN2
 70
0
  3
Hidden (.5x) _ _ _ _ _ _ _ _ _ _ _ _ _ _ _ _ _ 
 72
65
 73
2
 40
4.7624999999999993
 49
3.1749999999999998
 74
0
 49
-1.5874999999999999
 74
0
  0
LTYPE
  5
44
100
AcDbSymbolTableRecord
100
AcDbLinetypeTableRecord
  2
BORDER2
 70
0
  3
Border (.5x) __.__.__.__.__.__.__.__.__.__.__.
 72
65
 73
6
 40
22.2250000000000014
 49
6.3499999999999996
 74
0
 49
-3.1749999999999998
 74
0
 49
6.3499999999999996
 74
0
 49
-3.125
 74
0
 49
0.1
 74
0
 49
-3.125
 74
0
  0
LTYPE
  5
45
100
AcDbSymbolTableRecord
100
AcDbLinetypeTableRecord
  2
HIDDENX2
 70
0
  3
Hidden (2x) ____ ____ ____ ____ ____ ____ ____ 
 72
65
 73
2
 40
19.0499999999999972
 49
12.6999999999999993
 74
0
 49
-6.3499999999999996
 74
0
  0
LTYPE
  5
46
100
AcDbSymbolTableRecord
100
AcDbLinetypeTableRecord
  2
ACAD_ISO13W100
 70
0
  3
ISO double-dash double-dot __ __ . . __ __ . . _
 72
65
 73
8
 40
36.0000000000000071
 49
12.0
 74
0
 49
-3.0
 74
0
 49
12.0
 74
0
 49
-2.9500000000000002
 74
0
 49
0.1
 74
0
 49
-2.9000000000000004
 74
0
 49
0.1
 74
0
 49
-2.9500000000000002
 74
0
  0
LTYPE
  5
47
100
AcDbSymbolTableRecord
100
AcDbLinetypeTableRecord
  2
PHANTOM
 70
0
  3
Phantom ______  __  __  ______  __  __  ______ 
 72
65
 73
6
 40
63.5000000000000071
 49
31.75
 74
0
 49
-6.3499999999999996
 74
0
 49
6.3499999999999996
 74
0
 49
-6.3499999999999996
 74
0
 49
6.3499999999999996
 74
0
 49
-6.3499999999999996
 74
0
  0
LTYPE
  5
48
100
AcDbSymbolTableRecord
100
AcDbLinetypeTableRecord
  2
DASHED2
 70
0
  3
Dashed (.5x) _ _ _ _ _ _ _ _ _ _ _ _ _ _ _ _ _ 
 72
65
 73
2
 40
9.5249999999999986
 49
6.3499999999999996
 74
0
 49
-3.1749999999999998
 74
0
  0
LTYPE
  5
49
100
AcDbSymbolTableRecord
100
AcDbLinetypeTableRecord
  2
PHANTOM2
 70
0
  3
Phantom (.5x) ___ _ _ ___ _ _ ___ _ _ ___ _ _
 72
65
 73
6
 40
31.7500000000000036
 49
15.875
 74
0
 49
-3.1749999999999998
 74
0
 49
3.1749999999999998
 74
0
 49
-3.1749999999999998
 74
0
 49
3.1749999999999998
 74
0
 49
-3.1749999999999998
 74
0
  0
LTYPE
  5
4A
100
AcDbSymbolTableRecord
100
AcDbLinetypeTableRecord
  2
BORDER
 70
0
  3
Border __ __ . __ __ . __ __ . __ __ . __ __ .
 72
65
 73
6
 40
44.4499999999999957
 49
12.6999999999999993
 74
0
 49
-6.3499999999999996
 74
0
 49
12.6999999999999993
 74
0
 49
-6.2999999999999998
 74
0
 49
0.1
 74
0
 49
-6.2999999999999998
 74
0
  0
LTYPE
  5
4B
100
AcDbSymbolTableRecord
100
AcDbLinetypeTableRecord
  2
ACAD_ISO14W100
 70
0
  3
ISO dash triple-dot __ . . . __ . . . __ . . . _
 72
65
 73
8
 40
24.0000000000000036
 49
12.0
 74
0
 49
-2.9500000000000002
 74
0
 49
0.1
 74
0
 49
-2.9000000000000004
 74
0
 49
0.1
 74
0
 49
-2.9000000000000004
 74
0
 49
0.1
 74
0
 49
-2.9500000000000002
 74
0
  0
LTYPE
  5
14
100
AcDbSymbolTableRecord
100
AcDbLinetypeTableRecord
  2
BYBLOCK
 70
0
  3

 72
65
 73
0
 40
0.0
  0
LTYPE
  5
4C
100
AcDbSymbolTableRecord
100
AcDbLinetypeTableRecord
  2
ACAD_ISO05W100
 70
0
  3
ISO long-dash double-dot ____ .. ____ .. ____ . 
 72
65
 73
6
 40
33.0000000000000071
 49
24.0
 74
0
 49
-2.9500000000000002
 74
0
 49
0.1
 74
0
 49
-2.9000000000000004
 74
0
 49
0.1
 74
0
 49
-2.9500000000000002
 74
0
  0
LTYPE
  5
4D
100
AcDbSymbolTableRecord
100
AcDbLinetypeTableRecord
  2
CENTER
 70
0
  3
Center ____ _ ____ _ ____ _ ____ _ ____ _ ____
 72
65
 73
4
 40
50.8000000000000043
 49
31.75
 74
0
 49
-6.3499999999999996
 74
0
 49
6.3499999999999996
 74
0
 49
-6.3499999999999996
 74
0
  0
LTYPE
  5
4E
100
AcDbSymbolTableRecord
100
AcDbLinetypeTableRecord
  2
ACAD_ISO11W100
 70
0
  3
ISO double-dash dot __ __ . __ __ . __ __ . __ _
 72
65
 73
6
 40
33.0
 49
12.0
 74
0
 49
-3.0
 74
0
 49
12.0
 74
0
 49
-2.9500000000000002
 74
0
 49
0.1
 74
0
 49
-2.9500000000000002
 74
0
  0
LTYPE
  5
4F
100
AcDbSymbolTableRecord
100
AcDbLinetypeTableRecord
  2
DIVIDE
 70
0
  3
Divide ____ . . ____ . . ____ . . ____ . . ____
 72
65
 73
6
 40
31.7500000000000036
 49
12.6999999999999993
 74
0
 49
-6.2999999999999998
 74
0
 49
0.1
 74
0
 49
-6.25
 74
0
 49
0.1
 74
0
 49
-6.2999999999999998
 74
0
  0
LTYPE
  5
50
100
AcDbSymbolTableRecord
100
AcDbLinetypeTableRecord
  2
DOT
 70
0
  3
Dot . . . . . . . . . . . . . . . . . . . . . . . .
 72
65
 73
2
 40
6.3499999999999996
 49
0.1
 74
0
 49
-6.25
 74
0
  0
LTYPE
  5
51
100
AcDbSymbolTableRecord
100
AcDbLinetypeTableRecord
  2
HIDDEN
 70
0
  3
Hidden __ __ __ __ __ __ __ __ __ __ __ __ __ __
 72
65
 73
2
 40
9.5249999999999986
 49
6.3499999999999996
 74
0
 49
-3.1749999999999998
 74
0
  0
LTYPE
  5
52
100
AcDbSymbolTableRecord
100
AcDbLinetypeTableRecord
  2
ACAD_ISO15W100
 70
0
  3
ISO double-dash triple-dot __ __ . . . __ __ . .
 72
65
 73
10
 40
39.0000000000000071
 49
12.0
 74
0
 49
-3.0
 74
0
 49
12.0
 74
0
 49
-2.9500000000000002
 74
0
 49
0.1
 74
0
 49
-2.9000000000000004
 74
0
 49
0.1
 74
0
 49
-2.9000000000000004
 74
0
 49
0.1
 74
0
 49
-2.9500000000000002
 74
0
  0
LTYPE
  5
53
100
AcDbSymbolTableRecord
100
AcDbLinetypeTableRecord
  2
ACAD_ISO09W100
 70
0
  3
ISO long-dash double-short-dash ____ __ __ ____
 72
65
 73
6
 40
45.0
 49
24.0
 74
0
 49
-3.0
 74
0
 49
6.0
 74
0
 49
-3.0
 74
0
 49
6.0
 74
0
 49
-3.0
 74
0
  0
LTYPE
  5
54
100
AcDbSymbolTableRecord
100
AcDbLinetypeTableRecord
  2
DIVIDE2
 70
0
  3
Divide (.5x) __..__..__..__..__..__..__..__.._
 72
65
 73
6
 40
15.8749999999999982
 49
6.3499999999999996
 74
0
 49
-3.125
 74
0
 49
0.1
 74
0
 49
-3.0750000000000002
 74
0
 49
0.1
 74
0
 49
-3.125
 74
0
  0
LTYPE
  5
55
100
AcDbSymbolTableRecord
100
AcDbLinetypeTableRecord
  2
DASHDOT
 70
0
  3
Dash dot __ . __ . __ . __ . __ . __ . __ . __
 72
65
 73
4
 40
25.4000000000000021
 49
12.6999999999999993
 74
0
 49
-6.2999999999999998
 74
0
 49
0.1
 74
0
 49
-6.2999999999999998
 74
0
  0
LTYPE
  5
15
100
AcDbSymbolTableRecord
100
AcDbLinetypeTableRecord
  2
BYLAYER
 70
0
  3

 72
65
 73
0
 40
0.0
  0
LTYPE
  5
56
100
AcDbSymbolTableRecord
100
AcDbLinetypeTableRecord
  2
DIVIDEX2
 70
0
  3
Divide (2x) ________  .  .  ________  .  .  _
 72
65
 73
6
 40
63.5
 49
25.3999999999999986
 74
0
 49
-12.6499999999999986
 74
0
 49
0.1
 74
0
 49
-12.5999999999999979
 74
0
 49
0.1
 74
0
 49
-12.6499999999999986
 74
0
  0
ENDTAB
  0
TABLE
  2
LAYER
  5
2
100
AcDbSymbolTable
 70
2
  0
LAYER
  5
10
100
AcDbSymbolTableRecord
100
AcDbLayerTableRecord
  2
0
 70
1
 62
7
420
16777215
  6
Continuous
370
25
390
F
  0
LAYER
  5
57
100
AcDbSymbolTableRecord
100
AcDbLayerTableRecord
  2
edge cuts plate
 70
0
 62
7
420
16777215
  6
Continuous
370
5
390
F
  0
ENDTAB
  0
TABLE
  2
STYLE
  5
3
100
AcDbSymbolTable
 70
1
  0
STYLE
  5
58
100
AcDbSymbolTableRecord
100
AcDbTextStyleTableRecord
  2
Standard
 70
0
 40
0.0
 41
1.0
 50
0.0
 71
0
 42
2.5
  3

  4

1001
ACAD
1000
txt
1071
0
  0
ENDTAB
  0
TABLE
  2
VIEW
  5
6
100
AcDbSymbolTable
 70
0
  0
ENDTAB
  0
TABLE
  2
UCS
  5
7
100
AcDbSymbolTable
 70
0
  0
ENDTAB
  0
TABLE
  2
APPID
  5
9
100
AcDbSymbolTable
 70
1
  0
APPID
  5
12
100
AcDbSymbolTableRecord
100
AcDbRegAppTableRecord
  2
ACAD
 70
0
  0
APPID
  5
59
100
AcDbSymbolTableRecord
100
AcDbRegAppTableRecord
  2
QCAD
 70
0
  0
ENDTAB
  0
TABLE
  2
DIMSTYLE
  5
A
100
AcDbSymbolTable
 70
1
100
AcDbDimStyleTable
 71
0
  0
DIMSTYLE
105
27
100
AcDbSymbolTableRecord
100
AcDbDimStyleTableRecord
  2
Standard
 41
2.5
 42
0.625
 43
3.75
 44
1.25
 70
0
 73
0
 74
0
 77
1
 78
8
140
2.5
141
2.5
143
0.03937007874016
147
0.625
171
3
172
1
271
2
272
2
274
3
278
44
283
0
284
8
340
58
  0
ENDTAB
  0
TABLE
  2
BLOCK_RECORD
  5
1
100
AcDbSymbolTable
 70
1
  0
BLOCK_RECORD
  5
1F
100
AcDbSymbolTableRecord
100
AcDbBlockTableRecord
  2
*Model_Space
340
22
  0
BLOCK_RECORD
  5
1B
100
AcDbSymbolTableRecord
100
AcDbBlockTableRecord
  2
*Paper_Space
340
1E
  0
BLOCK_RECORD
  5
23
100
AcDbSymbolTableRecord
100
AcDbBlockTableRecord
  2
*Paper_Space0
340
26
  0
ENDTAB
  0
ENDSEC
  0
SECTION
  2
BLOCKS
  0
BLOCK
  5
20
100
AcDbEntity
  8
0
100
AcDbBlockBegin
  2
*Model_Space
 70
0
 10
0.0
 20
0.0
 30
0.0
  3
*Model_Space
  1

  0
ENDBLK
  5
21
100
AcDbEntity
  8
0
100
AcDbBlockEnd
  0
BLOCK
  5
1C
100
AcDbEntity
 67
1
  8
0
100
AcDbBlockBegin
  2
*Paper_Space
 70
0
 10
0.0
 20
0.0
 30
0.0
  3
*Paper_Space
  1

  0
ENDBLK
  5
1D
100
AcDbEntity
 67
1
  8
0
100
AcDbBlockEnd
  0
BLOCK
  5
24
100
AcDbEntity
  8
0
100
AcDbBlockBegin
  2
*Paper_Space0
 70
0
 10
0.0
 20
0.0
 30
0.0
  3
*Paper_Space0
  1

  0
ENDBLK
  5
25
100
AcDbEntity
  8
0
100
AcDbBlockEnd
  0
ENDSEC
  0
SECTION
  2
ENTITIES
  0
LINE
  5
5A
100
AcDbEntity
  8
edge cuts plate
 62
256
370
-1
 48
1.0
  6
BYLAYER
100
AcDbLine
 10
22.4422564018116759
 20
-66.6749999999999261
 30
0.0
 11
-18.0499999999999545
 21
-66.6749999999999261
 31
0.0
  0
LINE
  5
5B
100
AcDbEntity
  8
edge cuts plate
 62
256
370
-1
 48
1.0
  6
BYLAYER
100
AcDbLine
 10
-19.0499999999999545
 20
-65.6749999999999261
 30
0.0
 11
-19.0500000000000114
 21
-48.6249999999999716
 31
0.0
  0
LINE
  5
5C
100
AcDbEntity
  8
edge cuts plate
 62
256
370
-1
 48
1.0
  6
BYLAYER
100
AcDbLine
 10
-20.0500000000000114
 20
-47.6249999999999574
 30
0.0
 11
-22.8125
 21
-47.6249999999999574
 31
0.0
  0
LINE
  5
5D
100
AcDbEntity
  8
edge cuts plate
 62
256
370
-1
 48
1.0
  6
BYLAYER
100
AcDbLine
 10
-23.8125
 20
-46.6249999999999574
 30
0.0
 11
-23.8124999999999432
 21
-29.5749999999999318
 31
0.0
  0
LINE
  5
5E
100
AcDbEntity
  8
edge cuts plate
 62
256
370
-1
 48
1.0
  6
BYLAYER
100
AcDbLine
 10
-22.8124999999999432
 20
-28.5749999999999318
 30
0.0
 11
-20.0499999999999545
 21
-28.5749999999999318
 31
0.0
  0
LINE
  5
5F
100
AcDbEntity
  8
edge cuts plate
 62
256
370
-1
 48
1.0
  6
BYLAYER
100
AcDbLine
 10
-19.0499999999999545
 20
-27.5749999999999318
 30
0.0
 11
-19.0499999999999545
 21
-10.5250000000000057
 31
0.0
  0
LINE
  5
60
100
AcDbEntity
  8
edge cuts plate
 62
256
370
-1
 48
1.0
  6
BYLAYER
100
AcDbLine
 10
-18.0499999999999545
 20
-9.5250000000000057
 30
0.0
 11
-15.2875000000000227
 21
-9.5250000000000057
 31
0.0
  0
LINE
  5
61
100
AcDbEntity
  8
edge cuts plate
 62
256
370
-1
 48
1.0
  6
BYLAYER
100
AcDbLine
 10
-14.2875000000000227
 20
-8.5250000000000057
 30
0.0
 11
-14.2875000000000227
 21
8.5250000000000057
 31
0.0
  0
LINE
  5
62
100
AcDbEntity
  8
edge cuts plate
 62
256
370
-1
 48
1.0
  6
BYLAYER
100
AcDbLine
 10
-13.2875000000000227
 20
9.5250000000000057
 30
0.0
 11
43.0124884569807477
 21
9.5250000000000057
 31
0.0
  0
LINE
  5
63
100
AcDbEntity
  8
edge cuts plate
 62
256
370
-1
 48
1.0
  6
BYLAYER
100
AcDbLine
 10
43.186136634647653
 20
9.5098077530122112
 30
0.0
 11
110.7030408110730946
 21
-2.395244107199602
 31
0.0
  0
LINE
  5
64
100
AcDbEntity
  8
edge cuts plate
 62
256
370
-1
 48
1.0
  6
BYLAYER
100
AcDbLine
 10
111.5142003864183948
 20
-3.5537000378787411
 30
0.0
 11
108.5534989571971778
 21
-20.3446722267368898
 31
0.0
  0
LINE
  5
65
100
AcDbEntity
  8
edge cuts plate
 62
256
370
-1
 48
1.0
  6
BYLAYER
100
AcDbLine
 10
109.364658532542478
 20
-21.5031281574160289
 30
0.0
 11
110.7030408110730946
 21
-21.7391210636230596
 31
0.0
  0
LINE
  5
66
100
AcDbEntity
  8
edge cuts plate
 62
256
370
-1
 48
1.0
  6
BYLAYER
100
AcDbLine
 10
111.5142003864183948
 20
-22.8975769943021987
 30
0.0
 11
108.5534989571971778
 21
-39.688549183160319
 31
0.0
  0
LINE
  5
67
100
AcDbEntity
  8
edge cuts plate
 62
256
370
-1
 48
1.0
  6
BYLAYER
100
AcDbLine
 10
109.364658532542478
 20
-40.8470051138394581
 30
0.0
 11
134.2261285059556144
 21
-45.230753050225573
 31
0.0
  0
LINE
  5
68
100
AcDbEntity
  8
edge cuts plate
 62
256
370
-1
 48
1.0
  6
BYLAYER
100
AcDbLine
 10
135.037288081300801
 20
-46.3892089809047121
 30
0.0
 11
128.7685888675247838
 21
-81.9407688646454062
 31
0.0
  0
LINE
  5
69
100
AcDbEntity
  8
edge cuts plate
 62
256
370
-1
 48
1.0
  6
BYLAYER
100
AcDbLine
 10
127.6101329368455595
 20
-82.751928439990678
 30
0.0
 11
50.34326276468272
 21
-69.1276945137402947
 31
0.0
  0
ARC
  5
6A
100
AcDbEntity
  8
edge cuts plate
 62
256
370
-1
 48
1.0
  6
BYLAYER
100
AcDbCircle
 10
127.7837811145124647
 20
-81.7671206869784726
 30
0.0
 40
1.0
100
AcDbArc
 50
259.9999999999997726
 51
349.9999999999999432
  0
ARC
  5
6B
100
AcDbEntity
  8
edge cuts plate
 62
256
370
-1
 48
1.0
  6
BYLAYER
100
AcDbCircle
 10
134.0524803282887092
 20
-46.2155608032377785
 30
0.0
 40
1.0
100
AcDbArc
 50
350.0000000000001137
 51
79.999999999999801
  0
ARC
  5
6C
100
AcDbEntity
  8
edge cuts plate
 62
256
370
-1
 48
1.0
  6
BYLAYER
100
AcDbCircle
 10
109.5383067102093833
 20
-39.8621973608272526
 30
0.0
 40
1.0
100
AcDbArc
 50
169.9999999999998295
 51
259.9999999999997726
  0
ARC
  5
6D
100
AcDbEntity
  8
edge cuts plate
 62
256
370
-1
 48
1.0
  6
BYLAYER
100
AcDbCircle
 10
110.5293926334060757
 20
-22.7239288166352651
 30
0.0
 40
1.0
100
AcDbArc
 50
350.0
 51
79.9999999999998153
  0
ARC
  5
6E
100
AcDbEntity
  8
edge cuts plate
 62
256
370
-1
 48
1.0
  6
BYLAYER
100
AcDbCircle
 10
109.5383067102093833
 20
-20.5183204044038234
 30
0.0
 40
1.0
100
AcDbArc
 50
169.9999999999998295
 51
259.9999999999997726
  0
ARC
  5
6F
100
AcDbEntity
  8
edge cuts plate
 62
256
370
-1
 48
1.0
  6
BYLAYER
100
AcDbCircle
 10
110.5293926334060757
 20
-3.3800518602118075
 30
0.0
 40
1.0
100
AcDbArc
 50
350.0
 51
79.9999999999997868
  0
ARC
  5
70
100
AcDbEntity
  8
edge cuts plate
 62
256
370
-1
 48
1.0
  6
BYLAYER
100
AcDbCircle
 10
-18.0499999999999545
 20
-65.6749999999999261
 30
0.0
 40
1.0
100
AcDbArc
 50
180.0
 51
269.9999999999997726
  0
ARC
  5
71
100
AcDbEntity
  8
edge cuts plate
 62
256
370
-1
 48
1.0
  6
BYLAYER
100
AcDbCircle
 10
-20.0500000000000114
 20
-48.6249999999999574
 30
0.0
 40
1.0
100
AcDbArc
 50
360.0
 51
90.0
  0
ARC
  5
72
100
AcDbEntity
  8
edge cuts plate
 62
256
370
-1
 48
1.0
  6
BYLAYER
100
AcDbCircle
 10
-22.8125
 20
-46.6249999999999574
 30
0.0
 40
1.0
100
AcDbArc
 50
180.0
 51
270.0
  0
ARC
  5
73
100
AcDbEntity
  8
edge cuts plate
 62
256
370
-1
 48
1.0
  6
BYLAYER
100
AcDbCircle
 10
-22.8124999999999432
 20
-29.5749999999999318
 30
0.0
 40
1.0
100
AcDbArc
 50
90.0
 51
180.0
  0
ARC
  5
74
100
AcDbEntity
  8
edge cuts plate
 62
256
370
-1
 48
1.0
  6
BYLAYER
100
AcDbCircle
 10
-20.0499999999999545
 20
-27.5749999999999318
 30
0.0
 40
1.0
100
AcDbArc
 50
270.0
 51
0.0
  0
ARC
  5
75
100
AcDbEntity
  8
edge cuts plate
 62
256
370
-1
 48
1.0
  6
BYLAYER
100
AcDbCircle
 10
-18.0499999999999545
 20
-10.5249999999999773
 30
0.0
 40
1.0
100
AcDbArc
 50
90.0
 51
180.0
  0
ARC
  5
76
100
AcDbEntity
  8
edge cuts plate
 62
256
370
-1
 48
1.0
  6
BYLAYER
100
AcDbCircle
 10
-15.2875000000000227
 20
-8.5250000000000057
 30
0.0
 40
1.0
100
AcDbArc
 50
270.0
 51
0.0
  0
ARC
  5
77
100
AcDbEntity
  8
edge cuts plate
 62
256
370
-1
 48
1.0
  6
BYLAYER
100
AcDbCircle
 10
-13.2875000000000227
 20
8.5250000000000057
 30
0.0
 40
1.0
100
AcDbArc
 50
90.0
 51
180.0
  0
LINE
  5
78
100
AcDbEntity
  8
edge cuts plate
 62
256
370
-1
 48
1.0
  6
BYLAYER
100
AcDbLine
 10
29.6201954276399988
 20
-52.4730609827685157
 30
0.0
 11
29.9688183986306171
 21
-48.4882821904015202
 31
0.0
  0
LINE
  5
79
100
AcDbEntity
  8
edge cuts plate
 62
256
370
-1
 48
1.0
  6
BYLAYER
100
AcDbLine
 10
23.4384510999033751
 20
-65.7621557427475949
 30
0.0
 11
24.4654162239051516
 21
-54.0238906622950736
 31
0.0
  0
LINE
  5
7A
100
AcDbEntity
  8
edge cuts plate
 62
256
370
-1
 48
1.0
  6
BYLAYER
100
AcDbLine
 10
49.5207162442579261
 20
-68.0557310179804062
 30
0.0
 11
50.5481890724465188
 21
-56.3116628521182747
 31
0.0
  0
LINE
  5
7B
100
AcDbEntity
  8
edge cuts plate
 62
256
370
-1
 48
1.0
  6
BYLAYER
100
AcDbLine
 10
25.984613138494467
 20
-52.6318031699857301
 30
0.0
 11
29.1056039682413825
 21
-52.9048544865569568
 31
0.0
  0
LINE
  5
7C
100
AcDbEntity
  8
edge cuts plate
 62
256
370
-1
 48
1.0
  6
BYLAYER
100
AcDbLine
 10
46.04091383580095
 20
-54.3865021132671416
 30
0.0
 11
49.1619046655477518
 21
-54.6595534298383683
 31
0.0
  0
LINE
  5
7D
100
AcDbEntity
  8
edge cuts plate
 62
256
370
-1
 48
1.0
  6
BYLAYER
100
AcDbLine
 10
45.6091203320124237
 20
-53.8719106538684116
 30
0.0
 11
45.9577433030031557
 21
-49.8871318615014729
 31
0.0
  0
LINE
  5
7E
100
AcDbEntity
  8
edge cuts plate
 62
256
370
-1
 48
1.0
  6
BYLAYER
100
AcDbLine
 10
31.6209278209099125
 20
-47.1019977835018437
 30
0.0
 11
44.5714588961035929
 21
-48.2350224392213818
 31
0.0
  0
ARC
  5
7F
100
AcDbEntity
  8
edge cuts plate
 62
256
370
-1
 48
1.0
  6
BYLAYER
100
AcDbCircle
 10
44.4385463884133856
 20
-49.754219353811223
 30
0.0
 40
1.5249999999999286
100
AcDbArc
 50
354.999999999997101
 51
84.9999999999971294
  0
ARC
  5
80
100
AcDbEntity
  8
edge cuts plate
 62
256
370
-1
 48
1.0
  6
BYLAYER
100
AcDbCircle
 10
31.4880153132200462
 20
-48.6211946980912444
 30
0.0
 40
1.5249999999994632
100
AcDbArc
 50
85.0000000000161862
 51
175.0000000000161435
  0
ARC
  5
81
100
AcDbEntity
  8
edge cuts plate
 62
256
370
-1
 48
1.0
  6
BYLAYER
100
AcDbCircle
 10
25.984613138494467
 20
-54.1568031699851957
 30
0.0
 40
1.5249999999994632
100
AcDbArc
 50
85.0000000000161862
 51
175.0000000000161435
  0
ARC
  5
82
100
AcDbEntity
  8
edge cuts plate
 62
256
370
-1
 48
1.0
  6
BYLAYER
100
AcDbCircle
 10
49.0289921578572034
 20
-56.1787503444276979
 30
0.0
 40
1.5249999999994632
100
AcDbArc
 50
354.9999999999838565
 51
84.9999999999838138
  0
ARC
  5
83
100
AcDbEntity
  8
edge cuts plate
 62
256
370
-1
 48
1.0
  6
BYLAYER
100
AcDbCircle
 10
46.0823128136060518
 20
-53.9133096316735418
 30
0.0
 40
0.4750000000000211
100
AcDbArc
 50
174.9999999999994316
 51
264.9999999999984652
  0
ARC
  5
84
100
AcDbEntity
  8
edge cuts plate
 62
256
370
-1
 48
1.0
  6
BYLAYER
100
AcDbCircle
 10
29.1470029460464843
 20
-52.4316620049633855
 30
0.0
 40
0.4749999999999919
100
AcDbArc
 50
265.0000000000003979
 51
355.0000000000008527
  0
ARC
  5
85
100
AcDbEntity
  8
0
 62
256
370
-1
 48
1.0
  6
BYLAYER
100
AcDbCircle
 10
22.4422564018116333
 20
-65.6749999999999403
 30
0.0
 40
1.0
100
AcDbArc
 50
270.0
 51
355.0000000000002274
  0
ARC
  5
86
100
AcDbEntity
  8
0
 62
256
370
-1
 48
1.0
  6
BYLAYER
100
AcDbCircle
 10
50.5169109423496039
 20
-68.142886760728075
 30
0.0
 40
1.0
100
AcDbArc
 50
174.9999999999993747
 51
260.0000000000003411
  0
ARC
  5
87
100
AcDbEntity
  8
0
 62
256
370
-1
 48
1.0
  6
BYLAYER
100
AcDbCircle
 10
43.0124884569807762
 20
8.5250000000000039
 30
0.0
 40
1.0
100
AcDbArc
 50
79.9999999999998437
 51
90.0
  0
LINE
  5
88
100
AcDbEntity
  8
edge cuts plate
 62
256
370
-1
 48
1.0
  6
BYLAYER
100
AcDbLine
 10
6.9000000000000004
 20
-6.5
 30
0.0
 11
6.9000000000000004
 21
6.5
 31
0.0
  0
LINE
  5
89
100
AcDbEntity
  8
edge cuts plate
 62
256
370
-1
 48
1.0
  6
BYLAYER
100
AcDbLine
 10
30.7124999999999702
 20
-6.4999999999999716
 30
0.0
 11
30.7124999999999702
 21
6.5000000000000284
 31
0.0
  0
LINE
  5
8A
100
AcDbEntity
  8
edge cuts plate
 62
256
370
-1
 48
1.0
  6
BYLAYER
100
AcDbLine
 10
4.5187500000000025
 20
-25.5499999999999616
 30
0.0
 11
4.5187500000000025
 21
-12.5499999999999616
 31
0.0
  0
LINE
  5
8B
100
AcDbEntity
  8
edge cuts plate
 62
256
370
-1
 48
1.0
  6
BYLAYER
100
AcDbLine
 10
30.7124999999999702
 20
-25.5499999999999829
 30
0.0
 11
30.7124999999999702
 21
-12.5499999999999829
 31
0.0
  0
LINE
  5
8C
100
AcDbEntity
  8
edge cuts plate
 62
256
370
-1
 48
1.0
  6
BYLAYER
100
AcDbLine
 10
35.4749999999999872
 20
-44.5999999999999943
 30
0.0
 11
35.4749999999999872
 21
-31.5999999999999943
 31
0.0
  0
LINE
  5
8D
100
AcDbEntity
  8
edge cuts plate
 62
256
370
-1
 48
1.0
  6
BYLAYER
100
AcDbLine
 10
-0.243750000000011
 20
-63.6499999999999773
 30
0.0
 11
-0.243750000000011
 21
-50.6499999999999773
 31
0.0
  0
LINE
  5
8E
100
AcDbEntity
  8
edge cuts plate
 62
256
370
-1
 48
1.0
  6
BYLAYER
100
AcDbLine
 10
21.1874999999999929
 20
-63.6499999999999773
 30
0.0
 11
21.1874999999999929
 21
-50.6499999999999773
 31
0.0
  0
LINE
  5
8F
100
AcDbEntity
  8
edge cuts plate
 62
256
370
-1
 48
1.0
  6
BYLAYER
100
AcDbLine
 10
50.0382530806680066
 20
-7.9706167068464131
 30
0.0
 11
52.2956793903380941
 21
4.8318840823122926
 31
0.0
  0
LINE
  5
90
100
AcDbEntity
  8
edge cuts plate
 62
256
370
-1
 48
1.0
  6
BYLAYER
100
AcDbLine
 10
68.7988407755505307
 20
-11.2786144914014415
 30
0.0
 11
71.0562670852206253
 21
1.5238862977572651
 31
0.0
  0
LINE
  5
91
100
AcDbEntity
  8
edge cuts plate
 62
256
370
-1
 48
1.0
  6
BYLAYER
100
AcDbLine
 10
87.5594284704331045
 20
-14.5866122759564618
 30
0.0
 11
89.8168547801031991
 21
-1.7841114867977552
 31
0.0
  0
LINE
  5
92
100
AcDbEntity
  8
edge cuts plate
 62
256
370
-1
 48
1.0
  6
BYLAYER
100
AcDbLine
 10
106.3200161653156925
 20
-17.8946100605114857
 30
0.0
 11
108.5774424749857872
 21
-5.0921092713527791
 31
0.0
  0
LINE
  5
93
100
AcDbEntity
  8
edge cuts plate
 62
256
370
-1
 48
1.0
  6
BYLAYER
100
AcDbLine
 10
50.0382530806679782
 20
-27.3144936632698503
 30
0.0
 11
52.2956793903380657
 21
-14.5119928741111437
 31
0.0
  0
LINE
  5
94
100
AcDbEntity
  8
edge cuts plate
 62
256
370
-1
 48
1.0
  6
BYLAYER
100
AcDbLine
 10
68.7988407755505307
 20
-30.6224914478248778
 30
0.0
 11
71.0562670852206253
 21
-17.8199906586661712
 31
0.0
  0
LINE
  5
95
100
AcDbEntity
  8
edge cuts plate
 62
256
370
-1
 48
1.0
  6
BYLAYER
100
AcDbLine
 10
87.5594284704331045
 20
-33.9304892323799052
 30
0.0
 11
89.8168547801031991
 21
-21.1279884432211986
 31
0.0
  0
LINE
  5
96
100
AcDbEntity
  8
edge cuts plate
 62
256
370
-1
 48
1.0
  6
BYLAYER
100
AcDbLine
 10
106.3200161653156641
 20
-37.2384870169349256
 30
0.0
 11
108.5774424749857587
 21
-24.435986227776219
 31
0.0
  0
LINE
  5
97
100
AcDbEntity
  8
edge cuts plate
 62
256
370
-1
 48
1.0
  6
BYLAYER
100
AcDbLine
 10
111.0825161653156385
 20
-57.4221212189824328
 30
0.0
 11
113.3399424749857332
 21
-44.6196204298237262
 31
0.0
  0
LINE
  5
98
100
AcDbEntity
  8
edge cuts plate
 62
256
370
-1
 48
1.0
  6
BYLAYER
100
AcDbLine
 10
92.3219284704331216
 20
-54.1141234344274125
 30
0.0
 11
94.5793547801032162
 21
-41.3116226452687059
 31
0.0
  0
LINE
  5
99
100
AcDbEntity
  8
edge cuts plate
 62
256
370
-1
 48
1.0
  6
BYLAYER
100
AcDbLine
 10
73.5613407755505619
 20
-50.806125649872385
 30
0.0
 11
75.8187670852206566
 21
-38.0036248607136784
 31
0.0
  0
LINE
  5
9A
100
AcDbEntity
  8
edge cuts plate
 62
256
370
-1
 48
1.0
  6
BYLAYER
100
AcDbLine
 10
54.8007530806680023
 20
-47.4981278653173646
 30
0.0
 11
57.0581793903380898
 21
-34.695627076158658
 31
0.0
  0
LINE
  5
9B
100
AcDbEntity
  8
edge cuts plate
 62
256
370
-1
 48
1.0
  6
BYLAYER
100
AcDbLine
 10
65.6066081116916706
 20
-68.7435119603631506
 30
0.0
 11
67.8640344213617652
 21
-55.941011171204444
 31
0.0
  0
ARC
  5
9C
100
AcDbEntity
  8
edge cuts plate
 62
256
370
-1
 48
1.0
  6
BYLAYER
100
AcDbCircle
 10
6.5000000000000009
 20
6.5000000000000009
 30
0.0
 40
0.3999999999999995
100
AcDbArc
 50
0.0
 51
90.0000000000001137
  0
ARC
  5
9D
100
AcDbEntity
  8
edge cuts plate
 62
256
370
-1
 48
1.0
  6
BYLAYER
100
AcDbCircle
 10
30.3124999999999716
 20
6.5000000000000293
 30
0.0
 40
0.3999999999999995
100
AcDbArc
 50
0.0
 51
90.0000000000001137
  0
ARC
  5
9E
100
AcDbEntity
  8
edge cuts plate
 62
256
370
-1
 48
1.0
  6
BYLAYER
100
AcDbCircle
 10
4.118750000000003
 20
-12.5499999999999616
 30
0.0
 40
0.3999999999999995
100
AcDbArc
 50
0.0
 51
90.0000000000001137
  0
ARC
  5
9F
100
AcDbEntity
  8
edge cuts plate
 62
256
370
-1
 48
1.0
  6
BYLAYER
100
AcDbCircle
 10
30.3124999999999716
 20
-12.5499999999999829
 30
0.0
 40
0.3999999999999995
100
AcDbArc
 50
0.0
 51
90.0000000000001137
  0
ARC
  5
A0
100
AcDbEntity
  8
edge cuts plate
 62
256
370
-1
 48
1.0
  6
BYLAYER
100
AcDbCircle
 10
35.0749999999999886
 20
-31.5999999999999943
 30
0.0
 40
0.3999999999999995
100
AcDbArc
 50
0.0
 51
90.0000000000001137
  0
ARC
  5
A1
100
AcDbEntity
  8
edge cuts plate
 62
256
370
-1
 48
1.0
  6
BYLAYER
100
AcDbCircle
 10
-0.6437500000000105
 20
-50.6499999999999773
 30
0.0
 40
0.3999999999999995
100
AcDbArc
 50
0.0
 51
90.0000000000001137
  0
ARC
  5
A2
100
AcDbEntity
  8
edge cuts plate
 62
256
370
-1
 48
1.0
  6
BYLAYER
100
AcDbCircle
 10
20.7874999999999943
 20
-50.6499999999999773
 30
0.0
 40
0.3999999999999995
100
AcDbArc
 50
0.0
 51
90.0000000000001137
  0
ARC
  5
A3
100
AcDbEntity
  8
edge cuts plate
 62
256
370
-1
 48
1.0
  6
BYLAYER
100
AcDbCircle
 10
51.9017562891332176
 20
4.9013433533790662
 30
0.0
 40
0.3999999999999995
100
AcDbArc
 50
350.0
 51
80.0000000000001279
  0
ARC
  5
A4
100
AcDbEntity
  8
edge cuts plate
 62
256
370
-1
 48
1.0
  6
BYLAYER
100
AcDbCircle
 10
70.6623439840157488
 20
1.5933455688240388
 30
0.0
 40
0.3999999999999995
100
AcDbArc
 50
350.0
 51
80.0000000000001279
  0
ARC
  5
A5
100
AcDbEntity
  8
edge cuts plate
 62
256
370
-1
 48
1.0
  6
BYLAYER
100
AcDbCircle
 10
89.4229316788983226
 20
-1.7146522157309816
 30
0.0
 40
0.3999999999999995
100
AcDbArc
 50
350.0
 51
80.0000000000001279
  0
ARC
  5
A6
100
AcDbEntity
  8
edge cuts plate
 62
256
370
-1
 48
1.0
  6
BYLAYER
100
AcDbCircle
 10
108.1835193737809107
 20
-5.0226500002860055
 30
0.0
 40
0.3999999999999995
100
AcDbArc
 50
350.0
 51
80.0000000000001279
  0
ARC
  5
A7
100
AcDbEntity
  8
edge cuts plate
 62
256
370
-1
 48
1.0
  6
BYLAYER
100
AcDbCircle
 10
51.9017562891331892
 20
-14.4425336030443709
 30
0.0
 40
0.3999999999999995
100
AcDbArc
 50
350.0
 51
80.0000000000001279
  0
ARC
  5
A8
100
AcDbEntity
  8
edge cuts plate
 62
256
370
-1
 48
1.0
  6
BYLAYER
100
AcDbCircle
 10
70.6623439840157488
 20
-17.7505313875993984
 30
0.0
 40
0.3999999999999995
100
AcDbArc
 50
350.0
 51
80.0000000000001279
  0
ARC
  5
A9
100
AcDbEntity
  8
edge cuts plate
 62
256
370
-1
 48
1.0
  6
BYLAYER
100
AcDbCircle
 10
89.4229316788983226
 20
-21.0585291721544259
 30
0.0
 40
0.3999999999999995
100
AcDbArc
 50
350.0
 51
80.0000000000001279
  0
ARC
  5
AA
100
AcDbEntity
  8
edge cuts plate
 62
256
370
-1
 48
1.0
  6
BYLAYER
100
AcDbCircle
 10
108.1835193737808822
 20
-24.3665269567094462
 30
0.0
 40
0.3999999999999995
100
AcDbArc
 50
350.0
 51
80.0000000000001279
  0
ARC
  5
AB
100
AcDbEntity
  8
edge cuts plate
 62
256
370
-1
 48
1.0
  6
BYLAYER
100
AcDbCircle
 10
112.9460193737808567
 20
-44.5501611587569499
 30
0.0
 40
0.3999999999999995
100
AcDbArc
 50
350.0
 51
80.0000000000001279
  0
ARC
  5
AC
100
AcDbEntity
  8
edge cuts plate
 62
256
370
-1
 48
1.0
  6
BYLAYER
100
AcDbCircle
 10
94.1854316788983397
 20
-41.2421633742019296
 30
0.0
 40
0.3999999999999995
100
AcDbArc
 50
350.0
 51
80.0000000000001279
  0
ARC
  5
AD
100
AcDbEntity
  8
edge cuts plate
 62
256
370
-1
 48
1.0
  6
BYLAYER
100
AcDbCircle
 10
75.4248439840157801
 20
-37.9341655896469021
 30
0.0
 40
0.3999999999999995
100
AcDbArc
 50
350.0
 51
80.0000000000001279
  0
ARC
  5
AE
100
AcDbEntity
  8
edge cuts plate
 62
256
370
-1
 48
1.0
  6
BYLAYER
100
AcDbCircle
 10
56.6642562891332062
 20
-34.6261678050918817
 30
0.0
 40
0.3999999999999995
100
AcDbArc
 50
350.0
 51
80.0000000000001279
  0
ARC
  5
AF
100
AcDbEntity
  8
edge cuts plate
 62
256
370
-1
 48
1.0
  6
BYLAYER
100
AcDbCircle
 10
67.4701113201568745
 20
-55.8715519001376677
 30
0.0
 40
0.3999999999999995
100
AcDbArc
 50
350.0
 51
80.0000000000001279
  0
ARC
  5
B0
100
AcDbEntity
  8
edge cuts plate
 62
256
370
-1
 48
1.0
  6
BYLAYER
100
AcDbCircle
 10
6.5000000000000009
 20
-6.5000000000000009
 30
0.0
 40
0.3999999999999995
100
AcDbArc
 50
269.9999999999998863
 51
0.0
  0
ARC
  5
B1
100
AcDbEntity
  8
edge cuts plate
 62
256
370
-1
 48
1.0
  6
BYLAYER
100
AcDbCircle
 10
30.3124999999999716
 20
-6.4999999999999725
 30
0.0
 40
0.3999999999999995
100
AcDbArc
 50
269.9999999999998863
 51
0.0
  0
ARC
  5
B2
100
AcDbEntity
  8
edge cuts plate
 62
256
370
-1
 48
1.0
  6
BYLAYER
100
AcDbCircle
 10
4.118750000000003
 20
-25.5499999999999616
 30
0.0
 40
0.3999999999999995
100
AcDbArc
 50
269.9999999999998863
 51
0.0
  0
ARC
  5
B3
100
AcDbEntity
  8
edge cuts plate
 62
256
370
-1
 48
1.0
  6
BYLAYER
100
AcDbCircle
 10
30.3124999999999716
 20
-25.5499999999999829
 30
0.0
 40
0.3999999999999995
100
AcDbArc
 50
269.9999999999998863
 51
0.0
  0
ARC
  5
B4
100
AcDbEntity
  8
edge cuts plate
 62
256
370
-1
 48
1.0
  6
BYLAYER
100
AcDbCircle
 10
35.0749999999999886
 20
-44.5999999999999943
 30
0.0
 40
0.3999999999999995
100
AcDbArc
 50
269.9999999999998863
 51
0.0
  0
ARC
  5
B5
100
AcDbEntity
  8
edge cuts plate
 62
256
370
-1
 48
1.0
  6
BYLAYER
100
AcDbCircle
 10
-0.6437500000000105
 20
-63.6499999999999773
 30
0.0
 40
0.3999999999999995
100
AcDbArc
 50
269.9999999999998863
 51
0.0
  0
ARC
  5
B6
100
AcDbEntity
  8
edge cuts plate
 62
256
370
-1
 48
1.0
  6
BYLAYER
100
AcDbCircle
 10
20.7874999999999943
 20
-63.6499999999999773
 30
0.0
 40
0.3999999999999995
100
AcDbArc
 50
269.9999999999998863
 51
0.0
  0
ARC
  5
B7
100
AcDbEntity
  8
edge cuts plate
 62
256
370
-1
 48
1.0
  6
BYLAYER
100
AcDbCircle
 10
49.6443299794631159
 20
-7.9011574357796412
 30
0.0
 40
0.3999999999999995
100
AcDbArc
 50
259.9999999999999432
 51
350.0
  0
ARC
  5
B8
100
AcDbEntity
  8
edge cuts plate
 62
256
370
-1
 48
1.0
  6
BYLAYER
100
AcDbCircle
 10
68.4049176743456542
 20
-11.2091552203346687
 30
0.0
 40
0.3999999999999995
100
AcDbArc
 50
259.9999999999999432
 51
350.0
  0
ARC
  5
B9
100
AcDbEntity
  8
edge cuts plate
 62
256
370
-1
 48
1.0
  6
BYLAYER
100
AcDbCircle
 10
87.165505369228228
 20
-14.5171530048896891
 30
0.0
 40
0.3999999999999995
100
AcDbArc
 50
259.9999999999999432
 51
350.0
  0
ARC
  5
BA
100
AcDbEntity
  8
edge cuts plate
 62
256
370
-1
 48
1.0
  6
BYLAYER
100
AcDbCircle
 10
105.926093064110816
 20
-17.825150789444713
 30
0.0
 40
0.3999999999999995
100
AcDbArc
 50
259.9999999999999432
 51
350.0
  0
ARC
  5
BB
100
AcDbEntity
  8
edge cuts plate
 62
256
370
-1
 48
1.0
  6
BYLAYER
100
AcDbCircle
 10
49.6443299794630875
 20
-27.2450343922030775
 30
0.0
 40
0.3999999999999995
100
AcDbArc
 50
259.9999999999999432
 51
350.0
  0
ARC
  5
BC
100
AcDbEntity
  8
edge cuts plate
 62
256
370
-1
 48
1.0
  6
BYLAYER
100
AcDbCircle
 10
68.4049176743456542
 20
-30.553032176758105
 30
0.0
 40
0.3999999999999995
100
AcDbArc
 50
259.9999999999999432
 51
350.0
  0
ARC
  5
BD
100
AcDbEntity
  8
edge cuts plate
 62
256
370
-1
 48
1.0
  6
BYLAYER
100
AcDbCircle
 10
87.165505369228228
 20
-33.861029961313136
 30
0.0
 40
0.3999999999999995
100
AcDbArc
 50
259.9999999999999432
 51
350.0
  0
ARC
  5
BE
100
AcDbEntity
  8
edge cuts plate
 62
256
370
-1
 48
1.0
  6
BYLAYER
100
AcDbCircle
 10
105.9260930641107876
 20
-37.1690277458681493
 30
0.0
 40
0.3999999999999995
100
AcDbArc
 50
259.9999999999999432
 51
350.0
  0
ARC
  5
BF
100
AcDbEntity
  8
edge cuts plate
 62
256
370
-1
 48
1.0
  6
BYLAYER
100
AcDbCircle
 10
110.688593064110762
 20
-57.3526619479156636
 30
0.0
 40
0.3999999999999995
100
AcDbArc
 50
259.9999999999999432
 51
350.0
  0
ARC
  5
C0
100
AcDbEntity
  8
edge cuts plate
 62
256
370
-1
 48
1.0
  6
BYLAYER
100
AcDbCircle
 10
91.9280053692282451
 20
-54.0446641633606362
 30
0.0
 40
0.3999999999999995
100
AcDbArc
 50
259.9999999999999432
 51
350.0
  0
ARC
  5
C1
100
AcDbEntity
  8
edge cuts plate
 62
256
370
-1
 48
1.0
  6
BYLAYER
100
AcDbCircle
 10
73.1674176743456854
 20
-50.7366663788056087
 30
0.0
 40
0.3999999999999995
100
AcDbArc
 50
259.9999999999999432
 51
350.0
  0
ARC
  5
C2
100
AcDbEntity
  8
edge cuts plate
 62
256
370
-1
 48
1.0
  6
BYLAYER
100
AcDbCircle
 10
54.4068299794631116
 20
-47.4286685942505954
 30
0.0
 40
0.3999999999999995
100
AcDbArc
 50
259.9999999999999432
 51
350.0
  0
ARC
  5
C3
100
AcDbEntity
  8
edge cuts plate
 62
256
370
-1
 48
1.0
  6
BYLAYER
100
AcDbCircle
 10
65.2126850104867799
 20
-68.6740526892963743
 30
0.0
 40
0.3999999999999995
100
AcDbArc
 50
259.9999999999999432
 51
350.0
  0
ARC
  5
C4
100
AcDbEntity
  8
edge cuts plate
 62
256
370
-1
 48
1.0
  6
BYLAYER
100
AcDbCircle
 10
-6.5
 20
-6.5
 30
0.0
 40
0.4000000000000004
100
AcDbArc
 50
180.0
 51
270.0
  0
ARC
  5
C5
100
AcDbEntity
  8
edge cuts plate
 62
256
370
-1
 48
1.0
  6
BYLAYER
100
AcDbCircle
 10
17.3124999999999716
 20
-6.4999999999999716
 30
0.0
 40
0.4000000000000004
100
AcDbArc
 50
180.0
 51
270.0
  0
ARC
  5
C6
100
AcDbEntity
  8
edge cuts plate
 62
256
370
-1
 48
1.0
  6
BYLAYER
100
AcDbCircle
 10
-13.6437500000000096
 20
-25.5499999999999616
 30
0.0
 40
0.4000000000000004
100
AcDbArc
 50
180.0
 51
270.0
  0
ARC
  5
C7
100
AcDbEntity
  8
edge cuts plate
 62
256
370
-1
 48
1.0
  6
BYLAYER
100
AcDbCircle
 10
17.3124999999999716
 20
-25.5499999999999829
 30
0.0
 40
0.4000000000000004
100
AcDbArc
 50
180.0
 51
270.0
  0
ARC
  5
C8
100
AcDbEntity
  8
edge cuts plate
 62
256
370
-1
 48
1.0
  6
BYLAYER
100
AcDbCircle
 10
22.0749999999999886
 20
-44.5999999999999943
 30
0.0
 40
0.4000000000000004
100
AcDbArc
 50
180.0
 51
270.0
  0
ARC
  5
C9
100
AcDbEntity
  8
edge cuts plate
 62
256
370
-1
 48
1.0
  6
BYLAYER
100
AcDbCircle
 10
-13.6437500000000114
 20
-63.6499999999999773
 30
0.0
 40
0.4000000000000004
100
AcDbArc
 50
180.0
 51
270.0
  0
ARC
  5
CA
100
AcDbEntity
  8
edge cuts plate
 62
256
370
-1
 48
1.0
  6
BYLAYER
100
AcDbCircle
 10
7.7874999999999943
 20
-63.6499999999999773
 30
0.0
 40
0.4000000000000004
100
AcDbArc
 50
180.0
 51
270.0
  0
ARC
  5
CB
100
AcDbEntity
  8
edge cuts plate
 62
256
370
-1
 48
1.0
  6
BYLAYER
100
AcDbCircle
 10
36.8418291903044164
 20
-5.6437311261095457
 30
0.0
 40
0.4000000000000004
100
AcDbArc
 50
170.0000000000000284
 51
260.0
  0
ARC
  5
CC
100
AcDbEntity
  8
edge cuts plate
 62
256
370
-1
 48
1.0
  6
BYLAYER
100
AcDbCircle
 10
55.6024168851869476
 20
-8.9517289106645741
 30
0.0
 40
0.4000000000000004
100
AcDbArc
 50
170.0000000000000284
 51
260.0
  0
ARC
  5
CD
100
AcDbEntity
  8
edge cuts plate
 62
256
370
-1
 48
1.0
  6
BYLAYER
100
AcDbCircle
 10
74.3630045800695143
 20
-12.2597266952195945
 30
0.0
 40
0.4000000000000004
100
AcDbArc
 50
170.0000000000000284
 51
260.0
  0
ARC
  5
CE
100
AcDbEntity
  8
edge cuts plate
 62
256
370
-1
 48
1.0
  6
BYLAYER
100
AcDbCircle
 10
93.1235922749521023
 20
-15.5677244797746184
 30
0.0
 40
0.4000000000000004
100
AcDbArc
 50
170.0000000000000284
 51
260.0
  0
ARC
  5
CF
100
AcDbEntity
  8
edge cuts plate
 62
256
370
-1
 48
1.0
  6
BYLAYER
100
AcDbCircle
 10
36.841829190304388
 20
-24.9876080825329829
 30
0.0
 40
0.4000000000000004
100
AcDbArc
 50
170.0000000000000284
 51
260.0
  0
ARC
  5
D0
100
AcDbEntity
  8
edge cuts plate
 62
256
370
-1
 48
1.0
  6
BYLAYER
100
AcDbCircle
 10
55.6024168851869476
 20
-28.2956058670880104
 30
0.0
 40
0.4000000000000004
100
AcDbArc
 50
170.0000000000000284
 51
260.0
  0
ARC
  5
D1
100
AcDbEntity
  8
edge cuts plate
 62
256
370
-1
 48
1.0
  6
BYLAYER
100
AcDbCircle
 10
74.3630045800695143
 20
-31.6036036516430379
 30
0.0
 40
0.4000000000000004
100
AcDbArc
 50
170.0000000000000284
 51
260.0
  0
ARC
  5
D2
100
AcDbEntity
  8
edge cuts plate
 62
256
370
-1
 48
1.0
  6
BYLAYER
100
AcDbCircle
 10
93.1235922749520739
 20
-34.9116014361980547
 30
0.0
 40
0.4000000000000004
100
AcDbArc
 50
170.0000000000000284
 51
260.0
  0
ARC
  5
D3
100
AcDbEntity
  8
edge cuts plate
 62
256
370
-1
 48
1.0
  6
BYLAYER
100
AcDbCircle
 10
97.8860922749520483
 20
-55.0952356382455619
 30
0.0
 40
0.4000000000000004
100
AcDbArc
 50
170.0000000000000284
 51
260.0
  0
ARC
  5
D4
100
AcDbEntity
  8
edge cuts plate
 62
256
370
-1
 48
1.0
  6
BYLAYER
100
AcDbCircle
 10
79.1255045800695314
 20
-51.7872378536905416
 30
0.0
 40
0.4000000000000004
100
AcDbArc
 50
170.0000000000000284
 51
260.0
  0
ARC
  5
D5
100
AcDbEntity
  8
edge cuts plate
 62
256
370
-1
 48
1.0
  6
BYLAYER
100
AcDbCircle
 10
60.3649168851869788
 20
-48.4792400691355141
 30
0.0
 40
0.4000000000000004
100
AcDbArc
 50
170.0000000000000284
 51
260.0
  0
ARC
  5
D6
100
AcDbEntity
  8
edge cuts plate
 62
256
370
-1
 48
1.0
  6
BYLAYER
100
AcDbCircle
 10
41.6043291903044121
 20
-45.1712422845804937
 30
0.0
 40
0.4000000000000004
100
AcDbArc
 50
170.0000000000000284
 51
260.0
  0
ARC
  5
D7
100
AcDbEntity
  8
edge cuts plate
 62
256
370
-1
 48
1.0
  6
BYLAYER
100
AcDbCircle
 10
52.4101842213280804
 20
-66.4166263796262797
 30
0.0
 40
0.4000000000000004
100
AcDbArc
 50
170.0000000000000284
 51
260.0
  0
ARC
  5
D8
100
AcDbEntity
  8
edge cuts plate
 62
256
370
-1
 48
1.0
  6
BYLAYER
100
AcDbCircle
 10
-6.5000000000000142
 20
6.5000000000000142
 30
0.0
 40
0.3999999999999861
100
AcDbArc
 50
90.0000000000020322
 51
180.0
  0
ARC
  5
D9
100
AcDbEntity
  8
edge cuts plate
 62
256
370
-1
 48
1.0
  6
BYLAYER
100
AcDbCircle
 10
17.3124999999999574
 20
6.5000000000000426
 30
0.0
 40
0.3999999999999861
100
AcDbArc
 50
90.0000000000020322
 51
180.0
  0
ARC
  5
DA
100
AcDbEntity
  8
edge cuts plate
 62
256
370
-1
 48
1.0
  6
BYLAYER
100
AcDbCircle
 10
-13.6437500000000238
 20
-12.5499999999999474
 30
0.0
 40
0.3999999999999861
100
AcDbArc
 50
90.0000000000020322
 51
180.0
  0
ARC
  5
DB
100
AcDbEntity
  8
edge cuts plate
 62
256
370
-1
 48
1.0
  6
BYLAYER
100
AcDbCircle
 10
17.3124999999999574
 20
-12.5499999999999687
 30
0.0
 40
0.3999999999999861
100
AcDbArc
 50
90.0000000000020322
 51
180.0
  0
ARC
  5
DC
100
AcDbEntity
  8
edge cuts plate
 62
256
370
-1
 48
1.0
  6
BYLAYER
100
AcDbCircle
 10
22.0749999999999744
 20
-31.5999999999999801
 30
0.0
 40
0.3999999999999861
100
AcDbArc
 50
90.0000000000020322
 51
180.0
  0
ARC
  5
DD
100
AcDbEntity
  8
edge cuts plate
 62
256
370
-1
 48
1.0
  6
BYLAYER
100
AcDbCircle
 10
-13.6437500000000256
 20
-50.6499999999999631
 30
0.0
 40
0.3999999999999861
100
AcDbArc
 50
90.0000000000020322
 51
180.0
  0
ARC
  5
DE
100
AcDbEntity
  8
edge cuts plate
 62
256
370
-1
 48
1.0
  6
BYLAYER
100
AcDbCircle
 10
7.7874999999999801
 20
-50.6499999999999631
 30
0.0
 40
0.3999999999999861
100
AcDbArc
 50
90.0000000000020322
 51
180.0
  0
ARC
  5
DF
100
AcDbEntity
  8
edge cuts plate
 62
256
370
-1
 48
1.0
  6
BYLAYER
100
AcDbCircle
 10
39.0992554999744968
 20
7.1587696630491751
 30
0.0
 40
0.3999999999999861
100
AcDbArc
 50
80.0000000000020322
 51
170.0000000000000284
  0
ARC
  5
E0
100
AcDbEntity
  8
edge cuts plate
 62
256
370
-1
 48
1.0
  6
BYLAYER
100
AcDbCircle
 10
57.859843194857028
 20
3.8507718784941476
 30
0.0
 40
0.3999999999999861
100
AcDbArc
 50
80.0000000000020322
 51
170.0000000000000284
  0
ARC
  5
E1
100
AcDbEntity
  8
edge cuts plate
 62
256
370
-1
 48
1.0
  6
BYLAYER
100
AcDbCircle
 10
76.6204308897395947
 20
0.5427740939391272
 30
0.0
 40
0.3999999999999861
100
AcDbArc
 50
80.0000000000020322
 51
170.0000000000000284
  0
ARC
  5
E2
100
AcDbEntity
  8
edge cuts plate
 62
256
370
-1
 48
1.0
  6
BYLAYER
100
AcDbCircle
 10
95.3810185846221827
 20
-2.7652236906158967
 30
0.0
 40
0.3999999999999861
100
AcDbArc
 50
80.0000000000020322
 51
170.0000000000000284
  0
ARC
  5
E3
100
AcDbEntity
  8
edge cuts plate
 62
256
370
-1
 48
1.0
  6
BYLAYER
100
AcDbCircle
 10
39.0992554999744684
 20
-12.1851072933742621
 30
0.0
 40
0.3999999999999861
100
AcDbArc
 50
80.0000000000020322
 51
170.0000000000000284
  0
ARC
  5
E4
100
AcDbEntity
  8
edge cuts plate
 62
256
370
-1
 48
1.0
  6
BYLAYER
100
AcDbCircle
 10
57.859843194857028
 20
-15.4931050779292896
 30
0.0
 40
0.3999999999999861
100
AcDbArc
 50
80.0000000000020322
 51
170.0000000000000284
  0
ARC
  5
E5
100
AcDbEntity
  8
edge cuts plate
 62
256
370
-1
 48
1.0
  6
BYLAYER
100
AcDbCircle
 10
76.6204308897395947
 20
-18.8011028624843171
 30
0.0
 40
0.3999999999999861
100
AcDbArc
 50
80.0000000000020322
 51
170.0000000000000284
  0
ARC
  5
E6
100
AcDbEntity
  8
edge cuts plate
 62
256
370
-1
 48
1.0
  6
BYLAYER
100
AcDbCircle
 10
95.3810185846221543
 20
-22.1091006470393374
 30
0.0
 40
0.3999999999999861
100
AcDbArc
 50
80.0000000000020322
 51
170.0000000000000284
  0
ARC
  5
E7
100
AcDbEntity
  8
edge cuts plate
 62
256
370
-1
 48
1.0
  6
BYLAYER
100
AcDbCircle
 10
100.1435185846221287
 20
-42.2927348490868411
 30
0.0
 40
0.3999999999999861
100
AcDbArc
 50
80.0000000000020322
 51
170.0000000000000284
  0
ARC
  5
E8
100
AcDbEntity
  8
edge cuts plate
 62
256
370
-1
 48
1.0
  6
BYLAYER
100
AcDbCircle
 10
81.3829308897396118
 20
-38.9847370645318207
 30
0.0
 40
0.3999999999999861
100
AcDbArc
 50
80.0000000000020322
 51
170.0000000000000284
  0
ARC
  5
E9
100
AcDbEntity
  8
edge cuts plate
 62
256
370
-1
 48
1.0
  6
BYLAYER
100
AcDbCircle
 10
62.6223431948570592
 20
-35.6767392799767933
 30
0.0
 40
0.3999999999999861
100
AcDbArc
 50
80.0000000000020322
 51
170.0000000000000284
  0
ARC
  5
EA
100
AcDbEntity
  8
edge cuts plate
 62
256
370
-1
 48
1.0
  6
BYLAYER
100
AcDbCircle
 10
43.8617554999744925
 20
-32.3687414954217729
 30
0.0
 40
0.3999999999999861
100
AcDbArc
 50
80.0000000000020322
 51
170.0000000000000284
  0
ARC
  5
EB
100
AcDbEntity
  8
edge cuts plate
 62
256
370
-1
 48
1.0
  6
BYLAYER
100
AcDbCircle
 10
54.6676105309981608
 20
-53.6141255904675589
 30
0.0
 40
0.3999999999999861
100
AcDbArc
 50
80.0000000000020322
 51
170.0000000000000284
  0
LINE
  5
EC
100
AcDbEntity
  8
edge cuts plate
 62
256
370
-1
 48
1.0
  6
BYLAYER
100
AcDbLine
 10
-6.5000000000000284
 20
6.9000000000000004
 30
0.0
 11
6.5
 21
6.9000000000000004
 31
0.0
  0
LINE
  5
ED
100
AcDbEntity
  8
edge cuts plate
 62
256
370
-1
 48
1.0
  6
BYLAYER
100
AcDbLine
 10
17.3124999999999432
 20
6.9000000000000288
 30
0.0
 11
30.3124999999999716
 21
6.9000000000000288
 31
0.0
  0
LINE
  5
EE
100
AcDbEntity
  8
edge cuts plate
 62
256
370
-1
 48
1.0
  6
BYLAYER
100
AcDbLine
 10
-13.6437500000000131
 20
-12.1499999999999613
 30
0.0
 11
4.1187500000000021
 21
-12.1499999999999613
 31
0.0
  0
LINE
  5
EF
100
AcDbEntity
  8
edge cuts plate
 62
256
370
-1
 48
1.0
  6
BYLAYER
100
AcDbLine
 10
17.3124999999999432
 20
-12.1499999999999826
 30
0.0
 11
30.3124999999999716
 21
-12.1499999999999826
 31
0.0
  0
LINE
  5
F0
100
AcDbEntity
  8
edge cuts plate
 62
256
370
-1
 48
1.0
  6
BYLAYER
100
AcDbLine
 10
22.0749999999999602
 20
-31.1999999999999957
 30
0.0
 11
35.0749999999999886
 21
-31.1999999999999957
 31
0.0
  0
LINE
  5
F1
100
AcDbEntity
  8
edge cuts plate
 62
256
370
-1
 48
1.0
  6
BYLAYER
100
AcDbLine
 10
-13.6437500000000398
 20
-50.2499999999999787
 30
0.0
 11
-0.6437500000000114
 21
-50.2499999999999787
 31
0.0
  0
LINE
  5
F2
100
AcDbEntity
  8
edge cuts plate
 62
256
370
-1
 48
1.0
  6
BYLAYER
100
AcDbLine
 10
7.7874999999999659
 20
-50.2499999999999787
 30
0.0
 11
20.7874999999999943
 21
-50.2499999999999787
 31
0.0
  0
LINE
  5
F3
100
AcDbEntity
  8
edge cuts plate
 62
256
370
-1
 48
1.0
  6
BYLAYER
100
AcDbLine
 10
39.1687147710412518
 20
7.5526927642540462
 30
0.0
 11
51.9712155601999868
 21
5.2952664545839498
 31
0.0
  0
LINE
  5
F4
100
AcDbEntity
  8
edge cuts plate
 62
256
370
-1
 48
1.0
  6
BYLAYER
100
AcDbLine
 10
57.929302465923783
 20
4.2446949796990188
 30
0.0
 11
70.7318032550825109
 21
1.9872686700289224
 31
0.0
  0
LINE
  5
F5
100
AcDbEntity
  8
edge cuts plate
 62
256
370
-1
 48
1.0
  6
BYLAYER
100
AcDbLine
 10
76.6898901608063568
 20
0.9366971951439984
 30
0.0
 11
89.4923909499650847
 21
-1.320729114526098
 31
0.0
  0
LINE
  5
F6
100
AcDbEntity
  8
edge cuts plate
 62
256
370
-1
 48
1.0
  6
BYLAYER
100
AcDbLine
 10
95.4504778556889448
 20
-2.3713005894110255
 30
0.0
 11
108.2529786448476727
 21
-4.6287268990811219
 31
0.0
  0
LINE
  5
F7
100
AcDbEntity
  8
edge cuts plate
 62
256
370
-1
 48
1.0
  6
BYLAYER
100
AcDbLine
 10
39.1687147710412233
 20
-11.7911841921693892
 30
0.0
 11
51.9712155601999584
 21
-14.0486105018394873
 31
0.0
  0
LINE
  5
F8
100
AcDbEntity
  8
edge cuts plate
 62
256
370
-1
 48
1.0
  6
BYLAYER
100
AcDbLine
 10
57.929302465923783
 20
-15.0991819767244166
 30
0.0
 11
70.7318032550825109
 21
-17.3566082863945148
 31
0.0
  0
LINE
  5
F9
100
AcDbEntity
  8
edge cuts plate
 62
256
370
-1
 48
1.0
  6
BYLAYER
100
AcDbLine
 10
76.6898901608063568
 20
-18.4071797612794441
 30
0.0
 11
89.4923909499650847
 21
-20.6646060709495423
 31
0.0
  0
LINE
  5
FA
100
AcDbEntity
  8
edge cuts plate
 62
256
370
-1
 48
1.0
  6
BYLAYER
100
AcDbLine
 10
95.4504778556889164
 20
-21.7151775458344645
 30
0.0
 11
108.2529786448476443
 21
-23.9726038555045626
 31
0.0
  0
LINE
  5
FB
100
AcDbEntity
  8
edge cuts plate
 62
256
370
-1
 48
1.0
  6
BYLAYER
100
AcDbLine
 10
100.2129778556888908
 20
-41.8988117478819717
 30
0.0
 11
113.0154786448476187
 21
-44.1562380575520663
 31
0.0
  0
LINE
  5
FC
100
AcDbEntity
  8
edge cuts plate
 62
256
370
-1
 48
1.0
  6
BYLAYER
100
AcDbLine
 10
81.4523901608063738
 20
-38.5908139633269514
 30
0.0
 11
94.2548909499651018
 21
-40.848240272997046
 31
0.0
  0
LINE
  5
FD
100
AcDbEntity
  8
edge cuts plate
 62
256
370
-1
 48
1.0
  6
BYLAYER
100
AcDbLine
 10
62.6918024659238142
 20
-35.2828161787719239
 30
0.0
 11
75.4943032550825421
 21
-37.5402424884420185
 31
0.0
  0
LINE
  5
FE
100
AcDbEntity
  8
edge cuts plate
 62
256
370
-1
 48
1.0
  6
BYLAYER
100
AcDbLine
 10
43.9312147710412475
 20
-31.9748183942169035
 30
0.0
 11
56.7337155601999825
 21
-34.2322447038869981
 31
0.0
  0
LINE
  5
FF
100
AcDbEntity
  8
edge cuts plate
 62
256
370
-1
 48
1.0
  6
BYLAYER
100
AcDbLine
 10
54.7370698020649158
 20
-53.2202024892626895
 30
0.0
 11
67.5395705912236508
 21
-55.4776287989327841
 31
0.0
  0
LINE
  5
100
100
AcDbEntity
  8
edge cuts plate
 62
256
370
-1
 48
1.0
  6
BYLAYER
100
AcDbLine
 10
-6.9000000000000004
 20
6.5
 30
0.0
 11
-6.9000000000000004
 21
-6.5
 31
0.0
  0
LINE
  5
101
100
AcDbEntity
  8
edge cuts plate
 62
256
370
-1
 48
1.0
  6
BYLAYER
100
AcDbLine
 10
16.912499999999973
 20
6.5000000000000284
 30
0.0
 11
16.912499999999973
 21
-6.4999999999999716
 31
0.0
  0
LINE
  5
102
100
AcDbEntity
  8
edge cuts plate
 62
256
370
-1
 48
1.0
  6
BYLAYER
100
AcDbLine
 10
-14.0437500000000099
 20
-12.5499999999999616
 30
0.0
 11
-14.0437500000000099
 21
-25.5499999999999616
 31
0.0
  0
LINE
  5
103
100
AcDbEntity
  8
edge cuts plate
 62
256
370
-1
 48
1.0
  6
BYLAYER
100
AcDbLine
 10
16.912499999999973
 20
-12.5499999999999829
 30
0.0
 11
16.912499999999973
 21
-25.5499999999999829
 31
0.0
  0
LINE
  5
104
100
AcDbEntity
  8
edge cuts plate
 62
256
370
-1
 48
1.0
  6
BYLAYER
100
AcDbLine
 10
21.6749999999999901
 20
-31.5999999999999943
 30
0.0
 11
21.6749999999999901
 21
-44.5999999999999943
 31
0.0
  0
LINE
  5
105
100
AcDbEntity
  8
edge cuts plate
 62
256
370
-1
 48
1.0
  6
BYLAYER
100
AcDbLine
 10
-14.0437500000000117
 20
-50.6499999999999773
 30
0.0
 11
-14.0437500000000117
 21
-63.6499999999999773
 31
0.0
  0
LINE
  5
106
100
AcDbEntity
  8
edge cuts plate
 62
256
370
-1
 48
1.0
  6
BYLAYER
100
AcDbLine
 10
7.387499999999994
 20
-50.6499999999999773
 30
0.0
 11
7.387499999999994
 21
-63.6499999999999773
 31
0.0
  0
LINE
  5
107
100
AcDbEntity
  8
edge cuts plate
 62
256
370
-1
 48
1.0
  6
BYLAYER
100
AcDbLine
 10
38.7053323987696203
 20
7.22822893411593
 30
0.0
 11
36.4479060890995328
 21
-5.574271855042773
 31
0.0
  0
LINE
  5
108
100
AcDbEntity
  8
edge cuts plate
 62
256
370
-1
 48
1.0
  6
BYLAYER
100
AcDbLine
 10
57.4659200936521515
 20
3.9202311495609026
 30
0.0
 11
55.208493783982064
 21
-8.8822696395978014
 31
0.0
  0
LINE
  5
109
100
AcDbEntity
  8
edge cuts plate
 62
256
370
-1
 48
1.0
  6
BYLAYER
100
AcDbLine
 10
76.2265077885347324
 20
0.6122333650058822
 30
0.0
 11
73.9690814788646378
 21
-12.1902674241528217
 31
0.0
  0
LINE
  5
10A
100
AcDbEntity
  8
edge cuts plate
 62
256
370
-1
 48
1.0
  6
BYLAYER
100
AcDbLine
 10
94.9870954834173205
 20
-2.6957644195491417
 30
0.0
 11
92.7296691737472258
 21
-15.4982652087078456
 31
0.0
  0
LINE
  5
10B
100
AcDbEntity
  8
edge cuts plate
 62
256
370
-1
 48
1.0
  6
BYLAYER
100
AcDbLine
 10
38.7053323987695919
 20
-12.1156480223075071
 30
0.0
 11
36.4479060890995044
 21
-24.9181488114662102
 31
0.0
  0
LINE
  5
10C
100
AcDbEntity
  8
edge cuts plate
 62
256
370
-1
 48
1.0
  6
BYLAYER
100
AcDbLine
 10
57.4659200936521515
 20
-15.4236458068625346
 30
0.0
 11
55.208493783982064
 21
-28.2261465960212377
 31
0.0
  0
LINE
  5
10D
100
AcDbEntity
  8
edge cuts plate
 62
256
370
-1
 48
1.0
  6
BYLAYER
100
AcDbLine
 10
76.2265077885347324
 20
-18.7316435914175621
 30
0.0
 11
73.9690814788646378
 21
-31.5341443805762651
 31
0.0
  0
LINE
  5
10E
100
AcDbEntity
  8
edge cuts plate
 62
256
370
-1
 48
1.0
  6
BYLAYER
100
AcDbLine
 10
94.987095483417292
 20
-22.0396413759725824
 30
0.0
 11
92.7296691737471974
 21
-34.8421421651312855
 31
0.0
  0
LINE
  5
10F
100
AcDbEntity
  8
edge cuts plate
 62
256
370
-1
 48
1.0
  6
BYLAYER
100
AcDbLine
 10
99.7495954834172665
 20
-42.2232755780200861
 30
0.0
 11
97.4921691737471718
 21
-55.0257763671787927
 31
0.0
  0
LINE
  5
110
100
AcDbEntity
  8
edge cuts plate
 62
256
370
-1
 48
1.0
  6
BYLAYER
100
AcDbLine
 10
80.9890077885347495
 20
-38.9152777934650658
 30
0.0
 11
78.7315814788646549
 21
-51.7177785826237724
 31
0.0
  0
LINE
  5
111
100
AcDbEntity
  8
edge cuts plate
 62
256
370
-1
 48
1.0
  6
BYLAYER
100
AcDbLine
 10
62.2284200936521827
 20
-35.6072800089100383
 30
0.0
 11
59.9709937839820952
 21
-48.4097807980687449
 31
0.0
  0
LINE
  5
112
100
AcDbEntity
  8
edge cuts plate
 62
256
370
-1
 48
1.0
  6
BYLAYER
100
AcDbLine
 10
43.467832398769616
 20
-32.2992822243550179
 30
0.0
 11
41.2104060890995214
 21
-45.1017830135137245
 31
0.0
  0
LINE
  5
113
100
AcDbEntity
  8
edge cuts plate
 62
256
370
-1
 48
1.0
  6
BYLAYER
100
AcDbLine
 10
54.2736874297932843
 20
-53.5446663194008039
 30
0.0
 11
52.0162611201231897
 21
-66.3471671085595034
 31
0.0
  0
LINE
  5
114
100
AcDbEntity
  8
edge cuts plate
 62
256
370
-1
 48
1.0
  6
BYLAYER
100
AcDbLine
 10
-6.5
 20
-6.9000000000000004
 30
0.0
 11
6.5
 21
-6.9000000000000004
 31
0.0
  0
LINE
  5
115
100
AcDbEntity
  8
edge cuts plate
 62
256
370
-1
 48
1.0
  6
BYLAYER
100
AcDbLine
 10
17.3124999999999716
 20
-6.8999999999999719
 30
0.0
 11
30.3124999999999716
 21
-6.8999999999999719
 31
0.0
  0
LINE
  5
116
100
AcDbEntity
  8
edge cuts plate
 62
256
370
-1
 48
1.0
  6
BYLAYER
100
AcDbLine
 10
-13.6437500000000096
 20
-25.9499999999999602
 30
0.0
 11
4.1187500000000021
 21
-25.9499999999999602
 31
0.0
  0
LINE
  5
117
100
AcDbEntity
  8
edge cuts plate
 62
256
370
-1
 48
1.0
  6
BYLAYER
100
AcDbLine
 10
17.3124999999999716
 20
-25.9499999999999815
 30
0.0
 11
30.3124999999999716
 21
-25.9499999999999815
 31
0.0
  0
LINE
  5
118
100
AcDbEntity
  8
edge cuts plate
 62
256
370
-1
 48
1.0
  6
BYLAYER
100
AcDbLine
 10
22.0749999999999886
 20
-44.9999999999999929
 30
0.0
 11
35.0749999999999886
 21
-44.9999999999999929
 31
0.0
  0
LINE
  5
119
100
AcDbEntity
  8
edge cuts plate
 62
256
370
-1
 48
1.0
  6
BYLAYER
100
AcDbLine
 10
-13.6437500000000114
 20
-64.0499999999999829
 30
0.0
 11
-0.6437500000000114
 21
-64.0499999999999829
 31
0.0
  0
LINE
  5
11A
100
AcDbEntity
  8
edge cuts plate
 62
256
370
-1
 48
1.0
  6
BYLAYER
100
AcDbLine
 10
7.7874999999999943
 20
-64.0499999999999829
 30
0.0
 11
20.7874999999999943
 21
-64.0499999999999829
 31
0.0
  0
LINE
  5
11B
100
AcDbEntity
  8
edge cuts plate
 62
256
370
-1
 48
1.0
  6
BYLAYER
100
AcDbLine
 10
36.7723699192376401
 20
-6.0376542273144311
 30
0.0
 11
49.5748707083963467
 21
-8.2950805369845249
 31
0.0
  0
LINE
  5
11C
100
AcDbEntity
  8
edge cuts plate
 62
256
370
-1
 48
1.0
  6
BYLAYER
100
AcDbLine
 10
55.5329576141201713
 20
-9.3456520118694577
 30
0.0
 11
68.3354584032788779
 21
-11.6030783215395523
 31
0.0
  0
LINE
  5
11D
100
AcDbEntity
  8
edge cuts plate
 62
256
370
-1
 48
1.0
  6
BYLAYER
100
AcDbLine
 10
74.2935453090027522
 20
-12.6536497964244781
 30
0.0
 11
87.0960460981614517
 21
-14.9110761060945727
 31
0.0
  0
LINE
  5
11E
100
AcDbEntity
  8
edge cuts plate
 62
256
370
-1
 48
1.0
  6
BYLAYER
100
AcDbLine
 10
93.0541330038853403
 20
-15.961647580979502
 30
0.0
 11
105.8566337930440397
 21
-18.2190738906495966
 31
0.0
  0
LINE
  5
11F
100
AcDbEntity
  8
edge cuts plate
 62
256
370
-1
 48
1.0
  6
BYLAYER
100
AcDbLine
 10
36.7723699192376117
 20
-25.3815311837378665
 30
0.0
 11
49.5748707083963183
 21
-27.6389574934079612
 31
0.0
  0
LINE
  5
120
100
AcDbEntity
  8
edge cuts plate
 62
256
370
-1
 48
1.0
  6
BYLAYER
100
AcDbLine
 10
55.5329576141201713
 20
-28.689528968292894
 30
0.0
 11
68.3354584032788779
 21
-30.9469552779629886
 31
0.0
  0
LINE
  5
121
100
AcDbEntity
  8
edge cuts plate
 62
256
370
-1
 48
1.0
  6
BYLAYER
100
AcDbLine
 10
74.2935453090027522
 20
-31.9975267528479215
 30
0.0
 11
87.0960460981614517
 21
-34.2549530625180125
 31
0.0
  0
LINE
  5
122
100
AcDbEntity
  8
edge cuts plate
 62
256
370
-1
 48
1.0
  6
BYLAYER
100
AcDbLine
 10
93.0541330038853118
 20
-35.3055245374029454
 30
0.0
 11
105.8566337930440113
 21
-37.56295084707304
 31
0.0
  0
LINE
  5
123
100
AcDbEntity
  8
edge cuts plate
 62
256
370
-1
 48
1.0
  6
BYLAYER
100
AcDbLine
 10
97.8166330038852863
 20
-55.4891587394504526
 30
0.0
 11
110.6191337930439857
 21
-57.7465850491205401
 31
0.0
  0
LINE
  5
124
100
AcDbEntity
  8
edge cuts plate
 62
256
370
-1
 48
1.0
  6
BYLAYER
100
AcDbLine
 10
79.0560453090027693
 20
-52.1811609548954323
 30
0.0
 11
91.8585460981614688
 21
-54.4385872645655269
 31
0.0
  0
LINE
  5
125
100
AcDbEntity
  8
edge cuts plate
 62
256
370
-1
 48
1.0
  6
BYLAYER
100
AcDbLine
 10
60.2954576141202025
 20
-48.8731631703404048
 30
0.0
 11
73.0979584032789091
 21
-51.1305894800104994
 31
0.0
  0
LINE
  5
126
100
AcDbEntity
  8
edge cuts plate
 62
256
370
-1
 48
1.0
  6
BYLAYER
100
AcDbLine
 10
41.5348699192376358
 20
-45.5651653857853844
 30
0.0
 11
54.3373707083963424
 21
-47.8225916954554719
 31
0.0
  0
LINE
  5
127
100
AcDbEntity
  8
edge cuts plate
 62
256
370
-1
 48
1.0
  6
BYLAYER
100
AcDbLine
 10
52.3407249502613041
 20
-66.8105494808311704
 30
0.0
 11
65.1432257394200036
 21
-69.067975790501265
 31
0.0
  0
LINE
  5
128
100
AcDbEntity
  8
edge cuts plate
 62
256
370
-1
 48
1.0
  6
BYLAYER
100
AcDbLine
 10
4.518750000000006
 20
-19.0499999999999616
 30
0.0
 11
4.6187500000000057
 21
-19.0499999999999616
 31
0.0
  0
LINE
  5
129
100
AcDbEntity
  8
edge cuts plate
 62
256
370
-1
 48
1.0
  6
BYLAYER
100
AcDbLine
 10
-17.7192500000000095
 20
-46.5999999999999375
 30
0.0
 11
-17.7192500000000095
 21
-31.5999999999999375
 31
0.0
  0
LINE
  5
12A
100
AcDbEntity
  8
edge cuts plate
 62
256
370
-1
 48
1.0
  6
BYLAYER
100
AcDbLine
 10
106.9636815563800099
 20
-60.8083373264885694
 30
0.0
 11
104.358958891376048
 21
-75.5804536216716798
 31
0.0
  0
LINE
  5
12B
100
AcDbEntity
  8
edge cuts plate
 62
256
370
-1
 48
1.0
  6
BYLAYER
100
AcDbLine
 10
-17.3192500000000109
 20
-31.1999999999999389
 30
0.0
 11
12.5567500000000223
 21
-31.1999999999999389
 31
0.0
  0
LINE
  5
12C
100
AcDbEntity
  8
edge cuts plate
 62
256
370
-1
 48
1.0
  6
BYLAYER
100
AcDbLine
 10
103.8955765191043952
 20
-75.90491745180978
 30
0.0
 11
74.4734600901116437
 21
-70.717004495832569
 31
0.0
  0
LINE
  5
12D
100
AcDbEntity
  8
edge cuts plate
 62
256
370
-1
 48
1.0
  6
BYLAYER
100
AcDbLine
 10
12.9567500000000226
 20
-31.5999999999999375
 30
0.0
 11
12.9567500000000226
 21
-46.5999999999999375
 31
0.0
  0
LINE
  5
12E
100
AcDbEntity
  8
edge cuts plate
 62
256
370
-1
 48
1.0
  6
BYLAYER
100
AcDbLine
 10
74.1489962599735293
 20
-70.2536221235609162
 30
0.0
 11
76.7537189249774912
 21
-55.4815058283777915
 31
0.0
  0
LINE
  5
12F
100
AcDbEntity
  8
edge cuts plate
 62
256
370
-1
 48
1.0
  6
BYLAYER
100
AcDbLine
 10
12.5567500000000223
 20
-46.9999999999999361
 30
0.0
 11
6.5567500000000223
 21
-46.9999999999999361
 31
0.0
  0
LINE
  5
130
100
AcDbEntity
  8
edge cuts plate
 62
256
370
-1
 48
1.0
  6
BYLAYER
100
AcDbLine
 10
77.217101297249144
 20
-55.1570419982396771
 30
0.0
 11
83.125947815322391
 21
-56.1989310642412647
 31
0.0
  0
LINE
  5
131
100
AcDbEntity
  8
edge cuts plate
 62
256
370
-1
 48
1.0
  6
BYLAYER
100
AcDbLine
 10
6.1567500000000219
 20
-46.5999999999999375
 30
0.0
 11
6.1567500000000219
 21
-45.5999999999999375
 31
0.0
  0
LINE
  5
132
100
AcDbEntity
  8
edge cuts plate
 62
256
370
-1
 48
1.0
  6
BYLAYER
100
AcDbLine
 10
83.4504116454605054
 20
-56.6623134365129175
 30
0.0
 11
83.2767634677935717
 21
-57.647121189525123
 31
0.0
  0
LINE
  5
133
100
AcDbEntity
  8
edge cuts plate
 62
256
370
-1
 48
1.0
  6
BYLAYER
100
AcDbLine
 10
5.5567500000000223
 20
-44.9999999999999361
 30
0.0
 11
-10.3192500000000109
 21
-44.9999999999999361
 31
0.0
  0
LINE
  5
134
100
AcDbEntity
  8
edge cuts plate
 62
256
370
-1
 48
1.0
  6
BYLAYER
100
AcDbLine
 10
83.7634592130007434
 20
-58.3421947479326093
 30
0.0
 11
99.3982670998225899
 21
-61.0990332165728063
 31
0.0
  0
LINE
  5
135
100
AcDbEntity
  8
edge cuts plate
 62
256
370
-1
 48
1.0
  6
BYLAYER
100
AcDbLine
 10
-10.9192500000000106
 20
-45.5999999999999375
 30
0.0
 11
-10.9192500000000106
 21
-46.5999999999999375
 31
0.0
  0
LINE
  5
136
100
AcDbEntity
  8
edge cuts plate
 62
256
370
-1
 48
1.0
  6
BYLAYER
100
AcDbLine
 10
100.093340658230062
 20
-60.6123374713656347
 30
0.0
 11
100.2669888358969956
 21
-59.6275297183534292
 31
0.0
  0
LINE
  5
137
100
AcDbEntity
  8
edge cuts plate
 62
256
370
-1
 48
1.0
  6
BYLAYER
100
AcDbLine
 10
-11.3192500000000109
 20
-46.9999999999999361
 30
0.0
 11
-17.3192500000000109
 21
-46.9999999999999361
 31
0.0
  0
LINE
  5
138
100
AcDbEntity
  8
edge cuts plate
 62
256
370
-1
 48
1.0
  6
BYLAYER
100
AcDbLine
 10
100.7303712081686484
 20
-59.303065888215329
 30
0.0
 11
106.6392177262418954
 21
-60.3449549542169024
 31
0.0
  0
ARC
  5
139
100
AcDbEntity
  8
edge cuts plate
 62
256
370
-1
 48
1.0
  6
BYLAYER
100
AcDbCircle
 10
-17.3192500000000109
 20
-46.5999999999999375
 30
0.0
 40
0.3999999999999986
100
AcDbArc
 50
180.0
 51
270.0
  0
ARC
  5
13A
100
AcDbEntity
  8
edge cuts plate
 62
256
370
-1
 48
1.0
  6
BYLAYER
100
AcDbCircle
 10
106.5697584551751333
 20
-60.7388780554217931
 30
0.0
 40
0.3999999999999986
100
AcDbArc
 50
350.0
 51
79.9999999999999858
  0
ARC
  5
13B
100
AcDbEntity
  8
edge cuts plate
 62
256
370
-1
 48
1.0
  6
BYLAYER
100
AcDbCircle
 10
-11.3192500000000109
 20
-46.5999999999999375
 30
0.0
 40
0.3999999999999986
100
AcDbArc
 50
270.0
 51
0.0
  0
ARC
  5
13C
100
AcDbEntity
  8
edge cuts plate
 62
256
370
-1
 48
1.0
  6
BYLAYER
100
AcDbCircle
 10
100.6609119371018721
 20
-59.6969889894202055
 30
0.0
 40
0.3999999999999986
100
AcDbArc
 50
79.9999999999999858
 51
170.0
  0
ARC
  5
13D
100
AcDbEntity
  8
edge cuts plate
 62
256
370
-1
 48
1.0
  6
BYLAYER
100
AcDbCircle
 10
-10.3192500000000145
 20
-45.5999999999999446
 30
0.0
 40
0.6000000000000014
100
AcDbArc
 50
89.9999999999996732
 51
180.0
  0
ARC
  5
13E
100
AcDbEntity
  8
edge cuts plate
 62
256
370
-1
 48
1.0
  6
BYLAYER
100
AcDbCircle
 10
99.5024560064227472
 20
-60.5081485647654773
 30
0.0
 40
0.6000000000000014
100
AcDbArc
 50
259.9999999999996589
 51
350.0
  0
ARC
  5
13F
100
AcDbEntity
  8
edge cuts plate
 62
256
370
-1
 48
1.0
  6
BYLAYER
100
AcDbCircle
 10
5.5567500000000249
 20
-45.5999999999999375
 30
0.0
 40
0.599999999999997
100
AcDbArc
 50
0.0
 51
90.0000000000001847
  0
ARC
  5
140
100
AcDbEntity
  8
edge cuts plate
 62
256
370
-1
 48
1.0
  6
BYLAYER
100
AcDbCircle
 10
83.8676481196008865
 20
-57.7513100961252803
 30
0.0
 40
0.599999999999997
100
AcDbArc
 50
170.0
 51
260.0000000000001705
  0
ARC
  5
141
100
AcDbEntity
  8
edge cuts plate
 62
256
370
-1
 48
1.0
  6
BYLAYER
100
AcDbCircle
 10
6.5567500000000214
 20
-46.5999999999999375
 30
0.0
 40
0.3999999999999995
100
AcDbArc
 50
180.0
 51
270.0000000000001137
  0
ARC
  5
142
100
AcDbEntity
  8
edge cuts plate
 62
256
370
-1
 48
1.0
  6
BYLAYER
100
AcDbCircle
 10
83.0564885442556147
 20
-56.5928541654461412
 30
0.0
 40
0.3999999999999995
100
AcDbArc
 50
350.0
 51
80.0000000000000853
  0
ARC
  5
143
100
AcDbEntity
  8
edge cuts plate
 62
256
370
-1
 48
1.0
  6
BYLAYER
100
AcDbCircle
 10
12.5567500000000187
 20
-46.5999999999999304
 30
0.0
 40
0.4000000000000057
100
AcDbArc
 50
270.0000000000005116
 51
0.0
  0
ARC
  5
144
100
AcDbEntity
  8
edge cuts plate
 62
256
370
-1
 48
1.0
  6
BYLAYER
100
AcDbCircle
 10
77.1476420261823677
 20
-55.5509650994445678
 30
0.0
 40
0.4000000000000057
100
AcDbArc
 50
80.0000000000004974
 51
170.0
  0
ARC
  5
145
100
AcDbEntity
  8
edge cuts plate
 62
256
370
-1
 48
1.0
  6
BYLAYER
100
AcDbCircle
 10
12.5567500000000241
 20
-31.599999999999941
 30
0.0
 40
0.3999999999999986
100
AcDbArc
 50
0.0
 51
90.0000000000002558
  0
ARC
  5
146
100
AcDbEntity
  8
edge cuts plate
 62
256
370
-1
 48
1.0
  6
BYLAYER
100
AcDbCircle
 10
74.5429193611784058
 20
-70.3230813946276783
 30
0.0
 40
0.3999999999999986
100
AcDbArc
 50
170.0
 51
260.0000000000001705
  0
ARC
  5
147
100
AcDbEntity
  8
edge cuts plate
 62
256
370
-1
 48
1.0
  6
BYLAYER
100
AcDbCircle
 10
-17.3192500000000145
 20
-31.599999999999941
 30
0.0
 40
0.3999999999999986
100
AcDbArc
 50
89.9999999999994884
 51
180.0
  0
ARC
  5
148
100
AcDbEntity
  8
edge cuts plate
 62
256
370
-1
 48
1.0
  6
BYLAYER
100
AcDbCircle
 10
103.9650357901711715
 20
-75.5109943506049035
 30
0.0
 40
0.3999999999999986
100
AcDbArc
 50
259.9999999999994316
 51
350.0
  0
ARC
  5
149
100
AcDbEntity
  8
edge cuts plate
 62
256
370
-1
 48
1.0
  6
BYLAYER
100
AcDbCircle
 10
22.4422564018116759
 20
-65.6749999999999261
 30
0.0
 40
1.0
100
AcDbArc
 50
269.9999999999996021
 51
354.9999999999993179
  0
ARC
  5
14A
100
AcDbEntity
  8
edge cuts plate
 62
256
370
-1
 48
1.0
  6
BYLAYER
100
AcDbCircle
 10
50.5169109423496252
 20
-68.142886760728075
 30
0.0
 40
1.0000000000000113
100
AcDbArc
 50
174.9999999999994316
 51
259.9999999999990905
  0
LINE
  5
14B
100
AcDbEntity
  8
edge cuts plate
 62
256
370
-1
 48
1.0
  6
BYLAYER
100
AcDbLine
 10
118.9735655505715073
 20
-45.2068095324369708
 30
0.0
 11
131.776066339730221
 21
-47.4642358421070938
 31
0.0
  0
LINE
  5
14C
100
AcDbEntity
  8
edge cuts plate
 62
256
370
-1
 48
1.0
  6
BYLAYER
100
AcDbLine
 10
132.1005301698682786
 20
-47.9276182143787253
 30
0.0
 11
126.5351060756431991
 21
-79.490706698420027
 31
0.0
  0
LINE
  5
14D
100
AcDbEntity
  8
edge cuts plate
 62
256
370
-1
 48
1.0
  6
BYLAYER
100
AcDbLine
 10
126.0717237033715463
 20
-79.8151705285581272
 30
0.0
 11
113.2692229142128753
 21
-77.5577442188880326
 31
0.0
  0
LINE
  5
14E
100
AcDbEntity
  8
edge cuts plate
 62
256
370
-1
 48
1.0
  6
BYLAYER
100
AcDbLine
 10
112.9447590840747324
 20
-77.094361846616323
 30
0.0
 11
112.9598664755317543
 21
-77.008683572104303
 31
0.0
  0
LINE
  5
14F
100
AcDbEntity
  8
edge cuts plate
 62
256
370
-1
 48
1.0
  6
BYLAYER
100
AcDbLine
 10
112.4731707303246395
 20
-76.3136100136968309
 30
0.0
 11
111.4883629773124056
 21
-76.1399618360298973
 31
0.0
  0
LINE
  5
150
100
AcDbEntity
  8
edge cuts plate
 62
256
370
-1
 48
1.0
  6
BYLAYER
100
AcDbLine
 10
111.1638991471743054
 20
-75.6765794637582445
 30
0.0
 11
112.2057882131759072
 21
-69.7677329456850117
 31
0.0
  0
LINE
  5
151
100
AcDbEntity
  8
edge cuts plate
 62
256
370
-1
 48
1.0
  6
BYLAYER
100
AcDbLine
 10
112.66917058544756
 20
-69.4432691155469115
 30
0.0
 11
113.6539783384597371
 21
-69.6169172932138451
 31
0.0
  0
LINE
  5
152
100
AcDbEntity
  8
edge cuts plate
 62
256
370
-1
 48
1.0
  6
BYLAYER
100
AcDbLine
 10
117.105890365507463
 20
-53.4954136611848341
 30
0.0
 11
114.3490518968672234
 21
-69.1302215480066451
 31
0.0
  0
LINE
  5
153
100
AcDbEntity
  8
edge cuts plate
 62
256
370
-1
 48
1.0
  6
BYLAYER
100
AcDbLine
 10
116.6191946203002345
 20
-52.8003401027773407
 30
0.0
 11
115.6343868672880575
 21
-52.6266919251104142
 31
0.0
  0
LINE
  5
154
100
AcDbEntity
  8
edge cuts plate
 62
256
370
-1
 48
1.0
  6
BYLAYER
100
AcDbLine
 10
115.3099230371499573
 20
-52.1633095528387614
 30
0.0
 11
116.3518121031515022
 21
-46.2544630347655144
 31
0.0
  0
LINE
  5
155
100
AcDbEntity
  8
edge cuts plate
 62
256
370
-1
 48
1.0
  6
BYLAYER
100
AcDbLine
 10
116.8151944754231977
 20
-45.9299992046274212
 30
0.0
 11
117.8000022284353463
 21
-46.1036473822943194
 31
0.0
  0
LINE
  5
156
100
AcDbEntity
  8
edge cuts plate
 62
256
370
-1
 48
1.0
  6
BYLAYER
100
AcDbLine
 10
118.5101831782998687
 20
-45.5312733625750212
 30
0.0
 11
118.4950757868428042
 21
-45.6169516370872401
 31
0.0
  0
ARC
  5
157
100
AcDbEntity
  8
edge cuts plate
 62
256
370
-1
 48
1.0
  6
BYLAYER
100
AcDbCircle
 10
118.904106279504731
 20
-45.6007326336418188
 30
0.0
 40
0.3999999999999756
100
AcDbArc
 50
79.9999999999967173
 51
169.9999999999959073
  0
ARC
  5
158
100
AcDbEntity
  8
edge cuts plate
 62
256
370
-1
 48
1.0
  6
BYLAYER
100
AcDbCircle
 10
117.9041911350355463
 20
-45.5127627304870401
 30
0.0
 40
0.5999999999999553
100
AcDbArc
 50
259.9999999999951683
 51
349.9999999999949409
  0
ARC
  5
159
100
AcDbEntity
  8
edge cuts plate
 62
256
370
-1
 48
1.0
  6
BYLAYER
100
AcDbCircle
 10
116.745735204356393
 20
-46.3239223058323049
 30
0.0
 40
0.400000000000006
100
AcDbArc
 50
79.9999999999954241
 51
169.9999999999972431
  0
ARC
  5
15A
100
AcDbEntity
  8
edge cuts plate
 62
256
370
-1
 48
1.0
  6
BYLAYER
100
AcDbCircle
 10
115.7038461383548338
 20
-52.2327688239055448
 30
0.0
 40
0.3999999999999813
100
AcDbArc
 50
169.9999999999978968
 51
259.9999999999990905
  0
ARC
  5
15B
100
AcDbEntity
  8
edge cuts plate
 62
256
370
-1
 48
1.0
  6
BYLAYER
100
AcDbCircle
 10
116.5150057137001198
 20
-53.3912247545847265
 30
0.0
 40
0.6000000000000373
100
AcDbArc
 50
350.0000000000055138
 51
80.0000000000051017
  0
ARC
  5
15C
100
AcDbEntity
  8
edge cuts plate
 62
256
370
-1
 48
1.0
  6
BYLAYER
100
AcDbCircle
 10
113.758167245059866
 20
-69.0260326414064878
 30
0.0
 40
0.600000000000027
100
AcDbArc
 50
260.0000000000032969
 51
350.0000000000022169
  0
ARC
  5
15D
100
AcDbEntity
  8
edge cuts plate
 62
256
370
-1
 48
1.0
  6
BYLAYER
100
AcDbCircle
 10
112.5997113143807695
 20
-69.837192216751788
 30
0.0
 40
0.3999999999999966
100
AcDbArc
 50
79.9999999999972431
 51
169.999999999999261
  0
ARC
  5
15E
100
AcDbEntity
  8
edge cuts plate
 62
256
370
-1
 48
1.0
  6
BYLAYER
100
AcDbCircle
 10
111.5578222483791677
 20
-75.7460387348250208
 30
0.0
 40
0.3999999999999801
100
AcDbArc
 50
169.9999999999988916
 51
259.9999999999988631
  0
ARC
  5
15F
100
AcDbEntity
  8
edge cuts plate
 62
256
370
-1
 48
1.0
  6
BYLAYER
100
AcDbCircle
 10
112.3689818237244396
 20
-76.9044946655041315
 30
0.0
 40
0.5999999999999924
100
AcDbArc
 50
349.9999999999985221
 51
79.9999999999970015
  0
ARC
  5
160
100
AcDbEntity
  8
edge cuts plate
 62
256
370
-1
 48
1.0
  6
BYLAYER
100
AcDbCircle
 10
113.3386821852796515
 20
-77.1638211176830993
 30
0.0
 40
0.4000000000000361
100
AcDbArc
 50
170.0000000000002842
 51
259.9999999999986358
  0
ARC
  5
161
100
AcDbEntity
  8
edge cuts plate
 62
256
370
-1
 48
1.0
  6
BYLAYER
100
AcDbCircle
 10
126.1411829744383084
 20
-79.4212474273532649
 30
0.0
 40
0.3999999999999777
100
AcDbArc
 50
260.0000000000008527
 51
350.0000000000009095
  0
ARC
  5
162
100
AcDbEntity
  8
edge cuts plate
 62
256
370
-1
 48
1.0
  6
BYLAYER
100
AcDbCircle
 10
131.7066070686634021
 20
-47.8581589433119206
 30
0.0
 40
0.399999999999971
100
AcDbArc
 50
349.999999999994543
 51
79.9999999999921698
  0
ARC
  5
163
100
AcDbEntity
  8
edge cuts plate
 62
256
370
-1
 48
1.0
  6
BYLAYER
100
AcDbCircle
 10
43.0124884569807477
 20
8.5249999999999773
 30
0.0
 40
1.0000000000000231
100
AcDbArc
 50
80.0000000000004547
 51
90.0000000000003979
  0
ENDSEC
  0
SECTION
  2
OBJECTS
  0
DICTIONARY
  5
C
100
AcDbDictionary
280
0
281
1
  3
ACAD_GROUP
350
D
  3
ACAD_LAYOUT
350
1A
  3
ACAD_MLINESTYLE
350
17
  3
ACAD_PLOTSETTINGS
350
19
  3
ACAD_PLOTSTYLENAME
350
E
  3
AcDbVariableDictionary
350
164
  3
QCAD_OBJECTS
350
165
  0
DICTIONARY
  5
D
100
AcDbDictionary
280
0
281
1
  0
ACDBDICTIONARYWDFLT
  5
E
100
AcDbDictionary
281
1
  3
Normal
350
F
100
AcDbDictionaryWithDefault
340
F
  0
ACDBPLACEHOLDER
  5
F
  0
DICTIONARY
  5
17
100
AcDbDictionary
280
0
281
1
  3
Standard
350
18
  0
MLINESTYLE
  5
18
100
AcDbMlineStyle
  2
STANDARD
 70
0
  3

 62
256
 51
90.0
 52
90.0
 71
2
 49
0.5
 62
256
  6
BYLAYER
 49
-0.5
 62
256
  6
BYLAYER
  0
DICTIONARY
  5
19
100
AcDbDictionary
280
0
281
1
  0
DICTIONARY
  5
1A
100
AcDbDictionary
281
1
  3
Layout1
350
1E
  3
Layout2
350
26
  3
Model
350
22
  0
LAYOUT
  5
1E
100
AcDbPlotSettings
  1

  2
none_device
  4

  6

 40
0.0
 41
0.0
 42
0.0
 43
0.0
 44
0.0
 45
0.0
 46
0.0
 47
0.0
 48
0.0
 49
0.0
140
0.0
141
0.0
142
1.0
143
1.0
 70
688
 72
0
 73
0
 74
5
  7

 75
16
147
1.0
148
0.0
149
0.0
100
AcDbLayout
  1
Layout1
 70
1
 71
1
 10
0.0
 20
0.0
 11
420.0
 21
297.0
 12
0.0
 22
0.0
 32
0.0
 14
100000000000000000000.0
 24
100000000000000000000.0
 34
100000000000000000000.0
 15
-100000000000000000000.0
 25
-100000000000000000000.0
 35
-100000000000000000000.0
146
0.0
 13
0.0
 23
0.0
 33
0.0
 16
1.0
 26
0.0
 36
0.0
 17
0.0
 27
1.0
 37
0.0
 76
0
330
1B
  0
LAYOUT
  5
22
100
AcDbPlotSettings
  1

  2
none_device
  4

  6

 40
0.0
 41
0.0
 42
0.0
 43
0.0
 44
0.0
 45
0.0
 46
0.0
 47
0.0
 48
0.0
 49
0.0
140
0.0
141
0.0
142
1.0
143
1.0
 70
1712
 72
0
 73
0
 74
0
  7

 75
0
147
1.0
148
0.0
149
0.0
100
AcDbLayout
  1
Model
 70
1
 71
0
 10
0.0
 20
0.0
 11
12.0
 21
9.0
 12
0.0
 22
0.0
 32
0.0
 14
0.0
 24
0.0
 34
0.0
 15
0.0
 25
0.0
 35
0.0
146
0.0
 13
0.0
 23
0.0
 33
0.0
 16
1.0
 26
0.0
 36
0.0
 17
0.0
 27
1.0
 37
0.0
 76
0
330
1F
  0
LAYOUT
  5
26
100
AcDbPlotSettings
  1

  2
none_device
  4

  6

 40
0.0
 41
0.0
 42
0.0
 43
0.0
 44
0.0
 45
0.0
 46
0.0
 47
0.0
 48
0.0
 49
0.0
140
0.0
141
0.0
142
1.0
143
1.0
 70
688
 72
0
 73
0
 74
5
  7

 75
16
147
1.0
148
0.0
149
0.0
100
AcDbLayout
  1
Layout2
 70
1
 71
2
 10
0.0
 20
0.0
 11
12.0
 21
9.0
 12
0.0
 22
0.0
 32
0.0
 14
0.0
 24
0.0
 34
0.0
 15
0.0
 25
0.0
 35
0.0
146
0.0
 13
0.0
 23
0.0
 33
0.0
 16
1.0
 26
0.0
 36
0.0
 17
0.0
 27
1.0
 37
0.0
 76
0
330
23
  0
DICTIONARY
  5
164
100
AcDbDictionary
281
1
  3
DIMASSOC
350
167
  3
HIDETEXT
350
166
  0
DICTIONARYVAR
  5
166
100
DictionaryVariables
280
0
  1
2
  0
DICTIONARYVAR
  5
167
100
DictionaryVariables
280
0
  1
1
  0
DICTIONARY
  5
165
100
AcDbDictionary
281
1
  3
ColorSettings/BackgroundColor
350
168
  3
ColorSettings/ColorMode
350
169
  3
Grid/DisplayGrid00
350
16A
  3
Grid/DisplayGrid01
350
16B
  3
Grid/DisplayGrid02
350
16C
  3
Grid/DisplayGrid03
350
16D
  3
Grid/GridSpacingX00
350
16E
  3
Grid/GridSpacingX01
350
16F
  3
Grid/GridSpacingX02
350
170
  3
Grid/GridSpacingX03
350
171
  3
Grid/GridSpacingY00
350
172
  3
Grid/GridSpacingY01
350
173
  3
Grid/GridSpacingY02
350
174
  3
Grid/GridSpacingY03
350
175
  3
Grid/IsometricGrid00
350
176
  3
Grid/IsometricGrid01
350
177
  3
Grid/IsometricGrid02
350
178
  3
Grid/IsometricGrid03
350
179
  3
Grid/IsometricProjection00
350
17A
  3
Grid/IsometricProjection01
350
17B
  3
Grid/IsometricProjection02
350
17C
  3
Grid/IsometricProjection03
350
17D
  3
Grid/MetaGridSpacingX00
350
17E
  3
Grid/MetaGridSpacingX01
350
17F
  3
Grid/MetaGridSpacingX02
350
180
  3
Grid/MetaGridSpacingX03
350
181
  3
Grid/MetaGridSpacingY00
350
182
  3
Grid/MetaGridSpacingY01
350
183
  3
Grid/MetaGridSpacingY02
350
184
  3
Grid/MetaGridSpacingY03
350
185
  3
MultiPageSettings/Columns
350
186
  3
MultiPageSettings/GlueMarginsBottom
350
187
  3
MultiPageSettings/GlueMarginsLeft
350
188
  3
MultiPageSettings/GlueMarginsRight
350
189
  3
MultiPageSettings/GlueMarginsTop
350
18A
  3
MultiPageSettings/PrintCropMarks
350
18B
  3
MultiPageSettings/Rows
350
18C
  3
PageSettings/OffsetX
350
18D
  3
PageSettings/OffsetY
350
18E
  3
PageSettings/PageOrientation
350
18F
  3
PageSettings/PaperHeight
350
190
  3
PageSettings/PaperWidth
350
191
  3
PageSettings/Scale
350
192
  3
PageSettings/ShowPaperBorders
350
193
  3
PageTagSettings/EnablePageTags
350
194
  3
PageTagSettings/TagAlignment
350
195
  3
PageTagSettings/TagFont
350
196
  3
PageTagSettings/TagPosition
350
197
  3
QCADVersion
350
198
  3
UnitSettings/PaperUnit
350
199
  3
ViewportCenter
350
19A
  3
ViewportHeight
350
19B
  3
ViewportWidth
350
19C
  0
XRECORD
  5
168
330
165
100
AcDbXrecord
280
1
1000
Wit
  0
XRECORD
  5
169
330
165
100
AcDbXrecord
280
1
1000
FullColor
  0
XRECORD
  5
16A
330
165
100
AcDbXrecord
280
1
290
1
  0
XRECORD
  5
16B
330
165
100
AcDbXrecord
280
1
290
1
  0
XRECORD
  5
16C
330
165
100
AcDbXrecord
280
1
290
1
  0
XRECORD
  5
16D
330
165
100
AcDbXrecord
280
1
290
1
  0
XRECORD
  5
16E
330
165
100
AcDbXrecord
280
1
1000
auto
  0
XRECORD
  5
16F
330
165
100
AcDbXrecord
280
1
1000
auto
  0
XRECORD
  5
170
330
165
100
AcDbXrecord
280
1
1000
auto
  0
XRECORD
  5
171
330
165
100
AcDbXrecord
280
1
1000
auto
  0
XRECORD
  5
172
330
165
100
AcDbXrecord
280
1
1000
auto
  0
XRECORD
  5
173
330
165
100
AcDbXrecord
280
1
1000
auto
  0
XRECORD
  5
174
330
165
100
AcDbXrecord
280
1
1000
auto
  0
XRECORD
  5
175
330
165
100
AcDbXrecord
280
1
1000
auto
  0
XRECORD
  5
176
330
165
100
AcDbXrecord
280
1
290
0
  0
XRECORD
  5
177
330
165
100
AcDbXrecord
280
1
290
0
  0
XRECORD
  5
178
330
165
100
AcDbXrecord
280
1
290
0
  0
XRECORD
  5
179
330
165
100
AcDbXrecord
280
1
290
0
  0
XRECORD
  5
17A
330
165
100
AcDbXrecord
280
1
 90
65537
  0
XRECORD
  5
17B
330
165
100
AcDbXrecord
280
1
 90
65537
  0
XRECORD
  5
17C
330
165
100
AcDbXrecord
280
1
 90
65537
  0
XRECORD
  5
17D
330
165
100
AcDbXrecord
280
1
 90
65537
  0
XRECORD
  5
17E
330
165
100
AcDbXrecord
280
1
1000
auto
  0
XRECORD
  5
17F
330
165
100
AcDbXrecord
280
1
1000
auto
  0
XRECORD
  5
180
330
165
100
AcDbXrecord
280
1
1000
auto
  0
XRECORD
  5
181
330
165
100
AcDbXrecord
280
1
1000
auto
  0
XRECORD
  5
182
330
165
100
AcDbXrecord
280
1
1000
auto
  0
XRECORD
  5
183
330
165
100
AcDbXrecord
280
1
1000
auto
  0
XRECORD
  5
184
330
165
100
AcDbXrecord
280
1
1000
auto
  0
XRECORD
  5
185
330
165
100
AcDbXrecord
280
1
1000
auto
  0
XRECORD
  5
186
330
165
100
AcDbXrecord
280
1
 90
1
  0
XRECORD
  5
187
330
165
100
AcDbXrecord
280
1
 40
10.0
  0
XRECORD
  5
188
330
165
100
AcDbXrecord
280
1
 40
10.0
  0
XRECORD
  5
189
330
165
100
AcDbXrecord
280
1
 40
10.0
  0
XRECORD
  5
18A
330
165
100
AcDbXrecord
280
1
 40
10.0
  0
XRECORD
  5
18B
330
165
100
AcDbXrecord
280
1
290
0
  0
XRECORD
  5
18C
330
165
100
AcDbXrecord
280
1
 90
1
  0
XRECORD
  5
18D
330
165
100
AcDbXrecord
280
1
 40
0.0
  0
XRECORD
  5
18E
330
165
100
AcDbXrecord
280
1
 40
0.0
  0
XRECORD
  5
18F
330
165
100
AcDbXrecord
280
1
1000
Portrait
  0
XRECORD
  5
190
330
165
100
AcDbXrecord
280
1
 40
297.0
  0
XRECORD
  5
191
330
165
100
AcDbXrecord
280
1
 40
210.0
  0
XRECORD
  5
192
330
165
100
AcDbXrecord
280
1
1000
1:1
  0
XRECORD
  5
193
330
165
100
AcDbXrecord
280
1
290
1
  0
XRECORD
  5
194
330
165
100
AcDbXrecord
280
1
290
0
  0
XRECORD
  5
195
330
165
100
AcDbXrecord
280
1
1000
Inside
  0
XRECORD
  5
196
330
165
100
AcDbXrecord
280
1
1000
Arial,10,-1,5,50,0,0,0,0,0
  0
XRECORD
  5
197
330
165
100
AcDbXrecord
280
1
1000
TopLeft
  0
XRECORD
  5
198
330
165
100
AcDbXrecord
280
1
1000
3.28.1
  0
XRECORD
  5
199
330
165
100
AcDbXrecord
280
1
 90
4
  0
XRECORD
  5
19B
330
165
100
AcDbXrecord
280
1
 40
96.9955432416934968
  0
XRECORD
  5
19C
330
165
100
AcDbXrecord
280
1
 40
190.0720746352377262
  0
ENDSEC
  0
EOF
