999
dxflib 3.26.4.0
  0
SECTION
  2
HEADER
  9
$ACADVER
  1
AC1015
  9
$HANDSEED
  5
FFFF
  9
$DIMADEC
 70
0
  9
$DIMASZ
 40
2.5
  9
$DIMATFIT
 70
0
  9
$DIMAUNIT
 70
0
  9
$DIMAZIN
 70
2
  9
$DIMBLK
  1
0
  9
$DIMBLK1
  1
0
  9
$DIMBLK2
  1
0
  9
$DIMDEC
 70
4
  9
$DIMDLI
 40
5.0
  9
$DIMDSEP
 70
46
  9
$DIMEXE
 40
1.25
  9
$DIMEXO
 40
0.625
  9
$DIMGAP
 40
0.625
  9
$DIMLFAC
 40
1.0
  9
$DIMLUNIT
 70
2
  9
$DIMSCALE
 40
1.0
  9
$DIMTAD
 70
1
  9
$DIMTIH
 70
0
  9
$DIMTSZ
 40
0.0
  9
$DIMTXT
 40
2.5
  9
$DIMZIN
 70
8
  9
$DWGCODEPAGE
  3
ANSI_1252
  9
$INSUNITS
 70
4
  9
$LTSCALE
 40
1.0
  9
$MAXACTVP
 70
64
  9
$MEASUREMENT
 70
1
  9
$MIRRTEXT
 70
0
  9
$PDMODE
 70
0
  9
$PDSIZE
 40
0.0
  0
ENDSEC
  0
SECTION
  2
TABLES
  0
TABLE
  2
VPORT
  5
8
100
AcDbSymbolTable
 70
1
  0
VPORT
  5
30
100
AcDbSymbolTableRecord
100
AcDbViewportTableRecord
  2
*Active
 70
0
 10
0.0
 20
0.0
 11
1.0
 21
1.0
 12
286.3055555555554861
 22
148.5
 13
0.0
 23
0.0
 14
10.0
 24
10.0
 15
10.0
 25
10.0
 16
0.0
 26
0.0
 36
1.0
 17
0.0
 27
0.0
 37
0.0
 40
297.0
 41
1.92798353909465
 42
50.0
 43
0.0
 44
0.0
 50
0.0
 51
0.0
 71
0
 72
100
 73
1
 74
3
 75
1
 76
1
 77
0
 78
0
281
0
 65
1
110
0.0
120
0.0
130
0.0
111
1.0
121
0.0
131
0.0
112
0.0
122
1.0
132
0.0
 79
0
146
0.0
  0
ENDTAB
  0
TABLE
  2
LTYPE
  5
5
100
AcDbSymbolTable
 70
41
  0
LTYPE
  5
16
100
AcDbSymbolTableRecord
100
AcDbLinetypeTableRecord
  2
Continuous
 70
0
  3
Solid line
 72
65
 73
0
 40
0.0
  0
LTYPE
  5
31
100
AcDbSymbolTableRecord
100
AcDbLinetypeTableRecord
  2
DIVIDEX2
 70
0
  3
Divide (2x) ________  .  .  ________  .  .  _
 72
65
 73
6
 40
63.5
 49
25.3999999999999986
 74
0
 49
-12.6499999999999986
 74
0
 49
0.1
 74
0
 49
-12.5999999999999979
 74
0
 49
0.1
 74
0
 49
-12.6499999999999986
 74
0
  0
LTYPE
  5
32
100
AcDbSymbolTableRecord
100
AcDbLinetypeTableRecord
  2
PHANTOMX2
 70
0
  3
Phantom (2x) ____________    ____    ____   _
 72
65
 73
6
 40
127.0000000000000142
 49
63.5
 74
0
 49
-12.6999999999999993
 74
0
 49
12.6999999999999993
 74
0
 49
-12.6999999999999993
 74
0
 49
12.6999999999999993
 74
0
 49
-12.6999999999999993
 74
0
  0
LTYPE
  5
33
100
AcDbSymbolTableRecord
100
AcDbLinetypeTableRecord
  2
PHANTOM2
 70
0
  3
Phantom (.5x) ___ _ _ ___ _ _ ___ _ _ ___ _ _
 72
65
 73
6
 40
31.7500000000000036
 49
15.875
 74
0
 49
-3.1749999999999998
 74
0
 49
3.1749999999999998
 74
0
 49
-3.1749999999999998
 74
0
 49
3.1749999999999998
 74
0
 49
-3.1749999999999998
 74
0
  0
LTYPE
  5
34
100
AcDbSymbolTableRecord
100
AcDbLinetypeTableRecord
  2
HIDDENX2
 70
0
  3
Hidden (2x) ____ ____ ____ ____ ____ ____ ____ 
 72
65
 73
2
 40
19.0499999999999972
 49
12.6999999999999993
 74
0
 49
-6.3499999999999996
 74
0
  0
LTYPE
  5
14
100
AcDbSymbolTableRecord
100
AcDbLinetypeTableRecord
  2
BYBLOCK
 70
0
  3

 72
65
 73
0
 40
0.0
  0
LTYPE
  5
35
100
AcDbSymbolTableRecord
100
AcDbLinetypeTableRecord
  2
DOTX2
 70
0
  3
Dot (2x) .  .  .  .  .  .  .  .  .  .  .  .  .  .
 72
65
 73
2
 40
12.6999999999999993
 49
0.1
 74
0
 49
-12.5999999999999996
 74
0
  0
LTYPE
  5
36
100
AcDbSymbolTableRecord
100
AcDbLinetypeTableRecord
  2
DASHDOT
 70
0
  3
Dash dot __ . __ . __ . __ . __ . __ . __ . __
 72
65
 73
4
 40
25.4000000000000021
 49
12.6999999999999993
 74
0
 49
-6.2999999999999998
 74
0
 49
0.1
 74
0
 49
-6.2999999999999998
 74
0
  0
LTYPE
  5
37
100
AcDbSymbolTableRecord
100
AcDbLinetypeTableRecord
  2
ACAD_ISO09W100
 70
0
  3
ISO long-dash double-short-dash ____ __ __ ____
 72
65
 73
6
 40
45.0
 49
24.0
 74
0
 49
-3.0
 74
0
 49
6.0
 74
0
 49
-3.0
 74
0
 49
6.0
 74
0
 49
-3.0
 74
0
  0
LTYPE
  5
38
100
AcDbSymbolTableRecord
100
AcDbLinetypeTableRecord
  2
DASHED
 70
0
  3
Dashed __ __ __ __ __ __ __ __ __ __ __ __ __ _
 72
65
 73
2
 40
19.0499999999999972
 49
12.6999999999999993
 74
0
 49
-6.3499999999999996
 74
0
  0
LTYPE
  5
39
100
AcDbSymbolTableRecord
100
AcDbLinetypeTableRecord
  2
ACAD_ISO06W100
 70
0
  3
ISO long-dash triple-dot ____ ... ____ ... ____
 72
65
 73
8
 40
36.0000000000000071
 49
24.0
 74
0
 49
-2.9500000000000002
 74
0
 49
0.1
 74
0
 49
-2.9000000000000004
 74
0
 49
0.1
 74
0
 49
-2.9000000000000004
 74
0
 49
0.1
 74
0
 49
-2.9500000000000002
 74
0
  0
LTYPE
  5
3A
100
AcDbSymbolTableRecord
100
AcDbLinetypeTableRecord
  2
DASHEDX2
 70
0
  3
Dashed (2x) ____  ____  ____  ____  ____  ___
 72
65
 73
2
 40
38.0999999999999943
 49
25.3999999999999986
 74
0
 49
-12.6999999999999993
 74
0
  0
LTYPE
  5
3B
100
AcDbSymbolTableRecord
100
AcDbLinetypeTableRecord
  2
ACAD_ISO04W100
 70
0
  3
ISO long-dash dot ____ . ____ . ____ . ____ . _
 72
65
 73
4
 40
30.0
 49
24.0
 74
0
 49
-2.9500000000000002
 74
0
 49
0.1
 74
0
 49
-2.9500000000000002
 74
0
  0
LTYPE
  5
3C
100
AcDbSymbolTableRecord
100
AcDbLinetypeTableRecord
  2
ACAD_ISO11W100
 70
0
  3
ISO double-dash dot __ __ . __ __ . __ __ . __ _
 72
65
 73
6
 40
33.0
 49
12.0
 74
0
 49
-3.0
 74
0
 49
12.0
 74
0
 49
-2.9500000000000002
 74
0
 49
0.1
 74
0
 49
-2.9500000000000002
 74
0
  0
LTYPE
  5
3D
100
AcDbSymbolTableRecord
100
AcDbLinetypeTableRecord
  2
ACAD_ISO12W100
 70
0
  3
ISO dash double-dot __ . . __ . . __ . . __ . . 
 72
65
 73
6
 40
21.0
 49
12.0
 74
0
 49
-2.9500000000000002
 74
0
 49
0.1
 74
0
 49
-2.9000000000000004
 74
0
 49
0.1
 74
0
 49
-2.9500000000000002
 74
0
  0
LTYPE
  5
3E
100
AcDbSymbolTableRecord
100
AcDbLinetypeTableRecord
  2
PHANTOM
 70
0
  3
Phantom ______  __  __  ______  __  __  ______ 
 72
65
 73
6
 40
63.5000000000000071
 49
31.75
 74
0
 49
-6.3499999999999996
 74
0
 49
6.3499999999999996
 74
0
 49
-6.3499999999999996
 74
0
 49
6.3499999999999996
 74
0
 49
-6.3499999999999996
 74
0
  0
LTYPE
  5
3F
100
AcDbSymbolTableRecord
100
AcDbLinetypeTableRecord
  2
ACAD_ISO10W100
 70
0
  3
ISO dash dot __ . __ . __ . __ . __ . __ . __ . 
 72
65
 73
4
 40
18.0
 49
12.0
 74
0
 49
-2.9500000000000002
 74
0
 49
0.1
 74
0
 49
-2.9500000000000002
 74
0
  0
LTYPE
  5
40
100
AcDbSymbolTableRecord
100
AcDbLinetypeTableRecord
  2
DASHED2
 70
0
  3
Dashed (.5x) _ _ _ _ _ _ _ _ _ _ _ _ _ _ _ _ _ 
 72
65
 73
2
 40
9.5249999999999986
 49
6.3499999999999996
 74
0
 49
-3.1749999999999998
 74
0
  0
LTYPE
  5
41
100
AcDbSymbolTableRecord
100
AcDbLinetypeTableRecord
  2
DOT2
 70
0
  3
Dot (.5x) ........................................
 72
65
 73
2
 40
3.1749999999999998
 49
0.1
 74
0
 49
-3.0749999999999997
 74
0
  0
LTYPE
  5
42
100
AcDbSymbolTableRecord
100
AcDbLinetypeTableRecord
  2
HIDDEN
 70
0
  3
Hidden __ __ __ __ __ __ __ __ __ __ __ __ __ __
 72
65
 73
2
 40
9.5249999999999986
 49
6.3499999999999996
 74
0
 49
-3.1749999999999998
 74
0
  0
LTYPE
  5
43
100
AcDbSymbolTableRecord
100
AcDbLinetypeTableRecord
  2
CENTER
 70
0
  3
Center ____ _ ____ _ ____ _ ____ _ ____ _ ____
 72
65
 73
4
 40
50.8000000000000043
 49
31.75
 74
0
 49
-6.3499999999999996
 74
0
 49
6.3499999999999996
 74
0
 49
-6.3499999999999996
 74
0
  0
LTYPE
  5
44
100
AcDbSymbolTableRecord
100
AcDbLinetypeTableRecord
  2
ACAD_ISO02W100
 70
0
  3
ISO dash __ __ __ __ __ __ __ __ __ __ __ __ __
 72
65
 73
2
 40
15.0
 49
12.0
 74
0
 49
-3.0
 74
0
  0
LTYPE
  5
45
100
AcDbSymbolTableRecord
100
AcDbLinetypeTableRecord
  2
ACAD_ISO05W100
 70
0
  3
ISO long-dash double-dot ____ .. ____ .. ____ . 
 72
65
 73
6
 40
33.0000000000000071
 49
24.0
 74
0
 49
-2.9500000000000002
 74
0
 49
0.1
 74
0
 49
-2.9000000000000004
 74
0
 49
0.1
 74
0
 49
-2.9500000000000002
 74
0
  0
LTYPE
  5
46
100
AcDbSymbolTableRecord
100
AcDbLinetypeTableRecord
  2
ACAD_ISO03W100
 70
0
  3
ISO dash space __    __    __    __    __    __
 72
65
 73
2
 40
30.0
 49
12.0
 74
0
 49
-18.0
 74
0
  0
LTYPE
  5
47
100
AcDbSymbolTableRecord
100
AcDbLinetypeTableRecord
  2
CENTERX2
 70
0
  3
Center (2x) ________  __  ________  __  _____
 72
65
 73
4
 40
101.6000000000000085
 49
63.5
 74
0
 49
-12.6999999999999993
 74
0
 49
12.6999999999999993
 74
0
 49
-12.6999999999999993
 74
0
  0
LTYPE
  5
48
100
AcDbSymbolTableRecord
100
AcDbLinetypeTableRecord
  2
DASHDOTX2
 70
0
  3
Dash dot (2x) ____  .  ____  .  ____  .  ___
 72
65
 73
4
 40
50.7999999999999972
 49
25.3999999999999986
 74
0
 49
-12.6499999999999986
 74
0
 49
0.1
 74
0
 49
-12.6499999999999986
 74
0
  0
LTYPE
  5
49
100
AcDbSymbolTableRecord
100
AcDbLinetypeTableRecord
  2
ACAD_ISO07W100
 70
0
  3
ISO dot . . . . . . . . . . . . . . . . . . . . 
 72
65
 73
2
 40
3.0
 49
0.1
 74
0
 49
-2.8999999999999999
 74
0
  0
LTYPE
  5
4A
100
AcDbSymbolTableRecord
100
AcDbLinetypeTableRecord
  2
DOT
 70
0
  3
Dot . . . . . . . . . . . . . . . . . . . . . . . .
 72
65
 73
2
 40
6.3499999999999996
 49
0.1
 74
0
 49
-6.25
 74
0
  0
LTYPE
  5
15
100
AcDbSymbolTableRecord
100
AcDbLinetypeTableRecord
  2
BYLAYER
 70
0
  3

 72
65
 73
0
 40
0.0
  0
LTYPE
  5
4B
100
AcDbSymbolTableRecord
100
AcDbLinetypeTableRecord
  2
BORDER
 70
0
  3
Border __ __ . __ __ . __ __ . __ __ . __ __ .
 72
65
 73
6
 40
44.4499999999999957
 49
12.6999999999999993
 74
0
 49
-6.3499999999999996
 74
0
 49
12.6999999999999993
 74
0
 49
-6.2999999999999998
 74
0
 49
0.1
 74
0
 49
-6.2999999999999998
 74
0
  0
LTYPE
  5
4C
100
AcDbSymbolTableRecord
100
AcDbLinetypeTableRecord
  2
HIDDEN2
 70
0
  3
Hidden (.5x) _ _ _ _ _ _ _ _ _ _ _ _ _ _ _ _ _ 
 72
65
 73
2
 40
4.7624999999999993
 49
3.1749999999999998
 74
0
 49
-1.5874999999999999
 74
0
  0
LTYPE
  5
4D
100
AcDbSymbolTableRecord
100
AcDbLinetypeTableRecord
  2
DIVIDE2
 70
0
  3
Divide (.5x) __..__..__..__..__..__..__..__.._
 72
65
 73
6
 40
15.8749999999999982
 49
6.3499999999999996
 74
0
 49
-3.125
 74
0
 49
0.1
 74
0
 49
-3.0750000000000002
 74
0
 49
0.1
 74
0
 49
-3.125
 74
0
  0
LTYPE
  5
4E
100
AcDbSymbolTableRecord
100
AcDbLinetypeTableRecord
  2
DASHDOT2
 70
0
  3
Dash dot (.5x) _._._._._._._._._._._._._._._.
 72
65
 73
4
 40
12.6999999999999993
 49
6.3499999999999996
 74
0
 49
-3.125
 74
0
 49
0.1
 74
0
 49
-3.125
 74
0
  0
LTYPE
  5
4F
100
AcDbSymbolTableRecord
100
AcDbLinetypeTableRecord
  2
CENTER2
 70
0
  3
Center (.5x) ___ _ ___ _ ___ _ ___ _ ___ _ ___
 72
65
 73
4
 40
28.5750000000000028
 49
19.0500000000000007
 74
0
 49
-3.1749999999999998
 74
0
 49
3.1749999999999998
 74
0
 49
-3.1749999999999998
 74
0
  0
LTYPE
  5
50
100
AcDbSymbolTableRecord
100
AcDbLinetypeTableRecord
  2
BORDER2
 70
0
  3
Border (.5x) __.__.__.__.__.__.__.__.__.__.__.
 72
65
 73
6
 40
22.2250000000000014
 49
6.3499999999999996
 74
0
 49
-3.1749999999999998
 74
0
 49
6.3499999999999996
 74
0
 49
-3.125
 74
0
 49
0.1
 74
0
 49
-3.125
 74
0
  0
LTYPE
  5
51
100
AcDbSymbolTableRecord
100
AcDbLinetypeTableRecord
  2
ACAD_ISO13W100
 70
0
  3
ISO double-dash double-dot __ __ . . __ __ . . _
 72
65
 73
8
 40
36.0000000000000071
 49
12.0
 74
0
 49
-3.0
 74
0
 49
12.0
 74
0
 49
-2.9500000000000002
 74
0
 49
0.1
 74
0
 49
-2.9000000000000004
 74
0
 49
0.1
 74
0
 49
-2.9500000000000002
 74
0
  0
LTYPE
  5
52
100
AcDbSymbolTableRecord
100
AcDbLinetypeTableRecord
  2
ACAD_ISO15W100
 70
0
  3
ISO double-dash triple-dot __ __ . . . __ __ . .
 72
65
 73
10
 40
39.0000000000000071
 49
12.0
 74
0
 49
-3.0
 74
0
 49
12.0
 74
0
 49
-2.9500000000000002
 74
0
 49
0.1
 74
0
 49
-2.9000000000000004
 74
0
 49
0.1
 74
0
 49
-2.9000000000000004
 74
0
 49
0.1
 74
0
 49
-2.9500000000000002
 74
0
  0
LTYPE
  5
53
100
AcDbSymbolTableRecord
100
AcDbLinetypeTableRecord
  2
ACAD_ISO14W100
 70
0
  3
ISO dash triple-dot __ . . . __ . . . __ . . . _
 72
65
 73
8
 40
24.0000000000000036
 49
12.0
 74
0
 49
-2.9500000000000002
 74
0
 49
0.1
 74
0
 49
-2.9000000000000004
 74
0
 49
0.1
 74
0
 49
-2.9000000000000004
 74
0
 49
0.1
 74
0
 49
-2.9500000000000002
 74
0
  0
LTYPE
  5
54
100
AcDbSymbolTableRecord
100
AcDbLinetypeTableRecord
  2
BORDERX2
 70
0
  3
Border (2x) ____  ____  .  ____  ____  .  ___
 72
65
 73
6
 40
88.8999999999999773
 49
25.3999999999999986
 74
0
 49
-12.6999999999999993
 74
0
 49
25.3999999999999986
 74
0
 49
-12.6499999999999986
 74
0
 49
0.1
 74
0
 49
-12.6499999999999986
 74
0
  0
LTYPE
  5
55
100
AcDbSymbolTableRecord
100
AcDbLinetypeTableRecord
  2
ACAD_ISO08W100
 70
0
  3
ISO long-dash short-dash ____ __ ____ __ ____ _
 72
65
 73
4
 40
36.0
 49
24.0
 74
0
 49
-3.0
 74
0
 49
6.0
 74
0
 49
-3.0
 74
0
  0
LTYPE
  5
56
100
AcDbSymbolTableRecord
100
AcDbLinetypeTableRecord
  2
DIVIDE
 70
0
  3
Divide ____ . . ____ . . ____ . . ____ . . ____
 72
65
 73
6
 40
31.7500000000000036
 49
12.6999999999999993
 74
0
 49
-6.2999999999999998
 74
0
 49
0.1
 74
0
 49
-6.25
 74
0
 49
0.1
 74
0
 49
-6.2999999999999998
 74
0
  0
ENDTAB
  0
TABLE
  2
LAYER
  5
2
100
AcDbSymbolTable
 70
2
  0
LAYER
  5
57
100
AcDbSymbolTableRecord
100
AcDbLayerTableRecord
  2
edge cuts plate
 70
0
 62
7
420
16777215
  6
Continuous
370
25
390
F
  0
LAYER
  5
10
100
AcDbSymbolTableRecord
100
AcDbLayerTableRecord
  2
0
 70
0
 62
7
420
16777215
  6
Continuous
370
25
390
F
  0
ENDTAB
  0
TABLE
  2
STYLE
  5
3
100
AcDbSymbolTable
 70
1
  0
STYLE
  5
58
100
AcDbSymbolTableRecord
100
AcDbTextStyleTableRecord
  2
Standard
 70
0
 40
0.0
 41
1.0
 50
0.0
 71
0
 42
2.5
  3

  4

1001
ACAD
1000
txt
1071
0
  0
ENDTAB
  0
TABLE
  2
VIEW
  5
6
100
AcDbSymbolTable
 70
0
  0
ENDTAB
  0
TABLE
  2
UCS
  5
7
100
AcDbSymbolTable
 70
0
  0
ENDTAB
  0
TABLE
  2
APPID
  5
9
100
AcDbSymbolTable
 70
1
  0
APPID
  5
12
100
AcDbSymbolTableRecord
100
AcDbRegAppTableRecord
  2
ACAD
 70
0
  0
APPID
  5
59
100
AcDbSymbolTableRecord
100
AcDbRegAppTableRecord
  2
QCAD
 70
0
  0
ENDTAB
  0
TABLE
  2
DIMSTYLE
  5
A
100
AcDbSymbolTable
 70
1
100
AcDbDimStyleTable
 71
0
  0
DIMSTYLE
105
27
100
AcDbSymbolTableRecord
100
AcDbDimStyleTableRecord
  2
Standard
 41
2.5
 42
0.625
 43
3.75
 44
1.25
 70
0
 73
0
 74
0
 77
1
 78
8
140
2.5
141
2.5
143
0.03937007874016
147
0.625
171
3
172
1
271
2
272
2
274
3
278
44
283
0
284
8
340
58
  0
ENDTAB
  0
TABLE
  2
BLOCK_RECORD
  5
1
100
AcDbSymbolTable
 70
1
  0
BLOCK_RECORD
  5
1F
100
AcDbSymbolTableRecord
100
AcDbBlockTableRecord
  2
*Model_Space
340
22
  0
BLOCK_RECORD
  5
1B
100
AcDbSymbolTableRecord
100
AcDbBlockTableRecord
  2
*Paper_Space
340
1E
  0
BLOCK_RECORD
  5
23
100
AcDbSymbolTableRecord
100
AcDbBlockTableRecord
  2
*Paper_Space0
340
26
  0
ENDTAB
  0
ENDSEC
  0
SECTION
  2
BLOCKS
  0
BLOCK
  5
20
100
AcDbEntity
  8
0
100
AcDbBlockBegin
  2
*Model_Space
 70
0
 10
0.0
 20
0.0
 30
0.0
  3
*Model_Space
  1

  0
ENDBLK
  5
21
100
AcDbEntity
  8
0
100
AcDbBlockEnd
  0
BLOCK
  5
1C
100
AcDbEntity
 67
1
  8
0
100
AcDbBlockBegin
  2
*Paper_Space
 70
0
 10
0.0
 20
0.0
 30
0.0
  3
*Paper_Space
  1

  0
ENDBLK
  5
1D
100
AcDbEntity
 67
1
  8
0
100
AcDbBlockEnd
  0
BLOCK
  5
24
100
AcDbEntity
  8
0
100
AcDbBlockBegin
  2
*Paper_Space0
 70
0
 10
0.0
 20
0.0
 30
0.0
  3
*Paper_Space0
  1

  0
ENDBLK
  5
25
100
AcDbEntity
  8
0
100
AcDbBlockEnd
  0
ENDSEC
  0
SECTION
  2
ENTITIES
  0
LINE
  5
5A
100
AcDbEntity
  8
edge cuts plate
 62
256
370
-1
 48
1.0
  6
BYLAYER
100
AcDbLine
 10
12.5567500000000223
 20
-31.0999999999999375
 30
0.0
 11
-17.3192500000000109
 21
-31.0999999999999375
 31
0.0
  0
LINE
  5
5B
100
AcDbEntity
  8
edge cuts plate
 62
256
370
-1
 48
1.0
  6
BYLAYER
100
AcDbLine
 10
74.4560952723449532
 20
-70.815485271133781
 30
0.0
 11
103.8782117013377047
 21
-76.0033982271110062
 31
0.0
  0
LINE
  5
5C
100
AcDbEntity
  8
edge cuts plate
 62
256
370
-1
 48
1.0
  6
BYLAYER
100
AcDbLine
 10
22.4422564018116333
 20
-66.6749999999999261
 30
0.0
 11
-18.0499999999999581
 21
-66.6749999999999261
 31
0.0
  0
LINE
  5
5D
100
AcDbEntity
  8
edge cuts plate
 62
256
370
-1
 48
1.0
  6
BYLAYER
100
AcDbLine
 10
-19.0499999999999545
 20
-65.6749999999999261
 30
0.0
 11
-19.0500000000000114
 21
-48.6249999999999716
 31
0.0
  0
LINE
  5
5E
100
AcDbEntity
  8
edge cuts plate
 62
256
370
-1
 48
1.0
  6
BYLAYER
100
AcDbLine
 10
126.6335868509444254
 20
-79.5080715161867033
 30
0.0
 11
132.1990109451695048
 21
-47.9449830321454442
 31
0.0
  0
LINE
  5
5F
100
AcDbEntity
  8
edge cuts plate
 62
256
370
-1
 48
1.0
  6
BYLAYER
100
AcDbLine
 10
-20.0500000000000114
 20
-47.6249999999999574
 30
0.0
 11
-22.8125
 21
-47.6249999999999574
 31
0.0
  0
LINE
  5
60
100
AcDbEntity
  8
edge cuts plate
 62
256
370
-1
 48
1.0
  6
BYLAYER
100
AcDbLine
 10
-23.8125
 20
-46.6249999999999574
 30
0.0
 11
-23.8124999999999432
 21
-29.5749999999999318
 31
0.0
  0
LINE
  5
61
100
AcDbEntity
  8
edge cuts plate
 62
256
370
-1
 48
1.0
  6
BYLAYER
100
AcDbLine
 10
-10.3192500000000109
 20
-45.0999999999999375
 30
0.0
 11
5.5567500000000223
 21
-45.0999999999999375
 31
0.0
  0
LINE
  5
62
100
AcDbEntity
  8
edge cuts plate
 62
256
370
-1
 48
1.0
  6
BYLAYER
100
AcDbLine
 10
-22.8124999999999432
 20
-28.5749999999999318
 30
0.0
 11
-20.0499999999999545
 21
-28.5749999999999318
 31
0.0
  0
LINE
  5
63
100
AcDbEntity
  8
edge cuts plate
 62
256
370
-1
 48
1.0
  6
BYLAYER
100
AcDbLine
 10
99.4156319175892804
 20
-61.0005524412715943
 30
0.0
 11
83.7808240307674055
 21
-58.2437139726314115
 31
0.0
  0
LINE
  5
64
100
AcDbEntity
  8
edge cuts plate
 62
256
370
-1
 48
1.0
  6
BYLAYER
100
AcDbLine
 10
-19.0499999999999545
 20
-27.5749999999999318
 30
0.0
 11
-19.0499999999999545
 21
-10.5250000000000057
 31
0.0
  0
LINE
  5
65
100
AcDbEntity
  8
edge cuts plate
 62
256
370
-1
 48
1.0
  6
BYLAYER
100
AcDbLine
 10
117.0074095902062368
 20
-53.4780488434181507
 30
0.0
 11
114.2505711215659971
 21
-69.1128567302399688
 31
0.0
  0
LINE
  5
66
100
AcDbEntity
  8
edge cuts plate
 62
256
370
-1
 48
1.0
  6
BYLAYER
100
AcDbLine
 10
-18.0499999999999545
 20
-9.5250000000000057
 30
0.0
 11
-15.2875000000000227
 21
-9.5250000000000057
 31
0.0
  0
LINE
  5
67
100
AcDbEntity
  8
edge cuts plate
 62
256
370
-1
 48
1.0
  6
BYLAYER
100
AcDbLine
 10
-14.2875000000000227
 20
-8.5250000000000057
 30
0.0
 11
-14.2875000000000227
 21
8.5250000000000057
 31
0.0
  0
LINE
  5
68
100
AcDbEntity
  8
edge cuts plate
 62
256
370
-1
 48
1.0
  6
BYLAYER
100
AcDbLine
 10
-13.2875000000000227
 20
9.5250000000000057
 30
0.0
 11
43.0124884569807762
 21
9.5250000000000057
 31
0.0
  0
LINE
  5
69
100
AcDbEntity
  8
edge cuts plate
 62
256
370
-1
 48
1.0
  6
BYLAYER
100
AcDbLine
 10
43.1861366346477098
 20
9.5098077530122147
 30
0.0
 11
110.7030408110730662
 21
-2.3952441071996002
 31
0.0
  0
LINE
  5
6A
100
AcDbEntity
  8
edge cuts plate
 62
256
370
-1
 48
1.0
  6
BYLAYER
100
AcDbLine
 10
111.514200386418338
 20
-3.5537000378787411
 30
0.0
 11
108.5534989571971778
 21
-20.3446722267368898
 31
0.0
  0
LINE
  5
6B
100
AcDbEntity
  8
edge cuts plate
 62
256
370
-1
 48
1.0
  6
BYLAYER
100
AcDbLine
 10
109.364658532542478
 20
-21.5031281574160289
 30
0.0
 11
110.7030408110730946
 21
-21.7391210636230596
 31
0.0
  0
LINE
  5
6C
100
AcDbEntity
  8
edge cuts plate
 62
256
370
-1
 48
1.0
  6
BYLAYER
100
AcDbLine
 10
111.514200386418338
 20
-22.8975769943021987
 30
0.0
 11
108.5534989571971778
 21
-39.688549183160319
 31
0.0
  0
LINE
  5
6D
100
AcDbEntity
  8
edge cuts plate
 62
256
370
-1
 48
1.0
  6
BYLAYER
100
AcDbLine
 10
109.364658532542478
 20
-40.8470051138394581
 30
0.0
 11
134.226128505955586
 21
-45.230753050225573
 31
0.0
  0
LINE
  5
6E
100
AcDbEntity
  8
edge cuts plate
 62
256
370
-1
 48
1.0
  6
BYLAYER
100
AcDbLine
 10
135.0372880813008578
 20
-46.3892089809047121
 30
0.0
 11
128.768588867524727
 21
-81.9407688646454062
 31
0.0
  0
LINE
  5
6F
100
AcDbEntity
  8
edge cuts plate
 62
256
370
-1
 48
1.0
  6
BYLAYER
100
AcDbLine
 10
127.610132936845531
 20
-82.751928439990678
 30
0.0
 11
50.3432627646826774
 21
-69.1276945137402947
 31
0.0
  0
LINE
  5
70
100
AcDbEntity
  8
edge cuts plate
 62
256
370
-1
 48
1.0
  6
BYLAYER
100
AcDbLine
 10
-17.3192500000000109
 20
-47.0999999999999375
 30
0.0
 11
-11.3192500000000109
 21
-47.0999999999999375
 31
0.0
  0
ARC
  5
71
100
AcDbEntity
  8
edge cuts plate
 62
256
370
-1
 48
1.0
  6
BYLAYER
100
AcDbCircle
 10
127.7837811145124647
 20
-81.7671206869784726
 30
0.0
 40
1.0
100
AcDbArc
 50
259.9999999999997726
 51
349.9999999999999432
  0
LINE
  5
72
100
AcDbEntity
  8
edge cuts plate
 62
256
370
-1
 48
1.0
  6
BYLAYER
100
AcDbLine
 10
106.656582544008586
 20
-60.2464741789156903
 30
0.0
 11
100.7477360259353532
 21
-59.204585112914117
 31
0.0
  0
ARC
  5
73
100
AcDbEntity
  8
edge cuts plate
 62
256
370
-1
 48
1.0
  6
BYLAYER
100
AcDbCircle
 10
134.0524803282886523
 20
-46.2155608032377785
 30
0.0
 40
1.0
100
AcDbArc
 50
350.0000000000001137
 51
79.999999999999801
  0
LINE
  5
74
100
AcDbEntity
  8
edge cuts plate
 62
256
370
-1
 48
1.0
  6
BYLAYER
100
AcDbLine
 10
116.253331327850276
 20
-46.2370982169988167
 30
0.0
 11
115.2114422618487311
 21
-52.1459447350720779
 31
0.0
  0
ARC
  5
75
100
AcDbEntity
  8
edge cuts plate
 62
256
370
-1
 48
1.0
  6
BYLAYER
100
AcDbCircle
 10
109.5383067102093833
 20
-39.8621973608272526
 30
0.0
 40
1.0
100
AcDbArc
 50
169.9999999999998295
 51
259.9999999999997726
  0
ARC
  5
76
100
AcDbEntity
  8
edge cuts plate
 62
256
370
-1
 48
1.0
  6
BYLAYER
100
AcDbCircle
 10
110.5293926334061325
 20
-22.7239288166352651
 30
0.0
 40
1.0
100
AcDbArc
 50
350.0
 51
79.9999999999998153
  0
LINE
  5
77
100
AcDbEntity
  8
edge cuts plate
 62
256
370
-1
 48
1.0
  6
BYLAYER
100
AcDbLine
 10
-17.8192500000000109
 20
-31.5999999999999375
 30
0.0
 11
-17.8192500000000109
 21
-46.5999999999999375
 31
0.0
  0
ARC
  5
78
100
AcDbEntity
  8
edge cuts plate
 62
256
370
-1
 48
1.0
  6
BYLAYER
100
AcDbCircle
 10
109.5383067102093833
 20
-20.5183204044038234
 30
0.0
 40
1.0
100
AcDbArc
 50
169.9999999999998295
 51
259.9999999999997726
  0
LINE
  5
79
100
AcDbEntity
  8
edge cuts plate
 62
256
370
-1
 48
1.0
  6
BYLAYER
100
AcDbLine
 10
104.45743966667726
 20
-75.5978184394383845
 30
0.0
 11
107.0621623316812361
 21
-60.8257021442552741
 31
0.0
  0
ARC
  5
7A
100
AcDbEntity
  8
edge cuts plate
 62
256
370
-1
 48
1.0
  6
BYLAYER
100
AcDbCircle
 10
110.5293926334061325
 20
-3.3800518602118075
 30
0.0
 40
1.0
100
AcDbArc
 50
350.0
 51
79.9999999999997868
  0
LINE
  5
7B
100
AcDbEntity
  8
edge cuts plate
 62
256
370
-1
 48
1.0
  6
BYLAYER
100
AcDbLine
 10
117.8173670462020368
 20
-46.0051666069931002
 30
0.0
 11
116.8325592931898314
 21
-45.831518429326195
 31
0.0
  0
ARC
  5
7C
100
AcDbEntity
  8
edge cuts plate
 62
256
370
-1
 48
1.0
  6
BYLAYER
100
AcDbCircle
 10
-18.0499999999999545
 20
-65.6749999999999261
 30
0.0
 40
1.0
100
AcDbArc
 50
180.0
 51
269.9999999999997726
  0
ARC
  5
7D
100
AcDbEntity
  8
edge cuts plate
 62
256
370
-1
 48
1.0
  6
BYLAYER
100
AcDbCircle
 10
-20.0500000000000114
 20
-48.6249999999999574
 30
0.0
 40
1.0
100
AcDbArc
 50
360.0
 51
90.0
  0
ARC
  5
7E
100
AcDbEntity
  8
edge cuts plate
 62
256
370
-1
 48
1.0
  6
BYLAYER
100
AcDbCircle
 10
-22.8125
 20
-46.6249999999999574
 30
0.0
 40
1.0
100
AcDbArc
 50
180.0
 51
270.0
  0
ARC
  5
7F
100
AcDbEntity
  8
edge cuts plate
 62
256
370
-1
 48
1.0
  6
BYLAYER
100
AcDbCircle
 10
-22.8124999999999432
 20
-29.5749999999999318
 30
0.0
 40
1.0
100
AcDbArc
 50
90.0
 51
180.0
  0
LINE
  5
80
100
AcDbEntity
  8
edge cuts plate
 62
256
370
-1
 48
1.0
  6
BYLAYER
100
AcDbLine
 10
-10.8192500000000109
 20
-45.5999999999999375
 30
0.0
 11
-10.8192500000000109
 21
-46.5999999999999375
 31
0.0
  0
ARC
  5
81
100
AcDbEntity
  8
edge cuts plate
 62
256
370
-1
 48
1.0
  6
BYLAYER
100
AcDbCircle
 10
-20.0499999999999545
 20
-27.5749999999999318
 30
0.0
 40
1.0
100
AcDbArc
 50
270.0
 51
0.0
  0
LINE
  5
82
100
AcDbEntity
  8
edge cuts plate
 62
256
370
-1
 48
1.0
  6
BYLAYER
100
AcDbLine
 10
99.9948598829288358
 20
-60.5949726535989726
 30
0.0
 11
100.1685080605957978
 21
-59.6101649005867387
 31
0.0
  0
LINE
  5
83
100
AcDbEntity
  8
edge cuts plate
 62
256
370
-1
 48
1.0
  6
BYLAYER
100
AcDbLine
 10
116.6018298025335866
 20
-52.8988208780785669
 30
0.0
 11
115.6170220495213812
 21
-52.7251727004116333
 31
0.0
  0
ARC
  5
84
100
AcDbEntity
  8
edge cuts plate
 62
256
370
-1
 48
1.0
  6
BYLAYER
100
AcDbCircle
 10
-18.0499999999999545
 20
-10.5249999999999773
 30
0.0
 40
1.0
100
AcDbArc
 50
90.0
 51
180.0
  0
ARC
  5
85
100
AcDbEntity
  8
edge cuts plate
 62
256
370
-1
 48
1.0
  6
BYLAYER
100
AcDbCircle
 10
-15.2875000000000227
 20
-8.5250000000000057
 30
0.0
 40
1.0
100
AcDbArc
 50
270.0
 51
0.0
  0
ARC
  5
86
100
AcDbEntity
  8
edge cuts plate
 62
256
370
-1
 48
1.0
  6
BYLAYER
100
AcDbCircle
 10
-17.3192500000000109
 20
-31.5999999999999375
 30
0.0
 40
0.5
100
AcDbArc
 50
90.0
 51
180.0
  0
ARC
  5
87
100
AcDbEntity
  8
edge cuts plate
 62
256
370
-1
 48
1.0
  6
BYLAYER
100
AcDbCircle
 10
-13.2875000000000227
 20
8.5250000000000057
 30
0.0
 40
1.0
100
AcDbArc
 50
90.0
 51
180.0
  0
ARC
  5
88
100
AcDbEntity
  8
edge cuts plate
 62
256
370
-1
 48
1.0
  6
BYLAYER
100
AcDbCircle
 10
103.9650357901711573
 20
-75.5109943506049035
 30
0.0
 40
0.5
100
AcDbArc
 50
260.0
 51
350.0
  0
ARC
  5
89
100
AcDbEntity
  8
edge cuts plate
 62
256
370
-1
 48
1.0
  6
BYLAYER
100
AcDbCircle
 10
-17.3192500000000109
 20
-46.5999999999999375
 30
0.0
 40
0.5
100
AcDbArc
 50
180.0
 51
270.0
  0
ARC
  5
8A
100
AcDbEntity
  8
edge cuts plate
 62
256
370
-1
 48
1.0
  6
BYLAYER
100
AcDbCircle
 10
106.5697584551751333
 20
-60.7388780554218215
 30
0.0
 40
0.5
100
AcDbArc
 50
350.0
 51
79.9999999999999858
  0
ARC
  5
8B
100
AcDbEntity
  8
edge cuts plate
 62
256
370
-1
 48
1.0
  6
BYLAYER
100
AcDbCircle
 10
116.7457352043564356
 20
-46.3239223058322978
 30
0.0
 40
0.5
100
AcDbArc
 50
80.0000000000000142
 51
170.0
  0
ARC
  5
8C
100
AcDbEntity
  8
edge cuts plate
 62
256
370
-1
 48
1.0
  6
BYLAYER
100
AcDbCircle
 10
-11.3192500000000109
 20
-46.5999999999999375
 30
0.0
 40
0.5
100
AcDbArc
 50
270.0
 51
0.0
  0
ARC
  5
8D
100
AcDbEntity
  8
edge cuts plate
 62
256
370
-1
 48
1.0
  6
BYLAYER
100
AcDbCircle
 10
100.6609119371018437
 20
-59.6969889894202197
 30
0.0
 40
0.5
100
AcDbArc
 50
79.9999999999999858
 51
170.0
  0
ARC
  5
8E
100
AcDbEntity
  8
edge cuts plate
 62
256
370
-1
 48
1.0
  6
BYLAYER
100
AcDbCircle
 10
115.7038461383548338
 20
-52.2327688239055306
 30
0.0
 40
0.5
100
AcDbArc
 50
170.0
 51
260.0
  0
LINE
  5
8F
100
AcDbEntity
  8
edge cuts plate
 62
256
370
-1
 48
1.0
  6
BYLAYER
100
AcDbLine
 10
6.5567500000000223
 20
-47.0999999999999375
 30
0.0
 11
12.5567500000000223
 21
-47.0999999999999375
 31
0.0
  0
LINE
  5
90
100
AcDbEntity
  8
edge cuts plate
 62
256
370
-1
 48
1.0
  6
BYLAYER
100
AcDbLine
 10
83.1433126330891241
 20
-56.1004502889400669
 30
0.0
 11
77.2344661150158345
 21
-55.0585612229384651
 31
0.0
  0
LINE
  5
91
100
AcDbEntity
  8
edge cuts plate
 62
256
370
-1
 48
1.0
  6
BYLAYER
100
AcDbLine
 10
112.107307437874681
 20
-69.750368127918307
 30
0.0
 11
111.0654183718730792
 21
-75.6592146459915682
 31
0.0
  0
LINE
  5
92
100
AcDbEntity
  8
edge cuts plate
 62
256
370
-1
 48
1.0
  6
BYLAYER
100
AcDbLine
 10
6.0567500000000223
 20
-45.5999999999999375
 30
0.0
 11
6.0567500000000223
 21
-46.5999999999999375
 31
0.0
  0
LINE
  5
93
100
AcDbEntity
  8
edge cuts plate
 62
256
370
-1
 48
1.0
  6
BYLAYER
100
AcDbLine
 10
83.3752442430948122
 20
-57.6644860072918277
 30
0.0
 11
83.5488924207617174
 21
-56.6796782542796223
 31
0.0
  0
LINE
  5
94
100
AcDbEntity
  8
edge cuts plate
 62
256
370
-1
 48
1.0
  6
BYLAYER
100
AcDbLine
 10
113.6713431562264418
 20
-69.5184365179126189
 30
0.0
 11
112.6865354032142363
 21
-69.3447883402456853
 31
0.0
  0
LINE
  5
95
100
AcDbEntity
  8
edge cuts plate
 62
256
370
-1
 48
1.0
  6
BYLAYER
100
AcDbLine
 10
13.0567500000000223
 20
-31.5999999999999375
 30
0.0
 11
13.0567500000000223
 21
-46.5999999999999375
 31
0.0
  0
LINE
  5
96
100
AcDbEntity
  8
edge cuts plate
 62
256
370
-1
 48
1.0
  6
BYLAYER
100
AcDbLine
 10
74.050515484672303
 20
-70.2362573057942257
 30
0.0
 11
76.6552381496762791
 21
-55.4641410106111152
 31
0.0
  0
LINE
  5
97
100
AcDbEntity
  8
edge cuts plate
 62
256
370
-1
 48
1.0
  6
BYLAYER
100
AcDbLine
 10
112.4558059125579348
 20
-76.4120907889980572
 30
0.0
 11
111.4709981595457293
 21
-76.2384426113311235
 31
0.0
  0
ARC
  5
98
100
AcDbEntity
  8
edge cuts plate
 62
256
370
-1
 48
1.0
  6
BYLAYER
100
AcDbCircle
 10
12.5567500000000223
 20
-31.5999999999999375
 30
0.0
 40
0.5
100
AcDbArc
 50
0.0
 51
90.0
  0
ARC
  5
99
100
AcDbEntity
  8
edge cuts plate
 62
256
370
-1
 48
1.0
  6
BYLAYER
100
AcDbCircle
 10
74.5429193611784058
 20
-70.3230813946276783
 30
0.0
 40
0.5
100
AcDbArc
 50
170.0
 51
260.0
  0
ARC
  5
9A
100
AcDbEntity
  8
edge cuts plate
 62
256
370
-1
 48
1.0
  6
BYLAYER
100
AcDbCircle
 10
6.5567500000000223
 20
-46.5999999999999375
 30
0.0
 40
0.5
100
AcDbArc
 50
180.0
 51
270.0
  0
ARC
  5
9B
100
AcDbEntity
  8
edge cuts plate
 62
256
370
-1
 48
1.0
  6
BYLAYER
100
AcDbCircle
 10
83.0564885442556147
 20
-56.5928541654461696
 30
0.0
 40
0.5
100
AcDbArc
 50
350.0
 51
79.9999999999999858
  0
ARC
  5
9C
100
AcDbEntity
  8
edge cuts plate
 62
256
370
-1
 48
1.0
  6
BYLAYER
100
AcDbCircle
 10
112.5997113143807837
 20
-69.837192216751788
 30
0.0
 40
0.5
100
AcDbArc
 50
80.0000000000000142
 51
170.0
  0
ARC
  5
9D
100
AcDbEntity
  8
edge cuts plate
 62
256
370
-1
 48
1.0
  6
BYLAYER
100
AcDbCircle
 10
12.5567500000000223
 20
-46.5999999999999375
 30
0.0
 40
0.5
100
AcDbArc
 50
270.0
 51
0.0
  0
ARC
  5
9E
100
AcDbEntity
  8
edge cuts plate
 62
256
370
-1
 48
1.0
  6
BYLAYER
100
AcDbCircle
 10
77.1476420261823819
 20
-55.5509650994445678
 30
0.0
 40
0.5
100
AcDbArc
 50
79.9999999999999858
 51
170.0
  0
ARC
  5
9F
100
AcDbEntity
  8
edge cuts plate
 62
256
370
-1
 48
1.0
  6
BYLAYER
100
AcDbCircle
 10
111.5578222483791819
 20
-75.7460387348250208
 30
0.0
 40
0.5
100
AcDbArc
 50
170.0
 51
260.0
  0
LINE
  5
A0
100
AcDbEntity
  8
edge cuts plate
 62
256
370
-1
 48
1.0
  6
BYLAYER
100
AcDbLine
 10
-6.5000000000000284
 20
7.0
 30
0.0
 11
6.4999999999999716
 21
7.0
 31
0.0
  0
LINE
  5
A1
100
AcDbEntity
  8
edge cuts plate
 62
256
370
-1
 48
1.0
  6
BYLAYER
100
AcDbLine
 10
-13.6437500000000114
 20
-50.1499999999999773
 30
0.0
 11
-0.6437500000000114
 21
-50.1499999999999773
 31
0.0
  0
LINE
  5
A2
100
AcDbEntity
  8
edge cuts plate
 62
256
370
-1
 48
1.0
  6
BYLAYER
100
AcDbLine
 10
-13.6437500000000114
 20
-12.0500000000000327
 30
0.0
 11
4.1187500000000057
 21
-12.0499999999999687
 31
0.0
  0
LINE
  5
A3
100
AcDbEntity
  8
edge cuts plate
 62
256
370
-1
 48
1.0
  6
BYLAYER
100
AcDbLine
 10
17.3124999999999716
 20
7.0000000000000284
 30
0.0
 11
30.3124999999999716
 21
7.0000000000000284
 31
0.0
  0
LINE
  5
A4
100
AcDbEntity
  8
edge cuts plate
 62
256
370
-1
 48
1.0
  6
BYLAYER
100
AcDbLine
 10
17.3124999999999716
 20
-12.0499999999999829
 30
0.0
 11
30.3124999999999716
 21
-12.0499999999999829
 31
0.0
  0
LINE
  5
A5
100
AcDbEntity
  8
edge cuts plate
 62
256
370
-1
 48
1.0
  6
BYLAYER
100
AcDbLine
 10
22.0749999999999886
 20
-31.0999999999999943
 30
0.0
 11
35.0749999999999886
 21
-31.0999999999999943
 31
0.0
  0
LINE
  5
A6
100
AcDbEntity
  8
edge cuts plate
 62
256
370
-1
 48
1.0
  6
BYLAYER
100
AcDbLine
 10
39.1860795888079565
 20
7.6511735395552591
 30
0.0
 11
51.9885803779666844
 21
5.3937472298851787
 31
0.0
  0
LINE
  5
A7
100
AcDbEntity
  8
edge cuts plate
 62
256
370
-1
 48
1.0
  6
BYLAYER
100
AcDbLine
 10
39.1860795888079565
 20
-11.6927034168681843
 30
0.0
 11
51.9885803779666844
 21
-13.9501297265382789
 31
0.0
  0
LINE
  5
A8
100
AcDbEntity
  8
edge cuts plate
 62
256
370
-1
 48
1.0
  6
BYLAYER
100
AcDbLine
 10
43.9485795888079736
 20
-31.8763376189156986
 30
0.0
 11
56.751080377966673
 21
-34.133763928585779
 31
0.0
  0
LINE
  5
A9
100
AcDbEntity
  8
edge cuts plate
 62
256
370
-1
 48
1.0
  6
BYLAYER
100
AcDbLine
 10
54.7110225754149013
 20
-53.1179236522145075
 30
0.0
 11
67.5135233645736008
 21
-55.3753499618846377
 31
0.0
  0
LINE
  5
AA
100
AcDbEntity
  8
edge cuts plate
 62
256
370
-1
 48
1.0
  6
BYLAYER
100
AcDbLine
 10
62.7091672836905332
 20
-35.1843354034706977
 30
0.0
 11
75.5116680728492611
 21
-37.4417617131408065
 31
0.0
  0
LINE
  5
AB
100
AcDbEntity
  8
edge cuts plate
 62
256
370
-1
 48
1.0
  6
BYLAYER
100
AcDbLine
 10
57.9466672836904877
 20
-15.0007012014231975
 30
0.0
 11
70.7491680728492156
 21
-17.2581275110933063
 31
0.0
  0
LINE
  5
AC
100
AcDbEntity
  8
edge cuts plate
 62
256
370
-1
 48
1.0
  6
BYLAYER
100
AcDbLine
 10
57.9466672836904877
 20
4.3431757550002317
 30
0.0
 11
70.7491680728492156
 21
2.0857494453301513
 31
0.0
  0
LINE
  5
AD
100
AcDbEntity
  8
edge cuts plate
 62
256
370
-1
 48
1.0
  6
BYLAYER
100
AcDbLine
 10
76.7072549785730757
 20
1.0351779704452184
 30
0.0
 11
89.5097557677318036
 21
-1.2222483392248762
 31
0.0
  0
LINE
  5
AE
100
AcDbEntity
  8
edge cuts plate
 62
256
370
-1
 48
1.0
  6
BYLAYER
100
AcDbLine
 10
76.7072549785730757
 20
-18.308698985978225
 30
0.0
 11
89.5097557677318036
 21
-20.5661252956483338
 31
0.0
  0
LINE
  5
AF
100
AcDbEntity
  8
edge cuts plate
 62
256
370
-1
 48
1.0
  6
BYLAYER
100
AcDbLine
 10
81.4697549785731212
 20
-38.4923331880257251
 30
0.0
 11
94.2722557677317923
 21
-40.7497594976958339
 31
0.0
  0
LINE
  5
B0
100
AcDbEntity
  8
edge cuts plate
 62
256
370
-1
 48
1.0
  6
BYLAYER
100
AcDbLine
 10
100.2303426734555956
 20
-41.8003309725807526
 30
0.0
 11
113.0328434626143235
 21
-44.057757282250833
 31
0.0
  0
LINE
  5
B1
100
AcDbEntity
  8
edge cuts plate
 62
256
370
-1
 48
1.0
  6
BYLAYER
100
AcDbLine
 10
95.4678426734556638
 20
-21.6166967705332524
 30
0.0
 11
108.2703434626143348
 21
-23.8741230802033328
 31
0.0
  0
LINE
  5
B2
100
AcDbEntity
  8
edge cuts plate
 62
256
370
-1
 48
1.0
  6
BYLAYER
100
AcDbLine
 10
95.4678426734556638
 20
-2.272819814109809
 30
0.0
 11
108.2703434626143917
 21
-4.5302461237799037
 31
0.0
  0
LINE
  5
B3
100
AcDbEntity
  8
edge cuts plate
 62
256
370
-1
 48
1.0
  6
BYLAYER
100
AcDbLine
 10
118.9909303683381836
 20
-45.1083287571357516
 30
0.0
 11
131.7934311574968547
 21
-47.3657550668058605
 31
0.0
  0
LINE
  5
B4
100
AcDbEntity
  8
edge cuts plate
 62
256
370
-1
 48
1.0
  6
BYLAYER
100
AcDbLine
 10
7.7874999999999943
 20
-50.1499999999999773
 30
0.0
 11
20.7874999999999943
 21
-50.1499999999999773
 31
0.0
  0
LINE
  5
B5
100
AcDbEntity
  8
edge cuts plate
 62
256
370
-1
 48
1.0
  6
BYLAYER
100
AcDbLine
 10
-6.5
 20
-7.0
 30
0.0
 11
6.5
 21
-7.0
 31
0.0
  0
LINE
  5
B6
100
AcDbEntity
  8
edge cuts plate
 62
256
370
-1
 48
1.0
  6
BYLAYER
100
AcDbLine
 10
-13.6437500000000114
 20
-64.1499999999999773
 30
0.0
 11
-0.6437500000000114
 21
-64.1499999999999773
 31
0.0
  0
LINE
  5
B7
100
AcDbEntity
  8
edge cuts plate
 62
256
370
-1
 48
1.0
  6
BYLAYER
100
AcDbLine
 10
-13.6437500000000114
 20
-26.0500000000000327
 30
0.0
 11
4.1187500000000057
 21
-26.0499999999999545
 31
0.0
  0
LINE
  5
B8
100
AcDbEntity
  8
edge cuts plate
 62
256
370
-1
 48
1.0
  6
BYLAYER
100
AcDbLine
 10
17.3124999999999716
 20
-6.9999999999999716
 30
0.0
 11
30.3124999999999716
 21
-6.9999999999999716
 31
0.0
  0
LINE
  5
B9
100
AcDbEntity
  8
edge cuts plate
 62
256
370
-1
 48
1.0
  6
BYLAYER
100
AcDbLine
 10
17.3124999999999716
 20
-26.0499999999999829
 30
0.0
 11
30.3124999999999716
 21
-26.0499999999999829
 31
0.0
  0
LINE
  5
BA
100
AcDbEntity
  8
edge cuts plate
 62
256
370
-1
 48
1.0
  6
BYLAYER
100
AcDbLine
 10
22.0749999999999886
 20
-45.0999999999999943
 30
0.0
 11
35.0749999999999886
 21
-45.0999999999999943
 31
0.0
  0
LINE
  5
BB
100
AcDbEntity
  8
edge cuts plate
 62
256
370
-1
 48
1.0
  6
BYLAYER
100
AcDbLine
 10
36.7550051014709425
 20
-6.1361350026156458
 30
0.0
 11
49.557505890629642
 21
-8.3935613122857404
 31
0.0
  0
LINE
  5
BC
100
AcDbEntity
  8
edge cuts plate
 62
256
370
-1
 48
1.0
  6
BYLAYER
100
AcDbLine
 10
36.755005101470914
 20
-25.4800119590391034
 30
0.0
 11
49.5575058906296135
 21
-27.7374382687091838
 31
0.0
  0
LINE
  5
BD
100
AcDbEntity
  8
edge cuts plate
 62
256
370
-1
 48
1.0
  6
BYLAYER
100
AcDbLine
 10
41.5175051014709595
 20
-45.6636461610866036
 30
0.0
 11
54.320005890629659
 21
-47.921072470756684
 31
0.0
  0
LINE
  5
BE
100
AcDbEntity
  8
edge cuts plate
 62
256
370
-1
 48
1.0
  6
BYLAYER
100
AcDbLine
 10
52.2799480880778518
 20
-66.905232194385448
 30
0.0
 11
65.0824488772365584
 21
-69.1626585040555426
 31
0.0
  0
LINE
  5
BF
100
AcDbEntity
  8
edge cuts plate
 62
256
370
-1
 48
1.0
  6
BYLAYER
100
AcDbLine
 10
60.2780927963535191
 20
-48.971643945641631
 30
0.0
 11
73.0805935855121902
 21
-51.2290702553117114
 31
0.0
  0
LINE
  5
C0
100
AcDbEntity
  8
edge cuts plate
 62
256
370
-1
 48
1.0
  6
BYLAYER
100
AcDbLine
 10
55.5155927963534737
 20
-28.7880097435941309
 30
0.0
 11
68.3180935855122016
 21
-31.0454360532642113
 31
0.0
  0
LINE
  5
C1
100
AcDbEntity
  8
edge cuts plate
 62
256
370
-1
 48
1.0
  6
BYLAYER
100
AcDbLine
 10
55.5155927963534737
 20
-9.4441327871706733
 30
0.0
 11
68.3180935855122016
 21
-11.7015590968407679
 31
0.0
  0
LINE
  5
C2
100
AcDbEntity
  8
edge cuts plate
 62
256
370
-1
 48
1.0
  6
BYLAYER
100
AcDbLine
 10
74.2761804912360617
 20
-12.7521305717257007
 30
0.0
 11
87.0786812803947328
 21
-15.0095568813957811
 31
0.0
  0
LINE
  5
C3
100
AcDbEntity
  8
edge cuts plate
 62
256
370
-1
 48
1.0
  6
BYLAYER
100
AcDbLine
 10
74.2761804912360617
 20
-32.0960075281491299
 30
0.0
 11
87.0786812803947328
 21
-34.3534338378192388
 31
0.0
  0
LINE
  5
C4
100
AcDbEntity
  8
edge cuts plate
 62
256
370
-1
 48
1.0
  6
BYLAYER
100
AcDbLine
 10
79.0386804912360503
 20
-52.2796417301966585
 30
0.0
 11
91.8411812803947782
 21
-54.5370680398667389
 31
0.0
  0
LINE
  5
C5
100
AcDbEntity
  8
edge cuts plate
 62
256
370
-1
 48
1.0
  6
BYLAYER
100
AcDbLine
 10
97.7992681861185815
 20
-55.5876395147516575
 30
0.0
 11
110.6017689752773094
 21
-57.8450658244217664
 31
0.0
  0
LINE
  5
C6
100
AcDbEntity
  8
edge cuts plate
 62
256
370
-1
 48
1.0
  6
BYLAYER
100
AcDbLine
 10
93.0367681861185929
 20
-35.4040053127041574
 30
0.0
 11
105.8392689752773208
 21
-37.6614316223742662
 31
0.0
  0
LINE
  5
C7
100
AcDbEntity
  8
edge cuts plate
 62
256
370
-1
 48
1.0
  6
BYLAYER
100
AcDbLine
 10
93.0367681861186497
 20
-16.0601283562807282
 30
0.0
 11
105.8392689752773208
 21
-18.3175546659508086
 31
0.0
  0
LINE
  5
C8
100
AcDbEntity
  8
edge cuts plate
 62
256
370
-1
 48
1.0
  6
BYLAYER
100
AcDbLine
 10
113.2518580964461421
 20
-77.6562249941892446
 30
0.0
 11
126.05435888560487
 21
-79.9136513038593534
 31
0.0
  0
LINE
  5
C9
100
AcDbEntity
  8
edge cuts plate
 62
256
370
-1
 48
1.0
  6
BYLAYER
100
AcDbLine
 10
7.7874999999999943
 20
-64.1499999999999773
 30
0.0
 11
20.7874999999999943
 21
-64.1499999999999773
 31
0.0
  0
LINE
  5
CA
100
AcDbEntity
  8
edge cuts plate
 62
256
370
-1
 48
1.0
  6
BYLAYER
100
AcDbLine
 10
-7.0
 20
-6.5
 30
0.0
 11
-7.0
 21
6.5
 31
0.0
  0
LINE
  5
CB
100
AcDbEntity
  8
edge cuts plate
 62
256
370
-1
 48
1.0
  6
BYLAYER
100
AcDbLine
 10
-14.1437500000000114
 20
-63.6499999999999773
 30
0.0
 11
-14.1437500000000114
 21
-50.6499999999999773
 31
0.0
  0
LINE
  5
CC
100
AcDbEntity
  8
edge cuts plate
 62
256
370
-1
 48
1.0
  6
BYLAYER
100
AcDbLine
 10
-14.1437500000000114
 20
-25.5500000000000327
 30
0.0
 11
-14.1437500000000114
 21
-12.5500000000000327
 31
0.0
  0
LINE
  5
CD
100
AcDbEntity
  8
edge cuts plate
 62
256
370
-1
 48
1.0
  6
BYLAYER
100
AcDbLine
 10
16.8124999999999716
 20
-6.4999999999999716
 30
0.0
 11
16.8124999999999716
 21
6.5000000000000284
 31
0.0
  0
LINE
  5
CE
100
AcDbEntity
  8
edge cuts plate
 62
256
370
-1
 48
1.0
  6
BYLAYER
100
AcDbLine
 10
16.8124999999999716
 20
-25.5499999999999829
 30
0.0
 11
16.8124999999999716
 21
-12.5499999999999829
 31
0.0
  0
LINE
  5
CF
100
AcDbEntity
  8
edge cuts plate
 62
256
370
-1
 48
1.0
  6
BYLAYER
100
AcDbLine
 10
21.5749999999999886
 20
-44.5999999999999943
 30
0.0
 11
21.5749999999999886
 21
-31.5999999999999943
 31
0.0
  0
LINE
  5
D0
100
AcDbEntity
  8
edge cuts plate
 62
256
370
-1
 48
1.0
  6
BYLAYER
100
AcDbLine
 10
36.3494253137982923
 20
-5.5569070372760763
 30
0.0
 11
38.6068516234684012
 21
7.2455937518826232
 31
0.0
  0
LINE
  5
D1
100
AcDbEntity
  8
edge cuts plate
 62
256
370
-1
 48
1.0
  6
BYLAYER
100
AcDbLine
 10
36.3494253137982923
 20
-24.9007839936995197
 30
0.0
 11
38.6068516234683727
 21
-12.0982832045408202
 31
0.0
  0
LINE
  5
D2
100
AcDbEntity
  8
edge cuts plate
 62
256
370
-1
 48
1.0
  6
BYLAYER
100
AcDbLine
 10
41.1119253137983094
 20
-45.0844181957470198
 30
0.0
 11
43.3693516234683898
 21
-32.2819174065883203
 31
0.0
  0
LINE
  5
D3
100
AcDbEntity
  8
edge cuts plate
 62
256
370
-1
 48
1.0
  6
BYLAYER
100
AcDbLine
 10
59.872513008680869
 20
-48.3924159803020473
 30
0.0
 11
62.1299393183509778
 21
-35.5899151911433478
 31
0.0
  0
LINE
  5
D4
100
AcDbEntity
  8
edge cuts plate
 62
256
370
-1
 48
1.0
  6
BYLAYER
100
AcDbLine
 10
55.1100130086808235
 20
-28.2087817782545471
 30
0.0
 11
57.3674393183509324
 21
-15.4062809890958476
 31
0.0
  0
LINE
  5
D5
100
AcDbEntity
  8
edge cuts plate
 62
256
370
-1
 48
1.0
  6
BYLAYER
100
AcDbLine
 10
55.1100130086808235
 20
-8.8649048218311037
 30
0.0
 11
57.3674393183509324
 21
3.9375959673275958
 31
0.0
  0
LINE
  5
D6
100
AcDbEntity
  8
edge cuts plate
 62
256
370
-1
 48
1.0
  6
BYLAYER
100
AcDbLine
 10
73.8706007035634116
 20
-12.1729026063861312
 30
0.0
 11
76.1280270132335204
 21
0.6295981827725825
 31
0.0
  0
LINE
  5
D7
100
AcDbEntity
  8
edge cuts plate
 62
256
370
-1
 48
1.0
  6
BYLAYER
100
AcDbLine
 10
73.8706007035634116
 20
-31.5167795628095746
 30
0.0
 11
76.1280270132335204
 21
-18.7142787736508751
 31
0.0
  0
LINE
  5
D8
100
AcDbEntity
  8
edge cuts plate
 62
256
370
-1
 48
1.0
  6
BYLAYER
100
AcDbLine
 10
78.633100703563457
 20
-51.7004137648570747
 30
0.0
 11
80.890527013233509
 21
-38.8979129756983752
 31
0.0
  0
LINE
  5
D9
100
AcDbEntity
  8
edge cuts plate
 62
256
370
-1
 48
1.0
  6
BYLAYER
100
AcDbLine
 10
51.9611923892387466
 20
-66.3336003525397473
 30
0.0
 11
54.2186186989087986
 21
-53.5310995633810407
 31
0.0
  0
LINE
  5
DA
100
AcDbEntity
  8
edge cuts plate
 62
256
370
-1
 48
1.0
  6
BYLAYER
100
AcDbLine
 10
97.3936883984459314
 20
-55.0084115494121022
 30
0.0
 11
99.6511147081160402
 21
-42.2059107602534027
 31
0.0
  0
LINE
  5
DB
100
AcDbEntity
  8
edge cuts plate
 62
256
370
-1
 48
1.0
  6
BYLAYER
100
AcDbLine
 10
92.6311883984459996
 20
-34.8247773473646021
 30
0.0
 11
94.8886147081160516
 21
-22.0222765582058742
 31
0.0
  0
LINE
  5
DC
100
AcDbEntity
  8
edge cuts plate
 62
256
370
-1
 48
1.0
  6
BYLAYER
100
AcDbLine
 10
92.6311883984459996
 20
-15.4809003909411445
 30
0.0
 11
94.8886147081161084
 21
-2.678399601782445
 31
0.0
  0
LINE
  5
DD
100
AcDbEntity
  8
edge cuts plate
 62
256
370
-1
 48
1.0
  6
BYLAYER
100
AcDbLine
 10
118.3965950115415922
 20
-45.5995868193204501
 30
0.0
 11
118.4117024029986283
 21
-45.5139085448084018
 31
0.0
  0
LINE
  5
DE
100
AcDbEntity
  8
edge cuts plate
 62
256
370
-1
 48
1.0
  6
BYLAYER
100
AcDbLine
 10
112.846278308773492
 20
-77.0769970288496893
 30
0.0
 11
112.8613857002305281
 21
-76.9913187543375841
 31
0.0
  0
LINE
  5
DF
100
AcDbEntity
  8
edge cuts plate
 62
256
370
-1
 48
1.0
  6
BYLAYER
100
AcDbLine
 10
7.2874999999999943
 20
-63.6499999999999773
 30
0.0
 11
7.2874999999999943
 21
-50.6499999999999773
 31
0.0
  0
LINE
  5
E0
100
AcDbEntity
  8
edge cuts plate
 62
256
370
-1
 48
1.0
  6
BYLAYER
100
AcDbLine
 10
7.0
 20
-6.5
 30
0.0
 11
7.0
 21
6.5
 31
0.0
  0
LINE
  5
E1
100
AcDbEntity
  8
edge cuts plate
 62
256
370
-1
 48
1.0
  6
BYLAYER
100
AcDbLine
 10
4.6187500000000057
 20
-25.5499999999999545
 30
0.0
 11
4.6187500000000057
 21
-12.5499999999999687
 31
0.0
  0
LINE
  5
E2
100
AcDbEntity
  8
edge cuts plate
 62
256
370
-1
 48
1.0
  6
BYLAYER
100
AcDbLine
 10
-0.1437500000000114
 20
-63.6499999999999773
 30
0.0
 11
-0.1437500000000114
 21
-50.6499999999999773
 31
0.0
  0
LINE
  5
E3
100
AcDbEntity
  8
edge cuts plate
 62
256
370
-1
 48
1.0
  6
BYLAYER
100
AcDbLine
 10
21.2874999999999943
 20
-63.6499999999999773
 30
0.0
 11
21.2874999999999943
 21
-50.6499999999999773
 31
0.0
  0
LINE
  5
E4
100
AcDbEntity
  8
edge cuts plate
 62
256
370
-1
 48
1.0
  6
BYLAYER
100
AcDbLine
 10
30.8124999999999716
 20
-6.4999999999999716
 30
0.0
 11
30.8124999999999716
 21
6.5000000000000284
 31
0.0
  0
LINE
  5
E5
100
AcDbEntity
  8
edge cuts plate
 62
256
370
-1
 48
1.0
  6
BYLAYER
100
AcDbLine
 10
30.8124999999999716
 20
-25.5499999999999829
 30
0.0
 11
30.8124999999999716
 21
-12.5499999999999829
 31
0.0
  0
LINE
  5
E6
100
AcDbEntity
  8
edge cuts plate
 62
256
370
-1
 48
1.0
  6
BYLAYER
100
AcDbLine
 10
35.5749999999999886
 20
-44.5999999999999943
 30
0.0
 11
35.5749999999999886
 21
-31.5999999999999943
 31
0.0
  0
LINE
  5
E7
100
AcDbEntity
  8
edge cuts plate
 62
256
370
-1
 48
1.0
  6
BYLAYER
100
AcDbLine
 10
50.1367338559692257
 20
-7.9879815246131045
 30
0.0
 11
52.3941601656393345
 21
4.814519264545595
 31
0.0
  0
LINE
  5
E8
100
AcDbEntity
  8
edge cuts plate
 62
256
370
-1
 48
1.0
  6
BYLAYER
100
AcDbLine
 10
50.1367338559691973
 20
-27.3318584810365337
 30
0.0
 11
52.3941601656392777
 21
-14.5293576918778342
 31
0.0
  0
LINE
  5
E9
100
AcDbEntity
  8
edge cuts plate
 62
256
370
-1
 48
1.0
  6
BYLAYER
100
AcDbLine
 10
54.8992338559692143
 20
-47.5154926830840623
 30
0.0
 11
57.1566601656393232
 21
-34.7129918939253628
 31
0.0
  0
LINE
  5
EA
100
AcDbEntity
  8
edge cuts plate
 62
256
370
-1
 48
1.0
  6
BYLAYER
100
AcDbLine
 10
73.6598215508518024
 20
-50.8234904676390897
 30
0.0
 11
75.9172478605218544
 21
-38.0209896784803618
 31
0.0
  0
LINE
  5
EB
100
AcDbEntity
  8
edge cuts plate
 62
256
370
-1
 48
1.0
  6
BYLAYER
100
AcDbLine
 10
68.8973215508517569
 20
-30.6398562655915612
 30
0.0
 11
71.1547478605218657
 21
-17.8373554764328617
 31
0.0
  0
LINE
  5
EC
100
AcDbEntity
  8
edge cuts plate
 62
256
370
-1
 48
1.0
  6
BYLAYER
100
AcDbLine
 10
68.8973215508517569
 20
-11.295979309168132
 30
0.0
 11
71.1547478605218657
 21
1.5065214799905675
 31
0.0
  0
LINE
  5
ED
100
AcDbEntity
  8
edge cuts plate
 62
256
370
-1
 48
1.0
  6
BYLAYER
100
AcDbLine
 10
87.6579092457343449
 20
-14.6039770937231594
 30
0.0
 11
89.9153355554043969
 21
-1.8014763045644457
 31
0.0
  0
LINE
  5
EE
100
AcDbEntity
  8
edge cuts plate
 62
256
370
-1
 48
1.0
  6
BYLAYER
100
AcDbLine
 10
87.6579092457343449
 20
-33.9478540501465886
 30
0.0
 11
89.9153355554043969
 21
-21.1453532609878891
 31
0.0
  0
LINE
  5
EF
100
AcDbEntity
  8
edge cuts plate
 62
256
370
-1
 48
1.0
  6
BYLAYER
100
AcDbLine
 10
92.4204092457343336
 20
-54.1314882521941172
 30
0.0
 11
94.6778355554044424
 21
-41.3289874630353893
 31
0.0
  0
LINE
  5
F0
100
AcDbEntity
  8
edge cuts plate
 62
256
370
-1
 48
1.0
  6
BYLAYER
100
AcDbLine
 10
111.1809969406168648
 20
-57.4394860367491162
 30
0.0
 11
113.4384232502869736
 21
-44.6369852475904167
 31
0.0
  0
LINE
  5
F1
100
AcDbEntity
  8
edge cuts plate
 62
256
370
-1
 48
1.0
  6
BYLAYER
100
AcDbLine
 10
106.4184969406168761
 20
-37.2558518347016161
 30
0.0
 11
108.675923250286985
 21
-24.4533510455429166
 31
0.0
  0
LINE
  5
F2
100
AcDbEntity
  8
edge cuts plate
 62
256
370
-1
 48
1.0
  6
BYLAYER
100
AcDbLine
 10
106.418496940616933
 20
-17.9119748782781869
 30
0.0
 11
108.675923250286985
 21
-5.1094740891194732
 31
0.0
  0
LINE
  5
F3
100
AcDbEntity
  8
edge cuts plate
 62
256
370
-1
 48
1.0
  6
BYLAYER
100
AcDbLine
 10
65.6616768425761279
 20
-68.7570787163829209
 30
0.0
 11
67.9191031522462367
 21
-55.954577927224193
 31
0.0
  0
ARC
  5
F4
100
AcDbEntity
  8
edge cuts plate
 62
256
370
-1
 48
1.0
  6
BYLAYER
100
AcDbCircle
 10
-6.5000000000000284
 20
6.5
 30
0.0
 40
0.5
100
AcDbArc
 50
90.0
 51
180.0
  0
ARC
  5
F5
100
AcDbEntity
  8
edge cuts plate
 62
256
370
-1
 48
1.0
  6
BYLAYER
100
AcDbCircle
 10
-13.6437500000000114
 20
-50.6499999999999773
 30
0.0
 40
0.5
100
AcDbArc
 50
90.0
 51
180.0
  0
ARC
  5
F6
100
AcDbEntity
  8
edge cuts plate
 62
256
370
-1
 48
1.0
  6
BYLAYER
100
AcDbCircle
 10
-13.6437500000000114
 20
-12.5500000000000327
 30
0.0
 40
0.5
100
AcDbArc
 50
90.0
 51
180.0
  0
ARC
  5
F7
100
AcDbEntity
  8
edge cuts plate
 62
256
370
-1
 48
1.0
  6
BYLAYER
100
AcDbCircle
 10
17.3124999999999716
 20
6.5000000000000284
 30
0.0
 40
0.5
100
AcDbArc
 50
90.0
 51
180.0
  0
ARC
  5
F8
100
AcDbEntity
  8
edge cuts plate
 62
256
370
-1
 48
1.0
  6
BYLAYER
100
AcDbCircle
 10
17.3124999999999716
 20
-12.5499999999999829
 30
0.0
 40
0.5
100
AcDbArc
 50
90.0
 51
180.0
  0
ARC
  5
F9
100
AcDbEntity
  8
edge cuts plate
 62
256
370
-1
 48
1.0
  6
BYLAYER
100
AcDbCircle
 10
22.0749999999999886
 20
-31.5999999999999943
 30
0.0
 40
0.5
100
AcDbArc
 50
90.0
 51
180.0
  0
ARC
  5
FA
100
AcDbEntity
  8
edge cuts plate
 62
256
370
-1
 48
1.0
  6
BYLAYER
100
AcDbCircle
 10
39.0992554999745039
 20
7.1587696630491564
 30
0.0
 40
0.5
100
AcDbArc
 50
80.0
 51
170.0000000000000284
  0
ARC
  5
FB
100
AcDbEntity
  8
edge cuts plate
 62
256
370
-1
 48
1.0
  6
BYLAYER
100
AcDbCircle
 10
39.0992554999744755
 20
-12.185107293374287
 30
0.0
 40
0.5
100
AcDbArc
 50
80.0
 51
170.0000000000000284
  0
ARC
  5
FC
100
AcDbEntity
  8
edge cuts plate
 62
256
370
-1
 48
1.0
  6
BYLAYER
100
AcDbCircle
 10
43.8617554999745209
 20
-32.3687414954218013
 30
0.0
 40
0.5
100
AcDbArc
 50
80.0
 51
170.0000000000000284
  0
ARC
  5
FD
100
AcDbEntity
  8
edge cuts plate
 62
256
370
-1
 48
1.0
  6
BYLAYER
100
AcDbCircle
 10
54.7110225754149013
 20
-53.6179236522145075
 30
0.0
 40
0.5
100
AcDbArc
 50
80.0
 51
170.0000000000000284
  0
ARC
  5
FE
100
AcDbEntity
  8
edge cuts plate
 62
256
370
-1
 48
1.0
  6
BYLAYER
100
AcDbCircle
 10
62.6223431948570806
 20
-35.6767392799768004
 30
0.0
 40
0.5
100
AcDbArc
 50
80.0
 51
170.0000000000000284
  0
ARC
  5
FF
100
AcDbEntity
  8
edge cuts plate
 62
256
370
-1
 48
1.0
  6
BYLAYER
100
AcDbCircle
 10
57.8598431948570919
 20
-15.4931050779293287
 30
0.0
 40
0.5
100
AcDbArc
 50
80.0
 51
170.0000000000000284
  0
ARC
  5
100
100
AcDbEntity
  8
edge cuts plate
 62
256
370
-1
 48
1.0
  6
BYLAYER
100
AcDbCircle
 10
57.8598431948570919
 20
3.8507718784941289
 30
0.0
 40
0.5
100
AcDbArc
 50
80.0
 51
170.0000000000000284
  0
ARC
  5
101
100
AcDbEntity
  8
edge cuts plate
 62
256
370
-1
 48
1.0
  6
BYLAYER
100
AcDbCircle
 10
76.6204308897396231
 20
0.5427740939391015
 30
0.0
 40
0.5
100
AcDbArc
 50
80.0
 51
170.0000000000000284
  0
ARC
  5
102
100
AcDbEntity
  8
edge cuts plate
 62
256
370
-1
 48
1.0
  6
BYLAYER
100
AcDbCircle
 10
76.6204308897396231
 20
-18.8011028624843277
 30
0.0
 40
0.5
100
AcDbArc
 50
80.0
 51
170.0000000000000284
  0
ARC
  5
103
100
AcDbEntity
  8
edge cuts plate
 62
256
370
-1
 48
1.0
  6
BYLAYER
100
AcDbCircle
 10
81.3829308897396118
 20
-38.9847370645318279
 30
0.0
 40
0.5
100
AcDbArc
 50
80.0
 51
170.0000000000000284
  0
ARC
  5
104
100
AcDbEntity
  8
edge cuts plate
 62
256
370
-1
 48
1.0
  6
BYLAYER
100
AcDbCircle
 10
100.143518584622143
 20
-42.2927348490868553
 30
0.0
 40
0.5
100
AcDbArc
 50
80.0
 51
170.0000000000000284
  0
ARC
  5
105
100
AcDbEntity
  8
edge cuts plate
 62
256
370
-1
 48
1.0
  6
BYLAYER
100
AcDbCircle
 10
95.3810185846221543
 20
-22.1091006470393552
 30
0.0
 40
0.5
100
AcDbArc
 50
80.0
 51
170.0000000000000284
  0
ARC
  5
106
100
AcDbEntity
  8
edge cuts plate
 62
256
370
-1
 48
1.0
  6
BYLAYER
100
AcDbCircle
 10
95.3810185846222112
 20
-2.765223690615926
 30
0.0
 40
0.5
100
AcDbArc
 50
80.0
 51
170.0000000000000284
  0
ARC
  5
107
100
AcDbEntity
  8
edge cuts plate
 62
256
370
-1
 48
1.0
  6
BYLAYER
100
AcDbCircle
 10
118.904106279504731
 20
-45.6007326336418828
 30
0.0
 40
0.5
100
AcDbArc
 50
80.0
 51
170.0000000000000284
  0
ARC
  5
108
100
AcDbEntity
  8
edge cuts plate
 62
256
370
-1
 48
1.0
  6
BYLAYER
100
AcDbCircle
 10
7.7874999999999943
 20
-50.6499999999999773
 30
0.0
 40
0.5
100
AcDbArc
 50
90.0
 51
180.0
  0
ARC
  5
109
100
AcDbEntity
  8
edge cuts plate
 62
256
370
-1
 48
1.0
  6
BYLAYER
100
AcDbCircle
 10
6.5
 20
6.5
 30
0.0
 40
0.5
100
AcDbArc
 50
0.0
 51
90.0000000000000995
  0
ARC
  5
10A
100
AcDbEntity
  8
edge cuts plate
 62
256
370
-1
 48
1.0
  6
BYLAYER
100
AcDbCircle
 10
4.1187500000000057
 20
-12.5499999999999687
 30
0.0
 40
0.5
100
AcDbArc
 50
0.0
 51
90.0000000000000995
  0
ARC
  5
10B
100
AcDbEntity
  8
edge cuts plate
 62
256
370
-1
 48
1.0
  6
BYLAYER
100
AcDbCircle
 10
-0.6437500000000114
 20
-50.6499999999999773
 30
0.0
 40
0.5
100
AcDbArc
 50
0.0
 51
90.0000000000000995
  0
ARC
  5
10C
100
AcDbEntity
  8
edge cuts plate
 62
256
370
-1
 48
1.0
  6
BYLAYER
100
AcDbCircle
 10
20.7874999999999943
 20
-50.6499999999999773
 30
0.0
 40
0.5
100
AcDbArc
 50
0.0
 51
90.0000000000000995
  0
ARC
  5
10D
100
AcDbEntity
  8
edge cuts plate
 62
256
370
-1
 48
1.0
  6
BYLAYER
100
AcDbCircle
 10
30.3124999999999716
 20
6.5000000000000284
 30
0.0
 40
0.5
100
AcDbArc
 50
0.0
 51
90.0000000000000995
  0
ARC
  5
10E
100
AcDbEntity
  8
edge cuts plate
 62
256
370
-1
 48
1.0
  6
BYLAYER
100
AcDbCircle
 10
30.3124999999999716
 20
-12.5499999999999829
 30
0.0
 40
0.5
100
AcDbArc
 50
0.0
 51
90.0000000000000995
  0
ARC
  5
10F
100
AcDbEntity
  8
edge cuts plate
 62
256
370
-1
 48
1.0
  6
BYLAYER
100
AcDbCircle
 10
35.0749999999999886
 20
-31.5999999999999943
 30
0.0
 40
0.5
100
AcDbArc
 50
0.0
 51
90.0000000000000995
  0
ARC
  5
110
100
AcDbEntity
  8
edge cuts plate
 62
256
370
-1
 48
1.0
  6
BYLAYER
100
AcDbCircle
 10
51.901756289133175
 20
4.9013433533790618
 30
0.0
 40
0.5
100
AcDbArc
 50
350.0
 51
80.0000000000000995
  0
ARC
  5
111
100
AcDbEntity
  8
edge cuts plate
 62
256
370
-1
 48
1.0
  6
BYLAYER
100
AcDbCircle
 10
51.901756289133175
 20
-14.4425336030443816
 30
0.0
 40
0.5
100
AcDbArc
 50
350.0
 51
80.0000000000000995
  0
ARC
  5
112
100
AcDbEntity
  8
edge cuts plate
 62
256
370
-1
 48
1.0
  6
BYLAYER
100
AcDbCircle
 10
56.6642562891332204
 20
-34.6261678050918817
 30
0.0
 40
0.5
100
AcDbArc
 50
350.0
 51
80.0000000000000995
  0
ARC
  5
113
100
AcDbEntity
  8
edge cuts plate
 62
256
370
-1
 48
1.0
  6
BYLAYER
100
AcDbCircle
 10
75.4248439840158085
 20
-37.9341655896469092
 30
0.0
 40
0.5
100
AcDbArc
 50
350.0
 51
80.0000000000000995
  0
ARC
  5
114
100
AcDbEntity
  8
edge cuts plate
 62
256
370
-1
 48
1.0
  6
BYLAYER
100
AcDbCircle
 10
70.662343984015763
 20
-17.7505313875994091
 30
0.0
 40
0.5
100
AcDbArc
 50
350.0
 51
80.0000000000000995
  0
ARC
  5
115
100
AcDbEntity
  8
edge cuts plate
 62
256
370
-1
 48
1.0
  6
BYLAYER
100
AcDbCircle
 10
70.662343984015763
 20
1.5933455688240343
 30
0.0
 40
0.5
100
AcDbArc
 50
350.0
 51
80.0000000000000995
  0
ARC
  5
116
100
AcDbEntity
  8
edge cuts plate
 62
256
370
-1
 48
1.0
  6
BYLAYER
100
AcDbCircle
 10
89.422931678898351
 20
-1.7146522157309789
 30
0.0
 40
0.5
100
AcDbArc
 50
350.0
 51
80.0000000000000995
  0
ARC
  5
117
100
AcDbEntity
  8
edge cuts plate
 62
256
370
-1
 48
1.0
  6
BYLAYER
100
AcDbCircle
 10
89.422931678898351
 20
-21.0585291721544365
 30
0.0
 40
0.5
100
AcDbArc
 50
350.0
 51
80.0000000000000995
  0
ARC
  5
118
100
AcDbEntity
  8
edge cuts plate
 62
256
370
-1
 48
1.0
  6
BYLAYER
100
AcDbCircle
 10
94.1854316788983397
 20
-41.2421633742019367
 30
0.0
 40
0.5
100
AcDbArc
 50
350.0
 51
80.0000000000000995
  0
ARC
  5
119
100
AcDbEntity
  8
edge cuts plate
 62
256
370
-1
 48
1.0
  6
BYLAYER
100
AcDbCircle
 10
112.9460193737808709
 20
-44.5501611587569641
 30
0.0
 40
0.5
100
AcDbArc
 50
350.0
 51
80.0000000000000995
  0
ARC
  5
11A
100
AcDbEntity
  8
edge cuts plate
 62
256
370
-1
 48
1.0
  6
BYLAYER
100
AcDbCircle
 10
108.1835193737808822
 20
-24.3665269567094356
 30
0.0
 40
0.5
100
AcDbArc
 50
350.0
 51
80.0000000000000995
  0
ARC
  5
11B
100
AcDbEntity
  8
edge cuts plate
 62
256
370
-1
 48
1.0
  6
BYLAYER
100
AcDbCircle
 10
108.1835193737809391
 20
-5.0226500002860064
 30
0.0
 40
0.5
100
AcDbArc
 50
350.0
 51
80.0000000000000995
  0
ARC
  5
11C
100
AcDbEntity
  8
edge cuts plate
 62
256
370
-1
 48
1.0
  6
BYLAYER
100
AcDbCircle
 10
131.7066070686634589
 20
-47.8581589433119632
 30
0.0
 40
0.5
100
AcDbArc
 50
350.0
 51
80.0000000000000995
  0
ARC
  5
11D
100
AcDbEntity
  8
edge cuts plate
 62
256
370
-1
 48
1.0
  6
BYLAYER
100
AcDbCircle
 10
67.426699275740134
 20
-55.8677538383907404
 30
0.0
 40
0.5
100
AcDbArc
 50
350.0
 51
80.0000000000000995
  0
ARC
  5
11E
100
AcDbEntity
  8
edge cuts plate
 62
256
370
-1
 48
1.0
  6
BYLAYER
100
AcDbCircle
 10
6.5
 20
-6.5
 30
0.0
 40
0.5
100
AcDbArc
 50
270.0
 51
0.0
  0
ARC
  5
11F
100
AcDbEntity
  8
edge cuts plate
 62
256
370
-1
 48
1.0
  6
BYLAYER
100
AcDbCircle
 10
4.1187500000000057
 20
-25.5499999999999545
 30
0.0
 40
0.5
100
AcDbArc
 50
270.0
 51
0.0
  0
ARC
  5
120
100
AcDbEntity
  8
edge cuts plate
 62
256
370
-1
 48
1.0
  6
BYLAYER
100
AcDbCircle
 10
-0.6437500000000114
 20
-63.6499999999999773
 30
0.0
 40
0.5
100
AcDbArc
 50
270.0
 51
0.0
  0
ARC
  5
121
100
AcDbEntity
  8
edge cuts plate
 62
256
370
-1
 48
1.0
  6
BYLAYER
100
AcDbCircle
 10
20.7874999999999943
 20
-63.6499999999999773
 30
0.0
 40
0.5
100
AcDbArc
 50
270.0
 51
0.0
  0
ARC
  5
122
100
AcDbEntity
  8
edge cuts plate
 62
256
370
-1
 48
1.0
  6
BYLAYER
100
AcDbCircle
 10
30.3124999999999716
 20
-6.4999999999999716
 30
0.0
 40
0.5
100
AcDbArc
 50
270.0
 51
0.0
  0
ARC
  5
123
100
AcDbEntity
  8
edge cuts plate
 62
256
370
-1
 48
1.0
  6
BYLAYER
100
AcDbCircle
 10
30.3124999999999716
 20
-25.5499999999999829
 30
0.0
 40
0.5
100
AcDbArc
 50
270.0
 51
0.0
  0
ARC
  5
124
100
AcDbEntity
  8
edge cuts plate
 62
256
370
-1
 48
1.0
  6
BYLAYER
100
AcDbCircle
 10
35.0749999999999886
 20
-44.5999999999999943
 30
0.0
 40
0.5
100
AcDbArc
 50
270.0
 51
0.0
  0
ARC
  5
125
100
AcDbEntity
  8
edge cuts plate
 62
256
370
-1
 48
1.0
  6
BYLAYER
100
AcDbCircle
 10
49.6443299794630946
 20
-7.9011574357796377
 30
0.0
 40
0.5
100
AcDbArc
 50
260.0
 51
350.0
  0
ARC
  5
126
100
AcDbEntity
  8
edge cuts plate
 62
256
370
-1
 48
1.0
  6
BYLAYER
100
AcDbCircle
 10
49.6443299794630946
 20
-27.2450343922030811
 30
0.0
 40
0.5
100
AcDbArc
 50
260.0
 51
350.0
  0
ARC
  5
127
100
AcDbEntity
  8
edge cuts plate
 62
256
370
-1
 48
1.0
  6
BYLAYER
100
AcDbCircle
 10
54.4068299794631116
 20
-47.4286685942505812
 30
0.0
 40
0.5
100
AcDbArc
 50
260.0
 51
350.0
  0
ARC
  5
128
100
AcDbEntity
  8
edge cuts plate
 62
256
370
-1
 48
1.0
  6
BYLAYER
100
AcDbCircle
 10
73.1674176743456997
 20
-50.7366663788056087
 30
0.0
 40
0.5
100
AcDbArc
 50
260.0
 51
350.0
  0
ARC
  5
129
100
AcDbEntity
  8
edge cuts plate
 62
256
370
-1
 48
1.0
  6
BYLAYER
100
AcDbCircle
 10
68.4049176743456542
 20
-30.5530321767581086
 30
0.0
 40
0.5
100
AcDbArc
 50
260.0
 51
350.0
  0
ARC
  5
12A
100
AcDbEntity
  8
edge cuts plate
 62
256
370
-1
 48
1.0
  6
BYLAYER
100
AcDbCircle
 10
68.4049176743456542
 20
-11.2091552203346652
 30
0.0
 40
0.5
100
AcDbArc
 50
260.0
 51
350.0
  0
ARC
  5
12B
100
AcDbEntity
  8
edge cuts plate
 62
256
370
-1
 48
1.0
  6
BYLAYER
100
AcDbCircle
 10
87.1655053692282422
 20
-14.5171530048896784
 30
0.0
 40
0.5
100
AcDbArc
 50
260.0
 51
350.0
  0
ARC
  5
12C
100
AcDbEntity
  8
edge cuts plate
 62
256
370
-1
 48
1.0
  6
BYLAYER
100
AcDbCircle
 10
87.1655053692282422
 20
-33.861029961313136
 30
0.0
 40
0.5
100
AcDbArc
 50
260.0
 51
350.0
  0
ARC
  5
12D
100
AcDbEntity
  8
edge cuts plate
 62
256
370
-1
 48
1.0
  6
BYLAYER
100
AcDbCircle
 10
91.9280053692282308
 20
-54.0446641633606362
 30
0.0
 40
0.5
100
AcDbArc
 50
260.0
 51
350.0
  0
ARC
  5
12E
100
AcDbEntity
  8
edge cuts plate
 62
256
370
-1
 48
1.0
  6
BYLAYER
100
AcDbCircle
 10
110.688593064110762
 20
-57.3526619479156352
 30
0.0
 40
0.5
100
AcDbArc
 50
260.0
 51
350.0
  0
ARC
  5
12F
100
AcDbEntity
  8
edge cuts plate
 62
256
370
-1
 48
1.0
  6
BYLAYER
100
AcDbCircle
 10
105.9260930641107734
 20
-37.1690277458681635
 30
0.0
 40
0.5
100
AcDbArc
 50
260.0
 51
350.0
  0
ARC
  5
130
100
AcDbEntity
  8
edge cuts plate
 62
256
370
-1
 48
1.0
  6
BYLAYER
100
AcDbCircle
 10
105.9260930641108303
 20
-17.8251507894447059
 30
0.0
 40
0.5
100
AcDbArc
 50
260.0
 51
350.0
  0
ARC
  5
131
100
AcDbEntity
  8
edge cuts plate
 62
256
370
-1
 48
1.0
  6
BYLAYER
100
AcDbCircle
 10
126.1411829744383226
 20
-79.4212474273532507
 30
0.0
 40
0.5
100
AcDbArc
 50
260.0
 51
350.0
  0
ARC
  5
132
100
AcDbEntity
  8
edge cuts plate
 62
256
370
-1
 48
1.0
  6
BYLAYER
100
AcDbCircle
 10
65.1692729660700252
 20
-68.6702546275494399
 30
0.0
 40
0.5
100
AcDbArc
 50
260.0
 51
350.0
  0
ARC
  5
133
100
AcDbEntity
  8
edge cuts plate
 62
256
370
-1
 48
1.0
  6
BYLAYER
100
AcDbCircle
 10
-6.5
 20
-6.5
 30
0.0
 40
0.5
100
AcDbArc
 50
180.0
 51
270.0
  0
ARC
  5
134
100
AcDbEntity
  8
edge cuts plate
 62
256
370
-1
 48
1.0
  6
BYLAYER
100
AcDbCircle
 10
-13.6437500000000114
 20
-63.6499999999999773
 30
0.0
 40
0.5
100
AcDbArc
 50
180.0
 51
270.0
  0
ARC
  5
135
100
AcDbEntity
  8
edge cuts plate
 62
256
370
-1
 48
1.0
  6
BYLAYER
100
AcDbCircle
 10
-13.6437500000000114
 20
-25.5500000000000327
 30
0.0
 40
0.5
100
AcDbArc
 50
180.0
 51
270.0
  0
ARC
  5
136
100
AcDbEntity
  8
edge cuts plate
 62
256
370
-1
 48
1.0
  6
BYLAYER
100
AcDbCircle
 10
17.3124999999999716
 20
-6.4999999999999716
 30
0.0
 40
0.5
100
AcDbArc
 50
180.0
 51
270.0
  0
ARC
  5
137
100
AcDbEntity
  8
edge cuts plate
 62
256
370
-1
 48
1.0
  6
BYLAYER
100
AcDbCircle
 10
17.3124999999999716
 20
-25.5499999999999829
 30
0.0
 40
0.5
100
AcDbArc
 50
180.0
 51
270.0
  0
ARC
  5
138
100
AcDbEntity
  8
edge cuts plate
 62
256
370
-1
 48
1.0
  6
BYLAYER
100
AcDbCircle
 10
22.0749999999999886
 20
-44.5999999999999943
 30
0.0
 40
0.5
100
AcDbArc
 50
180.0
 51
270.0
  0
ARC
  5
139
100
AcDbEntity
  8
edge cuts plate
 62
256
370
-1
 48
1.0
  6
BYLAYER
100
AcDbCircle
 10
36.8418291903043951
 20
-5.6437311261095431
 30
0.0
 40
0.5
100
AcDbArc
 50
170.0000000000000284
 51
260.0
  0
ARC
  5
13A
100
AcDbEntity
  8
edge cuts plate
 62
256
370
-1
 48
1.0
  6
BYLAYER
100
AcDbCircle
 10
36.8418291903043951
 20
-24.9876080825330007
 30
0.0
 40
0.5
100
AcDbArc
 50
170.0000000000000284
 51
260.0
  0
ARC
  5
13B
100
AcDbEntity
  8
edge cuts plate
 62
256
370
-1
 48
1.0
  6
BYLAYER
100
AcDbCircle
 10
41.6043291903044121
 20
-45.1712422845805008
 30
0.0
 40
0.5
100
AcDbArc
 50
170.0000000000000284
 51
260.0
  0
ARC
  5
13C
100
AcDbEntity
  8
edge cuts plate
 62
256
370
-1
 48
1.0
  6
BYLAYER
100
AcDbCircle
 10
60.3649168851869717
 20
-48.4792400691355283
 30
0.0
 40
0.5
100
AcDbArc
 50
170.0000000000000284
 51
260.0
  0
ARC
  5
13D
100
AcDbEntity
  8
edge cuts plate
 62
256
370
-1
 48
1.0
  6
BYLAYER
100
AcDbCircle
 10
55.6024168851869831
 20
-28.2956058670880282
 30
0.0
 40
0.5
100
AcDbArc
 50
170.0000000000000284
 51
260.0
  0
ARC
  5
13E
100
AcDbEntity
  8
edge cuts plate
 62
256
370
-1
 48
1.0
  6
BYLAYER
100
AcDbCircle
 10
55.6024168851869831
 20
-8.9517289106645705
 30
0.0
 40
0.5
100
AcDbArc
 50
170.0000000000000284
 51
260.0
  0
ARC
  5
13F
100
AcDbEntity
  8
edge cuts plate
 62
256
370
-1
 48
1.0
  6
BYLAYER
100
AcDbCircle
 10
74.3630045800695143
 20
-12.259726695219598
 30
0.0
 40
0.5
100
AcDbArc
 50
170.0000000000000284
 51
260.0
  0
ARC
  5
140
100
AcDbEntity
  8
edge cuts plate
 62
256
370
-1
 48
1.0
  6
BYLAYER
100
AcDbCircle
 10
74.3630045800695143
 20
-31.6036036516430272
 30
0.0
 40
0.5
100
AcDbArc
 50
170.0000000000000284
 51
260.0
  0
ARC
  5
141
100
AcDbEntity
  8
edge cuts plate
 62
256
370
-1
 48
1.0
  6
BYLAYER
100
AcDbCircle
 10
79.1255045800695029
 20
-51.7872378536905558
 30
0.0
 40
0.5
100
AcDbArc
 50
170.0000000000000284
 51
260.0
  0
ARC
  5
142
100
AcDbEntity
  8
edge cuts plate
 62
256
370
-1
 48
1.0
  6
BYLAYER
100
AcDbCircle
 10
52.4535962657447925
 20
-66.4204244413732283
 30
0.0
 40
0.5
100
AcDbArc
 50
170.0000000000000284
 51
260.0
  0
ARC
  5
143
100
AcDbEntity
  8
edge cuts plate
 62
256
370
-1
 48
1.0
  6
BYLAYER
100
AcDbCircle
 10
97.886092274952091
 20
-55.0952356382455548
 30
0.0
 40
0.5
100
AcDbArc
 50
170.0000000000000284
 51
260.0
  0
ARC
  5
144
100
AcDbEntity
  8
edge cuts plate
 62
256
370
-1
 48
1.0
  6
BYLAYER
100
AcDbCircle
 10
93.1235922749520455
 20
-34.9116014361980547
 30
0.0
 40
0.5
100
AcDbArc
 50
170.0000000000000284
 51
260.0
  0
ARC
  5
145
100
AcDbEntity
  8
edge cuts plate
 62
256
370
-1
 48
1.0
  6
BYLAYER
100
AcDbCircle
 10
93.1235922749521023
 20
-15.5677244797746255
 30
0.0
 40
0.5
100
AcDbArc
 50
170.0000000000000284
 51
260.0
  0
ARC
  5
146
100
AcDbEntity
  8
edge cuts plate
 62
256
370
-1
 48
1.0
  6
BYLAYER
100
AcDbCircle
 10
113.3386821852796515
 20
-77.1638211176831419
 30
0.0
 40
0.5
100
AcDbArc
 50
170.0000000000000284
 51
260.0
  0
ARC
  5
147
100
AcDbEntity
  8
edge cuts plate
 62
256
370
-1
 48
1.0
  6
BYLAYER
100
AcDbCircle
 10
7.7874999999999943
 20
-63.6499999999999773
 30
0.0
 40
0.5
100
AcDbArc
 50
180.0
 51
270.0
  0
ARC
  5
148
100
AcDbEntity
  8
edge cuts plate
 62
256
370
-1
 48
1.0
  6
BYLAYER
100
AcDbCircle
 10
-10.3192500000000109
 20
-45.5999999999999375
 30
0.0
 40
0.5
100
AcDbArc
 50
90.0
 51
180.0
  0
ARC
  5
149
100
AcDbEntity
  8
edge cuts plate
 62
256
370
-1
 48
1.0
  6
BYLAYER
100
AcDbCircle
 10
99.502456006422733
 20
-60.5081485647654915
 30
0.0
 40
0.5
100
AcDbArc
 50
260.0
 51
350.0
  0
ARC
  5
14A
100
AcDbEntity
  8
edge cuts plate
 62
256
370
-1
 48
1.0
  6
BYLAYER
100
AcDbCircle
 10
116.5150057137000772
 20
-53.3912247545846697
 30
0.0
 40
0.5
100
AcDbArc
 50
350.0
 51
80.0000000000000142
  0
ARC
  5
14B
100
AcDbEntity
  8
edge cuts plate
 62
256
370
-1
 48
1.0
  6
BYLAYER
100
AcDbCircle
 10
5.5567500000000223
 20
-45.5999999999999375
 30
0.0
 40
0.5
100
AcDbArc
 50
0.0
 51
89.999999999999801
  0
ARC
  5
14C
100
AcDbEntity
  8
edge cuts plate
 62
256
370
-1
 48
1.0
  6
BYLAYER
100
AcDbCircle
 10
83.8676481196009149
 20
-57.7513100961253087
 30
0.0
 40
0.5
100
AcDbArc
 50
170.0
 51
259.9999999999997726
  0
ARC
  5
14D
100
AcDbEntity
  8
edge cuts plate
 62
256
370
-1
 48
1.0
  6
BYLAYER
100
AcDbCircle
 10
113.7581672450598944
 20
-69.0260326414064878
 30
0.0
 40
0.5
100
AcDbArc
 50
260.0
 51
349.9999999999997726
  0
ARC
  5
14E
100
AcDbEntity
  8
edge cuts plate
 62
256
370
-1
 48
1.0
  6
BYLAYER
100
AcDbCircle
 10
112.3689818237244822
 20
-76.9044946655041315
 30
0.0
 40
0.5
100
AcDbArc
 50
349.9999999999994316
 51
79.9999999999992326
  0
ARC
  5
14F
100
AcDbEntity
  8
edge cuts plate
 62
256
370
-1
 48
1.0
  6
BYLAYER
100
AcDbCircle
 10
117.9041911350354894
 20
-45.5127627304869975
 30
0.0
 40
0.5
100
AcDbArc
 50
259.9999999999999432
 51
350.0000000000001137
  0
LINE
  5
150
100
AcDbEntity
  8
edge cuts plate
 62
256
370
-1
 48
1.0
  6
BYLAYER
100
AcDbLine
 10
29.6201954276400272
 20
-52.4730609827685157
 30
0.0
 11
29.9688183986306456
 21
-48.4882821904015202
 31
0.0
  0
LINE
  5
151
100
AcDbEntity
  8
edge cuts plate
 62
256
370
-1
 48
1.0
  6
BYLAYER
100
AcDbLine
 10
23.4384510999033751
 20
-65.7621557427475949
 30
0.0
 11
24.4654162239051445
 21
-54.0238906622950736
 31
0.0
  0
LINE
  5
152
100
AcDbEntity
  8
edge cuts plate
 62
256
370
-1
 48
1.0
  6
BYLAYER
100
AcDbLine
 10
49.5207162442578692
 20
-68.0557310179804062
 30
0.0
 11
50.5481890724465472
 21
-56.3116628521182676
 31
0.0
  0
LINE
  5
153
100
AcDbEntity
  8
edge cuts plate
 62
256
370
-1
 48
1.0
  6
BYLAYER
100
AcDbLine
 10
25.9846131384944812
 20
-52.6318031699857301
 30
0.0
 11
29.1056039682413257
 21
-52.9048544865569497
 31
0.0
  0
LINE
  5
154
100
AcDbEntity
  8
edge cuts plate
 62
256
370
-1
 48
1.0
  6
BYLAYER
100
AcDbLine
 10
46.0409138358009287
 20
-54.3865021132671487
 30
0.0
 11
49.1619046655477732
 21
-54.6595534298383683
 31
0.0
  0
LINE
  5
155
100
AcDbEntity
  8
edge cuts plate
 62
256
370
-1
 48
1.0
  6
BYLAYER
100
AcDbLine
 10
45.6091203320124805
 20
-53.8719106538684116
 30
0.0
 11
45.9577433030031557
 21
-49.8871318615014658
 31
0.0
  0
LINE
  5
156
100
AcDbEntity
  8
edge cuts plate
 62
256
370
-1
 48
1.0
  6
BYLAYER
100
AcDbLine
 10
31.6209278209099409
 20
-47.1019977835018366
 30
0.0
 11
44.5714588961035929
 21
-48.2350224392213747
 31
0.0
  0
ARC
  5
157
100
AcDbEntity
  8
edge cuts plate
 62
256
370
-1
 48
1.0
  6
BYLAYER
100
AcDbCircle
 10
44.4385463884133287
 20
-49.754219353811223
 30
0.0
 40
1.5249999999999286
100
AcDbArc
 50
354.999999999997101
 51
84.9999999999971294
  0
ARC
  5
158
100
AcDbEntity
  8
edge cuts plate
 62
256
370
-1
 48
1.0
  6
BYLAYER
100
AcDbCircle
 10
31.4880153132200746
 20
-48.6211946980912373
 30
0.0
 40
1.5249999999994632
100
AcDbArc
 50
85.0000000000161862
 51
175.0000000000161435
  0
ARC
  5
159
100
AcDbEntity
  8
edge cuts plate
 62
256
370
-1
 48
1.0
  6
BYLAYER
100
AcDbCircle
 10
25.9846131384945238
 20
-54.1568031699851957
 30
0.0
 40
1.5249999999994632
100
AcDbArc
 50
85.0000000000161862
 51
175.0000000000161435
  0
ARC
  5
15A
100
AcDbEntity
  8
edge cuts plate
 62
256
370
-1
 48
1.0
  6
BYLAYER
100
AcDbCircle
 10
49.0289921578572105
 20
-56.178750344427705
 30
0.0
 40
1.5249999999994632
100
AcDbArc
 50
354.9999999999838565
 51
84.9999999999838138
  0
ARC
  5
15B
100
AcDbEntity
  8
edge cuts plate
 62
256
370
-1
 48
1.0
  6
BYLAYER
100
AcDbCircle
 10
46.0823128136060802
 20
-53.9133096316735489
 30
0.0
 40
0.4750000000000211
100
AcDbArc
 50
174.9999999999994316
 51
264.9999999999984652
  0
ARC
  5
15C
100
AcDbEntity
  8
edge cuts plate
 62
256
370
-1
 48
1.0
  6
BYLAYER
100
AcDbCircle
 10
29.1470029460464559
 20
-52.4316620049633855
 30
0.0
 40
0.4749999999999919
100
AcDbArc
 50
265.0000000000003979
 51
355.0000000000008527
  0
ARC
  5
15D
100
AcDbEntity
  8
edge cuts plate
 62
256
370
-1
 48
1.0
  6
BYLAYER
100
AcDbCircle
 10
22.4422564018116333
 20
-65.6749999999999403
 30
0.0
 40
1.0
100
AcDbArc
 50
270.0
 51
355.0000000000002274
  0
ARC
  5
15E
100
AcDbEntity
  8
edge cuts plate
 62
256
370
-1
 48
1.0
  6
BYLAYER
100
AcDbCircle
 10
50.5169109423496039
 20
-68.142886760728075
 30
0.0
 40
1.0
100
AcDbArc
 50
174.9999999999993747
 51
260.0000000000003411
  0
ARC
  5
15F
100
AcDbEntity
  8
edge cuts plate
 62
256
370
-1
 48
1.0
  6
BYLAYER
100
AcDbCircle
 10
43.0124884569807762
 20
8.5250000000000039
 30
0.0
 40
1.0
100
AcDbArc
 50
79.9999999999998437
 51
90.0
  0
ENDSEC
  0
SECTION
  2
OBJECTS
  0
DICTIONARY
  5
C
100
AcDbDictionary
280
0
281
1
  3
ACAD_GROUP
350
D
  3
ACAD_LAYOUT
350
1A
  3
ACAD_MLINESTYLE
350
17
  3
ACAD_PLOTSETTINGS
350
19
  3
ACAD_PLOTSTYLENAME
350
E
  3
AcDbVariableDictionary
350
160
  3
QCAD_OBJECTS
350
161
  0
DICTIONARY
  5
D
100
AcDbDictionary
280
0
281
1
  0
ACDBDICTIONARYWDFLT
  5
E
100
AcDbDictionary
281
1
  3
Normal
350
F
100
AcDbDictionaryWithDefault
340
F
  0
ACDBPLACEHOLDER
  5
F
  0
DICTIONARY
  5
17
100
AcDbDictionary
280
0
281
1
  3
Standard
350
18
  0
MLINESTYLE
  5
18
100
AcDbMlineStyle
  2
STANDARD
 70
0
  3

 62
256
 51
90.0
 52
90.0
 71
2
 49
0.5
 62
256
  6
BYLAYER
 49
-0.5
 62
256
  6
BYLAYER
  0
DICTIONARY
  5
19
100
AcDbDictionary
280
0
281
1
  0
DICTIONARY
  5
1A
100
AcDbDictionary
281
1
  3
Layout1
350
1E
  3
Layout2
350
26
  3
Model
350
22
  0
LAYOUT
  5
1E
100
AcDbPlotSettings
  1

  2
none_device
  4

  6

 40
0.0
 41
0.0
 42
0.0
 43
0.0
 44
0.0
 45
0.0
 46
0.0
 47
0.0
 48
0.0
 49
0.0
140
0.0
141
0.0
142
1.0
143
1.0
 70
688
 72
0
 73
0
 74
5
  7

 75
16
147
1.0
148
0.0
149
0.0
100
AcDbLayout
  1
Layout1
 70
1
 71
1
 10
0.0
 20
0.0
 11
420.0
 21
297.0
 12
0.0
 22
0.0
 32
0.0
 14
100000000000000000000.0
 24
100000000000000000000.0
 34
100000000000000000000.0
 15
-100000000000000000000.0
 25
-100000000000000000000.0
 35
-100000000000000000000.0
146
0.0
 13
0.0
 23
0.0
 33
0.0
 16
1.0
 26
0.0
 36
0.0
 17
0.0
 27
1.0
 37
0.0
 76
0
330
1B
  0
LAYOUT
  5
22
100
AcDbPlotSettings
  1

  2
none_device
  4

  6

 40
0.0
 41
0.0
 42
0.0
 43
0.0
 44
0.0
 45
0.0
 46
0.0
 47
0.0
 48
0.0
 49
0.0
140
0.0
141
0.0
142
1.0
143
1.0
 70
1712
 72
0
 73
0
 74
0
  7

 75
0
147
1.0
148
0.0
149
0.0
100
AcDbLayout
  1
Model
 70
1
 71
0
 10
0.0
 20
0.0
 11
12.0
 21
9.0
 12
0.0
 22
0.0
 32
0.0
 14
0.0
 24
0.0
 34
0.0
 15
0.0
 25
0.0
 35
0.0
146
0.0
 13
0.0
 23
0.0
 33
0.0
 16
1.0
 26
0.0
 36
0.0
 17
0.0
 27
1.0
 37
0.0
 76
0
330
1F
  0
LAYOUT
  5
26
100
AcDbPlotSettings
  1

  2
none_device
  4

  6

 40
0.0
 41
0.0
 42
0.0
 43
0.0
 44
0.0
 45
0.0
 46
0.0
 47
0.0
 48
0.0
 49
0.0
140
0.0
141
0.0
142
1.0
143
1.0
 70
688
 72
0
 73
0
 74
5
  7

 75
16
147
1.0
148
0.0
149
0.0
100
AcDbLayout
  1
Layout2
 70
1
 71
2
 10
0.0
 20
0.0
 11
12.0
 21
9.0
 12
0.0
 22
0.0
 32
0.0
 14
0.0
 24
0.0
 34
0.0
 15
0.0
 25
0.0
 35
0.0
146
0.0
 13
0.0
 23
0.0
 33
0.0
 16
1.0
 26
0.0
 36
0.0
 17
0.0
 27
1.0
 37
0.0
 76
0
330
23
  0
DICTIONARY
  5
160
100
AcDbDictionary
281
1
  3
DIMASSOC
350
163
  3
HIDETEXT
350
162
  0
DICTIONARYVAR
  5
162
100
DictionaryVariables
280
0
  1
2
  0
DICTIONARYVAR
  5
163
100
DictionaryVariables
280
0
  1
1
  0
DICTIONARY
  5
161
100
AcDbDictionary
281
1
  3
ColorSettings/BackgroundColor
350
164
  3
ColorSettings/ColorMode
350
165
  3
Grid/DisplayGrid00
350
166
  3
Grid/DisplayGrid01
350
167
  3
Grid/DisplayGrid02
350
168
  3
Grid/DisplayGrid03
350
169
  3
Grid/GridSpacingX00
350
16A
  3
Grid/GridSpacingX01
350
16B
  3
Grid/GridSpacingX02
350
16C
  3
Grid/GridSpacingX03
350
16D
  3
Grid/GridSpacingY00
350
16E
  3
Grid/GridSpacingY01
350
16F
  3
Grid/GridSpacingY02
350
170
  3
Grid/GridSpacingY03
350
171
  3
Grid/IsometricGrid00
350
172
  3
Grid/IsometricGrid01
350
173
  3
Grid/IsometricGrid02
350
174
  3
Grid/IsometricGrid03
350
175
  3
Grid/IsometricProjection00
350
176
  3
Grid/IsometricProjection01
350
177
  3
Grid/IsometricProjection02
350
178
  3
Grid/IsometricProjection03
350
179
  3
Grid/MetaGridSpacingX00
350
17A
  3
Grid/MetaGridSpacingX01
350
17B
  3
Grid/MetaGridSpacingX02
350
17C
  3
Grid/MetaGridSpacingX03
350
17D
  3
Grid/MetaGridSpacingY00
350
17E
  3
Grid/MetaGridSpacingY01
350
17F
  3
Grid/MetaGridSpacingY02
350
180
  3
Grid/MetaGridSpacingY03
350
181
  3
MultiPageSettings/Columns
350
182
  3
MultiPageSettings/GlueMarginsBottom
350
183
  3
MultiPageSettings/GlueMarginsLeft
350
184
  3
MultiPageSettings/GlueMarginsRight
350
185
  3
MultiPageSettings/GlueMarginsTop
350
186
  3
MultiPageSettings/PrintCropMarks
350
187
  3
MultiPageSettings/Rows
350
188
  3
PageSettings/OffsetX
350
189
  3
PageSettings/OffsetY
350
18A
  3
PageSettings/PageOrientation
350
18B
  3
PageSettings/PaperHeight
350
18C
  3
PageSettings/PaperWidth
350
18D
  3
PageSettings/Scale
350
18E
  3
PageSettings/ShowPaperBorders
350
18F
  3
PageTagSettings/EnablePageTags
350
190
  3
PageTagSettings/TagAlignment
350
191
  3
PageTagSettings/TagFont
350
192
  3
PageTagSettings/TagPosition
350
193
  3
QCADVersion
350
194
  3
UnitSettings/PaperUnit
350
195
  3
ViewportCenter
350
196
  3
ViewportHeight
350
197
  3
ViewportWidth
350
198
  0
XRECORD
  5
164
330
161
100
AcDbXrecord
280
1
1000
Wit
  0
XRECORD
  5
165
330
161
100
AcDbXrecord
280
1
1000
FullColor
  0
XRECORD
  5
166
330
161
100
AcDbXrecord
280
1
290
1
  0
XRECORD
  5
167
330
161
100
AcDbXrecord
280
1
290
1
  0
XRECORD
  5
168
330
161
100
AcDbXrecord
280
1
290
1
  0
XRECORD
  5
169
330
161
100
AcDbXrecord
280
1
290
1
  0
XRECORD
  5
16A
330
161
100
AcDbXrecord
280
1
1000
auto
  0
XRECORD
  5
16B
330
161
100
AcDbXrecord
280
1
1000
auto
  0
XRECORD
  5
16C
330
161
100
AcDbXrecord
280
1
1000
auto
  0
XRECORD
  5
16D
330
161
100
AcDbXrecord
280
1
1000
auto
  0
XRECORD
  5
16E
330
161
100
AcDbXrecord
280
1
1000
auto
  0
XRECORD
  5
16F
330
161
100
AcDbXrecord
280
1
1000
auto
  0
XRECORD
  5
170
330
161
100
AcDbXrecord
280
1
1000
auto
  0
XRECORD
  5
171
330
161
100
AcDbXrecord
280
1
1000
auto
  0
XRECORD
  5
172
330
161
100
AcDbXrecord
280
1
290
0
  0
XRECORD
  5
173
330
161
100
AcDbXrecord
280
1
290
0
  0
XRECORD
  5
174
330
161
100
AcDbXrecord
280
1
290
0
  0
XRECORD
  5
175
330
161
100
AcDbXrecord
280
1
290
0
  0
XRECORD
  5
176
330
161
100
AcDbXrecord
280
1
 90
65537
  0
XRECORD
  5
177
330
161
100
AcDbXrecord
280
1
 90
65537
  0
XRECORD
  5
178
330
161
100
AcDbXrecord
280
1
 90
65537
  0
XRECORD
  5
179
330
161
100
AcDbXrecord
280
1
 90
65537
  0
XRECORD
  5
17A
330
161
100
AcDbXrecord
280
1
1000
auto
  0
XRECORD
  5
17B
330
161
100
AcDbXrecord
280
1
1000
auto
  0
XRECORD
  5
17C
330
161
100
AcDbXrecord
280
1
1000
auto
  0
XRECORD
  5
17D
330
161
100
AcDbXrecord
280
1
1000
auto
  0
XRECORD
  5
17E
330
161
100
AcDbXrecord
280
1
1000
auto
  0
XRECORD
  5
17F
330
161
100
AcDbXrecord
280
1
1000
auto
  0
XRECORD
  5
180
330
161
100
AcDbXrecord
280
1
1000
auto
  0
XRECORD
  5
181
330
161
100
AcDbXrecord
280
1
1000
auto
  0
XRECORD
  5
182
330
161
100
AcDbXrecord
280
1
 90
1
  0
XRECORD
  5
183
330
161
100
AcDbXrecord
280
1
 40
10.0
  0
XRECORD
  5
184
330
161
100
AcDbXrecord
280
1
 40
10.0
  0
XRECORD
  5
185
330
161
100
AcDbXrecord
280
1
 40
10.0
  0
XRECORD
  5
186
330
161
100
AcDbXrecord
280
1
 40
10.0
  0
XRECORD
  5
187
330
161
100
AcDbXrecord
280
1
290
0
  0
XRECORD
  5
188
330
161
100
AcDbXrecord
280
1
 90
1
  0
XRECORD
  5
189
330
161
100
AcDbXrecord
280
1
 40
0.0
  0
XRECORD
  5
18A
330
161
100
AcDbXrecord
280
1
 40
0.0
  0
XRECORD
  5
18B
330
161
100
AcDbXrecord
280
1
1000
Portrait
  0
XRECORD
  5
18C
330
161
100
AcDbXrecord
280
1
 40
297.0
  0
XRECORD
  5
18D
330
161
100
AcDbXrecord
280
1
 40
210.0
  0
XRECORD
  5
18E
330
161
100
AcDbXrecord
280
1
1000
1:1
  0
XRECORD
  5
18F
330
161
100
AcDbXrecord
280
1
290
1
  0
XRECORD
  5
190
330
161
100
AcDbXrecord
280
1
290
0
  0
XRECORD
  5
191
330
161
100
AcDbXrecord
280
1
1000
Inside
  0
XRECORD
  5
192
330
161
100
AcDbXrecord
280
1
1000
Arial,10,-1,5,50,0,0,0,0,0
  0
XRECORD
  5
193
330
161
100
AcDbXrecord
280
1
1000
TopLeft
  0
XRECORD
  5
194
330
161
100
AcDbXrecord
280
1
1000
3.28.1
  0
XRECORD
  5
195
330
161
100
AcDbXrecord
280
1
 90
4
  0
XRECORD
  5
197
330
161
100
AcDbXrecord
280
1
 40
99.3667608556347375
  0
XRECORD
  5
198
330
161
100
AcDbXrecord
280
1
 40
203.920248239448199
  0
ENDSEC
  0
EOF
