  0
SECTION
  2
HEADER
  9
$ANGBASE
  50
0.0
  9
$ANGDIR
  70
1
  9
$MEASUREMENT
  70
1
  0
ENDSEC
  0
SECTION
  2
TABLES
  0
TABLE
  2
LTYPE
  70
4
  0
LTYPE
  5
40F
  2
CONTINUOUS
  70
0
  3
Solid line
  72
65
  73
0
  40
0.0
  0
LTYPE
  5
410
  2
DASHDOT
 70
0
  3
Dash Dot ____ _ ____ _
 72
65
 73
4
 40
2.0
 49
1.25
 49
-0.25
 49
0.25
 49
-0.25
  0
LTYPE
  5
411
  2
DASHED
 70
0
  3
Dashed __ __ __ __ __
 72
65
 73
2
 40
0.75
 49
0.5
 49
-0.25
  0
LTYPE
  5
43B
  2
DOTTED
 70
0
  3
Dotted .  .  .  .
 72
65
 73
2
 40
0.2
 49
0.0
 49
-0.2
  0
ENDTAB
  0
TABLE
  2
STYLE
  70
4
  0
STYLE
  2
KICAD
  70
0
  40
0
  41
1
  42
1
  50
0
  71
0
  3
isocp.shx
  0
STYLE
  2
KICADB
  70
0
  40
0
  41
1
  42
1
  50
0
  71
0
  3
isocp.shx
  0
STYLE
  2
KICADI
  70
0
  40
0
  41
1
  42
1
  50
15
  71
0
  3
isocp.shx
  0
STYLE
  2
KICADBI
  70
0
  40
0
  41
1
  42
1
  50
15
  71
0
  3
isocp.shx
  0
ENDTAB
  0
TABLE
  2
LAYER
  70
1
  0
LAYER
  2
BLACK
  70
0
  62
7
  6
CONTINUOUS
  0
ENDTAB
  0
ENDSEC
  0
SECTION
  2
ENTITIES
0
ARC
8
BLACK
10
-138.815
20
-46.2156
40
1
50
-260
51
-170
0
LINE
8
BLACK
6
CONTINUOUS
10
28.575
20
-46.625
11
28.575
21
-29.575
0
ARC
8
BLACK
10
20.05
20
-8.525
40
1
50
-180
51
-90
0
ARC
8
BLACK
10
18.05
20
8.525
40
1
50
-0
51
90
0
ARC
8
BLACK
10
-47.775
20
8.52506
40
0.999943
50
89.9997
51
100
0
LINE
8
BLACK
6
CONTINUOUS
10
19.05
20
-8.525
11
19.05
21
8.525
0
LINE
8
BLACK
6
CONTINUOUS
10
-115.466
20
-21.7391
11
-114.127
21
-21.5031
0
LINE
8
BLACK
6
CONTINUOUS
10
-41.2883
20
-66.6902
11
-132.373
21
-82.7519
0
ARC
8
BLACK
10
27.575
20
-46.625
40
1
50
-90
51
-0
0
LINE
8
BLACK
6
CONTINUOUS
10
-113.316
20
-20.3447
11
-116.277
21
-3.5537
0
LINE
8
BLACK
6
CONTINUOUS
10
-133.531
20
-81.9408
11
-139.8
21
-46.3892
0
ARC
8
BLACK
10
-132.546
20
-81.7671
40
0.999999
50
-170
51
-79.9992
0
ARC
8
BLACK
10
-115.292
20
-22.7239
40
1
50
-260
51
-170
0
LINE
8
BLACK
6
CONTINUOUS
10
22.8125
20
-9.525
11
20.05
21
-9.525
0
ARC
8
BLACK
10
22.8125
20
-10.525
40
1
50
-0
51
90
0
LINE
8
BLACK
6
CONTINUOUS
10
-47.9486
20
9.50981
11
-115.466
21
-2.39524
0
ARC
8
BLACK
10
-114.301
20
-20.5183
40
1
50
-80
51
9.99999
0
ARC
8
BLACK
10
24.8125
20
-48.625
40
1
50
90
51
180
0
LINE
8
BLACK
6
CONTINUOUS
10
23.8125
20
-27.575
11
23.8125
21
-10.525
0
ARC
8
BLACK
10
27.575
20
-29.575
40
1
50
-0
51
90
0
ARC
8
BLACK
10
-114.301
20
-39.8622
40
1
50
-80
51
9.99999
0
ARC
8
BLACK
10
-115.292
20
-3.38005
40
1
50
-260
51
-170
0
ARC
8
BLACK
10
22.8125
20
-65.675
40
1
50
-90
51
-0
0
LINE
8
BLACK
6
CONTINUOUS
10
18.05
20
9.525
11
-47.775
21
9.525
0
LINE
8
BLACK
6
CONTINUOUS
10
27.575
20
-28.575
11
24.8125
21
-28.575
0
LINE
8
BLACK
6
CONTINUOUS
10
-138.989
20
-45.2308
11
-114.127
21
-40.847
0
LINE
8
BLACK
6
CONTINUOUS
10
23.8125
20
-65.675
11
23.8125
21
-48.625
0
LINE
8
BLACK
6
CONTINUOUS
10
24.8125
20
-47.625
11
27.575
21
-47.625
0
LINE
8
BLACK
6
CONTINUOUS
10
-113.316
20
-39.6885
11
-116.277
21
-22.8976
0
ARC
8
BLACK
10
24.8125
20
-27.575
40
1
50
-180
51
-90
0
ARC
8
BLACK
10
-41.1147
20
-67.6751
40
1.00008
50
90.0003
51
100
0
LINE
8
BLACK
6
CONTINUOUS
10
22.8125
20
-66.675
11
-41.1147
21
-66.675
  0
ENDSEC
  0
EOF
