999
dxflib 3.26.4.0
  0
SECTION
  2
HEADER
  9
$ACADVER
  1
AC1015
  9
$HANDSEED
  5
FFFF
  9
$DIMADEC
 70
0
  9
$DIMASZ
 40
0.18
  9
$DIMATFIT
 70
0
  9
$DIMAUNIT
 70
0
  9
$DIMAZIN
 70
0
  9
$DIMBLK
  1
0
  9
$DIMBLK1
  1
0
  9
$DIMBLK2
  1
0
  9
$DIMDEC
 70
4
  9
$DIMDLI
 40
0.36
  9
$DIMDSEP
 70
0
  9
$DIMEXE
 40
0.18
  9
$DIMEXO
 40
0.0625
  9
$DIMGAP
 40
0.09
  9
$DIMLFAC
 40
0.0
  9
$DIMLUNIT
 70
2
  9
$DIMSCALE
 40
0.0
  9
$DIMTAD
 70
0
  9
$DIMTIH
 70
0
  9
$DIMTSZ
 40
0.0
  9
$DIMTXT
 40
0.18
  9
$DIMZIN
 70
0
  9
$DWGCODEPAGE
  3
ANSI_1252
  9
$EXTMAX
 10
221.0
 20
326.0
 30
0.0
  9
$EXTMIN
 10
0.0
 20
0.0
 30
0.0
  9
$INSUNITS
 70
0
  9
$LTSCALE
 40
1.0
  9
$MAXACTVP
 70
64
  9
$MEASUREMENT
 70
1
  9
$MIRRTEXT
 70
0
  9
$PDMODE
 70
0
  9
$PDSIZE
 40
0.0
  0
ENDSEC
  0
SECTION
  2
TABLES
  0
TABLE
  2
VPORT
  5
8
100
AcDbSymbolTable
 70
1
  0
VPORT
  5
30
100
AcDbSymbolTableRecord
100
AcDbViewportTableRecord
  2
*Active
 70
0
 10
0.0
 20
0.0
 11
1.0
 21
1.0
 12
286.3055555555554861
 22
148.5
 13
0.0
 23
0.0
 14
10.0
 24
10.0
 15
10.0
 25
10.0
 16
0.0
 26
0.0
 36
1.0
 17
0.0
 27
0.0
 37
0.0
 40
297.0
 41
1.92798353909465
 42
50.0
 43
0.0
 44
0.0
 50
0.0
 51
0.0
 71
0
 72
100
 73
1
 74
3
 75
1
 76
1
 77
0
 78
0
281
0
 65
1
110
0.0
120
0.0
130
0.0
111
1.0
121
0.0
131
0.0
112
0.0
122
1.0
132
0.0
 79
0
146
0.0
  0
ENDTAB
  0
TABLE
  2
LTYPE
  5
5
100
AcDbSymbolTable
 70
41
  0
LTYPE
  5
16
100
AcDbSymbolTableRecord
100
AcDbLinetypeTableRecord
  2
Continuous
 70
0
  3
Solid line
 72
65
 73
0
 40
0.0
  0
LTYPE
  5
15
100
AcDbSymbolTableRecord
100
AcDbLinetypeTableRecord
  2
BYLAYER
 70
0
  3

 72
65
 73
0
 40
0.0
  0
LTYPE
  5
31
100
AcDbSymbolTableRecord
100
AcDbLinetypeTableRecord
  2
DASHED
 70
0
  3
Dashed __ __ __ __ __ __ __ __ __ __ __ __ __ _
 72
65
 73
2
 40
19.0499999999999972
 49
12.6999999999999993
 74
0
 49
-6.3499999999999996
 74
0
  0
LTYPE
  5
32
100
AcDbSymbolTableRecord
100
AcDbLinetypeTableRecord
  2
HIDDEN
 70
0
  3
Hidden __ __ __ __ __ __ __ __ __ __ __ __ __ __
 72
65
 73
2
 40
9.5249999999999986
 49
6.3499999999999996
 74
0
 49
-3.1749999999999998
 74
0
  0
LTYPE
  5
33
100
AcDbSymbolTableRecord
100
AcDbLinetypeTableRecord
  2
BORDERX2
 70
0
  3
Border (2x) ____  ____  .  ____  ____  .  ___
 72
65
 73
6
 40
88.8999999999999915
 49
25.3999999999999986
 74
0
 49
-12.6999999999999993
 74
0
 49
25.3999999999999986
 74
0
 49
-12.6999999999999993
 74
0
 49
0.0
 74
0
 49
-12.6999999999999993
 74
0
  0
LTYPE
  5
34
100
AcDbSymbolTableRecord
100
AcDbLinetypeTableRecord
  2
ACAD_ISO04W100
 70
0
  3
ISO long-dash dot ____ . ____ . ____ . ____ . _
 72
65
 73
4
 40
30.0
 49
24.0
 74
0
 49
-3.0
 74
0
 49
0.0
 74
0
 49
-3.0
 74
0
  0
LTYPE
  5
35
100
AcDbSymbolTableRecord
100
AcDbLinetypeTableRecord
  2
ACAD_ISO09W100
 70
0
  3
ISO long-dash double-short-dash ____ __ __ ____
 72
65
 73
6
 40
45.0
 49
24.0
 74
0
 49
-3.0
 74
0
 49
6.0
 74
0
 49
-3.0
 74
0
 49
6.0
 74
0
 49
-3.0
 74
0
  0
LTYPE
  5
36
100
AcDbSymbolTableRecord
100
AcDbLinetypeTableRecord
  2
PHANTOM2
 70
0
  3
Phantom (.5x) ___ _ _ ___ _ _ ___ _ _ ___ _ _
 72
65
 73
6
 40
31.7500000000000036
 49
15.875
 74
0
 49
-3.1749999999999998
 74
0
 49
3.1749999999999998
 74
0
 49
-3.1749999999999998
 74
0
 49
3.1749999999999998
 74
0
 49
-3.1749999999999998
 74
0
  0
LTYPE
  5
37
100
AcDbSymbolTableRecord
100
AcDbLinetypeTableRecord
  2
ACAD_ISO03W100
 70
0
  3
ISO dash space __    __    __    __    __    __
 72
65
 73
2
 40
30.0
 49
12.0
 74
0
 49
-18.0
 74
0
  0
LTYPE
  5
38
100
AcDbSymbolTableRecord
100
AcDbLinetypeTableRecord
  2
PHANTOM
 70
0
  3
Phantom ______  __  __  ______  __  __  ______ 
 72
65
 73
6
 40
63.5000000000000071
 49
31.75
 74
0
 49
-6.3499999999999996
 74
0
 49
6.3499999999999996
 74
0
 49
-6.3499999999999996
 74
0
 49
6.3499999999999996
 74
0
 49
-6.3499999999999996
 74
0
  0
LTYPE
  5
39
100
AcDbSymbolTableRecord
100
AcDbLinetypeTableRecord
  2
DOTX2
 70
0
  3
Dot (2x) .  .  .  .  .  .  .  .  .  .  .  .  .  .
 72
65
 73
2
 40
12.6999999999999993
 49
0.0
 74
0
 49
-12.6999999999999993
 74
0
  0
LTYPE
  5
14
100
AcDbSymbolTableRecord
100
AcDbLinetypeTableRecord
  2
BYBLOCK
 70
0
  3

 72
65
 73
0
 40
0.0
  0
LTYPE
  5
3A
100
AcDbSymbolTableRecord
100
AcDbLinetypeTableRecord
  2
DASHEDX2
 70
0
  3
Dashed (2x) ____  ____  ____  ____  ____  ___
 72
65
 73
2
 40
38.0999999999999943
 49
25.3999999999999986
 74
0
 49
-12.6999999999999993
 74
0
  0
LTYPE
  5
3B
100
AcDbSymbolTableRecord
100
AcDbLinetypeTableRecord
  2
DIVIDE2
 70
0
  3
Divide (.5x) __..__..__..__..__..__..__..__.._
 72
65
 73
6
 40
15.875
 49
6.3499999999999996
 74
0
 49
-3.1749999999999998
 74
0
 49
0.0
 74
0
 49
-3.1749999999999998
 74
0
 49
0.0
 74
0
 49
-3.1749999999999998
 74
0
  0
LTYPE
  5
3C
100
AcDbSymbolTableRecord
100
AcDbLinetypeTableRecord
  2
ACAD_ISO05W100
 70
0
  3
ISO long-dash double-dot ____ .. ____ .. ____ . 
 72
65
 73
6
 40
33.0
 49
24.0
 74
0
 49
-3.0
 74
0
 49
0.0
 74
0
 49
-3.0
 74
0
 49
0.0
 74
0
 49
-3.0
 74
0
  0
LTYPE
  5
3D
100
AcDbSymbolTableRecord
100
AcDbLinetypeTableRecord
  2
ACAD_ISO11W100
 70
0
  3
ISO double-dash dot __ __ . __ __ . __ __ . __ _
 72
65
 73
6
 40
33.0
 49
12.0
 74
0
 49
-3.0
 74
0
 49
12.0
 74
0
 49
-3.0
 74
0
 49
0.0
 74
0
 49
-3.0
 74
0
  0
LTYPE
  5
3E
100
AcDbSymbolTableRecord
100
AcDbLinetypeTableRecord
  2
ACAD_ISO12W100
 70
0
  3
ISO dash double-dot __ . . __ . . __ . . __ . . 
 72
65
 73
6
 40
21.0
 49
12.0
 74
0
 49
-3.0
 74
0
 49
0.0
 74
0
 49
-3.0
 74
0
 49
0.0
 74
0
 49
-3.0
 74
0
  0
LTYPE
  5
3F
100
AcDbSymbolTableRecord
100
AcDbLinetypeTableRecord
  2
HIDDENX2
 70
0
  3
Hidden (2x) ____ ____ ____ ____ ____ ____ ____ 
 72
65
 73
2
 40
19.0499999999999972
 49
12.6999999999999993
 74
0
 49
-6.3499999999999996
 74
0
  0
LTYPE
  5
40
100
AcDbSymbolTableRecord
100
AcDbLinetypeTableRecord
  2
DIVIDE
 70
0
  3
Divide ____ . . ____ . . ____ . . ____ . . ____
 72
65
 73
6
 40
31.75
 49
12.6999999999999993
 74
0
 49
-6.3499999999999996
 74
0
 49
0.0
 74
0
 49
-6.3499999999999996
 74
0
 49
0.0
 74
0
 49
-6.3499999999999996
 74
0
  0
LTYPE
  5
41
100
AcDbSymbolTableRecord
100
AcDbLinetypeTableRecord
  2
DIVIDEX2
 70
0
  3
Divide (2x) ________  .  .  ________  .  .  _
 72
65
 73
6
 40
63.5
 49
25.3999999999999986
 74
0
 49
-12.6999999999999993
 74
0
 49
0.0
 74
0
 49
-12.6999999999999993
 74
0
 49
0.0
 74
0
 49
-12.6999999999999993
 74
0
  0
LTYPE
  5
42
100
AcDbSymbolTableRecord
100
AcDbLinetypeTableRecord
  2
DASHDOT2
 70
0
  3
Dash dot (.5x) _._._._._._._._._._._._._._._.
 72
65
 73
4
 40
12.6999999999999993
 49
6.3499999999999996
 74
0
 49
-3.1749999999999998
 74
0
 49
0.0
 74
0
 49
-3.1749999999999998
 74
0
  0
LTYPE
  5
43
100
AcDbSymbolTableRecord
100
AcDbLinetypeTableRecord
  2
HIDDEN2
 70
0
  3
Hidden (.5x) _ _ _ _ _ _ _ _ _ _ _ _ _ _ _ _ _ 
 72
65
 73
2
 40
4.7624999999999993
 49
3.1749999999999998
 74
0
 49
-1.5874999999999999
 74
0
  0
LTYPE
  5
44
100
AcDbSymbolTableRecord
100
AcDbLinetypeTableRecord
  2
ACAD_ISO14W100
 70
0
  3
ISO dash triple-dot __ . . . __ . . . __ . . . _
 72
65
 73
8
 40
24.0
 49
12.0
 74
0
 49
-3.0
 74
0
 49
0.0
 74
0
 49
-3.0
 74
0
 49
0.0
 74
0
 49
-3.0
 74
0
 49
0.0
 74
0
 49
-3.0
 74
0
  0
LTYPE
  5
45
100
AcDbSymbolTableRecord
100
AcDbLinetypeTableRecord
  2
DOT2
 70
0
  3
Dot (.5x) ........................................
 72
65
 73
2
 40
3.1749999999999998
 49
0.0
 74
0
 49
-3.1749999999999998
 74
0
  0
LTYPE
  5
46
100
AcDbSymbolTableRecord
100
AcDbLinetypeTableRecord
  2
ACAD_ISO15W100
 70
0
  3
ISO double-dash triple-dot __ __ . . . __ __ . .
 72
65
 73
10
 40
39.0
 49
12.0
 74
0
 49
-3.0
 74
0
 49
12.0
 74
0
 49
-3.0
 74
0
 49
0.0
 74
0
 49
-3.0
 74
0
 49
0.0
 74
0
 49
-3.0
 74
0
 49
0.0
 74
0
 49
-3.0
 74
0
  0
LTYPE
  5
47
100
AcDbSymbolTableRecord
100
AcDbLinetypeTableRecord
  2
BORDER
 70
0
  3
Border __ __ . __ __ . __ __ . __ __ . __ __ .
 72
65
 73
6
 40
44.4499999999999957
 49
12.6999999999999993
 74
0
 49
-6.3499999999999996
 74
0
 49
12.6999999999999993
 74
0
 49
-6.3499999999999996
 74
0
 49
0.0
 74
0
 49
-6.3499999999999996
 74
0
  0
LTYPE
  5
48
100
AcDbSymbolTableRecord
100
AcDbLinetypeTableRecord
  2
ACAD_ISO07W100
 70
0
  3
ISO dot . . . . . . . . . . . . . . . . . . . . 
 72
65
 73
2
 40
3.0
 49
0.0
 74
0
 49
-3.0
 74
0
  0
LTYPE
  5
49
100
AcDbSymbolTableRecord
100
AcDbLinetypeTableRecord
  2
BORDER2
 70
0
  3
Border (.5x) __.__.__.__.__.__.__.__.__.__.__.
 72
65
 73
6
 40
22.2249999999999979
 49
6.3499999999999996
 74
0
 49
-3.1749999999999998
 74
0
 49
6.3499999999999996
 74
0
 49
-3.1749999999999998
 74
0
 49
0.0
 74
0
 49
-3.1749999999999998
 74
0
  0
LTYPE
  5
4A
100
AcDbSymbolTableRecord
100
AcDbLinetypeTableRecord
  2
PHANTOMX2
 70
0
  3
Phantom (2x) ____________    ____    ____   _
 72
65
 73
6
 40
127.0000000000000142
 49
63.5
 74
0
 49
-12.6999999999999993
 74
0
 49
12.6999999999999993
 74
0
 49
-12.6999999999999993
 74
0
 49
12.6999999999999993
 74
0
 49
-12.6999999999999993
 74
0
  0
LTYPE
  5
4B
100
AcDbSymbolTableRecord
100
AcDbLinetypeTableRecord
  2
ACAD_ISO10W100
 70
0
  3
ISO dash dot __ . __ . __ . __ . __ . __ . __ . 
 72
65
 73
4
 40
18.0
 49
12.0
 74
0
 49
-3.0
 74
0
 49
0.0
 74
0
 49
-3.0
 74
0
  0
LTYPE
  5
4C
100
AcDbSymbolTableRecord
100
AcDbLinetypeTableRecord
  2
ACAD_ISO02W100
 70
0
  3
ISO dash __ __ __ __ __ __ __ __ __ __ __ __ __
 72
65
 73
2
 40
15.0
 49
12.0
 74
0
 49
-3.0
 74
0
  0
LTYPE
  5
4D
100
AcDbSymbolTableRecord
100
AcDbLinetypeTableRecord
  2
DASHDOTX2
 70
0
  3
Dash dot (2x) ____  .  ____  .  ____  .  ___
 72
65
 73
4
 40
50.7999999999999972
 49
25.3999999999999986
 74
0
 49
-12.6999999999999993
 74
0
 49
0.0
 74
0
 49
-12.6999999999999993
 74
0
  0
LTYPE
  5
4E
100
AcDbSymbolTableRecord
100
AcDbLinetypeTableRecord
  2
ACAD_ISO13W100
 70
0
  3
ISO double-dash double-dot __ __ . . __ __ . . _
 72
65
 73
8
 40
36.0
 49
12.0
 74
0
 49
-3.0
 74
0
 49
12.0
 74
0
 49
-3.0
 74
0
 49
0.0
 74
0
 49
-3.0
 74
0
 49
0.0
 74
0
 49
-3.0
 74
0
  0
LTYPE
  5
4F
100
AcDbSymbolTableRecord
100
AcDbLinetypeTableRecord
  2
ACAD_ISO08W100
 70
0
  3
ISO long-dash short-dash ____ __ ____ __ ____ _
 72
65
 73
4
 40
36.0
 49
24.0
 74
0
 49
-3.0
 74
0
 49
6.0
 74
0
 49
-3.0
 74
0
  0
LTYPE
  5
50
100
AcDbSymbolTableRecord
100
AcDbLinetypeTableRecord
  2
DOT
 70
0
  3
Dot . . . . . . . . . . . . . . . . . . . . . . . .
 72
65
 73
2
 40
6.3499999999999996
 49
0.0
 74
0
 49
-6.3499999999999996
 74
0
  0
LTYPE
  5
51
100
AcDbSymbolTableRecord
100
AcDbLinetypeTableRecord
  2
CENTER2
 70
0
  3
Center (.5x) ___ _ ___ _ ___ _ ___ _ ___ _ ___
 72
65
 73
4
 40
28.5750000000000028
 49
19.0500000000000007
 74
0
 49
-3.1749999999999998
 74
0
 49
3.1749999999999998
 74
0
 49
-3.1749999999999998
 74
0
  0
LTYPE
  5
52
100
AcDbSymbolTableRecord
100
AcDbLinetypeTableRecord
  2
CENTER
 70
0
  3
Center ____ _ ____ _ ____ _ ____ _ ____ _ ____
 72
65
 73
4
 40
50.8000000000000043
 49
31.75
 74
0
 49
-6.3499999999999996
 74
0
 49
6.3499999999999996
 74
0
 49
-6.3499999999999996
 74
0
  0
LTYPE
  5
53
100
AcDbSymbolTableRecord
100
AcDbLinetypeTableRecord
  2
DASHDOT
 70
0
  3
Dash dot __ . __ . __ . __ . __ . __ . __ . __
 72
65
 73
4
 40
25.3999999999999986
 49
12.6999999999999993
 74
0
 49
-6.3499999999999996
 74
0
 49
0.0
 74
0
 49
-6.3499999999999996
 74
0
  0
LTYPE
  5
54
100
AcDbSymbolTableRecord
100
AcDbLinetypeTableRecord
  2
CENTERX2
 70
0
  3
Center (2x) ________  __  ________  __  _____
 72
65
 73
4
 40
101.6000000000000085
 49
63.5
 74
0
 49
-12.6999999999999993
 74
0
 49
12.6999999999999993
 74
0
 49
-12.6999999999999993
 74
0
  0
LTYPE
  5
55
100
AcDbSymbolTableRecord
100
AcDbLinetypeTableRecord
  2
DASHED2
 70
0
  3
Dashed (.5x) _ _ _ _ _ _ _ _ _ _ _ _ _ _ _ _ _ 
 72
65
 73
2
 40
9.5249999999999986
 49
6.3499999999999996
 74
0
 49
-3.1749999999999998
 74
0
  0
LTYPE
  5
56
100
AcDbSymbolTableRecord
100
AcDbLinetypeTableRecord
  2
ACAD_ISO06W100
 70
0
  3
ISO long-dash triple-dot ____ ... ____ ... ____
 72
65
 73
8
 40
36.0
 49
24.0
 74
0
 49
-3.0
 74
0
 49
0.0
 74
0
 49
-3.0
 74
0
 49
0.0
 74
0
 49
-3.0
 74
0
 49
0.0
 74
0
 49
-3.0
 74
0
  0
ENDTAB
  0
TABLE
  2
LAYER
  5
2
100
AcDbSymbolTable
 70
1
  0
LAYER
  5
10
100
AcDbSymbolTableRecord
100
AcDbLayerTableRecord
  2
0
 70
0
 62
7
420
16777215
  6
Continuous
370
25
390
F
  0
ENDTAB
  0
TABLE
  2
STYLE
  5
3
100
AcDbSymbolTable
 70
1
  0
STYLE
  5
57
100
AcDbSymbolTableRecord
100
AcDbTextStyleTableRecord
  2
Standard
 70
0
 40
0.0
 41
1.0
 50
0.0
 71
0
 42
2.5
  3

  4

1001
ACAD
1000
txt
1071
0
  0
ENDTAB
  0
TABLE
  2
VIEW
  5
6
100
AcDbSymbolTable
 70
0
  0
ENDTAB
  0
TABLE
  2
UCS
  5
7
100
AcDbSymbolTable
 70
0
  0
ENDTAB
  0
TABLE
  2
APPID
  5
9
100
AcDbSymbolTable
 70
1
  0
APPID
  5
12
100
AcDbSymbolTableRecord
100
AcDbRegAppTableRecord
  2
ACAD
 70
0
  0
APPID
  5
58
100
AcDbSymbolTableRecord
100
AcDbRegAppTableRecord
  2
QCAD
 70
0
  0
ENDTAB
  0
TABLE
  2
DIMSTYLE
  5
A
100
AcDbSymbolTable
 70
1
100
AcDbDimStyleTable
 71
0
  0
DIMSTYLE
105
27
100
AcDbSymbolTableRecord
100
AcDbDimStyleTableRecord
  2
Standard
 41
0.18
 42
0.0625
 43
3.75
 44
0.18
 70
0
 73
0
 74
0
 77
0
 78
8
140
0.18
141
2.5
143
0.03937007874016
147
0.09
171
3
172
1
271
2
272
2
274
3
278
44
283
0
284
8
340
57
  0
ENDTAB
  0
TABLE
  2
BLOCK_RECORD
  5
1
100
AcDbSymbolTable
 70
1
  0
BLOCK_RECORD
  5
1F
100
AcDbSymbolTableRecord
100
AcDbBlockTableRecord
  2
*Model_Space
340
22
  0
BLOCK_RECORD
  5
1B
100
AcDbSymbolTableRecord
100
AcDbBlockTableRecord
  2
*Paper_Space
340
1E
  0
BLOCK_RECORD
  5
23
100
AcDbSymbolTableRecord
100
AcDbBlockTableRecord
  2
*Paper_Space0
340
26
  0
ENDTAB
  0
ENDSEC
  0
SECTION
  2
BLOCKS
  0
BLOCK
  5
20
100
AcDbEntity
  8
0
100
AcDbBlockBegin
  2
*Model_Space
 70
0
 10
0.0
 20
0.0
 30
0.0
  3
*Model_Space
  1

  0
ENDBLK
  5
21
100
AcDbEntity
  8
0
100
AcDbBlockEnd
  0
BLOCK
  5
1C
100
AcDbEntity
 67
1
  8
0
100
AcDbBlockBegin
  2
*Paper_Space
 70
0
 10
0.0
 20
0.0
 30
0.0
  3
*Paper_Space
  1

  0
ENDBLK
  5
1D
100
AcDbEntity
 67
1
  8
0
100
AcDbBlockEnd
  0
BLOCK
  5
24
100
AcDbEntity
  8
0
100
AcDbBlockBegin
  2
*Paper_Space0
 70
0
 10
0.0
 20
0.0
 30
0.0
  3
*Paper_Space0
  1

  0
ENDBLK
  5
25
100
AcDbEntity
  8
0
100
AcDbBlockEnd
  0
ENDSEC
  0
SECTION
  2
ENTITIES
  0
LWPOLYLINE
  5
59
100
AcDbEntity
  8
0
 62
256
370
-1
 48
1.0
  6
BYLAYER
100
AcDbPolyline
 90
156
 70
1
 10
760.8156160035219955
 20
271.1680192571278099
 42
0.076198
 10
758.97594600352204
 20
274.9796722571277883
 42
0.061772
 10
755.9616660035221685
 20
278.380908257127885
 42
0.057939
 10
751.9993720035220122
 20
281.1296692571277731
 42
0.052008
 10
747.3678610035219663
 20
283.0163522571277781
 42
0.024436
 10
743.6660780035219886
 20
283.8989252571278143
 42
0.037678
 10
740.396634003522081
 20
284.2595802571278796
 42
0.025705
 10
736.3171260035219348
 20
284.1908232571277608
 42
0.005798
 10
729.3998080035219118
 20
283.6373222571277211
 42
-0.006606
 10
709.3365550035221077
 20
282.0645462571277449
 42
-0.007845
 10
690.3569590035222063
 20
281.1275052571278366
 42
-0.008428
 10
673.9313940035220867
 20
280.8517552571278202
 42
-0.022194
 10
662.1723670035221403
 20
281.37479425712786
 42
-0.002807
 10
657.2851440035221913
 20
281.837742257127843
 42
-0.004435
 10
653.1002950035219783
 20
282.2953962571277202
 42
-0.001223
 10
649.4707620035220543
 20
282.7339322571277762
 42
-0.167211
 10
649.0811970035219929
 20
282.9240602571278487
 42
-0.249891
 10
648.974438003521982
 20
283.274581257127636
 42
-0.008402
 10
649.2876080035221094
 20
284.7373652571278058
 42
-0.014098
 10
649.7481620035221113
 20
286.4976052571277592
 42
-0.009146
 10
650.3747420035219875
 20
288.5061452571277982
 42
0.030087
 10
651.1733900035221723
 20
291.5019822571279065
 42
0.027846
 10
651.6321660035221157
 20
294.6504702571279495
 42
0.022282
 10
651.7994580035219769
 20
298.4106252571277764
 42
0.010013
 10
651.6999830035219929
 20
303.3542582571277535
 42
0.064371
 10
649.5853180035221612
 20
315.7696112571278491
 42
0.099457
 10
644.4271360035222642
 20
325.3126422571280045
 42
0.077001
 10
634.9207200035220922
 20
333.7060702571278625
 42
0.026137
 10
618.8483240035220661
 20
342.8517682571278442
 42
-0.003699
 10
608.3710980035220928
 20
348.2064762571278607
 42
-0.017209
 10
602.4606490035220077
 20
351.5458662571277841
 42
-0.0254
 10
597.9423040035219401
 20
354.63363425712771
 42
-0.015939
 10
592.9734060035220864
 20
358.6695152571280119
 42
0.023745
 10
591.1220880035220944
 20
360.1258592571278996
 42
0.025831
 10
589.1908360035221222
 20
361.3567112571278699
 42
0.026502
 10
587.4419050035222654
 20
362.2292742571279973
 42
0.102806
 10
586.2623610035221873
 20
362.4743942571278694
 42
0.218052
 10
582.4025770035219693
 20
360.7070942571277783
 42
0.096126
 10
579.5480190035219721
 20
355.725742257127763
 42
0.072721
 10
578.2178300035220673
 20
348.5589842571279178
 42
0.055116
 10
578.7921690035220763
 20
340.5726802571277858
 42
0.012986
 10
579.3546470035221319
 20
337.9060302571279522
 42
0.011832
 10
580.0706150035221071
 20
335.1874872571278843
 42
0.011936
 10
580.8260170035218835
 20
332.7884612571276648
 42
0.037099
 10
581.4907070035219476
 20
331.2297492571277644
 42
-0.021312
 10
582.0326570035222176
 20
330.0623542571279927
 42
-0.030963
 10
582.4006750035219966
 20
328.9883042571278224
 42
-0.031494
 10
582.58192800352208
 20
328.1175862571279254
 42
-0.236166
 10
582.4526510035220781
 20
327.7295152571278436
 42
-0.38378
 10
582.0171860035220561
 20
327.7066302571278129
 42
-0.004348
 10
579.573869003522077
 20
329.7194242571278551
 42
-0.010488
 10
576.7200590035222376
 20
332.2161282571278775
 42
-0.006321
 10
573.4375470035220133
 20
335.2886782571277422
 42
0.010277
 10
570.0122950035221265
 20
338.4443662571278537
 42
0.013005
 10
566.7138380035221417
 20
341.2107822571277893
 42
0.011082
 10
563.8629780035221302
 20
343.3767792571279642
 42
0.095705
 10
562.4228280035222269
 20
344.0490342571278575
 42
0.097912
 10
558.2729140035221462
 20
344.2596232571279415
 42
0.114804
 10
554.6111910035222081
 20
342.826272257128096
 42
0.105225
 10
551.7328120035222128
 20
339.7942282571280543
 42
0.071796
 10
549.8480730035220176
 20
335.4145192571277221
 42
0.078757
 10
549.2533490035220893
 20
329.81659325712792
 42
0.041186
 10
550.1899570035220677
 20
322.8516192571278225
 42
0.040212
 10
552.3368430035220626
 20
315.8212442571278302
 42
0.054923
 10
555.4308230035221641
 20
309.9713522571278759
 42
-0.01142
 10
556.3626750035220994
 20
308.5283322571279427
 42
-0.014666
 10
557.1493930035220501
 20
307.1581932571277775
 42
-0.012502
 10
557.7385530035221564
 20
305.989365257127929
 42
-0.110924
 10
557.8641960035220109
 20
305.4299852571278961
 42
-0.353212
 10
557.5596790035222057
 20
305.0526962571278773
 42
-0.017578
 10
555.8813840035220437
 20
304.7516122571278174
 42
-0.021857
 10
553.7020020035221251
 20
304.5359132571279019
 42
-0.013297
 10
551.1141960035220109
 20
304.4625252571278224
 42
0.029064
 10
545.3002140035221146
 20
304.1140312571278628
 42
0.029092
 10
539.5677670035220217
 20
303.0937062571275646
 42
0.028842
 10
533.9456910035221426
 20
301.4038732571281116
 42
0.027484
 10
528.4614410035219407
 20
299.0553662571279006
 10
523.3777710035221844
 20
296.5394852571279216
 10
519.4209170035221632
 20
299.2569402571278374
 42
-0.033307
 10
515.1519660035221477
 20
302.6278052571280455
 42
-0.010179
 10
509.1603070035221208
 20
308.2695432571277934
 42
-0.010397
 10
503.3458480035219509
 20
314.2143092571278089
 42
-0.028363
 10
499.5715640035220986
 20
318.7243942571277557
 42
0.067253
 10
497.1285370035220694
 20
321.2217362571278727
 42
0.119626
 10
494.5209390035220167
 20
322.3986552571277571
 42
0.103603
 10
491.3977960035222168
 20
322.3342492571280786
 42
0.042198
 10
487.3324700035220758
 20
321.0255852571279434
 42
0.083246
 10
479.4043380035220707
 20
316.0341782571277349
 42
0.093066
 10
473.8953850035222786
 20
308.8948522571281501
 42
0.104248
 10
471.7450960035221215
 20
300.9355872571278496
 42
0.134138
 10
473.3226290035220245
 20
293.5547762571277417
 42
0.10175
 10
477.9631410035221961
 20
287.8168642571279747
 42
0.029215
 10
487.2466540035220532
 20
281.0547912571278744
 42
0.029182
 10
498.4298940035220085
 20
274.7586332571278263
 42
0.034891
 10
509.634985003522047
 20
270.2224322571279345
 42
-0.039746
 10
512.1430000035220473
 20
269.1786842571281113
 42
-0.090477
 10
513.7650390035222472
 20
267.9346212571281853
 42
-0.061311
 10
515.1950340035220961
 20
265.9041702571280439
 42
-0.011056
 10
517.2873510035220761
 20
261.7750442571276039
 42
0.04986
 10
522.1662660035219687
 20
253.7551362571278162
 42
0.035905
 10
529.0635110035220805
 20
245.8586262571276961
 42
0.033423
 10
537.6076700035221165
 20
238.4514472571278532
 42
0.029378
 10
547.4270980035220191
 20
231.895543257127656
 42
-0.104499
 10
548.1752730035220793
 20
231.214880257128101
 42
-0.345952
 10
548.149289003522199
 20
230.5930302571280208
 42
-0.092714
 10
547.2245760035220883
 20
229.8482902571277009
 42
-0.007481
 10
544.4396520035221556
 20
228.4049772571280528
 42
0.052435
 10
540.0950750035219698
 20
225.6327242571277623
 42
0.041059
 10
536.0190990035221148
 20
221.7988002571277661
 42
0.042539
 10
532.8747510035220785
 20
217.6530672571277307
 42
0.094887
 10
531.4319770035220927
 20
213.9840082571280959
 42
0.080233
 10
531.3544430035221922
 20
210.9228212571281347
 42
0.069079
 10
532.2223500035221377
 20
207.8199242571279797
 42
0.071119
 10
533.8657900035220791
 20
205.1554282571277099
 42
0.096479
 10
536.0520100035221276
 20
203.3738792571278964
 42
0.101575
 10
538.1297820035221093
 20
202.756238257128075
 42
0.032577
 10
541.3644480035220568
 20
202.6871462571280063
 42
0.015874
 10
546.7346110035219908
 20
203.0934732571278403
 42
0.002291
 10
557.6566430035220492
 20
204.3202042571277275
 42
-0.004893
 10
560.0901230035219669
 20
204.5807102571277483
 42
-0.007661
 10
562.1884760035220552
 20
204.7521852571279624
 42
-0.002944
 10
563.9787370035221556
 20
204.8603222571279048
 42
-0.213101
 10
564.2479570035220604
 20
204.7572992571277837
 42
-0.302506
 10
564.2994600035219719
 20
204.500445257127808
 42
-0.003827
 10
563.6243960035220653
 20
202.8915482571278517
 42
-0.009603
 10
562.7732200035219421
 20
201.0064892571277824
 42
-0.005958
 10
561.7055100035220221
 20
198.8254922571278485
 42
0.047649
 10
559.6798660035219655
 20
193.632874257127753
 42
0.05831
 10
558.849099003522042
 20
188.4924462571278809
 42
0.064279
 10
559.2520500035220721
 20
183.7430842571279186
 42
0.08382
 10
560.8683940035219848
 20
179.6994682571278759
 42
0.088391
 10
563.6640210035220662
 20
176.5366172571279435
 42
0.144031
 10
566.96008000352208
 20
175.2027782571278181
 42
0.091198
 10
571.5513880035219927
 20
175.5868492571278239
 42
0.02189
 10
578.8641960035221246
 20
177.9222832571280151
 42
-0.029436
 10
581.3795770035221722
 20
178.6839932571280087
 42
-0.006742
 10
585.7141960035220336
 20
179.6610542571277733
 42
-0.006949
 10
590.748575003521978
 20
180.6518442571277774
 42
-0.006723
 10
595.8641960035220109
 20
181.5140662571276948
 42
0.004251
 10
605.3451520035221165
 20
183.063885257127879
 42
0.02137
 10
610.5962150035221612
 20
184.2010642571278822
 42
0.030743
 10
614.8188860035220387
 20
185.5885522571279012
 42
0.015737
 10
619.9339970035221086
 20
187.8142032571279287
 42
0.051016
 10
627.1537840035219915
 20
192.1795392571277716
 42
0.057759
 10
633.0122970035220078
 20
197.7606462571276893
 42
0.058186
 10
637.405740003522169
 20
204.4956292571279164
 42
0.053049
 10
640.2952400035221672
 20
212.2717802571278298
 10
641.4463750035220073
 20
216.7842222571277944
 10
662.4052850035220672
 20
216.9743042571277556
 42
0.018205
 10
683.1247340035220077
 20
217.9171882571278047
 42
0.029524
 10
700.5742720035220827
 20
220.3924782571278911
 42
0.0327
 10
716.2569710035220396
 20
224.653911257127902
 42
0.030845
 10
731.5696080035220348
 20
230.990679257127681
 42
0.047456
 10
745.8685400035221846
 20
239.7354032571279561
 42
0.074601
 10
755.9572730035220047
 20
249.9714932571278041
 42
0.094319
 10
761.047456003522143
 20
260.7518362571277635
 42
0.138531
  0
LWPOLYLINE
  5
5A
100
AcDbEntity
  8
0
 62
256
370
-1
 48
1.0
  6
BYLAYER
100
AcDbPolyline
 90
36
 70
1
 10
754.269557003522209
 20
256.8661062571280809
 42
-0.105176
 10
747.056628003522178
 20
247.3315432571278336
 42
-0.0505
 10
734.4474060035220191
 20
238.4688792571278668
 42
-0.043389
 10
717.8272840035222089
 20
230.9466082571278776
 42
-0.031948
 10
698.3641960035220109
 20
225.4673512571278025
 42
-0.030317
 10
688.1055750035220626
 20
223.9176512571277726
 42
-0.009682
 10
672.7048580035220766
 20
222.8386072571278191
 42
-0.009483
 10
657.3745160035219897
 20
222.3537052571277854
 42
-0.034251
 10
647.6254520035220139
 20
222.8984852571278452
 10
642.1291220035220704
 20
223.5852062571278793
 10
641.6161380035219963
 20
229.975900257127762
 42
0.050605
 10
640.4172400035220107
 20
236.5189102571277999
 42
0.041607
 10
637.8778910035219951
 20
243.1540612571278075
 42
0.039975
 10
634.1467450035222555
 20
249.5427562571279623
 42
0.038339
 10
629.3991380035220118
 20
255.3524112571277556
 42
-0.005013
 10
625.5708710035220292
 20
259.4473822571277424
 42
-0.057515
 10
624.278841003522075
 20
261.2313212571280019
 42
-0.340058
 10
624.400069003522276
 20
262.0693362571280431
 42
-0.195316
 10
625.3974400035222061
 20
262.47439425712804
 42
0.112548
 10
628.3503650035221426
 20
263.1476102571278943
 42
0.027518
 10
632.7488940035220821
 20
265.569567257127801
 42
0.028418
 10
637.3076990035220888
 20
268.7910072571276032
 42
0.036712
 10
641.0721120035220792
 20
272.2655872571278906
 10
645.7404210035221013
 20
277.2563872571279262
 10
653.0523090035219411
 20
276.4093032571278172
 42
0.022974
 10
663.6002700035221551
 20
275.6761422571279923
 42
0.008743
 10
678.3455200035220969
 20
275.5881252571278424
 42
0.00831
 10
695.0718630035220258
 20
276.0588752571276814
 42
0.007796
 10
712.133561003522118
 20
277.0897822571278653
 42
-0.002356
 10
731.028443003521943
 20
278.4379312571277296
 42
-0.018283
 10
739.8698130035220402
 20
278.7028532571277992
 42
-0.040637
 10
745.2810800035219927
 20
278.226325257127769
 42
-0.076073
 10
749.4418080035219418
 20
276.8432692571274174
 42
-0.097725
 10
753.7829390035221877
 20
273.4209132571276086
 42
-0.11836
 10
756.1380160035220115
 20
268.815929256860386
 42
-0.104937
 10
756.2953670035220739
 20
263.1993432571282483
 42
-0.06433
  0
LWPOLYLINE
  5
5B
100
AcDbEntity
  8
0
 62
256
370
-1
 48
1.0
  6
BYLAYER
100
AcDbPolyline
 90
44
 70
1
 10
643.6810270035219901
 20
287.4756672571277818
 42
-0.029395
 10
641.5594820035220209
 20
282.2886852571278951
 42
-0.041155
 10
639.0324850035219697
 20
277.9687432571276986
 42
-0.04161
 10
635.8554710035220978
 20
274.1562072571279032
 42
-0.031012
 10
631.7769140035221653
 20
270.499636257127861
 42
-0.013563
 10
627.5437390035219778
 20
267.3362012571277546
 42
-0.121881
 10
625.4022080035219915
 20
266.5004562571277802
 42
-0.5407650000000001
 10
624.7623600035221898
 20
267.2465932571278699
 42
-0.061282
 10
625.8245960035221742
 20
269.7243942571279831
 42
0.048206
 10
627.5893200035220616
 20
273.5614062571278851
 42
0.060064
 10
628.4250150035220486
 20
277.3928482571276959
 42
0.056911
 10
628.3477050035221509
 20
281.4758302571278819
 42
0.037587
 10
627.3785690035219886
 20
286.0729492571277888
 42
0.033648
 10
626.1149900035221663
 20
289.5325962571279206
 42
0.055107
 10
624.5459010035219762
 20
292.2256802571278058
 42
0.036801
 10
622.0070780035221105
 20
295.1721042571277849
 42
0.007755
 10
617.1286000035222514
 20
299.9072722571279428
 42
-0.002724
 10
602.5971290035220136
 20
313.7306512571277608
 42
-0.015805
 10
595.205959003522139
 20
321.3026902571278924
 42
-0.03012
 10
590.7703880035219299
 20
326.7711772571277038
 42
-0.045926
 10
587.6853870035222371
 20
332.0428052571278386
 42
-0.016345
 10
586.03199500352207
 20
335.8995792571278116
 42
-0.038145
 10
585.1161430035219837
 20
338.9021542571277337
 42
-0.038327
 10
584.6694530035219941
 20
342.0004012571278054
 42
-0.016645
 10
584.5308630035220858
 20
346.1624652571280194
 42
-0.012947
 10
584.605999003522129
 20
349.0636832571279342
 42
-0.017528
 10
584.833429003522042
 20
351.6761652571277637
 42
-0.014582
 10
585.156700003522019
 20
353.8000132571277732
 42
-0.152461
 10
585.5608770035222506
 20
354.5710752571280295
 42
-0.280321
 10
586.3861030035219528
 20
354.7719592571277758
 42
-0.044175
 10
587.9950820035221568
 20
354.0990382571278587
 42
-0.030645
 10
590.2630300035220898
 20
352.7219752571278377
 42
-0.010237
 10
593.4062500035221319
 20
350.4425632571278584
 42
0.024123
 10
597.0542410035220655
 20
347.9486312571278859
 42
0.007479
 10
602.7683870035220934
 20
344.5507502571279019
 42
0.007459
 10
609.2784210035221122
 20
340.9383452571278781
 42
0.008144
 10
615.7068520035220445
 20
337.6292152571278393
 42
-0.013736
 10
626.6989630035220671
 20
331.8144742571278698
 42
-0.03696
 10
634.0517450035218872
 20
326.9134072571276874
 42
-0.050701
 10
639.1413560035221053
 20
322.0455572571278253
 42
-0.058719
 10
642.8652400035221035
 20
316.472348257127976
 42
-0.057653
 10
645.2869890035221943
 20
309.9707802571280126
 42
-0.053366
 10
646.2436800035220585
 20
302.9144162571278684
 42
-0.0499
 10
645.7036350035219812
 20
295.3838342571277735
 42
-0.039564
  0
LWPOLYLINE
  5
5C
100
AcDbEntity
  8
0
 62
256
370
-1
 48
1.0
  6
BYLAYER
100
AcDbPolyline
 90
44
 70
1
 10
634.090508003522018
 20
209.2531062571276834
 42
-0.030468
 10
633.0005920035221152
 20
207.1461622571277985
 42
-0.015196
 10
631.3826330035219598
 20
204.6146632571277451
 42
-0.015026
 10
629.5423140035220513
 20
202.086021257127868
 42
-0.021386
 10
627.7482540035221064
 20
199.9644382571278811
 42
-0.055749
 10
622.1110430035218997
 20
195.0728142571276749
 42
-0.056693
 10
615.562964003522211
 20
191.5796702571279866
 42
-0.043384
 10
606.9878420035220188
 20
189.02000425712788
 42
-0.017221
 10
594.8641960035220109
 20
186.9522712571279044
 42
0.010783
 10
589.8916510035221563
 20
186.1699112571279215
 42
0.008098
 10
584.4555730035219767
 20
185.1029102571278599
 42
0.008195
 10
579.3715650035221643
 20
183.9318062571277892
 42
0.018576
 10
575.5795240035220104
 20
182.8416462571277634
 42
-0.018896
 10
569.4474020035220292
 20
181.0830002571278499
 42
-0.166944
 10
566.6821300035220474
 20
181.3306782571278291
 42
-0.248745
 10
565.2577010035220155
 20
183.1545762571279852
 42
-0.043888
 10
564.8641960035220109
 20
187.6289572571278654
 42
-0.043353
 10
565.2618290035220525
 20
192.2063212571279109
 42
-0.066036
 10
566.4589330035221337
 20
196.0063502571280196
 42
-0.062717
 10
568.6596090035220641
 20
199.4983462571277641
 42
-0.035034
 10
572.1171620035220258
 20
203.1533532571276623
 42
-0.030656
 10
576.5971960035220718
 20
206.7896872571278664
 42
-0.04249
 10
581.0436280035221444
 20
209.4284682571278609
 42
-0.032526
 10
586.7050290035219859
 20
211.7268102571279087
 42
-0.010479
 10
595.3641960035220109
 20
214.4021162571278865
 42
0.012859
 10
604.8064380035218619
 20
217.3686622571277667
 42
0.032046
 10
611.4846340035219328
 20
220.1466102571276906
 42
0.042491
 10
616.5122820035221594
 20
223.1822412571278846
 42
0.049529
 10
620.67979000352193
 20
226.8901632571277105
 42
0.05955
 10
624.344739003522136
 20
231.9618382571279653
 42
0.075428
 10
626.3588080035219718
 20
237.3745712571277409
 42
0.073018
 10
626.7128640035220997
 20
243.2805972571278517
 42
0.051654
 10
625.4620640035221868
 20
249.8154632571280445
 42
-0.006475
 10
624.4506420035220344
 20
253.3409602571277901
 42
-0.209568
 10
624.5780510035219777
 20
254.2030842571278413
 42
-0.488729
 10
625.1288950035220751
 20
254.2593202571278539
 42
-0.013698
 10
626.9719370035221573
 20
252.2243942571279831
 42
-0.030871
 10
629.5528450035219521
 20
248.8070222571277554
 42
-0.024534
 10
631.9150360035221183
 20
244.830853257127842
 42
-0.024371
 10
633.8940310035220591
 20
240.6082702571277991
 42
-0.029045
 10
635.32509300352217
 20
236.4501502571279161
 42
-0.050726
 10
636.4257570035219942
 20
230.115043257127752
 42
-0.029013
 10
636.524025003521956
 20
222.3457192571277687
 42
-0.02906
 10
635.7408530035220338
 20
214.8033562571278594
 42
-0.063812
  0
LWPOLYLINE
  5
5D
100
AcDbEntity
  8
0
 62
256
370
-1
 48
1.0
  6
BYLAYER
100
AcDbPolyline
 90
58
 70
1
 10
618.9251040035220512
 20
269.3000082571277858
 42
-0.043493
 10
615.8401830035220428
 20
266.7096942571276941
 42
-0.151208
 10
613.3905090035220837
 20
265.9212362571279868
 42
-0.050012
 10
609.6775990035220048
 20
266.2514082571278209
 42
-0.001721
 10
595.3641960035221246
 20
269.0349742571277716
 42
-0.008058
 10
589.6536480035222212
 20
270.2618972571279414
 42
-0.003728
 10
582.2693040035221657
 20
272.0314932571279769
 42
-0.003691
 10
574.5351020035220699
 20
274.0067162571278914
 42
-0.005123
 10
567.6369060035219718
 20
275.898567257127695
 42
0.011519
 10
555.6640180035219601
 20
279.0180822571277304
 42
0.013268
 10
544.1096880035220238
 20
281.4242102571277542
 42
0.014375
 10
533.7915540035221511
 20
282.9839252571279076
 42
0.030329
 10
525.7131060035219434
 20
283.4743942571277557
 42
-0.079643
 10
520.265801003522256
 20
284.347617257127979
 42
-0.04763
 10
514.2449620035221187
 20
286.9866112571278904
 42
-0.039131
 10
507.6721950035220061
 20
291.3542002571276726
 42
-0.023232
 10
500.5426590035222034
 20
297.4968422571280371
 10
493.647561003522128
 20
304.0192902571279205
 10
494.9141660035220411
 20
308.2468422571276392
 42
-0.005257
 10
495.4183840035219646
 20
309.867598257127554
 42
-0.00853
 10
495.884669003522049
 20
311.2325512571278523
 42
-0.003012
 10
496.3075810035221593
 20
312.3830172571280741
 42
-0.312765
 10
496.4393700035220718
 20
312.4743942571278126
 42
-0.198247
 10
496.6141210035223139
 20
312.402272257128061
 42
-0.000564
 10
498.4291450035220805
 20
310.5924462571280174
 42
-0.00318
 10
500.4727820035222976
 20
308.5239182571281162
 42
-0.001966
 10
502.8499320035219853
 20
306.0677642571277488
 42
0.019556
 10
507.8325890035221164
 20
301.2693272571281113
 42
0.01435
 10
513.7072890035221917
 20
296.3335752571279613
 42
0.012935
 10
519.2823360035220048
 20
292.1462572571277292
 42
0.066099
 10
522.7000820035220841
 20
290.3394002571276928
 42
0.122226
 10
523.7541790035221538
 20
290.2218412571280055
 42
0.047054
 10
525.1994530035219668
 20
290.5544812571277475
 42
0.037662
 10
526.9449250035220302
 20
291.2833072571278876
 42
0.021261
 10
528.9441520035220492
 20
292.410402257127771
 42
-0.034527
 10
534.7469310035221497
 20
295.4820102571277971
 42
-0.043882
 10
540.4776590035221489
 20
297.4455892571277786
 42
-0.039725
 10
546.9026510035222373
 20
298.5021542571280406
 42
-0.021885
 10
554.8641960035220109
 20
298.8193212571279105
 42
-0.018615
 10
562.7465680035221567
 20
298.4946072571279956
 42
-0.027929
 10
569.5685510035220886
 20
297.5732762571278727
 42
-0.018019
 10
578.109575003521968
 20
295.6083802571276351
 42
-0.003598
 10
593.1918340035219899
 20
291.444793257127742
 42
0.004847
 10
599.1312140035221319
 20
289.8211392571278679
 42
0.004483
 10
605.2573150035220806
 20
288.2686972571277124
 42
0.004477
 10
610.7363530035221402
 20
286.984257257127922
 42
0.014921
 10
614.3641960035221246
 20
286.2809912571278801
 42
-0.012443
 10
617.0990130035220318
 20
285.7648842571278465
 42
-0.017146
 10
619.5237600035221703
 20
285.1568482571279901
 42
-0.013831
 10
621.473335003522152
 20
284.5374042571278892
 42
-0.161185
 10
622.0988830035221326
 20
284.0569782571279802
 42
-0.102643
 10
622.3861160035221474
 20
283.3615292571279269
 42
-0.015432
 10
622.62225400352213
 20
281.862532257127782
 42
-0.016778
 10
622.7891900035219805
 20
280.0497942571278145
 42
-0.013784
 10
622.8488830035221326
 20
278.106747257127779
 42
-0.026284
 10
622.7081980035220568
 20
275.2618012571278427
 42
-0.07946
 10
622.209879003522019
 20
273.3927432571277905
 42
-0.072383
 10
621.1258060035220296
 20
271.677584257127819
 42
-0.019309
  0
LWPOLYLINE
  5
5E
100
AcDbEntity
  8
0
 62
256
370
-1
 48
1.0
  6
BYLAYER
100
AcDbPolyline
 90
52
 70
1
 10
617.5314660035220413
 20
232.1048092571277266
 42
-0.079206
 10
612.7429880035221004
 20
227.5434522571279103
 42
-0.101286
 10
607.1475320035220875
 20
225.1701702571279498
 42
-0.067811
 10
599.4066160035220037
 20
224.6752642571277647
 42
-0.018962
 10
587.320183003522061
 20
226.0038992571277845
 42
-0.039217
 10
564.6875280035221749
 20
231.2030702571280472
 42
-0.060912
 10
546.467514003522183
 20
239.4682462571279871
 42
-0.069184
 10
532.4617830035219868
 20
250.9266052571279033
 42
-0.07239
 10
522.3641960035221246
 20
265.6095762571281398
 10
518.3641960035220109
 20
273.7258612571275194
 10
510.8641960035220109
 20
276.3979562571278734
 42
-0.015423
 10
503.846434003522063
 20
279.1449522571278976
 42
-0.015157
 10
496.9699040035220605
 20
282.3341552571279749
 42
-0.015892
 10
490.7139070035220811
 20
285.722217257127852
 42
-0.024914
 10
485.5909740035222057
 20
289.0636012571279707
 42
-0.031037
 10
482.7302280035220292
 20
291.4238192571275476
 42
-0.084045
 10
481.1407680035219983
 20
293.5093492571278375
 42
-0.248457
 10
481.1454130035220942
 20
294.8273072571277567
 42
-0.276817
 10
482.2246490035220177
 20
295.47439425712804
 42
0.098129
 10
482.9716670035220432
 20
295.622428257127865
 42
0.017428
 10
484.2762320035220682
 20
296.2146052571278574
 42
0.01826
 10
485.7769450035220871
 20
297.0295512571279914
 42
0.015559
 10
487.2983360035220812
 20
297.9942632571279546
 10
491.011570003522138
 20
300.5141312571279286
 10
497.1878830035221881
 20
295.0925292571280352
 42
0.015511
 10
500.1006670035220623
 20
292.6914592571278604
 42
0.008656
 10
503.7844580035219906
 20
289.9426202571276576
 42
0.008629
 10
507.6096370035220389
 20
287.2890412571275647
 42
0.013843
 10
510.9711870035221182
 20
285.1742372571281408
 42
0.013901
 10
515.8302130035219761
 20
282.4813202571279476
 42
0.049189
 10
519.1382420035220093
 20
281.1601662571278553
 42
0.040406
 10
522.9519980035220215
 20
280.3834902571280168
 42
0.007248
 10
530.1735710035220563
 20
279.6177472571276326
 42
-0.010891
 10
538.1980260035220454
 20
278.7077012571277805
 42
-0.020933
 10
544.570094003522172
 20
277.5707572571280366
 42
-0.017001
 10
551.6267330035220766
 20
275.7506572571277843
 42
-0.004948
 10
562.3641960035220109
 20
272.4724182571277424
 42
0.004333
 10
573.9363140035219431
 20
268.9237682571299501
 42
0.007413
 10
583.6602530035220298
 20
266.1900322571278821
 42
0.008356
 10
592.570202003522013
 20
263.9857812571278828
 42
0.008172
 10
601.6153520035220481
 20
262.0629112571278938
 42
-0.003464
 10
606.320546003522054
 20
261.1088622571278393
 42
-0.005005
 10
610.4650870035220578
 20
260.1951512571279181
 42
-0.002689
 10
613.9524900035220298
 20
259.3698452571276789
 42
-0.079119
 10
614.7911330035220772
 20
259.0195502571278894
 42
-0.094516
 10
615.3569270035220597
 20
258.5008012571278186
 42
-0.012387
 10
616.3034510035222411
 20
257.162282257127913
 42
-0.014036
 10
617.3530050035221848
 20
255.4980712571280037
 42
-0.011331
 10
618.3882640035220675
 20
253.6556222571279022
 42
-0.0717
 10
620.3092450035220509
 20
248.3288522571277781
 42
-0.060748
 10
620.7975040035221355
 20
242.3593272571279158
 42
-0.062728
 10
619.8470820035220186
 20
236.6525712571276472
 42
-0.090567
  0
LWPOLYLINE
  5
5F
100
AcDbEntity
  8
0
 62
256
370
-1
 48
1.0
  6
BYLAYER
100
AcDbPolyline
 90
36
 70
1
 10
614.6141960035220109
 20
292.4916862571277534
 42
-0.05766
 10
613.0825430035221189
 20
292.6904102571278372
 42
-0.000856
 10
604.2769980035222943
 20
294.9006722571279511
 42
-0.002104
 10
593.3744420035220628
 20
297.7060002571278687
 42
-0.001001
 10
579.3641960035220109
 20
301.4038722571278868
 42
-0.007313
 10
572.0306670035221259
 20
303.4705132571278909
 42
-0.038403
 10
568.1234630035221471
 20
304.9683712571280125
 42
-0.061629
 10
565.3926730035220771
 20
306.7031542571277782
 42
-0.040325
 10
562.7107070035220886
 20
309.3019902571278408
 42
-0.043609
 10
559.2684350035220859
 20
313.9898862571278073
 42
-0.044414
 10
556.7155060035220231
 20
319.176001257127723
 42
-0.04498
 10
555.1439050035221499
 20
324.6668162571277776
 42
-0.047253
 10
554.6141960035221246
 20
330.2593202571279107
 42
-0.011846
 10
554.6945680035219084
 20
333.6511962571275944
 42
-0.044765
 10
554.9840340035220834
 20
335.7531532571277353
 42
-0.074748
 10
555.5346450035222006
 20
337.1497582571278144
 42
-0.10404
 10
556.4303260035221683
 20
338.1464082571278595
 42
-0.125771
 10
558.9200660035221517
 20
339.1441472571279405
 42
-0.149729
 10
561.4061100035221443
 20
338.7267802571279276
 42
-0.068848
 10
564.6073950035222424
 20
336.5316632571280024
 42
-0.01121
 10
570.0745070035220579
 20
331.3254132571278205
 42
0.014128
 10
573.7938880035219427
 20
327.8246482571277056
 42
0.009554
 10
578.2188080035220992
 20
324.0384452571278189
 42
0.009631
 10
582.639371003522001
 20
320.5405542571277806
 42
0.018892
 10
586.3103040035221056
 20
317.9619612571278822
 42
-0.012763
 10
589.9270930035222591
 20
315.4870302571279694
 42
-0.007336
 10
594.162868003522135
 20
312.3313242571278465
 42
-0.007326
 10
598.3281360035221041
 20
309.0339162571278848
 42
-0.012127
 10
601.7327160035221141
 20
306.1162842571278588
 42
0.001772
 10
604.8001150035222508
 20
303.3754312571279002
 42
0.00171
 10
607.9232930035220761
 20
300.6236142571279402
 42
0.001689
 10
610.6903530035219774
 20
298.2187932571277429
 42
0.006258
 10
612.4597400035220289
 20
296.7297372571279084
 42
-0.015899
 10
614.6872120035220632
 20
294.7805932571277481
 42
-0.087681
 10
615.6424170035220413
 20
293.5115602571278828
 42
-0.347073
 10
615.5020530035219508
 20
292.8112682571277787
 42
-0.18163
  0
LWPOLYLINE
  5
60
100
AcDbEntity
  8
0
 62
256
370
-1
 48
1.0
  6
BYLAYER
100
AcDbPolyline
 90
30
 70
1
 10
574.4259990035220653
 20
212.6433602571277106
 42
-0.03801
 10
572.3921290035220864
 20
211.6431142571279338
 42
-0.039242
 10
570.2516070035220537
 20
210.9747892571279522
 42
-0.034965
 10
567.8241940035220523
 20
210.5972622571280226
 42
-0.021101
 10
564.9140000035220055
 20
210.4743942571278694
 42
0.019788
 10
562.1412680035221001
 20
210.3646192571280267
 42
0.009282
 10
558.568092003521997
 20
210.0143952571278305
 42
0.009181
 10
554.8315460035220212
 20
209.5082972571277651
 42
0.012736
 10
551.5059690035220683
 20
208.9084392571280659
 42
-0.024168
 10
542.8109860035222027
 20
207.5444412571280282
 42
-0.130738
 10
538.1291710035220603
 20
208.2650752571277053
 42
-0.297371
 10
536.475225003522155
 20
210.7896202571279503
 42
-0.115024
 10
537.4617930035220752
 20
215.0580292571278278
 42
-0.072405
 10
539.6808990035219722
 20
218.2965232571277738
 42
-0.047489
 10
543.0548800035221575
 20
221.3195442571277454
 42
-0.044815
 10
547.1906780035220663
 20
223.8331602571278722
 42
-0.045423
 10
551.6898940035221131
 20
225.5563272571279185
 42
-0.025151
 10
554.0686510035218362
 20
226.0999752571276531
 42
-0.043577
 10
556.087068003522063
 20
226.276620257127945
 42
-0.042083
 10
558.1532810035221246
 20
226.1028152571279293
 42
-0.021751
 10
560.6898940035221131
 20
225.5580892571279037
 42
0.005802
 10
563.255014003522092
 20
224.9210442571278463
 42
0.001359
 10
567.5669960035220356
 20
223.9155062571277313
 42
0.0014
 10
572.5340710035220582
 20
222.7860672571278542
 42
0.001375
 10
577.5373930035220837
 20
221.6775622571278461
 10
589.7105890035220455
 20
219.0156502571279589
 10
583.906356003521978
 20
216.9139882571279259
 42
0.010768
 10
581.4150280035220248
 20
215.9507282571278779
 42
0.008193
 10
578.727255003522032
 20
214.7925562571277851
 42
0.008294
 10
576.2419250035220557
 20
213.6230192571279645
 42
0.019159
  0
ENDSEC
  0
SECTION
  2
OBJECTS
  0
DICTIONARY
  5
C
100
AcDbDictionary
280
0
281
1
  3
ACAD_GROUP
350
D
  3
ACAD_LAYOUT
350
1A
  3
ACAD_MLINESTYLE
350
17
  3
ACAD_PLOTSETTINGS
350
19
  3
ACAD_PLOTSTYLENAME
350
E
  3
AcDbVariableDictionary
350
61
  3
QCAD_OBJECTS
350
62
  0
DICTIONARY
  5
D
100
AcDbDictionary
280
0
281
1
  0
ACDBDICTIONARYWDFLT
  5
E
100
AcDbDictionary
281
1
  3
Normal
350
F
100
AcDbDictionaryWithDefault
340
F
  0
ACDBPLACEHOLDER
  5
F
  0
DICTIONARY
  5
17
100
AcDbDictionary
280
0
281
1
  3
Standard
350
18
  0
MLINESTYLE
  5
18
100
AcDbMlineStyle
  2
STANDARD
 70
0
  3

 62
256
 51
90.0
 52
90.0
 71
2
 49
0.5
 62
256
  6
BYLAYER
 49
-0.5
 62
256
  6
BYLAYER
  0
DICTIONARY
  5
19
100
AcDbDictionary
280
0
281
1
  0
DICTIONARY
  5
1A
100
AcDbDictionary
281
1
  3
Layout1
350
1E
  3
Layout2
350
26
  3
Model
350
22
  0
LAYOUT
  5
1E
100
AcDbPlotSettings
  1

  2
none_device
  4

  6

 40
0.0
 41
0.0
 42
0.0
 43
0.0
 44
0.0
 45
0.0
 46
0.0
 47
0.0
 48
0.0
 49
0.0
140
0.0
141
0.0
142
1.0
143
1.0
 70
688
 72
0
 73
0
 74
5
  7

 75
16
147
1.0
148
0.0
149
0.0
100
AcDbLayout
  1
Layout1
 70
1
 71
1
 10
0.0
 20
0.0
 11
420.0
 21
297.0
 12
0.0
 22
0.0
 32
0.0
 14
100000000000000000000.0
 24
100000000000000000000.0
 34
100000000000000000000.0
 15
-100000000000000000000.0
 25
-100000000000000000000.0
 35
-100000000000000000000.0
146
0.0
 13
0.0
 23
0.0
 33
0.0
 16
1.0
 26
0.0
 36
0.0
 17
0.0
 27
1.0
 37
0.0
 76
0
330
1B
  0
LAYOUT
  5
22
100
AcDbPlotSettings
  1

  2
none_device
  4

  6

 40
0.0
 41
0.0
 42
0.0
 43
0.0
 44
0.0
 45
0.0
 46
0.0
 47
0.0
 48
0.0
 49
0.0
140
0.0
141
0.0
142
1.0
143
1.0
 70
1712
 72
0
 73
0
 74
0
  7

 75
0
147
1.0
148
0.0
149
0.0
100
AcDbLayout
  1
Model
 70
1
 71
0
 10
0.0
 20
0.0
 11
12.0
 21
9.0
 12
0.0
 22
0.0
 32
0.0
 14
0.0
 24
0.0
 34
0.0
 15
0.0
 25
0.0
 35
0.0
146
0.0
 13
0.0
 23
0.0
 33
0.0
 16
1.0
 26
0.0
 36
0.0
 17
0.0
 27
1.0
 37
0.0
 76
0
330
1F
  0
LAYOUT
  5
26
100
AcDbPlotSettings
  1

  2
none_device
  4

  6

 40
0.0
 41
0.0
 42
0.0
 43
0.0
 44
0.0
 45
0.0
 46
0.0
 47
0.0
 48
0.0
 49
0.0
140
0.0
141
0.0
142
1.0
143
1.0
 70
688
 72
0
 73
0
 74
5
  7

 75
16
147
1.0
148
0.0
149
0.0
100
AcDbLayout
  1
Layout2
 70
1
 71
2
 10
0.0
 20
0.0
 11
12.0
 21
9.0
 12
0.0
 22
0.0
 32
0.0
 14
0.0
 24
0.0
 34
0.0
 15
0.0
 25
0.0
 35
0.0
146
0.0
 13
0.0
 23
0.0
 33
0.0
 16
1.0
 26
0.0
 36
0.0
 17
0.0
 27
1.0
 37
0.0
 76
0
330
23
  0
DICTIONARY
  5
61
100
AcDbDictionary
281
1
  3
DIMASSOC
350
64
  3
HIDETEXT
350
63
  0
DICTIONARYVAR
  5
63
100
DictionaryVariables
280
0
  1
2
  0
DICTIONARYVAR
  5
64
100
DictionaryVariables
280
0
  1
1
  0
DICTIONARY
  5
62
100
AcDbDictionary
281
1
  3
ColorSettings/BackgroundColor
350
65
  3
ColorSettings/ColorMode
350
66
  3
Grid/DisplayGrid00
350
67
  3
Grid/DisplayGrid01
350
68
  3
Grid/DisplayGrid02
350
69
  3
Grid/DisplayGrid03
350
6A
  3
Grid/GridSpacingX00
350
6B
  3
Grid/GridSpacingX01
350
6C
  3
Grid/GridSpacingX02
350
6D
  3
Grid/GridSpacingX03
350
6E
  3
Grid/GridSpacingY00
350
6F
  3
Grid/GridSpacingY01
350
70
  3
Grid/GridSpacingY02
350
71
  3
Grid/GridSpacingY03
350
72
  3
Grid/IsometricGrid00
350
73
  3
Grid/IsometricGrid01
350
74
  3
Grid/IsometricGrid02
350
75
  3
Grid/IsometricGrid03
350
76
  3
Grid/IsometricProjection00
350
77
  3
Grid/IsometricProjection01
350
78
  3
Grid/IsometricProjection02
350
79
  3
Grid/IsometricProjection03
350
7A
  3
Grid/MetaGridSpacingX00
350
7B
  3
Grid/MetaGridSpacingX01
350
7C
  3
Grid/MetaGridSpacingX02
350
7D
  3
Grid/MetaGridSpacingX03
350
7E
  3
Grid/MetaGridSpacingY00
350
7F
  3
Grid/MetaGridSpacingY01
350
80
  3
Grid/MetaGridSpacingY02
350
81
  3
Grid/MetaGridSpacingY03
350
82
  3
MultiPageSettings/Columns
350
83
  3
MultiPageSettings/GlueMarginsBottom
350
84
  3
MultiPageSettings/GlueMarginsLeft
350
85
  3
MultiPageSettings/GlueMarginsRight
350
86
  3
MultiPageSettings/GlueMarginsTop
350
87
  3
MultiPageSettings/PrintCropMarks
350
88
  3
MultiPageSettings/Rows
350
89
  3
PageSettings/OffsetX
350
8A
  3
PageSettings/OffsetY
350
8B
  3
PageSettings/PageOrientation
350
8C
  3
PageSettings/PaperHeight
350
8D
  3
PageSettings/PaperWidth
350
8E
  3
PageSettings/Scale
350
8F
  3
PageSettings/ShowPaperBorders
350
90
  3
PageTagSettings/EnablePageTags
350
91
  3
PageTagSettings/TagAlignment
350
92
  3
PageTagSettings/TagFont
350
93
  3
PageTagSettings/TagPosition
350
94
  3
QCADVersion
350
95
  3
UnitSettings/PaperUnit
350
96
  3
ViewportCenter
350
97
  3
ViewportHeight
350
98
  3
ViewportWidth
350
99
  0
XRECORD
  5
65
330
62
100
AcDbXrecord
280
1
1000
Wit
  0
XRECORD
  5
66
330
62
100
AcDbXrecord
280
1
1000
FullColor
  0
XRECORD
  5
67
330
62
100
AcDbXrecord
280
1
290
1
  0
XRECORD
  5
68
330
62
100
AcDbXrecord
280
1
290
1
  0
XRECORD
  5
69
330
62
100
AcDbXrecord
280
1
290
1
  0
XRECORD
  5
6A
330
62
100
AcDbXrecord
280
1
290
1
  0
XRECORD
  5
6B
330
62
100
AcDbXrecord
280
1
1000
auto
  0
XRECORD
  5
6C
330
62
100
AcDbXrecord
280
1
1000
auto
  0
XRECORD
  5
6D
330
62
100
AcDbXrecord
280
1
1000
auto
  0
XRECORD
  5
6E
330
62
100
AcDbXrecord
280
1
1000
auto
  0
XRECORD
  5
6F
330
62
100
AcDbXrecord
280
1
1000
auto
  0
XRECORD
  5
70
330
62
100
AcDbXrecord
280
1
1000
auto
  0
XRECORD
  5
71
330
62
100
AcDbXrecord
280
1
1000
auto
  0
XRECORD
  5
72
330
62
100
AcDbXrecord
280
1
1000
auto
  0
XRECORD
  5
73
330
62
100
AcDbXrecord
280
1
290
0
  0
XRECORD
  5
74
330
62
100
AcDbXrecord
280
1
290
0
  0
XRECORD
  5
75
330
62
100
AcDbXrecord
280
1
290
0
  0
XRECORD
  5
76
330
62
100
AcDbXrecord
280
1
290
0
  0
XRECORD
  5
77
330
62
100
AcDbXrecord
280
1
 90
65537
  0
XRECORD
  5
78
330
62
100
AcDbXrecord
280
1
 90
65537
  0
XRECORD
  5
79
330
62
100
AcDbXrecord
280
1
 90
65537
  0
XRECORD
  5
7A
330
62
100
AcDbXrecord
280
1
 90
65537
  0
XRECORD
  5
7B
330
62
100
AcDbXrecord
280
1
1000
auto
  0
XRECORD
  5
7C
330
62
100
AcDbXrecord
280
1
1000
auto
  0
XRECORD
  5
7D
330
62
100
AcDbXrecord
280
1
1000
auto
  0
XRECORD
  5
7E
330
62
100
AcDbXrecord
280
1
1000
auto
  0
XRECORD
  5
7F
330
62
100
AcDbXrecord
280
1
1000
auto
  0
XRECORD
  5
80
330
62
100
AcDbXrecord
280
1
1000
auto
  0
XRECORD
  5
81
330
62
100
AcDbXrecord
280
1
1000
auto
  0
XRECORD
  5
82
330
62
100
AcDbXrecord
280
1
1000
auto
  0
XRECORD
  5
83
330
62
100
AcDbXrecord
280
1
 90
1
  0
XRECORD
  5
84
330
62
100
AcDbXrecord
280
1
 40
10.0
  0
XRECORD
  5
85
330
62
100
AcDbXrecord
280
1
 40
10.0
  0
XRECORD
  5
86
330
62
100
AcDbXrecord
280
1
 40
10.0
  0
XRECORD
  5
87
330
62
100
AcDbXrecord
280
1
 40
10.0
  0
XRECORD
  5
88
330
62
100
AcDbXrecord
280
1
290
0
  0
XRECORD
  5
89
330
62
100
AcDbXrecord
280
1
 90
1
  0
XRECORD
  5
8A
330
62
100
AcDbXrecord
280
1
 40
0.0
  0
XRECORD
  5
8B
330
62
100
AcDbXrecord
280
1
 40
0.0
  0
XRECORD
  5
8C
330
62
100
AcDbXrecord
280
1
1000
Portrait
  0
XRECORD
  5
8D
330
62
100
AcDbXrecord
280
1
 40
297.0
  0
XRECORD
  5
8E
330
62
100
AcDbXrecord
280
1
 40
210.0
  0
XRECORD
  5
8F
330
62
100
AcDbXrecord
280
1
1000
1:1
  0
XRECORD
  5
90
330
62
100
AcDbXrecord
280
1
290
1
  0
XRECORD
  5
91
330
62
100
AcDbXrecord
280
1
290
0
  0
XRECORD
  5
92
330
62
100
AcDbXrecord
280
1
1000
Inside
  0
XRECORD
  5
93
330
62
100
AcDbXrecord
280
1
1000
Arial,10,-1,5,50,0,0,0,0,0
  0
XRECORD
  5
94
330
62
100
AcDbXrecord
280
1
1000
TopLeft
  0
XRECORD
  5
95
330
62
100
AcDbXrecord
280
1
1000
3.27.1
  0
XRECORD
  5
96
330
62
100
AcDbXrecord
280
1
 90
4
  0
XRECORD
  5
98
330
62
100
AcDbXrecord
280
1
 40
362.6267167301830341
  0
XRECORD
  5
99
330
62
100
AcDbXrecord
280
1
 40
681.7752301789411149
  0
ENDSEC
  0
EOF
