999
dxflib 3.26.4.0
  0
SECTION
  2
HEADER
  9
$ACADVER
  1
AC1015
  9
$HANDSEED
  5
FFFF
  9
$DIMADEC
 70
0
  9
$DIMASZ
 40
2.5
  9
$DIMATFIT
 70
0
  9
$DIMAUNIT
 70
0
  9
$DIMAZIN
 70
2
  9
$DIMBLK
  1

  9
$DIMDEC
 70
4
  9
$DIMDLI
 40
5.0
  9
$DIMDSEP
 70
46
  9
$DIMEXE
 40
1.25
  9
$DIMEXO
 40
0.625
  9
$DIMGAP
 40
0.625
  9
$DIMLFAC
 40
1.0
  9
$DIMLUNIT
 70
2
  9
$DIMSCALE
 40
1.0
  9
$DIMTAD
 70
1
  9
$DIMTIH
 70
0
  9
$DIMTSZ
 40
0.0
  9
$DIMTXT
 40
2.5
  9
$DIMZIN
 70
8
  9
$DWGCODEPAGE
  3
ANSI_1252
  9
$INSUNITS
 70
4
  9
$LTSCALE
 40
1.0
  9
$MAXACTVP
 70
64
  9
$MEASUREMENT
 70
1
  9
$MIRRTEXT
 70
0
  9
$PDMODE
 70
0
  9
$PDSIZE
 40
0.0
  0
ENDSEC
  0
SECTION
  2
TABLES
  0
TABLE
  2
VPORT
  5
8
100
AcDbSymbolTable
 70
1
  0
VPORT
  5
30
100
AcDbSymbolTableRecord
100
AcDbViewportTableRecord
  2
*Active
 70
0
 10
0.0
 20
0.0
 11
1.0
 21
1.0
 12
286.3055555555554861
 22
148.5
 13
0.0
 23
0.0
 14
10.0
 24
10.0
 15
10.0
 25
10.0
 16
0.0
 26
0.0
 36
1.0
 17
0.0
 27
0.0
 37
0.0
 40
297.0
 41
1.92798353909465
 42
50.0
 43
0.0
 44
0.0
 50
0.0
 51
0.0
 71
0
 72
100
 73
1
 74
3
 75
1
 76
1
 77
0
 78
0
281
0
 65
1
110
0.0
120
0.0
130
0.0
111
1.0
121
0.0
131
0.0
112
0.0
122
1.0
132
0.0
 79
0
146
0.0
  0
ENDTAB
  0
TABLE
  2
LTYPE
  5
5
100
AcDbSymbolTable
 70
41
  0
LTYPE
  5
16
100
AcDbSymbolTableRecord
100
AcDbLinetypeTableRecord
  2
Continuous
 70
0
  3
Solid line
 72
65
 73
0
 40
0.0
  0
LTYPE
  5
31
100
AcDbSymbolTableRecord
100
AcDbLinetypeTableRecord
  2
CENTER2
 70
0
  3
Center (.5x) ___ _ ___ _ ___ _ ___ _ ___ _ ___
 72
65
 73
4
 40
28.5750000000000028
 49
19.0500000000000007
 74
0
 49
-3.1749999999999998
 74
0
 49
3.1749999999999998
 74
0
 49
-3.1749999999999998
 74
0
  0
LTYPE
  5
32
100
AcDbSymbolTableRecord
100
AcDbLinetypeTableRecord
  2
ACAD_ISO04W100
 70
0
  3
ISO long-dash dot ____ . ____ . ____ . ____ . _
 72
65
 73
4
 40
30.0
 49
24.0
 74
0
 49
-3.0
 74
0
 49
0.0
 74
0
 49
-3.0
 74
0
  0
LTYPE
  5
33
100
AcDbSymbolTableRecord
100
AcDbLinetypeTableRecord
  2
ACAD_ISO12W100
 70
0
  3
ISO dash double-dot __ . . __ . . __ . . __ . . 
 72
65
 73
6
 40
21.0
 49
12.0
 74
0
 49
-3.0
 74
0
 49
0.0
 74
0
 49
-3.0
 74
0
 49
0.0
 74
0
 49
-3.0
 74
0
  0
LTYPE
  5
34
100
AcDbSymbolTableRecord
100
AcDbLinetypeTableRecord
  2
DASHDOT2
 70
0
  3
Dash dot (.5x) _._._._._._._._._._._._._._._.
 72
65
 73
4
 40
12.6999999999999993
 49
6.3499999999999996
 74
0
 49
-3.1749999999999998
 74
0
 49
0.0
 74
0
 49
-3.1749999999999998
 74
0
  0
LTYPE
  5
35
100
AcDbSymbolTableRecord
100
AcDbLinetypeTableRecord
  2
ACAD_ISO09W100
 70
0
  3
ISO long-dash double-short-dash ____ __ __ ____
 72
65
 73
6
 40
45.0
 49
24.0
 74
0
 49
-3.0
 74
0
 49
6.0
 74
0
 49
-3.0
 74
0
 49
6.0
 74
0
 49
-3.0
 74
0
  0
LTYPE
  5
36
100
AcDbSymbolTableRecord
100
AcDbLinetypeTableRecord
  2
DOT2
 70
0
  3
Dot (.5x) ........................................
 72
65
 73
2
 40
3.1749999999999998
 49
0.0
 74
0
 49
-3.1749999999999998
 74
0
  0
LTYPE
  5
37
100
AcDbSymbolTableRecord
100
AcDbLinetypeTableRecord
  2
DASHED2
 70
0
  3
Dashed (.5x) _ _ _ _ _ _ _ _ _ _ _ _ _ _ _ _ _ 
 72
65
 73
2
 40
9.5249999999999986
 49
6.3499999999999996
 74
0
 49
-3.1749999999999998
 74
0
  0
LTYPE
  5
38
100
AcDbSymbolTableRecord
100
AcDbLinetypeTableRecord
  2
ACAD_ISO03W100
 70
0
  3
ISO dash space __    __    __    __    __    __
 72
65
 73
2
 40
30.0
 49
12.0
 74
0
 49
-18.0
 74
0
  0
LTYPE
  5
39
100
AcDbSymbolTableRecord
100
AcDbLinetypeTableRecord
  2
BORDERX2
 70
0
  3
Border (2x) ____  ____  .  ____  ____  .  ___
 72
65
 73
6
 40
88.8999999999999915
 49
25.3999999999999986
 74
0
 49
-12.6999999999999993
 74
0
 49
25.3999999999999986
 74
0
 49
-12.6999999999999993
 74
0
 49
0.0
 74
0
 49
-12.6999999999999993
 74
0
  0
LTYPE
  5
3A
100
AcDbSymbolTableRecord
100
AcDbLinetypeTableRecord
  2
ACAD_ISO06W100
 70
0
  3
ISO long-dash triple-dot ____ ... ____ ... ____
 72
65
 73
8
 40
36.0
 49
24.0
 74
0
 49
-3.0
 74
0
 49
0.0
 74
0
 49
-3.0
 74
0
 49
0.0
 74
0
 49
-3.0
 74
0
 49
0.0
 74
0
 49
-3.0
 74
0
  0
LTYPE
  5
3B
100
AcDbSymbolTableRecord
100
AcDbLinetypeTableRecord
  2
ACAD_ISO08W100
 70
0
  3
ISO long-dash short-dash ____ __ ____ __ ____ _
 72
65
 73
4
 40
36.0
 49
24.0
 74
0
 49
-3.0
 74
0
 49
6.0
 74
0
 49
-3.0
 74
0
  0
LTYPE
  5
3C
100
AcDbSymbolTableRecord
100
AcDbLinetypeTableRecord
  2
DIVIDE2
 70
0
  3
Divide (.5x) __..__..__..__..__..__..__..__.._
 72
65
 73
6
 40
15.875
 49
6.3499999999999996
 74
0
 49
-3.1749999999999998
 74
0
 49
0.0
 74
0
 49
-3.1749999999999998
 74
0
 49
0.0
 74
0
 49
-3.1749999999999998
 74
0
  0
LTYPE
  5
3D
100
AcDbSymbolTableRecord
100
AcDbLinetypeTableRecord
  2
DIVIDE
 70
0
  3
Divide ____ . . ____ . . ____ . . ____ . . ____
 72
65
 73
6
 40
31.75
 49
12.6999999999999993
 74
0
 49
-6.3499999999999996
 74
0
 49
0.0
 74
0
 49
-6.3499999999999996
 74
0
 49
0.0
 74
0
 49
-6.3499999999999996
 74
0
  0
LTYPE
  5
3E
100
AcDbSymbolTableRecord
100
AcDbLinetypeTableRecord
  2
HIDDENX2
 70
0
  3
Hidden (2x) ____ ____ ____ ____ ____ ____ ____ 
 72
65
 73
2
 40
19.0499999999999972
 49
12.6999999999999993
 74
0
 49
-6.3499999999999996
 74
0
  0
LTYPE
  5
3F
100
AcDbSymbolTableRecord
100
AcDbLinetypeTableRecord
  2
ACAD_ISO14W100
 70
0
  3
ISO dash triple-dot __ . . . __ . . . __ . . . _
 72
65
 73
8
 40
24.0
 49
12.0
 74
0
 49
-3.0
 74
0
 49
0.0
 74
0
 49
-3.0
 74
0
 49
0.0
 74
0
 49
-3.0
 74
0
 49
0.0
 74
0
 49
-3.0
 74
0
  0
LTYPE
  5
40
100
AcDbSymbolTableRecord
100
AcDbLinetypeTableRecord
  2
DASHED
 70
0
  3
Dashed __ __ __ __ __ __ __ __ __ __ __ __ __ _
 72
65
 73
2
 40
19.0499999999999972
 49
12.6999999999999993
 74
0
 49
-6.3499999999999996
 74
0
  0
LTYPE
  5
41
100
AcDbSymbolTableRecord
100
AcDbLinetypeTableRecord
  2
PHANTOMX2
 70
0
  3
Phantom (2x) ____________    ____    ____   _
 72
65
 73
6
 40
127.0000000000000142
 49
63.5
 74
0
 49
-12.6999999999999993
 74
0
 49
12.6999999999999993
 74
0
 49
-12.6999999999999993
 74
0
 49
12.6999999999999993
 74
0
 49
-12.6999999999999993
 74
0
  0
LTYPE
  5
42
100
AcDbSymbolTableRecord
100
AcDbLinetypeTableRecord
  2
ACAD_ISO02W100
 70
0
  3
ISO dash __ __ __ __ __ __ __ __ __ __ __ __ __
 72
65
 73
2
 40
15.0
 49
12.0
 74
0
 49
-3.0
 74
0
  0
LTYPE
  5
43
100
AcDbSymbolTableRecord
100
AcDbLinetypeTableRecord
  2
ACAD_ISO15W100
 70
0
  3
ISO double-dash triple-dot __ __ . . . __ __ . .
 72
65
 73
10
 40
39.0
 49
12.0
 74
0
 49
-3.0
 74
0
 49
12.0
 74
0
 49
-3.0
 74
0
 49
0.0
 74
0
 49
-3.0
 74
0
 49
0.0
 74
0
 49
-3.0
 74
0
 49
0.0
 74
0
 49
-3.0
 74
0
  0
LTYPE
  5
15
100
AcDbSymbolTableRecord
100
AcDbLinetypeTableRecord
  2
BYLAYER
 70
0
  3

 72
65
 73
0
 40
0.0
  0
LTYPE
  5
44
100
AcDbSymbolTableRecord
100
AcDbLinetypeTableRecord
  2
PHANTOM2
 70
0
  3
Phantom (.5x) ___ _ _ ___ _ _ ___ _ _ ___ _ _
 72
65
 73
6
 40
31.7500000000000036
 49
15.875
 74
0
 49
-3.1749999999999998
 74
0
 49
3.1749999999999998
 74
0
 49
-3.1749999999999998
 74
0
 49
3.1749999999999998
 74
0
 49
-3.1749999999999998
 74
0
  0
LTYPE
  5
45
100
AcDbSymbolTableRecord
100
AcDbLinetypeTableRecord
  2
HIDDEN2
 70
0
  3
Hidden (.5x) _ _ _ _ _ _ _ _ _ _ _ _ _ _ _ _ _ 
 72
65
 73
2
 40
4.7624999999999993
 49
3.1749999999999998
 74
0
 49
-1.5874999999999999
 74
0
  0
LTYPE
  5
46
100
AcDbSymbolTableRecord
100
AcDbLinetypeTableRecord
  2
DOT
 70
0
  3
Dot . . . . . . . . . . . . . . . . . . . . . . . .
 72
65
 73
2
 40
6.3499999999999996
 49
0.0
 74
0
 49
-6.3499999999999996
 74
0
  0
LTYPE
  5
47
100
AcDbSymbolTableRecord
100
AcDbLinetypeTableRecord
  2
ACAD_ISO11W100
 70
0
  3
ISO double-dash dot __ __ . __ __ . __ __ . __ _
 72
65
 73
6
 40
33.0
 49
12.0
 74
0
 49
-3.0
 74
0
 49
12.0
 74
0
 49
-3.0
 74
0
 49
0.0
 74
0
 49
-3.0
 74
0
  0
LTYPE
  5
48
100
AcDbSymbolTableRecord
100
AcDbLinetypeTableRecord
  2
DASHDOT
 70
0
  3
Dash dot __ . __ . __ . __ . __ . __ . __ . __
 72
65
 73
4
 40
25.3999999999999986
 49
12.6999999999999993
 74
0
 49
-6.3499999999999996
 74
0
 49
0.0
 74
0
 49
-6.3499999999999996
 74
0
  0
LTYPE
  5
49
100
AcDbSymbolTableRecord
100
AcDbLinetypeTableRecord
  2
ACAD_ISO13W100
 70
0
  3
ISO double-dash double-dot __ __ . . __ __ . . _
 72
65
 73
8
 40
36.0
 49
12.0
 74
0
 49
-3.0
 74
0
 49
12.0
 74
0
 49
-3.0
 74
0
 49
0.0
 74
0
 49
-3.0
 74
0
 49
0.0
 74
0
 49
-3.0
 74
0
  0
LTYPE
  5
4A
100
AcDbSymbolTableRecord
100
AcDbLinetypeTableRecord
  2
HIDDEN
 70
0
  3
Hidden __ __ __ __ __ __ __ __ __ __ __ __ __ __
 72
65
 73
2
 40
9.5249999999999986
 49
6.3499999999999996
 74
0
 49
-3.1749999999999998
 74
0
  0
LTYPE
  5
4B
100
AcDbSymbolTableRecord
100
AcDbLinetypeTableRecord
  2
CENTERX2
 70
0
  3
Center (2x) ________  __  ________  __  _____
 72
65
 73
4
 40
101.6000000000000085
 49
63.5
 74
0
 49
-12.6999999999999993
 74
0
 49
12.6999999999999993
 74
0
 49
-12.6999999999999993
 74
0
  0
LTYPE
  5
4C
100
AcDbSymbolTableRecord
100
AcDbLinetypeTableRecord
  2
CENTER
 70
0
  3
Center ____ _ ____ _ ____ _ ____ _ ____ _ ____
 72
65
 73
4
 40
50.8000000000000043
 49
31.75
 74
0
 49
-6.3499999999999996
 74
0
 49
6.3499999999999996
 74
0
 49
-6.3499999999999996
 74
0
  0
LTYPE
  5
4D
100
AcDbSymbolTableRecord
100
AcDbLinetypeTableRecord
  2
DASHEDX2
 70
0
  3
Dashed (2x) ____  ____  ____  ____  ____  ___
 72
65
 73
2
 40
38.0999999999999943
 49
25.3999999999999986
 74
0
 49
-12.6999999999999993
 74
0
  0
LTYPE
  5
4E
100
AcDbSymbolTableRecord
100
AcDbLinetypeTableRecord
  2
ACAD_ISO10W100
 70
0
  3
ISO dash dot __ . __ . __ . __ . __ . __ . __ . 
 72
65
 73
4
 40
18.0
 49
12.0
 74
0
 49
-3.0
 74
0
 49
0.0
 74
0
 49
-3.0
 74
0
  0
LTYPE
  5
4F
100
AcDbSymbolTableRecord
100
AcDbLinetypeTableRecord
  2
BORDER
 70
0
  3
Border __ __ . __ __ . __ __ . __ __ . __ __ .
 72
65
 73
6
 40
44.4499999999999957
 49
12.6999999999999993
 74
0
 49
-6.3499999999999996
 74
0
 49
12.6999999999999993
 74
0
 49
-6.3499999999999996
 74
0
 49
0.0
 74
0
 49
-6.3499999999999996
 74
0
  0
LTYPE
  5
50
100
AcDbSymbolTableRecord
100
AcDbLinetypeTableRecord
  2
PHANTOM
 70
0
  3
Phantom ______  __  __  ______  __  __  ______ 
 72
65
 73
6
 40
63.5000000000000071
 49
31.75
 74
0
 49
-6.3499999999999996
 74
0
 49
6.3499999999999996
 74
0
 49
-6.3499999999999996
 74
0
 49
6.3499999999999996
 74
0
 49
-6.3499999999999996
 74
0
  0
LTYPE
  5
14
100
AcDbSymbolTableRecord
100
AcDbLinetypeTableRecord
  2
BYBLOCK
 70
0
  3

 72
65
 73
0
 40
0.0
  0
LTYPE
  5
51
100
AcDbSymbolTableRecord
100
AcDbLinetypeTableRecord
  2
DASHDOTX2
 70
0
  3
Dash dot (2x) ____  .  ____  .  ____  .  ___
 72
65
 73
4
 40
50.7999999999999972
 49
25.3999999999999986
 74
0
 49
-12.6999999999999993
 74
0
 49
0.0
 74
0
 49
-12.6999999999999993
 74
0
  0
LTYPE
  5
52
100
AcDbSymbolTableRecord
100
AcDbLinetypeTableRecord
  2
BORDER2
 70
0
  3
Border (.5x) __.__.__.__.__.__.__.__.__.__.__.
 72
65
 73
6
 40
22.2249999999999979
 49
6.3499999999999996
 74
0
 49
-3.1749999999999998
 74
0
 49
6.3499999999999996
 74
0
 49
-3.1749999999999998
 74
0
 49
0.0
 74
0
 49
-3.1749999999999998
 74
0
  0
LTYPE
  5
53
100
AcDbSymbolTableRecord
100
AcDbLinetypeTableRecord
  2
ACAD_ISO07W100
 70
0
  3
ISO dot . . . . . . . . . . . . . . . . . . . . 
 72
65
 73
2
 40
3.0
 49
0.0
 74
0
 49
-3.0
 74
0
  0
LTYPE
  5
54
100
AcDbSymbolTableRecord
100
AcDbLinetypeTableRecord
  2
ACAD_ISO05W100
 70
0
  3
ISO long-dash double-dot ____ .. ____ .. ____ . 
 72
65
 73
6
 40
33.0
 49
24.0
 74
0
 49
-3.0
 74
0
 49
0.0
 74
0
 49
-3.0
 74
0
 49
0.0
 74
0
 49
-3.0
 74
0
  0
LTYPE
  5
55
100
AcDbSymbolTableRecord
100
AcDbLinetypeTableRecord
  2
DIVIDEX2
 70
0
  3
Divide (2x) ________  .  .  ________  .  .  _
 72
65
 73
6
 40
63.5
 49
25.3999999999999986
 74
0
 49
-12.6999999999999993
 74
0
 49
0.0
 74
0
 49
-12.6999999999999993
 74
0
 49
0.0
 74
0
 49
-12.6999999999999993
 74
0
  0
LTYPE
  5
56
100
AcDbSymbolTableRecord
100
AcDbLinetypeTableRecord
  2
DOTX2
 70
0
  3
Dot (2x) .  .  .  .  .  .  .  .  .  .  .  .  .  .
 72
65
 73
2
 40
12.6999999999999993
 49
0.0
 74
0
 49
-12.6999999999999993
 74
0
  0
ENDTAB
  0
TABLE
  2
LAYER
  5
2
100
AcDbSymbolTable
 70
2
  0
LAYER
  5
57
100
AcDbSymbolTableRecord
100
AcDbLayerTableRecord
  2
edge cuts plate
 70
0
 62
7
420
16777215
  6
Continuous
370
25
390
F
  0
LAYER
  5
10
100
AcDbSymbolTableRecord
100
AcDbLayerTableRecord
  2
0
 70
0
 62
7
420
16777215
  6
Continuous
370
25
390
F
  0
ENDTAB
  0
TABLE
  2
STYLE
  5
3
100
AcDbSymbolTable
 70
1
  0
STYLE
  5
58
100
AcDbSymbolTableRecord
100
AcDbTextStyleTableRecord
  2
Standard
 70
0
 40
0.0
 41
1.0
 50
0.0
 71
0
 42
2.5
  3

  4

1001
ACAD
1000
txt
1071
0
  0
ENDTAB
  0
TABLE
  2
VIEW
  5
6
100
AcDbSymbolTable
 70
0
  0
ENDTAB
  0
TABLE
  2
UCS
  5
7
100
AcDbSymbolTable
 70
0
  0
ENDTAB
  0
TABLE
  2
APPID
  5
9
100
AcDbSymbolTable
 70
1
  0
APPID
  5
12
100
AcDbSymbolTableRecord
100
AcDbRegAppTableRecord
  2
ACAD
 70
0
  0
APPID
  5
59
100
AcDbSymbolTableRecord
100
AcDbRegAppTableRecord
  2
QCAD
 70
0
  0
ENDTAB
  0
TABLE
  2
DIMSTYLE
  5
A
100
AcDbSymbolTable
 70
1
100
AcDbDimStyleTable
 71
0
  0
DIMSTYLE
105
27
100
AcDbSymbolTableRecord
100
AcDbDimStyleTableRecord
  2
Standard
 41
2.5
 42
0.625
 43
3.75
 44
1.25
 70
0
 73
0
 74
0
 77
1
 78
8
140
2.5
141
2.5
143
0.03937007874016
147
0.625
171
3
172
1
271
2
272
2
274
3
278
44
283
0
284
8
340
58
  0
ENDTAB
  0
TABLE
  2
BLOCK_RECORD
  5
1
100
AcDbSymbolTable
 70
1
  0
BLOCK_RECORD
  5
1F
100
AcDbSymbolTableRecord
100
AcDbBlockTableRecord
  2
*Model_Space
340
22
  0
BLOCK_RECORD
  5
1B
100
AcDbSymbolTableRecord
100
AcDbBlockTableRecord
  2
*Paper_Space
340
1E
  0
BLOCK_RECORD
  5
23
100
AcDbSymbolTableRecord
100
AcDbBlockTableRecord
  2
*Paper_Space0
340
26
  0
ENDTAB
  0
ENDSEC
  0
SECTION
  2
BLOCKS
  0
BLOCK
  5
20
100
AcDbEntity
  8
0
100
AcDbBlockBegin
  2
*Model_Space
 70
0
 10
0.0
 20
0.0
 30
0.0
  3
*Model_Space
  1

  0
ENDBLK
  5
21
100
AcDbEntity
  8
0
100
AcDbBlockEnd
  0
BLOCK
  5
1C
100
AcDbEntity
 67
1
  8
0
100
AcDbBlockBegin
  2
*Paper_Space
 70
0
 10
0.0
 20
0.0
 30
0.0
  3
*Paper_Space
  1

  0
ENDBLK
  5
1D
100
AcDbEntity
 67
1
  8
0
100
AcDbBlockEnd
  0
BLOCK
  5
24
100
AcDbEntity
  8
0
100
AcDbBlockBegin
  2
*Paper_Space0
 70
0
 10
0.0
 20
0.0
 30
0.0
  3
*Paper_Space0
  1

  0
ENDBLK
  5
25
100
AcDbEntity
  8
0
100
AcDbBlockEnd
  0
ENDSEC
  0
SECTION
  2
ENTITIES
  0
LINE
  5
5A
100
AcDbEntity
  8
edge cuts plate
 62
256
370
-1
 48
1.0
  6
BYLAYER
100
AcDbLine
 10
12.5567500000000223
 20
-31.0999999999999375
 30
0.0
 11
-17.3192500000000038
 21
-31.0999999999999375
 31
0.0
  0
LINE
  5
5B
100
AcDbEntity
  8
edge cuts plate
 62
256
370
-1
 48
1.0
  6
BYLAYER
100
AcDbLine
 10
74.4560952723449532
 20
-70.815485271133781
 30
0.0
 11
103.8782117013377047
 21
-76.0033982271110062
 31
0.0
  0
LINE
  5
5C
100
AcDbEntity
  8
edge cuts plate
 62
256
370
-1
 48
1.0
  6
BYLAYER
100
AcDbLine
 10
126.6335868509444254
 20
-79.5080715161867033
 30
0.0
 11
132.1990109451695332
 21
-47.9449830321454442
 31
0.0
  0
LINE
  5
5D
100
AcDbEntity
  8
edge cuts plate
 62
256
370
-1
 48
1.0
  6
BYLAYER
100
AcDbLine
 10
-10.3192500000000038
 20
-45.0999999999999375
 30
0.0
 11
5.5567500000000223
 21
-45.0999999999999375
 31
0.0
  0
LINE
  5
5E
100
AcDbEntity
  8
edge cuts plate
 62
256
370
-1
 48
1.0
  6
BYLAYER
100
AcDbLine
 10
99.4156319175892804
 20
-61.0005524412715943
 30
0.0
 11
83.7808240307674339
 21
-58.2437139726314115
 31
0.0
  0
LINE
  5
5F
100
AcDbEntity
  8
edge cuts plate
 62
256
370
-1
 48
1.0
  6
BYLAYER
100
AcDbLine
 10
117.0074095902062083
 20
-53.4780488434181507
 30
0.0
 11
114.2505711215659971
 21
-69.1128567302399688
 31
0.0
  0
LINE
  5
60
100
AcDbEntity
  8
edge cuts plate
 62
256
370
-1
 48
1.0
  6
BYLAYER
100
AcDbLine
 10
15.6257903554009445
 20
-68.6749999999999261
 30
0.0
 11
-10.9499999999999247
 21
-68.6749999999999261
 31
0.0
  0
LINE
  5
61
100
AcDbEntity
  8
edge cuts plate
 62
256
370
-1
 48
1.0
  6
BYLAYER
100
AcDbLine
 10
-17.3192500000000038
 20
-47.0999999999999375
 30
0.0
 11
-11.3192500000000038
 21
-47.0999999999999375
 31
0.0
  0
LINE
  5
62
100
AcDbEntity
  8
edge cuts plate
 62
256
370
-1
 48
1.0
  6
BYLAYER
100
AcDbLine
 10
106.656582544008586
 20
-60.2464741789156903
 30
0.0
 11
100.7477360259353247
 21
-59.204585112914117
 31
0.0
  0
LINE
  5
63
100
AcDbEntity
  8
edge cuts plate
 62
256
370
-1
 48
1.0
  6
BYLAYER
100
AcDbLine
 10
116.2533313278503044
 20
-46.2370982169988167
 30
0.0
 11
115.2114422618487311
 21
-52.1459447350720779
 31
0.0
  0
LINE
  5
64
100
AcDbEntity
  8
edge cuts plate
 62
256
370
-1
 48
1.0
  6
BYLAYER
100
AcDbLine
 10
-17.8192500000000038
 20
-31.5999999999999375
 30
0.0
 11
-17.8192500000000038
 21
-46.5999999999999375
 31
0.0
  0
LINE
  5
65
100
AcDbEntity
  8
edge cuts plate
 62
256
370
-1
 48
1.0
  6
BYLAYER
100
AcDbLine
 10
104.45743966667726
 20
-75.5978184394383845
 30
0.0
 11
107.0621623316812361
 21
-60.8257021442552741
 31
0.0
  0
LINE
  5
66
100
AcDbEntity
  8
edge cuts plate
 62
256
370
-1
 48
1.0
  6
BYLAYER
100
AcDbLine
 10
117.8173670462020368
 20
-46.0051666069931002
 30
0.0
 11
116.8325592931898598
 21
-45.831518429326195
 31
0.0
  0
LINE
  5
67
100
AcDbEntity
  8
edge cuts plate
 62
256
370
-1
 48
1.0
  6
BYLAYER
100
AcDbLine
 10
-10.8192500000000038
 20
-45.5999999999999375
 30
0.0
 11
-10.8192500000000038
 21
-46.5999999999999375
 31
0.0
  0
LINE
  5
68
100
AcDbEntity
  8
edge cuts plate
 62
256
370
-1
 48
1.0
  6
BYLAYER
100
AcDbLine
 10
99.9948598829288358
 20
-60.5949726535989726
 30
0.0
 11
100.1685080605957694
 21
-59.6101649005867387
 31
0.0
  0
LINE
  5
69
100
AcDbEntity
  8
edge cuts plate
 62
256
370
-1
 48
1.0
  6
BYLAYER
100
AcDbLine
 10
116.6018298025335582
 20
-52.8988208780785669
 30
0.0
 11
115.6170220495213528
 21
-52.7251727004116333
 31
0.0
  0
ARC
  5
6A
100
AcDbEntity
  8
edge cuts plate
 62
256
370
-1
 48
1.0
  6
BYLAYER
100
AcDbCircle
 10
-17.3192500000000038
 20
-31.5999999999999375
 30
0.0
 40
0.5
100
AcDbArc
 50
90.0
 51
180.0
  0
ARC
  5
6B
100
AcDbEntity
  8
edge cuts plate
 62
256
370
-1
 48
1.0
  6
BYLAYER
100
AcDbCircle
 10
103.9650357901711573
 20
-75.5109943506049035
 30
0.0
 40
0.5
100
AcDbArc
 50
260.0
 51
350.0
  0
ARC
  5
6C
100
AcDbEntity
  8
edge cuts plate
 62
256
370
-1
 48
1.0
  6
BYLAYER
100
AcDbCircle
 10
-17.3192500000000038
 20
-46.5999999999999375
 30
0.0
 40
0.5
100
AcDbArc
 50
180.0
 51
270.0
  0
ARC
  5
6D
100
AcDbEntity
  8
edge cuts plate
 62
256
370
-1
 48
1.0
  6
BYLAYER
100
AcDbCircle
 10
106.5697584551751333
 20
-60.7388780554218215
 30
0.0
 40
0.5
100
AcDbArc
 50
350.0
 51
79.9999999999999858
  0
ARC
  5
6E
100
AcDbEntity
  8
edge cuts plate
 62
256
370
-1
 48
1.0
  6
BYLAYER
100
AcDbCircle
 10
116.7457352043564072
 20
-46.3239223058322978
 30
0.0
 40
0.5
100
AcDbArc
 50
80.0000000000000142
 51
170.0
  0
ARC
  5
6F
100
AcDbEntity
  8
edge cuts plate
 62
256
370
-1
 48
1.0
  6
BYLAYER
100
AcDbCircle
 10
-11.3192500000000038
 20
-46.5999999999999375
 30
0.0
 40
0.5
100
AcDbArc
 50
270.0
 51
0.0
  0
ARC
  5
70
100
AcDbEntity
  8
edge cuts plate
 62
256
370
-1
 48
1.0
  6
BYLAYER
100
AcDbCircle
 10
100.6609119371018721
 20
-59.6969889894202197
 30
0.0
 40
0.5
100
AcDbArc
 50
79.9999999999999858
 51
170.0
  0
ARC
  5
71
100
AcDbEntity
  8
edge cuts plate
 62
256
370
-1
 48
1.0
  6
BYLAYER
100
AcDbCircle
 10
115.7038461383548338
 20
-52.2327688239055306
 30
0.0
 40
0.5
100
AcDbArc
 50
170.0
 51
260.0
  0
LINE
  5
72
100
AcDbEntity
  8
edge cuts plate
 62
256
370
-1
 48
1.0
  6
BYLAYER
100
AcDbLine
 10
6.5567500000000223
 20
-47.0999999999999375
 30
0.0
 11
12.5567500000000223
 21
-47.0999999999999375
 31
0.0
  0
LINE
  5
73
100
AcDbEntity
  8
edge cuts plate
 62
256
370
-1
 48
1.0
  6
BYLAYER
100
AcDbLine
 10
83.1433126330890957
 20
-56.1004502889400669
 30
0.0
 11
77.2344661150158345
 21
-55.0585612229384651
 31
0.0
  0
LINE
  5
74
100
AcDbEntity
  8
edge cuts plate
 62
256
370
-1
 48
1.0
  6
Continuous
100
AcDbLine
 10
21.7257903554009673
 20
-71.4499999999998892
 30
0.0
 11
21.7257903554009673
 21
-69.6749999999999261
 31
0.0
  0
LINE
  5
75
100
AcDbEntity
  8
edge cuts plate
 62
256
370
-1
 48
1.0
  6
Continuous
100
AcDbLine
 10
-11.9499999999999247
 20
-71.5499999999999119
 30
0.0
 11
-11.9499999999999247
 21
-69.6749999999999261
 31
0.0
  0
LINE
  5
76
100
AcDbEntity
  8
edge cuts plate
 62
256
370
-1
 48
1.0
  6
Continuous
100
AcDbLine
 10
-12.2875000000000156
 20
14.2999999999999545
 30
0.0
 11
-12.2875000000000156
 21
12.5249999999999986
 31
0.0
  0
LINE
  5
77
100
AcDbEntity
  8
edge cuts plate
 62
256
370
-1
 48
1.0
  6
Continuous
100
AcDbLine
 10
105.524883566058179
 20
3.3664667972019231
 30
0.0
 11
105.2166580506993796
 21
1.618433035605257
 31
0.0
  0
LINE
  5
78
100
AcDbEntity
  8
edge cuts plate
 62
256
370
-1
 48
1.0
  6
Continuous
100
AcDbLine
 10
129.0479712609406704
 20
-39.4690421458240337
 30
0.0
 11
128.739745745581871
 21
-41.2170759074206998
 31
0.0
  0
LINE
  5
79
100
AcDbEntity
  8
edge cuts plate
 62
256
370
-1
 48
1.0
  6
Continuous
100
AcDbLine
 10
125.7961551354737253
 20
-87.2807372829569914
 30
0.0
 11
126.1043806508325247
 21
-85.5327035213603892
 31
0.0
  0
LINE
  5
7A
100
AcDbEntity
  8
edge cuts plate
 62
256
370
-1
 48
1.0
  6
Continuous
100
AcDbLine
 10
55.1111407566654634
 20
-74.8170621162073957
 30
0.0
 11
55.4193662720242557
 21
-73.0690283546107224
 31
0.0
  0
LINE
  5
7B
100
AcDbEntity
  8
edge cuts plate
 62
256
370
-1
 48
1.0
  6
BYLAYER
100
AcDbLine
 10
112.1073074378746526
 20
-69.750368127918307
 30
0.0
 11
111.0654183718730792
 21
-75.6592146459915682
 31
0.0
  0
LINE
  5
7C
100
AcDbEntity
  8
edge cuts plate
 62
256
370
-1
 48
1.0
  6
Continuous
100
AcDbLine
 10
16.6257903554009445
 20
-69.6749999999999261
 30
0.0
 11
16.6257903554009445
 21
-71.4499999999999034
 31
0.0
  0
LINE
  5
7D
100
AcDbEntity
  8
edge cuts plate
 62
256
370
-1
 48
1.0
  6
Continuous
100
AcDbLine
 10
-17.0499999999999474
 20
-69.6749999999999261
 30
0.0
 11
-17.0499999999999474
 21
-71.5499999999999403
 31
0.0
  0
LINE
  5
7E
100
AcDbEntity
  8
edge cuts plate
 62
256
370
-1
 48
1.0
  6
Continuous
100
AcDbLine
 10
-7.1875
 20
12.5250000000000057
 30
0.0
 11
-7.1875
 21
14.2999999999999829
 31
0.0
  0
LINE
  5
7F
100
AcDbEntity
  8
edge cuts plate
 62
256
370
-1
 48
1.0
  6
Continuous
100
AcDbLine
 10
110.2391775910616616
 20
0.7328273295039338
 30
0.0
 11
110.547403106420461
 21
2.4808610911005999
 31
0.0
  0
LINE
  5
80
100
AcDbEntity
  8
edge cuts plate
 62
256
370
-1
 48
1.0
  6
Continuous
100
AcDbLine
 10
133.762265285944153
 20
-42.1026816135220727
 30
0.0
 11
134.0704908013029524
 21
-40.3546478519253782
 31
0.0
  0
LINE
  5
81
100
AcDbEntity
  8
edge cuts plate
 62
256
370
-1
 48
1.0
  6
Continuous
100
AcDbLine
 10
121.0818611104702427
 20
-84.6470978152590448
 30
0.0
 11
120.7736355951114433
 21
-86.3951315768556611
 31
0.0
  0
LINE
  5
82
100
AcDbEntity
  8
edge cuts plate
 62
256
370
-1
 48
1.0
  6
Continuous
100
AcDbLine
 10
50.3968467316619879
 20
-72.1834226485094064
 30
0.0
 11
50.0886212163031814
 21
-73.9314564101060796
 31
0.0
  0
ARC
  5
83
100
AcDbEntity
  8
edge cuts plate
 62
256
370
-1
 48
1.0
  6
BYLAYER
100
AcDbCircle
 10
15.6257903554009445
 20
-69.6749999999999261
 30
0.0
 40
1.0
100
AcDbArc
 50
0.0
 51
90.0000000000000142
  0
ARC
  5
84
100
AcDbEntity
  8
edge cuts plate
 62
256
370
-1
 48
1.0
  6
BYLAYER
100
AcDbCircle
 10
-18.0499999999999474
 20
-69.6749999999999261
 30
0.0
 40
1.0
100
AcDbArc
 50
0.0
 51
90.0000000000000142
  0
ARC
  5
85
100
AcDbEntity
  8
edge cuts plate
 62
256
370
-1
 48
1.0
  6
BYLAYER
100
AcDbCircle
 10
-6.1875
 20
12.5250000000000057
 30
0.0
 40
1.0
100
AcDbArc
 50
180.0
 51
270.0
  0
ARC
  5
86
100
AcDbEntity
  8
edge cuts plate
 62
256
370
-1
 48
1.0
  6
BYLAYER
100
AcDbCircle
 10
111.2239853440738671
 20
0.5591791518370073
 30
0.0
 40
1.0
100
AcDbArc
 50
170.0000000000000284
 51
260.0
  0
ARC
  5
87
100
AcDbEntity
  8
edge cuts plate
 62
256
370
-1
 48
1.0
  6
BYLAYER
100
AcDbCircle
 10
134.7470730389563585
 20
-42.2763297911890064
 30
0.0
 40
1.0
100
AcDbArc
 50
170.0000000000000284
 51
260.0
  0
ARC
  5
88
100
AcDbEntity
  8
edge cuts plate
 62
256
370
-1
 48
1.0
  6
BYLAYER
100
AcDbCircle
 10
120.0970533574580372
 20
-84.4734496375921111
 30
0.0
 40
1.0
100
AcDbArc
 50
350.0
 51
79.9999999999999858
  0
ARC
  5
89
100
AcDbEntity
  8
edge cuts plate
 62
256
370
-1
 48
1.0
  6
BYLAYER
100
AcDbCircle
 10
49.4120389786497825
 20
-72.0097744708424727
 30
0.0
 40
1.0
100
AcDbArc
 50
350.0
 51
79.9999999999999858
  0
ARC
  5
8A
100
AcDbEntity
  8
edge cuts plate
 62
256
370
-1
 48
1.0
  6
BYLAYER
100
AcDbCircle
 10
22.7257903554009673
 20
-69.6749999999999261
 30
0.0
 40
1.0
100
AcDbArc
 50
90.0000000000000142
 51
180.0
  0
ARC
  5
8B
100
AcDbEntity
  8
edge cuts plate
 62
256
370
-1
 48
1.0
  6
BYLAYER
100
AcDbCircle
 10
-10.9499999999999247
 20
-69.6749999999999261
 30
0.0
 40
1.0
100
AcDbArc
 50
90.0000000000000142
 51
180.0
  0
ARC
  5
8C
100
AcDbEntity
  8
edge cuts plate
 62
256
370
-1
 48
1.0
  6
BYLAYER
100
AcDbCircle
 10
-13.2875000000000156
 20
12.5249999999999986
 30
0.0
 40
1.0
100
AcDbArc
 50
270.0
 51
0.0
  0
ARC
  5
8D
100
AcDbEntity
  8
edge cuts plate
 62
256
370
-1
 48
1.0
  6
BYLAYER
100
AcDbCircle
 10
104.2318502976871741
 20
1.7920812132721906
 30
0.0
 40
1.0
100
AcDbArc
 50
260.0
 51
350.0
  0
ARC
  5
8E
100
AcDbEntity
  8
edge cuts plate
 62
256
370
-1
 48
1.0
  6
BYLAYER
100
AcDbCircle
 10
127.7549379925696371
 20
-41.0434277297537662
 30
0.0
 40
1.0
100
AcDbArc
 50
260.0
 51
350.0
  0
ARC
  5
8F
100
AcDbEntity
  8
edge cuts plate
 62
256
370
-1
 48
1.0
  6
BYLAYER
100
AcDbCircle
 10
127.0891884038446449
 20
-85.7063516990272802
 30
0.0
 40
0.9999999999999651
100
AcDbArc
 50
79.9999999999978968
 51
170.00000000000108
  0
ARC
  5
90
100
AcDbEntity
  8
edge cuts plate
 62
256
370
-1
 48
1.0
  6
BYLAYER
100
AcDbCircle
 10
56.4041740250364612
 20
-73.2426765322776561
 30
0.0
 40
1.0
100
AcDbArc
 50
79.9999999999999858
 51
170.0
  0
LINE
  5
91
100
AcDbEntity
  8
edge cuts plate
 62
256
370
-1
 48
1.0
  6
BYLAYER
100
AcDbLine
 10
6.0567500000000223
 20
-45.5999999999999375
 30
0.0
 11
6.0567500000000223
 21
-46.5999999999999375
 31
0.0
  0
LINE
  5
92
100
AcDbEntity
  8
edge cuts plate
 62
256
370
-1
 48
1.0
  6
BYLAYER
100
AcDbLine
 10
83.3752442430948122
 20
-57.6644860072918277
 30
0.0
 11
83.5488924207617174
 21
-56.6796782542796223
 31
0.0
  0
LINE
  5
93
100
AcDbEntity
  8
edge cuts plate
 62
256
370
-1
 48
1.0
  6
BYLAYER
100
AcDbLine
 10
113.6713431562264418
 20
-69.5184365179126189
 30
0.0
 11
112.6865354032142363
 21
-69.3447883402456853
 31
0.0
  0
LINE
  5
94
100
AcDbEntity
  8
edge cuts plate
 62
256
370
-1
 48
1.0
  6
BYLAYER
100
AcDbLine
 10
13.0567500000000223
 20
-31.5999999999999375
 30
0.0
 11
13.0567500000000223
 21
-46.5999999999999375
 31
0.0
  0
LINE
  5
95
100
AcDbEntity
  8
edge cuts plate
 62
256
370
-1
 48
1.0
  6
BYLAYER
100
AcDbLine
 10
74.050515484672303
 20
-70.2362573057942257
 30
0.0
 11
76.6552381496762791
 21
-55.4641410106111152
 31
0.0
  0
LINE
  5
96
100
AcDbEntity
  8
edge cuts plate
 62
256
370
-1
 48
1.0
  6
BYLAYER
100
AcDbLine
 10
112.4558059125579348
 20
-76.4120907889980572
 30
0.0
 11
111.4709981595457293
 21
-76.2384426113311235
 31
0.0
  0
ARC
  5
97
100
AcDbEntity
  8
edge cuts plate
 62
256
370
-1
 48
1.0
  6
BYLAYER
100
AcDbCircle
 10
12.5567500000000223
 20
-31.5999999999999375
 30
0.0
 40
0.5
100
AcDbArc
 50
0.0
 51
90.0
  0
ARC
  5
98
100
AcDbEntity
  8
edge cuts plate
 62
256
370
-1
 48
1.0
  6
BYLAYER
100
AcDbCircle
 10
74.5429193611784058
 20
-70.3230813946276783
 30
0.0
 40
0.5
100
AcDbArc
 50
170.0
 51
260.0
  0
ARC
  5
99
100
AcDbEntity
  8
edge cuts plate
 62
256
370
-1
 48
1.0
  6
BYLAYER
100
AcDbCircle
 10
6.5567500000000223
 20
-46.5999999999999375
 30
0.0
 40
0.5
100
AcDbArc
 50
180.0
 51
270.0
  0
ARC
  5
9A
100
AcDbEntity
  8
edge cuts plate
 62
256
370
-1
 48
1.0
  6
BYLAYER
100
AcDbCircle
 10
83.0564885442556147
 20
-56.5928541654461696
 30
0.0
 40
0.5
100
AcDbArc
 50
350.0
 51
79.9999999999999858
  0
ARC
  5
9B
100
AcDbEntity
  8
edge cuts plate
 62
256
370
-1
 48
1.0
  6
BYLAYER
100
AcDbCircle
 10
112.5997113143807837
 20
-69.837192216751788
 30
0.0
 40
0.5
100
AcDbArc
 50
80.0000000000000142
 51
170.0
  0
LINE
  5
9C
100
AcDbEntity
  8
edge cuts plate
 62
256
370
-1
 48
1.0
  6
BYLAYER
100
AcDbLine
 10
-6.1875
 20
11.5250000000000057
 30
0.0
 11
43.0124884569808046
 21
11.5250000000000199
 31
0.0
  0
ARC
  5
9D
100
AcDbEntity
  8
edge cuts plate
 62
256
370
-1
 48
1.0
  6
BYLAYER
100
AcDbCircle
 10
12.5567500000000223
 20
-46.5999999999999375
 30
0.0
 40
0.5
100
AcDbArc
 50
270.0
 51
0.0
  0
ARC
  5
9E
100
AcDbEntity
  8
edge cuts plate
 62
256
370
-1
 48
1.0
  6
BYLAYER
100
AcDbCircle
 10
77.1476420261823819
 20
-55.5509650994445678
 30
0.0
 40
0.5
100
AcDbArc
 50
79.9999999999999858
 51
170.0
  0
ARC
  5
9F
100
AcDbEntity
  8
edge cuts plate
 62
256
370
-1
 48
1.0
  6
BYLAYER
100
AcDbCircle
 10
111.5578222483791819
 20
-75.7460387348250208
 30
0.0
 40
0.5
100
AcDbArc
 50
170.0
 51
260.0
  0
LINE
  5
A0
100
AcDbEntity
  8
edge cuts plate
 62
256
370
-1
 48
1.0
  6
BYLAYER
100
AcDbLine
 10
43.5334329899815984
 20
11.4794232590366434
 30
0.0
 11
104.0582021200202405
 21
0.8072734602599851
 31
0.0
  0
LINE
  5
A1
100
AcDbEntity
  8
edge cuts plate
 62
256
370
-1
 48
1.0
  6
BYLAYER
100
AcDbLine
 10
111.681570393900671
 20
-39.2246859631489215
 30
0.0
 11
127.5812898149027035
 21
-42.0282354827659717
 31
0.0
  0
LINE
  5
A2
100
AcDbEntity
  8
edge cuts plate
 62
256
370
-1
 48
1.0
  6
BYLAYER
100
AcDbLine
 10
120.2707015351249709
 20
-83.4886418845799056
 30
0.0
 11
56.5778222027033877
 21
-72.2578687792654506
 31
0.0
  0
LINE
  5
A3
100
AcDbEntity
  8
edge cuts plate
 62
256
370
-1
 48
1.0
  6
BYLAYER
100
AcDbLine
 10
-6.5000000000000284
 20
7.0
 30
0.0
 11
6.4999999999999716
 21
7.0
 31
0.0
  0
LINE
  5
A4
100
AcDbEntity
  8
edge cuts plate
 62
256
370
-1
 48
1.0
  6
BYLAYER
100
AcDbLine
 10
-8.8812499999999872
 20
-12.0499999999999687
 30
0.0
 11
4.1187500000000057
 21
-12.0499999999999687
 31
0.0
  0
LINE
  5
A5
100
AcDbEntity
  8
edge cuts plate
 62
256
370
-1
 48
1.0
  6
BYLAYER
100
AcDbLine
 10
-13.6437500000000043
 20
-50.1499999999999773
 30
0.0
 11
-0.6437500000000114
 21
-50.1499999999999773
 31
0.0
  0
LINE
  5
A6
100
AcDbEntity
  8
edge cuts plate
 62
256
370
-1
 48
1.0
  6
BYLAYER
100
AcDbLine
 10
17.3124999999999716
 20
7.0000000000000284
 30
0.0
 11
30.3124999999999716
 21
7.0000000000000284
 31
0.0
  0
LINE
  5
A7
100
AcDbEntity
  8
edge cuts plate
 62
256
370
-1
 48
1.0
  6
BYLAYER
100
AcDbLine
 10
17.3124999999999716
 20
-12.0499999999999829
 30
0.0
 11
30.3124999999999716
 21
-12.0499999999999829
 31
0.0
  0
LINE
  5
A8
100
AcDbEntity
  8
edge cuts plate
 62
256
370
-1
 48
1.0
  6
BYLAYER
100
AcDbLine
 10
22.0749999999999886
 20
-31.0999999999999943
 30
0.0
 11
35.0749999999999886
 21
-31.0999999999999943
 31
0.0
  0
LINE
  5
A9
100
AcDbEntity
  8
edge cuts plate
 62
256
370
-1
 48
1.0
  6
BYLAYER
100
AcDbLine
 10
39.1860795888079565
 20
7.6511735395552591
 30
0.0
 11
51.988580377966656
 21
5.3937472298851787
 31
0.0
  0
LINE
  5
AA
100
AcDbEntity
  8
edge cuts plate
 62
256
370
-1
 48
1.0
  6
BYLAYER
100
AcDbLine
 10
39.1860795888079565
 20
-11.6927034168681843
 30
0.0
 11
51.988580377966656
 21
-13.9501297265382789
 31
0.0
  0
LINE
  5
AB
100
AcDbEntity
  8
edge cuts plate
 62
256
370
-1
 48
1.0
  6
BYLAYER
100
AcDbLine
 10
43.9485795888079736
 20
-31.8763376189156986
 30
0.0
 11
56.751080377966673
 21
-34.133763928585779
 31
0.0
  0
LINE
  5
AC
100
AcDbEntity
  8
edge cuts plate
 62
256
370
-1
 48
1.0
  6
BYLAYER
100
AcDbLine
 10
52.3659491135545352
 20
-52.704423929145122
 30
0.0
 11
67.5135233645735866
 21
-55.3753499618846377
 31
0.0
  0
LINE
  5
AD
100
AcDbEntity
  8
edge cuts plate
 62
256
370
-1
 48
1.0
  6
BYLAYER
100
AcDbLine
 10
62.7091672836905332
 20
-35.1843354034706977
 30
0.0
 11
75.5116680728492611
 21
-37.4417617131408065
 31
0.0
  0
LINE
  5
AE
100
AcDbEntity
  8
edge cuts plate
 62
256
370
-1
 48
1.0
  6
BYLAYER
100
AcDbLine
 10
57.9466672836905161
 20
-15.0007012014231975
 30
0.0
 11
70.7491680728492156
 21
-17.2581275110933063
 31
0.0
  0
LINE
  5
AF
100
AcDbEntity
  8
edge cuts plate
 62
256
370
-1
 48
1.0
  6
BYLAYER
100
AcDbLine
 10
57.9466672836905161
 20
4.3431757550002317
 30
0.0
 11
70.7491680728492156
 21
2.0857494453301513
 31
0.0
  0
LINE
  5
B0
100
AcDbEntity
  8
edge cuts plate
 62
256
370
-1
 48
1.0
  6
BYLAYER
100
AcDbLine
 10
76.7072549785730757
 20
1.0351779704452184
 30
0.0
 11
89.5097557677318036
 21
-1.2222483392248762
 31
0.0
  0
LINE
  5
B1
100
AcDbEntity
  8
edge cuts plate
 62
256
370
-1
 48
1.0
  6
BYLAYER
100
AcDbLine
 10
76.7072549785730757
 20
-18.308698985978225
 30
0.0
 11
89.5097557677318036
 21
-20.5661252956483338
 31
0.0
  0
LINE
  5
B2
100
AcDbEntity
  8
edge cuts plate
 62
256
370
-1
 48
1.0
  6
BYLAYER
100
AcDbLine
 10
81.4697549785730928
 20
-38.4923331880257251
 30
0.0
 11
94.2722557677317923
 21
-40.7497594976958339
 31
0.0
  0
LINE
  5
B3
100
AcDbEntity
  8
edge cuts plate
 62
256
370
-1
 48
1.0
  6
BYLAYER
100
AcDbLine
 10
100.230342673455624
 20
-41.8003309725807526
 30
0.0
 11
113.0328434626143235
 21
-44.057757282250833
 31
0.0
  0
LINE
  5
B4
100
AcDbEntity
  8
edge cuts plate
 62
256
370
-1
 48
1.0
  6
BYLAYER
100
AcDbLine
 10
95.4678426734556353
 20
-21.6166967705332524
 30
0.0
 11
108.2703434626143348
 21
-23.8741230802033328
 31
0.0
  0
LINE
  5
B5
100
AcDbEntity
  8
edge cuts plate
 62
256
370
-1
 48
1.0
  6
BYLAYER
100
AcDbLine
 10
95.4678426734556638
 20
-2.272819814109809
 30
0.0
 11
108.2703434626143917
 21
-4.5302461237799037
 31
0.0
  0
LINE
  5
B6
100
AcDbEntity
  8
edge cuts plate
 62
256
370
-1
 48
1.0
  6
BYLAYER
100
AcDbLine
 10
118.990930368338212
 20
-45.1083287571357516
 30
0.0
 11
131.7934311574968831
 21
-47.3657550668058605
 31
0.0
  0
LINE
  5
B7
100
AcDbEntity
  8
edge cuts plate
 62
256
370
-1
 48
1.0
  6
BYLAYER
100
AcDbLine
 10
7.7874999999999943
 20
-50.1499999999999773
 30
0.0
 11
23.1687499999999886
 21
-50.1499999999999773
 31
0.0
  0
LINE
  5
B8
100
AcDbEntity
  8
edge cuts plate
 62
256
370
-1
 48
1.0
  6
BYLAYER
100
AcDbLine
 10
-6.5
 20
-7.0
 30
0.0
 11
6.5
 21
-7.0
 31
0.0
  0
LINE
  5
B9
100
AcDbEntity
  8
edge cuts plate
 62
256
370
-1
 48
1.0
  6
BYLAYER
100
AcDbLine
 10
-8.8812499999999872
 20
-26.0499999999999545
 30
0.0
 11
4.1187500000000057
 21
-26.0499999999999545
 31
0.0
  0
LINE
  5
BA
100
AcDbEntity
  8
edge cuts plate
 62
256
370
-1
 48
1.0
  6
BYLAYER
100
AcDbLine
 10
-13.6437500000000043
 20
-64.1499999999999773
 30
0.0
 11
-0.6437500000000114
 21
-64.1499999999999773
 31
0.0
  0
LINE
  5
BB
100
AcDbEntity
  8
edge cuts plate
 62
256
370
-1
 48
1.0
  6
BYLAYER
100
AcDbLine
 10
17.3124999999999716
 20
-6.9999999999999716
 30
0.0
 11
30.3124999999999716
 21
-6.9999999999999716
 31
0.0
  0
LINE
  5
BC
100
AcDbEntity
  8
edge cuts plate
 62
256
370
-1
 48
1.0
  6
BYLAYER
100
AcDbLine
 10
17.3124999999999716
 20
-26.0499999999999829
 30
0.0
 11
30.3124999999999716
 21
-26.0499999999999829
 31
0.0
  0
LINE
  5
BD
100
AcDbEntity
  8
edge cuts plate
 62
256
370
-1
 48
1.0
  6
BYLAYER
100
AcDbLine
 10
22.0749999999999886
 20
-45.0999999999999943
 30
0.0
 11
35.0749999999999886
 21
-45.0999999999999943
 31
0.0
  0
LINE
  5
BE
100
AcDbEntity
  8
edge cuts plate
 62
256
370
-1
 48
1.0
  6
BYLAYER
100
AcDbLine
 10
36.7550051014709425
 20
-6.1361350026156458
 30
0.0
 11
49.557505890629642
 21
-8.3935613122857404
 31
0.0
  0
LINE
  5
BF
100
AcDbEntity
  8
edge cuts plate
 62
256
370
-1
 48
1.0
  6
BYLAYER
100
AcDbLine
 10
36.755005101470914
 20
-25.4800119590391034
 30
0.0
 11
49.5575058906296135
 21
-27.7374382687091838
 31
0.0
  0
LINE
  5
C0
100
AcDbEntity
  8
edge cuts plate
 62
256
370
-1
 48
1.0
  6
BYLAYER
100
AcDbLine
 10
41.5175051014709595
 20
-45.6636461610866036
 30
0.0
 11
54.320005890629659
 21
-47.921072470756684
 31
0.0
  0
LINE
  5
C1
100
AcDbEntity
  8
edge cuts plate
 62
256
370
-1
 48
1.0
  6
BYLAYER
100
AcDbLine
 10
50.0677328729125009
 20
-66.5151589648179993
 30
0.0
 11
65.0824488772365726
 21
-69.1626585040555426
 31
0.0
  0
LINE
  5
C2
100
AcDbEntity
  8
edge cuts plate
 62
256
370
-1
 48
1.0
  6
BYLAYER
100
AcDbLine
 10
60.2780927963535191
 20
-48.971643945641631
 30
0.0
 11
73.0805935855122186
 21
-51.2290702553117114
 31
0.0
  0
LINE
  5
C3
100
AcDbEntity
  8
edge cuts plate
 62
256
370
-1
 48
1.0
  6
BYLAYER
100
AcDbLine
 10
55.5155927963535021
 20
-28.7880097435941309
 30
0.0
 11
68.3180935855122016
 21
-31.0454360532642113
 31
0.0
  0
LINE
  5
C4
100
AcDbEntity
  8
edge cuts plate
 62
256
370
-1
 48
1.0
  6
BYLAYER
100
AcDbLine
 10
55.5155927963535021
 20
-9.4441327871706733
 30
0.0
 11
68.3180935855122016
 21
-11.7015590968407679
 31
0.0
  0
LINE
  5
C5
100
AcDbEntity
  8
edge cuts plate
 62
256
370
-1
 48
1.0
  6
BYLAYER
100
AcDbLine
 10
74.2761804912360617
 20
-12.7521305717257007
 30
0.0
 11
87.0786812803947612
 21
-15.0095568813957811
 31
0.0
  0
LINE
  5
C6
100
AcDbEntity
  8
edge cuts plate
 62
256
370
-1
 48
1.0
  6
BYLAYER
100
AcDbLine
 10
74.2761804912360617
 20
-32.0960075281491299
 30
0.0
 11
87.0786812803947612
 21
-34.3534338378192388
 31
0.0
  0
LINE
  5
C7
100
AcDbEntity
  8
edge cuts plate
 62
256
370
-1
 48
1.0
  6
BYLAYER
100
AcDbLine
 10
79.0386804912360503
 20
-52.2796417301966585
 30
0.0
 11
91.8411812803947782
 21
-54.5370680398667389
 31
0.0
  0
LINE
  5
C8
100
AcDbEntity
  8
edge cuts plate
 62
256
370
-1
 48
1.0
  6
BYLAYER
100
AcDbLine
 10
97.7992681861185815
 20
-55.5876395147516575
 30
0.0
 11
110.6017689752773094
 21
-57.8450658244217664
 31
0.0
  0
LINE
  5
C9
100
AcDbEntity
  8
edge cuts plate
 62
256
370
-1
 48
1.0
  6
BYLAYER
100
AcDbLine
 10
93.0367681861185929
 20
-35.4040053127041574
 30
0.0
 11
105.8392689752773208
 21
-37.6614316223742662
 31
0.0
  0
LINE
  5
CA
100
AcDbEntity
  8
edge cuts plate
 62
256
370
-1
 48
1.0
  6
BYLAYER
100
AcDbLine
 10
93.0367681861186497
 20
-16.0601283562807282
 30
0.0
 11
105.8392689752773492
 21
-18.3175546659508086
 31
0.0
  0
LINE
  5
CB
100
AcDbEntity
  8
edge cuts plate
 62
256
370
-1
 48
1.0
  6
BYLAYER
100
AcDbLine
 10
113.2518580964461421
 20
-77.6562249941892446
 30
0.0
 11
126.05435888560487
 21
-79.9136513038593534
 31
0.0
  0
LINE
  5
CC
100
AcDbEntity
  8
edge cuts plate
 62
256
370
-1
 48
1.0
  6
BYLAYER
100
AcDbLine
 10
7.7874999999999943
 20
-64.1499999999999773
 30
0.0
 11
23.0338422006973573
 21
-64.1499999999999773
 31
0.0
  0
LINE
  5
CD
100
AcDbEntity
  8
edge cuts plate
 62
256
370
-1
 48
1.0
  6
BYLAYER
100
AcDbLine
 10
-7.0
 20
-6.5
 30
0.0
 11
-7.0
 21
6.5
 31
0.0
  0
LINE
  5
CE
100
AcDbEntity
  8
edge cuts plate
 62
256
370
-1
 48
1.0
  6
BYLAYER
100
AcDbLine
 10
-9.3812499999999872
 20
-25.5499999999999545
 30
0.0
 11
-9.3812499999999872
 21
-12.5499999999999687
 31
0.0
  0
LINE
  5
CF
100
AcDbEntity
  8
edge cuts plate
 62
256
370
-1
 48
1.0
  6
BYLAYER
100
AcDbLine
 10
-14.1437500000000043
 20
-63.6499999999999773
 30
0.0
 11
-14.1437500000000043
 21
-50.6499999999999773
 31
0.0
  0
LINE
  5
D0
100
AcDbEntity
  8
edge cuts plate
 62
256
370
-1
 48
1.0
  6
BYLAYER
100
AcDbLine
 10
16.8124999999999716
 20
-6.4999999999999716
 30
0.0
 11
16.8124999999999716
 21
6.5000000000000284
 31
0.0
  0
LINE
  5
D1
100
AcDbEntity
  8
edge cuts plate
 62
256
370
-1
 48
1.0
  6
BYLAYER
100
AcDbLine
 10
16.8124999999999716
 20
-25.5499999999999829
 30
0.0
 11
16.8124999999999716
 21
-12.5499999999999829
 31
0.0
  0
LINE
  5
D2
100
AcDbEntity
  8
edge cuts plate
 62
256
370
-1
 48
1.0
  6
BYLAYER
100
AcDbLine
 10
21.5749999999999886
 20
-44.5999999999999943
 30
0.0
 11
21.5749999999999886
 21
-31.5999999999999943
 31
0.0
  0
LINE
  5
D3
100
AcDbEntity
  8
edge cuts plate
 62
256
370
-1
 48
1.0
  6
BYLAYER
100
AcDbLine
 10
36.3494253137982923
 20
-5.5569070372760763
 30
0.0
 11
38.6068516234684012
 21
7.2455937518826232
 31
0.0
  0
LINE
  5
D4
100
AcDbEntity
  8
edge cuts plate
 62
256
370
-1
 48
1.0
  6
BYLAYER
100
AcDbLine
 10
36.3494253137982923
 20
-24.9007839936995197
 30
0.0
 11
38.6068516234683727
 21
-12.0982832045408202
 31
0.0
  0
LINE
  5
D5
100
AcDbEntity
  8
edge cuts plate
 62
256
370
-1
 48
1.0
  6
BYLAYER
100
AcDbLine
 10
41.1119253137983094
 20
-45.0844181957470198
 30
0.0
 11
43.3693516234683898
 21
-32.2819174065883203
 31
0.0
  0
LINE
  5
D6
100
AcDbEntity
  8
edge cuts plate
 62
256
370
-1
 48
1.0
  6
BYLAYER
100
AcDbLine
 10
51.5573274232960657
 20
-54.4109601784846149
 30
0.0
 11
51.7867211482149514
 21
-53.1100037168177792
 31
0.0
  0
LINE
  5
D7
100
AcDbEntity
  8
edge cuts plate
 62
256
370
-1
 48
1.0
  6
BYLAYER
100
AcDbLine
 10
59.872513008680869
 20
-48.3924159803020473
 30
0.0
 11
62.1299393183509778
 21
-35.5899151911433478
 31
0.0
  0
LINE
  5
D8
100
AcDbEntity
  8
edge cuts plate
 62
256
370
-1
 48
1.0
  6
BYLAYER
100
AcDbLine
 10
55.110013008680852
 20
-28.2087817782545471
 30
0.0
 11
57.3674393183509324
 21
-15.4062809890958476
 31
0.0
  0
LINE
  5
D9
100
AcDbEntity
  8
edge cuts plate
 62
256
370
-1
 48
1.0
  6
BYLAYER
100
AcDbLine
 10
55.110013008680852
 20
-8.8649048218311037
 30
0.0
 11
57.3674393183509324
 21
3.9375959673275958
 31
0.0
  0
LINE
  5
DA
100
AcDbEntity
  8
edge cuts plate
 62
256
370
-1
 48
1.0
  6
BYLAYER
100
AcDbLine
 10
73.8706007035634116
 20
-12.1729026063861312
 30
0.0
 11
76.1280270132335204
 21
0.6295981827725825
 31
0.0
  0
LINE
  5
DB
100
AcDbEntity
  8
edge cuts plate
 62
256
370
-1
 48
1.0
  6
BYLAYER
100
AcDbLine
 10
73.8706007035634116
 20
-31.5167795628095746
 30
0.0
 11
76.1280270132335204
 21
-18.7142787736508751
 31
0.0
  0
LINE
  5
DC
100
AcDbEntity
  8
edge cuts plate
 62
256
370
-1
 48
1.0
  6
BYLAYER
100
AcDbLine
 10
78.6331007035634286
 20
-51.7004137648570747
 30
0.0
 11
80.890527013233509
 21
-38.8979129756983752
 31
0.0
  0
LINE
  5
DD
100
AcDbEntity
  8
edge cuts plate
 62
256
370
-1
 48
1.0
  6
BYLAYER
100
AcDbLine
 10
97.3936883984459598
 20
-55.0084115494121022
 30
0.0
 11
99.6511147081160402
 21
-42.2059107602534027
 31
0.0
  0
LINE
  5
DE
100
AcDbEntity
  8
edge cuts plate
 62
256
370
-1
 48
1.0
  6
BYLAYER
100
AcDbLine
 10
92.6311883984459712
 20
-34.8247773473646021
 30
0.0
 11
94.8886147081160516
 21
-22.0222765582058742
 31
0.0
  0
LINE
  5
DF
100
AcDbEntity
  8
edge cuts plate
 62
256
370
-1
 48
1.0
  6
BYLAYER
100
AcDbLine
 10
92.6311883984459996
 20
-15.4809003909411445
 30
0.0
 11
94.8886147081161084
 21
-2.678399601782445
 31
0.0
  0
LINE
  5
E0
100
AcDbEntity
  8
edge cuts plate
 62
256
370
-1
 48
1.0
  6
BYLAYER
100
AcDbLine
 10
118.3965950115416206
 20
-45.5995868193204501
 30
0.0
 11
118.4117024029986283
 21
-45.5139085448084018
 31
0.0
  0
LINE
  5
E1
100
AcDbEntity
  8
edge cuts plate
 62
256
370
-1
 48
1.0
  6
BYLAYER
100
AcDbLine
 10
112.8462783087735204
 20
-77.0769970288496893
 30
0.0
 11
112.8613857002305281
 21
-76.9913187543375841
 31
0.0
  0
LINE
  5
E2
100
AcDbEntity
  8
edge cuts plate
 62
256
370
-1
 48
1.0
  6
BYLAYER
100
AcDbLine
 10
7.2874999999999943
 20
-63.6499999999999773
 30
0.0
 11
7.2874999999999943
 21
-50.6499999999999773
 31
0.0
  0
LINE
  5
E3
100
AcDbEntity
  8
edge cuts plate
 62
256
370
-1
 48
1.0
  6
BYLAYER
100
AcDbLine
 10
7.0
 20
-6.5
 30
0.0
 11
7.0
 21
6.5
 31
0.0
  0
LINE
  5
E4
100
AcDbEntity
  8
edge cuts plate
 62
256
370
-1
 48
1.0
  6
BYLAYER
100
AcDbLine
 10
4.6187500000000057
 20
-25.5499999999999545
 30
0.0
 11
4.6187500000000057
 21
-12.5499999999999687
 31
0.0
  0
LINE
  5
E5
100
AcDbEntity
  8
edge cuts plate
 62
256
370
-1
 48
1.0
  6
BYLAYER
100
AcDbLine
 10
-0.1437500000000114
 20
-63.6499999999999773
 30
0.0
 11
-0.1437500000000114
 21
-50.6499999999999773
 31
0.0
  0
LINE
  5
E6
100
AcDbEntity
  8
edge cuts plate
 62
256
370
-1
 48
1.0
  6
BYLAYER
100
AcDbLine
 10
30.8124999999999716
 20
-6.4999999999999716
 30
0.0
 11
30.8124999999999716
 21
6.5000000000000284
 31
0.0
  0
LINE
  5
E7
100
AcDbEntity
  8
edge cuts plate
 62
256
370
-1
 48
1.0
  6
BYLAYER
100
AcDbLine
 10
30.8124999999999716
 20
-25.5499999999999829
 30
0.0
 11
30.8124999999999716
 21
-12.5499999999999829
 31
0.0
  0
LINE
  5
E8
100
AcDbEntity
  8
edge cuts plate
 62
256
370
-1
 48
1.0
  6
BYLAYER
100
AcDbLine
 10
35.5749999999999886
 20
-44.5999999999999943
 30
0.0
 11
35.5749999999999886
 21
-31.5999999999999943
 31
0.0
  0
LINE
  5
E9
100
AcDbEntity
  8
edge cuts plate
 62
256
370
-1
 48
1.0
  6
BYLAYER
100
AcDbLine
 10
23.6687499999999886
 20
-51.9710258120811872
 30
0.0
 11
23.6687499999999886
 21
-50.6499999999999773
 31
0.0
  0
LINE
  5
EA
100
AcDbEntity
  8
edge cuts plate
 62
256
370
-1
 48
1.0
  6
BYLAYER
100
AcDbLine
 10
50.1367338559692257
 20
-7.9879815246131045
 30
0.0
 11
52.3941601656393061
 21
4.814519264545595
 31
0.0
  0
LINE
  5
EB
100
AcDbEntity
  8
edge cuts plate
 62
256
370
-1
 48
1.0
  6
BYLAYER
100
AcDbLine
 10
50.1367338559691973
 20
-27.3318584810365337
 30
0.0
 11
52.3941601656392777
 21
-14.5293576918778342
 31
0.0
  0
LINE
  5
EC
100
AcDbEntity
  8
edge cuts plate
 62
256
370
-1
 48
1.0
  6
BYLAYER
100
AcDbLine
 10
54.8992338559692143
 20
-47.5154926830840623
 30
0.0
 11
57.1566601656393232
 21
-34.7129918939253628
 31
0.0
  0
LINE
  5
ED
100
AcDbEntity
  8
edge cuts plate
 62
256
370
-1
 48
1.0
  6
BYLAYER
100
AcDbLine
 10
73.6598215508518024
 20
-50.8234904676390897
 30
0.0
 11
75.9172478605218828
 21
-38.0209896784803618
 31
0.0
  0
LINE
  5
EE
100
AcDbEntity
  8
edge cuts plate
 62
256
370
-1
 48
1.0
  6
BYLAYER
100
AcDbLine
 10
68.8973215508517569
 20
-30.6398562655915612
 30
0.0
 11
71.1547478605218657
 21
-17.8373554764328617
 31
0.0
  0
LINE
  5
EF
100
AcDbEntity
  8
edge cuts plate
 62
256
370
-1
 48
1.0
  6
BYLAYER
100
AcDbLine
 10
68.8973215508517569
 20
-11.295979309168132
 30
0.0
 11
71.1547478605218657
 21
1.5065214799905675
 31
0.0
  0
LINE
  5
F0
100
AcDbEntity
  8
edge cuts plate
 62
256
370
-1
 48
1.0
  6
BYLAYER
100
AcDbLine
 10
87.6579092457343449
 20
-14.6039770937231594
 30
0.0
 11
89.9153355554044253
 21
-1.8014763045644457
 31
0.0
  0
LINE
  5
F1
100
AcDbEntity
  8
edge cuts plate
 62
256
370
-1
 48
1.0
  6
BYLAYER
100
AcDbLine
 10
87.6579092457343449
 20
-33.9478540501465886
 30
0.0
 11
89.9153355554044253
 21
-21.1453532609878891
 31
0.0
  0
LINE
  5
F2
100
AcDbEntity
  8
edge cuts plate
 62
256
370
-1
 48
1.0
  6
BYLAYER
100
AcDbLine
 10
92.4204092457343336
 20
-54.1314882521941172
 30
0.0
 11
94.6778355554044424
 21
-41.3289874630353893
 31
0.0
  0
LINE
  5
F3
100
AcDbEntity
  8
edge cuts plate
 62
256
370
-1
 48
1.0
  6
BYLAYER
100
AcDbLine
 10
111.1809969406168648
 20
-57.4394860367491162
 30
0.0
 11
113.4384232502869736
 21
-44.6369852475904167
 31
0.0
  0
LINE
  5
F4
100
AcDbEntity
  8
edge cuts plate
 62
256
370
-1
 48
1.0
  6
BYLAYER
100
AcDbLine
 10
106.4184969406168761
 20
-37.2558518347016161
 30
0.0
 11
108.675923250286985
 21
-24.4533510455429166
 31
0.0
  0
LINE
  5
F5
100
AcDbEntity
  8
edge cuts plate
 62
256
370
-1
 48
1.0
  6
BYLAYER
100
AcDbLine
 10
106.418496940616933
 20
-17.9119748782781869
 30
0.0
 11
108.6759232502870134
 21
-5.1094740891194732
 31
0.0
  0
LINE
  5
F6
100
AcDbEntity
  8
edge cuts plate
 62
256
370
-1
 48
1.0
  6
BYLAYER
100
AcDbLine
 10
65.6616768425761279
 20
-68.7570787163829209
 30
0.0
 11
67.9191031522462367
 21
-55.954577927224193
 31
0.0
  0
ARC
  5
F7
100
AcDbEntity
  8
edge cuts plate
 62
256
370
-1
 48
1.0
  6
BYLAYER
100
AcDbCircle
 10
-6.5000000000000284
 20
6.5
 30
0.0
 40
0.5
100
AcDbArc
 50
90.0
 51
180.0
  0
ARC
  5
F8
100
AcDbEntity
  8
edge cuts plate
 62
256
370
-1
 48
1.0
  6
BYLAYER
100
AcDbCircle
 10
-8.8812499999999872
 20
-12.5499999999999687
 30
0.0
 40
0.5
100
AcDbArc
 50
90.0
 51
180.0
  0
ARC
  5
F9
100
AcDbEntity
  8
edge cuts plate
 62
256
370
-1
 48
1.0
  6
BYLAYER
100
AcDbCircle
 10
-13.6437500000000043
 20
-50.6499999999999773
 30
0.0
 40
0.5
100
AcDbArc
 50
90.0
 51
180.0
  0
ARC
  5
FA
100
AcDbEntity
  8
edge cuts plate
 62
256
370
-1
 48
1.0
  6
BYLAYER
100
AcDbCircle
 10
17.3124999999999716
 20
6.5000000000000284
 30
0.0
 40
0.5
100
AcDbArc
 50
90.0
 51
180.0
  0
ARC
  5
FB
100
AcDbEntity
  8
edge cuts plate
 62
256
370
-1
 48
1.0
  6
BYLAYER
100
AcDbCircle
 10
17.3124999999999716
 20
-12.5499999999999829
 30
0.0
 40
0.5
100
AcDbArc
 50
90.0
 51
180.0
  0
ARC
  5
FC
100
AcDbEntity
  8
edge cuts plate
 62
256
370
-1
 48
1.0
  6
BYLAYER
100
AcDbCircle
 10
22.0749999999999886
 20
-31.5999999999999943
 30
0.0
 40
0.5
100
AcDbArc
 50
90.0
 51
180.0
  0
ARC
  5
FD
100
AcDbEntity
  8
edge cuts plate
 62
256
370
-1
 48
1.0
  6
BYLAYER
100
AcDbCircle
 10
39.0992554999745039
 20
7.1587696630491564
 30
0.0
 40
0.5
100
AcDbArc
 50
80.0
 51
170.0000000000000284
  0
ARC
  5
FE
100
AcDbEntity
  8
edge cuts plate
 62
256
370
-1
 48
1.0
  6
BYLAYER
100
AcDbCircle
 10
39.0992554999744755
 20
-12.185107293374287
 30
0.0
 40
0.5
100
AcDbArc
 50
80.0
 51
170.0000000000000284
  0
ARC
  5
FF
100
AcDbEntity
  8
edge cuts plate
 62
256
370
-1
 48
1.0
  6
BYLAYER
100
AcDbCircle
 10
43.8617554999745209
 20
-32.3687414954218013
 30
0.0
 40
0.5
100
AcDbArc
 50
80.0
 51
170.0000000000000284
  0
ARC
  5
100
100
AcDbEntity
  8
edge cuts plate
 62
256
370
-1
 48
1.0
  6
BYLAYER
100
AcDbCircle
 10
52.2791250247210826
 20
-53.1968278056512531
 30
0.0
 40
0.5
100
AcDbArc
 50
80.0
 51
170.0000000000000284
  0
ARC
  5
101
100
AcDbEntity
  8
edge cuts plate
 62
256
370
-1
 48
1.0
  6
BYLAYER
100
AcDbCircle
 10
62.6223431948570806
 20
-35.6767392799768004
 30
0.0
 40
0.5
100
AcDbArc
 50
80.0
 51
170.0000000000000284
  0
ARC
  5
102
100
AcDbEntity
  8
edge cuts plate
 62
256
370
-1
 48
1.0
  6
BYLAYER
100
AcDbCircle
 10
57.8598431948570635
 20
-15.4931050779293287
 30
0.0
 40
0.5
100
AcDbArc
 50
80.0
 51
170.0000000000000284
  0
ARC
  5
103
100
AcDbEntity
  8
edge cuts plate
 62
256
370
-1
 48
1.0
  6
BYLAYER
100
AcDbCircle
 10
57.8598431948570635
 20
3.8507718784941289
 30
0.0
 40
0.5
100
AcDbArc
 50
80.0
 51
170.0000000000000284
  0
ARC
  5
104
100
AcDbEntity
  8
edge cuts plate
 62
256
370
-1
 48
1.0
  6
BYLAYER
100
AcDbCircle
 10
76.6204308897396231
 20
0.5427740939391015
 30
0.0
 40
0.5
100
AcDbArc
 50
80.0
 51
170.0000000000000284
  0
ARC
  5
105
100
AcDbEntity
  8
edge cuts plate
 62
256
370
-1
 48
1.0
  6
BYLAYER
100
AcDbCircle
 10
76.6204308897396231
 20
-18.8011028624843277
 30
0.0
 40
0.5
100
AcDbArc
 50
80.0
 51
170.0000000000000284
  0
ARC
  5
106
100
AcDbEntity
  8
edge cuts plate
 62
256
370
-1
 48
1.0
  6
BYLAYER
100
AcDbCircle
 10
81.3829308897396118
 20
-38.9847370645318279
 30
0.0
 40
0.5
100
AcDbArc
 50
80.0
 51
170.0000000000000284
  0
ARC
  5
107
100
AcDbEntity
  8
edge cuts plate
 62
256
370
-1
 48
1.0
  6
BYLAYER
100
AcDbCircle
 10
100.143518584622143
 20
-42.2927348490868553
 30
0.0
 40
0.5
100
AcDbArc
 50
80.0
 51
170.0000000000000284
  0
ARC
  5
108
100
AcDbEntity
  8
edge cuts plate
 62
256
370
-1
 48
1.0
  6
BYLAYER
100
AcDbCircle
 10
95.3810185846221543
 20
-22.1091006470393552
 30
0.0
 40
0.5
100
AcDbArc
 50
80.0
 51
170.0000000000000284
  0
ARC
  5
109
100
AcDbEntity
  8
edge cuts plate
 62
256
370
-1
 48
1.0
  6
BYLAYER
100
AcDbCircle
 10
95.3810185846222112
 20
-2.765223690615926
 30
0.0
 40
0.5
100
AcDbArc
 50
80.0
 51
170.0000000000000284
  0
ARC
  5
10A
100
AcDbEntity
  8
edge cuts plate
 62
256
370
-1
 48
1.0
  6
BYLAYER
100
AcDbCircle
 10
118.904106279504731
 20
-45.6007326336418828
 30
0.0
 40
0.5
100
AcDbArc
 50
80.0
 51
170.0000000000000284
  0
ARC
  5
10B
100
AcDbEntity
  8
edge cuts plate
 62
256
370
-1
 48
1.0
  6
BYLAYER
100
AcDbCircle
 10
7.7874999999999943
 20
-50.6499999999999773
 30
0.0
 40
0.5
100
AcDbArc
 50
90.0
 51
180.0
  0
ARC
  5
10C
100
AcDbEntity
  8
edge cuts plate
 62
256
370
-1
 48
1.0
  6
BYLAYER
100
AcDbCircle
 10
6.5
 20
6.5
 30
0.0
 40
0.5
100
AcDbArc
 50
0.0
 51
90.0000000000000995
  0
ARC
  5
10D
100
AcDbEntity
  8
edge cuts plate
 62
256
370
-1
 48
1.0
  6
BYLAYER
100
AcDbCircle
 10
4.1187500000000057
 20
-12.5499999999999687
 30
0.0
 40
0.5
100
AcDbArc
 50
0.0
 51
90.0000000000000995
  0
ARC
  5
10E
100
AcDbEntity
  8
edge cuts plate
 62
256
370
-1
 48
1.0
  6
BYLAYER
100
AcDbCircle
 10
-0.6437500000000114
 20
-50.6499999999999773
 30
0.0
 40
0.5
100
AcDbArc
 50
0.0
 51
90.0000000000000995
  0
ARC
  5
10F
100
AcDbEntity
  8
edge cuts plate
 62
256
370
-1
 48
1.0
  6
BYLAYER
100
AcDbCircle
 10
30.3124999999999716
 20
6.5000000000000284
 30
0.0
 40
0.5
100
AcDbArc
 50
0.0
 51
90.0000000000000995
  0
ARC
  5
110
100
AcDbEntity
  8
edge cuts plate
 62
256
370
-1
 48
1.0
  6
BYLAYER
100
AcDbCircle
 10
30.3124999999999716
 20
-12.5499999999999829
 30
0.0
 40
0.5
100
AcDbArc
 50
0.0
 51
90.0000000000000995
  0
ARC
  5
111
100
AcDbEntity
  8
edge cuts plate
 62
256
370
-1
 48
1.0
  6
BYLAYER
100
AcDbCircle
 10
35.0749999999999886
 20
-31.5999999999999943
 30
0.0
 40
0.5
100
AcDbArc
 50
0.0
 51
90.0000000000000995
  0
ARC
  5
112
100
AcDbEntity
  8
edge cuts plate
 62
256
370
-1
 48
1.0
  6
BYLAYER
100
AcDbCircle
 10
23.1687499999999886
 20
-50.6499999999999773
 30
0.0
 40
0.5
100
AcDbArc
 50
0.0
 51
90.0000000000000995
  0
ARC
  5
113
100
AcDbEntity
  8
edge cuts plate
 62
256
370
-1
 48
1.0
  6
BYLAYER
100
AcDbCircle
 10
51.9017562891332034
 20
4.9013433533790618
 30
0.0
 40
0.5
100
AcDbArc
 50
350.0
 51
80.0000000000000995
  0
ARC
  5
114
100
AcDbEntity
  8
edge cuts plate
 62
256
370
-1
 48
1.0
  6
BYLAYER
100
AcDbCircle
 10
51.901756289133175
 20
-14.4425336030443816
 30
0.0
 40
0.5
100
AcDbArc
 50
350.0
 51
80.0000000000000995
  0
ARC
  5
115
100
AcDbEntity
  8
edge cuts plate
 62
256
370
-1
 48
1.0
  6
BYLAYER
100
AcDbCircle
 10
56.6642562891332204
 20
-34.6261678050918817
 30
0.0
 40
0.5
100
AcDbArc
 50
350.0
 51
80.0000000000000995
  0
ARC
  5
116
100
AcDbEntity
  8
edge cuts plate
 62
256
370
-1
 48
1.0
  6
BYLAYER
100
AcDbCircle
 10
75.4248439840157801
 20
-37.9341655896469092
 30
0.0
 40
0.5
100
AcDbArc
 50
350.0
 51
80.0000000000000995
  0
ARC
  5
117
100
AcDbEntity
  8
edge cuts plate
 62
256
370
-1
 48
1.0
  6
BYLAYER
100
AcDbCircle
 10
70.662343984015763
 20
-17.7505313875994091
 30
0.0
 40
0.5
100
AcDbArc
 50
350.0
 51
80.0000000000000995
  0
ARC
  5
118
100
AcDbEntity
  8
edge cuts plate
 62
256
370
-1
 48
1.0
  6
BYLAYER
100
AcDbCircle
 10
70.662343984015763
 20
1.5933455688240343
 30
0.0
 40
0.5
100
AcDbArc
 50
350.0
 51
80.0000000000000995
  0
ARC
  5
119
100
AcDbEntity
  8
edge cuts plate
 62
256
370
-1
 48
1.0
  6
BYLAYER
100
AcDbCircle
 10
89.4229316788983226
 20
-1.7146522157309789
 30
0.0
 40
0.5
100
AcDbArc
 50
350.0
 51
80.0000000000000995
  0
ARC
  5
11A
100
AcDbEntity
  8
edge cuts plate
 62
256
370
-1
 48
1.0
  6
BYLAYER
100
AcDbCircle
 10
89.4229316788983226
 20
-21.0585291721544365
 30
0.0
 40
0.5
100
AcDbArc
 50
350.0
 51
80.0000000000000995
  0
ARC
  5
11B
100
AcDbEntity
  8
edge cuts plate
 62
256
370
-1
 48
1.0
  6
BYLAYER
100
AcDbCircle
 10
94.1854316788983397
 20
-41.2421633742019367
 30
0.0
 40
0.5
100
AcDbArc
 50
350.0
 51
80.0000000000000995
  0
ARC
  5
11C
100
AcDbEntity
  8
edge cuts plate
 62
256
370
-1
 48
1.0
  6
BYLAYER
100
AcDbCircle
 10
112.9460193737808709
 20
-44.5501611587569641
 30
0.0
 40
0.5
100
AcDbArc
 50
350.0
 51
80.0000000000000995
  0
ARC
  5
11D
100
AcDbEntity
  8
edge cuts plate
 62
256
370
-1
 48
1.0
  6
BYLAYER
100
AcDbCircle
 10
108.1835193737808822
 20
-24.3665269567094356
 30
0.0
 40
0.5
100
AcDbArc
 50
350.0
 51
80.0000000000000995
  0
ARC
  5
11E
100
AcDbEntity
  8
edge cuts plate
 62
256
370
-1
 48
1.0
  6
BYLAYER
100
AcDbCircle
 10
108.1835193737809107
 20
-5.0226500002860064
 30
0.0
 40
0.5
100
AcDbArc
 50
350.0
 51
80.0000000000000995
  0
ARC
  5
11F
100
AcDbEntity
  8
edge cuts plate
 62
256
370
-1
 48
1.0
  6
BYLAYER
100
AcDbCircle
 10
131.7066070686634305
 20
-47.8581589433119632
 30
0.0
 40
0.5
100
AcDbArc
 50
350.0
 51
80.0000000000000995
  0
ARC
  5
120
100
AcDbEntity
  8
edge cuts plate
 62
256
370
-1
 48
1.0
  6
BYLAYER
100
AcDbCircle
 10
67.426699275740134
 20
-55.8677538383907404
 30
0.0
 40
0.5
100
AcDbArc
 50
350.0
 51
80.0000000000000995
  0
ARC
  5
121
100
AcDbEntity
  8
edge cuts plate
 62
256
370
-1
 48
1.0
  6
BYLAYER
100
AcDbCircle
 10
6.5
 20
-6.5
 30
0.0
 40
0.5
100
AcDbArc
 50
270.0
 51
0.0
  0
ARC
  5
122
100
AcDbEntity
  8
edge cuts plate
 62
256
370
-1
 48
1.0
  6
BYLAYER
100
AcDbCircle
 10
4.1187500000000057
 20
-25.5499999999999545
 30
0.0
 40
0.5
100
AcDbArc
 50
270.0
 51
0.0
  0
ARC
  5
123
100
AcDbEntity
  8
edge cuts plate
 62
256
370
-1
 48
1.0
  6
BYLAYER
100
AcDbCircle
 10
-0.6437500000000114
 20
-63.6499999999999773
 30
0.0
 40
0.5
100
AcDbArc
 50
270.0
 51
0.0
  0
ARC
  5
124
100
AcDbEntity
  8
edge cuts plate
 62
256
370
-1
 48
1.0
  6
BYLAYER
100
AcDbCircle
 10
30.3124999999999716
 20
-6.4999999999999716
 30
0.0
 40
0.5
100
AcDbArc
 50
270.0
 51
0.0
  0
ARC
  5
125
100
AcDbEntity
  8
edge cuts plate
 62
256
370
-1
 48
1.0
  6
BYLAYER
100
AcDbCircle
 10
30.3124999999999716
 20
-25.5499999999999829
 30
0.0
 40
0.5
100
AcDbArc
 50
270.0
 51
0.0
  0
ARC
  5
126
100
AcDbEntity
  8
edge cuts plate
 62
256
370
-1
 48
1.0
  6
BYLAYER
100
AcDbCircle
 10
35.0749999999999886
 20
-44.5999999999999943
 30
0.0
 40
0.5
100
AcDbArc
 50
270.0
 51
0.0
  0
ARC
  5
127
100
AcDbEntity
  8
edge cuts plate
 62
256
370
-1
 48
1.0
  6
BYLAYER
100
AcDbCircle
 10
49.6443299794630946
 20
-7.9011574357796377
 30
0.0
 40
0.5
100
AcDbArc
 50
260.0
 51
350.0
  0
ARC
  5
128
100
AcDbEntity
  8
edge cuts plate
 62
256
370
-1
 48
1.0
  6
BYLAYER
100
AcDbCircle
 10
49.6443299794630946
 20
-27.2450343922030811
 30
0.0
 40
0.5
100
AcDbArc
 50
260.0
 51
350.0
  0
ARC
  5
129
100
AcDbEntity
  8
edge cuts plate
 62
256
370
-1
 48
1.0
  6
BYLAYER
100
AcDbCircle
 10
54.4068299794631116
 20
-47.4286685942505812
 30
0.0
 40
0.5
100
AcDbArc
 50
260.0
 51
350.0
  0
ARC
  5
12A
100
AcDbEntity
  8
edge cuts plate
 62
256
370
-1
 48
1.0
  6
BYLAYER
100
AcDbCircle
 10
73.1674176743456997
 20
-50.7366663788056087
 30
0.0
 40
0.5
100
AcDbArc
 50
260.0
 51
350.0
  0
ARC
  5
12B
100
AcDbEntity
  8
edge cuts plate
 62
256
370
-1
 48
1.0
  6
BYLAYER
100
AcDbCircle
 10
68.4049176743456542
 20
-30.5530321767581086
 30
0.0
 40
0.5
100
AcDbArc
 50
260.0
 51
350.0
  0
ARC
  5
12C
100
AcDbEntity
  8
edge cuts plate
 62
256
370
-1
 48
1.0
  6
BYLAYER
100
AcDbCircle
 10
68.4049176743456542
 20
-11.2091552203346652
 30
0.0
 40
0.5
100
AcDbArc
 50
260.0
 51
350.0
  0
ARC
  5
12D
100
AcDbEntity
  8
edge cuts plate
 62
256
370
-1
 48
1.0
  6
BYLAYER
100
AcDbCircle
 10
87.1655053692282422
 20
-14.5171530048896784
 30
0.0
 40
0.5
100
AcDbArc
 50
260.0
 51
350.0
  0
ARC
  5
12E
100
AcDbEntity
  8
edge cuts plate
 62
256
370
-1
 48
1.0
  6
BYLAYER
100
AcDbCircle
 10
87.1655053692282422
 20
-33.861029961313136
 30
0.0
 40
0.5
100
AcDbArc
 50
260.0
 51
350.0
  0
ARC
  5
12F
100
AcDbEntity
  8
edge cuts plate
 62
256
370
-1
 48
1.0
  6
BYLAYER
100
AcDbCircle
 10
91.9280053692282308
 20
-54.0446641633606362
 30
0.0
 40
0.5
100
AcDbArc
 50
260.0
 51
350.0
  0
ARC
  5
130
100
AcDbEntity
  8
edge cuts plate
 62
256
370
-1
 48
1.0
  6
BYLAYER
100
AcDbCircle
 10
110.688593064110762
 20
-57.3526619479156352
 30
0.0
 40
0.5
100
AcDbArc
 50
260.0
 51
350.0
  0
ARC
  5
131
100
AcDbEntity
  8
edge cuts plate
 62
256
370
-1
 48
1.0
  6
BYLAYER
100
AcDbCircle
 10
105.9260930641107734
 20
-37.1690277458681635
 30
0.0
 40
0.5
100
AcDbArc
 50
260.0
 51
350.0
  0
ARC
  5
132
100
AcDbEntity
  8
edge cuts plate
 62
256
370
-1
 48
1.0
  6
BYLAYER
100
AcDbCircle
 10
105.9260930641108303
 20
-17.8251507894447059
 30
0.0
 40
0.5
100
AcDbArc
 50
260.0
 51
350.0
  0
ARC
  5
133
100
AcDbEntity
  8
edge cuts plate
 62
256
370
-1
 48
1.0
  6
BYLAYER
100
AcDbCircle
 10
126.1411829744383226
 20
-79.4212474273532507
 30
0.0
 40
0.5
100
AcDbArc
 50
260.0
 51
350.0
  0
ARC
  5
134
100
AcDbEntity
  8
edge cuts plate
 62
256
370
-1
 48
1.0
  6
BYLAYER
100
AcDbCircle
 10
65.1692729660700252
 20
-68.6702546275494399
 30
0.0
 40
0.5
100
AcDbArc
 50
260.0
 51
350.0
  0
ARC
  5
135
100
AcDbEntity
  8
edge cuts plate
 62
256
370
-1
 48
1.0
  6
BYLAYER
100
AcDbCircle
 10
-6.5
 20
-6.5
 30
0.0
 40
0.5
100
AcDbArc
 50
180.0
 51
270.0
  0
ARC
  5
136
100
AcDbEntity
  8
edge cuts plate
 62
256
370
-1
 48
1.0
  6
BYLAYER
100
AcDbCircle
 10
-8.8812499999999872
 20
-25.5499999999999545
 30
0.0
 40
0.5
100
AcDbArc
 50
180.0
 51
270.0
  0
ARC
  5
137
100
AcDbEntity
  8
edge cuts plate
 62
256
370
-1
 48
1.0
  6
BYLAYER
100
AcDbCircle
 10
-13.6437500000000043
 20
-63.6499999999999773
 30
0.0
 40
0.5
100
AcDbArc
 50
180.0
 51
270.0
  0
ARC
  5
138
100
AcDbEntity
  8
edge cuts plate
 62
256
370
-1
 48
1.0
  6
BYLAYER
100
AcDbCircle
 10
17.3124999999999716
 20
-6.4999999999999716
 30
0.0
 40
0.5
100
AcDbArc
 50
180.0
 51
270.0
  0
ARC
  5
139
100
AcDbEntity
  8
edge cuts plate
 62
256
370
-1
 48
1.0
  6
BYLAYER
100
AcDbCircle
 10
17.3124999999999716
 20
-25.5499999999999829
 30
0.0
 40
0.5
100
AcDbArc
 50
180.0
 51
270.0
  0
ARC
  5
13A
100
AcDbEntity
  8
edge cuts plate
 62
256
370
-1
 48
1.0
  6
BYLAYER
100
AcDbCircle
 10
22.0749999999999886
 20
-44.5999999999999943
 30
0.0
 40
0.5
100
AcDbArc
 50
180.0
 51
270.0
  0
ARC
  5
13B
100
AcDbEntity
  8
edge cuts plate
 62
256
370
-1
 48
1.0
  6
BYLAYER
100
AcDbCircle
 10
36.8418291903043951
 20
-5.6437311261095431
 30
0.0
 40
0.5
100
AcDbArc
 50
170.0000000000000284
 51
260.0
  0
ARC
  5
13C
100
AcDbEntity
  8
edge cuts plate
 62
256
370
-1
 48
1.0
  6
BYLAYER
100
AcDbCircle
 10
36.8418291903043951
 20
-24.9876080825330007
 30
0.0
 40
0.5
100
AcDbArc
 50
170.0000000000000284
 51
260.0
  0
ARC
  5
13D
100
AcDbEntity
  8
edge cuts plate
 62
256
370
-1
 48
1.0
  6
BYLAYER
100
AcDbCircle
 10
41.6043291903044121
 20
-45.1712422845805008
 30
0.0
 40
0.5
100
AcDbArc
 50
170.0000000000000284
 51
260.0
  0
ARC
  5
13E
100
AcDbEntity
  8
edge cuts plate
 62
256
370
-1
 48
1.0
  6
BYLAYER
100
AcDbCircle
 10
60.3649168851869717
 20
-48.4792400691355283
 30
0.0
 40
0.5
100
AcDbArc
 50
170.0000000000000284
 51
260.0
  0
ARC
  5
13F
100
AcDbEntity
  8
edge cuts plate
 62
256
370
-1
 48
1.0
  6
BYLAYER
100
AcDbCircle
 10
55.6024168851869547
 20
-28.2956058670880282
 30
0.0
 40
0.5
100
AcDbArc
 50
170.0000000000000284
 51
260.0
  0
ARC
  5
140
100
AcDbEntity
  8
edge cuts plate
 62
256
370
-1
 48
1.0
  6
BYLAYER
100
AcDbCircle
 10
55.6024168851869547
 20
-8.9517289106645705
 30
0.0
 40
0.5
100
AcDbArc
 50
170.0000000000000284
 51
260.0
  0
ARC
  5
141
100
AcDbEntity
  8
edge cuts plate
 62
256
370
-1
 48
1.0
  6
BYLAYER
100
AcDbCircle
 10
74.3630045800695143
 20
-12.259726695219598
 30
0.0
 40
0.5
100
AcDbArc
 50
170.0000000000000284
 51
260.0
  0
ARC
  5
142
100
AcDbEntity
  8
edge cuts plate
 62
256
370
-1
 48
1.0
  6
BYLAYER
100
AcDbCircle
 10
74.3630045800695143
 20
-31.6036036516430272
 30
0.0
 40
0.5
100
AcDbArc
 50
170.0000000000000284
 51
260.0
  0
ARC
  5
143
100
AcDbEntity
  8
edge cuts plate
 62
256
370
-1
 48
1.0
  6
BYLAYER
100
AcDbCircle
 10
79.1255045800695314
 20
-51.7872378536905558
 30
0.0
 40
0.5
100
AcDbArc
 50
170.0000000000000284
 51
260.0
  0
ARC
  5
144
100
AcDbEntity
  8
edge cuts plate
 62
256
370
-1
 48
1.0
  6
BYLAYER
100
AcDbCircle
 10
97.8860922749520626
 20
-55.0952356382455548
 30
0.0
 40
0.5
100
AcDbArc
 50
170.0000000000000284
 51
260.0
  0
ARC
  5
145
100
AcDbEntity
  8
edge cuts plate
 62
256
370
-1
 48
1.0
  6
BYLAYER
100
AcDbCircle
 10
93.1235922749520739
 20
-34.9116014361980547
 30
0.0
 40
0.5
100
AcDbArc
 50
170.0000000000000284
 51
260.0
  0
ARC
  5
146
100
AcDbEntity
  8
edge cuts plate
 62
256
370
-1
 48
1.0
  6
BYLAYER
100
AcDbCircle
 10
93.1235922749521023
 20
-15.5677244797746255
 30
0.0
 40
0.5
100
AcDbArc
 50
170.0000000000000284
 51
260.0
  0
ARC
  5
147
100
AcDbEntity
  8
edge cuts plate
 62
256
370
-1
 48
1.0
  6
BYLAYER
100
AcDbCircle
 10
113.3386821852796231
 20
-77.1638211176831419
 30
0.0
 40
0.5
100
AcDbArc
 50
170.0000000000000284
 51
260.0
  0
ARC
  5
148
100
AcDbEntity
  8
edge cuts plate
 62
256
370
-1
 48
1.0
  6
BYLAYER
100
AcDbCircle
 10
7.7874999999999943
 20
-63.6499999999999773
 30
0.0
 40
0.5
100
AcDbArc
 50
180.0
 51
270.0
  0
ARC
  5
149
100
AcDbEntity
  8
edge cuts plate
 62
256
370
-1
 48
1.0
  6
BYLAYER
100
AcDbCircle
 10
-10.3192500000000038
 20
-45.5999999999999375
 30
0.0
 40
0.5
100
AcDbArc
 50
90.0
 51
180.0
  0
ARC
  5
14A
100
AcDbEntity
  8
edge cuts plate
 62
256
370
-1
 48
1.0
  6
BYLAYER
100
AcDbCircle
 10
99.502456006422733
 20
-60.5081485647654915
 30
0.0
 40
0.5
100
AcDbArc
 50
260.0
 51
350.0
  0
ARC
  5
14B
100
AcDbEntity
  8
edge cuts plate
 62
256
370
-1
 48
1.0
  6
BYLAYER
100
AcDbCircle
 10
116.5150057137001056
 20
-53.3912247545846697
 30
0.0
 40
0.5
100
AcDbArc
 50
350.0
 51
80.0000000000000142
  0
ARC
  5
14C
100
AcDbEntity
  8
edge cuts plate
 62
256
370
-1
 48
1.0
  6
BYLAYER
100
AcDbCircle
 10
5.5567500000000223
 20
-45.5999999999999375
 30
0.0
 40
0.5
100
AcDbArc
 50
0.0
 51
89.999999999999801
  0
ARC
  5
14D
100
AcDbEntity
  8
edge cuts plate
 62
256
370
-1
 48
1.0
  6
BYLAYER
100
AcDbCircle
 10
83.8676481196009149
 20
-57.7513100961253087
 30
0.0
 40
0.5
100
AcDbArc
 50
170.0
 51
259.9999999999997726
  0
ARC
  5
14E
100
AcDbEntity
  8
edge cuts plate
 62
256
370
-1
 48
1.0
  6
BYLAYER
100
AcDbCircle
 10
113.7581672450598944
 20
-69.0260326414064878
 30
0.0
 40
0.5
100
AcDbArc
 50
260.0
 51
349.9999999999997726
  0
ARC
  5
14F
100
AcDbEntity
  8
edge cuts plate
 62
256
370
-1
 48
1.0
  6
BYLAYER
100
AcDbCircle
 10
112.3689818237244538
 20
-76.9044946655041315
 30
0.0
 40
0.5
100
AcDbArc
 50
349.9999999999994316
 51
79.9999999999992326
  0
ARC
  5
150
100
AcDbEntity
  8
edge cuts plate
 62
256
370
-1
 48
1.0
  6
BYLAYER
100
AcDbCircle
 10
117.9041911350354894
 20
-45.5127627304869975
 30
0.0
 40
0.5
100
AcDbArc
 50
259.9999999999999432
 51
350.0000000000001137
  0
LINE
  5
151
100
AcDbEntity
  8
edge cuts plate
 62
256
370
-1
 48
1.0
  6
BYLAYER
100
AcDbLine
 10
29.6201954276400237
 20
-52.4730609827685157
 30
0.0
 11
29.968818398630642
 21
-48.4882821904015202
 31
0.0
  0
LINE
  5
152
100
AcDbEntity
  8
edge cuts plate
 62
256
370
-1
 48
1.0
  6
BYLAYER
100
AcDbLine
 10
23.2238877044468452
 20
-68.2185778713737676
 30
0.0
 11
23.5322852433757177
 21
-64.6935778713738046
 31
0.0
  0
LINE
  5
153
100
AcDbEntity
  8
edge cuts plate
 62
256
370
-1
 48
1.0
  6
BYLAYER
100
AcDbLine
 10
49.1744138961043049
 20
-70.4889849699503515
 30
0.0
 11
49.4828114350331631
 21
-66.9639849699502747
 31
0.0
  0
LINE
  5
154
100
AcDbEntity
  8
edge cuts plate
 62
256
370
-1
 48
1.0
  6
BYLAYER
100
AcDbLine
 10
24.1251721286261542
 20
-52.4691231611270581
 30
0.0
 11
29.105603968241315
 21
-52.9048544865569497
 31
0.0
  0
LINE
  5
155
100
AcDbEntity
  8
edge cuts plate
 62
256
370
-1
 48
1.0
  6
BYLAYER
100
AcDbLine
 10
46.0409138358009358
 20
-54.3865021132671345
 30
0.0
 11
51.0213456754161427
 21
-54.8222334386970189
 31
0.0
  0
LINE
  5
156
100
AcDbEntity
  8
edge cuts plate
 62
256
370
-1
 48
1.0
  6
BYLAYER
100
AcDbLine
 10
45.6091203320124947
 20
-53.8719106538684116
 30
0.0
 11
45.9577433030031699
 21
-49.8871318615014658
 31
0.0
  0
LINE
  5
157
100
AcDbEntity
  8
edge cuts plate
 62
256
370
-1
 48
1.0
  6
BYLAYER
100
AcDbLine
 10
31.620927820909948
 20
-47.1019977835018366
 30
0.0
 11
44.5714588961036
 21
-48.2350224392213747
 31
0.0
  0
ARC
  5
158
100
AcDbEntity
  8
edge cuts plate
 62
256
370
-1
 48
1.0
  6
BYLAYER
100
AcDbCircle
 10
23.0338422006973573
 20
-64.6499999999999773
 30
0.0
 40
0.5
100
AcDbArc
 50
355.0000000000002842
 51
90.0
  0
CIRCLE
  5
159
100
AcDbEntity
  8
edge cuts plate
 62
256
370
-1
 48
1.0
  6
BYLAYER
100
AcDbCircle
 10
-17.5678300858898453
 20
-65.192830085889824
 30
0.0
 40
1.05
  0
CIRCLE
  5
15A
100
AcDbEntity
  8
edge cuts plate
 62
256
370
-1
 48
1.0
  6
BYLAYER
100
AcDbCircle
 10
-12.8053300858899135
 20
8.042830085889932
 30
0.0
 40
1.05
  0
CIRCLE
  5
15B
100
AcDbEntity
  8
edge cuts plate
 62
256
370
-1
 48
1.0
  6
BYLAYER
100
AcDbCircle
 10
109.9708200368102666
 20
-3.7711686029856253
 30
0.0
 40
1.05
  0
CIRCLE
  5
15C
100
AcDbEntity
  8
edge cuts plate
 62
256
370
-1
 48
1.0
  6
BYLAYER
100
AcDbCircle
 10
133.493907731692758
 20
-46.6066775460115821
 30
0.0
 40
1.05
  0
CIRCLE
  5
15D
100
AcDbEntity
  8
edge cuts plate
 62
256
370
-1
 48
1.0
  6
BYLAYER
100
AcDbCircle
 10
127.3926643717387037
 20
-81.2085480903826067
 30
0.0
 40
1.05
  0
LINE
  5
15E
100
AcDbEntity
  8
edge cuts plate
 62
256
370
-1
 48
1.0
  6
BYLAYER
100
AcDbLine
 10
20.2257903554009673
 20
-70.5999999999999091
 30
0.0
 11
20.2257903554009673
 21
-71.4499999999998892
 31
0.0
  0
LINE
  5
15F
100
AcDbEntity
  8
edge cuts plate
 62
256
370
-1
 48
1.0
  6
BYLAYER
100
AcDbLine
 10
-13.4499999999999247
 20
-70.6999999999999318
 30
0.0
 11
-13.4499999999999247
 21
-71.5499999999999119
 31
0.0
  0
LINE
  5
160
100
AcDbEntity
  8
edge cuts plate
 62
256
370
-1
 48
1.0
  6
BYLAYER
100
AcDbLine
 10
-10.7875000000000156
 20
13.4499999999999886
 30
0.0
 11
-10.7875000000000156
 21
14.2999999999999545
 31
0.0
  0
LINE
  5
161
100
AcDbEntity
  8
edge cuts plate
 62
256
370
-1
 48
1.0
  6
BYLAYER
100
AcDbLine
 10
106.8544942445595893
 20
2.268907940641185
 30
0.0
 11
107.0020951955764872
 21
3.1059945307015369
 31
0.0
  0
LINE
  5
162
100
AcDbEntity
  8
edge cuts plate
 62
256
370
-1
 48
1.0
  6
BYLAYER
100
AcDbLine
 10
130.3775819394420807
 20
-40.5666010023848003
 30
0.0
 11
130.5251828904589786
 21
-39.7295144123244341
 31
0.0
  0
LINE
  5
163
100
AcDbEntity
  8
edge cuts plate
 62
256
370
-1
 48
1.0
  6
BYLAYER
100
AcDbLine
 10
124.4665444569722865
 20
-86.1831784263962533
 30
0.0
 11
124.3189435059554171
 21
-87.0202650164566052
 31
0.0
  0
LINE
  5
164
100
AcDbEntity
  8
edge cuts plate
 62
256
370
-1
 48
1.0
  6
BYLAYER
100
AcDbLine
 10
53.7815300781640246
 20
-73.7195032596466575
 30
0.0
 11
53.6339291271471268
 21
-74.5565898497070094
 31
0.0
  0
LINE
  5
165
100
AcDbEntity
  8
edge cuts plate
 62
256
370
-1
 48
1.0
  6
BYLAYER
100
AcDbLine
 10
18.1257903554009445
 20
-70.5999999999999091
 30
0.0
 11
18.1257903554009445
 21
-71.4499999999999034
 31
0.0
  0
LINE
  5
166
100
AcDbEntity
  8
edge cuts plate
 62
256
370
-1
 48
1.0
  6
BYLAYER
100
AcDbLine
 10
-15.5499999999999474
 20
-70.6999999999999318
 30
0.0
 11
-15.5499999999999474
 21
-71.5499999999999403
 31
0.0
  0
LINE
  5
167
100
AcDbEntity
  8
edge cuts plate
 62
256
370
-1
 48
1.0
  6
BYLAYER
100
AcDbLine
 10
-8.6874999999999929
 20
13.4499999999999886
 30
0.0
 11
-8.6874999999999929
 21
14.2999999999999829
 31
0.0
  0
LINE
  5
168
100
AcDbEntity
  8
edge cuts plate
 62
256
370
-1
 48
1.0
  6
BYLAYER
100
AcDbLine
 10
108.9225905258852549
 20
1.9042467675406272
 30
0.0
 11
109.0701914769021528
 21
2.7413333576009933
 31
0.0
  0
LINE
  5
169
100
AcDbEntity
  8
edge cuts plate
 62
256
370
-1
 48
1.0
  6
BYLAYER
100
AcDbLine
 10
132.4456782207677463
 20
-40.9312621754853581
 30
0.0
 11
132.5932791717846442
 21
-40.0941755854249777
 31
0.0
  0
LINE
  5
16A
100
AcDbEntity
  8
edge cuts plate
 62
256
370
-1
 48
1.0
  6
BYLAYER
100
AcDbLine
 10
122.3984481756466494
 20
-85.8185172532956955
 30
0.0
 11
122.2508472246297515
 21
-86.6556038433560616
 31
0.0
  0
LINE
  5
16B
100
AcDbEntity
  8
edge cuts plate
 62
256
370
-1
 48
1.0
  6
BYLAYER
100
AcDbLine
 10
51.7134337968383591
 20
-73.3548420865460997
 30
0.0
 11
51.5658328458214896
 21
-74.1919286766064658
 31
0.0
  0
ARC
  5
16C
100
AcDbEntity
  8
edge cuts plate
 62
256
370
-1
 48
1.0
  6
BYLAYER
100
AcDbCircle
 10
19.1757903554009559
 20
-70.5999999999999091
 30
0.0
 40
1.0500000000000131
100
AcDbArc
 50
0.0
 51
180.0
  0
ARC
  5
16D
100
AcDbEntity
  8
edge cuts plate
 62
256
370
-1
 48
1.0
  6
BYLAYER
100
AcDbCircle
 10
-14.4999999999999361
 20
-70.6999999999999318
 30
0.0
 40
1.0500000000000131
100
AcDbArc
 50
0.0
 51
180.0
  0
ARC
  5
16E
100
AcDbEntity
  8
edge cuts plate
 62
256
370
-1
 48
1.0
  6
BYLAYER
100
AcDbCircle
 10
-9.7375000000000043
 20
13.4499999999999886
 30
0.0
 40
1.0500000000000131
100
AcDbArc
 50
180.0
 51
0.0
  0
ARC
  5
16F
100
AcDbEntity
  8
edge cuts plate
 62
256
370
-1
 48
1.0
  6
BYLAYER
100
AcDbCircle
 10
107.8885423852224221
 20
2.0865773540909061
 30
0.0
 40
1.0500000000000131
100
AcDbArc
 50
170.0000000000000284
 51
350.0
  0
ARC
  5
170
100
AcDbEntity
  8
edge cuts plate
 62
256
370
-1
 48
1.0
  6
BYLAYER
100
AcDbCircle
 10
131.4116300801049135
 20
-40.7489315889350792
 30
0.0
 40
1.0500000000000131
100
AcDbArc
 50
170.0000000000000284
 51
350.0
  0
ARC
  5
171
100
AcDbEntity
  8
edge cuts plate
 62
256
370
-1
 48
1.0
  6
BYLAYER
100
AcDbCircle
 10
123.4324963163094822
 20
-86.0008478398459744
 30
0.0
 40
1.0500000000000131
100
AcDbArc
 50
350.0
 51
170.0
  0
ARC
  5
172
100
AcDbEntity
  8
edge cuts plate
 62
256
370
-1
 48
1.0
  6
BYLAYER
100
AcDbCircle
 10
52.7474819375011919
 20
-73.5371726730963786
 30
0.0
 40
1.0500000000000131
100
AcDbArc
 50
350.0
 51
170.0
  0
ARC
  5
173
100
AcDbEntity
  8
edge cuts plate
 62
256
370
-1
 48
1.0
  6
BYLAYER
100
AcDbCircle
 10
-16.2999999999999474
 20
-71.5499999999999403
 30
0.0
 40
0.75
100
AcDbArc
 50
180.0
 51
0.0
  0
ARC
  5
174
100
AcDbEntity
  8
edge cuts plate
 62
256
370
-1
 48
1.0
  6
BYLAYER
100
AcDbCircle
 10
-12.6999999999999247
 20
-71.5499999999999119
 30
0.0
 40
0.75
100
AcDbArc
 50
180.0
 51
0.0
  0
ARC
  5
175
100
AcDbEntity
  8
edge cuts plate
 62
256
370
-1
 48
1.0
  6
BYLAYER
100
AcDbCircle
 10
43.0124884569808046
 20
8.5249999999998494
 30
0.0
 40
3.0000000000001674
100
AcDbArc
 50
80.0000000000003837
 51
90.0
  0
ARC
  5
176
100
AcDbEntity
  8
edge cuts plate
 62
256
370
-1
 48
1.0
  6
BYLAYER
100
AcDbCircle
 10
-13.2875000000000245
 20
8.5249999999999932
 30
0.0
 40
3.0000000000000053
100
AcDbArc
 50
89.9999999999999005
 51
180.0
  0
LINE
  5
177
100
AcDbEntity
  8
edge cuts plate
 62
256
370
-1
 48
1.0
  6
BYLAYER
100
AcDbLine
 10
-16.2875000000000298
 20
8.5250000000000057
 30
0.0
 11
-16.2875000000000298
 21
-6.5249999999999844
 31
0.0
  0
LINE
  5
178
100
AcDbEntity
  8
edge cuts plate
 62
256
370
-1
 48
1.0
  6
BYLAYER
100
AcDbLine
 10
-17.2875000000000405
 20
-7.5249999999999844
 30
0.0
 11
-18.0499999999999474
 21
-7.5249999999999773
 31
0.0
  0
LINE
  5
179
100
AcDbEntity
  8
edge cuts plate
 62
256
370
-1
 48
1.0
  6
BYLAYER
100
AcDbLine
 10
-22.0500000000000469
 20
-26.5749999999999424
 30
0.0
 11
-22.8124999999999645
 21
-26.5749999999999353
 31
0.0
  0
LINE
  5
17A
100
AcDbEntity
  8
edge cuts plate
 62
256
370
-1
 48
1.0
  6
BYLAYER
100
AcDbLine
 10
-22.0500000000000895
 20
-49.6249999999999361
 30
0.0
 11
-22.8125000000000071
 21
-49.6249999999999503
 31
0.0
  0
ARC
  5
17B
100
AcDbEntity
  8
edge cuts plate
 62
256
370
-1
 48
1.0
  6
BYLAYER
100
AcDbCircle
 10
-18.0499999999999616
 20
-10.5249999999999808
 30
0.0
 40
3.0000000000000044
100
AcDbArc
 50
89.999999999999801
 51
180.0
  0
ARC
  5
17C
100
AcDbEntity
  8
edge cuts plate
 62
256
370
-1
 48
1.0
  6
BYLAYER
100
AcDbCircle
 10
-22.8124999999999787
 20
-29.5749999999999389
 30
0.0
 40
3.0000000000000044
100
AcDbArc
 50
89.999999999999801
 51
180.0
  0
ARC
  5
17D
100
AcDbEntity
  8
edge cuts plate
 62
256
370
-1
 48
1.0
  6
BYLAYER
100
AcDbCircle
 10
-22.8125000000000071
 20
-46.6249999999999432
 30
0.0
 40
3.0000000000000044
100
AcDbArc
 50
180.0
 51
270.0000000000002274
  0
ARC
  5
17E
100
AcDbEntity
  8
edge cuts plate
 62
256
370
-1
 48
1.0
  6
BYLAYER
100
AcDbCircle
 10
-18.0499999999999616
 20
-65.6749999999999261
 30
0.0
 40
3.0000000000000044
100
AcDbArc
 50
180.0
 51
270.0000000000002274
  0
ARC
  5
17F
100
AcDbEntity
  8
edge cuts plate
 62
256
370
-1
 48
1.0
  6
BYLAYER
100
AcDbCircle
 10
-17.2875000000000298
 20
-6.5249999999999844
 30
0.0
 40
1.0
100
AcDbArc
 50
269.9999999999993179
 51
0.0
  0
ARC
  5
180
100
AcDbEntity
  8
edge cuts plate
 62
256
370
-1
 48
1.0
  6
BYLAYER
100
AcDbCircle
 10
-22.0500000000000327
 20
-25.5749999999999424
 30
0.0
 40
1.0
100
AcDbArc
 50
269.9999999999993179
 51
0.0
  0
ARC
  5
181
100
AcDbEntity
  8
edge cuts plate
 62
256
370
-1
 48
1.0
  6
BYLAYER
100
AcDbCircle
 10
-22.0500000000000753
 20
-50.6249999999999361
 30
0.0
 40
1.0
100
AcDbArc
 50
0.0
 51
90.0000000000006253
  0
LINE
  5
182
100
AcDbEntity
  8
edge cuts plate
 62
256
370
-1
 48
1.0
  6
BYLAYER
100
AcDbLine
 10
-21.0500000000000327
 20
-25.5749999999999424
 30
0.0
 11
-21.0499999999999758
 21
-10.5249999999999702
 31
0.0
  0
LINE
  5
183
100
AcDbEntity
  8
edge cuts plate
 62
256
370
-1
 48
1.0
  6
BYLAYER
100
AcDbLine
 10
-25.8125000000000213
 20
-46.6249999999999503
 30
0.0
 11
-25.8124999999999822
 21
-29.5749999999999389
 31
0.0
  0
LINE
  5
184
100
AcDbEntity
  8
edge cuts plate
 62
256
370
-1
 48
1.0
  6
BYLAYER
100
AcDbLine
 10
-21.0499999999999616
 20
-65.6749999999999261
 30
0.0
 11
-21.0500000000000753
 21
-50.6249999999999361
 31
0.0
  0
ARC
  5
185
100
AcDbEntity
  8
edge cuts plate
 62
256
370
-1
 48
1.0
  6
BYLAYER
100
AcDbCircle
 10
22.7257903554009673
 20
-68.1749999999999403
 30
0.0
 40
0.5
100
AcDbArc
 50
270.0
 51
355.0000000000002842
  0
ARC
  5
186
100
AcDbEntity
  8
edge cuts plate
 62
256
370
-1
 48
1.0
  6
BYLAYER
100
AcDbCircle
 10
49.6725112451501616
 20
-70.5325628413241787
 30
0.0
 40
0.499999999999985
100
AcDbArc
 50
174.9999999999984652
 51
260.0000000000011369
  0
ARC
  5
187
100
AcDbEntity
  8
edge cuts plate
 62
256
370
-1
 48
1.0
  6
BYLAYER
100
AcDbCircle
 10
127.7837811145124505
 20
-81.7671206869784157
 30
0.0
 40
3.0000000000000737
100
AcDbArc
 50
259.9999999999994884
 51
349.9999999999989768
  0
LINE
  5
188
100
AcDbEntity
  8
edge cuts plate
 62
256
370
-1
 48
1.0
  6
BYLAYER
100
AcDbLine
 10
130.7382043735491379
 20
-82.2880652199792593
 30
0.0
 11
137.0069035873252403
 21
-46.7365053362385439
 31
0.0
  0
ARC
  5
189
100
AcDbEntity
  8
edge cuts plate
 62
256
370
-1
 48
1.0
  6
BYLAYER
100
AcDbCircle
 10
134.0524803282887092
 20
-46.2155608032378069
 30
0.0
 40
2.9999999999999285
100
AcDbArc
 50
350.0000000000006253
 51
80.0000000000013216
  0
ARC
  5
18A
100
AcDbEntity
  8
edge cuts plate
 62
256
370
-1
 48
1.0
  6
BYLAYER
100
AcDbCircle
 10
110.5293926334061041
 20
-3.3800518602118004
 30
0.0
 40
2.9999999999999916
100
AcDbArc
 50
350.0000000000000568
 51
79.99999999999973
  0
LINE
  5
18B
100
AcDbEntity
  8
edge cuts plate
 62
256
370
-1
 48
1.0
  6
BYLAYER
100
AcDbLine
 10
113.4838158924427205
 20
-3.9009963932125871
 30
0.0
 11
110.870410818555456
 21
-18.7223530760463142
 31
0.0
  0
ARC
  5
18C
100
AcDbEntity
  8
edge cuts plate
 62
256
370
-1
 48
1.0
  6
BYLAYER
100
AcDbCircle
 10
111.8552185715676615
 20
-18.8960012537132442
 30
0.0
 40
1.0
100
AcDbArc
 50
170.0000000000001421
 51
259.9999999999965894
  0
LINE
  5
18D
100
AcDbEntity
  8
edge cuts plate
 62
256
370
-1
 48
1.0
  6
BYLAYER
100
AcDbLine
 10
113.5951193395446808
 20
-22.6136401192504017
 30
0.0
 11
110.8704108160970634
 21
-38.0662300320363158
 31
0.0
  0
ARC
  5
18E
100
AcDbEntity
  8
edge cuts plate
 62
256
370
-1
 48
1.0
  6
BYLAYER
100
AcDbCircle
 10
111.8552185715676046
 20
-38.2398782101367232
 30
0.0
 40
1.0
100
AcDbArc
 50
169.9999999999996589
 51
259.9999999999997158
  0
ARC
  5
18F
100
AcDbEntity
  8
edge cuts plate
 62
256
370
-1
 48
1.0
  6
BYLAYER
100
AcDbCircle
 10
111.2719293104601945
 20
-22.2039990358099253
 30
0.0
 40
2.3590289800000002
100
AcDbArc
 50
349.9999999999997726
 51
80.0000000000000284
  0
ARC
  5
190
100
AcDbEntity
  8
edge cuts plate
 62
256
370
-1
 48
1.0
  6
BYLAYER
100
AcDbCircle
 10
-11.5375000000000156
 20
14.2999999999999545
 30
0.0
 40
0.75
100
AcDbArc
 50
0.0
 51
180.0
  0
ARC
  5
191
100
AcDbEntity
  8
edge cuts plate
 62
256
370
-1
 48
1.0
  6
BYLAYER
100
AcDbCircle
 10
-7.9375
 20
14.2999999999999829
 30
0.0
 40
0.75
100
AcDbArc
 50
0.0
 51
180.0
  0
ARC
  5
192
100
AcDbEntity
  8
edge cuts plate
 62
256
370
-1
 48
1.0
  6
BYLAYER
100
AcDbCircle
 10
17.3757903554009445
 20
-71.4499999999999034
 30
0.0
 40
0.75
100
AcDbArc
 50
180.0
 51
0.0
  0
ARC
  5
193
100
AcDbEntity
  8
edge cuts plate
 62
256
370
-1
 48
1.0
  6
BYLAYER
100
AcDbCircle
 10
20.9757903554009673
 20
-71.4499999999998892
 30
0.0
 40
0.75
100
AcDbArc
 50
180.0
 51
0.0
  0
ARC
  5
194
100
AcDbEntity
  8
edge cuts plate
 62
256
370
-1
 48
1.0
  6
BYLAYER
100
AcDbCircle
 10
50.8272270310623355
 20
-74.0616925433562727
 30
0.0
 40
0.7499999999999972
100
AcDbArc
 50
170.0000000000003695
 51
350.0000000000003411
  0
ARC
  5
195
100
AcDbEntity
  8
edge cuts plate
 62
256
370
-1
 48
1.0
  6
BYLAYER
100
AcDbCircle
 10
54.3725349419062951
 20
-74.6868259829572025
 30
0.0
 40
0.7500000000000112
100
AcDbArc
 50
170.0000000000005684
 51
350.0000000000005116
  0
ARC
  5
196
100
AcDbEntity
  8
edge cuts plate
 62
256
370
-1
 48
1.0
  6
BYLAYER
100
AcDbCircle
 10
121.5122414098705974
 20
-86.5253677101058543
 30
0.0
 40
0.7499999999999972
100
AcDbArc
 50
170.0000000000003695
 51
349.9999999999993179
  0
ARC
  5
197
100
AcDbEntity
  8
edge cuts plate
 62
256
370
-1
 48
1.0
  6
BYLAYER
100
AcDbCircle
 10
125.0575493207145712
 20
-87.1505011497067983
 30
0.0
 40
0.7499999999999972
100
AcDbArc
 50
170.0000000000003695
 51
350.0000000000003411
  0
ARC
  5
198
100
AcDbEntity
  8
edge cuts plate
 62
256
370
-1
 48
1.0
  6
BYLAYER
100
AcDbCircle
 10
133.3318849865437983
 20
-40.224411718675178
 30
0.0
 40
0.7499999999999986
100
AcDbArc
 50
349.9999999999997726
 51
169.9999999999997726
  0
ARC
  5
199
100
AcDbEntity
  8
edge cuts plate
 62
256
370
-1
 48
1.0
  6
BYLAYER
100
AcDbCircle
 10
129.7865770756998245
 20
-39.5992782790742339
 30
0.0
 40
0.7499999999999986
100
AcDbArc
 50
349.9999999999997726
 51
169.9999999999997726
  0
ARC
  5
19A
100
AcDbEntity
  8
edge cuts plate
 62
256
370
-1
 48
1.0
  6
BYLAYER
100
AcDbCircle
 10
109.8087972916613069
 20
2.6110972243508002
 30
0.0
 40
0.7499999999999977
100
AcDbArc
 50
350.0000000000001705
 51
170.0000000000001421
  0
ARC
  5
19B
100
AcDbEntity
  8
edge cuts plate
 62
256
370
-1
 48
1.0
  6
BYLAYER
100
AcDbCircle
 10
106.2634893808173331
 20
3.23623066395173
 30
0.0
 40
0.7499999999999972
100
AcDbArc
 50
350.0000000000003411
 51
170.0000000000003695
  0
ARC
  5
19C
100
AcDbEntity
  8
edge cuts plate
 62
256
370
-1
 48
1.0
  6
BYLAYER
100
AcDbCircle
 10
49.980908784079034
 20
-67.007562841324102
 30
0.0
 40
0.5
100
AcDbArc
 50
79.999999999999801
 51
175.0000000000002274
  0
ARC
  5
19D
100
AcDbEntity
  8
edge cuts plate
 62
256
370
-1
 48
1.0
  6
BYLAYER
100
AcDbCircle
 10
44.4385463884133429
 20
-49.754219353811223
 30
0.0
 40
1.5249999999999286
100
AcDbArc
 50
354.999999999997101
 51
84.9999999999971294
  0
ARC
  5
19E
100
AcDbEntity
  8
edge cuts plate
 62
256
370
-1
 48
1.0
  6
BYLAYER
100
AcDbCircle
 10
31.488015313220064
 20
-48.6211946980912373
 30
0.0
 40
1.5249999999994632
100
AcDbArc
 50
85.0000000000161862
 51
175.0000000000161435
  0
ARC
  5
19F
100
AcDbEntity
  8
edge cuts plate
 62
256
370
-1
 48
1.0
  6
BYLAYER
100
AcDbCircle
 10
46.0823128136060873
 20
-53.9133096316735489
 30
0.0
 40
0.4750000000000211
100
AcDbArc
 50
174.9999999999994316
 51
264.9999999999984652
  0
ARC
  5
1A0
100
AcDbEntity
  8
edge cuts plate
 62
256
370
-1
 48
1.0
  6
BYLAYER
100
AcDbCircle
 10
29.1470029460464488
 20
-52.4316620049633855
 30
0.0
 40
0.4749999999999919
100
AcDbArc
 50
265.0000000000003979
 51
355.0000000000008527
  0
ARC
  5
1A1
100
AcDbEntity
  8
edge cuts plate
 62
256
370
-1
 48
1.0
  6
BYLAYER
100
AcDbCircle
 10
51.06492354678997
 20
-54.324136089651148
 30
0.0
 40
0.5
100
AcDbArc
 50
265.0000000000002274
 51
349.9999999999996589
  0
ARC
  5
1A2
100
AcDbEntity
  8
edge cuts plate
 62
256
370
-1
 48
1.0
  6
BYLAYER
100
AcDbCircle
 10
24.1687499999999851
 20
-51.9710258120811872
 30
0.0
 40
0.5
100
AcDbArc
 50
180.0
 51
264.9999999999998295
  0
ENDSEC
  0
SECTION
  2
OBJECTS
  0
DICTIONARY
  5
C
100
AcDbDictionary
280
0
281
1
  3
ACAD_GROUP
350
D
  3
ACAD_LAYOUT
350
1A
  3
ACAD_MLINESTYLE
350
17
  3
ACAD_PLOTSETTINGS
350
19
  3
ACAD_PLOTSTYLENAME
350
E
  3
AcDbVariableDictionary
350
1A3
  3
QCAD_OBJECTS
350
1A4
  0
DICTIONARY
  5
D
100
AcDbDictionary
280
0
281
1
  0
ACDBDICTIONARYWDFLT
  5
E
100
AcDbDictionary
281
1
  3
Normal
350
F
100
AcDbDictionaryWithDefault
340
F
  0
ACDBPLACEHOLDER
  5
F
  0
DICTIONARY
  5
17
100
AcDbDictionary
280
0
281
1
  3
Standard
350
18
  0
MLINESTYLE
  5
18
100
AcDbMlineStyle
  2
STANDARD
 70
0
  3

 62
256
 51
90.0
 52
90.0
 71
2
 49
0.5
 62
256
  6
BYLAYER
 49
-0.5
 62
256
  6
BYLAYER
  0
DICTIONARY
  5
19
100
AcDbDictionary
280
0
281
1
  0
DICTIONARY
  5
1A
100
AcDbDictionary
281
1
  3
Layout1
350
1E
  3
Layout2
350
26
  3
Model
350
22
  0
LAYOUT
  5
1E
100
AcDbPlotSettings
  1

  2
none_device
  4

  6

 40
0.0
 41
0.0
 42
0.0
 43
0.0
 44
0.0
 45
0.0
 46
0.0
 47
0.0
 48
0.0
 49
0.0
140
0.0
141
0.0
142
1.0
143
1.0
 70
688
 72
0
 73
0
 74
5
  7

 75
16
147
1.0
148
0.0
149
0.0
100
AcDbLayout
  1
Layout1
 70
1
 71
1
 10
0.0
 20
0.0
 11
420.0
 21
297.0
 12
0.0
 22
0.0
 32
0.0
 14
100000000000000000000.0
 24
100000000000000000000.0
 34
100000000000000000000.0
 15
-100000000000000000000.0
 25
-100000000000000000000.0
 35
-100000000000000000000.0
146
0.0
 13
0.0
 23
0.0
 33
0.0
 16
1.0
 26
0.0
 36
0.0
 17
0.0
 27
1.0
 37
0.0
 76
0
330
1B
  0
LAYOUT
  5
22
100
AcDbPlotSettings
  1

  2
none_device
  4

  6

 40
0.0
 41
0.0
 42
0.0
 43
0.0
 44
0.0
 45
0.0
 46
0.0
 47
0.0
 48
0.0
 49
0.0
140
0.0
141
0.0
142
1.0
143
1.0
 70
1712
 72
0
 73
0
 74
0
  7

 75
0
147
1.0
148
0.0
149
0.0
100
AcDbLayout
  1
Model
 70
1
 71
0
 10
0.0
 20
0.0
 11
12.0
 21
9.0
 12
0.0
 22
0.0
 32
0.0
 14
0.0
 24
0.0
 34
0.0
 15
0.0
 25
0.0
 35
0.0
146
0.0
 13
0.0
 23
0.0
 33
0.0
 16
1.0
 26
0.0
 36
0.0
 17
0.0
 27
1.0
 37
0.0
 76
0
330
1F
  0
LAYOUT
  5
26
100
AcDbPlotSettings
  1

  2
none_device
  4

  6

 40
0.0
 41
0.0
 42
0.0
 43
0.0
 44
0.0
 45
0.0
 46
0.0
 47
0.0
 48
0.0
 49
0.0
140
0.0
141
0.0
142
1.0
143
1.0
 70
688
 72
0
 73
0
 74
5
  7

 75
16
147
1.0
148
0.0
149
0.0
100
AcDbLayout
  1
Layout2
 70
1
 71
2
 10
0.0
 20
0.0
 11
12.0
 21
9.0
 12
0.0
 22
0.0
 32
0.0
 14
0.0
 24
0.0
 34
0.0
 15
0.0
 25
0.0
 35
0.0
146
0.0
 13
0.0
 23
0.0
 33
0.0
 16
1.0
 26
0.0
 36
0.0
 17
0.0
 27
1.0
 37
0.0
 76
0
330
23
  0
DICTIONARY
  5
1A3
100
AcDbDictionary
281
1
  3
DIMASSOC
350
1A6
  3
HIDETEXT
350
1A5
  0
DICTIONARYVAR
  5
1A5
100
DictionaryVariables
280
0
  1
2
  0
DICTIONARYVAR
  5
1A6
100
DictionaryVariables
280
0
  1
1
  0
DICTIONARY
  5
1A4
100
AcDbDictionary
281
1
  3
ColorSettings/BackgroundColor
350
1A7
  3
ColorSettings/ColorMode
350
1A8
  3
Grid/DisplayGrid00
350
1A9
  3
Grid/DisplayGrid01
350
1AA
  3
Grid/DisplayGrid02
350
1AB
  3
Grid/DisplayGrid03
350
1AC
  3
Grid/GridSpacingX00
350
1AD
  3
Grid/GridSpacingX01
350
1AE
  3
Grid/GridSpacingX02
350
1AF
  3
Grid/GridSpacingX03
350
1B0
  3
Grid/GridSpacingY00
350
1B1
  3
Grid/GridSpacingY01
350
1B2
  3
Grid/GridSpacingY02
350
1B3
  3
Grid/GridSpacingY03
350
1B4
  3
Grid/IsometricGrid00
350
1B5
  3
Grid/IsometricGrid01
350
1B6
  3
Grid/IsometricGrid02
350
1B7
  3
Grid/IsometricGrid03
350
1B8
  3
Grid/IsometricProjection00
350
1B9
  3
Grid/IsometricProjection01
350
1BA
  3
Grid/IsometricProjection02
350
1BB
  3
Grid/IsometricProjection03
350
1BC
  3
Grid/MetaGridSpacingX00
350
1BD
  3
Grid/MetaGridSpacingX01
350
1BE
  3
Grid/MetaGridSpacingX02
350
1BF
  3
Grid/MetaGridSpacingX03
350
1C0
  3
Grid/MetaGridSpacingY00
350
1C1
  3
Grid/MetaGridSpacingY01
350
1C2
  3
Grid/MetaGridSpacingY02
350
1C3
  3
Grid/MetaGridSpacingY03
350
1C4
  3
MultiPageSettings/Columns
350
1C5
  3
MultiPageSettings/GlueMarginsBottom
350
1C6
  3
MultiPageSettings/GlueMarginsLeft
350
1C7
  3
MultiPageSettings/GlueMarginsRight
350
1C8
  3
MultiPageSettings/GlueMarginsTop
350
1C9
  3
MultiPageSettings/PrintCropMarks
350
1CA
  3
MultiPageSettings/Rows
350
1CB
  3
PageSettings/OffsetX
350
1CC
  3
PageSettings/OffsetY
350
1CD
  3
PageSettings/PageOrientation
350
1CE
  3
PageSettings/PaperHeight
350
1CF
  3
PageSettings/PaperWidth
350
1D0
  3
PageSettings/Scale
350
1D1
  3
PageSettings/ShowPaperBorders
350
1D2
  3
PageTagSettings/EnablePageTags
350
1D3
  3
PageTagSettings/TagAlignment
350
1D4
  3
PageTagSettings/TagFont
350
1D5
  3
PageTagSettings/TagPosition
350
1D6
  3
QCADVersion
350
1D7
  3
UnitSettings/PaperUnit
350
1D8
  3
ViewportCenter
350
1D9
  3
ViewportHeight
350
1DA
  3
ViewportWidth
350
1DB
  0
XRECORD
  5
1A7
330
1A4
100
AcDbXrecord
280
1
1000
Wit
  0
XRECORD
  5
1A8
330
1A4
100
AcDbXrecord
280
1
1000
FullColor
  0
XRECORD
  5
1A9
330
1A4
100
AcDbXrecord
280
1
290
1
  0
XRECORD
  5
1AA
330
1A4
100
AcDbXrecord
280
1
290
1
  0
XRECORD
  5
1AB
330
1A4
100
AcDbXrecord
280
1
290
1
  0
XRECORD
  5
1AC
330
1A4
100
AcDbXrecord
280
1
290
1
  0
XRECORD
  5
1AD
330
1A4
100
AcDbXrecord
280
1
1000
auto
  0
XRECORD
  5
1AE
330
1A4
100
AcDbXrecord
280
1
1000
auto
  0
XRECORD
  5
1AF
330
1A4
100
AcDbXrecord
280
1
1000
auto
  0
XRECORD
  5
1B0
330
1A4
100
AcDbXrecord
280
1
1000
auto
  0
XRECORD
  5
1B1
330
1A4
100
AcDbXrecord
280
1
1000
auto
  0
XRECORD
  5
1B2
330
1A4
100
AcDbXrecord
280
1
1000
auto
  0
XRECORD
  5
1B3
330
1A4
100
AcDbXrecord
280
1
1000
auto
  0
XRECORD
  5
1B4
330
1A4
100
AcDbXrecord
280
1
1000
auto
  0
XRECORD
  5
1B5
330
1A4
100
AcDbXrecord
280
1
290
0
  0
XRECORD
  5
1B6
330
1A4
100
AcDbXrecord
280
1
290
0
  0
XRECORD
  5
1B7
330
1A4
100
AcDbXrecord
280
1
290
0
  0
XRECORD
  5
1B8
330
1A4
100
AcDbXrecord
280
1
290
0
  0
XRECORD
  5
1B9
330
1A4
100
AcDbXrecord
280
1
 90
65537
  0
XRECORD
  5
1BA
330
1A4
100
AcDbXrecord
280
1
 90
65537
  0
XRECORD
  5
1BB
330
1A4
100
AcDbXrecord
280
1
 90
65537
  0
XRECORD
  5
1BC
330
1A4
100
AcDbXrecord
280
1
 90
65537
  0
XRECORD
  5
1BD
330
1A4
100
AcDbXrecord
280
1
1000
auto
  0
XRECORD
  5
1BE
330
1A4
100
AcDbXrecord
280
1
1000
auto
  0
XRECORD
  5
1BF
330
1A4
100
AcDbXrecord
280
1
1000
auto
  0
XRECORD
  5
1C0
330
1A4
100
AcDbXrecord
280
1
1000
auto
  0
XRECORD
  5
1C1
330
1A4
100
AcDbXrecord
280
1
1000
auto
  0
XRECORD
  5
1C2
330
1A4
100
AcDbXrecord
280
1
1000
auto
  0
XRECORD
  5
1C3
330
1A4
100
AcDbXrecord
280
1
1000
auto
  0
XRECORD
  5
1C4
330
1A4
100
AcDbXrecord
280
1
1000
auto
  0
XRECORD
  5
1C5
330
1A4
100
AcDbXrecord
280
1
 90
1
  0
XRECORD
  5
1C6
330
1A4
100
AcDbXrecord
280
1
 40
10.0
  0
XRECORD
  5
1C7
330
1A4
100
AcDbXrecord
280
1
 40
10.0
  0
XRECORD
  5
1C8
330
1A4
100
AcDbXrecord
280
1
 40
10.0
  0
XRECORD
  5
1C9
330
1A4
100
AcDbXrecord
280
1
 40
10.0
  0
XRECORD
  5
1CA
330
1A4
100
AcDbXrecord
280
1
290
0
  0
XRECORD
  5
1CB
330
1A4
100
AcDbXrecord
280
1
 90
1
  0
XRECORD
  5
1CC
330
1A4
100
AcDbXrecord
280
1
 40
0.0
  0
XRECORD
  5
1CD
330
1A4
100
AcDbXrecord
280
1
 40
0.0
  0
XRECORD
  5
1CE
330
1A4
100
AcDbXrecord
280
1
1000
Portrait
  0
XRECORD
  5
1CF
330
1A4
100
AcDbXrecord
280
1
 40
297.0
  0
XRECORD
  5
1D0
330
1A4
100
AcDbXrecord
280
1
 40
210.0
  0
XRECORD
  5
1D1
330
1A4
100
AcDbXrecord
280
1
1000
1:1
  0
XRECORD
  5
1D2
330
1A4
100
AcDbXrecord
280
1
290
1
  0
XRECORD
  5
1D3
330
1A4
100
AcDbXrecord
280
1
290
0
  0
XRECORD
  5
1D4
330
1A4
100
AcDbXrecord
280
1
1000
Inside
  0
XRECORD
  5
1D5
330
1A4
100
AcDbXrecord
280
1
1000
Arial,10,-1,5,50,0,0,0,0,0
  0
XRECORD
  5
1D6
330
1A4
100
AcDbXrecord
280
1
1000
TopLeft
  0
XRECORD
  5
1D7
330
1A4
100
AcDbXrecord
280
1
1000
3.27.1
  0
XRECORD
  5
1D8
330
1A4
100
AcDbXrecord
280
1
 90
4
  0
XRECORD
  5
1DA
330
1A4
100
AcDbXrecord
280
1
 40
112.8959999999999866
  0
XRECORD
  5
1DB
330
1A4
100
AcDbXrecord
280
1
 40
212.2559999999999718
  0
ENDSEC
  0
EOF
