999
dxflib 3.26.4.0
  0
SECTION
  2
HEADER
  9
$ACADVER
  1
AC1015
  9
$HANDSEED
  5
FFFF
  9
$DIMADEC
 70
0
  9
$DIMASZ
 40
2.5
  9
$DIMATFIT
 70
0
  9
$DIMAUNIT
 70
0
  9
$DIMAZIN
 70
2
  9
$DIMBLK
  1
0
  9
$DIMBLK1
  1
0
  9
$DIMBLK2
  1
0
  9
$DIMDEC
 70
4
  9
$DIMDLI
 40
5.0
  9
$DIMDSEP
 70
46
  9
$DIMEXE
 40
1.25
  9
$DIMEXO
 40
0.625
  9
$DIMGAP
 40
0.625
  9
$DIMLFAC
 40
1.0
  9
$DIMLUNIT
 70
2
  9
$DIMSCALE
 40
1.0
  9
$DIMTAD
 70
1
  9
$DIMTIH
 70
0
  9
$DIMTSZ
 40
0.0
  9
$DIMTXT
 40
2.5
  9
$DIMZIN
 70
8
  9
$DWGCODEPAGE
  3
ANSI_1252
  9
$INSUNITS
 70
4
  9
$LTSCALE
 40
1.0
  9
$MAXACTVP
 70
64
  9
$MEASUREMENT
 70
1
  9
$MIRRTEXT
 70
0
  9
$PDMODE
 70
0
  9
$PDSIZE
 40
0.0
  0
ENDSEC
  0
SECTION
  2
TABLES
  0
TABLE
  2
VPORT
  5
8
100
AcDbSymbolTable
 70
1
  0
VPORT
  5
30
100
AcDbSymbolTableRecord
100
AcDbViewportTableRecord
  2
*Active
 70
0
 10
0.0
 20
0.0
 11
1.0
 21
1.0
 12
286.3055555555554861
 22
148.5
 13
0.0
 23
0.0
 14
10.0
 24
10.0
 15
10.0
 25
10.0
 16
0.0
 26
0.0
 36
1.0
 17
0.0
 27
0.0
 37
0.0
 40
297.0
 41
1.92798353909465
 42
50.0
 43
0.0
 44
0.0
 50
0.0
 51
0.0
 71
0
 72
100
 73
1
 74
3
 75
1
 76
1
 77
0
 78
0
281
0
 65
1
110
0.0
120
0.0
130
0.0
111
1.0
121
0.0
131
0.0
112
0.0
122
1.0
132
0.0
 79
0
146
0.0
  0
ENDTAB
  0
TABLE
  2
LTYPE
  5
5
100
AcDbSymbolTable
 70
41
  0
LTYPE
  5
16
100
AcDbSymbolTableRecord
100
AcDbLinetypeTableRecord
  2
Continuous
 70
0
  3
Solid line
 72
65
 73
0
 40
0.0
  0
LTYPE
  5
31
100
AcDbSymbolTableRecord
100
AcDbLinetypeTableRecord
  2
HIDDEN2
 70
0
  3
Hidden (.5x) _ _ _ _ _ _ _ _ _ _ _ _ _ _ _ _ _ 
 72
65
 73
2
 40
4.7624999999999993
 49
3.1749999999999998
 74
0
 49
-1.5874999999999999
 74
0
  0
LTYPE
  5
32
100
AcDbSymbolTableRecord
100
AcDbLinetypeTableRecord
  2
BORDER
 70
0
  3
Border __ __ . __ __ . __ __ . __ __ . __ __ .
 72
65
 73
6
 40
44.4499999999999957
 49
12.6999999999999993
 74
0
 49
-6.3499999999999996
 74
0
 49
12.6999999999999993
 74
0
 49
-6.2999999999999998
 74
0
 49
0.1
 74
0
 49
-6.2999999999999998
 74
0
  0
LTYPE
  5
33
100
AcDbSymbolTableRecord
100
AcDbLinetypeTableRecord
  2
DIVIDE
 70
0
  3
Divide ____ . . ____ . . ____ . . ____ . . ____
 72
65
 73
6
 40
31.7500000000000036
 49
12.6999999999999993
 74
0
 49
-6.2999999999999998
 74
0
 49
0.1
 74
0
 49
-6.25
 74
0
 49
0.1
 74
0
 49
-6.2999999999999998
 74
0
  0
LTYPE
  5
34
100
AcDbSymbolTableRecord
100
AcDbLinetypeTableRecord
  2
BORDER2
 70
0
  3
Border (.5x) __.__.__.__.__.__.__.__.__.__.__.
 72
65
 73
6
 40
22.2250000000000014
 49
6.3499999999999996
 74
0
 49
-3.1749999999999998
 74
0
 49
6.3499999999999996
 74
0
 49
-3.125
 74
0
 49
0.1
 74
0
 49
-3.125
 74
0
  0
LTYPE
  5
35
100
AcDbSymbolTableRecord
100
AcDbLinetypeTableRecord
  2
DOT2
 70
0
  3
Dot (.5x) ........................................
 72
65
 73
2
 40
3.1749999999999998
 49
0.1
 74
0
 49
-3.0749999999999997
 74
0
  0
LTYPE
  5
36
100
AcDbSymbolTableRecord
100
AcDbLinetypeTableRecord
  2
ACAD_ISO07W100
 70
0
  3
ISO dot . . . . . . . . . . . . . . . . . . . . 
 72
65
 73
2
 40
3.0
 49
0.1
 74
0
 49
-2.8999999999999999
 74
0
  0
LTYPE
  5
37
100
AcDbSymbolTableRecord
100
AcDbLinetypeTableRecord
  2
DIVIDE2
 70
0
  3
Divide (.5x) __..__..__..__..__..__..__..__.._
 72
65
 73
6
 40
15.8749999999999982
 49
6.3499999999999996
 74
0
 49
-3.125
 74
0
 49
0.1
 74
0
 49
-3.0750000000000002
 74
0
 49
0.1
 74
0
 49
-3.125
 74
0
  0
LTYPE
  5
38
100
AcDbSymbolTableRecord
100
AcDbLinetypeTableRecord
  2
ACAD_ISO11W100
 70
0
  3
ISO double-dash dot __ __ . __ __ . __ __ . __ _
 72
65
 73
6
 40
33.0
 49
12.0
 74
0
 49
-3.0
 74
0
 49
12.0
 74
0
 49
-2.9500000000000002
 74
0
 49
0.1
 74
0
 49
-2.9500000000000002
 74
0
  0
LTYPE
  5
39
100
AcDbSymbolTableRecord
100
AcDbLinetypeTableRecord
  2
PHANTOM2
 70
0
  3
Phantom (.5x) ___ _ _ ___ _ _ ___ _ _ ___ _ _
 72
65
 73
6
 40
31.7500000000000036
 49
15.875
 74
0
 49
-3.1749999999999998
 74
0
 49
3.1749999999999998
 74
0
 49
-3.1749999999999998
 74
0
 49
3.1749999999999998
 74
0
 49
-3.1749999999999998
 74
0
  0
LTYPE
  5
3A
100
AcDbSymbolTableRecord
100
AcDbLinetypeTableRecord
  2
ACAD_ISO13W100
 70
0
  3
ISO double-dash double-dot __ __ . . __ __ . . _
 72
65
 73
8
 40
36.0000000000000071
 49
12.0
 74
0
 49
-3.0
 74
0
 49
12.0
 74
0
 49
-2.9500000000000002
 74
0
 49
0.1
 74
0
 49
-2.9000000000000004
 74
0
 49
0.1
 74
0
 49
-2.9500000000000002
 74
0
  0
LTYPE
  5
3B
100
AcDbSymbolTableRecord
100
AcDbLinetypeTableRecord
  2
ACAD_ISO15W100
 70
0
  3
ISO double-dash triple-dot __ __ . . . __ __ . .
 72
65
 73
10
 40
39.0000000000000071
 49
12.0
 74
0
 49
-3.0
 74
0
 49
12.0
 74
0
 49
-2.9500000000000002
 74
0
 49
0.1
 74
0
 49
-2.9000000000000004
 74
0
 49
0.1
 74
0
 49
-2.9000000000000004
 74
0
 49
0.1
 74
0
 49
-2.9500000000000002
 74
0
  0
LTYPE
  5
3C
100
AcDbSymbolTableRecord
100
AcDbLinetypeTableRecord
  2
DOT
 70
0
  3
Dot . . . . . . . . . . . . . . . . . . . . . . . .
 72
65
 73
2
 40
6.3499999999999996
 49
0.1
 74
0
 49
-6.25
 74
0
  0
LTYPE
  5
3D
100
AcDbSymbolTableRecord
100
AcDbLinetypeTableRecord
  2
PHANTOMX2
 70
0
  3
Phantom (2x) ____________    ____    ____   _
 72
65
 73
6
 40
127.0000000000000142
 49
63.5
 74
0
 49
-12.6999999999999993
 74
0
 49
12.6999999999999993
 74
0
 49
-12.6999999999999993
 74
0
 49
12.6999999999999993
 74
0
 49
-12.6999999999999993
 74
0
  0
LTYPE
  5
3E
100
AcDbSymbolTableRecord
100
AcDbLinetypeTableRecord
  2
DASHDOT2
 70
0
  3
Dash dot (.5x) _._._._._._._._._._._._._._._.
 72
65
 73
4
 40
12.6999999999999993
 49
6.3499999999999996
 74
0
 49
-3.125
 74
0
 49
0.1
 74
0
 49
-3.125
 74
0
  0
LTYPE
  5
3F
100
AcDbSymbolTableRecord
100
AcDbLinetypeTableRecord
  2
ACAD_ISO12W100
 70
0
  3
ISO dash double-dot __ . . __ . . __ . . __ . . 
 72
65
 73
6
 40
21.0
 49
12.0
 74
0
 49
-2.9500000000000002
 74
0
 49
0.1
 74
0
 49
-2.9000000000000004
 74
0
 49
0.1
 74
0
 49
-2.9500000000000002
 74
0
  0
LTYPE
  5
40
100
AcDbSymbolTableRecord
100
AcDbLinetypeTableRecord
  2
DOTX2
 70
0
  3
Dot (2x) .  .  .  .  .  .  .  .  .  .  .  .  .  .
 72
65
 73
2
 40
12.6999999999999993
 49
0.1
 74
0
 49
-12.5999999999999996
 74
0
  0
LTYPE
  5
41
100
AcDbSymbolTableRecord
100
AcDbLinetypeTableRecord
  2
ACAD_ISO09W100
 70
0
  3
ISO long-dash double-short-dash ____ __ __ ____
 72
65
 73
6
 40
45.0
 49
24.0
 74
0
 49
-3.0
 74
0
 49
6.0
 74
0
 49
-3.0
 74
0
 49
6.0
 74
0
 49
-3.0
 74
0
  0
LTYPE
  5
42
100
AcDbSymbolTableRecord
100
AcDbLinetypeTableRecord
  2
CENTER2
 70
0
  3
Center (.5x) ___ _ ___ _ ___ _ ___ _ ___ _ ___
 72
65
 73
4
 40
28.5750000000000028
 49
19.0500000000000007
 74
0
 49
-3.1749999999999998
 74
0
 49
3.1749999999999998
 74
0
 49
-3.1749999999999998
 74
0
  0
LTYPE
  5
43
100
AcDbSymbolTableRecord
100
AcDbLinetypeTableRecord
  2
DIVIDEX2
 70
0
  3
Divide (2x) ________  .  .  ________  .  .  _
 72
65
 73
6
 40
63.5
 49
25.3999999999999986
 74
0
 49
-12.6499999999999986
 74
0
 49
0.1
 74
0
 49
-12.5999999999999979
 74
0
 49
0.1
 74
0
 49
-12.6499999999999986
 74
0
  0
LTYPE
  5
44
100
AcDbSymbolTableRecord
100
AcDbLinetypeTableRecord
  2
DASHEDX2
 70
0
  3
Dashed (2x) ____  ____  ____  ____  ____  ___
 72
65
 73
2
 40
38.0999999999999943
 49
25.3999999999999986
 74
0
 49
-12.6999999999999993
 74
0
  0
LTYPE
  5
45
100
AcDbSymbolTableRecord
100
AcDbLinetypeTableRecord
  2
BORDERX2
 70
0
  3
Border (2x) ____  ____  .  ____  ____  .  ___
 72
65
 73
6
 40
88.8999999999999773
 49
25.3999999999999986
 74
0
 49
-12.6999999999999993
 74
0
 49
25.3999999999999986
 74
0
 49
-12.6499999999999986
 74
0
 49
0.1
 74
0
 49
-12.6499999999999986
 74
0
  0
LTYPE
  5
46
100
AcDbSymbolTableRecord
100
AcDbLinetypeTableRecord
  2
CENTER
 70
0
  3
Center ____ _ ____ _ ____ _ ____ _ ____ _ ____
 72
65
 73
4
 40
50.8000000000000043
 49
31.75
 74
0
 49
-6.3499999999999996
 74
0
 49
6.3499999999999996
 74
0
 49
-6.3499999999999996
 74
0
  0
LTYPE
  5
47
100
AcDbSymbolTableRecord
100
AcDbLinetypeTableRecord
  2
ACAD_ISO08W100
 70
0
  3
ISO long-dash short-dash ____ __ ____ __ ____ _
 72
65
 73
4
 40
36.0
 49
24.0
 74
0
 49
-3.0
 74
0
 49
6.0
 74
0
 49
-3.0
 74
0
  0
LTYPE
  5
14
100
AcDbSymbolTableRecord
100
AcDbLinetypeTableRecord
  2
BYBLOCK
 70
0
  3

 72
65
 73
0
 40
0.0
  0
LTYPE
  5
48
100
AcDbSymbolTableRecord
100
AcDbLinetypeTableRecord
  2
PHANTOM
 70
0
  3
Phantom ______  __  __  ______  __  __  ______ 
 72
65
 73
6
 40
63.5000000000000071
 49
31.75
 74
0
 49
-6.3499999999999996
 74
0
 49
6.3499999999999996
 74
0
 49
-6.3499999999999996
 74
0
 49
6.3499999999999996
 74
0
 49
-6.3499999999999996
 74
0
  0
LTYPE
  5
49
100
AcDbSymbolTableRecord
100
AcDbLinetypeTableRecord
  2
ACAD_ISO04W100
 70
0
  3
ISO long-dash dot ____ . ____ . ____ . ____ . _
 72
65
 73
4
 40
30.0
 49
24.0
 74
0
 49
-2.9500000000000002
 74
0
 49
0.1
 74
0
 49
-2.9500000000000002
 74
0
  0
LTYPE
  5
4A
100
AcDbSymbolTableRecord
100
AcDbLinetypeTableRecord
  2
DASHDOT
 70
0
  3
Dash dot __ . __ . __ . __ . __ . __ . __ . __
 72
65
 73
4
 40
25.4000000000000021
 49
12.6999999999999993
 74
0
 49
-6.2999999999999998
 74
0
 49
0.1
 74
0
 49
-6.2999999999999998
 74
0
  0
LTYPE
  5
4B
100
AcDbSymbolTableRecord
100
AcDbLinetypeTableRecord
  2
DASHDOTX2
 70
0
  3
Dash dot (2x) ____  .  ____  .  ____  .  ___
 72
65
 73
4
 40
50.7999999999999972
 49
25.3999999999999986
 74
0
 49
-12.6499999999999986
 74
0
 49
0.1
 74
0
 49
-12.6499999999999986
 74
0
  0
LTYPE
  5
4C
100
AcDbSymbolTableRecord
100
AcDbLinetypeTableRecord
  2
DASHED2
 70
0
  3
Dashed (.5x) _ _ _ _ _ _ _ _ _ _ _ _ _ _ _ _ _ 
 72
65
 73
2
 40
9.5249999999999986
 49
6.3499999999999996
 74
0
 49
-3.1749999999999998
 74
0
  0
LTYPE
  5
4D
100
AcDbSymbolTableRecord
100
AcDbLinetypeTableRecord
  2
HIDDEN
 70
0
  3
Hidden __ __ __ __ __ __ __ __ __ __ __ __ __ __
 72
65
 73
2
 40
9.5249999999999986
 49
6.3499999999999996
 74
0
 49
-3.1749999999999998
 74
0
  0
LTYPE
  5
4E
100
AcDbSymbolTableRecord
100
AcDbLinetypeTableRecord
  2
ACAD_ISO05W100
 70
0
  3
ISO long-dash double-dot ____ .. ____ .. ____ . 
 72
65
 73
6
 40
33.0000000000000071
 49
24.0
 74
0
 49
-2.9500000000000002
 74
0
 49
0.1
 74
0
 49
-2.9000000000000004
 74
0
 49
0.1
 74
0
 49
-2.9500000000000002
 74
0
  0
LTYPE
  5
4F
100
AcDbSymbolTableRecord
100
AcDbLinetypeTableRecord
  2
HIDDENX2
 70
0
  3
Hidden (2x) ____ ____ ____ ____ ____ ____ ____ 
 72
65
 73
2
 40
19.0499999999999972
 49
12.6999999999999993
 74
0
 49
-6.3499999999999996
 74
0
  0
LTYPE
  5
50
100
AcDbSymbolTableRecord
100
AcDbLinetypeTableRecord
  2
DASHED
 70
0
  3
Dashed __ __ __ __ __ __ __ __ __ __ __ __ __ _
 72
65
 73
2
 40
19.0499999999999972
 49
12.6999999999999993
 74
0
 49
-6.3499999999999996
 74
0
  0
LTYPE
  5
51
100
AcDbSymbolTableRecord
100
AcDbLinetypeTableRecord
  2
ACAD_ISO02W100
 70
0
  3
ISO dash __ __ __ __ __ __ __ __ __ __ __ __ __
 72
65
 73
2
 40
15.0
 49
12.0
 74
0
 49
-3.0
 74
0
  0
LTYPE
  5
52
100
AcDbSymbolTableRecord
100
AcDbLinetypeTableRecord
  2
CENTERX2
 70
0
  3
Center (2x) ________  __  ________  __  _____
 72
65
 73
4
 40
101.6000000000000085
 49
63.5
 74
0
 49
-12.6999999999999993
 74
0
 49
12.6999999999999993
 74
0
 49
-12.6999999999999993
 74
0
  0
LTYPE
  5
53
100
AcDbSymbolTableRecord
100
AcDbLinetypeTableRecord
  2
ACAD_ISO10W100
 70
0
  3
ISO dash dot __ . __ . __ . __ . __ . __ . __ . 
 72
65
 73
4
 40
18.0
 49
12.0
 74
0
 49
-2.9500000000000002
 74
0
 49
0.1
 74
0
 49
-2.9500000000000002
 74
0
  0
LTYPE
  5
54
100
AcDbSymbolTableRecord
100
AcDbLinetypeTableRecord
  2
ACAD_ISO03W100
 70
0
  3
ISO dash space __    __    __    __    __    __
 72
65
 73
2
 40
30.0
 49
12.0
 74
0
 49
-18.0
 74
0
  0
LTYPE
  5
55
100
AcDbSymbolTableRecord
100
AcDbLinetypeTableRecord
  2
ACAD_ISO14W100
 70
0
  3
ISO dash triple-dot __ . . . __ . . . __ . . . _
 72
65
 73
8
 40
24.0000000000000036
 49
12.0
 74
0
 49
-2.9500000000000002
 74
0
 49
0.1
 74
0
 49
-2.9000000000000004
 74
0
 49
0.1
 74
0
 49
-2.9000000000000004
 74
0
 49
0.1
 74
0
 49
-2.9500000000000002
 74
0
  0
LTYPE
  5
15
100
AcDbSymbolTableRecord
100
AcDbLinetypeTableRecord
  2
BYLAYER
 70
0
  3

 72
65
 73
0
 40
0.0
  0
LTYPE
  5
56
100
AcDbSymbolTableRecord
100
AcDbLinetypeTableRecord
  2
ACAD_ISO06W100
 70
0
  3
ISO long-dash triple-dot ____ ... ____ ... ____
 72
65
 73
8
 40
36.0000000000000071
 49
24.0
 74
0
 49
-2.9500000000000002
 74
0
 49
0.1
 74
0
 49
-2.9000000000000004
 74
0
 49
0.1
 74
0
 49
-2.9000000000000004
 74
0
 49
0.1
 74
0
 49
-2.9500000000000002
 74
0
  0
ENDTAB
  0
TABLE
  2
LAYER
  5
2
100
AcDbSymbolTable
 70
7
  0
LAYER
  5
10
100
AcDbSymbolTableRecord
100
AcDbLayerTableRecord
  2
0
 70
1
 62
7
420
16777215
  6
Continuous
370
-3
390
F
  0
LAYER
  5
57
100
AcDbSymbolTableRecord
100
AcDbLayerTableRecord
  2
edge cuts
 70
0
 62
54
420
8421376
  6
Continuous
370
5
390
F
  0
LAYER
  5
58
100
AcDbSymbolTableRecord
100
AcDbLayerTableRecord
  2
traces front
 70
1
 62
1
420
16711680
  6
Continuous
370
5
390
F
  0
LAYER
  5
59
100
AcDbSymbolTableRecord
100
AcDbLayerTableRecord
  2
coponent footprints
 70
1
 62
7
420
0
  6
Continuous
370
5
390
F
  0
LAYER
  5
5A
100
AcDbSymbolTableRecord
100
AcDbLayerTableRecord
  2
functions
 70
1
 62
1
420
16711680
  6
Continuous
370
25
390
F
  0
LAYER
  5
5B
100
AcDbSymbolTableRecord
100
AcDbLayerTableRecord
  2
traces back
 70
1
 62
3
420
65280
  6
Continuous
370
5
390
F
  0
LAYER
  5
5C
100
AcDbSymbolTableRecord
100
AcDbLayerTableRecord
  2
Helplines
 70
1
 62
4
420
65535
  6
Continuous
370
5
390
F
  0
ENDTAB
  0
TABLE
  2
STYLE
  5
3
100
AcDbSymbolTable
 70
49
  0
STYLE
  5
5D
100
AcDbSymbolTableRecord
100
AcDbTextStyleTableRecord
  2
Standard
 70
0
 40
0.0
 41
1.0
 50
0.0
 71
0
 42
2.5
  3

  4

1001
ACAD
1000
txt
1071
0
  0
STYLE
  5
5E
100
AcDbSymbolTableRecord
100
AcDbTextStyleTableRecord
  2
textstyle0
 70
0
 40
0.0
 41
1.0
 50
0.0
 71
0
 42
5.0
  3

  4

1001
ACAD
1000
Arial Rounded MT Bold
1071
0
  0
STYLE
  5
5F
100
AcDbSymbolTableRecord
100
AcDbTextStyleTableRecord
  2
textstyle1
 70
0
 40
0.0
 41
1.0
 50
0.0
 71
0
 42
5.0
  3

  4

1001
ACAD
1000
Arial Rounded MT Bold
1071
0
  0
STYLE
  5
60
100
AcDbSymbolTableRecord
100
AcDbTextStyleTableRecord
  2
textstyle2
 70
0
 40
0.0
 41
1.0
 50
0.0
 71
0
 42
5.0
  3

  4

1001
ACAD
1000
Arial Rounded MT Bold
1071
0
  0
STYLE
  5
61
100
AcDbSymbolTableRecord
100
AcDbTextStyleTableRecord
  2
textstyle3
 70
0
 40
0.0
 41
1.0
 50
0.0
 71
0
 42
5.0
  3

  4

1001
ACAD
1000
Arial Rounded MT Bold
1071
0
  0
STYLE
  5
62
100
AcDbSymbolTableRecord
100
AcDbTextStyleTableRecord
  2
textstyle4
 70
0
 40
0.0
 41
1.0
 50
0.0
 71
0
 42
5.0
  3

  4

1001
ACAD
1000
Arial Rounded MT Bold
1071
0
  0
STYLE
  5
63
100
AcDbSymbolTableRecord
100
AcDbTextStyleTableRecord
  2
textstyle5
 70
0
 40
0.0
 41
1.0
 50
0.0
 71
0
 42
5.0
  3

  4

1001
ACAD
1000
Arial Rounded MT Bold
1071
0
  0
STYLE
  5
64
100
AcDbSymbolTableRecord
100
AcDbTextStyleTableRecord
  2
textstyle6
 70
0
 40
0.0
 41
1.0
 50
0.0
 71
0
 42
5.0
  3

  4

1001
ACAD
1000
Arial Rounded MT Bold
1071
0
  0
STYLE
  5
65
100
AcDbSymbolTableRecord
100
AcDbTextStyleTableRecord
  2
textstyle7
 70
0
 40
0.0
 41
1.0
 50
0.0
 71
0
 42
5.0
  3

  4

1001
ACAD
1000
Arial Rounded MT Bold
1071
0
  0
STYLE
  5
66
100
AcDbSymbolTableRecord
100
AcDbTextStyleTableRecord
  2
textstyle8
 70
0
 40
0.0
 41
1.0
 50
0.0
 71
0
 42
5.0
  3

  4

1001
ACAD
1000
Arial Rounded MT Bold
1071
0
  0
STYLE
  5
67
100
AcDbSymbolTableRecord
100
AcDbTextStyleTableRecord
  2
textstyle9
 70
0
 40
0.0
 41
1.0
 50
0.0
 71
0
 42
5.0
  3

  4

1001
ACAD
1000
Arial Rounded MT Bold
1071
0
  0
STYLE
  5
68
100
AcDbSymbolTableRecord
100
AcDbTextStyleTableRecord
  2
textstyle10
 70
0
 40
0.0
 41
1.0
 50
0.0
 71
0
 42
5.0
  3

  4

1001
ACAD
1000
Arial Rounded MT Bold
1071
0
  0
STYLE
  5
69
100
AcDbSymbolTableRecord
100
AcDbTextStyleTableRecord
  2
textstyle11
 70
0
 40
0.0
 41
1.0
 50
0.0
 71
0
 42
5.0
  3

  4

1001
ACAD
1000
Arial Rounded MT Bold
1071
0
  0
STYLE
  5
6A
100
AcDbSymbolTableRecord
100
AcDbTextStyleTableRecord
  2
textstyle12
 70
0
 40
0.0
 41
1.0
 50
0.0
 71
0
 42
5.0
  3

  4

1001
ACAD
1000
Arial Rounded MT Bold
1071
0
  0
STYLE
  5
6B
100
AcDbSymbolTableRecord
100
AcDbTextStyleTableRecord
  2
textstyle13
 70
0
 40
0.0
 41
1.0
 50
0.0
 71
0
 42
5.0
  3

  4

1001
ACAD
1000
Arial Rounded MT Bold
1071
0
  0
STYLE
  5
6C
100
AcDbSymbolTableRecord
100
AcDbTextStyleTableRecord
  2
textstyle14
 70
0
 40
0.0
 41
1.0
 50
0.0
 71
0
 42
5.0
  3

  4

1001
ACAD
1000
Arial Rounded MT Bold
1071
0
  0
STYLE
  5
6D
100
AcDbSymbolTableRecord
100
AcDbTextStyleTableRecord
  2
textstyle15
 70
0
 40
0.0
 41
1.0
 50
0.0
 71
0
 42
5.0
  3

  4

1001
ACAD
1000
Arial Rounded MT Bold
1071
0
  0
STYLE
  5
6E
100
AcDbSymbolTableRecord
100
AcDbTextStyleTableRecord
  2
textstyle16
 70
0
 40
0.0
 41
1.0
 50
0.0
 71
0
 42
5.0
  3

  4

1001
ACAD
1000
Arial Rounded MT Bold
1071
0
  0
STYLE
  5
6F
100
AcDbSymbolTableRecord
100
AcDbTextStyleTableRecord
  2
textstyle17
 70
0
 40
0.0
 41
1.0
 50
0.0
 71
0
 42
5.0
  3

  4

1001
ACAD
1000
Arial Rounded MT Bold
1071
0
  0
STYLE
  5
70
100
AcDbSymbolTableRecord
100
AcDbTextStyleTableRecord
  2
textstyle18
 70
0
 40
0.0
 41
1.0
 50
0.0
 71
0
 42
5.0
  3

  4

1001
ACAD
1000
Arial Rounded MT Bold
1071
0
  0
STYLE
  5
71
100
AcDbSymbolTableRecord
100
AcDbTextStyleTableRecord
  2
textstyle19
 70
0
 40
0.0
 41
1.0
 50
0.0
 71
0
 42
5.0
  3

  4

1001
ACAD
1000
Arial Rounded MT Bold
1071
0
  0
STYLE
  5
72
100
AcDbSymbolTableRecord
100
AcDbTextStyleTableRecord
  2
textstyle20
 70
0
 40
0.0
 41
1.0
 50
0.0
 71
0
 42
5.0
  3

  4

1001
ACAD
1000
Arial Rounded MT Bold
1071
0
  0
STYLE
  5
73
100
AcDbSymbolTableRecord
100
AcDbTextStyleTableRecord
  2
textstyle21
 70
0
 40
0.0
 41
1.0
 50
0.0
 71
0
 42
5.0
  3

  4

1001
ACAD
1000
Arial Rounded MT Bold
1071
0
  0
STYLE
  5
74
100
AcDbSymbolTableRecord
100
AcDbTextStyleTableRecord
  2
textstyle22
 70
0
 40
0.0
 41
1.0
 50
0.0
 71
0
 42
5.0
  3

  4

1001
ACAD
1000
Arial Rounded MT Bold
1071
0
  0
STYLE
  5
75
100
AcDbSymbolTableRecord
100
AcDbTextStyleTableRecord
  2
textstyle23
 70
0
 40
0.0
 41
1.0
 50
0.0
 71
0
 42
5.0
  3

  4

1001
ACAD
1000
Arial Rounded MT Bold
1071
0
  0
STYLE
  5
76
100
AcDbSymbolTableRecord
100
AcDbTextStyleTableRecord
  2
textstyle24
 70
0
 40
0.0
 41
1.0
 50
0.0
 71
0
 42
5.0
  3

  4

1001
ACAD
1000
Arial Rounded MT Bold
1071
0
  0
STYLE
  5
77
100
AcDbSymbolTableRecord
100
AcDbTextStyleTableRecord
  2
textstyle25
 70
0
 40
0.0
 41
1.0
 50
0.0
 71
0
 42
5.0
  3

  4

1001
ACAD
1000
Arial Rounded MT Bold
1071
0
  0
STYLE
  5
78
100
AcDbSymbolTableRecord
100
AcDbTextStyleTableRecord
  2
textstyle26
 70
0
 40
0.0
 41
1.0
 50
0.0
 71
0
 42
5.0
  3

  4

1001
ACAD
1000
Arial Rounded MT Bold
1071
0
  0
STYLE
  5
79
100
AcDbSymbolTableRecord
100
AcDbTextStyleTableRecord
  2
textstyle27
 70
0
 40
0.0
 41
1.0
 50
0.0
 71
0
 42
5.0
  3

  4

1001
ACAD
1000
Arial Rounded MT Bold
1071
0
  0
STYLE
  5
7A
100
AcDbSymbolTableRecord
100
AcDbTextStyleTableRecord
  2
textstyle28
 70
0
 40
0.0
 41
1.0
 50
0.0
 71
0
 42
5.0
  3

  4

1001
ACAD
1000
Arial Rounded MT Bold
1071
0
  0
STYLE
  5
7B
100
AcDbSymbolTableRecord
100
AcDbTextStyleTableRecord
  2
textstyle29
 70
0
 40
0.0
 41
1.0
 50
0.0
 71
0
 42
5.0
  3

  4

1001
ACAD
1000
Arial Rounded MT Bold
1071
0
  0
STYLE
  5
7C
100
AcDbSymbolTableRecord
100
AcDbTextStyleTableRecord
  2
textstyle30
 70
0
 40
0.0
 41
1.0
 50
0.0
 71
0
 42
5.0
  3

  4

1001
ACAD
1000
Arial Rounded MT Bold
1071
0
  0
STYLE
  5
7D
100
AcDbSymbolTableRecord
100
AcDbTextStyleTableRecord
  2
textstyle31
 70
0
 40
0.0
 41
1.0
 50
0.0
 71
0
 42
5.0
  3

  4

1001
ACAD
1000
Arial Rounded MT Bold
1071
0
  0
STYLE
  5
7E
100
AcDbSymbolTableRecord
100
AcDbTextStyleTableRecord
  2
textstyle32
 70
0
 40
0.0
 41
1.0
 50
0.0
 71
0
 42
5.0
  3

  4

1001
ACAD
1000
Arial Rounded MT Bold
1071
0
  0
STYLE
  5
7F
100
AcDbSymbolTableRecord
100
AcDbTextStyleTableRecord
  2
textstyle33
 70
0
 40
0.0
 41
1.0
 50
0.0
 71
0
 42
5.0
  3

  4

1001
ACAD
1000
Arial Rounded MT Bold
1071
0
  0
STYLE
  5
80
100
AcDbSymbolTableRecord
100
AcDbTextStyleTableRecord
  2
textstyle34
 70
0
 40
0.0
 41
1.0
 50
0.0
 71
0
 42
5.0
  3

  4

1001
ACAD
1000
Arial Rounded MT Bold
1071
0
  0
STYLE
  5
81
100
AcDbSymbolTableRecord
100
AcDbTextStyleTableRecord
  2
textstyle35
 70
0
 40
0.0
 41
1.0
 50
0.0
 71
0
 42
5.0
  3

  4

1001
ACAD
1000
Arial Rounded MT Bold
1071
0
  0
STYLE
  5
82
100
AcDbSymbolTableRecord
100
AcDbTextStyleTableRecord
  2
textstyle36
 70
0
 40
0.0
 41
1.0
 50
0.0
 71
0
 42
5.0
  3

  4

1001
ACAD
1000
Arial Rounded MT Bold
1071
0
  0
STYLE
  5
83
100
AcDbSymbolTableRecord
100
AcDbTextStyleTableRecord
  2
textstyle37
 70
0
 40
0.0
 41
1.0
 50
0.0
 71
0
 42
5.0
  3

  4

1001
ACAD
1000
Arial Rounded MT Bold
1071
0
  0
STYLE
  5
84
100
AcDbSymbolTableRecord
100
AcDbTextStyleTableRecord
  2
textstyle38
 70
0
 40
0.0
 41
1.0
 50
0.0
 71
0
 42
5.0
  3

  4

1001
ACAD
1000
Arial Rounded MT Bold
1071
0
  0
STYLE
  5
85
100
AcDbSymbolTableRecord
100
AcDbTextStyleTableRecord
  2
textstyle39
 70
0
 40
0.0
 41
1.0
 50
0.0
 71
0
 42
5.0
  3

  4

1001
ACAD
1000
Arial Rounded MT Bold
1071
0
  0
STYLE
  5
86
100
AcDbSymbolTableRecord
100
AcDbTextStyleTableRecord
  2
textstyle40
 70
0
 40
0.0
 41
1.0
 50
0.0
 71
0
 42
5.0
  3

  4

1001
ACAD
1000
Arial Rounded MT Bold
1071
0
  0
STYLE
  5
87
100
AcDbSymbolTableRecord
100
AcDbTextStyleTableRecord
  2
textstyle41
 70
0
 40
0.0
 41
1.0
 50
0.0
 71
0
 42
5.0
  3

  4

1001
ACAD
1000
Arial Rounded MT Bold
1071
0
  0
STYLE
  5
88
100
AcDbSymbolTableRecord
100
AcDbTextStyleTableRecord
  2
textstyle42
 70
0
 40
0.0
 41
1.0
 50
0.0
 71
0
 42
5.0
  3

  4

1001
ACAD
1000
Arial Rounded MT Bold
1071
0
  0
STYLE
  5
89
100
AcDbSymbolTableRecord
100
AcDbTextStyleTableRecord
  2
textstyle43
 70
0
 40
0.0
 41
1.0
 50
0.0
 71
0
 42
5.0
  3

  4

1001
ACAD
1000
Arial Rounded MT Bold
1071
0
  0
STYLE
  5
8A
100
AcDbSymbolTableRecord
100
AcDbTextStyleTableRecord
  2
textstyle44
 70
0
 40
0.0
 41
1.0
 50
0.0
 71
0
 42
5.0
  3

  4

1001
ACAD
1000
Arial Rounded MT Bold
1071
0
  0
STYLE
  5
8B
100
AcDbSymbolTableRecord
100
AcDbTextStyleTableRecord
  2
textstyle45
 70
0
 40
0.0
 41
1.0
 50
0.0
 71
0
 42
5.0
  3

  4

1001
ACAD
1000
Arial Rounded MT Bold
1071
0
  0
STYLE
  5
8C
100
AcDbSymbolTableRecord
100
AcDbTextStyleTableRecord
  2
textstyle46
 70
0
 40
0.0
 41
1.0
 50
0.0
 71
0
 42
5.0
  3

  4

1001
ACAD
1000
Arial Rounded MT Bold
1071
0
  0
STYLE
  5
8D
100
AcDbSymbolTableRecord
100
AcDbTextStyleTableRecord
  2
textstyle47
 70
0
 40
0.0
 41
1.0
 50
0.0
 71
0
 42
5.0
  3

  4

1001
ACAD
1000
Arial Rounded MT Bold
1071
0
  0
ENDTAB
  0
TABLE
  2
VIEW
  5
6
100
AcDbSymbolTable
 70
0
  0
ENDTAB
  0
TABLE
  2
UCS
  5
7
100
AcDbSymbolTable
 70
0
  0
ENDTAB
  0
TABLE
  2
APPID
  5
9
100
AcDbSymbolTable
 70
1
  0
APPID
  5
12
100
AcDbSymbolTableRecord
100
AcDbRegAppTableRecord
  2
ACAD
 70
0
  0
APPID
  5
8E
100
AcDbSymbolTableRecord
100
AcDbRegAppTableRecord
  2
QCAD
 70
0
  0
ENDTAB
  0
TABLE
  2
DIMSTYLE
  5
A
100
AcDbSymbolTable
 70
1
100
AcDbDimStyleTable
 71
0
  0
DIMSTYLE
105
27
100
AcDbSymbolTableRecord
100
AcDbDimStyleTableRecord
  2
Standard
 41
2.5
 42
0.625
 43
3.75
 44
1.25
 70
0
 73
0
 74
0
 77
1
 78
8
140
2.5
141
2.5
143
0.03937007874016
147
0.625
171
3
172
1
271
2
272
2
274
3
278
44
283
0
284
8
340
5D
  0
ENDTAB
  0
TABLE
  2
BLOCK_RECORD
  5
1
100
AcDbSymbolTable
 70
1
  0
BLOCK_RECORD
  5
1F
100
AcDbSymbolTableRecord
100
AcDbBlockTableRecord
  2
*Model_Space
340
22
  0
BLOCK_RECORD
  5
1B
100
AcDbSymbolTableRecord
100
AcDbBlockTableRecord
  2
*Paper_Space
340
1E
  0
BLOCK_RECORD
  5
23
100
AcDbSymbolTableRecord
100
AcDbBlockTableRecord
  2
*Paper_Space0
340
26
  0
ENDTAB
  0
ENDSEC
  0
SECTION
  2
BLOCKS
  0
BLOCK
  5
20
100
AcDbEntity
  8
0
100
AcDbBlockBegin
  2
*Model_Space
 70
0
 10
0.0
 20
0.0
 30
0.0
  3
*Model_Space
  1

  0
ENDBLK
  5
21
100
AcDbEntity
  8
0
100
AcDbBlockEnd
  0
BLOCK
  5
1C
100
AcDbEntity
 67
1
  8
0
100
AcDbBlockBegin
  2
*Paper_Space
 70
0
 10
0.0
 20
0.0
 30
0.0
  3
*Paper_Space
  1

  0
ENDBLK
  5
1D
100
AcDbEntity
 67
1
  8
0
100
AcDbBlockEnd
  0
BLOCK
  5
24
100
AcDbEntity
  8
0
100
AcDbBlockBegin
  2
*Paper_Space0
 70
0
 10
0.0
 20
0.0
 30
0.0
  3
*Paper_Space0
  1

  0
ENDBLK
  5
25
100
AcDbEntity
  8
0
100
AcDbBlockEnd
  0
ENDSEC
  0
SECTION
  2
ENTITIES
  0
LINE
  5
8F
100
AcDbEntity
  8
coponent footprints
 62
256
370
-1
 48
1.0
  6
BYLAYER
100
AcDbLine
 10
33.3375000000000057
 20
-28.5749999999999602
 30
0.0
 11
33.3375000000000057
 21
-9.5250000000000057
 31
0.0
  0
LINE
  5
90
100
AcDbEntity
  8
coponent footprints
 62
256
370
-1
 48
1.0
  6
BYLAYER
100
AcDbLine
 10
256.033860679179611
 20
-28.5750000000000171
 30
0.0
 11
256.033860679179611
 21
-9.5250000000000661
 31
0.0
  0
LINE
  5
91
100
AcDbEntity
  8
coponent footprints
 62
256
370
-1
 48
1.0
  6
BYLAYER
100
AcDbLine
 10
33.3375000000000057
 20
-9.5250000000000057
 30
0.0
 11
33.3375000000000057
 21
9.5250000000000057
 31
0.0
  0
LINE
  5
92
100
AcDbEntity
  8
coponent footprints
 62
256
370
-1
 48
1.0
  6
BYLAYER
100
AcDbLine
 10
256.033860679179611
 20
-9.5250000000000661
 30
0.0
 11
256.033860679179611
 21
9.5249999999999417
 31
0.0
  0
LINE
  5
93
100
AcDbEntity
  8
coponent footprints
 62
256
370
-1
 48
1.0
  6
BYLAYER
100
AcDbLine
 10
14.2874999999999943
 20
-9.5250000000000057
 30
0.0
 11
14.2874999999999943
 21
9.5250000000000057
 31
0.0
  0
LINE
  5
94
100
AcDbEntity
  8
coponent footprints
 62
256
370
-1
 48
1.0
  6
BYLAYER
100
AcDbLine
 10
275.0838606791796792
 20
-9.5250000000000767
 30
0.0
 11
275.0838606791796792
 21
9.5249999999999346
 31
0.0
  0
LINE
  5
95
100
AcDbEntity
  8
coponent footprints
 62
256
370
-1
 48
1.0
  6
BYLAYER
100
AcDbLine
 10
38.0999999999999943
 20
-47.6249999999999716
 30
0.0
 11
38.0999999999999943
 21
-28.5749999999999602
 31
0.0
  0
LINE
  5
96
100
AcDbEntity
  8
coponent footprints
 62
256
370
-1
 48
1.0
  6
BYLAYER
100
AcDbLine
 10
251.2713606791796224
 20
-47.6250000000000284
 30
0.0
 11
251.2713606791796224
 21
-28.5750000000000242
 31
0.0
  0
LINE
  5
97
100
AcDbEntity
  8
coponent footprints
 62
256
370
-1
 48
1.0
  6
BYLAYER
100
AcDbLine
 10
19.0499999999999829
 20
-47.6249999999999716
 30
0.0
 11
19.0500000000000114
 21
-28.5749999999999602
 31
0.0
  0
LINE
  5
98
100
AcDbEntity
  8
coponent footprints
 62
256
370
-1
 48
1.0
  6
BYLAYER
100
AcDbLine
 10
270.3213606791796337
 20
-47.6250000000000426
 30
0.0
 11
270.3213606791796337
 21
-28.5750000000000171
 31
0.0
  0
LINE
  5
99
100
AcDbEntity
  8
coponent footprints
 62
256
370
-1
 48
1.0
  6
BYLAYER
100
AcDbLine
 10
36.6454977845550331
 20
-8.9746550594933154
 30
0.0
 11
33.3375000000000057
 21
-27.7352427543759035
 31
0.0
  0
LINE
  5
9A
100
AcDbEntity
  8
coponent footprints
 62
256
370
-1
 48
1.0
  6
BYLAYER
100
AcDbLine
 10
252.7258628946245835
 20
-8.9746550594933829
 30
0.0
 11
256.033860679179611
 21
-27.7352427543759745
 31
0.0
  0
LINE
  5
9B
100
AcDbEntity
  8
coponent footprints
 62
256
370
-1
 48
1.0
  6
BYLAYER
100
AcDbLine
 10
55.4060854794375786
 20
-12.2826528440483429
 30
0.0
 11
52.0980876948825511
 21
-31.0432405389309309
 31
0.0
  0
LINE
  5
9C
100
AcDbEntity
  8
coponent footprints
 62
256
370
-1
 48
1.0
  6
BYLAYER
100
AcDbLine
 10
233.9652751997420239
 20
-12.2826528440484068
 30
0.0
 11
237.2732729842970514
 21
-31.0432405389309949
 31
0.0
  0
LINE
  5
9D
100
AcDbEntity
  8
coponent footprints
 62
256
370
-1
 48
1.0
  6
BYLAYER
100
AcDbLine
 10
55.4060854794375928
 20
7.1240466828457887
 30
0.0
 11
52.0980876948825653
 21
-11.6365410120367994
 31
0.0
  0
LINE
  5
9E
100
AcDbEntity
  8
coponent footprints
 62
256
370
-1
 48
1.0
  6
BYLAYER
100
AcDbLine
 10
-19.0499999999999758
 20
-28.5749999999999531
 30
0.0
 11
-19.0499999999999758
 21
-9.5250000000000004
 31
0.0
  0
LINE
  5
9F
100
AcDbEntity
  8
coponent footprints
 62
256
370
-1
 48
1.0
  6
BYLAYER
100
AcDbLine
 10
317.9463606791798611
 20
-28.5749999999999886
 30
0.0
 11
317.9463606791798611
 21
-9.5250000000000661
 31
0.0
  0
LINE
  5
A0
100
AcDbEntity
  8
coponent footprints
 62
256
370
-1
 48
1.0
  6
BYLAYER
100
AcDbLine
 10
-19.0499999999999829
 20
-66.6749999999999545
 30
0.0
 11
-19.0499999999999829
 21
-47.6249999999999432
 31
0.0
  0
LINE
  5
A1
100
AcDbEntity
  8
coponent footprints
 62
256
370
-1
 48
1.0
  6
BYLAYER
100
AcDbLine
 10
317.9463606791798611
 20
-66.6749999999999261
 30
0.0
 11
317.9463606791798611
 21
-47.6249999999999289
 31
0.0
  0
LINE
  5
A2
100
AcDbEntity
  8
coponent footprints
 62
256
370
-1
 48
1.0
  6
BYLAYER
100
AcDbLine
 10
28.5750000000000171
 20
-66.6749999999999545
 30
0.0
 11
28.5750000000000171
 21
-47.6249999999999432
 31
0.0
  0
LINE
  5
A3
100
AcDbEntity
  8
coponent footprints
 62
256
370
-1
 48
1.0
  6
BYLAYER
100
AcDbLine
 10
4.7625000000000171
 20
-66.6749999999999545
 30
0.0
 11
4.7625000000000171
 21
-47.6249999999999432
 31
0.0
  0
MTEXT
  5
A4
100
AcDbEntity
  8
functions
 62
256
370
-1
 48
1.0
  6
BYLAYER
100
AcDbMText
 10
23.8125
 20
-19.0499999999999829
 30
0.0
 40
5.0
 41
0.0
 71
5
 72
1
  1
a
  7
textstyle42
 50
0.0
 73
2
 44
1.0
  0
MTEXT
  5
A5
100
AcDbEntity
  8
functions
 62
256
370
-1
 48
1.0
  6
BYLAYER
100
AcDbMText
 10
0.0
 20
0.0
 30
0.0
 40
5.0
 41
0.0
 71
5
 72
1
  1
tab
  7
textstyle43
 50
0.0
 73
2
 44
1.0
  0
MTEXT
  5
A6
100
AcDbEntity
  8
functions
 62
256
370
-1
 48
1.0
  6
BYLAYER
100
AcDbMText
 10
-2.381249999999989
 20
-19.0499999999999758
 30
0.0
 40
5.0
 41
0.0
 71
5
 72
1
  1
caps
  7
textstyle44
 50
0.0
 73
2
 44
1.0
  0
MTEXT
  5
A7
100
AcDbEntity
  8
functions
 62
256
370
-1
 48
1.0
  6
BYLAYER
100
AcDbMText
 10
-2.3812499999999868
 20
-38.0999999999999517
 30
0.0
 40
5.0
 41
0.0
 71
5
 72
1
  1
shift
  7
textstyle37
 50
0.0
 73
2
 44
1.0
  0
MTEXT
  5
A8
100
AcDbEntity
  8
functions
 62
256
370
-1
 48
1.0
  6
BYLAYER
100
AcDbMText
 10
-7.1437499999999829
 20
-57.1499999999999773
 30
0.0
 40
5.0
 41
0.0
 71
5
 72
1
  1
ctrl
  7
textstyle38
 50
0.0
 73
2
 44
1.0
  0
MTEXT
  5
A9
100
AcDbEntity
  8
functions
 62
256
370
-1
 48
1.0
  6
BYLAYER
100
AcDbMText
 10
23.8125
 20
0.0000000000000284
 30
0.0
 40
5.0
 41
0.0
 71
5
 72
1
  1
q
  7
textstyle39
 50
0.0
 73
2
 44
1.0
  0
MTEXT
  5
AA
100
AcDbEntity
  8
functions
 62
256
370
-1
 48
1.0
  6
BYLAYER
100
AcDbMText
 10
28.5750000000000171
 20
-38.0999999999999943
 30
0.0
 40
5.0
 41
0.0
 71
5
 72
1
  1
z
  7
textstyle40
 50
0.0
 73
2
 44
1.0
  0
MTEXT
  5
AB
100
AcDbEntity
  8
functions
 62
256
370
-1
 48
1.0
  6
BYLAYER
100
AcDbMText
 10
16.6687500000000171
 20
-57.1499999999999773
 30
0.0
 40
5.0
 41
0.0
 71
5
 72
1
  1
win
  7
textstyle41
 50
0.0
 73
2
 44
1.0
  0
LINE
  5
AC
100
AcDbEntity
  8
coponent footprints
 62
256
370
-1
 48
1.0
  6
BYLAYER
100
AcDbLine
 10
-14.2874999999999996
 20
-9.5250000000000004
 30
0.0
 11
-14.2874999999999996
 21
9.5250000000000004
 31
0.0
  0
LINE
  5
AD
100
AcDbEntity
  8
coponent footprints
 62
256
370
-1
 48
1.0
  6
BYLAYER
100
AcDbLine
 10
-23.8124999999999574
 20
-28.574999999999946
 30
0.0
 11
-23.8124999999999858
 21
-47.6249999999999574
 31
0.0
  0
LINE
  5
AE
100
AcDbEntity
  8
coponent footprints
 62
256
370
-1
 48
1.0
  6
BYLAYER
100
AcDbLine
 10
322.7088606791796224
 20
-28.5750000000000419
 30
0.0
 11
322.7088606791796224
 21
-47.6249999999999574
 31
0.0
  0
LINE
  5
AF
100
AcDbEntity
  8
coponent footprints
 62
256
370
-1
 48
1.0
  6
BYLAYER
100
AcDbLine
 10
14.2874999999999943
 20
-9.5250000000000057
 30
0.0
 11
14.2874999999999943
 21
-28.5749999999999744
 31
0.0
  0
LINE
  5
B0
100
AcDbEntity
  8
coponent footprints
 62
256
370
-1
 48
1.0
  6
BYLAYER
100
AcDbLine
 10
275.0838606791796792
 20
-9.5250000000000767
 30
0.0
 11
275.0838606791795655
 21
-28.5750000000000668
 31
0.0
  0
LINE
  5
B1
100
AcDbEntity
  8
coponent footprints
 62
256
370
-1
 48
1.0
  6
BYLAYER
100
AcDbLine
 10
33.3375000000000057
 20
-28.5749999999999567
 30
0.0
 11
33.3375000000000057
 21
-27.7352427543759035
 31
0.0
  0
LINE
  5
B2
100
AcDbEntity
  8
coponent footprints
 62
256
370
-1
 48
1.0
  6
BYLAYER
100
AcDbLine
 10
256.033860679179611
 20
-28.5750000000000171
 30
0.0
 11
256.033860679179611
 21
-27.7352427543759745
 31
0.0
  0
LINE
  5
B3
100
AcDbEntity
  8
coponent footprints
 62
256
370
-1
 48
1.0
  6
BYLAYER
100
AcDbLine
 10
33.3375000000000057
 20
-8.3929077809469028
 30
0.0
 11
36.6454977845549763
 21
10.3676799139356675
 31
0.0
  0
LINE
  5
B4
100
AcDbEntity
  8
coponent footprints
 62
256
370
-1
 48
1.0
  6
BYLAYER
100
AcDbLine
 10
256.033860679179611
 20
-8.3929077809469668
 30
0.0
 11
252.7258628946246404
 21
10.3676799139356035
 31
0.0
  0
LINE
  5
B5
100
AcDbEntity
  8
coponent footprints
 62
256
370
-1
 48
1.0
  6
BYLAYER
100
AcDbLine
 10
55.4060854794375359
 20
7.0596821293806444
 30
0.0
 11
52.0980876948825156
 21
-11.7009055655019196
 31
0.0
  0
LINE
  5
B6
100
AcDbEntity
  8
coponent footprints
 62
256
370
-1
 48
1.0
  6
BYLAYER
100
AcDbLine
 10
233.9652751997420808
 20
7.059682129380576
 30
0.0
 11
237.2732729842971082
 21
-11.7009055655019836
 31
0.0
  0
MTEXT
  5
B7
100
AcDbEntity
  8
functions
 62
256
370
-1
 48
1.0
  6
BYLAYER
100
AcDbMText
 10
44.3717927397187708
 20
-0.6666128257831297
 30
0.0
 40
5.0
 41
0.0
 71
5
 72
1
  1
w
  7
textstyle45
 50
-10.0
 73
2
 44
1.0
  0
MTEXT
  5
B8
100
AcDbEntity
  8
functions
 62
256
370
-1
 48
1.0
  6
BYLAYER
100
AcDbMText
 10
44.371792739718785
 20
-20.0089477992121232
 30
0.0
 40
5.0
 41
0.0
 71
5
 72
1
  1
s
  7
textstyle46
 50
-10.0
 73
2
 44
1.0
  0
MTEXT
  5
B9
100
AcDbEntity
  8
functions
 62
256
370
-1
 48
1.0
  6
BYLAYER
100
AcDbMText
 10
49.0840368203407493
 20
-40.1837205267329622
 30
0.0
 40
5.0
 41
0.0
 71
5
 72
1
  1
x
  7
textstyle47
 50
-10.0
 73
2
 44
1.0
  0
LINE
  5
BA
100
AcDbEntity
  8
coponent footprints
 62
256
370
-1
 48
1.0
  6
BYLAYER
100
AcDbLine
 10
41.3577418651769904
 20
-29.1494277870141687
 30
0.0
 11
38.04974408062197
 21
-47.9100154818967354
 31
0.0
  0
LINE
  5
BB
100
AcDbEntity
  8
coponent footprints
 62
256
370
-1
 48
1.0
  6
BYLAYER
100
AcDbLine
 10
248.0136188140026263
 20
-29.1494277870142326
 30
0.0
 11
251.3216165985576538
 21
-47.9100154818967994
 31
0.0
  0
LINE
  5
BC
100
AcDbEntity
  8
coponent footprints
 62
256
370
-1
 48
1.0
  6
BYLAYER
100
AcDbLine
 10
60.1183295600595571
 20
-32.4574255715691891
 30
0.0
 11
56.8103317755045367
 21
-51.2180132664517558
 31
0.0
  0
LINE
  5
BD
100
AcDbEntity
  8
coponent footprints
 62
256
370
-1
 48
1.0
  6
BYLAYER
100
AcDbLine
 10
229.2530311191200383
 20
-32.457425571569253
 30
0.0
 11
232.5610289036750657
 21
-51.2180132664518197
 31
0.0
  0
LINE
  5
BE
100
AcDbEntity
  8
coponent footprints
 62
256
370
-1
 48
1.0
  6
BYLAYER
100
AcDbLine
 10
74.1666731743201098
 20
3.7516843448256196
 30
0.0
 11
70.8586753897650823
 21
-15.0089033500569435
 31
0.0
  0
LINE
  5
BF
100
AcDbEntity
  8
coponent footprints
 62
256
370
-1
 48
1.0
  6
BYLAYER
100
AcDbLine
 10
215.2046875048594927
 20
3.7516843448255628
 30
0.0
 11
218.5126852894145202
 21
-15.0089033500570039
 31
0.0
  0
LINE
  5
C0
100
AcDbEntity
  8
coponent footprints
 62
256
370
-1
 48
1.0
  6
BYLAYER
100
AcDbLine
 10
92.9272608692026694
 20
0.4436865602705966
 30
0.0
 11
89.6192630846476419
 21
-18.3169011346119674
 31
0.0
  0
LINE
  5
C1
100
AcDbEntity
  8
coponent footprints
 62
256
370
-1
 48
1.0
  6
BYLAYER
100
AcDbLine
 10
196.4440998099769615
 20
0.4436865602705424
 30
0.0
 11
199.752097594531989
 21
-18.3169011346120314
 31
0.0
  0
LINE
  5
C2
100
AcDbEntity
  8
coponent footprints
 62
256
370
-1
 48
1.0
  6
BYLAYER
100
AcDbLine
 10
111.687848564085229
 20
-2.8643112242844264
 30
0.0
 11
108.3798507795302015
 21
-21.6248989191669878
 31
0.0
  0
LINE
  5
C3
100
AcDbEntity
  8
coponent footprints
 62
256
370
-1
 48
1.0
  6
BYLAYER
100
AcDbLine
 10
177.6835121150943735
 20
-2.8643112242844992
 30
0.0
 11
180.9915098996494009
 21
-21.6248989191670447
 31
0.0
  0
LINE
  5
C4
100
AcDbEntity
  8
coponent footprints
 62
256
370
-1
 48
1.0
  6
BYLAYER
100
AcDbLine
 10
70.8586753897650823
 20
-15.0089033500569435
 30
0.0
 11
70.8586753897650823
 21
-15.0089033500569418
 31
0.0
  0
LINE
  5
C5
100
AcDbEntity
  8
coponent footprints
 62
256
370
-1
 48
1.0
  6
BYLAYER
100
AcDbLine
 10
218.5126852894145202
 20
-15.0089033500570039
 30
0.0
 11
218.5126852894145202
 21
-15.0089033500570004
 31
0.0
  0
LINE
  5
C6
100
AcDbEntity
  8
coponent footprints
 62
256
370
-1
 48
1.0
  6
BYLAYER
100
AcDbLine
 10
74.1666731743201524
 20
-15.5906506286033881
 30
0.0
 11
70.8586753897651249
 21
-34.3512383234859513
 31
0.0
  0
LINE
  5
C7
100
AcDbEntity
  8
coponent footprints
 62
256
370
-1
 48
1.0
  6
BYLAYER
100
AcDbLine
 10
215.2046875048594643
 20
-15.5906506286034521
 30
0.0
 11
218.5126852894144918
 21
-34.3512383234860152
 31
0.0
  0
LINE
  5
C8
100
AcDbEntity
  8
coponent footprints
 62
256
370
-1
 48
1.0
  6
BYLAYER
100
AcDbLine
 10
92.927260869202712
 20
-18.8986484131584085
 30
0.0
 11
89.6192630846476845
 21
-37.6592361080409717
 31
0.0
  0
LINE
  5
C9
100
AcDbEntity
  8
coponent footprints
 62
256
370
-1
 48
1.0
  6
BYLAYER
100
AcDbLine
 10
196.4440998099769047
 20
-18.8986484131584653
 30
0.0
 11
199.7520975945319321
 21
-37.6592361080411706
 31
0.0
  0
LINE
  5
CA
100
AcDbEntity
  8
coponent footprints
 62
256
370
-1
 48
1.0
  6
BYLAYER
100
AcDbLine
 10
111.6878485640852716
 20
-22.2066461977134288
 30
0.0
 11
108.3798507795302442
 21
-40.967233892595992
 31
0.0
  0
LINE
  5
CB
100
AcDbEntity
  8
coponent footprints
 62
256
370
-1
 48
1.0
  6
BYLAYER
100
AcDbLine
 10
177.6835121150943166
 20
-22.2066461977134963
 30
0.0
 11
180.9915098996493441
 21
-40.9672338925959778
 31
0.0
  0
LINE
  5
CC
100
AcDbEntity
  8
coponent footprints
 62
256
370
-1
 48
1.0
  6
BYLAYER
100
AcDbLine
 10
33.3375000000000057
 20
9.5250000000000075
 30
0.0
 11
-14.2874999999999996
 21
9.5250000000000021
 31
0.0
  0
LINE
  5
CD
100
AcDbEntity
  8
coponent footprints
 62
256
370
-1
 48
1.0
  6
BYLAYER
100
AcDbLine
 10
-19.0499999999999758
 20
-9.5250000000000004
 30
0.0
 11
33.3375000000000057
 21
-9.5250000000000057
 31
0.0
  0
LINE
  5
CE
100
AcDbEntity
  8
coponent footprints
 62
256
370
-1
 48
1.0
  6
BYLAYER
100
AcDbLine
 10
-23.8124999999999574
 20
-28.574999999999946
 30
0.0
 11
38.0999999999999943
 21
-28.5749999999999602
 31
0.0
  0
LINE
  5
CF
100
AcDbEntity
  8
coponent footprints
 62
256
370
-1
 48
1.0
  6
BYLAYER
100
AcDbLine
 10
-23.8124999999999858
 20
-47.6249999999999574
 30
0.0
 11
38.0999999999999943
 21
-47.6249999999999574
 31
0.0
  0
LINE
  5
D0
100
AcDbEntity
  8
coponent footprints
 62
256
370
-1
 48
1.0
  6
BYLAYER
100
AcDbLine
 10
36.6454977845549763
 20
10.3676799139356675
 30
0.0
 11
111.687848564085229
 21
-2.8643112242844264
 31
0.0
  0
LINE
  5
D1
100
AcDbEntity
  8
coponent footprints
 62
256
370
-1
 48
1.0
  6
BYLAYER
100
AcDbLine
 10
252.7258628946245835
 20
10.4320444674006936
 30
0.0
 11
177.6835121150943735
 21
-2.8643112242844992
 31
0.0
  0
LINE
  5
D2
100
AcDbEntity
  8
coponent footprints
 62
256
370
-1
 48
1.0
  6
BYLAYER
100
AcDbLine
 10
111.6878485640852716
 20
-22.2066461977134288
 30
0.0
 11
33.3375000000000057
 21
-8.3929077809469259
 31
0.0
  0
LINE
  5
D3
100
AcDbEntity
  8
coponent footprints
 62
256
370
-1
 48
1.0
  6
BYLAYER
100
AcDbLine
 10
177.6835121150943166
 20
-22.2066461977134963
 30
0.0
 11
256.033860679179611
 21
-8.3929077809469916
 31
0.0
  0
LINE
  5
D4
100
AcDbEntity
  8
coponent footprints
 62
256
370
-1
 48
1.0
  6
BYLAYER
100
AcDbLine
 10
116.4000926447072288
 20
-42.3814189252342572
 30
0.0
 11
113.0920948601522014
 21
-61.1420066201168169
 31
0.0
  0
LINE
  5
D5
100
AcDbEntity
  8
coponent footprints
 62
256
370
-1
 48
1.0
  6
BYLAYER
100
AcDbLine
 10
172.9712680344723879
 20
-42.3814189252343851
 30
0.0
 11
176.2792658190274153
 21
-61.1420066201168879
 31
0.0
  0
LINE
  5
D6
100
AcDbEntity
  8
coponent footprints
 62
256
370
-1
 48
1.0
  6
BYLAYER
100
AcDbLine
 10
97.6395049498246692
 20
-39.0734211406792298
 30
0.0
 11
94.3315071652696417
 21
-57.8340088355617965
 31
0.0
  0
LINE
  5
D7
100
AcDbEntity
  8
coponent footprints
 62
256
370
-1
 48
1.0
  6
BYLAYER
100
AcDbLine
 10
191.731855729354919
 20
-39.0734211406792014
 30
0.0
 11
195.0398535139099465
 21
-57.8340088355618747
 31
0.0
  0
LINE
  5
D8
100
AcDbEntity
  8
coponent footprints
 62
256
370
-1
 48
1.0
  6
BYLAYER
100
AcDbLine
 10
78.8789172549421096
 20
-35.7654233561242165
 30
0.0
 11
75.5709194703870821
 21
-54.5260110510067761
 31
0.0
  0
LINE
  5
D9
100
AcDbEntity
  8
coponent footprints
 62
256
370
-1
 48
1.0
  6
BYLAYER
100
AcDbLine
 10
210.4924434242375071
 20
-35.7654233561244155
 30
0.0
 11
213.8004412087925346
 21
-54.5260110510068472
 31
0.0
  0
LINE
  5
DA
100
AcDbEntity
  8
coponent footprints
 62
256
370
-1
 48
1.0
  6
BYLAYER
100
AcDbLine
 10
33.3375000000000057
 20
-27.7352427543759426
 30
0.0
 11
135.1606803395897884
 21
-45.6894167097892776
 31
0.0
  0
LINE
  5
DB
100
AcDbEntity
  8
coponent footprints
 62
256
370
-1
 48
1.0
  6
BYLAYER
100
AcDbLine
 10
256.033860679179611
 20
-27.7352427543760172
 30
0.0
 11
154.2106803395897998
 21
-45.6894167097892776
 31
0.0
  0
LINE
  5
DC
100
AcDbEntity
  8
coponent footprints
 62
256
370
-1
 48
1.0
  6
BYLAYER
100
AcDbLine
 10
38.04974408062197
 20
-47.9100154818967354
 30
0.0
 11
113.0920948601522014
 21
-61.1420066201168169
 31
0.0
  0
LINE
  5
DD
100
AcDbEntity
  8
coponent footprints
 62
256
370
-1
 48
1.0
  6
BYLAYER
100
AcDbLine
 10
251.3216165985576538
 20
-47.9100154818967994
 30
0.0
 11
176.2792658190274153
 21
-61.1420066201168879
 31
0.0
  0
LINE
  5
DE
100
AcDbEntity
  8
coponent footprints
 62
256
370
-1
 48
1.0
  6
BYLAYER
100
AcDbLine
 10
113.0920948601522014
 20
-61.1420066201168169
 30
0.0
 11
109.7840970755971739
 21
-79.9025943149993765
 31
0.0
  0
LINE
  5
DF
100
AcDbEntity
  8
coponent footprints
 62
256
370
-1
 48
1.0
  6
BYLAYER
100
AcDbLine
 10
176.2792658190274153
 20
-61.1420066201168879
 30
0.0
 11
179.5872636035824428
 21
-79.9025943149994333
 31
0.0
  0
LINE
  5
E0
100
AcDbEntity
  8
coponent footprints
 62
256
370
-1
 48
1.0
  6
BYLAYER
100
AcDbLine
 10
70.8807725466664351
 20
-53.6990116048680193
 30
0.0
 11
67.5727747621114077
 21
-72.4595992997505789
 31
0.0
  0
LINE
  5
E1
100
AcDbEntity
  8
coponent footprints
 62
256
370
-1
 48
1.0
  6
BYLAYER
100
AcDbLine
 10
128.5446847704797335
 20
-83.2105920995543897
 30
0.0
 11
135.1606803395897884
 21
-45.6894167097892776
 31
0.0
  0
LINE
  5
E2
100
AcDbEntity
  8
coponent footprints
 62
256
370
-1
 48
1.0
  6
BYLAYER
100
AcDbLine
 10
160.8266759086998547
 20
-83.2105920995544608
 30
0.0
 11
154.2106803395897998
 21
-45.6894167097892776
 31
0.0
  0
LINE
  5
E3
100
AcDbEntity
  8
coponent footprints
 62
256
370
-1
 48
1.0
  6
BYLAYER
100
AcDbLine
 10
231.178879764509503
 20
-70.805600407473122
 30
0.0
 11
227.8708819799544756
 21
-52.0450127125905624
 31
0.0
  0
LINE
  5
E4
100
AcDbEntity
  8
coponent footprints
 62
256
370
-1
 48
1.0
  6
BYLAYER
100
AcDbLine
 10
313.1838606791797019
 20
-9.5250000000000661
 30
0.0
 11
313.1838606791797019
 21
9.5249999999999346
 31
0.0
  0
LINE
  5
E5
100
AcDbEntity
  8
coponent footprints
 62
256
370
-1
 48
1.0
  6
BYLAYER
100
AcDbLine
 10
256.033860679179611
 20
9.5249999999999417
 30
0.0
 11
313.1838606791797019
 21
9.5249999999999346
 31
0.0
  0
LINE
  5
E6
100
AcDbEntity
  8
coponent footprints
 62
256
370
-1
 48
1.0
  6
BYLAYER
100
AcDbLine
 10
317.9463606791798611
 20
-9.5250000000000661
 30
0.0
 11
256.033860679179611
 21
-9.5250000000000661
 31
0.0
  0
LINE
  5
E7
100
AcDbEntity
  8
coponent footprints
 62
256
370
-1
 48
1.0
  6
BYLAYER
100
AcDbLine
 10
251.2713606791795939
 20
-28.5750000000000739
 30
0.0
 11
322.7088606791796224
 21
-28.5750000000000419
 31
0.0
  0
LINE
  5
E8
100
AcDbEntity
  8
coponent footprints
 62
256
370
-1
 48
1.0
  6
BYLAYER
100
AcDbLine
 10
249.9394674593920911
 20
-67.4976026229180661
 30
0.0
 11
246.6314696748370636
 21
-48.7370149280355136
 31
0.0
  0
LINE
  5
E9
100
AcDbEntity
  8
coponent footprints
 62
256
370
-1
 48
1.0
  6
BYLAYER
100
AcDbLine
 10
160.8266759086998547
 20
-83.2105920995544608
 30
0.0
 11
249.9394674593920911
 21
-67.4976026229180661
 31
0.0
  0
LINE
  5
EA
100
AcDbEntity
  8
coponent footprints
 62
256
370
-1
 48
1.0
  6
BYLAYER
100
AcDbLine
 10
251.2713606791795939
 20
-47.6249999999995808
 30
0.0
 11
270.3213606791796337
 21
-47.6250000000000426
 31
0.0
  0
LINE
  5
EB
100
AcDbEntity
  8
coponent footprints
 62
256
370
-1
 48
1.0
  6
BYLAYER
100
AcDbLine
 10
260.7963606791795996
 20
-66.6749999999998124
 30
0.0
 11
260.7963606791795996
 21
-47.6249999999998153
 31
0.0
  0
LINE
  5
EC
100
AcDbEntity
  8
coponent footprints
 62
256
370
-1
 48
1.0
  6
BYLAYER
100
AcDbLine
 10
270.3213606791796337
 20
-47.6250000000000426
 30
0.0
 11
322.7088606791796224
 21
-47.6249999999999574
 31
0.0
  0
LINE
  5
ED
100
AcDbEntity
  8
coponent footprints
 62
256
370
-1
 48
1.0
  6
BYLAYER
100
AcDbLine
 10
298.8963606791798497
 20
-66.6749999999999261
 30
0.0
 11
317.9463606791798611
 21
-66.6749999999999261
 31
0.0
  0
LINE
  5
EE
100
AcDbEntity
  8
coponent footprints
 62
256
370
-1
 48
1.0
  6
BYLAYER
100
AcDbLine
 10
279.8463606791798384
 20
-66.6749999999999261
 30
0.0
 11
298.8963606791798497
 21
-66.6749999999999261
 31
0.0
  0
LINE
  5
EF
100
AcDbEntity
  8
coponent footprints
 62
256
370
-1
 48
1.0
  6
BYLAYER
100
AcDbLine
 10
260.796360679179827
 20
-66.6749999999999261
 30
0.0
 11
279.8463606791798384
 21
-66.6749999999999261
 31
0.0
  0
LINE
  5
F0
100
AcDbEntity
  8
coponent footprints
 62
256
370
-1
 48
1.0
  6
BYLAYER
100
AcDbLine
 10
279.8463606791798384
 20
-66.6749999999999261
 30
0.0
 11
279.8463606791798384
 21
-47.6249999999999289
 31
0.0
  0
LINE
  5
F1
100
AcDbEntity
  8
coponent footprints
 62
256
370
-1
 48
1.0
  6
BYLAYER
100
AcDbLine
 10
298.8963606791798497
 20
-66.6749999999999261
 30
0.0
 11
298.8963606791798497
 21
-47.6249999999999289
 31
0.0
  0
LINE
  5
F2
100
AcDbEntity
  8
coponent footprints
 62
256
370
-1
 48
1.0
  6
BYLAYER
100
AcDbLine
 10
47.4300379280632498
 20
-49.5640143741742492
 30
0.0
 11
44.1220401435082294
 21
-68.3246020690568088
 31
0.0
  0
LINE
  5
F3
100
AcDbEntity
  8
coponent footprints
 62
256
370
-1
 48
1.0
  6
BYLAYER
100
AcDbLine
 10
44.1220401435082294
 20
-68.3246020690568088
 30
0.0
 11
128.5446847704797335
 21
-83.2105920995543897
 31
0.0
  0
LINE
  5
F4
100
AcDbEntity
  8
coponent footprints
 62
256
370
-1
 48
1.0
  6
BYLAYER
100
AcDbLine
 10
154.2106803395897998
 20
-33.8018639670368657
 30
0.0
 11
154.2106803395897998
 21
-14.7518639670368668
 31
0.0
  0
LINE
  5
F5
100
AcDbEntity
  8
coponent footprints
 62
256
370
-1
 48
1.0
  6
BYLAYER
100
AcDbLine
 10
135.1606803395897884
 20
-33.8018639670368657
 30
0.0
 11
135.1606803395897884
 21
-14.7518639670368668
 31
0.0
  0
LINE
  5
F6
100
AcDbEntity
  8
coponent footprints
 62
256
370
-1
 48
1.0
  6
BYLAYER
100
AcDbLine
 10
135.1606803395897884
 20
-14.7518639670368668
 30
0.0
 11
154.2106803395897998
 21
-14.7518639670368668
 31
0.0
  0
LINE
  5
F7
100
AcDbEntity
  8
coponent footprints
 62
256
370
-1
 48
1.0
  6
BYLAYER
100
AcDbLine
 10
154.2106803395897998
 20
-33.8018639670368657
 30
0.0
 11
135.1606803395897884
 21
-33.8018639670368657
 31
0.0
  0
CIRCLE
  5
F8
100
AcDbEntity
  8
coponent footprints
 62
256
370
-1
 48
1.0
  6
BYLAYER
100
AcDbCircle
 10
144.6856803395897941
 20
-24.2768639670368671
 30
0.0
 40
9.0
  0
MTEXT
  5
F9
100
AcDbEntity
  8
functions
 62
256
370
-1
 48
1.0
  6
BYLAYER
100
AcDbMText
 10
63.1323804346013162
 20
-3.97461061033815
 30
0.0
 40
5.0
 41
0.0
 71
5
 72
1
  1
e
  7
textstyle20
 50
-10.0
 73
2
 44
1.0
  0
MTEXT
  5
FA
100
AcDbEntity
  8
functions
 62
256
370
-1
 48
1.0
  6
BYLAYER
100
AcDbMText
 10
81.8929681294838758
 20
-7.282608394893173
 30
0.0
 40
5.0
 41
0.0
 71
5
 72
1
  1
r
  7
textstyle21
 50
-10.0
 73
2
 44
1.0
  0
MTEXT
  5
FB
100
AcDbEntity
  8
functions
 62
256
370
-1
 48
1.0
  6
BYLAYER
100
AcDbMText
 10
100.6535558243664639
 20
-10.5906061794481978
 30
0.0
 40
5.0
 41
0.0
 71
5
 72
1
  1
t
  7
textstyle22
 50
-10.0
 73
2
 44
1.0
  0
MTEXT
  5
FC
100
AcDbEntity
  8
functions
 62
256
370
-1
 48
1.0
  6
BYLAYER
100
AcDbMText
 10
63.1323804346013517
 20
-23.3169455837671542
 30
0.0
 40
5.0
 41
0.0
 71
5
 72
1
  1
d
  7
textstyle23
 50
-10.0
 73
2
 44
1.0
  0
MTEXT
  5
FD
100
AcDbEntity
  8
functions
 62
256
370
-1
 48
1.0
  6
BYLAYER
100
AcDbMText
 10
81.8929681294839185
 20
-26.6249433683221817
 30
0.0
 40
5.0
 41
0.0
 71
5
 72
1
  1
f
  7
textstyle24
 50
-10.0
 73
2
 44
1.0
  0
MTEXT
  5
FE
100
AcDbEntity
  8
functions
 62
256
370
-1
 48
1.0
  6
BYLAYER
100
AcDbMText
 10
100.6535558243664781
 20
-29.932941152877202
 30
0.0
 40
5.0
 41
0.0
 71
5
 72
1
  1
g
  7
textstyle25
 50
-10.0
 73
2
 44
1.0
  0
MTEXT
  5
FF
100
AcDbEntity
  8
functions
 62
256
370
-1
 48
1.0
  6
BYLAYER
100
AcDbMText
 10
67.8446245152233303
 20
-43.4917183112879826
 30
0.0
 40
5.0
 41
0.0
 71
5
 72
1
  1
c
  7
textstyle13
 50
-10.0
 73
2
 44
1.0
  0
MTEXT
  5
100
100
AcDbEntity
  8
functions
 62
256
370
-1
 48
1.0
  6
BYLAYER
100
AcDbMText
 10
86.6052122101058757
 20
-46.7997160958430101
 30
0.0
 40
5.0
 41
0.0
 71
5
 72
1
  1
v
  7
textstyle14
 50
-10.0
 73
2
 44
1.0
  0
MTEXT
  5
101
100
AcDbEntity
  8
functions
 62
256
370
-1
 48
1.0
  6
BYLAYER
100
AcDbMText
 10
105.3657999049884495
 20
-50.1077138803980233
 30
0.0
 40
5.0
 41
0.0
 71
5
 72
1
  1
b
  7
textstyle15
 50
-10.0
 73
2
 44
1.0
  0
MTEXT
  5
102
100
AcDbEntity
  8
functions
 62
256
370
-1
 48
1.0
  6
BYLAYER
100
AcDbMText
 10
122.4723887075934812
 20
-62.7960055123943235
 30
0.0
 40
5.0
 41
0.0
 71
5
 72
1
  1
backspace
  7
textstyle16
 50
80.0
 73
2
 44
1.0
  0
MTEXT
  5
103
100
AcDbEntity
  8
functions
 62
256
370
-1
 48
1.0
  6
BYLAYER
100
AcDbMText
 10
57.5014063450873323
 20
-61.011806836962414
 30
0.0
 40
5.0
 41
0.0
 71
5
 72
1
  1
alt
  7
textstyle17
 50
-10.0
 73
2
 44
1.0
  0
MTEXT
  5
104
100
AcDbEntity
  8
functions
 62
256
370
-1
 48
1.0
  6
BYLAYER
100
AcDbMText
 10
90.3324348111318045
 20
-66.800802959933705
 30
0.0
 40
5.0
 41
0.0
 71
5
 72
1
  1
space
  7
textstyle18
 50
-10.0
 73
2
 44
1.0
  0
LINE
  5
105
100
AcDbEntity
  8
coponent footprints
 62
256
370
-1
 48
1.0
  6
BYLAYER
100
AcDbLine
 10
69.2267736543889214
 20
-63.0793054523092991
 30
0.0
 11
69.2267736543889356
 21
-63.0793054523093062
 31
0.0
  0
MTEXT
  5
106
100
AcDbEntity
  8
functions
 62
256
370
-1
 48
1.0
  6
BYLAYER
100
AcDbMText
 10
166.8989719715861213
 20
-62.7960055123943803
 30
0.0
 40
5.0
 41
0.0
 71
5
 72
1
  1
enter
  7
textstyle19
 50
-80.0
 73
2
 44
1.0
  0
LINE
  5
107
100
AcDbEntity
  8
coponent footprints
 62
256
370
-1
 48
1.0
  6
BYLAYER
100
AcDbLine
 10
198.0980987022544753
 20
-8.9366072871707445
 30
0.0
 11
198.0980987022544468
 21
-8.936607287170748
 31
0.0
  0
LINE
  5
108
100
AcDbEntity
  8
coponent footprints
 62
256
370
-1
 48
1.0
  6
BYLAYER
100
AcDbLine
 10
216.8586863971370065
 20
-5.6286095026157206
 30
0.0
 11
216.8586863971370065
 21
-5.6286095026157295
 31
0.0
  0
LINE
  5
109
100
AcDbEntity
  8
coponent footprints
 62
256
370
-1
 48
1.0
  6
BYLAYER
100
AcDbLine
 10
235.6192740920195945
 20
-2.3206117180607038
 30
0.0
 11
235.6192740920196513
 21
-2.3206117180607011
 31
0.0
  0
MTEXT
  5
10A
100
AcDbEntity
  8
functions
 62
256
370
-1
 48
1.0
  6
BYLAYER
100
AcDbMText
 10
188.7178048548131812
 20
-10.5906061794482582
 30
0.0
 40
5.0
 41
0.0
 71
5
 72
1
  1
y
  7
textstyle8
 50
10.0
 73
2
 44
1.0
  0
MTEXT
  5
10B
100
AcDbEntity
  8
functions
 62
256
370
-1
 48
1.0
  6
BYLAYER
100
AcDbMText
 10
207.4783925496957409
 20
-7.2826083948932343
 30
0.0
 40
5.0
 41
0.0
 71
5
 72
1
  1
u
  7
textstyle9
 50
10.0
 73
2
 44
1.0
  0
MTEXT
  5
10C
100
AcDbEntity
  8
functions
 62
256
370
-1
 48
1.0
  6
BYLAYER
100
AcDbMText
 10
226.2389802445783005
 20
-3.9746106103382166
 30
0.0
 40
5.0
 41
0.0
 71
5
 72
1
  1
i
  7
textstyle10
 50
10.0
 73
2
 44
1.0
  0
MTEXT
  5
10D
100
AcDbEntity
  8
functions
 62
256
370
-1
 48
1.0
  6
BYLAYER
100
AcDbMText
 10
244.9995679394608885
 20
-0.6666128257831914
 30
0.0
 40
5.0
 41
0.0
 71
5
 72
1
  1
o
  7
textstyle11
 50
10.0
 73
2
 44
1.0
  0
MTEXT
  5
10E
100
AcDbEntity
  8
functions
 62
256
370
-1
 48
1.0
  6
BYLAYER
100
AcDbMText
 10
265.5588606791796451
 20
-0.0000000000000666
 30
0.0
 40
5.0
 41
0.0
 71
5
 72
1
  1
p
  7
textstyle12
 50
0.0
 73
2
 44
1.0
  0
MTEXT
  5
10F
100
AcDbEntity
  8
functions
 62
256
370
-1
 48
1.0
  6
BYLAYER
100
AcDbMText
 10
294.1338606791796906
 20
-0.0000000000000684
 30
0.0
 40
5.0
 41
0.0
 71
5
 72
1
  1
backspace
  7
textstyle0
 50
0.0
 73
2
 44
1.0
  0
MTEXT
  5
110
100
AcDbEntity
  8
functions
 62
256
370
-1
 48
1.0
  6
BYLAYER
100
AcDbMText
 10
188.7178048548131244
 20
-29.9329411528772766
 30
0.0
 40
5.0
 41
0.0
 71
5
 72
1
  1
h
  7
textstyle1
 50
10.0
 73
2
 44
1.0
  0
MTEXT
  5
111
100
AcDbEntity
  8
functions
 62
256
370
-1
 48
1.0
  6
BYLAYER
100
AcDbMText
 10
207.478392549695684
 20
-26.6249433683222776
 30
0.0
 40
5.0
 41
0.0
 71
5
 72
1
  1
j
  7
textstyle2
 50
10.0
 73
2
 44
1.0
  0
MTEXT
  5
112
100
AcDbEntity
  8
functions
 62
256
370
-1
 48
1.0
  6
BYLAYER
100
AcDbMText
 10
226.238980244578272
 20
-23.3169455837672182
 30
0.0
 40
5.0
 41
0.0
 71
5
 72
1
  1
k
  7
textstyle3
 50
10.0
 73
2
 44
1.0
  0
MTEXT
  5
113
100
AcDbEntity
  8
functions
 62
256
370
-1
 48
1.0
  6
BYLAYER
100
AcDbMText
 10
244.9995679394608032
 20
-20.0089477992121907
 30
0.0
 40
5.0
 41
0.0
 71
5
 72
1
  1
l
  7
textstyle4
 50
10.0
 73
2
 44
1.0
  0
MTEXT
  5
114
100
AcDbEntity
  8
functions
 62
256
370
-1
 48
1.0
  6
BYLAYER
100
AcDbMText
 10
265.5588606791795883
 20
-19.050000000000054
 30
0.0
 40
5.0
 41
0.0
 71
5
 72
1
  1
:\P;
  7
textstyle5
 50
0.0
 73
2
 44
1.0
  0
MTEXT
  5
115
100
AcDbEntity
  8
functions
 62
256
370
-1
 48
1.0
  6
BYLAYER
100
AcDbMText
 10
296.5151106791797702
 20
-19.0500000000000469
 30
0.0
 40
5.0
 41
0.0
 71
5
 72
1
  1
enter
  7
textstyle6
 50
0.0
 73
2
 44
1.0
  0
MTEXT
  5
116
100
AcDbEntity
  8
functions
 62
256
370
-1
 48
1.0
  6
BYLAYER
100
AcDbMText
 10
202.7661484690737268
 20
-46.7997160958430811
 30
0.0
 40
5.0
 41
0.0
 71
5
 72
1
  1
n
  7
textstyle7
 50
10.0
 73
2
 44
1.0
  0
MTEXT
  5
117
100
AcDbEntity
  8
functions
 62
256
370
-1
 48
1.0
  6
BYLAYER
100
AcDbMText
 10
184.0055607741911672
 20
-50.1077138803980873
 30
0.0
 40
5.0
 41
0.0
 71
5
 72
1
  1
b
  7
textstyle29
 50
10.0
 73
2
 44
1.0
  0
MTEXT
  5
118
100
AcDbEntity
  8
functions
 62
256
370
-1
 48
1.0
  6
BYLAYER
100
AcDbMText
 10
221.5267361639562864
 20
-43.4917183112880821
 30
0.0
 40
5.0
 41
0.0
 71
5
 72
1
  1
<\P,
  7
textstyle30
 50
10.0
 73
2
 44
1.0
  0
MTEXT
  5
119
100
AcDbEntity
  8
functions
 62
256
370
-1
 48
1.0
  6
BYLAYER
100
AcDbMText
 10
240.287323858838846
 20
-40.1837205267330262
 30
0.0
 40
5.0
 41
0.0
 71
5
 72
1
  1
>\P.
  7
textstyle31
 50
10.0
 73
2
 44
1.0
  0
MTEXT
  5
11A
100
AcDbEntity
  8
functions
 62
256
370
-1
 48
1.0
  6
BYLAYER
100
AcDbMText
 10
260.7963606791796565
 20
-38.1000000000000227
 30
0.0
 40
5.0
 41
0.0
 71
5
 72
1
  1
?\P/
  7
textstyle32
 50
0.0
 73
2
 44
1.0
  0
MTEXT
  5
11B
100
AcDbEntity
  8
functions
 62
256
370
-1
 48
1.0
  6
BYLAYER
100
AcDbMText
 10
296.5151106791796565
 20
-38.1000000000000156
 30
0.0
 40
5.0
 41
0.0
 71
5
 72
1
  1
shift
  7
textstyle33
 50
0.0
 73
2
 44
1.0
  0
MTEXT
  5
11C
100
AcDbEntity
  8
functions
 62
256
370
-1
 48
1.0
  6
BYLAYER
100
AcDbMText
 10
203.7290727917684592
 20
-65.9738035137949907
 30
0.0
 40
5.0
 41
0.0
 71
5
 72
1
  1
space
  7
textstyle34
 50
10.0
 73
2
 44
1.0
  0
MTEXT
  5
11D
100
AcDbEntity
  8
functions
 62
256
370
-1
 48
1.0
  6
BYLAYER
100
AcDbMText
 10
238.9051747196732833
 20
-59.7713076677543143
 30
0.0
 40
5.0
 41
0.0
 71
5
 72
1
  1
alt
  7
textstyle35
 50
10.0
 73
2
 44
1.0
  0
MTEXT
  5
11E
100
AcDbEntity
  8
functions
 62
256
370
-1
 48
1.0
  6
BYLAYER
100
AcDbMText
 10
270.3213606791797474
 20
-57.1499999999998707
 30
0.0
 40
5.0
 41
0.0
 71
5
 72
1
  1
fn
  7
textstyle36
 50
0.0
 73
2
 44
1.0
  0
MTEXT
  5
11F
100
AcDbEntity
  8
functions
 62
256
370
-1
 48
1.0
  6
BYLAYER
100
AcDbMText
 10
289.3713606791798156
 20
-57.1499999999999275
 30
0.0
 40
5.0
 41
0.0
 71
5
 72
1
  1
win
  7
textstyle26
 50
0.0
 73
2
 44
1.0
  0
MTEXT
  5
120
100
AcDbEntity
  8
functions
 62
256
370
-1
 48
1.0
  6
BYLAYER
100
AcDbMText
 10
308.4213606791798838
 20
-57.1499999999999275
 30
0.0
 40
5.0
 41
0.0
 71
5
 72
1
  1
ctrl
  7
textstyle27
 50
0.0
 73
2
 44
1.0
  0
MTEXT
  5
121
100
AcDbEntity
  8
functions
 62
256
370
-1
 48
1.0
  6
BYLAYER
100
AcDbMText
 10
144.6856803395897941
 20
-24.2768639670368671
 30
0.0
 40
5.0
 41
0.0
 71
5
 72
1
  1
enc
  7
textstyle28
 50
0.0
 73
2
 44
1.0
  0
CIRCLE
  5
122
100
AcDbEntity
  8
coponent footprints
 62
256
370
-1
 48
1.0
  6
BYLAYER
100
AcDbCircle
 10
0.0
 20
0.0
 30
0.0
 40
1.9939
  0
CIRCLE
  5
123
100
AcDbEntity
  8
coponent footprints
 62
256
370
-1
 48
1.0
  6
BYLAYER
100
AcDbCircle
 10
23.8125
 20
0.0000000000000284
 30
0.0
 40
1.9939
  0
CIRCLE
  5
124
100
AcDbEntity
  8
coponent footprints
 62
256
370
-1
 48
1.0
  6
BYLAYER
100
AcDbCircle
 10
44.3717927397187708
 20
-0.6666128257831296
 30
0.0
 40
1.9939
  0
CIRCLE
  5
125
100
AcDbEntity
  8
coponent footprints
 62
256
370
-1
 48
1.0
  6
BYLAYER
100
AcDbCircle
 10
44.3717927397187637
 20
-20.0089477992121232
 30
0.0
 40
1.9939
  0
CIRCLE
  5
126
100
AcDbEntity
  8
coponent footprints
 62
256
370
-1
 48
1.0
  6
BYLAYER
100
AcDbCircle
 10
63.1323804346013162
 20
-3.97461061033815
 30
0.0
 40
1.9939
  0
CIRCLE
  5
127
100
AcDbEntity
  8
coponent footprints
 62
256
370
-1
 48
1.0
  6
BYLAYER
100
AcDbCircle
 10
63.1323804346013517
 20
-23.3169455837671542
 30
0.0
 40
1.9939
  0
CIRCLE
  5
128
100
AcDbEntity
  8
coponent footprints
 62
256
370
-1
 48
1.0
  6
BYLAYER
100
AcDbCircle
 10
67.8446245152233303
 20
-43.4917183112879826
 30
0.0
 40
1.9939
  0
CIRCLE
  5
129
100
AcDbEntity
  8
coponent footprints
 62
256
370
-1
 48
1.0
  6
BYLAYER
100
AcDbCircle
 10
81.8929681294838758
 20
-7.2826083948931721
 30
0.0
 40
1.9939
  0
CIRCLE
  5
12A
100
AcDbEntity
  8
coponent footprints
 62
256
370
-1
 48
1.0
  6
BYLAYER
100
AcDbCircle
 10
81.8929681294839185
 20
-26.6249433683221817
 30
0.0
 40
1.9939
  0
CIRCLE
  5
12B
100
AcDbEntity
  8
coponent footprints
 62
256
370
-1
 48
1.0
  6
BYLAYER
100
AcDbCircle
 10
86.6052122101058757
 20
-46.7997160958430101
 30
0.0
 40
1.9939
  0
CIRCLE
  5
12C
100
AcDbEntity
  8
coponent footprints
 62
256
370
-1
 48
1.0
  6
BYLAYER
100
AcDbCircle
 10
90.3324348111318045
 20
-66.800802959933705
 30
0.0
 40
1.9939
  0
CIRCLE
  5
12D
100
AcDbEntity
  8
coponent footprints
 62
256
370
-1
 48
1.0
  6
BYLAYER
100
AcDbCircle
 10
122.472388707593467
 20
-62.7960055123943164
 30
0.0
 40
1.9939
  0
CIRCLE
  5
12E
100
AcDbEntity
  8
coponent footprints
 62
256
370
-1
 48
1.0
  6
BYLAYER
100
AcDbCircle
 10
100.6535558243664639
 20
-10.5906061794481978
 30
0.0
 40
1.9939
  0
CIRCLE
  5
12F
100
AcDbEntity
  8
coponent footprints
 62
256
370
-1
 48
1.0
  6
BYLAYER
100
AcDbCircle
 10
100.6535558243664781
 20
-29.932941152877202
 30
0.0
 40
1.9939
  0
CIRCLE
  5
130
100
AcDbEntity
  8
coponent footprints
 62
256
370
-1
 48
1.0
  6
BYLAYER
100
AcDbCircle
 10
49.0840368203407493
 20
-40.1837205267329551
 30
0.0
 40
1.9939
  0
CIRCLE
  5
131
100
AcDbEntity
  8
coponent footprints
 62
256
370
-1
 48
1.0
  6
BYLAYER
100
AcDbCircle
 10
23.8125
 20
-19.0499999999999829
 30
0.0
 40
1.9939
  0
CIRCLE
  5
132
100
AcDbEntity
  8
coponent footprints
 62
256
370
-1
 48
1.0
  6
BYLAYER
100
AcDbCircle
 10
28.5750000000000171
 20
-38.0999999999999943
 30
0.0
 40
1.9939
  0
CIRCLE
  5
133
100
AcDbEntity
  8
coponent footprints
 62
256
370
-1
 48
1.0
  6
BYLAYER
100
AcDbCircle
 10
105.3657999049884495
 20
-50.1077138803980233
 30
0.0
 40
1.9939
  0
CIRCLE
  5
134
100
AcDbEntity
  8
coponent footprints
 62
256
370
-1
 48
1.0
  6
BYLAYER
100
AcDbCircle
 10
57.5014063450873323
 20
-61.0118068369624211
 30
0.0
 40
1.9939
  0
CIRCLE
  5
135
100
AcDbEntity
  8
coponent footprints
 62
256
370
-1
 48
1.0
  6
BYLAYER
100
AcDbCircle
 10
-7.1437499999999829
 20
-57.1499999999999773
 30
0.0
 40
1.9939
  0
CIRCLE
  5
136
100
AcDbEntity
  8
coponent footprints
 62
256
370
-1
 48
1.0
  6
BYLAYER
100
AcDbCircle
 10
16.6687500000000171
 20
-57.1499999999999773
 30
0.0
 40
1.9939
  0
CIRCLE
  5
137
100
AcDbEntity
  8
coponent footprints
 62
256
370
-1
 48
1.0
  6
BYLAYER
100
AcDbCircle
 10
-2.3812499999999872
 20
-38.0999999999999517
 30
0.0
 40
1.9939
  0
CIRCLE
  5
138
100
AcDbEntity
  8
coponent footprints
 62
256
370
-1
 48
1.0
  6
BYLAYER
100
AcDbCircle
 10
144.6856803395897941
 20
-24.2768639670368671
 30
0.0
 40
1.9939
  0
CIRCLE
  5
139
100
AcDbEntity
  8
coponent footprints
 62
256
370
-1
 48
1.0
  6
BYLAYER
100
AcDbCircle
 10
-2.381249999999989
 20
-19.0499999999999758
 30
0.0
 40
1.9939
  0
CIRCLE
  5
13A
100
AcDbEntity
  8
coponent footprints
 62
256
370
-1
 48
1.0
  6
BYLAYER
100
AcDbCircle
 10
166.8989719715861213
 20
-62.7960055123943732
 30
0.0
 40
1.9939
  0
CIRCLE
  5
13B
100
AcDbEntity
  8
coponent footprints
 62
256
370
-1
 48
1.0
  6
BYLAYER
100
AcDbCircle
 10
203.7290727917684592
 20
-65.9738035137949907
 30
0.0
 40
1.9939
  0
CIRCLE
  5
13C
100
AcDbEntity
  8
coponent footprints
 62
256
370
-1
 48
1.0
  6
BYLAYER
100
AcDbCircle
 10
184.0055607741911672
 20
-50.1077138803980873
 30
0.0
 40
1.9939
  0
CIRCLE
  5
13D
100
AcDbEntity
  8
coponent footprints
 62
256
370
-1
 48
1.0
  6
BYLAYER
100
AcDbCircle
 10
202.7661484690737268
 20
-46.7997160958430811
 30
0.0
 40
1.9939
  0
CIRCLE
  5
13E
100
AcDbEntity
  8
coponent footprints
 62
256
370
-1
 48
1.0
  6
BYLAYER
100
AcDbCircle
 10
188.7178048548131244
 20
-29.9329411528772766
 30
0.0
 40
1.9939
  0
CIRCLE
  5
13F
100
AcDbEntity
  8
coponent footprints
 62
256
370
-1
 48
1.0
  6
BYLAYER
100
AcDbCircle
 10
188.7178048548131812
 20
-10.5906061794482582
 30
0.0
 40
1.9939
  0
CIRCLE
  5
140
100
AcDbEntity
  8
coponent footprints
 62
256
370
-1
 48
1.0
  6
BYLAYER
100
AcDbCircle
 10
207.4783925496957409
 20
-7.2826083948932343
 30
0.0
 40
1.9939
  0
CIRCLE
  5
141
100
AcDbEntity
  8
coponent footprints
 62
256
370
-1
 48
1.0
  6
BYLAYER
100
AcDbCircle
 10
207.478392549695684
 20
-26.6249433683222776
 30
0.0
 40
1.9939
  0
CIRCLE
  5
142
100
AcDbEntity
  8
coponent footprints
 62
256
370
-1
 48
1.0
  6
BYLAYER
100
AcDbCircle
 10
226.2389802445783005
 20
-3.9746106103382162
 30
0.0
 40
1.9939
  0
CIRCLE
  5
143
100
AcDbEntity
  8
coponent footprints
 62
256
370
-1
 48
1.0
  6
BYLAYER
100
AcDbCircle
 10
226.238980244578272
 20
-23.3169455837672182
 30
0.0
 40
1.9939
  0
CIRCLE
  5
144
100
AcDbEntity
  8
coponent footprints
 62
256
370
-1
 48
1.0
  6
BYLAYER
100
AcDbCircle
 10
221.5267361639562864
 20
-43.4917183112880821
 30
0.0
 40
1.9939
  0
CIRCLE
  5
145
100
AcDbEntity
  8
coponent footprints
 62
256
370
-1
 48
1.0
  6
BYLAYER
100
AcDbCircle
 10
240.287323858838846
 20
-40.1837205267330262
 30
0.0
 40
1.9939
  0
CIRCLE
  5
146
100
AcDbEntity
  8
coponent footprints
 62
256
370
-1
 48
1.0
  6
BYLAYER
100
AcDbCircle
 10
260.7963606791796565
 20
-38.1000000000000227
 30
0.0
 40
1.9939
  0
CIRCLE
  5
147
100
AcDbEntity
  8
coponent footprints
 62
256
370
-1
 48
1.0
  6
BYLAYER
100
AcDbCircle
 10
244.9995679394608032
 20
-20.0089477992121907
 30
0.0
 40
1.9939
  0
CIRCLE
  5
148
100
AcDbEntity
  8
coponent footprints
 62
256
370
-1
 48
1.0
  6
BYLAYER
100
AcDbCircle
 10
244.9995679394608885
 20
-0.6666128257831916
 30
0.0
 40
1.9939
  0
CIRCLE
  5
149
100
AcDbEntity
  8
coponent footprints
 62
256
370
-1
 48
1.0
  6
BYLAYER
100
AcDbCircle
 10
265.5588606791796451
 20
-0.0000000000000666
 30
0.0
 40
1.9939
  0
CIRCLE
  5
14A
100
AcDbEntity
  8
coponent footprints
 62
256
370
-1
 48
1.0
  6
BYLAYER
100
AcDbCircle
 10
294.1338606791796906
 20
-0.0000000000000684
 30
0.0
 40
1.9939
  0
CIRCLE
  5
14B
100
AcDbEntity
  8
coponent footprints
 62
256
370
-1
 48
1.0
  6
BYLAYER
100
AcDbCircle
 10
296.5151106791797702
 20
-19.0500000000000469
 30
0.0
 40
1.9939
  0
CIRCLE
  5
14C
100
AcDbEntity
  8
coponent footprints
 62
256
370
-1
 48
1.0
  6
BYLAYER
100
AcDbCircle
 10
296.5151106791796565
 20
-38.1000000000000156
 30
0.0
 40
1.9939
  0
CIRCLE
  5
14D
100
AcDbEntity
  8
coponent footprints
 62
256
370
-1
 48
1.0
  6
BYLAYER
100
AcDbCircle
 10
270.3213606791797474
 20
-57.1499999999998707
 30
0.0
 40
1.9939
  0
CIRCLE
  5
14E
100
AcDbEntity
  8
coponent footprints
 62
256
370
-1
 48
1.0
  6
BYLAYER
100
AcDbCircle
 10
289.3713606791798156
 20
-57.1499999999999275
 30
0.0
 40
1.9939
  0
CIRCLE
  5
14F
100
AcDbEntity
  8
coponent footprints
 62
256
370
-1
 48
1.0
  6
BYLAYER
100
AcDbCircle
 10
308.4213606791798838
 20
-57.1499999999999275
 30
0.0
 40
1.9939
  0
CIRCLE
  5
150
100
AcDbEntity
  8
coponent footprints
 62
256
370
-1
 48
1.0
  6
BYLAYER
100
AcDbCircle
 10
238.9051747196732833
 20
-59.7713076677543143
 30
0.0
 40
1.9939
  0
CIRCLE
  5
151
100
AcDbEntity
  8
coponent footprints
 62
256
370
-1
 48
1.0
  6
BYLAYER
100
AcDbCircle
 10
265.5588606791795883
 20
-19.050000000000054
 30
0.0
 40
1.9939
  0
LINE
  5
152
100
AcDbEntity
  8
coponent footprints
 62
256
370
-1
 48
1.0
  6
BYLAYER
100
AcDbLine
 10
53.7520865871600222
 20
-2.3206117180606389
 30
0.0
 11
52.1887042792531446
 21
-2.0449452360143869
 31
0.0
  0
LINE
  5
153
100
AcDbEntity
  8
coponent footprints
 62
256
370
-1
 48
1.0
  6
BYLAYER
100
AcDbLine
 10
91.2732619769251556
 20
-8.9366072871706859
 30
0.0
 11
89.7098796690182922
 21
-8.6609408051244348
 31
0.0
  0
LINE
  5
154
100
AcDbEntity
  8
coponent footprints
 62
256
370
-1
 48
1.0
  6
BYLAYER
100
AcDbLine
 10
91.2732619769251983
 20
-28.2789422605996918
 30
0.0
 11
89.7098796690183349
 21
-28.0032757785534407
 31
0.0
  0
LINE
  5
155
100
AcDbEntity
  8
coponent footprints
 62
256
370
-1
 48
1.0
  6
BYLAYER
100
AcDbLine
 10
110.0338496718077153
 20
-12.244605071725708
 30
0.0
 11
108.4704673639008519
 21
-11.9689385896794604
 31
0.0
  0
LINE
  5
156
100
AcDbEntity
  8
coponent footprints
 62
256
370
-1
 48
1.0
  6
BYLAYER
100
AcDbLine
 10
114.7460937524297151
 20
-51.7617127726755371
 30
0.0
 11
113.1827114445228517
 21
-51.4860462906292895
 31
0.0
  0
LINE
  5
157
100
AcDbEntity
  8
coponent footprints
 62
256
370
-1
 48
1.0
  6
BYLAYER
100
AcDbLine
 10
95.9855060575471555
 20
-48.4537149881205096
 30
0.0
 11
94.4221237496402921
 21
-48.178048506074262
 31
0.0
  0
LINE
  5
158
100
AcDbEntity
  8
coponent footprints
 62
256
370
-1
 48
1.0
  6
BYLAYER
100
AcDbLine
 10
55.3154688950668998
 20
-2.5962782001068909
 30
0.0
 11
53.7520865871600222
 21
-2.3206117180606389
 31
0.0
  0
LINE
  5
159
100
AcDbEntity
  8
coponent footprints
 62
256
370
-1
 48
1.0
  6
BYLAYER
100
AcDbLine
 10
92.8366442848320332
 20
-9.2122737692169387
 30
0.0
 11
91.2732619769251556
 21
-8.9366072871706876
 31
0.0
  0
LINE
  5
15A
100
AcDbEntity
  8
coponent footprints
 62
256
370
-1
 48
1.0
  6
BYLAYER
100
AcDbLine
 10
92.8366442848320901
 20
-28.554608742645943
 30
0.0
 11
91.2732619769252125
 21
-28.2789422605996918
 31
0.0
  0
LINE
  5
15B
100
AcDbEntity
  8
coponent footprints
 62
256
370
-1
 48
1.0
  6
BYLAYER
100
AcDbLine
 10
97.5488883654540473
 20
-48.7293814701667571
 30
0.0
 11
95.9855060575471697
 21
-48.4537149881205096
 31
0.0
  0
LINE
  5
15C
100
AcDbEntity
  8
coponent footprints
 62
256
370
-1
 48
1.0
  6
BYLAYER
100
AcDbLine
 10
53.7520865871600577
 20
-21.6629466914896369
 30
0.0
 11
52.1887042792531801
 21
-21.3872802094433823
 31
0.0
  0
LINE
  5
15D
100
AcDbEntity
  8
coponent footprints
 62
256
370
-1
 48
1.0
  6
BYLAYER
100
AcDbLine
 10
55.3154688950669424
 20
-21.9386131735358916
 30
0.0
 11
53.7520865871600648
 21
-21.6629466914896369
 31
0.0
  0
LINE
  5
15E
100
AcDbEntity
  8
coponent footprints
 62
256
370
-1
 48
1.0
  6
BYLAYER
100
AcDbLine
 10
12.699999999999994
 20
0.0
 30
0.0
 11
14.2874999999999943
 21
0.0
 31
0.0
  0
LINE
  5
15F
100
AcDbEntity
  8
coponent footprints
 62
256
370
-1
 48
1.0
  6
BYLAYER
100
AcDbLine
 10
12.699999999999994
 20
-19.0499999999999901
 30
0.0
 11
14.2874999999999943
 21
-19.0499999999999901
 31
0.0
  0
LINE
  5
160
100
AcDbEntity
  8
coponent footprints
 62
256
370
-1
 48
1.0
  6
BYLAYER
100
AcDbLine
 10
33.3375000000000057
 20
-19.0499999999999829
 30
0.0
 11
34.9250000000000043
 21
-19.0499999999999829
 31
0.0
  0
LINE
  5
161
100
AcDbEntity
  8
coponent footprints
 62
256
370
-1
 48
1.0
  6
BYLAYER
100
AcDbLine
 10
33.3375000000000057
 20
0.0
 30
0.0
 11
34.9250000000000043
 21
0.0
 31
0.0
  0
LINE
  5
162
100
AcDbEntity
  8
coponent footprints
 62
256
370
-1
 48
1.0
  6
BYLAYER
100
AcDbLine
 10
19.0499999999999972
 20
-38.0999999999999659
 30
0.0
 11
20.6374999999999993
 21
-38.1000000000000014
 31
0.0
  0
LINE
  5
163
100
AcDbEntity
  8
coponent footprints
 62
256
370
-1
 48
1.0
  6
BYLAYER
100
AcDbLine
 10
17.4624999999999986
 20
-38.099999999999973
 30
0.0
 11
19.0500000000000007
 21
-38.099999999999973
 31
0.0
  0
LINE
  5
164
100
AcDbEntity
  8
coponent footprints
 62
256
370
-1
 48
1.0
  6
BYLAYER
100
AcDbLine
 10
60.0277129756889281
 20
-42.1133859010567235
 30
0.0
 11
58.4643306677820505
 21
-41.8377194190104689
 31
0.0
  0
LINE
  5
165
100
AcDbEntity
  8
coponent footprints
 62
256
370
-1
 48
1.0
  6
BYLAYER
100
AcDbLine
 10
58.4643306677820433
 20
-41.8377194190104689
 30
0.0
 11
56.9009483598751657
 21
-41.5620529369642142
 31
0.0
  0
LINE
  5
166
100
AcDbEntity
  8
coponent footprints
 62
256
370
-1
 48
1.0
  6
BYLAYER
100
AcDbLine
 10
4.7625000000000171
 20
-57.1499999999999488
 30
0.0
 11
6.3500000000000174
 21
-57.1499999999999488
 31
0.0
  0
LINE
  5
167
100
AcDbEntity
  8
coponent footprints
 62
256
370
-1
 48
1.0
  6
BYLAYER
100
AcDbLine
 10
3.1750000000000171
 20
-57.1499999999999488
 30
0.0
 11
4.7625000000000171
 21
-57.1499999999999488
 31
0.0
  0
LINE
  5
168
100
AcDbEntity
  8
coponent footprints
 62
256
370
-1
 48
1.0
  6
BYLAYER
100
AcDbLine
 10
70.7901559622958132
 20
-63.3549719343555608
 30
0.0
 11
69.2267736543889356
 21
-63.0793054523093062
 31
0.0
  0
LINE
  5
169
100
AcDbEntity
  8
coponent footprints
 62
256
370
-1
 48
1.0
  6
BYLAYER
100
AcDbLine
 10
69.2267736543889214
 20
-63.0793054523093062
 30
0.0
 11
67.6633913464820438
 21
-62.8036389702630444
 31
0.0
  0
CIRCLE
  5
16A
100
AcDbEntity
  8
coponent footprints
 62
256
370
-1
 48
1.0
  6
BYLAYER
100
AcDbCircle
 10
-5.0800000000000001
 20
0.0
 30
0.0
 40
0.875
  0
CIRCLE
  5
16B
100
AcDbEntity
  8
coponent footprints
 62
256
370
-1
 48
1.0
  6
BYLAYER
100
AcDbCircle
 10
-7.4612499999999891
 20
-19.0499999999999758
 30
0.0
 40
0.875
  0
CIRCLE
  5
16C
100
AcDbEntity
  8
coponent footprints
 62
256
370
-1
 48
1.0
  6
BYLAYER
100
AcDbCircle
 10
-7.4612499999999873
 20
-38.0999999999999517
 30
0.0
 40
0.875
  0
CIRCLE
  5
16D
100
AcDbEntity
  8
coponent footprints
 62
256
370
-1
 48
1.0
  6
BYLAYER
100
AcDbCircle
 10
139.6056803395897816
 20
-24.2768639670368671
 30
0.0
 40
0.875
  0
CIRCLE
  5
16E
100
AcDbEntity
  8
coponent footprints
 62
256
370
-1
 48
1.0
  6
BYLAYER
100
AcDbCircle
 10
-12.223749999999983
 20
-57.1499999999999773
 30
0.0
 40
0.875
  0
CIRCLE
  5
16F
100
AcDbEntity
  8
coponent footprints
 62
256
370
-1
 48
1.0
  6
BYLAYER
100
AcDbCircle
 10
18.7325000000000017
 20
-19.0499999999999829
 30
0.0
 40
0.875
  0
CIRCLE
  5
170
100
AcDbEntity
  8
coponent footprints
 62
256
370
-1
 48
1.0
  6
BYLAYER
100
AcDbCircle
 10
23.4950000000000188
 20
-38.0999999999999943
 30
0.0
 40
0.875
  0
CIRCLE
  5
171
100
AcDbEntity
  8
coponent footprints
 62
256
370
-1
 48
1.0
  6
BYLAYER
100
AcDbCircle
 10
18.7325000000000017
 20
0.0000000000000284
 30
0.0
 40
0.875
  0
CIRCLE
  5
172
100
AcDbEntity
  8
coponent footprints
 62
256
370
-1
 48
1.0
  6
BYLAYER
100
AcDbCircle
 10
39.3689693544167412
 20
0.2155199167648671
 30
0.0
 40
0.875
  0
CIRCLE
  5
173
100
AcDbEntity
  8
coponent footprints
 62
256
370
-1
 48
1.0
  6
BYLAYER
100
AcDbCircle
 10
39.3689693544167341
 20
-19.1268150566641246
 30
0.0
 40
0.875
  0
CIRCLE
  5
174
100
AcDbEntity
  8
coponent footprints
 62
256
370
-1
 48
1.0
  6
BYLAYER
100
AcDbCircle
 10
44.0812134350386984
 20
-39.3015877841849601
 30
0.0
 40
0.875
  0
CIRCLE
  5
175
100
AcDbEntity
  8
coponent footprints
 62
256
370
-1
 48
1.0
  6
BYLAYER
100
AcDbCircle
 10
58.1295570492992866
 20
-3.0924778677901532
 30
0.0
 40
0.875
  0
CIRCLE
  5
176
100
AcDbEntity
  8
coponent footprints
 62
256
370
-1
 48
1.0
  6
BYLAYER
100
AcDbCircle
 10
58.1295570492993221
 20
-22.4348128412191556
 30
0.0
 40
0.875
  0
CIRCLE
  5
177
100
AcDbEntity
  8
coponent footprints
 62
256
370
-1
 48
1.0
  6
BYLAYER
100
AcDbCircle
 10
62.8418011299213006
 20
-42.6095855687399876
 30
0.0
 40
0.875
  0
CIRCLE
  5
178
100
AcDbEntity
  8
coponent footprints
 62
256
370
-1
 48
1.0
  6
BYLAYER
100
AcDbCircle
 10
52.4985829597853026
 20
-60.1296740944144261
 30
0.0
 40
0.875
  0
CIRCLE
  5
179
100
AcDbEntity
  8
coponent footprints
 62
256
370
-1
 48
1.0
  6
BYLAYER
100
AcDbCircle
 10
76.8901447441818533
 20
-6.4004756523451753
 30
0.0
 40
0.875
  0
CIRCLE
  5
17A
100
AcDbEntity
  8
coponent footprints
 62
256
370
-1
 48
1.0
  6
BYLAYER
100
AcDbCircle
 10
76.8901447441818817
 20
-25.7428106257741831
 30
0.0
 40
0.875
  0
CIRCLE
  5
17B
100
AcDbEntity
  8
coponent footprints
 62
256
370
-1
 48
1.0
  6
BYLAYER
100
AcDbCircle
 10
81.6023888248038389
 20
-45.9175833532950151
 30
0.0
 40
0.875
  0
CIRCLE
  5
17C
100
AcDbEntity
  8
coponent footprints
 62
256
370
-1
 48
1.0
  6
BYLAYER
100
AcDbCircle
 10
85.329611425829782
 20
-65.91867021738571
 30
0.0
 40
0.875
  0
CIRCLE
  5
17D
100
AcDbEntity
  8
coponent footprints
 62
256
370
-1
 48
1.0
  6
BYLAYER
100
AcDbCircle
 10
121.5902559650454862
 20
-67.7988288976963389
 30
0.0
 40
0.875
  0
CIRCLE
  5
17E
100
AcDbEntity
  8
coponent footprints
 62
256
370
-1
 48
1.0
  6
BYLAYER
100
AcDbCircle
 10
95.6507324390644413
 20
-9.708473436900201
 30
0.0
 40
0.875
  0
CIRCLE
  5
17F
100
AcDbEntity
  8
coponent footprints
 62
256
370
-1
 48
1.0
  6
BYLAYER
100
AcDbCircle
 10
95.6507324390644555
 20
-29.050808410329207
 30
0.0
 40
0.875
  0
CIRCLE
  5
180
100
AcDbEntity
  8
coponent footprints
 62
256
370
-1
 48
1.0
  6
BYLAYER
100
AcDbCircle
 10
100.362976519686427
 20
-49.2255811378500283
 30
0.0
 40
0.875
  0
CIRCLE
  5
181
100
AcDbEntity
  8
coponent footprints
 62
256
370
-1
 48
1.0
  6
BYLAYER
100
AcDbCircle
 10
11.588750000000017
 20
-57.1499999999999773
 30
0.0
 40
0.875
  0
CIRCLE
  5
182
100
AcDbEntity
  8
coponent footprints
 62
256
370
-1
 48
1.0
  6
BYLAYER
100
AcDbCircle
 10
5.0800000000000001
 20
0.0
 30
0.0
 40
0.875
  0
CIRCLE
  5
183
100
AcDbEntity
  8
coponent footprints
 62
256
370
-1
 48
1.0
  6
BYLAYER
100
AcDbCircle
 10
2.6987500000000111
 20
-19.0499999999999758
 30
0.0
 40
0.875
  0
CIRCLE
  5
184
100
AcDbEntity
  8
coponent footprints
 62
256
370
-1
 48
1.0
  6
BYLAYER
100
AcDbCircle
 10
2.6987500000000129
 20
-38.0999999999999517
 30
0.0
 40
0.875
  0
CIRCLE
  5
185
100
AcDbEntity
  8
coponent footprints
 62
256
370
-1
 48
1.0
  6
BYLAYER
100
AcDbCircle
 10
149.7656803395898066
 20
-24.2768639670368671
 30
0.0
 40
0.875
  0
CIRCLE
  5
186
100
AcDbEntity
  8
coponent footprints
 62
256
370
-1
 48
1.0
  6
BYLAYER
100
AcDbCircle
 10
-2.0637499999999829
 20
-57.1499999999999773
 30
0.0
 40
0.875
  0
CIRCLE
  5
187
100
AcDbEntity
  8
coponent footprints
 62
256
370
-1
 48
1.0
  6
BYLAYER
100
AcDbCircle
 10
28.8924999999999983
 20
-19.0499999999999829
 30
0.0
 40
0.875
  0
CIRCLE
  5
188
100
AcDbEntity
  8
coponent footprints
 62
256
370
-1
 48
1.0
  6
BYLAYER
100
AcDbCircle
 10
33.6550000000000153
 20
-38.0999999999999943
 30
0.0
 40
0.875
  0
CIRCLE
  5
189
100
AcDbEntity
  8
coponent footprints
 62
256
370
-1
 48
1.0
  6
BYLAYER
100
AcDbCircle
 10
28.8924999999999983
 20
0.0000000000000284
 30
0.0
 40
0.875
  0
CIRCLE
  5
18A
100
AcDbEntity
  8
coponent footprints
 62
256
370
-1
 48
1.0
  6
BYLAYER
100
AcDbCircle
 10
49.3746161250207791
 20
-1.5487455683311184
 30
0.0
 40
0.875
  0
CIRCLE
  5
18B
100
AcDbEntity
  8
coponent footprints
 62
256
370
-1
 48
1.0
  6
BYLAYER
100
AcDbCircle
 10
49.374616125020772
 20
-20.8910805417601111
 30
0.0
 40
0.875
  0
CIRCLE
  5
18C
100
AcDbEntity
  8
coponent footprints
 62
256
370
-1
 48
1.0
  6
BYLAYER
100
AcDbCircle
 10
54.0868602056427363
 20
-41.0658532692809501
 30
0.0
 40
0.875
  0
CIRCLE
  5
18D
100
AcDbEntity
  8
coponent footprints
 62
256
370
-1
 48
1.0
  6
BYLAYER
100
AcDbCircle
 10
68.1352038199033245
 20
-4.8567433528861379
 30
0.0
 40
0.875
  0
CIRCLE
  5
18E
100
AcDbEntity
  8
coponent footprints
 62
256
370
-1
 48
1.0
  6
BYLAYER
100
AcDbCircle
 10
68.1352038199033672
 20
-24.1990783263151421
 30
0.0
 40
0.875
  0
CIRCLE
  5
18F
100
AcDbEntity
  8
coponent footprints
 62
256
370
-1
 48
1.0
  6
BYLAYER
100
AcDbCircle
 10
72.8474479005253386
 20
-44.3738510538359776
 30
0.0
 40
0.875
  0
CIRCLE
  5
190
100
AcDbEntity
  8
coponent footprints
 62
256
370
-1
 48
1.0
  6
BYLAYER
100
AcDbCircle
 10
62.5042297303893406
 20
-61.8939395795104161
 30
0.0
 40
0.875
  0
CIRCLE
  5
191
100
AcDbEntity
  8
coponent footprints
 62
256
370
-1
 48
1.0
  6
BYLAYER
100
AcDbCircle
 10
86.8957915147858841
 20
-8.16474113744116
 30
0.0
 40
0.875
  0
CIRCLE
  5
192
100
AcDbEntity
  8
coponent footprints
 62
256
370
-1
 48
1.0
  6
BYLAYER
100
AcDbCircle
 10
86.8957915147859268
 20
-27.5070761108701696
 30
0.0
 40
0.875
  0
CIRCLE
  5
193
100
AcDbEntity
  8
coponent footprints
 62
256
370
-1
 48
1.0
  6
BYLAYER
100
AcDbCircle
 10
91.608035595407884
 20
-47.6818488383910051
 30
0.0
 40
0.875
  0
CIRCLE
  5
194
100
AcDbEntity
  8
coponent footprints
 62
256
370
-1
 48
1.0
  6
BYLAYER
100
AcDbCircle
 10
95.3352581964338128
 20
-67.6829357024817
 30
0.0
 40
0.875
  0
CIRCLE
  5
195
100
AcDbEntity
  8
coponent footprints
 62
256
370
-1
 48
1.0
  6
BYLAYER
100
AcDbCircle
 10
123.3545214501414478
 20
-57.7931821270923081
 30
0.0
 40
0.875
  0
CIRCLE
  5
196
100
AcDbEntity
  8
coponent footprints
 62
256
370
-1
 48
1.0
  6
BYLAYER
100
AcDbCircle
 10
105.6563792096684722
 20
-11.4727389219961857
 30
0.0
 40
0.875
  0
CIRCLE
  5
197
100
AcDbEntity
  8
coponent footprints
 62
256
370
-1
 48
1.0
  6
BYLAYER
100
AcDbCircle
 10
105.6563792096684864
 20
-30.815073895425197
 30
0.0
 40
0.875
  0
CIRCLE
  5
198
100
AcDbEntity
  8
coponent footprints
 62
256
370
-1
 48
1.0
  6
BYLAYER
100
AcDbCircle
 10
110.3686232902904578
 20
-50.9898466229460183
 30
0.0
 40
0.875
  0
CIRCLE
  5
199
100
AcDbEntity
  8
coponent footprints
 62
256
370
-1
 48
1.0
  6
BYLAYER
100
AcDbCircle
 10
21.7487500000000153
 20
-57.1499999999999773
 30
0.0
 40
0.875
  0
CIRCLE
  5
19A
100
AcDbEntity
  8
coponent footprints
 62
256
370
-1
 48
1.0
  6
BYLAYER
100
AcDbCircle
 10
-3.8100000000000001
 20
2.54
 30
0.0
 40
1.125
  0
CIRCLE
  5
19B
100
AcDbEntity
  8
coponent footprints
 62
256
370
-1
 48
1.0
  6
BYLAYER
100
AcDbCircle
 10
2.54
 20
5.0800000000000001
 30
0.0
 40
1.125
  0
CIRCLE
  5
19C
100
AcDbEntity
  8
coponent footprints
 62
256
370
-1
 48
1.0
  6
BYLAYER
100
AcDbCircle
 10
-6.1912499999999895
 20
-16.5099999999999767
 30
0.0
 40
1.125
  0
CIRCLE
  5
19D
100
AcDbEntity
  8
coponent footprints
 62
256
370
-1
 48
1.0
  6
BYLAYER
100
AcDbCircle
 10
0.158750000000011
 20
-13.9699999999999775
 30
0.0
 40
1.125
  0
CIRCLE
  5
19E
100
AcDbEntity
  8
coponent footprints
 62
256
370
-1
 48
1.0
  6
BYLAYER
100
AcDbCircle
 10
-6.1912499999999877
 20
-35.5599999999999525
 30
0.0
 40
1.125
  0
CIRCLE
  5
19F
100
AcDbEntity
  8
coponent footprints
 62
256
370
-1
 48
1.0
  6
BYLAYER
100
AcDbCircle
 10
140.8756803395897919
 20
-21.736863967036868
 30
0.0
 40
1.125
  0
CIRCLE
  5
1A0
100
AcDbEntity
  8
coponent footprints
 62
256
370
-1
 48
1.0
  6
BYLAYER
100
AcDbCircle
 10
0.1587500000000128
 20
-33.0199999999999534
 30
0.0
 40
1.125
  0
CIRCLE
  5
1A1
100
AcDbEntity
  8
coponent footprints
 62
256
370
-1
 48
1.0
  6
BYLAYER
100
AcDbCircle
 10
147.2256803395897862
 20
-19.1968639670368688
 30
0.0
 40
1.125
  0
CIRCLE
  5
1A2
100
AcDbEntity
  8
coponent footprints
 62
256
370
-1
 48
1.0
  6
BYLAYER
100
AcDbCircle
 10
-10.9537499999999834
 20
-54.6099999999999781
 30
0.0
 40
1.125
  0
CIRCLE
  5
1A3
100
AcDbEntity
  8
coponent footprints
 62
256
370
-1
 48
1.0
  6
BYLAYER
100
AcDbCircle
 10
-4.6037499999999829
 20
-52.069999999999979
 30
0.0
 40
1.125
  0
CIRCLE
  5
1A4
100
AcDbEntity
  8
coponent footprints
 62
256
370
-1
 48
1.0
  6
BYLAYER
100
AcDbCircle
 10
20.0025000000000013
 20
-16.5099999999999838
 30
0.0
 40
1.125
  0
CIRCLE
  5
1A5
100
AcDbEntity
  8
coponent footprints
 62
256
370
-1
 48
1.0
  6
BYLAYER
100
AcDbCircle
 10
26.3524999999999991
 20
-13.9699999999999811
 30
0.0
 40
1.125
  0
CIRCLE
  5
1A6
100
AcDbEntity
  8
coponent footprints
 62
256
370
-1
 48
1.0
  6
BYLAYER
100
AcDbCircle
 10
24.7650000000000183
 20
-35.5599999999999952
 30
0.0
 40
1.125
  0
CIRCLE
  5
1A7
100
AcDbEntity
  8
coponent footprints
 62
256
370
-1
 48
1.0
  6
BYLAYER
100
AcDbCircle
 10
31.1150000000000162
 20
-33.019999999999996
 30
0.0
 40
1.125
  0
CIRCLE
  5
1A8
100
AcDbEntity
  8
coponent footprints
 62
256
370
-1
 48
1.0
  6
BYLAYER
100
AcDbCircle
 10
20.0025000000000013
 20
2.5400000000000285
 30
0.0
 40
1.125
  0
CIRCLE
  5
1A9
100
AcDbEntity
  8
coponent footprints
 62
256
370
-1
 48
1.0
  6
BYLAYER
100
AcDbCircle
 10
26.3524999999999991
 20
5.0800000000000285
 30
0.0
 40
1.125
  0
CIRCLE
  5
1AA
100
AcDbEntity
  8
coponent footprints
 62
256
370
-1
 48
1.0
  6
BYLAYER
100
AcDbCircle
 10
41.0607415720162479
 20
2.4963984237788885
 30
0.0
 40
1.125
  0
CIRCLE
  5
1AB
100
AcDbEntity
  8
coponent footprints
 62
256
370
-1
 48
1.0
  6
BYLAYER
100
AcDbCircle
 10
47.75533717491777
 20
3.8951441882448705
 30
0.0
 40
1.125
  0
CIRCLE
  5
1AC
100
AcDbEntity
  8
coponent footprints
 62
256
370
-1
 48
1.0
  6
BYLAYER
100
AcDbCircle
 10
41.0607415720162408
 20
-16.845936549650105
 30
0.0
 40
1.125
  0
CIRCLE
  5
1AD
100
AcDbEntity
  8
coponent footprints
 62
256
370
-1
 48
1.0
  6
BYLAYER
100
AcDbCircle
 10
47.7553371749177629
 20
-15.447190785184123
 30
0.0
 40
1.125
  0
CIRCLE
  5
1AE
100
AcDbEntity
  8
coponent footprints
 62
256
370
-1
 48
1.0
  6
BYLAYER
100
AcDbCircle
 10
45.7729856526382051
 20
-37.020709277170937
 30
0.0
 40
1.125
  0
CIRCLE
  5
1AF
100
AcDbEntity
  8
coponent footprints
 62
256
370
-1
 48
1.0
  6
BYLAYER
100
AcDbCircle
 10
52.4675812555397272
 20
-35.6219635127049585
 30
0.0
 40
1.125
  0
CIRCLE
  5
1B0
100
AcDbEntity
  8
coponent footprints
 62
256
370
-1
 48
1.0
  6
BYLAYER
100
AcDbCircle
 10
59.8213292668987933
 20
-0.8115993607761318
 30
0.0
 40
1.125
  0
CIRCLE
  5
1B1
100
AcDbEntity
  8
coponent footprints
 62
256
370
-1
 48
1.0
  6
BYLAYER
100
AcDbCircle
 10
66.5159248698003154
 20
0.5871464036898502
 30
0.0
 40
1.125
  0
CIRCLE
  5
1B2
100
AcDbEntity
  8
coponent footprints
 62
256
370
-1
 48
1.0
  6
BYLAYER
100
AcDbCircle
 10
59.8213292668988288
 20
-20.153934334205136
 30
0.0
 40
1.125
  0
CIRCLE
  5
1B3
100
AcDbEntity
  8
coponent footprints
 62
256
370
-1
 48
1.0
  6
BYLAYER
100
AcDbCircle
 10
66.5159248698003438
 20
-18.755188569739154
 30
0.0
 40
1.125
  0
CIRCLE
  5
1B4
100
AcDbEntity
  8
coponent footprints
 62
256
370
-1
 48
1.0
  6
BYLAYER
100
AcDbCircle
 10
64.5335733475208002
 20
-40.3287070617259644
 30
0.0
 40
1.125
  0
CIRCLE
  5
1B5
100
AcDbEntity
  8
coponent footprints
 62
256
370
-1
 48
1.0
  6
BYLAYER
100
AcDbCircle
 10
71.2281689504223294
 20
-38.929961297259986
 30
0.0
 40
1.125
  0
CIRCLE
  5
1B6
100
AcDbEntity
  8
coponent footprints
 62
256
370
-1
 48
1.0
  6
BYLAYER
100
AcDbCircle
 10
54.1903551773848093
 20
-57.848795587400403
 30
0.0
 40
1.125
  0
CIRCLE
  5
1B7
100
AcDbEntity
  8
coponent footprints
 62
256
370
-1
 48
1.0
  6
BYLAYER
100
AcDbCircle
 10
60.8849507802863315
 20
-56.4500498229344245
 30
0.0
 40
1.125
  0
CIRCLE
  5
1B8
100
AcDbEntity
  8
coponent footprints
 62
256
370
-1
 48
1.0
  6
BYLAYER
100
AcDbCircle
 10
78.5819169617813458
 20
-4.119597145331154
 30
0.0
 40
1.125
  0
CIRCLE
  5
1B9
100
AcDbEntity
  8
coponent footprints
 62
256
370
-1
 48
1.0
  6
BYLAYER
100
AcDbCircle
 10
85.276512564682875
 20
-2.720851380865172
 30
0.0
 40
1.125
  0
CIRCLE
  5
1BA
100
AcDbEntity
  8
coponent footprints
 62
256
370
-1
 48
1.0
  6
BYLAYER
100
AcDbCircle
 10
78.5819169617814026
 20
-23.4619321187601635
 30
0.0
 40
1.125
  0
CIRCLE
  5
1BB
100
AcDbEntity
  8
coponent footprints
 62
256
370
-1
 48
1.0
  6
BYLAYER
100
AcDbCircle
 10
85.2765125646829176
 20
-22.0631863542941815
 30
0.0
 40
1.125
  0
CIRCLE
  5
1BC
100
AcDbEntity
  8
coponent footprints
 62
256
370
-1
 48
1.0
  6
BYLAYER
100
AcDbCircle
 10
83.2941610424033598
 20
-43.6367048462809919
 30
0.0
 40
1.125
  0
CIRCLE
  5
1BD
100
AcDbEntity
  8
coponent footprints
 62
256
370
-1
 48
1.0
  6
BYLAYER
100
AcDbCircle
 10
89.9887566453048748
 20
-42.2379590818150135
 30
0.0
 40
1.125
  0
CIRCLE
  5
1BE
100
AcDbEntity
  8
coponent footprints
 62
256
370
-1
 48
1.0
  6
BYLAYER
100
AcDbCircle
 10
87.0213836434292745
 20
-63.6377917103716868
 30
0.0
 40
1.125
  0
CIRCLE
  5
1BF
100
AcDbEntity
  8
coponent footprints
 62
256
370
-1
 48
1.0
  6
BYLAYER
100
AcDbCircle
 10
93.7159792463308037
 20
-62.2390459459057013
 30
0.0
 40
1.125
  0
CIRCLE
  5
1C0
100
AcDbEntity
  8
coponent footprints
 62
256
370
-1
 48
1.0
  6
BYLAYER
100
AcDbCircle
 10
119.309377458031463
 20
-66.1070566800968464
 30
0.0
 40
1.125
  0
CIRCLE
  5
1C1
100
AcDbEntity
  8
coponent footprints
 62
256
370
-1
 48
1.0
  6
BYLAYER
100
AcDbCircle
 10
117.9106316935654775
 20
-59.4124610771953172
 30
0.0
 40
1.125
  0
CIRCLE
  5
1C2
100
AcDbEntity
  8
coponent footprints
 62
256
370
-1
 48
1.0
  6
BYLAYER
100
AcDbCircle
 10
97.3425046566639338
 20
-7.4275949298861796
 30
0.0
 40
1.125
  0
CIRCLE
  5
1C3
100
AcDbEntity
  8
coponent footprints
 62
256
370
-1
 48
1.0
  6
BYLAYER
100
AcDbCircle
 10
104.037100259565463
 20
-6.0288491654201977
 30
0.0
 40
1.125
  0
CIRCLE
  5
1C4
100
AcDbEntity
  8
coponent footprints
 62
256
370
-1
 48
1.0
  6
BYLAYER
100
AcDbCircle
 10
97.342504656663948
 20
-26.7699299033151874
 30
0.0
 40
1.125
  0
CIRCLE
  5
1C5
100
AcDbEntity
  8
coponent footprints
 62
256
370
-1
 48
1.0
  6
BYLAYER
100
AcDbCircle
 10
104.0371002595654772
 20
-25.3711841388492054
 30
0.0
 40
1.125
  0
CIRCLE
  5
1C6
100
AcDbEntity
  8
coponent footprints
 62
256
370
-1
 48
1.0
  6
BYLAYER
100
AcDbCircle
 10
102.0547487372859194
 20
-46.9447026308360051
 30
0.0
 40
1.125
  0
CIRCLE
  5
1C7
100
AcDbEntity
  8
coponent footprints
 62
256
370
-1
 48
1.0
  6
BYLAYER
100
AcDbCircle
 10
108.7493443401874487
 20
-45.5459568663700267
 30
0.0
 40
1.125
  0
CIRCLE
  5
1C8
100
AcDbEntity
  8
coponent footprints
 62
256
370
-1
 48
1.0
  6
BYLAYER
100
AcDbCircle
 10
12.8587500000000166
 20
-54.6099999999999781
 30
0.0
 40
1.125
  0
CIRCLE
  5
1C9
100
AcDbEntity
  8
coponent footprints
 62
256
370
-1
 48
1.0
  6
BYLAYER
100
AcDbCircle
 10
19.2087500000000162
 20
-52.069999999999979
 30
0.0
 40
1.125
  0
CIRCLE
  5
1CA
100
AcDbEntity
  8
coponent footprints
 62
256
370
-1
 48
1.0
  6
BYLAYER
100
AcDbCircle
 10
12.6999999999999993
 20
3.8100000000000001
 30
0.0
 40
0.6984999999999992
  0
CIRCLE
  5
1CB
100
AcDbEntity
  8
coponent footprints
 62
256
370
-1
 48
1.0
  6
BYLAYER
100
AcDbCircle
 10
12.699999999999994
 20
-3.8100000000000001
 30
0.0
 40
0.6984999999999992
  0
CIRCLE
  5
1CC
100
AcDbEntity
  8
coponent footprints
 62
256
370
-1
 48
1.0
  6
BYLAYER
100
AcDbCircle
 10
52.8503038361641586
 20
1.7071723029621255
 30
0.0
 40
0.6984999999999992
  0
CIRCLE
  5
1CD
100
AcDbEntity
  8
coponent footprints
 62
256
370
-1
 48
1.0
  6
BYLAYER
100
AcDbCircle
 10
90.3714792259292921
 20
-4.9088232661479223
 30
0.0
 40
0.6984999999999992
  0
CIRCLE
  5
1CE
100
AcDbEntity
  8
coponent footprints
 62
256
370
-1
 48
1.0
  6
BYLAYER
100
AcDbCircle
 10
90.3714792259293347
 20
-24.2511582395769274
 30
0.0
 40
0.6984999999999992
  0
CIRCLE
  5
1CF
100
AcDbEntity
  8
coponent footprints
 62
256
370
-1
 48
1.0
  6
BYLAYER
100
AcDbCircle
 10
109.1320669208118517
 20
-8.2168210507029471
 30
0.0
 40
0.6984999999999992
  0
CIRCLE
  5
1D0
100
AcDbEntity
  8
coponent footprints
 62
256
370
-1
 48
1.0
  6
BYLAYER
100
AcDbCircle
 10
113.8443110014338515
 20
-47.7339287516527762
 30
0.0
 40
0.6984999999999992
  0
CIRCLE
  5
1D1
100
AcDbEntity
  8
coponent footprints
 62
256
370
-1
 48
1.0
  6
BYLAYER
100
AcDbCircle
 10
95.0837233065512919
 20
-44.4259309670977487
 30
0.0
 40
0.6984999999999992
  0
CIRCLE
  5
1D2
100
AcDbEntity
  8
coponent footprints
 62
256
370
-1
 48
1.0
  6
BYLAYER
100
AcDbCircle
 10
51.5271047223421448
 20
-5.7970627749908994
 30
0.0
 40
0.6984999999999992
  0
CIRCLE
  5
1D3
100
AcDbEntity
  8
coponent footprints
 62
256
370
-1
 48
1.0
  6
BYLAYER
100
AcDbCircle
 10
89.0482801121072924
 20
-12.4130583441009481
 30
0.0
 40
0.6984999999999992
  0
CIRCLE
  5
1D4
100
AcDbEntity
  8
coponent footprints
 62
256
370
-1
 48
1.0
  6
BYLAYER
100
AcDbCircle
 10
89.0482801121073351
 20
-31.7553933175299541
 30
0.0
 40
0.6984999999999992
  0
CIRCLE
  5
1D5
100
AcDbEntity
  8
coponent footprints
 62
256
370
-1
 48
1.0
  6
BYLAYER
100
AcDbCircle
 10
107.8088678069898521
 20
-15.7210561286559738
 30
0.0
 40
0.6984999999999992
  0
CIRCLE
  5
1D6
100
AcDbEntity
  8
coponent footprints
 62
256
370
-1
 48
1.0
  6
BYLAYER
100
AcDbCircle
 10
112.5211118876118519
 20
-55.2381638296058028
 30
0.0
 40
0.6984999999999992
  0
CIRCLE
  5
1D7
100
AcDbEntity
  8
coponent footprints
 62
256
370
-1
 48
1.0
  6
BYLAYER
100
AcDbCircle
 10
93.7605241927292923
 20
-51.9301660450507754
 30
0.0
 40
0.6984999999999992
  0
CIRCLE
  5
1D8
100
AcDbEntity
  8
coponent footprints
 62
256
370
-1
 48
1.0
  6
BYLAYER
100
AcDbCircle
 10
34.9250000000000114
 20
-15.2399999999999824
 30
0.0
 40
0.6984999999999992
  0
CIRCLE
  5
1D9
100
AcDbEntity
  8
coponent footprints
 62
256
370
-1
 48
1.0
  6
BYLAYER
100
AcDbCircle
 10
34.9250000000000114
 20
3.8100000000000005
 30
0.0
 40
0.6984999999999992
  0
CIRCLE
  5
1DA
100
AcDbEntity
  8
coponent footprints
 62
256
370
-1
 48
1.0
  6
BYLAYER
100
AcDbCircle
 10
34.9250000000000043
 20
-22.8599999999999817
 30
0.0
 40
0.6984999999999992
  0
CIRCLE
  5
1DB
100
AcDbEntity
  8
coponent footprints
 62
256
370
-1
 48
1.0
  6
BYLAYER
100
AcDbCircle
 10
34.9250000000000043
 20
-3.8099999999999987
 30
0.0
 40
0.6984999999999992
  0
CIRCLE
  5
1DC
100
AcDbEntity
  8
coponent footprints
 62
256
370
-1
 48
1.0
  6
BYLAYER
100
AcDbCircle
 10
12.6999999999999975
 20
-15.2399999999999896
 30
0.0
 40
0.6984999999999992
  0
CIRCLE
  5
1DD
100
AcDbEntity
  8
coponent footprints
 62
256
370
-1
 48
1.0
  6
BYLAYER
100
AcDbCircle
 10
12.6999999999999922
 20
-22.8599999999999888
 30
0.0
 40
0.6984999999999992
  0
CIRCLE
  5
1DE
100
AcDbEntity
  8
coponent footprints
 62
256
370
-1
 48
1.0
  6
BYLAYER
100
AcDbCircle
 10
17.4625000000000021
 20
-34.2899999999999707
 30
0.0
 40
0.6984999999999992
  0
CIRCLE
  5
1DF
100
AcDbEntity
  8
coponent footprints
 62
256
370
-1
 48
1.0
  6
BYLAYER
100
AcDbCircle
 10
17.4624999999999986
 20
-41.9099999999999753
 30
0.0
 40
0.6984999999999992
  0
CIRCLE
  5
1E0
100
AcDbEntity
  8
coponent footprints
 62
256
370
-1
 48
1.0
  6
BYLAYER
100
AcDbCircle
 10
20.6375000000000028
 20
-34.2899999999999991
 30
0.0
 40
0.6984999999999992
  0
CIRCLE
  5
1E1
100
AcDbEntity
  8
coponent footprints
 62
256
370
-1
 48
1.0
  6
BYLAYER
100
AcDbCircle
 10
20.6374999999999957
 20
-41.9100000000000037
 30
0.0
 40
0.6984999999999992
  0
CIRCLE
  5
1E2
100
AcDbEntity
  8
coponent footprints
 62
256
370
-1
 48
1.0
  6
BYLAYER
100
AcDbCircle
 10
3.1750000000000207
 20
-53.3399999999999466
 30
0.0
 40
0.6984999999999992
  0
CIRCLE
  5
1E3
100
AcDbEntity
  8
coponent footprints
 62
256
370
-1
 48
1.0
  6
BYLAYER
100
AcDbCircle
 10
3.1750000000000154
 20
-60.9599999999999511
 30
0.0
 40
0.6984999999999992
  0
CIRCLE
  5
1E4
100
AcDbEntity
  8
coponent footprints
 62
256
370
-1
 48
1.0
  6
BYLAYER
100
AcDbCircle
 10
6.350000000000021
 20
-53.3399999999999466
 30
0.0
 40
0.6984999999999992
  0
CIRCLE
  5
1E5
100
AcDbEntity
  8
coponent footprints
 62
256
370
-1
 48
1.0
  6
BYLAYER
100
AcDbCircle
 10
6.3500000000000156
 20
-60.9599999999999511
 30
0.0
 40
0.6984999999999992
  0
LINE
  5
1E6
100
AcDbEntity
  8
coponent footprints
 62
256
370
-1
 48
1.0
  6
BYLAYER
100
AcDbLine
 10
-19.0499999999999829
 20
-66.6749999999999545
 30
0.0
 11
4.7625000000000171
 21
-66.6749999999999545
 31
0.0
  0
LINE
  5
1E7
100
AcDbEntity
  8
coponent footprints
 62
256
370
-1
 48
1.0
  6
BYLAYER
100
AcDbLine
 10
4.7625000000000162
 20
-66.6749999999999545
 30
0.0
 11
28.5750000000000171
 21
-66.6749999999999545
 31
0.0
  0
LINE
  5
1E8
100
AcDbEntity
  8
traces front
 62
256
370
-1
 48
1.0
  6
BYLAYER
100
AcDbLine
 10
2.54
 20
5.0800000000000001
 30
0.0
 11
11.4299999999999997
 21
5.0800000000000001
 31
0.0
  0
LINE
  5
1E9
100
AcDbEntity
  8
traces front
 62
256
370
-1
 48
1.0
  6
BYLAYER
100
AcDbLine
 10
0.158750000000011
 20
-13.9699999999999775
 30
0.0
 11
11.4299999999999979
 21
-13.96999999999999
 31
0.0
  0
LINE
  5
1EA
100
AcDbEntity
  8
traces front
 62
256
370
-1
 48
1.0
  6
BYLAYER
100
AcDbLine
 10
0.1587500000000128
 20
-33.0199999999999534
 30
0.0
 11
16.1925000000000026
 21
-33.0199999999999747
 31
0.0
  0
LINE
  5
1EB
100
AcDbEntity
  8
traces front
 62
256
370
-1
 48
1.0
  6
BYLAYER
100
AcDbLine
 10
-4.6037499999999829
 20
-52.069999999999979
 30
0.0
 11
1.9050000000000211
 21
-52.0699999999999505
 31
0.0
  0
LINE
  5
1EC
100
AcDbEntity
  8
traces front
 62
256
370
-1
 48
1.0
  6
BYLAYER
100
AcDbLine
 10
47.75533717491777
 20
3.8951441882448705
 30
0.0
 11
51.8201311754756517
 21
3.1784113349246228
 31
0.0
  0
LINE
  5
1ED
100
AcDbEntity
  8
traces front
 62
256
370
-1
 48
1.0
  6
BYLAYER
100
AcDbLine
 10
85.2765125646829034
 20
-2.7208513808651769
 30
0.0
 11
89.3413065652407852
 21
-3.4375842341854246
 31
0.0
  0
LINE
  5
1EE
100
AcDbEntity
  8
traces front
 62
256
370
-1
 48
1.0
  6
BYLAYER
100
AcDbLine
 10
47.7553371749177629
 20
-15.447190785184123
 30
0.0
 11
51.8201311754756446
 21
-16.1639236385043716
 31
0.0
  0
LINE
  5
1EF
100
AcDbEntity
  8
traces front
 62
256
370
-1
 48
1.0
  6
BYLAYER
100
AcDbLine
 10
52.4675812555397272
 20
-35.6219635127049585
 30
0.0
 11
56.5323752560976089
 21
-36.3386963660252107
 31
0.0
  0
LINE
  5
1F0
100
AcDbEntity
  8
traces front
 62
256
370
-1
 48
1.0
  6
BYLAYER
100
AcDbLine
 10
60.8849507802863315
 20
-56.4500498229344245
 30
0.0
 11
67.2948182427045367
 21
-57.5802823993240338
 31
0.0
  0
LINE
  5
1F1
100
AcDbEntity
  8
traces front
 62
256
370
-1
 48
1.0
  6
BYLAYER
100
AcDbLine
 10
17.144999999999996
 20
5.0800000000000001
 30
0.0
 11
26.3524999999999991
 21
5.0800000000000285
 31
0.0
  0
LINE
  5
1F2
100
AcDbEntity
  8
traces front
 62
256
370
-1
 48
1.0
  6
BYLAYER
100
AcDbLine
 10
17.144999999999996
 20
-13.9700000000000095
 30
0.0
 11
26.3524999999999991
 21
-13.9699999999999811
 31
0.0
  0
LINE
  5
1F3
100
AcDbEntity
  8
traces front
 62
256
370
-1
 48
1.0
  6
BYLAYER
100
AcDbLine
 10
21.9075000000000131
 20
-33.0200000000000244
 30
0.0
 11
31.1150000000000162
 21
-33.019999999999996
 31
0.0
  0
LINE
  5
1F4
100
AcDbEntity
  8
traces front
 62
256
370
-1
 48
1.0
  6
BYLAYER
100
AcDbLine
 10
7.620000000000017
 20
-52.0699999999999505
 30
0.0
 11
19.2087500000000162
 21
-52.069999999999979
 31
0.0
  0
LINE
  5
1F5
100
AcDbEntity
  8
traces front
 62
256
370
-1
 48
1.0
  6
BYLAYER
100
AcDbLine
 10
57.4483074839403969
 20
2.1860119995580796
 30
0.0
 11
66.5159248698003154
 21
0.5871464036898502
 31
0.0
  0
LINE
  5
1F6
100
AcDbEntity
  8
traces front
 62
256
370
-1
 48
1.0
  6
BYLAYER
100
AcDbLine
 10
94.9694828737055303
 20
-4.4299835695519398
 30
0.0
 11
104.0371002595654488
 21
-6.0288491654201692
 31
0.0
  0
LINE
  5
1F7
100
AcDbEntity
  8
traces front
 62
256
370
-1
 48
1.0
  6
BYLAYER
100
AcDbLine
 10
57.4483074839404466
 20
-17.1563229738708927
 30
0.0
 11
66.515924869800358
 21
-18.7551885697391256
 31
0.0
  0
LINE
  5
1F8
100
AcDbEntity
  8
traces front
 62
256
370
-1
 48
1.0
  6
BYLAYER
100
AcDbLine
 10
62.1605515645624322
 20
-37.3310957013917246
 30
0.0
 11
71.2281689504223436
 21
-38.9299612972599576
 31
0.0
  0
LINE
  5
1F9
100
AcDbEntity
  8
traces front
 62
256
370
-1
 48
1.0
  6
BYLAYER
100
AcDbLine
 10
72.9229945511692961
 20
-58.5726817346905619
 30
0.0
 11
93.7159792463308037
 21
-62.2390459459057013
 31
0.0
  0
LINE
  5
1FA
100
AcDbEntity
  8
traces front
 62
256
370
-1
 48
1.0
  6
BYLAYER
100
AcDbLine
 10
11.4299999999999997
 20
5.0800000000000001
 30
0.0
 11
12.6999999999999993
 21
3.8100000000000001
 31
0.0
  0
LINE
  5
1FB
100
AcDbEntity
  8
traces front
 62
256
370
-1
 48
1.0
  6
BYLAYER
100
AcDbLine
 10
11.4299999999999979
 20
-13.96999999999999
 30
0.0
 11
12.6999999999999975
 21
-15.2399999999999896
 31
0.0
  0
LINE
  5
1FC
100
AcDbEntity
  8
traces front
 62
256
370
-1
 48
1.0
  6
BYLAYER
100
AcDbLine
 10
16.1925000000000026
 20
-33.0199999999999747
 30
0.0
 11
17.4625000000000021
 21
-34.2899999999999707
 31
0.0
  0
LINE
  5
1FD
100
AcDbEntity
  8
traces front
 62
256
370
-1
 48
1.0
  6
BYLAYER
100
AcDbLine
 10
1.9050000000000211
 20
-52.0699999999999505
 30
0.0
 11
3.1750000000000207
 21
-53.3399999999999466
 31
0.0
  0
LINE
  5
1FE
100
AcDbEntity
  8
traces front
 62
256
370
-1
 48
1.0
  6
BYLAYER
100
AcDbLine
 10
51.8201311754756517
 20
3.1784113349246228
 30
0.0
 11
52.8503038361641586
 21
1.7071723029621255
 31
0.0
  0
LINE
  5
1FF
100
AcDbEntity
  8
traces front
 62
256
370
-1
 48
1.0
  6
BYLAYER
100
AcDbLine
 10
89.3413065652407852
 20
-3.4375842341854246
 30
0.0
 11
90.3714792259292921
 21
-4.9088232661479223
 31
0.0
  0
LINE
  5
200
100
AcDbEntity
  8
traces front
 62
256
370
-1
 48
1.0
  6
BYLAYER
100
AcDbLine
 10
51.8201311754756446
 20
-16.1639236385043716
 30
0.0
 11
52.8503038361641515
 21
-17.6351626704668689
 31
0.0
  0
LINE
  5
201
100
AcDbEntity
  8
traces front
 62
256
370
-1
 48
1.0
  6
BYLAYER
100
AcDbLine
 10
56.5323752560976089
 20
-36.3386963660252107
 30
0.0
 11
57.5625479167861158
 21
-37.809935397987708
 31
0.0
  0
LINE
  5
202
100
AcDbEntity
  8
traces front
 62
256
370
-1
 48
1.0
  6
BYLAYER
100
AcDbLine
 10
67.2948182427045367
 20
-57.5802823993240338
 30
0.0
 11
68.3249909033930436
 21
-59.0515214312865311
 31
0.0
  0
LINE
  5
203
100
AcDbEntity
  8
traces front
 62
256
370
-1
 48
1.0
  6
BYLAYER
100
AcDbLine
 10
17.144999999999996
 20
5.0800000000000001
 30
0.0
 11
15.8749999999999982
 21
3.8100000000000001
 31
0.0
  0
LINE
  5
204
100
AcDbEntity
  8
traces front
 62
256
370
-1
 48
1.0
  6
BYLAYER
100
AcDbLine
 10
17.144999999999996
 20
-13.9700000000000095
 30
0.0
 11
15.8749999999999982
 21
-15.2400000000000091
 31
0.0
  0
LINE
  5
205
100
AcDbEntity
  8
traces front
 62
256
370
-1
 48
1.0
  6
BYLAYER
100
AcDbLine
 10
21.9075000000000131
 20
-33.0200000000000244
 30
0.0
 11
20.6375000000000171
 21
-34.2900000000000205
 31
0.0
  0
LINE
  5
206
100
AcDbEntity
  8
traces front
 62
256
370
-1
 48
1.0
  6
BYLAYER
100
AcDbLine
 10
7.620000000000017
 20
-52.0699999999999505
 30
0.0
 11
6.350000000000021
 21
-53.3399999999999466
 31
0.0
  0
LINE
  5
207
100
AcDbEntity
  8
traces front
 62
256
370
-1
 48
1.0
  6
BYLAYER
100
AcDbLine
 10
57.4483074839403969
 20
2.1860119995580796
 30
0.0
 11
55.9770684519778996
 21
1.155839338869594
 31
0.0
  0
LINE
  5
208
100
AcDbEntity
  8
traces front
 62
256
370
-1
 48
1.0
  6
BYLAYER
100
AcDbLine
 10
94.9694828737055303
 20
-4.4299835695519398
 30
0.0
 11
93.498243841743033
 21
-5.4601562302404254
 31
0.0
  0
LINE
  5
209
100
AcDbEntity
  8
traces front
 62
256
370
-1
 48
1.0
  6
BYLAYER
100
AcDbLine
 10
57.4483074839404466
 20
-17.1563229738708927
 30
0.0
 11
55.9770684519779493
 21
-18.1864956345593782
 31
0.0
  0
LINE
  5
20A
100
AcDbEntity
  8
traces front
 62
256
370
-1
 48
1.0
  6
BYLAYER
100
AcDbLine
 10
62.1605515645624322
 20
-37.3310957013917246
 30
0.0
 11
60.689312532599935
 21
-38.3612683620802102
 31
0.0
  0
LINE
  5
20B
100
AcDbEntity
  8
traces front
 62
256
370
-1
 48
1.0
  6
BYLAYER
100
AcDbLine
 10
72.9229945511692961
 20
-58.5726817346905619
 30
0.0
 11
71.451755519206813
 21
-59.6028543953790475
 31
0.0
  0
LINE
  5
20C
100
AcDbEntity
  8
coponent footprints
 62
256
370
-1
 48
1.0
  6
BYLAYER
100
AcDbLine
 10
52.8503038361641586
 20
1.7071723029621255
 30
0.0
 11
51.5271047223421448
 21
-5.7970627749908994
 31
0.0
  0
LINE
  5
20D
100
AcDbEntity
  8
coponent footprints
 62
256
370
-1
 48
1.0
  6
BYLAYER
100
AcDbLine
 10
90.3714792259292921
 20
-4.9088232661479223
 30
0.0
 11
89.0482801121072924
 21
-12.4130583441009481
 31
0.0
  0
LINE
  5
20E
100
AcDbEntity
  8
coponent footprints
 62
256
370
-1
 48
1.0
  6
BYLAYER
100
AcDbLine
 10
90.3714792259293347
 20
-24.2511582395769274
 30
0.0
 11
89.0482801121073351
 21
-31.7553933175299541
 31
0.0
  0
LINE
  5
20F
100
AcDbEntity
  8
coponent footprints
 62
256
370
-1
 48
1.0
  6
BYLAYER
100
AcDbLine
 10
109.1320669208118517
 20
-8.2168210507029471
 30
0.0
 11
107.8088678069898521
 21
-15.7210561286559738
 31
0.0
  0
LINE
  5
210
100
AcDbEntity
  8
coponent footprints
 62
256
370
-1
 48
1.0
  6
BYLAYER
100
AcDbLine
 10
113.8443110014338515
 20
-47.7339287516527762
 30
0.0
 11
112.5211118876118519
 21
-55.2381638296058028
 31
0.0
  0
LINE
  5
211
100
AcDbEntity
  8
coponent footprints
 62
256
370
-1
 48
1.0
  6
BYLAYER
100
AcDbLine
 10
95.0837233065512919
 20
-44.4259309670977487
 30
0.0
 11
93.7605241927292923
 21
-51.9301660450507754
 31
0.0
  0
LINE
  5
212
100
AcDbEntity
  8
coponent footprints
 62
256
370
-1
 48
1.0
  6
BYLAYER
100
AcDbLine
 10
51.5271047223421732
 20
-25.1393977484198956
 30
0.0
 11
52.850303836164187
 21
-17.6351626704668689
 31
0.0
  0
LINE
  5
213
100
AcDbEntity
  8
coponent footprints
 62
256
370
-1
 48
1.0
  6
BYLAYER
100
AcDbLine
 10
56.2393488029641588
 20
-45.3141704759407276
 30
0.0
 11
57.5625479167861727
 21
-37.8099353979877009
 31
0.0
  0
LINE
  5
214
100
AcDbEntity
  8
coponent footprints
 62
256
370
-1
 48
1.0
  6
BYLAYER
100
AcDbLine
 10
59.3661134187779211
 20
-45.8655034400332369
 30
0.0
 11
60.689312532599935
 21
-38.3612683620802102
 31
0.0
  0
LINE
  5
215
100
AcDbEntity
  8
coponent footprints
 62
256
370
-1
 48
1.0
  6
BYLAYER
100
AcDbLine
 10
54.6538693381559355
 20
-25.6907307125124049
 30
0.0
 11
55.9770684519779493
 21
-18.1864956345593782
 31
0.0
  0
LINE
  5
216
100
AcDbEntity
  8
coponent footprints
 62
256
370
-1
 48
1.0
  6
BYLAYER
100
AcDbLine
 10
54.6538693381558929
 20
-6.3483957390834034
 30
0.0
 11
55.9770684519779067
 21
1.1558393388696215
 31
0.0
  0
LINE
  5
217
100
AcDbEntity
  8
coponent footprints
 62
256
370
-1
 48
1.0
  6
BYLAYER
100
AcDbLine
 10
92.1750447279210334
 20
-12.9643913081934521
 30
0.0
 11
93.498243841743033
 21
-5.4601562302404254
 31
0.0
  0
LINE
  5
218
100
AcDbEntity
  8
coponent footprints
 62
256
370
-1
 48
1.0
  6
BYLAYER
100
AcDbLine
 10
92.1750447279210903
 20
-32.3067262816224599
 30
0.0
 11
93.4982438417430899
 21
-24.8024912036694296
 31
0.0
  0
LINE
  5
219
100
AcDbEntity
  8
coponent footprints
 62
256
370
-1
 48
1.0
  6
BYLAYER
100
AcDbLine
 10
96.8872888085430475
 20
-52.4814990091432705
 30
0.0
 11
98.2104879223650471
 21
-44.9772639311902438
 31
0.0
  0
CIRCLE
  5
21A
100
AcDbEntity
  8
coponent footprints
 62
256
370
-1
 48
1.0
  6
BYLAYER
100
AcDbCircle
 10
55.9770684519779067
 20
1.1558393388696215
 30
0.0
 40
0.6985000000000028
  0
CIRCLE
  5
21B
100
AcDbEntity
  8
coponent footprints
 62
256
370
-1
 48
1.0
  6
BYLAYER
100
AcDbCircle
 10
93.498243841743033
 20
-5.4601562302404254
 30
0.0
 40
0.6985000000000028
  0
CIRCLE
  5
21C
100
AcDbEntity
  8
coponent footprints
 62
256
370
-1
 48
1.0
  6
BYLAYER
100
AcDbCircle
 10
93.4982438417430899
 20
-24.8024912036694296
 30
0.0
 40
0.6985000000000028
  0
CIRCLE
  5
21D
100
AcDbEntity
  8
coponent footprints
 62
256
370
-1
 48
1.0
  6
BYLAYER
100
AcDbCircle
 10
98.2104879223650471
 20
-44.9772639311902438
 30
0.0
 40
0.6985000000000028
  0
CIRCLE
  5
21E
100
AcDbEntity
  8
coponent footprints
 62
256
370
-1
 48
1.0
  6
BYLAYER
100
AcDbCircle
 10
54.6538693381558929
 20
-6.3483957390834034
 30
0.0
 40
0.6985000000000028
  0
CIRCLE
  5
21F
100
AcDbEntity
  8
coponent footprints
 62
256
370
-1
 48
1.0
  6
BYLAYER
100
AcDbCircle
 10
92.1750447279210334
 20
-12.9643913081934521
 30
0.0
 40
0.6985000000000028
  0
CIRCLE
  5
220
100
AcDbEntity
  8
coponent footprints
 62
256
370
-1
 48
1.0
  6
BYLAYER
100
AcDbCircle
 10
92.1750447279210903
 20
-32.3067262816224599
 30
0.0
 40
0.6985000000000028
  0
CIRCLE
  5
221
100
AcDbEntity
  8
coponent footprints
 62
256
370
-1
 48
1.0
  6
BYLAYER
100
AcDbCircle
 10
96.8872888085430475
 20
-52.4814990091432705
 30
0.0
 40
0.6985000000000028
  0
CIRCLE
  5
222
100
AcDbEntity
  8
coponent footprints
 62
256
370
-1
 48
1.0
  6
BYLAYER
100
AcDbCircle
 10
55.9770684519779493
 20
-18.1864956345593782
 30
0.0
 40
0.6985000000000028
  0
CIRCLE
  5
223
100
AcDbEntity
  8
coponent footprints
 62
256
370
-1
 48
1.0
  6
BYLAYER
100
AcDbCircle
 10
52.850303836164187
 20
-17.6351626704669115
 30
0.0
 40
0.6985000000000028
  0
CIRCLE
  5
224
100
AcDbEntity
  8
coponent footprints
 62
256
370
-1
 48
1.0
  6
BYLAYER
100
AcDbCircle
 10
51.5271047223421732
 20
-25.1393977484198956
 30
0.0
 40
0.6985000000000028
  0
CIRCLE
  5
225
100
AcDbEntity
  8
coponent footprints
 62
256
370
-1
 48
1.0
  6
BYLAYER
100
AcDbCircle
 10
54.6538693381559355
 20
-25.6907307125124049
 30
0.0
 40
0.6985000000000028
  0
CIRCLE
  5
226
100
AcDbEntity
  8
coponent footprints
 62
256
370
-1
 48
1.0
  6
BYLAYER
100
AcDbCircle
 10
57.5625479167861585
 20
-37.8099353979877648
 30
0.0
 40
0.6985000000000028
  0
CIRCLE
  5
227
100
AcDbEntity
  8
coponent footprints
 62
256
370
-1
 48
1.0
  6
BYLAYER
100
AcDbCircle
 10
56.2393488029641588
 20
-45.3141704759407276
 30
0.0
 40
0.6985000000000028
  0
CIRCLE
  5
228
100
AcDbEntity
  8
coponent footprints
 62
256
370
-1
 48
1.0
  6
BYLAYER
100
AcDbCircle
 10
60.689312532599935
 20
-38.3612683620802102
 30
0.0
 40
0.6985000000000028
  0
CIRCLE
  5
229
100
AcDbEntity
  8
coponent footprints
 62
256
370
-1
 48
1.0
  6
BYLAYER
100
AcDbCircle
 10
59.3661134187779211
 20
-45.8655034400332369
 30
0.0
 40
0.6985000000000028
  0
LINE
  5
22A
100
AcDbEntity
  8
traces front
 62
256
370
-1
 48
1.0
  6
BYLAYER
100
AcDbLine
 10
17.4624999999999986
 20
-41.9099999999999753
 30
0.0
 11
20.6374999999999957
 21
-41.9100000000000037
 31
0.0
  0
LINE
  5
22B
100
AcDbEntity
  8
traces front
 62
256
370
-1
 48
1.0
  6
BYLAYER
100
AcDbLine
 10
12.6999999999999922
 20
-22.8599999999999888
 30
0.0
 11
15.8749999999999929
 21
-22.8599999999999888
 31
0.0
  0
LINE
  5
22C
100
AcDbEntity
  8
traces front
 62
256
370
-1
 48
1.0
  6
BYLAYER
100
AcDbLine
 10
12.699999999999994
 20
-3.8100000000000001
 30
0.0
 11
15.8749999999999929
 21
-3.8100000000000001
 31
0.0
  0
LINE
  5
22D
100
AcDbEntity
  8
traces front
 62
256
370
-1
 48
1.0
  6
BYLAYER
100
AcDbLine
 10
3.1750000000000154
 20
-60.9599999999999511
 30
0.0
 11
6.3500000000000156
 21
-60.9599999999999511
 31
0.0
  0
LINE
  5
22E
100
AcDbEntity
  8
traces front
 62
256
370
-1
 48
1.0
  6
BYLAYER
100
AcDbLine
 10
51.5271047223421732
 20
-25.1393977484198956
 30
0.0
 11
38.5999977120508149
 21
-22.8599999999999852
 31
0.0
  0
LINE
  5
22F
100
AcDbEntity
  8
traces front
 62
256
370
-1
 48
1.0
  6
BYLAYER
100
AcDbLine
 10
20.6374999999999957
 20
-41.9100000000000037
 30
0.0
 11
36.9333386718820904
 21
-41.9099999999999895
 31
0.0
  0
LINE
  5
230
100
AcDbEntity
  8
traces front
 62
256
370
-1
 48
1.0
  6
BYLAYER
100
AcDbLine
 10
51.5271047223421732
 20
-25.1393977484198992
 30
0.0
 11
38.5999977120508362
 21
-22.8599999999999888
 31
0.0
  0
LINE
  5
231
100
AcDbEntity
  8
traces front
 62
256
370
-1
 48
1.0
  6
BYLAYER
100
AcDbLine
 10
51.5271047223421448
 20
-5.7970627749908994
 30
0.0
 11
40.2579117320969644
 21
-3.8100000000000005
 31
0.0
  0
LINE
  5
232
100
AcDbEntity
  8
traces front
 62
256
370
-1
 48
1.0
  6
BYLAYER
100
AcDbLine
 10
15.8749999999999929
 20
-3.8100000000000001
 30
0.0
 11
40.2579117320969573
 21
-3.8100000000000005
 31
0.0
  0
LINE
  5
233
100
AcDbEntity
  8
traces front
 62
256
370
-1
 48
1.0
  6
BYLAYER
100
AcDbLine
 10
15.8749999999999929
 20
-22.8599999999999888
 30
0.0
 11
38.5999977120508362
 21
-22.8599999999999888
 31
0.0
  0
LINE
  5
234
100
AcDbEntity
  8
traces front
 62
256
370
-1
 48
1.0
  6
BYLAYER
100
AcDbLine
 10
56.2393488029641588
 20
-45.3141704759407276
 30
0.0
 11
36.9333386718821828
 21
-41.9099999999999895
 31
0.0
  0
LINE
  5
235
100
AcDbEntity
  8
traces back
 62
256
370
-1
 48
1.0
  6
BYLAYER
100
AcDbLine
 10
20.0025000000000013
 20
-16.5099999999999838
 30
0.0
 11
20.0025000000000013
 21
-30.7974999999999994
 31
0.0
  0
LINE
  5
236
100
AcDbEntity
  8
traces back
 62
256
370
-1
 48
1.0
  6
BYLAYER
100
AcDbLine
 10
41.0607415720162479
 20
2.4963984237788885
 30
0.0
 11
38.3362502471478876
 21
-12.9549596946532066
 31
0.0
  0
LINE
  5
237
100
AcDbEntity
  8
traces back
 62
256
370
-1
 48
1.0
  6
BYLAYER
100
AcDbLine
 10
78.5819169617814026
 20
-4.1195971453311628
 30
0.0
 11
75.8574256369130495
 21
-19.5709552637632598
 31
0.0
  0
LINE
  5
238
100
AcDbEntity
  8
traces back
 62
256
370
-1
 48
1.0
  6
BYLAYER
100
AcDbLine
 10
97.3425046566639622
 20
-7.4275949298861832
 30
0.0
 11
94.6180133317956091
 21
-22.878953048318273
 31
0.0
  0
LINE
  5
239
100
AcDbEntity
  8
traces back
 62
256
370
-1
 48
1.0
  6
BYLAYER
100
AcDbLine
 10
59.8213292668987933
 20
-0.8115993607761283
 30
0.0
 11
57.0968379420304402
 21
-16.2629574792082181
 31
0.0
  0
LINE
  5
23A
100
AcDbEntity
  8
traces back
 62
256
370
-1
 48
1.0
  6
BYLAYER
100
AcDbLine
 10
41.0607415720162408
 20
-16.845936549650105
 30
0.0
 11
39.1434648788926438
 21
-27.7193530025387389
 31
0.0
  0
LINE
  5
23B
100
AcDbEntity
  8
traces back
 62
256
370
-1
 48
1.0
  6
BYLAYER
100
AcDbLine
 10
78.5819169617814026
 20
-23.4619321187601599
 30
0.0
 11
76.6646402686578057
 21
-34.3353485716487938
 31
0.0
  0
LINE
  5
23C
100
AcDbEntity
  8
traces back
 62
256
370
-1
 48
1.0
  6
BYLAYER
100
AcDbLine
 10
97.3425046566639622
 20
-26.7699299033151732
 30
0.0
 11
95.4252279635403653
 21
-37.6433463562038071
 31
0.0
  0
LINE
  5
23D
100
AcDbEntity
  8
traces back
 62
256
370
-1
 48
1.0
  6
BYLAYER
100
AcDbLine
 10
59.8213292668987933
 20
-20.1539343342051183
 30
0.0
 11
57.9040525737751963
 21
-31.0273507870937522
 31
0.0
  0
LINE
  5
23E
100
AcDbEntity
  8
traces back
 62
256
370
-1
 48
1.0
  6
BYLAYER
100
AcDbLine
 10
20.0025000000000013
 20
-30.7974999999999994
 30
0.0
 11
24.7650000000000183
 21
-35.5599999999999952
 31
0.0
  0
LINE
  5
23F
100
AcDbEntity
  8
traces back
 62
256
370
-1
 48
1.0
  6
BYLAYER
100
AcDbLine
 10
38.3362502471478948
 20
-12.9549596946532084
 30
0.0
 11
41.0607415720162408
 21
-16.845936549650105
 31
0.0
  0
LINE
  5
240
100
AcDbEntity
  8
traces back
 62
256
370
-1
 48
1.0
  6
BYLAYER
100
AcDbLine
 10
75.8574256369130495
 20
-19.5709552637632633
 30
0.0
 11
78.5819169617814026
 21
-23.4619321187601599
 31
0.0
  0
LINE
  5
241
100
AcDbEntity
  8
traces back
 62
256
370
-1
 48
1.0
  6
BYLAYER
100
AcDbLine
 10
94.6180133317956091
 20
-22.8789530483182766
 30
0.0
 11
97.3425046566639622
 21
-26.7699299033151732
 31
0.0
  0
LINE
  5
242
100
AcDbEntity
  8
traces back
 62
256
370
-1
 48
1.0
  6
BYLAYER
100
AcDbLine
 10
57.0968379420304402
 20
-16.2629574792082252
 30
0.0
 11
59.8213292668987933
 21
-20.1539343342051183
 31
0.0
  0
LINE
  5
243
100
AcDbEntity
  8
traces back
 62
256
370
-1
 48
1.0
  6
BYLAYER
100
AcDbLine
 10
39.1434648788926438
 20
-27.7193530025387389
 30
0.0
 11
45.7729856526382051
 21
-37.020709277170937
 31
0.0
  0
LINE
  5
244
100
AcDbEntity
  8
traces back
 62
256
370
-1
 48
1.0
  6
BYLAYER
100
AcDbLine
 10
76.6646402686578057
 20
-34.3353485716487938
 30
0.0
 11
83.2941610424033598
 21
-43.6367048462809919
 31
0.0
  0
LINE
  5
245
100
AcDbEntity
  8
traces back
 62
256
370
-1
 48
1.0
  6
BYLAYER
100
AcDbLine
 10
95.4252279635403653
 20
-37.6433463562038071
 30
0.0
 11
102.0547487372859194
 21
-46.9447026308360051
 31
0.0
  0
LINE
  5
246
100
AcDbEntity
  8
traces back
 62
256
370
-1
 48
1.0
  6
BYLAYER
100
AcDbLine
 10
57.9040525737751963
 20
-31.0273507870937522
 30
0.0
 11
64.5335733475207576
 21
-40.3287070617259502
 31
0.0
  0
LINE
  5
247
100
AcDbEntity
  8
traces back
 62
256
370
-1
 48
1.0
  6
BYLAYER
100
AcDbLine
 10
20.0025000000000013
 20
2.5400000000000285
 30
0.0
 11
20.0025000000000013
 21
-16.5099999999999838
 31
0.0
  0
LINE
  5
248
100
AcDbEntity
  8
traces back
 62
256
370
-1
 48
1.0
  6
BYLAYER
100
AcDbLine
 10
41.0607415720162479
 20
2.4963984237788885
 30
0.0
 11
41.0607415720162479
 21
2.4963984237788885
 31
0.0
  0
LINE
  5
249
100
AcDbEntity
  8
traces back
 62
256
370
-1
 48
1.0
  6
BYLAYER
100
AcDbLine
 10
41.0607415720162479
 20
2.5512794286607838
 30
0.0
 11
41.0607415720162479
 21
2.4415174188969933
 31
0.0
  0
LINE
  5
24A
100
AcDbEntity
  8
traces back
 62
256
370
-1
 48
1.0
  6
BYLAYER
100
AcDbLine
 10
41.0607415720162479
 20
2.5512794286607838
 30
0.0
 11
41.0607415720162479
 21
2.4415174188969933
 31
0.0
  0
LINE
  5
24B
100
AcDbEntity
  8
traces back
 62
256
370
-1
 48
1.0
  6
BYLAYER
100
AcDbLine
 10
-3.8100000000000001
 20
2.54
 30
0.0
 11
-3.8100000000000005
 21
-14.1287499999999895
 31
0.0
  0
LINE
  5
24C
100
AcDbEntity
  8
traces back
 62
256
370
-1
 48
1.0
  6
BYLAYER
100
AcDbLine
 10
-6.1912499999999895
 20
-16.5099999999999767
 30
0.0
 11
-3.8100000000000005
 21
-14.1287499999999877
 31
0.0
  0
LINE
  5
24D
100
AcDbEntity
  8
traces back
 62
256
370
-1
 48
1.0
  6
BYLAYER
100
AcDbLine
 10
-6.1912499999999895
 20
-16.5099999999999767
 30
0.0
 11
-6.1912499999999877
 21
-35.5599999999999525
 31
0.0
  0
LINE
  5
24E
100
AcDbEntity
  8
traces back
 62
256
370
-1
 48
1.0
  6
BYLAYER
100
AcDbLine
 10
-6.1912499999999877
 20
-35.5599999999999525
 30
0.0
 11
-6.1912499999999877
 21
-49.8474999999999824
 31
0.0
  0
LINE
  5
24F
100
AcDbEntity
  8
traces back
 62
256
370
-1
 48
1.0
  6
BYLAYER
100
AcDbLine
 10
-10.9537499999999834
 20
-54.6099999999999781
 30
0.0
 11
-6.1912499999999877
 21
-49.8474999999999824
 31
0.0
  0
LINE
  5
250
100
AcDbEntity
  8
traces back
 62
256
370
-1
 48
1.0
  6
BYLAYER
100
AcDbLine
 10
12.8587500000000166
 20
-54.6099999999999781
 30
0.0
 11
24.7650000000000183
 21
-42.7037499999999639
 31
0.0
  0
LINE
  5
251
100
AcDbEntity
  8
traces back
 62
256
370
-1
 48
1.0
  6
BYLAYER
100
AcDbLine
 10
24.7650000000000183
 20
-35.5599999999999952
 30
0.0
 11
24.7650000000000219
 21
-42.7037499999999781
 31
0.0
  0
LINE
  5
252
100
AcDbEntity
  8
traces back
 62
256
370
-1
 48
1.0
  6
BYLAYER
100
AcDbLine
 10
54.1903551773848093
 20
-57.848795587400403
 30
0.0
 11
44.532486483430084
 21
-44.0559296627518791
 31
0.0
  0
LINE
  5
253
100
AcDbEntity
  8
traces back
 62
256
370
-1
 48
1.0
  6
BYLAYER
100
AcDbLine
 10
44.5324864834300769
 20
-44.0559296627518791
 30
0.0
 11
45.7729856526382051
 21
-37.020709277170937
 31
0.0
  0
LINE
  5
254
100
AcDbEntity
  8
traces back
 62
256
370
-1
 48
1.0
  6
BYLAYER
100
AcDbLine
 10
64.1581459874048647
 20
-42.4578614237383292
 30
0.0
 11
64.5335733475207576
 21
-40.328707061725936
 31
0.0
  0
LINE
  5
255
100
AcDbEntity
  8
traces back
 62
256
370
-1
 48
1.0
  6
BYLAYER
100
AcDbLine
 10
77.8622540569781165
 20
-62.0293560474779255
 30
0.0
 11
87.0213836434292745
 21
-63.6377917103716868
 31
0.0
  0
LINE
  5
256
100
AcDbEntity
  8
coponent footprints
 62
256
370
-1
 48
1.0
  6
BYLAYER
100
AcDbLine
 10
67.001791789571044
 20
-66.5557565092395578
 30
0.0
 11
68.3249909033930436
 21
-59.0515214312865311
 31
0.0
  0
LINE
  5
257
100
AcDbEntity
  8
coponent footprints
 62
256
370
-1
 48
1.0
  6
BYLAYER
100
AcDbLine
 10
70.1285564053848134
 20
-67.1070894733320671
 30
0.0
 11
71.451755519206813
 21
-59.6028543953790475
 31
0.0
  0
CIRCLE
  5
258
100
AcDbEntity
  8
coponent footprints
 62
256
370
-1
 48
1.0
  6
BYLAYER
100
AcDbCircle
 10
68.3249909033930436
 20
-59.0515214312865311
 30
0.0
 40
0.6984999999999957
  0
CIRCLE
  5
259
100
AcDbEntity
  8
coponent footprints
 62
256
370
-1
 48
1.0
  6
BYLAYER
100
AcDbCircle
 10
67.001791789571044
 20
-66.5557565092395578
 30
0.0
 40
0.6984999999999957
  0
CIRCLE
  5
25A
100
AcDbEntity
  8
coponent footprints
 62
256
370
-1
 48
1.0
  6
BYLAYER
100
AcDbCircle
 10
70.1285564053848134
 20
-67.1070894733320671
 30
0.0
 40
0.6984999999999957
  0
CIRCLE
  5
25B
100
AcDbEntity
  8
coponent footprints
 62
256
370
-1
 48
1.0
  6
BYLAYER
100
AcDbCircle
 10
71.451755519206813
 20
-59.6028543953790475
 30
0.0
 40
0.6984999999999957
  0
LINE
  5
25C
100
AcDbEntity
  8
traces front
 62
256
370
-1
 48
1.0
  6
BYLAYER
100
AcDbLine
 10
6.3500000000000156
 20
-60.9599999999999511
 30
0.0
 11
35.2666796317129325
 21
-60.9599999999999511
 31
0.0
  0
LINE
  5
25D
100
AcDbEntity
  8
traces front
 62
256
370
-1
 48
1.0
  6
BYLAYER
100
AcDbLine
 10
35.2666796317129254
 20
-60.9599999999999511
 30
0.0
 11
67.001791789571044
 21
-66.5557565092395578
 31
0.0
  0
LINE
  5
25E
100
AcDbEntity
  8
traces front
 62
256
370
-1
 48
1.0
  6
BYLAYER
100
AcDbLine
 10
68.3249909033930294
 20
-59.051521431286524
 30
0.0
 11
71.4517555192068272
 21
-59.6028543953790333
 31
0.0
  0
CIRCLE
  5
25F
100
AcDbEntity
  8
coponent footprints
 62
256
370
-1
 48
1.0
  6
BYLAYER
100
AcDbCircle
 10
79.8199999999999932
 20
-57.8544219999999996
 30
0.0
 40
1.524
  0
LINE
  5
260
100
AcDbEntity
  8
traces back
 62
256
370
-1
 48
1.0
  6
BYLAYER
100
AcDbLine
 10
64.1581459874048647
 20
-42.4578614237383292
 30
0.0
 11
77.8622540569781165
 21
-62.0293560474779255
 31
0.0
  0
LINE
  5
261
100
AcDbEntity
  8
traces back
 62
256
370
-1
 48
1.0
  6
BYLAYER
100
AcDbLine
 10
82.9187336822874528
 20
-45.7658592082933851
 30
0.0
 11
83.2941610424033598
 21
-43.6367048462809919
 31
0.0
  0
LINE
  5
262
100
AcDbEntity
  8
traces back
 62
256
370
-1
 48
1.0
  6
BYLAYER
100
AcDbLine
 10
96.9670772965480552
 20
-9.5567492918985764
 30
0.0
 11
97.3425046566639622
 21
-7.4275949298861832
 31
0.0
  0
LINE
  5
263
100
AcDbEntity
  8
traces back
 62
256
370
-1
 48
1.0
  6
BYLAYER
100
AcDbLine
 10
90.9516469569317394
 20
-57.2380482898088943
 30
0.0
 11
116.2187867910387666
 21
-61.6932357793754278
 31
0.0
  0
LINE
  5
264
100
AcDbEntity
  8
traces back
 62
256
370
-1
 48
1.0
  6
BYLAYER
100
AcDbLine
 10
90.9516469571440211
 20
-57.2380482902038779
 30
0.0
 11
82.9187336822874528
 21
-45.7658592082933851
 31
0.0
  0
LINE
  5
265
100
AcDbEntity
  8
traces back
 62
256
370
-1
 48
1.0
  6
BYLAYER
100
AcDbLine
 10
119.309377458031463
 20
-66.1070566800968464
 30
0.0
 11
116.218786791038724
 21
-61.6932357793754136
 31
0.0
  0
LINE
  5
266
100
AcDbEntity
  8
traces back
 62
256
370
-1
 48
1.0
  6
BYLAYER
100
AcDbLine
 10
140.8756803395897919
 20
-21.736863967036868
 30
0.0
 11
140.0302202073324906
 21
-20.5294217643736729
 31
0.0
  0
LINE
  5
267
100
AcDbEntity
  8
traces back
 62
256
370
-1
 48
1.0
  6
BYLAYER
100
AcDbLine
 10
113.0492496144378265
 20
-15.7719486831446769
 30
0.0
 11
140.0302202073324906
 21
-20.5294217643736729
 31
0.0
  0
LINE
  5
268
100
AcDbEntity
  8
traces front
 62
256
370
-1
 48
1.0
  6
BYLAYER
100
AcDbLine
 10
109.1320669208118517
 20
-8.2168210507029471
 30
0.0
 11
141.3377719407738766
 21
-13.8955557784603023
 31
0.0
  0
LINE
  5
269
100
AcDbEntity
  8
traces front
 62
256
370
-1
 48
1.0
  6
BYLAYER
100
AcDbLine
 10
141.3377719407738482
 20
-13.8955557784603005
 30
0.0
 11
144.6856799999999907
 21
-18.6768639999999984
 31
0.0
  0
LINE
  5
26A
100
AcDbEntity
  8
traces back
 62
256
370
-1
 48
1.0
  6
BYLAYER
100
AcDbLine
 10
97.3425046566639622
 20
-26.7699299033151554
 30
0.0
 11
113.0492496144378549
 21
-15.7719486831446769
 31
0.0
  0
LINE
  5
26B
100
AcDbEntity
  8
Helplines
 62
256
370
-1
 48
1.0
  6
BYLAYER
100
AcDbLine
 10
-13.2651653441761201
 20
8.2454484248049624
 30
0.0
 11
-14.5300356255223857
 21
8.5548574979104028
 31
0.0
  0
LINE
  5
26C
100
AcDbEntity
  8
edge cuts
 62
256
370
-1
 48
1.0
  6
BYLAYER
100
AcDbLine
 10
-14.5300356255223839
 20
8.5548574979104028
 30
0.0
 11
-23.8124999999999574
 21
-28.574999999999946
 31
0.0
  0
LINE
  5
26D
100
AcDbEntity
  8
edge cuts
 62
256
370
-1
 48
1.0
  6
BYLAYER
100
AcDbLine
 10
-23.8124999999999858
 20
-47.6249999999999645
 30
0.0
 11
-19.2925356250363293
 21
-65.7048574998546258
 31
0.0
  0
LINE
  5
26E
100
AcDbEntity
  8
edge cuts
 62
256
370
-1
 48
1.0
  6
BYLAYER
100
AcDbLine
 10
-18.0499999999999829
 20
-66.6749999999999545
 30
0.0
 11
28.5750000000000171
 21
-66.6749999999999545
 31
0.0
  0
LINE
  5
26F
100
AcDbEntity
  8
Helplines
 62
256
370
-1
 48
1.0
  6
BYLAYER
100
AcDbLine
 10
-18.0499999999999829
 20
-66.6749999999999545
 30
0.0
 11
-18.0499999999999829
 21
-65.3950585740028032
 31
0.0
  0
LINE
  5
270
100
AcDbEntity
  8
Helplines
 62
256
370
-1
 48
1.0
  6
BYLAYER
100
AcDbLine
 10
-19.2925356250363293
 20
-65.7048574998546258
 30
0.0
 11
-18.0499999999999829
 21
-65.3950585740028032
 31
0.0
  0
ARC
  5
271
100
AcDbEntity
  8
edge cuts
 62
256
370
-1
 48
1.0
  6
BYLAYER
100
AcDbCircle
 10
-18.0506520595589066
 20
-65.3950587360941569
 30
0.0
 40
1.27994143
100
AcDbArc
 50
194.0070544273526991
 51
270.02918904057492
  0
LINE
  5
272
100
AcDbEntity
  8
edge cuts
 62
256
370
-1
 48
1.0
  6
BYLAYER
100
AcDbLine
 10
44.1220401435082223
 20
-68.3246020690568088
 30
0.0
 11
127.559877017467528
 21
-83.0369439218874703
 31
0.0
  0
LINE
  5
273
100
AcDbEntity
  8
edge cuts
 62
256
370
-1
 48
1.0
  6
BYLAYER
100
AcDbLine
 10
128.7183329481466671
 20
-82.2257843465421985
 30
0.0
 11
134.9870321619228548
 21
-46.6742244628014902
 31
0.0
  0
LINE
  5
274
100
AcDbEntity
  8
Helplines
 62
256
370
-1
 48
1.0
  6
BYLAYER
100
AcDbLine
 10
127.559877017467528
 20
-83.0369439218874703
 30
0.0
 11
127.7335251951344759
 21
-82.0521361688752648
 31
0.0
  0
LINE
  5
275
100
AcDbEntity
  8
Helplines
 62
256
370
-1
 48
1.0
  6
BYLAYER
100
AcDbLine
 10
127.7335251951344617
 20
-82.0521361688752648
 30
0.0
 11
128.7183329481466671
 21
-82.2257843465421985
 31
0.0
  0
ARC
  5
276
100
AcDbEntity
  8
edge cuts
 62
256
370
-1
 48
1.0
  6
BYLAYER
100
AcDbCircle
 10
127.7335251951344901
 20
-82.0521361688752506
 30
0.0
 40
1.0
100
AcDbArc
 50
259.999999999998181
 51
349.999999999998181
  0
LINE
  5
277
100
AcDbEntity
  8
edge cuts
 62
256
370
-1
 48
1.0
  6
BYLAYER
100
AcDbLine
 10
117.3849003941141547
 20
-42.5550671022654825
 30
0.0
 11
134.1758725829723176
 21
-45.5157685314866427
 31
0.0
  0
LINE
  5
278
100
AcDbEntity
  8
Helplines
 62
256
370
-1
 48
1.0
  6
BYLAYER
100
AcDbLine
 10
134.0022244089106493
 20
-46.5005762851345565
 30
0.0
 11
134.9870321619228548
 21
-46.6742244628014902
 31
0.0
  0
LINE
  5
279
100
AcDbEntity
  8
Helplines
 62
256
370
-1
 48
1.0
  6
BYLAYER
100
AcDbLine
 10
134.0022244053053839
 20
-46.5005762844988553
 30
0.0
 11
134.1758725829723176
 21
-45.5157685314866498
 31
0.0
  0
ARC
  5
27A
100
AcDbEntity
  8
edge cuts
 62
256
370
-1
 48
1.0
  6
BYLAYER
100
AcDbCircle
 10
134.0022244089106493
 20
-46.5005762851345494
 30
0.0
 40
1.0
100
AcDbArc
 50
349.9999999999989768
 51
80.0000002097528551
  0
LINE
  5
27B
100
AcDbEntity
  8
Helplines
 62
256
370
-1
 48
1.0
  6
BYLAYER
100
AcDbLine
 10
117.3849003941141547
 20
-42.5550671022654825
 30
0.0
 11
117.6472535510252015
 21
-41.06718841315665
 31
0.0
  0
LINE
  5
27C
100
AcDbEntity
  8
Helplines
 62
256
370
-1
 48
1.0
  6
BYLAYER
100
AcDbLine
 10
116.1726434454904222
 20
-41.4076289808369182
 30
0.0
 11
117.64725355102523
 21
-41.0671884131566358
 31
0.0
  0
ARC
  5
27D
100
AcDbEntity
  8
edge cuts
 62
256
370
-1
 48
1.0
  6
BYLAYER
100
AcDbCircle
 10
117.6660941198282018
 20
-41.0439009735469682
 30
0.0
 40
1.53710539
100
AcDbArc
 50
193.687831033697023
 51
259.4591107907930905
  0
LINE
  5
27E
100
AcDbEntity
  8
edge cuts
 62
256
370
-1
 48
1.0
  6
BYLAYER
100
AcDbLine
 10
42.7391076979642008
 20
9.2932120762890467
 30
0.0
 11
110.7030411541032748
 21
-2.6906631071029841
 31
0.0
  0
LINE
  5
27F
100
AcDbEntity
  8
Helplines
 62
256
370
-1
 48
1.0
  6
BYLAYER
100
AcDbLine
 10
110.4960953251897706
 20
-3.8643112242844313
 30
0.0
 11
111.6878485640852432
 21
-3.8643112242844317
 31
0.0
  0
LINE
  5
280
100
AcDbEntity
  8
Helplines
 62
256
370
-1
 48
1.0
  6
BYLAYER
100
AcDbLine
 10
110.4959508977741649
 20
-3.8651303128422132
 30
0.0
 11
110.7030411541033175
 21
-2.6906631071026106
 31
0.0
  0
LINE
  5
281
100
AcDbEntity
  8
Helplines
 62
256
370
-1
 48
1.0
  6
BYLAYER
100
AcDbLine
 10
-23.8124999999999822
 20
-47.6249999999999858
 30
0.0
 11
14.3901883919290388
 21
-38.0999999999999659
 31
0.0
  0
LINE
  5
282
100
AcDbEntity
  8
Helplines
 62
256
370
-1
 48
1.0
  6
BYLAYER
100
AcDbLine
 10
-23.8124999999999538
 20
-28.5749999999999389
 30
0.0
 11
14.390188391929053
 21
-38.0999999999999659
 31
0.0
  0
ARC
  5
283
100
AcDbEntity
  8
edge cuts
 62
256
370
-1
 48
1.0
  6
BYLAYER
100
AcDbCircle
 10
14.3901883872612544
 20
-38.0999999999997883
 30
0.0
 40
39.372211329999999
100
AcDbArc
 50
165.9999999983569694
 51
194.0000000016435138
  0
LINE
  5
284
100
AcDbEntity
  8
Helplines
 62
256
370
-1
 48
1.0
  6
BYLAYER
100
AcDbLine
 10
28.5750000000000171
 20
-156.496248183801697
 30
0.0
 11
28.5750000000000171
 21
-66.6749999999999545
 31
0.0
  0
LINE
  5
285
100
AcDbEntity
  8
Helplines
 62
256
370
-1
 48
1.0
  6
BYLAYER
100
AcDbLine
 10
28.5750000000000171
 20
-156.496248183801697
 30
0.0
 11
44.1220401435082223
 21
-68.3246020690568088
 31
0.0
  0
ARC
  5
286
100
AcDbEntity
  8
edge cuts
 62
256
370
-1
 48
1.0
  6
BYLAYER
100
AcDbCircle
 10
26.9072900776662749
 20
-156.4807646714735938
 30
0.0
 40
89.8212481799999978
100
AcDbArc
 50
78.9505779367499656
 51
88.9361288913225962
  0
LINE
  5
287
100
AcDbEntity
  8
Helplines
 62
256
370
-1
 48
1.0
  6
BYLAYER
100
AcDbLine
 10
111.6878485640852432
 20
-3.8643112242844317
 30
0.0
 11
278.7906185485758783
 21
-3.8643112242844309
 31
0.0
  0
LINE
  5
288
100
AcDbEntity
  8
Helplines
 62
256
370
-1
 48
1.0
  6
BYLAYER
100
AcDbLine
 10
116.1726434454901522
 20
-41.4076289808357743
 30
0.0
 11
278.7906185485758215
 21
-3.8643112242844309
 31
0.0
  0
ARC
  5
289
100
AcDbEntity
  8
edge cuts
 62
256
370
-1
 48
1.0
  6
BYLAYER
100
AcDbCircle
 10
278.788076653163273
 20
-2.9426238765906589
 30
0.0
 40
167.102769980000005
100
AcDbArc
 50
180.3160274532205563
 51
193.3081236719480103
  0
LINE
  5
28A
100
AcDbEntity
  8
Helplines
 62
256
370
-1
 48
1.0
  6
BYLAYER
100
AcDbLine
 10
-13.2652087633362523
 20
8.2454590458799366
 30
0.0
 11
-13.287500000000124
 21
9.5249999999983856
 31
0.0
  0
ARC
  5
28B
100
AcDbEntity
  8
edge cuts
 62
256
370
-1
 48
1.0
  6
BYLAYER
100
AcDbCircle
 10
-13.2708839335272479
 20
8.2229421277243855
 30
0.0
 40
1.3021638900000001
100
AcDbArc
 50
90.731134019442095
 51
165.2326226022928495
  0
LINE
  5
28C
100
AcDbEntity
  8
edge cuts
 62
256
370
-1
 48
1.0
  6
BYLAYER
100
AcDbLine
 10
-13.2875000002484054
 20
9.5250000000000004
 30
0.0
 11
40.7647011697515893
 21
9.5250000000000004
 31
0.0
  0
CIRCLE
  5
28D
100
AcDbEntity
  8
edge cuts
 62
256
370
-1
 48
1.0
  6
BYLAYER
100
AcDbCircle
 10
0.0
 20
0.0
 30
0.0
 40
1.0
  0
LINE
  5
28E
100
AcDbEntity
  8
Helplines
 62
256
370
-1
 48
1.0
  6
BYLAYER
100
AcDbLine
 10
40.7647011697515893
 20
-1.9042037716976614
 30
0.0
 11
40.7647011697515893
 21
9.5250000000000004
 31
0.0
  0
LINE
  5
28F
100
AcDbEntity
  8
Helplines
 62
256
370
-1
 48
1.0
  6
BYLAYER
100
AcDbLine
 10
40.7647011697515822
 20
-1.904203771697687
 30
0.0
 11
42.7391076979631279
 21
9.2932120762888157
 31
0.0
  0
ARC
  5
290
100
AcDbEntity
  8
edge cuts
 62
256
370
-1
 48
1.0
  6
BYLAYER
100
AcDbCircle
 10
110.4952635081620542
 20
-3.8650089046500238
 30
0.0
 40
1.19258526
100
AcDbArc
 50
0.0335188971530778
 51
79.9664643566117519
  0
ARC
  5
291
100
AcDbEntity
  8
edge cuts
 62
256
370
-1
 48
1.0
  6
BYLAYER
100
AcDbCircle
 10
40.4312705631199734
 20
-1.8402640498973675
 30
0.0
 40
11.3701540399999992
100
AcDbArc
 50
78.2891192197817674
 51
88.3195561247652421
  0
ENDSEC
  0
SECTION
  2
OBJECTS
  0
DICTIONARY
  5
C
100
AcDbDictionary
280
0
281
1
  3
ACAD_GROUP
350
D
  3
ACAD_LAYOUT
350
1A
  3
ACAD_MLINESTYLE
350
17
  3
ACAD_PLOTSETTINGS
350
19
  3
ACAD_PLOTSTYLENAME
350
E
  3
AcDbVariableDictionary
350
292
  3
QCAD_OBJECTS
350
293
  0
DICTIONARY
  5
D
100
AcDbDictionary
280
0
281
1
  0
ACDBDICTIONARYWDFLT
  5
E
100
AcDbDictionary
281
1
  3
Normal
350
F
100
AcDbDictionaryWithDefault
340
F
  0
ACDBPLACEHOLDER
  5
F
  0
DICTIONARY
  5
17
100
AcDbDictionary
280
0
281
1
  3
Standard
350
18
  0
MLINESTYLE
  5
18
100
AcDbMlineStyle
  2
STANDARD
 70
0
  3

 62
256
 51
90.0
 52
90.0
 71
2
 49
0.5
 62
256
  6
BYLAYER
 49
-0.5
 62
256
  6
BYLAYER
  0
DICTIONARY
  5
19
100
AcDbDictionary
280
0
281
1
  0
DICTIONARY
  5
1A
100
AcDbDictionary
281
1
  3
Layout1
350
1E
  3
Layout2
350
26
  3
Model
350
22
  0
LAYOUT
  5
1E
100
AcDbPlotSettings
  1

  2
none_device
  4

  6

 40
0.0
 41
0.0
 42
0.0
 43
0.0
 44
0.0
 45
0.0
 46
0.0
 47
0.0
 48
0.0
 49
0.0
140
0.0
141
0.0
142
1.0
143
1.0
 70
688
 72
0
 73
0
 74
5
  7

 75
16
147
1.0
148
0.0
149
0.0
100
AcDbLayout
  1
Layout1
 70
1
 71
1
 10
0.0
 20
0.0
 11
420.0
 21
297.0
 12
0.0
 22
0.0
 32
0.0
 14
100000000000000000000.0
 24
100000000000000000000.0
 34
100000000000000000000.0
 15
-100000000000000000000.0
 25
-100000000000000000000.0
 35
-100000000000000000000.0
146
0.0
 13
0.0
 23
0.0
 33
0.0
 16
1.0
 26
0.0
 36
0.0
 17
0.0
 27
1.0
 37
0.0
 76
0
330
1B
  0
LAYOUT
  5
22
100
AcDbPlotSettings
  1

  2
none_device
  4

  6

 40
0.0
 41
0.0
 42
0.0
 43
0.0
 44
0.0
 45
0.0
 46
0.0
 47
0.0
 48
0.0
 49
0.0
140
0.0
141
0.0
142
1.0
143
1.0
 70
1712
 72
0
 73
0
 74
0
  7

 75
0
147
1.0
148
0.0
149
0.0
100
AcDbLayout
  1
Model
 70
1
 71
0
 10
0.0
 20
0.0
 11
12.0
 21
9.0
 12
0.0
 22
0.0
 32
0.0
 14
0.0
 24
0.0
 34
0.0
 15
0.0
 25
0.0
 35
0.0
146
0.0
 13
0.0
 23
0.0
 33
0.0
 16
1.0
 26
0.0
 36
0.0
 17
0.0
 27
1.0
 37
0.0
 76
0
330
1F
  0
LAYOUT
  5
26
100
AcDbPlotSettings
  1

  2
none_device
  4

  6

 40
0.0
 41
0.0
 42
0.0
 43
0.0
 44
0.0
 45
0.0
 46
0.0
 47
0.0
 48
0.0
 49
0.0
140
0.0
141
0.0
142
1.0
143
1.0
 70
688
 72
0
 73
0
 74
5
  7

 75
16
147
1.0
148
0.0
149
0.0
100
AcDbLayout
  1
Layout2
 70
1
 71
2
 10
0.0
 20
0.0
 11
12.0
 21
9.0
 12
0.0
 22
0.0
 32
0.0
 14
0.0
 24
0.0
 34
0.0
 15
0.0
 25
0.0
 35
0.0
146
0.0
 13
0.0
 23
0.0
 33
0.0
 16
1.0
 26
0.0
 36
0.0
 17
0.0
 27
1.0
 37
0.0
 76
0
330
23
  0
DICTIONARY
  5
292
100
AcDbDictionary
281
1
  3
DIMASSOC
350
295
  3
HIDETEXT
350
294
  0
DICTIONARYVAR
  5
294
100
DictionaryVariables
280
0
  1
2
  0
DICTIONARYVAR
  5
295
100
DictionaryVariables
280
0
  1
1
  0
DICTIONARY
  5
293
100
AcDbDictionary
281
1
  3
ColorSettings/BackgroundColor
350
296
  3
ColorSettings/ColorMode
350
297
  3
Grid/DisplayGrid00
350
298
  3
Grid/DisplayGrid01
350
299
  3
Grid/DisplayGrid02
350
29A
  3
Grid/DisplayGrid03
350
29B
  3
Grid/GridSpacingX00
350
29C
  3
Grid/GridSpacingX01
350
29D
  3
Grid/GridSpacingX02
350
29E
  3
Grid/GridSpacingX03
350
29F
  3
Grid/GridSpacingY00
350
2A0
  3
Grid/GridSpacingY01
350
2A1
  3
Grid/GridSpacingY02
350
2A2
  3
Grid/GridSpacingY03
350
2A3
  3
Grid/IsometricGrid00
350
2A4
  3
Grid/IsometricGrid01
350
2A5
  3
Grid/IsometricGrid02
350
2A6
  3
Grid/IsometricGrid03
350
2A7
  3
Grid/IsometricProjection00
350
2A8
  3
Grid/IsometricProjection01
350
2A9
  3
Grid/IsometricProjection02
350
2AA
  3
Grid/IsometricProjection03
350
2AB
  3
Grid/MetaGridSpacingX00
350
2AC
  3
Grid/MetaGridSpacingX01
350
2AD
  3
Grid/MetaGridSpacingX02
350
2AE
  3
Grid/MetaGridSpacingX03
350
2AF
  3
Grid/MetaGridSpacingY00
350
2B0
  3
Grid/MetaGridSpacingY01
350
2B1
  3
Grid/MetaGridSpacingY02
350
2B2
  3
Grid/MetaGridSpacingY03
350
2B3
  3
MultiPageSettings/Columns
350
2B4
  3
MultiPageSettings/GlueMarginsBottom
350
2B5
  3
MultiPageSettings/GlueMarginsLeft
350
2B6
  3
MultiPageSettings/GlueMarginsRight
350
2B7
  3
MultiPageSettings/GlueMarginsTop
350
2B8
  3
MultiPageSettings/PrintCropMarks
350
2B9
  3
MultiPageSettings/Rows
350
2BA
  3
PageSettings/OffsetX
350
2BB
  3
PageSettings/OffsetY
350
2BC
  3
PageSettings/PageOrientation
350
2BD
  3
PageSettings/PaperHeight
350
2BE
  3
PageSettings/PaperWidth
350
2BF
  3
PageSettings/Scale
350
2C0
  3
PageSettings/ShowPaperBorders
350
2C1
  3
PageTagSettings/EnablePageTags
350
2C2
  3
PageTagSettings/TagAlignment
350
2C3
  3
PageTagSettings/TagFont
350
2C4
  3
PageTagSettings/TagPosition
350
2C5
  3
QCADVersion
350
2C6
  3
UnitSettings/PaperUnit
350
2C7
  3
ViewportCenter
350
2C8
  3
ViewportHeight
350
2C9
  3
ViewportWidth
350
2CA
  0
XRECORD
  5
296
330
293
100
AcDbXrecord
280
1
1000
Wit
  0
XRECORD
  5
297
330
293
100
AcDbXrecord
280
1
1000
FullColor
  0
XRECORD
  5
298
330
293
100
AcDbXrecord
280
1
290
1
  0
XRECORD
  5
299
330
293
100
AcDbXrecord
280
1
290
1
  0
XRECORD
  5
29A
330
293
100
AcDbXrecord
280
1
290
1
  0
XRECORD
  5
29B
330
293
100
AcDbXrecord
280
1
290
1
  0
XRECORD
  5
29C
330
293
100
AcDbXrecord
280
1
1000
auto
  0
XRECORD
  5
29D
330
293
100
AcDbXrecord
280
1
1000
auto
  0
XRECORD
  5
29E
330
293
100
AcDbXrecord
280
1
1000
auto
  0
XRECORD
  5
29F
330
293
100
AcDbXrecord
280
1
1000
auto
  0
XRECORD
  5
2A0
330
293
100
AcDbXrecord
280
1
1000
auto
  0
XRECORD
  5
2A1
330
293
100
AcDbXrecord
280
1
1000
auto
  0
XRECORD
  5
2A2
330
293
100
AcDbXrecord
280
1
1000
auto
  0
XRECORD
  5
2A3
330
293
100
AcDbXrecord
280
1
1000
auto
  0
XRECORD
  5
2A4
330
293
100
AcDbXrecord
280
1
290
0
  0
XRECORD
  5
2A5
330
293
100
AcDbXrecord
280
1
290
0
  0
XRECORD
  5
2A6
330
293
100
AcDbXrecord
280
1
290
0
  0
XRECORD
  5
2A7
330
293
100
AcDbXrecord
280
1
290
0
  0
XRECORD
  5
2A8
330
293
100
AcDbXrecord
280
1
 90
65537
  0
XRECORD
  5
2A9
330
293
100
AcDbXrecord
280
1
 90
65537
  0
XRECORD
  5
2AA
330
293
100
AcDbXrecord
280
1
 90
65537
  0
XRECORD
  5
2AB
330
293
100
AcDbXrecord
280
1
 90
65537
  0
XRECORD
  5
2AC
330
293
100
AcDbXrecord
280
1
1000
auto
  0
XRECORD
  5
2AD
330
293
100
AcDbXrecord
280
1
1000
auto
  0
XRECORD
  5
2AE
330
293
100
AcDbXrecord
280
1
1000
auto
  0
XRECORD
  5
2AF
330
293
100
AcDbXrecord
280
1
1000
auto
  0
XRECORD
  5
2B0
330
293
100
AcDbXrecord
280
1
1000
auto
  0
XRECORD
  5
2B1
330
293
100
AcDbXrecord
280
1
1000
auto
  0
XRECORD
  5
2B2
330
293
100
AcDbXrecord
280
1
1000
auto
  0
XRECORD
  5
2B3
330
293
100
AcDbXrecord
280
1
1000
auto
  0
XRECORD
  5
2B4
330
293
100
AcDbXrecord
280
1
 90
1
  0
XRECORD
  5
2B5
330
293
100
AcDbXrecord
280
1
 40
10.0
  0
XRECORD
  5
2B6
330
293
100
AcDbXrecord
280
1
 40
10.0
  0
XRECORD
  5
2B7
330
293
100
AcDbXrecord
280
1
 40
10.0
  0
XRECORD
  5
2B8
330
293
100
AcDbXrecord
280
1
 40
10.0
  0
XRECORD
  5
2B9
330
293
100
AcDbXrecord
280
1
290
0
  0
XRECORD
  5
2BA
330
293
100
AcDbXrecord
280
1
 90
1
  0
XRECORD
  5
2BB
330
293
100
AcDbXrecord
280
1
 40
0.0
  0
XRECORD
  5
2BC
330
293
100
AcDbXrecord
280
1
 40
0.0
  0
XRECORD
  5
2BD
330
293
100
AcDbXrecord
280
1
1000
Portrait
  0
XRECORD
  5
2BE
330
293
100
AcDbXrecord
280
1
 40
297.0
  0
XRECORD
  5
2BF
330
293
100
AcDbXrecord
280
1
 40
210.0
  0
XRECORD
  5
2C0
330
293
100
AcDbXrecord
280
1
1000
1:1
  0
XRECORD
  5
2C1
330
293
100
AcDbXrecord
280
1
290
1
  0
XRECORD
  5
2C2
330
293
100
AcDbXrecord
280
1
290
0
  0
XRECORD
  5
2C3
330
293
100
AcDbXrecord
280
1
1000
Inside
  0
XRECORD
  5
2C4
330
293
100
AcDbXrecord
280
1
1000
Arial,10,-1,5,50,0,0,0,0,0
  0
XRECORD
  5
2C5
330
293
100
AcDbXrecord
280
1
1000
TopLeft
  0
XRECORD
  5
2C6
330
293
100
AcDbXrecord
280
1
1000
3.27.1
  0
XRECORD
  5
2C7
330
293
100
AcDbXrecord
280
1
 90
4
  0
XRECORD
  5
2C9
330
293
100
AcDbXrecord
280
1
 40
205.5984987123531482
  0
XRECORD
  5
2CA
330
293
100
AcDbXrecord
280
1
 40
386.5461570178680404
  0
ENDSEC
  0
EOF
