999
dxflib 3.26.4.0
  0
SECTION
  2
HEADER
  9
$ACADVER
  1
AC1015
  9
$HANDSEED
  5
FFFF
  9
$DIMADEC
 70
0
  9
$DIMASZ
 40
2.5
  9
$DIMATFIT
 70
0
  9
$DIMAUNIT
 70
0
  9
$DIMAZIN
 70
2
  9
$DIMBLK
  1
0
  9
$DIMBLK1
  1
0
  9
$DIMBLK2
  1
0
  9
$DIMDEC
 70
4
  9
$DIMDLI
 40
5.0
  9
$DIMDSEP
 70
46
  9
$DIMEXE
 40
1.25
  9
$DIMEXO
 40
0.625
  9
$DIMGAP
 40
0.625
  9
$DIMLFAC
 40
1.0
  9
$DIMLUNIT
 70
2
  9
$DIMSCALE
 40
1.0
  9
$DIMTAD
 70
1
  9
$DIMTIH
 70
0
  9
$DIMTSZ
 40
0.0
  9
$DIMTXT
 40
2.5
  9
$DIMZIN
 70
8
  9
$DWGCODEPAGE
  3
ANSI_1252
  9
$INSUNITS
 70
4
  9
$LTSCALE
 40
1.0
  9
$MAXACTVP
 70
64
  9
$MEASUREMENT
 70
1
  9
$MIRRTEXT
 70
0
  9
$PDMODE
 70
0
  9
$PDSIZE
 40
0.0
  0
ENDSEC
  0
SECTION
  2
TABLES
  0
TABLE
  2
VPORT
  5
8
100
AcDbSymbolTable
 70
1
  0
VPORT
  5
30
100
AcDbSymbolTableRecord
100
AcDbViewportTableRecord
  2
*Active
 70
0
 10
0.0
 20
0.0
 11
1.0
 21
1.0
 12
286.3055555555554861
 22
148.5
 13
0.0
 23
0.0
 14
10.0
 24
10.0
 15
10.0
 25
10.0
 16
0.0
 26
0.0
 36
1.0
 17
0.0
 27
0.0
 37
0.0
 40
297.0
 41
1.92798353909465
 42
50.0
 43
0.0
 44
0.0
 50
0.0
 51
0.0
 71
0
 72
100
 73
1
 74
3
 75
1
 76
1
 77
0
 78
0
281
0
 65
1
110
0.0
120
0.0
130
0.0
111
1.0
121
0.0
131
0.0
112
0.0
122
1.0
132
0.0
 79
0
146
0.0
  0
ENDTAB
  0
TABLE
  2
LTYPE
  5
5
100
AcDbSymbolTable
 70
41
  0
LTYPE
  5
16
100
AcDbSymbolTableRecord
100
AcDbLinetypeTableRecord
  2
Continuous
 70
0
  3
Solid line
 72
65
 73
0
 40
0.0
  0
LTYPE
  5
31
100
AcDbSymbolTableRecord
100
AcDbLinetypeTableRecord
  2
ACAD_ISO06W100
 70
0
  3
ISO long-dash triple-dot ____ ... ____ ... ____
 72
65
 73
8
 40
36.0000000000000071
 49
24.0
 74
0
 49
-2.9500000000000002
 74
0
 49
0.1
 74
0
 49
-2.9000000000000004
 74
0
 49
0.1
 74
0
 49
-2.9000000000000004
 74
0
 49
0.1
 74
0
 49
-2.9500000000000002
 74
0
  0
LTYPE
  5
32
100
AcDbSymbolTableRecord
100
AcDbLinetypeTableRecord
  2
PHANTOM2
 70
0
  3
Phantom (.5x) ___ _ _ ___ _ _ ___ _ _ ___ _ _
 72
65
 73
6
 40
31.7500000000000036
 49
15.875
 74
0
 49
-3.1749999999999998
 74
0
 49
3.1749999999999998
 74
0
 49
-3.1749999999999998
 74
0
 49
3.1749999999999998
 74
0
 49
-3.1749999999999998
 74
0
  0
LTYPE
  5
33
100
AcDbSymbolTableRecord
100
AcDbLinetypeTableRecord
  2
HIDDEN2
 70
0
  3
Hidden (.5x) _ _ _ _ _ _ _ _ _ _ _ _ _ _ _ _ _ 
 72
65
 73
2
 40
4.7624999999999993
 49
3.1749999999999998
 74
0
 49
-1.5874999999999999
 74
0
  0
LTYPE
  5
34
100
AcDbSymbolTableRecord
100
AcDbLinetypeTableRecord
  2
CENTER
 70
0
  3
Center ____ _ ____ _ ____ _ ____ _ ____ _ ____
 72
65
 73
4
 40
50.8000000000000043
 49
31.75
 74
0
 49
-6.3499999999999996
 74
0
 49
6.3499999999999996
 74
0
 49
-6.3499999999999996
 74
0
  0
LTYPE
  5
35
100
AcDbSymbolTableRecord
100
AcDbLinetypeTableRecord
  2
ACAD_ISO12W100
 70
0
  3
ISO dash double-dot __ . . __ . . __ . . __ . . 
 72
65
 73
6
 40
21.0
 49
12.0
 74
0
 49
-2.9500000000000002
 74
0
 49
0.1
 74
0
 49
-2.9000000000000004
 74
0
 49
0.1
 74
0
 49
-2.9500000000000002
 74
0
  0
LTYPE
  5
36
100
AcDbSymbolTableRecord
100
AcDbLinetypeTableRecord
  2
DASHED2
 70
0
  3
Dashed (.5x) _ _ _ _ _ _ _ _ _ _ _ _ _ _ _ _ _ 
 72
65
 73
2
 40
9.5249999999999986
 49
6.3499999999999996
 74
0
 49
-3.1749999999999998
 74
0
  0
LTYPE
  5
37
100
AcDbSymbolTableRecord
100
AcDbLinetypeTableRecord
  2
DASHED
 70
0
  3
Dashed __ __ __ __ __ __ __ __ __ __ __ __ __ _
 72
65
 73
2
 40
19.0499999999999972
 49
12.6999999999999993
 74
0
 49
-6.3499999999999996
 74
0
  0
LTYPE
  5
38
100
AcDbSymbolTableRecord
100
AcDbLinetypeTableRecord
  2
ACAD_ISO10W100
 70
0
  3
ISO dash dot __ . __ . __ . __ . __ . __ . __ . 
 72
65
 73
4
 40
18.0
 49
12.0
 74
0
 49
-2.9500000000000002
 74
0
 49
0.1
 74
0
 49
-2.9500000000000002
 74
0
  0
LTYPE
  5
39
100
AcDbSymbolTableRecord
100
AcDbLinetypeTableRecord
  2
DASHDOTX2
 70
0
  3
Dash dot (2x) ____  .  ____  .  ____  .  ___
 72
65
 73
4
 40
50.7999999999999972
 49
25.3999999999999986
 74
0
 49
-12.6499999999999986
 74
0
 49
0.1
 74
0
 49
-12.6499999999999986
 74
0
  0
LTYPE
  5
3A
100
AcDbSymbolTableRecord
100
AcDbLinetypeTableRecord
  2
ACAD_ISO11W100
 70
0
  3
ISO double-dash dot __ __ . __ __ . __ __ . __ _
 72
65
 73
6
 40
33.0
 49
12.0
 74
0
 49
-3.0
 74
0
 49
12.0
 74
0
 49
-2.9500000000000002
 74
0
 49
0.1
 74
0
 49
-2.9500000000000002
 74
0
  0
LTYPE
  5
3B
100
AcDbSymbolTableRecord
100
AcDbLinetypeTableRecord
  2
ACAD_ISO03W100
 70
0
  3
ISO dash space __    __    __    __    __    __
 72
65
 73
2
 40
30.0
 49
12.0
 74
0
 49
-18.0
 74
0
  0
LTYPE
  5
3C
100
AcDbSymbolTableRecord
100
AcDbLinetypeTableRecord
  2
DOT
 70
0
  3
Dot . . . . . . . . . . . . . . . . . . . . . . . .
 72
65
 73
2
 40
6.3499999999999996
 49
0.1
 74
0
 49
-6.25
 74
0
  0
LTYPE
  5
3D
100
AcDbSymbolTableRecord
100
AcDbLinetypeTableRecord
  2
ACAD_ISO05W100
 70
0
  3
ISO long-dash double-dot ____ .. ____ .. ____ . 
 72
65
 73
6
 40
33.0000000000000071
 49
24.0
 74
0
 49
-2.9500000000000002
 74
0
 49
0.1
 74
0
 49
-2.9000000000000004
 74
0
 49
0.1
 74
0
 49
-2.9500000000000002
 74
0
  0
LTYPE
  5
3E
100
AcDbSymbolTableRecord
100
AcDbLinetypeTableRecord
  2
ACAD_ISO07W100
 70
0
  3
ISO dot . . . . . . . . . . . . . . . . . . . . 
 72
65
 73
2
 40
3.0
 49
0.1
 74
0
 49
-2.8999999999999999
 74
0
  0
LTYPE
  5
3F
100
AcDbSymbolTableRecord
100
AcDbLinetypeTableRecord
  2
BORDERX2
 70
0
  3
Border (2x) ____  ____  .  ____  ____  .  ___
 72
65
 73
6
 40
88.8999999999999773
 49
25.3999999999999986
 74
0
 49
-12.6999999999999993
 74
0
 49
25.3999999999999986
 74
0
 49
-12.6499999999999986
 74
0
 49
0.1
 74
0
 49
-12.6499999999999986
 74
0
  0
LTYPE
  5
40
100
AcDbSymbolTableRecord
100
AcDbLinetypeTableRecord
  2
ACAD_ISO08W100
 70
0
  3
ISO long-dash short-dash ____ __ ____ __ ____ _
 72
65
 73
4
 40
36.0
 49
24.0
 74
0
 49
-3.0
 74
0
 49
6.0
 74
0
 49
-3.0
 74
0
  0
LTYPE
  5
41
100
AcDbSymbolTableRecord
100
AcDbLinetypeTableRecord
  2
ACAD_ISO13W100
 70
0
  3
ISO double-dash double-dot __ __ . . __ __ . . _
 72
65
 73
8
 40
36.0000000000000071
 49
12.0
 74
0
 49
-3.0
 74
0
 49
12.0
 74
0
 49
-2.9500000000000002
 74
0
 49
0.1
 74
0
 49
-2.9000000000000004
 74
0
 49
0.1
 74
0
 49
-2.9500000000000002
 74
0
  0
LTYPE
  5
42
100
AcDbSymbolTableRecord
100
AcDbLinetypeTableRecord
  2
PHANTOMX2
 70
0
  3
Phantom (2x) ____________    ____    ____   _
 72
65
 73
6
 40
127.0000000000000142
 49
63.5
 74
0
 49
-12.6999999999999993
 74
0
 49
12.6999999999999993
 74
0
 49
-12.6999999999999993
 74
0
 49
12.6999999999999993
 74
0
 49
-12.6999999999999993
 74
0
  0
LTYPE
  5
43
100
AcDbSymbolTableRecord
100
AcDbLinetypeTableRecord
  2
ACAD_ISO09W100
 70
0
  3
ISO long-dash double-short-dash ____ __ __ ____
 72
65
 73
6
 40
45.0
 49
24.0
 74
0
 49
-3.0
 74
0
 49
6.0
 74
0
 49
-3.0
 74
0
 49
6.0
 74
0
 49
-3.0
 74
0
  0
LTYPE
  5
44
100
AcDbSymbolTableRecord
100
AcDbLinetypeTableRecord
  2
HIDDEN
 70
0
  3
Hidden __ __ __ __ __ __ __ __ __ __ __ __ __ __
 72
65
 73
2
 40
9.5249999999999986
 49
6.3499999999999996
 74
0
 49
-3.1749999999999998
 74
0
  0
LTYPE
  5
45
100
AcDbSymbolTableRecord
100
AcDbLinetypeTableRecord
  2
BORDER
 70
0
  3
Border __ __ . __ __ . __ __ . __ __ . __ __ .
 72
65
 73
6
 40
44.4499999999999957
 49
12.6999999999999993
 74
0
 49
-6.3499999999999996
 74
0
 49
12.6999999999999993
 74
0
 49
-6.2999999999999998
 74
0
 49
0.1
 74
0
 49
-6.2999999999999998
 74
0
  0
LTYPE
  5
46
100
AcDbSymbolTableRecord
100
AcDbLinetypeTableRecord
  2
DASHDOT2
 70
0
  3
Dash dot (.5x) _._._._._._._._._._._._._._._.
 72
65
 73
4
 40
12.6999999999999993
 49
6.3499999999999996
 74
0
 49
-3.125
 74
0
 49
0.1
 74
0
 49
-3.125
 74
0
  0
LTYPE
  5
47
100
AcDbSymbolTableRecord
100
AcDbLinetypeTableRecord
  2
ACAD_ISO14W100
 70
0
  3
ISO dash triple-dot __ . . . __ . . . __ . . . _
 72
65
 73
8
 40
24.0000000000000036
 49
12.0
 74
0
 49
-2.9500000000000002
 74
0
 49
0.1
 74
0
 49
-2.9000000000000004
 74
0
 49
0.1
 74
0
 49
-2.9000000000000004
 74
0
 49
0.1
 74
0
 49
-2.9500000000000002
 74
0
  0
LTYPE
  5
48
100
AcDbSymbolTableRecord
100
AcDbLinetypeTableRecord
  2
ACAD_ISO04W100
 70
0
  3
ISO long-dash dot ____ . ____ . ____ . ____ . _
 72
65
 73
4
 40
30.0
 49
24.0
 74
0
 49
-2.9500000000000002
 74
0
 49
0.1
 74
0
 49
-2.9500000000000002
 74
0
  0
LTYPE
  5
49
100
AcDbSymbolTableRecord
100
AcDbLinetypeTableRecord
  2
BORDER2
 70
0
  3
Border (.5x) __.__.__.__.__.__.__.__.__.__.__.
 72
65
 73
6
 40
22.2250000000000014
 49
6.3499999999999996
 74
0
 49
-3.1749999999999998
 74
0
 49
6.3499999999999996
 74
0
 49
-3.125
 74
0
 49
0.1
 74
0
 49
-3.125
 74
0
  0
LTYPE
  5
4A
100
AcDbSymbolTableRecord
100
AcDbLinetypeTableRecord
  2
DASHDOT
 70
0
  3
Dash dot __ . __ . __ . __ . __ . __ . __ . __
 72
65
 73
4
 40
25.4000000000000021
 49
12.6999999999999993
 74
0
 49
-6.2999999999999998
 74
0
 49
0.1
 74
0
 49
-6.2999999999999998
 74
0
  0
LTYPE
  5
4B
100
AcDbSymbolTableRecord
100
AcDbLinetypeTableRecord
  2
DOT2
 70
0
  3
Dot (.5x) ........................................
 72
65
 73
2
 40
3.1749999999999998
 49
0.1
 74
0
 49
-3.0749999999999997
 74
0
  0
LTYPE
  5
4C
100
AcDbSymbolTableRecord
100
AcDbLinetypeTableRecord
  2
PHANTOM
 70
0
  3
Phantom ______  __  __  ______  __  __  ______ 
 72
65
 73
6
 40
63.5000000000000071
 49
31.75
 74
0
 49
-6.3499999999999996
 74
0
 49
6.3499999999999996
 74
0
 49
-6.3499999999999996
 74
0
 49
6.3499999999999996
 74
0
 49
-6.3499999999999996
 74
0
  0
LTYPE
  5
4D
100
AcDbSymbolTableRecord
100
AcDbLinetypeTableRecord
  2
DIVIDE2
 70
0
  3
Divide (.5x) __..__..__..__..__..__..__..__.._
 72
65
 73
6
 40
15.8749999999999982
 49
6.3499999999999996
 74
0
 49
-3.125
 74
0
 49
0.1
 74
0
 49
-3.0750000000000002
 74
0
 49
0.1
 74
0
 49
-3.125
 74
0
  0
LTYPE
  5
4E
100
AcDbSymbolTableRecord
100
AcDbLinetypeTableRecord
  2
DIVIDEX2
 70
0
  3
Divide (2x) ________  .  .  ________  .  .  _
 72
65
 73
6
 40
63.5
 49
25.3999999999999986
 74
0
 49
-12.6499999999999986
 74
0
 49
0.1
 74
0
 49
-12.5999999999999979
 74
0
 49
0.1
 74
0
 49
-12.6499999999999986
 74
0
  0
LTYPE
  5
4F
100
AcDbSymbolTableRecord
100
AcDbLinetypeTableRecord
  2
CENTER2
 70
0
  3
Center (.5x) ___ _ ___ _ ___ _ ___ _ ___ _ ___
 72
65
 73
4
 40
28.5750000000000028
 49
19.0500000000000007
 74
0
 49
-3.1749999999999998
 74
0
 49
3.1749999999999998
 74
0
 49
-3.1749999999999998
 74
0
  0
LTYPE
  5
50
100
AcDbSymbolTableRecord
100
AcDbLinetypeTableRecord
  2
CENTERX2
 70
0
  3
Center (2x) ________  __  ________  __  _____
 72
65
 73
4
 40
101.6000000000000085
 49
63.5
 74
0
 49
-12.6999999999999993
 74
0
 49
12.6999999999999993
 74
0
 49
-12.6999999999999993
 74
0
  0
LTYPE
  5
15
100
AcDbSymbolTableRecord
100
AcDbLinetypeTableRecord
  2
BYLAYER
 70
0
  3

 72
65
 73
0
 40
0.0
  0
LTYPE
  5
51
100
AcDbSymbolTableRecord
100
AcDbLinetypeTableRecord
  2
ACAD_ISO02W100
 70
0
  3
ISO dash __ __ __ __ __ __ __ __ __ __ __ __ __
 72
65
 73
2
 40
15.0
 49
12.0
 74
0
 49
-3.0
 74
0
  0
LTYPE
  5
52
100
AcDbSymbolTableRecord
100
AcDbLinetypeTableRecord
  2
DASHEDX2
 70
0
  3
Dashed (2x) ____  ____  ____  ____  ____  ___
 72
65
 73
2
 40
38.0999999999999943
 49
25.3999999999999986
 74
0
 49
-12.6999999999999993
 74
0
  0
LTYPE
  5
53
100
AcDbSymbolTableRecord
100
AcDbLinetypeTableRecord
  2
DIVIDE
 70
0
  3
Divide ____ . . ____ . . ____ . . ____ . . ____
 72
65
 73
6
 40
31.7500000000000036
 49
12.6999999999999993
 74
0
 49
-6.2999999999999998
 74
0
 49
0.1
 74
0
 49
-6.25
 74
0
 49
0.1
 74
0
 49
-6.2999999999999998
 74
0
  0
LTYPE
  5
54
100
AcDbSymbolTableRecord
100
AcDbLinetypeTableRecord
  2
HIDDENX2
 70
0
  3
Hidden (2x) ____ ____ ____ ____ ____ ____ ____ 
 72
65
 73
2
 40
19.0499999999999972
 49
12.6999999999999993
 74
0
 49
-6.3499999999999996
 74
0
  0
LTYPE
  5
55
100
AcDbSymbolTableRecord
100
AcDbLinetypeTableRecord
  2
ACAD_ISO15W100
 70
0
  3
ISO double-dash triple-dot __ __ . . . __ __ . .
 72
65
 73
10
 40
39.0000000000000071
 49
12.0
 74
0
 49
-3.0
 74
0
 49
12.0
 74
0
 49
-2.9500000000000002
 74
0
 49
0.1
 74
0
 49
-2.9000000000000004
 74
0
 49
0.1
 74
0
 49
-2.9000000000000004
 74
0
 49
0.1
 74
0
 49
-2.9500000000000002
 74
0
  0
LTYPE
  5
56
100
AcDbSymbolTableRecord
100
AcDbLinetypeTableRecord
  2
DOTX2
 70
0
  3
Dot (2x) .  .  .  .  .  .  .  .  .  .  .  .  .  .
 72
65
 73
2
 40
12.6999999999999993
 49
0.1
 74
0
 49
-12.5999999999999996
 74
0
  0
LTYPE
  5
14
100
AcDbSymbolTableRecord
100
AcDbLinetypeTableRecord
  2
BYBLOCK
 70
0
  3

 72
65
 73
0
 40
0.0
  0
ENDTAB
  0
TABLE
  2
LAYER
  5
2
100
AcDbSymbolTable
 70
1
  0
LAYER
  5
10
100
AcDbSymbolTableRecord
100
AcDbLayerTableRecord
  2
0
 70
0
 62
7
420
16777215
  6
Continuous
370
-3
390
F
  0
ENDTAB
  0
TABLE
  2
STYLE
  5
3
100
AcDbSymbolTable
 70
49
  0
STYLE
  5
57
100
AcDbSymbolTableRecord
100
AcDbTextStyleTableRecord
  2
Standard
 70
0
 40
0.0
 41
1.0
 50
0.0
 71
0
 42
2.5
  3

  4

1001
ACAD
1000
txt
1071
0
  0
STYLE
  5
58
100
AcDbSymbolTableRecord
100
AcDbTextStyleTableRecord
  2
textstyle0
 70
0
 40
0.0
 41
1.0
 50
0.0
 71
0
 42
5.0
  3

  4

1001
ACAD
1000
Arial Rounded MT Bold
1071
0
  0
STYLE
  5
59
100
AcDbSymbolTableRecord
100
AcDbTextStyleTableRecord
  2
textstyle1
 70
0
 40
0.0
 41
1.0
 50
0.0
 71
0
 42
5.0
  3

  4

1001
ACAD
1000
Arial Rounded MT Bold
1071
0
  0
STYLE
  5
5A
100
AcDbSymbolTableRecord
100
AcDbTextStyleTableRecord
  2
textstyle2
 70
0
 40
0.0
 41
1.0
 50
0.0
 71
0
 42
5.0
  3

  4

1001
ACAD
1000
Arial Rounded MT Bold
1071
0
  0
STYLE
  5
5B
100
AcDbSymbolTableRecord
100
AcDbTextStyleTableRecord
  2
textstyle3
 70
0
 40
0.0
 41
1.0
 50
0.0
 71
0
 42
5.0
  3

  4

1001
ACAD
1000
Arial Rounded MT Bold
1071
0
  0
STYLE
  5
5C
100
AcDbSymbolTableRecord
100
AcDbTextStyleTableRecord
  2
textstyle4
 70
0
 40
0.0
 41
1.0
 50
0.0
 71
0
 42
5.0
  3

  4

1001
ACAD
1000
Arial Rounded MT Bold
1071
0
  0
STYLE
  5
5D
100
AcDbSymbolTableRecord
100
AcDbTextStyleTableRecord
  2
textstyle5
 70
0
 40
0.0
 41
1.0
 50
0.0
 71
0
 42
5.0
  3

  4

1001
ACAD
1000
Arial Rounded MT Bold
1071
0
  0
STYLE
  5
5E
100
AcDbSymbolTableRecord
100
AcDbTextStyleTableRecord
  2
textstyle6
 70
0
 40
0.0
 41
1.0
 50
0.0
 71
0
 42
5.0
  3

  4

1001
ACAD
1000
Arial Rounded MT Bold
1071
0
  0
STYLE
  5
5F
100
AcDbSymbolTableRecord
100
AcDbTextStyleTableRecord
  2
textstyle7
 70
0
 40
0.0
 41
1.0
 50
0.0
 71
0
 42
5.0
  3

  4

1001
ACAD
1000
Arial Rounded MT Bold
1071
0
  0
STYLE
  5
60
100
AcDbSymbolTableRecord
100
AcDbTextStyleTableRecord
  2
textstyle8
 70
0
 40
0.0
 41
1.0
 50
0.0
 71
0
 42
5.0
  3

  4

1001
ACAD
1000
Arial Rounded MT Bold
1071
0
  0
STYLE
  5
61
100
AcDbSymbolTableRecord
100
AcDbTextStyleTableRecord
  2
textstyle9
 70
0
 40
0.0
 41
1.0
 50
0.0
 71
0
 42
5.0
  3

  4

1001
ACAD
1000
Arial Rounded MT Bold
1071
0
  0
STYLE
  5
62
100
AcDbSymbolTableRecord
100
AcDbTextStyleTableRecord
  2
textstyle10
 70
0
 40
0.0
 41
1.0
 50
0.0
 71
0
 42
5.0
  3

  4

1001
ACAD
1000
Arial Rounded MT Bold
1071
0
  0
STYLE
  5
63
100
AcDbSymbolTableRecord
100
AcDbTextStyleTableRecord
  2
textstyle11
 70
0
 40
0.0
 41
1.0
 50
0.0
 71
0
 42
5.0
  3

  4

1001
ACAD
1000
Arial Rounded MT Bold
1071
0
  0
STYLE
  5
64
100
AcDbSymbolTableRecord
100
AcDbTextStyleTableRecord
  2
textstyle12
 70
0
 40
0.0
 41
1.0
 50
0.0
 71
0
 42
5.0
  3

  4

1001
ACAD
1000
Arial Rounded MT Bold
1071
0
  0
STYLE
  5
65
100
AcDbSymbolTableRecord
100
AcDbTextStyleTableRecord
  2
textstyle13
 70
0
 40
0.0
 41
1.0
 50
0.0
 71
0
 42
5.0
  3

  4

1001
ACAD
1000
Arial Rounded MT Bold
1071
0
  0
STYLE
  5
66
100
AcDbSymbolTableRecord
100
AcDbTextStyleTableRecord
  2
textstyle14
 70
0
 40
0.0
 41
1.0
 50
0.0
 71
0
 42
5.0
  3

  4

1001
ACAD
1000
Arial Rounded MT Bold
1071
0
  0
STYLE
  5
67
100
AcDbSymbolTableRecord
100
AcDbTextStyleTableRecord
  2
textstyle15
 70
0
 40
0.0
 41
1.0
 50
0.0
 71
0
 42
5.0
  3

  4

1001
ACAD
1000
Arial Rounded MT Bold
1071
0
  0
STYLE
  5
68
100
AcDbSymbolTableRecord
100
AcDbTextStyleTableRecord
  2
textstyle16
 70
0
 40
0.0
 41
1.0
 50
0.0
 71
0
 42
5.0
  3

  4

1001
ACAD
1000
Arial Rounded MT Bold
1071
0
  0
STYLE
  5
69
100
AcDbSymbolTableRecord
100
AcDbTextStyleTableRecord
  2
textstyle17
 70
0
 40
0.0
 41
1.0
 50
0.0
 71
0
 42
5.0
  3

  4

1001
ACAD
1000
Arial Rounded MT Bold
1071
0
  0
STYLE
  5
6A
100
AcDbSymbolTableRecord
100
AcDbTextStyleTableRecord
  2
textstyle18
 70
0
 40
0.0
 41
1.0
 50
0.0
 71
0
 42
5.0
  3

  4

1001
ACAD
1000
Arial Rounded MT Bold
1071
0
  0
STYLE
  5
6B
100
AcDbSymbolTableRecord
100
AcDbTextStyleTableRecord
  2
textstyle19
 70
0
 40
0.0
 41
1.0
 50
0.0
 71
0
 42
5.0
  3

  4

1001
ACAD
1000
Arial Rounded MT Bold
1071
0
  0
STYLE
  5
6C
100
AcDbSymbolTableRecord
100
AcDbTextStyleTableRecord
  2
textstyle20
 70
0
 40
0.0
 41
1.0
 50
0.0
 71
0
 42
5.0
  3

  4

1001
ACAD
1000
Arial Rounded MT Bold
1071
0
  0
STYLE
  5
6D
100
AcDbSymbolTableRecord
100
AcDbTextStyleTableRecord
  2
textstyle21
 70
0
 40
0.0
 41
1.0
 50
0.0
 71
0
 42
5.0
  3

  4

1001
ACAD
1000
Arial Rounded MT Bold
1071
0
  0
STYLE
  5
6E
100
AcDbSymbolTableRecord
100
AcDbTextStyleTableRecord
  2
textstyle22
 70
0
 40
0.0
 41
1.0
 50
0.0
 71
0
 42
5.0
  3

  4

1001
ACAD
1000
Arial Rounded MT Bold
1071
0
  0
STYLE
  5
6F
100
AcDbSymbolTableRecord
100
AcDbTextStyleTableRecord
  2
textstyle23
 70
0
 40
0.0
 41
1.0
 50
0.0
 71
0
 42
5.0
  3

  4

1001
ACAD
1000
Arial Rounded MT Bold
1071
0
  0
STYLE
  5
70
100
AcDbSymbolTableRecord
100
AcDbTextStyleTableRecord
  2
textstyle24
 70
0
 40
0.0
 41
1.0
 50
0.0
 71
0
 42
5.0
  3

  4

1001
ACAD
1000
Arial Rounded MT Bold
1071
0
  0
STYLE
  5
71
100
AcDbSymbolTableRecord
100
AcDbTextStyleTableRecord
  2
textstyle25
 70
0
 40
0.0
 41
1.0
 50
0.0
 71
0
 42
5.0
  3

  4

1001
ACAD
1000
Arial Rounded MT Bold
1071
0
  0
STYLE
  5
72
100
AcDbSymbolTableRecord
100
AcDbTextStyleTableRecord
  2
textstyle26
 70
0
 40
0.0
 41
1.0
 50
0.0
 71
0
 42
5.0
  3

  4

1001
ACAD
1000
Arial Rounded MT Bold
1071
0
  0
STYLE
  5
73
100
AcDbSymbolTableRecord
100
AcDbTextStyleTableRecord
  2
textstyle27
 70
0
 40
0.0
 41
1.0
 50
0.0
 71
0
 42
5.0
  3

  4

1001
ACAD
1000
Arial Rounded MT Bold
1071
0
  0
STYLE
  5
74
100
AcDbSymbolTableRecord
100
AcDbTextStyleTableRecord
  2
textstyle28
 70
0
 40
0.0
 41
1.0
 50
0.0
 71
0
 42
5.0
  3

  4

1001
ACAD
1000
Arial Rounded MT Bold
1071
0
  0
STYLE
  5
75
100
AcDbSymbolTableRecord
100
AcDbTextStyleTableRecord
  2
textstyle29
 70
0
 40
0.0
 41
1.0
 50
0.0
 71
0
 42
5.0
  3

  4

1001
ACAD
1000
Arial Rounded MT Bold
1071
0
  0
STYLE
  5
76
100
AcDbSymbolTableRecord
100
AcDbTextStyleTableRecord
  2
textstyle30
 70
0
 40
0.0
 41
1.0
 50
0.0
 71
0
 42
5.0
  3

  4

1001
ACAD
1000
Arial Rounded MT Bold
1071
0
  0
STYLE
  5
77
100
AcDbSymbolTableRecord
100
AcDbTextStyleTableRecord
  2
textstyle31
 70
0
 40
0.0
 41
1.0
 50
0.0
 71
0
 42
5.0
  3

  4

1001
ACAD
1000
Arial Rounded MT Bold
1071
0
  0
STYLE
  5
78
100
AcDbSymbolTableRecord
100
AcDbTextStyleTableRecord
  2
textstyle32
 70
0
 40
0.0
 41
1.0
 50
0.0
 71
0
 42
5.0
  3

  4

1001
ACAD
1000
Arial Rounded MT Bold
1071
0
  0
STYLE
  5
79
100
AcDbSymbolTableRecord
100
AcDbTextStyleTableRecord
  2
textstyle33
 70
0
 40
0.0
 41
1.0
 50
0.0
 71
0
 42
5.0
  3

  4

1001
ACAD
1000
Arial Rounded MT Bold
1071
0
  0
STYLE
  5
7A
100
AcDbSymbolTableRecord
100
AcDbTextStyleTableRecord
  2
textstyle34
 70
0
 40
0.0
 41
1.0
 50
0.0
 71
0
 42
5.0
  3

  4

1001
ACAD
1000
Arial Rounded MT Bold
1071
0
  0
STYLE
  5
7B
100
AcDbSymbolTableRecord
100
AcDbTextStyleTableRecord
  2
textstyle35
 70
0
 40
0.0
 41
1.0
 50
0.0
 71
0
 42
5.0
  3

  4

1001
ACAD
1000
Arial Rounded MT Bold
1071
0
  0
STYLE
  5
7C
100
AcDbSymbolTableRecord
100
AcDbTextStyleTableRecord
  2
textstyle36
 70
0
 40
0.0
 41
1.0
 50
0.0
 71
0
 42
5.0
  3

  4

1001
ACAD
1000
Arial Rounded MT Bold
1071
0
  0
STYLE
  5
7D
100
AcDbSymbolTableRecord
100
AcDbTextStyleTableRecord
  2
textstyle37
 70
0
 40
0.0
 41
1.0
 50
0.0
 71
0
 42
5.0
  3

  4

1001
ACAD
1000
Arial Rounded MT Bold
1071
0
  0
STYLE
  5
7E
100
AcDbSymbolTableRecord
100
AcDbTextStyleTableRecord
  2
textstyle38
 70
0
 40
0.0
 41
1.0
 50
0.0
 71
0
 42
5.0
  3

  4

1001
ACAD
1000
Arial Rounded MT Bold
1071
0
  0
STYLE
  5
7F
100
AcDbSymbolTableRecord
100
AcDbTextStyleTableRecord
  2
textstyle39
 70
0
 40
0.0
 41
1.0
 50
0.0
 71
0
 42
5.0
  3

  4

1001
ACAD
1000
Arial Rounded MT Bold
1071
0
  0
STYLE
  5
80
100
AcDbSymbolTableRecord
100
AcDbTextStyleTableRecord
  2
textstyle40
 70
0
 40
0.0
 41
1.0
 50
0.0
 71
0
 42
5.0
  3

  4

1001
ACAD
1000
Arial Rounded MT Bold
1071
0
  0
STYLE
  5
81
100
AcDbSymbolTableRecord
100
AcDbTextStyleTableRecord
  2
textstyle41
 70
0
 40
0.0
 41
1.0
 50
0.0
 71
0
 42
5.0
  3

  4

1001
ACAD
1000
Arial Rounded MT Bold
1071
0
  0
STYLE
  5
82
100
AcDbSymbolTableRecord
100
AcDbTextStyleTableRecord
  2
textstyle42
 70
0
 40
0.0
 41
1.0
 50
0.0
 71
0
 42
5.0
  3

  4

1001
ACAD
1000
Arial Rounded MT Bold
1071
0
  0
STYLE
  5
83
100
AcDbSymbolTableRecord
100
AcDbTextStyleTableRecord
  2
textstyle43
 70
0
 40
0.0
 41
1.0
 50
0.0
 71
0
 42
5.0
  3

  4

1001
ACAD
1000
Arial Rounded MT Bold
1071
0
  0
STYLE
  5
84
100
AcDbSymbolTableRecord
100
AcDbTextStyleTableRecord
  2
textstyle44
 70
0
 40
0.0
 41
1.0
 50
0.0
 71
0
 42
5.0
  3

  4

1001
ACAD
1000
Arial Rounded MT Bold
1071
0
  0
STYLE
  5
85
100
AcDbSymbolTableRecord
100
AcDbTextStyleTableRecord
  2
textstyle45
 70
0
 40
0.0
 41
1.0
 50
0.0
 71
0
 42
5.0
  3

  4

1001
ACAD
1000
Arial Rounded MT Bold
1071
0
  0
STYLE
  5
86
100
AcDbSymbolTableRecord
100
AcDbTextStyleTableRecord
  2
textstyle46
 70
0
 40
0.0
 41
1.0
 50
0.0
 71
0
 42
5.0
  3

  4

1001
ACAD
1000
Arial Rounded MT Bold
1071
0
  0
STYLE
  5
87
100
AcDbSymbolTableRecord
100
AcDbTextStyleTableRecord
  2
textstyle47
 70
0
 40
0.0
 41
1.0
 50
0.0
 71
0
 42
5.0
  3

  4

1001
ACAD
1000
Arial Rounded MT Bold
1071
0
  0
ENDTAB
  0
TABLE
  2
VIEW
  5
6
100
AcDbSymbolTable
 70
0
  0
ENDTAB
  0
TABLE
  2
UCS
  5
7
100
AcDbSymbolTable
 70
0
  0
ENDTAB
  0
TABLE
  2
APPID
  5
9
100
AcDbSymbolTable
 70
1
  0
APPID
  5
12
100
AcDbSymbolTableRecord
100
AcDbRegAppTableRecord
  2
ACAD
 70
0
  0
APPID
  5
88
100
AcDbSymbolTableRecord
100
AcDbRegAppTableRecord
  2
QCAD
 70
0
  0
ENDTAB
  0
TABLE
  2
DIMSTYLE
  5
A
100
AcDbSymbolTable
 70
1
100
AcDbDimStyleTable
 71
0
  0
DIMSTYLE
105
27
100
AcDbSymbolTableRecord
100
AcDbDimStyleTableRecord
  2
Standard
 41
2.5
 42
0.625
 43
3.75
 44
1.25
 70
0
 73
0
 74
0
 77
1
 78
8
140
2.5
141
2.5
143
0.03937007874016
147
0.625
171
3
172
1
271
2
272
2
274
3
278
44
283
0
284
8
340
57
  0
ENDTAB
  0
TABLE
  2
BLOCK_RECORD
  5
1
100
AcDbSymbolTable
 70
1
  0
BLOCK_RECORD
  5
1F
100
AcDbSymbolTableRecord
100
AcDbBlockTableRecord
  2
*Model_Space
340
22
  0
BLOCK_RECORD
  5
1B
100
AcDbSymbolTableRecord
100
AcDbBlockTableRecord
  2
*Paper_Space
340
1E
  0
BLOCK_RECORD
  5
23
100
AcDbSymbolTableRecord
100
AcDbBlockTableRecord
  2
*Paper_Space0
340
26
  0
ENDTAB
  0
ENDSEC
  0
SECTION
  2
BLOCKS
  0
BLOCK
  5
20
100
AcDbEntity
  8
0
100
AcDbBlockBegin
  2
*Model_Space
 70
0
 10
0.0
 20
0.0
 30
0.0
  3
*Model_Space
  1

  0
ENDBLK
  5
21
100
AcDbEntity
  8
0
100
AcDbBlockEnd
  0
BLOCK
  5
1C
100
AcDbEntity
 67
1
  8
0
100
AcDbBlockBegin
  2
*Paper_Space
 70
0
 10
0.0
 20
0.0
 30
0.0
  3
*Paper_Space
  1

  0
ENDBLK
  5
1D
100
AcDbEntity
 67
1
  8
0
100
AcDbBlockEnd
  0
BLOCK
  5
24
100
AcDbEntity
  8
0
100
AcDbBlockBegin
  2
*Paper_Space0
 70
0
 10
0.0
 20
0.0
 30
0.0
  3
*Paper_Space0
  1

  0
ENDBLK
  5
25
100
AcDbEntity
  8
0
100
AcDbBlockEnd
  0
ENDSEC
  0
SECTION
  2
ENTITIES
  0
LINE
  5
89
100
AcDbEntity
  8
0
 62
256
370
-1
 48
1.0
  6
BYLAYER
100
AcDbLine
 10
33.3375000000000057
 20
-28.5749999999999602
 30
0.0
 11
33.3375000000000057
 21
-9.5250000000000057
 31
0.0
  0
LINE
  5
8A
100
AcDbEntity
  8
0
 62
256
370
-1
 48
1.0
  6
BYLAYER
100
AcDbLine
 10
256.033860679179611
 20
-28.5750000000000171
 30
0.0
 11
256.033860679179611
 21
-9.5250000000000661
 31
0.0
  0
LINE
  5
8B
100
AcDbEntity
  8
0
 62
256
370
-1
 48
1.0
  6
BYLAYER
100
AcDbLine
 10
33.3375000000000057
 20
-9.5250000000000057
 30
0.0
 11
33.3375000000000057
 21
9.5250000000000057
 31
0.0
  0
LINE
  5
8C
100
AcDbEntity
  8
0
 62
256
370
-1
 48
1.0
  6
BYLAYER
100
AcDbLine
 10
256.033860679179611
 20
-9.5250000000000661
 30
0.0
 11
256.033860679179611
 21
9.5249999999999417
 31
0.0
  0
LINE
  5
8D
100
AcDbEntity
  8
0
 62
256
370
-1
 48
1.0
  6
BYLAYER
100
AcDbLine
 10
14.2874999999999943
 20
-9.5250000000000057
 30
0.0
 11
14.2874999999999943
 21
9.5250000000000057
 31
0.0
  0
LINE
  5
8E
100
AcDbEntity
  8
0
 62
256
370
-1
 48
1.0
  6
BYLAYER
100
AcDbLine
 10
275.0838606791796792
 20
-9.5250000000000767
 30
0.0
 11
275.0838606791796792
 21
9.5249999999999346
 31
0.0
  0
LINE
  5
8F
100
AcDbEntity
  8
0
 62
256
370
-1
 48
1.0
  6
BYLAYER
100
AcDbLine
 10
38.0999999999999943
 20
-47.6249999999999716
 30
0.0
 11
38.0999999999999943
 21
-28.5749999999999602
 31
0.0
  0
LINE
  5
90
100
AcDbEntity
  8
0
 62
256
370
-1
 48
1.0
  6
BYLAYER
100
AcDbLine
 10
251.2713606791796224
 20
-47.6250000000000284
 30
0.0
 11
251.2713606791796224
 21
-28.5750000000000242
 31
0.0
  0
LINE
  5
91
100
AcDbEntity
  8
0
 62
256
370
-1
 48
1.0
  6
BYLAYER
100
AcDbLine
 10
19.0499999999999829
 20
-47.6249999999999716
 30
0.0
 11
19.0500000000000114
 21
-28.5749999999999602
 31
0.0
  0
LINE
  5
92
100
AcDbEntity
  8
0
 62
256
370
-1
 48
1.0
  6
BYLAYER
100
AcDbLine
 10
270.3213606791796337
 20
-47.6250000000000426
 30
0.0
 11
270.3213606791796337
 21
-28.5750000000000171
 31
0.0
  0
LINE
  5
93
100
AcDbEntity
  8
0
 62
256
370
-1
 48
1.0
  6
BYLAYER
100
AcDbLine
 10
36.6454977845550331
 20
10.4320444674007593
 30
0.0
 11
55.406085479437607
 21
7.1240466828457887
 31
0.0
  0
LINE
  5
94
100
AcDbEntity
  8
0
 62
256
370
-1
 48
1.0
  6
BYLAYER
100
AcDbLine
 10
36.6454977845550331
 20
-8.9746550594933154
 30
0.0
 11
33.3375000000000057
 21
-27.7352427543759035
 31
0.0
  0
LINE
  5
95
100
AcDbEntity
  8
0
 62
256
370
-1
 48
1.0
  6
BYLAYER
100
AcDbLine
 10
252.7258628946245835
 20
-8.9746550594933829
 30
0.0
 11
256.033860679179611
 21
-27.7352427543759745
 31
0.0
  0
LINE
  5
96
100
AcDbEntity
  8
0
 62
256
370
-1
 48
1.0
  6
BYLAYER
100
AcDbLine
 10
55.4060854794375786
 20
-12.2826528440483429
 30
0.0
 11
52.0980876948825511
 21
-31.0432405389309309
 31
0.0
  0
LINE
  5
97
100
AcDbEntity
  8
0
 62
256
370
-1
 48
1.0
  6
BYLAYER
100
AcDbLine
 10
233.9652751997420239
 20
-12.2826528440484068
 30
0.0
 11
237.2732729842970514
 21
-31.0432405389309949
 31
0.0
  0
LINE
  5
98
100
AcDbEntity
  8
0
 62
256
370
-1
 48
1.0
  6
BYLAYER
100
AcDbLine
 10
55.4060854794375928
 20
7.1240466828457887
 30
0.0
 11
52.0980876948825653
 21
-11.6365410120367994
 31
0.0
  0
LINE
  5
99
100
AcDbEntity
  8
0
 62
256
370
-1
 48
1.0
  6
BYLAYER
100
AcDbLine
 10
-19.0499999999999758
 20
-28.5749999999999531
 30
0.0
 11
-19.0499999999999758
 21
-9.5250000000000004
 31
0.0
  0
LINE
  5
9A
100
AcDbEntity
  8
0
 62
256
370
-1
 48
1.0
  6
BYLAYER
100
AcDbLine
 10
317.9463606791798611
 20
-28.5749999999999886
 30
0.0
 11
317.9463606791798611
 21
-9.5250000000000661
 31
0.0
  0
LINE
  5
9B
100
AcDbEntity
  8
0
 62
256
370
-1
 48
1.0
  6
BYLAYER
100
AcDbLine
 10
-19.0499999999999829
 20
-66.6749999999999545
 30
0.0
 11
-19.0499999999999829
 21
-47.6249999999999432
 31
0.0
  0
LINE
  5
9C
100
AcDbEntity
  8
0
 62
256
370
-1
 48
1.0
  6
BYLAYER
100
AcDbLine
 10
317.9463606791798611
 20
-66.6749999999999261
 30
0.0
 11
317.9463606791798611
 21
-47.6249999999999289
 31
0.0
  0
LINE
  5
9D
100
AcDbEntity
  8
0
 62
256
370
-1
 48
1.0
  6
BYLAYER
100
AcDbLine
 10
28.5750000000000171
 20
-66.6749999999999545
 30
0.0
 11
28.5750000000000171
 21
-47.6249999999999432
 31
0.0
  0
LINE
  5
9E
100
AcDbEntity
  8
0
 62
256
370
-1
 48
1.0
  6
BYLAYER
100
AcDbLine
 10
4.7625000000000171
 20
-66.6749999999999545
 30
0.0
 11
4.7625000000000171
 21
-47.6249999999999432
 31
0.0
  0
MTEXT
  5
9F
100
AcDbEntity
  8
0
 62
256
370
-1
 48
1.0
  6
BYLAYER
100
AcDbMText
 10
23.8125
 20
-19.0499999999999829
 30
0.0
 40
5.0
 41
0.0
 71
5
 72
1
  1
a
  7
textstyle9
 50
0.0
 73
2
 44
1.0
  0
MTEXT
  5
A0
100
AcDbEntity
  8
0
 62
256
370
-1
 48
1.0
  6
BYLAYER
100
AcDbMText
 10
0.0
 20
0.0
 30
0.0
 40
5.0
 41
0.0
 71
5
 72
1
  1
tab
  7
textstyle14
 50
0.0
 73
2
 44
1.0
  0
MTEXT
  5
A1
100
AcDbEntity
  8
0
 62
256
370
-1
 48
1.0
  6
BYLAYER
100
AcDbMText
 10
-2.381249999999989
 20
-19.0499999999999758
 30
0.0
 40
5.0
 41
0.0
 71
5
 72
1
  1
caps
  7
textstyle13
 50
0.0
 73
2
 44
1.0
  0
MTEXT
  5
A2
100
AcDbEntity
  8
0
 62
256
370
-1
 48
1.0
  6
BYLAYER
100
AcDbMText
 10
-2.3812499999999868
 20
-38.0999999999999517
 30
0.0
 40
5.0
 41
0.0
 71
5
 72
1
  1
shift
  7
textstyle16
 50
0.0
 73
2
 44
1.0
  0
MTEXT
  5
A3
100
AcDbEntity
  8
0
 62
256
370
-1
 48
1.0
  6
BYLAYER
100
AcDbMText
 10
-7.1437499999999829
 20
-57.1499999999999773
 30
0.0
 40
5.0
 41
0.0
 71
5
 72
1
  1
ctrl
  7
textstyle15
 50
0.0
 73
2
 44
1.0
  0
MTEXT
  5
A4
100
AcDbEntity
  8
0
 62
256
370
-1
 48
1.0
  6
BYLAYER
100
AcDbMText
 10
23.8125
 20
0.0000000000000284
 30
0.0
 40
5.0
 41
0.0
 71
5
 72
1
  1
q
  7
textstyle11
 50
0.0
 73
2
 44
1.0
  0
MTEXT
  5
A5
100
AcDbEntity
  8
0
 62
256
370
-1
 48
1.0
  6
BYLAYER
100
AcDbMText
 10
28.5750000000000171
 20
-38.0999999999999943
 30
0.0
 40
5.0
 41
0.0
 71
5
 72
1
  1
z
  7
textstyle10
 50
0.0
 73
2
 44
1.0
  0
MTEXT
  5
A6
100
AcDbEntity
  8
0
 62
256
370
-1
 48
1.0
  6
BYLAYER
100
AcDbMText
 10
16.6687500000000171
 20
-57.1499999999999773
 30
0.0
 40
5.0
 41
0.0
 71
5
 72
1
  1
win
  7
textstyle12
 50
0.0
 73
2
 44
1.0
  0
LINE
  5
A7
100
AcDbEntity
  8
0
 62
256
370
-1
 48
1.0
  6
BYLAYER
100
AcDbLine
 10
-14.2874999999999996
 20
-9.5250000000000004
 30
0.0
 11
-14.2874999999999996
 21
9.5250000000000004
 31
0.0
  0
LINE
  5
A8
100
AcDbEntity
  8
0
 62
256
370
-1
 48
1.0
  6
BYLAYER
100
AcDbLine
 10
-23.8124999999999574
 20
-28.574999999999946
 30
0.0
 11
-23.8124999999999858
 21
-47.6249999999999574
 31
0.0
  0
LINE
  5
A9
100
AcDbEntity
  8
0
 62
256
370
-1
 48
1.0
  6
BYLAYER
100
AcDbLine
 10
322.7088606791796224
 20
-28.5750000000000419
 30
0.0
 11
322.7088606791796224
 21
-47.6249999999999574
 31
0.0
  0
LINE
  5
AA
100
AcDbEntity
  8
0
 62
256
370
-1
 48
1.0
  6
BYLAYER
100
AcDbLine
 10
14.2874999999999943
 20
-9.5250000000000057
 30
0.0
 11
14.2874999999999943
 21
-28.5749999999999744
 31
0.0
  0
LINE
  5
AB
100
AcDbEntity
  8
0
 62
256
370
-1
 48
1.0
  6
BYLAYER
100
AcDbLine
 10
275.0838606791796792
 20
-9.5250000000000767
 30
0.0
 11
275.0838606791795655
 21
-28.5750000000000668
 31
0.0
  0
LINE
  5
AC
100
AcDbEntity
  8
0
 62
256
370
-1
 48
1.0
  6
BYLAYER
100
AcDbLine
 10
33.3375000000000057
 20
-28.5749999999999567
 30
0.0
 11
33.3375000000000057
 21
-27.7352427543759035
 31
0.0
  0
LINE
  5
AD
100
AcDbEntity
  8
0
 62
256
370
-1
 48
1.0
  6
BYLAYER
100
AcDbLine
 10
256.033860679179611
 20
-28.5750000000000171
 30
0.0
 11
256.033860679179611
 21
-27.7352427543759745
 31
0.0
  0
LINE
  5
AE
100
AcDbEntity
  8
0
 62
256
370
-1
 48
1.0
  6
BYLAYER
100
AcDbLine
 10
33.3375000000000057
 20
-8.3929077809469028
 30
0.0
 11
36.6454977845549763
 21
10.3676799139356675
 31
0.0
  0
LINE
  5
AF
100
AcDbEntity
  8
0
 62
256
370
-1
 48
1.0
  6
BYLAYER
100
AcDbLine
 10
256.033860679179611
 20
-8.3929077809469668
 30
0.0
 11
252.7258628946246404
 21
10.3676799139356035
 31
0.0
  0
LINE
  5
B0
100
AcDbEntity
  8
0
 62
256
370
-1
 48
1.0
  6
BYLAYER
100
AcDbLine
 10
55.4060854794375359
 20
7.0596821293806444
 30
0.0
 11
52.0980876948825156
 21
-11.7009055655019196
 31
0.0
  0
LINE
  5
B1
100
AcDbEntity
  8
0
 62
256
370
-1
 48
1.0
  6
BYLAYER
100
AcDbLine
 10
233.9652751997420808
 20
7.059682129380576
 30
0.0
 11
237.2732729842971082
 21
-11.7009055655019836
 31
0.0
  0
MTEXT
  5
B2
100
AcDbEntity
  8
0
 62
256
370
-1
 48
1.0
  6
BYLAYER
100
AcDbMText
 10
44.3717927397187708
 20
-0.6666128257831297
 30
0.0
 40
5.0
 41
0.0
 71
5
 72
1
  1
w
  7
textstyle8
 50
-10.0
 73
2
 44
1.0
  0
MTEXT
  5
B3
100
AcDbEntity
  8
0
 62
256
370
-1
 48
1.0
  6
BYLAYER
100
AcDbMText
 10
44.371792739718785
 20
-20.0089477992121232
 30
0.0
 40
5.0
 41
0.0
 71
5
 72
1
  1
s
  7
textstyle7
 50
-10.0
 73
2
 44
1.0
  0
MTEXT
  5
B4
100
AcDbEntity
  8
0
 62
256
370
-1
 48
1.0
  6
BYLAYER
100
AcDbMText
 10
49.0840368203407493
 20
-40.1837205267329622
 30
0.0
 40
5.0
 41
0.0
 71
5
 72
1
  1
x
  7
textstyle6
 50
-10.0
 73
2
 44
1.0
  0
LINE
  5
B5
100
AcDbEntity
  8
0
 62
256
370
-1
 48
1.0
  6
BYLAYER
100
AcDbLine
 10
41.3577418651769904
 20
-29.1494277870141687
 30
0.0
 11
38.04974408062197
 21
-47.9100154818967354
 31
0.0
  0
LINE
  5
B6
100
AcDbEntity
  8
0
 62
256
370
-1
 48
1.0
  6
BYLAYER
100
AcDbLine
 10
248.0136188140026263
 20
-29.1494277870142326
 30
0.0
 11
251.3216165985576538
 21
-47.9100154818967994
 31
0.0
  0
LINE
  5
B7
100
AcDbEntity
  8
0
 62
256
370
-1
 48
1.0
  6
BYLAYER
100
AcDbLine
 10
60.1183295600595571
 20
-32.4574255715691891
 30
0.0
 11
56.8103317755045367
 21
-51.2180132664517558
 31
0.0
  0
LINE
  5
B8
100
AcDbEntity
  8
0
 62
256
370
-1
 48
1.0
  6
BYLAYER
100
AcDbLine
 10
229.2530311191200383
 20
-32.457425571569253
 30
0.0
 11
232.5610289036750657
 21
-51.2180132664518197
 31
0.0
  0
LINE
  5
B9
100
AcDbEntity
  8
0
 62
256
370
-1
 48
1.0
  6
BYLAYER
100
AcDbLine
 10
74.1666731743201098
 20
3.7516843448256196
 30
0.0
 11
70.8586753897650823
 21
-15.0089033500569435
 31
0.0
  0
LINE
  5
BA
100
AcDbEntity
  8
0
 62
256
370
-1
 48
1.0
  6
BYLAYER
100
AcDbLine
 10
215.2046875048594927
 20
3.7516843448255628
 30
0.0
 11
218.5126852894145202
 21
-15.0089033500570039
 31
0.0
  0
LINE
  5
BB
100
AcDbEntity
  8
0
 62
256
370
-1
 48
1.0
  6
BYLAYER
100
AcDbLine
 10
92.9272608692026694
 20
0.4436865602705966
 30
0.0
 11
89.6192630846476419
 21
-18.3169011346119674
 31
0.0
  0
LINE
  5
BC
100
AcDbEntity
  8
0
 62
256
370
-1
 48
1.0
  6
BYLAYER
100
AcDbLine
 10
196.4440998099769615
 20
0.4436865602705424
 30
0.0
 11
199.752097594531989
 21
-18.3169011346120314
 31
0.0
  0
LINE
  5
BD
100
AcDbEntity
  8
0
 62
256
370
-1
 48
1.0
  6
BYLAYER
100
AcDbLine
 10
111.687848564085229
 20
-2.8643112242844264
 30
0.0
 11
108.3798507795302015
 21
-21.6248989191669878
 31
0.0
  0
LINE
  5
BE
100
AcDbEntity
  8
0
 62
256
370
-1
 48
1.0
  6
BYLAYER
100
AcDbLine
 10
177.6835121150943735
 20
-2.8643112242844992
 30
0.0
 11
180.9915098996494009
 21
-21.6248989191670447
 31
0.0
  0
LINE
  5
BF
100
AcDbEntity
  8
0
 62
256
370
-1
 48
1.0
  6
BYLAYER
100
AcDbLine
 10
70.8586753897650823
 20
-15.0089033500569435
 30
0.0
 11
70.8586753897650823
 21
-15.0089033500569418
 31
0.0
  0
LINE
  5
C0
100
AcDbEntity
  8
0
 62
256
370
-1
 48
1.0
  6
BYLAYER
100
AcDbLine
 10
218.5126852894145202
 20
-15.0089033500570039
 30
0.0
 11
218.5126852894145202
 21
-15.0089033500570004
 31
0.0
  0
LINE
  5
C1
100
AcDbEntity
  8
0
 62
256
370
-1
 48
1.0
  6
BYLAYER
100
AcDbLine
 10
74.1666731743201524
 20
-15.5906506286033881
 30
0.0
 11
70.8586753897651249
 21
-34.3512383234859513
 31
0.0
  0
LINE
  5
C2
100
AcDbEntity
  8
0
 62
256
370
-1
 48
1.0
  6
BYLAYER
100
AcDbLine
 10
215.2046875048594643
 20
-15.5906506286034521
 30
0.0
 11
218.5126852894144918
 21
-34.3512383234860152
 31
0.0
  0
LINE
  5
C3
100
AcDbEntity
  8
0
 62
256
370
-1
 48
1.0
  6
BYLAYER
100
AcDbLine
 10
92.927260869202712
 20
-18.8986484131584085
 30
0.0
 11
89.6192630846476845
 21
-37.6592361080409717
 31
0.0
  0
LINE
  5
C4
100
AcDbEntity
  8
0
 62
256
370
-1
 48
1.0
  6
BYLAYER
100
AcDbLine
 10
196.4440998099769047
 20
-18.8986484131584653
 30
0.0
 11
199.7520975945319321
 21
-37.6592361080411706
 31
0.0
  0
LINE
  5
C5
100
AcDbEntity
  8
0
 62
256
370
-1
 48
1.0
  6
BYLAYER
100
AcDbLine
 10
111.6878485640852716
 20
-22.2066461977134288
 30
0.0
 11
108.3798507795302442
 21
-40.967233892595992
 31
0.0
  0
LINE
  5
C6
100
AcDbEntity
  8
0
 62
256
370
-1
 48
1.0
  6
BYLAYER
100
AcDbLine
 10
177.6835121150943166
 20
-22.2066461977134963
 30
0.0
 11
180.9915098996493441
 21
-40.9672338925959778
 31
0.0
  0
LINE
  5
C7
100
AcDbEntity
  8
0
 62
256
370
-1
 48
1.0
  6
BYLAYER
100
AcDbLine
 10
33.3375000000000057
 20
9.5250000000000057
 30
0.0
 11
-14.2874999999999996
 21
9.5250000000000004
 31
0.0
  0
LINE
  5
C8
100
AcDbEntity
  8
0
 62
256
370
-1
 48
1.0
  6
BYLAYER
100
AcDbLine
 10
-19.0499999999999758
 20
-9.5250000000000004
 30
0.0
 11
33.3375000000000057
 21
-9.5250000000000057
 31
0.0
  0
LINE
  5
C9
100
AcDbEntity
  8
0
 62
256
370
-1
 48
1.0
  6
BYLAYER
100
AcDbLine
 10
-23.8124999999999574
 20
-28.574999999999946
 30
0.0
 11
38.0999999999999943
 21
-28.5749999999999602
 31
0.0
  0
LINE
  5
CA
100
AcDbEntity
  8
0
 62
256
370
-1
 48
1.0
  6
BYLAYER
100
AcDbLine
 10
-23.8124999999999858
 20
-47.6249999999999574
 30
0.0
 11
38.0999999999999943
 21
-47.6249999999999574
 31
0.0
  0
LINE
  5
CB
100
AcDbEntity
  8
0
 62
256
370
-1
 48
1.0
  6
BYLAYER
100
AcDbLine
 10
28.5750000000000171
 20
-66.6749999999999545
 30
0.0
 11
-19.0499999999999829
 21
-66.6749999999999545
 31
0.0
  0
LINE
  5
CC
100
AcDbEntity
  8
0
 62
256
370
-1
 48
1.0
  6
BYLAYER
100
AcDbLine
 10
36.6454977845550331
 20
10.4320444674007593
 30
0.0
 11
111.687848564085229
 21
-2.8643112242844264
 31
0.0
  0
LINE
  5
CD
100
AcDbEntity
  8
0
 62
256
370
-1
 48
1.0
  6
BYLAYER
100
AcDbLine
 10
252.7258628946245835
 20
10.4320444674006936
 30
0.0
 11
177.6835121150943735
 21
-2.8643112242844992
 31
0.0
  0
LINE
  5
CE
100
AcDbEntity
  8
0
 62
256
370
-1
 48
1.0
  6
BYLAYER
100
AcDbLine
 10
111.6878485640852716
 20
-22.2066461977134288
 30
0.0
 11
33.3375000000000057
 21
-8.3929077809469259
 31
0.0
  0
LINE
  5
CF
100
AcDbEntity
  8
0
 62
256
370
-1
 48
1.0
  6
BYLAYER
100
AcDbLine
 10
177.6835121150943166
 20
-22.2066461977134963
 30
0.0
 11
256.033860679179611
 21
-8.3929077809469916
 31
0.0
  0
LINE
  5
D0
100
AcDbEntity
  8
0
 62
256
370
-1
 48
1.0
  6
BYLAYER
100
AcDbLine
 10
116.4000926447072288
 20
-42.3814189252342572
 30
0.0
 11
113.0920948601522014
 21
-61.1420066201168169
 31
0.0
  0
LINE
  5
D1
100
AcDbEntity
  8
0
 62
256
370
-1
 48
1.0
  6
BYLAYER
100
AcDbLine
 10
172.9712680344723879
 20
-42.3814189252343851
 30
0.0
 11
176.2792658190274153
 21
-61.1420066201168879
 31
0.0
  0
LINE
  5
D2
100
AcDbEntity
  8
0
 62
256
370
-1
 48
1.0
  6
BYLAYER
100
AcDbLine
 10
97.6395049498246692
 20
-39.0734211406792298
 30
0.0
 11
94.3315071652696417
 21
-57.8340088355617965
 31
0.0
  0
LINE
  5
D3
100
AcDbEntity
  8
0
 62
256
370
-1
 48
1.0
  6
BYLAYER
100
AcDbLine
 10
191.731855729354919
 20
-39.0734211406792014
 30
0.0
 11
195.0398535139099465
 21
-57.8340088355618747
 31
0.0
  0
LINE
  5
D4
100
AcDbEntity
  8
0
 62
256
370
-1
 48
1.0
  6
BYLAYER
100
AcDbLine
 10
78.8789172549421096
 20
-35.7654233561242165
 30
0.0
 11
75.5709194703870821
 21
-54.5260110510067761
 31
0.0
  0
LINE
  5
D5
100
AcDbEntity
  8
0
 62
256
370
-1
 48
1.0
  6
BYLAYER
100
AcDbLine
 10
210.4924434242375071
 20
-35.7654233561244155
 30
0.0
 11
213.8004412087925346
 21
-54.5260110510068472
 31
0.0
  0
LINE
  5
D6
100
AcDbEntity
  8
0
 62
256
370
-1
 48
1.0
  6
BYLAYER
100
AcDbLine
 10
33.3375000000000057
 20
-27.7352427543759426
 30
0.0
 11
135.1606803395897884
 21
-45.6894167097892776
 31
0.0
  0
LINE
  5
D7
100
AcDbEntity
  8
0
 62
256
370
-1
 48
1.0
  6
BYLAYER
100
AcDbLine
 10
256.033860679179611
 20
-27.7352427543760172
 30
0.0
 11
154.2106803395897998
 21
-45.6894167097892776
 31
0.0
  0
LINE
  5
D8
100
AcDbEntity
  8
0
 62
256
370
-1
 48
1.0
  6
BYLAYER
100
AcDbLine
 10
38.04974408062197
 20
-47.9100154818967354
 30
0.0
 11
113.0920948601522014
 21
-61.1420066201168169
 31
0.0
  0
LINE
  5
D9
100
AcDbEntity
  8
0
 62
256
370
-1
 48
1.0
  6
BYLAYER
100
AcDbLine
 10
251.3216165985576538
 20
-47.9100154818967994
 30
0.0
 11
176.2792658190274153
 21
-61.1420066201168879
 31
0.0
  0
LINE
  5
DA
100
AcDbEntity
  8
0
 62
256
370
-1
 48
1.0
  6
BYLAYER
100
AcDbLine
 10
113.0920948601522014
 20
-61.1420066201168169
 30
0.0
 11
109.7840970755971739
 21
-79.9025943149993765
 31
0.0
  0
LINE
  5
DB
100
AcDbEntity
  8
0
 62
256
370
-1
 48
1.0
  6
BYLAYER
100
AcDbLine
 10
176.2792658190274153
 20
-61.1420066201168879
 30
0.0
 11
179.5872636035824428
 21
-79.9025943149994333
 31
0.0
  0
LINE
  5
DC
100
AcDbEntity
  8
0
 62
256
370
-1
 48
1.0
  6
BYLAYER
100
AcDbLine
 10
70.8807725466664351
 20
-53.6990116048680193
 30
0.0
 11
67.5727747621114077
 21
-72.4595992997505789
 31
0.0
  0
LINE
  5
DD
100
AcDbEntity
  8
0
 62
256
370
-1
 48
1.0
  6
BYLAYER
100
AcDbLine
 10
128.5446847704797335
 20
-83.2105920995543897
 30
0.0
 11
135.1606803395897884
 21
-45.6894167097892776
 31
0.0
  0
LINE
  5
DE
100
AcDbEntity
  8
0
 62
256
370
-1
 48
1.0
  6
BYLAYER
100
AcDbLine
 10
160.8266759086998547
 20
-83.2105920995544608
 30
0.0
 11
154.2106803395897998
 21
-45.6894167097892776
 31
0.0
  0
LINE
  5
DF
100
AcDbEntity
  8
0
 62
256
370
-1
 48
1.0
  6
BYLAYER
100
AcDbLine
 10
231.178879764509503
 20
-70.805600407473122
 30
0.0
 11
227.8708819799544756
 21
-52.0450127125905624
 31
0.0
  0
LINE
  5
E0
100
AcDbEntity
  8
0
 62
256
370
-1
 48
1.0
  6
BYLAYER
100
AcDbLine
 10
313.1838606791797019
 20
-9.5250000000000661
 30
0.0
 11
313.1838606791797019
 21
9.5249999999999346
 31
0.0
  0
LINE
  5
E1
100
AcDbEntity
  8
0
 62
256
370
-1
 48
1.0
  6
BYLAYER
100
AcDbLine
 10
256.033860679179611
 20
9.5249999999999417
 30
0.0
 11
313.1838606791797019
 21
9.5249999999999346
 31
0.0
  0
LINE
  5
E2
100
AcDbEntity
  8
0
 62
256
370
-1
 48
1.0
  6
BYLAYER
100
AcDbLine
 10
317.9463606791798611
 20
-9.5250000000000661
 30
0.0
 11
256.033860679179611
 21
-9.5250000000000661
 31
0.0
  0
LINE
  5
E3
100
AcDbEntity
  8
0
 62
256
370
-1
 48
1.0
  6
BYLAYER
100
AcDbLine
 10
251.2713606791795939
 20
-28.5750000000000739
 30
0.0
 11
322.7088606791796224
 21
-28.5750000000000419
 31
0.0
  0
LINE
  5
E4
100
AcDbEntity
  8
0
 62
256
370
-1
 48
1.0
  6
BYLAYER
100
AcDbLine
 10
249.9394674593920911
 20
-67.4976026229180661
 30
0.0
 11
246.6314696748370636
 21
-48.7370149280355136
 31
0.0
  0
LINE
  5
E5
100
AcDbEntity
  8
0
 62
256
370
-1
 48
1.0
  6
BYLAYER
100
AcDbLine
 10
160.8266759086998547
 20
-83.2105920995544608
 30
0.0
 11
249.9394674593920911
 21
-67.4976026229180661
 31
0.0
  0
LINE
  5
E6
100
AcDbEntity
  8
0
 62
256
370
-1
 48
1.0
  6
BYLAYER
100
AcDbLine
 10
251.2713606791795939
 20
-47.6249999999995808
 30
0.0
 11
270.3213606791796337
 21
-47.6250000000000426
 31
0.0
  0
LINE
  5
E7
100
AcDbEntity
  8
0
 62
256
370
-1
 48
1.0
  6
BYLAYER
100
AcDbLine
 10
260.7963606791795996
 20
-66.6749999999998124
 30
0.0
 11
260.7963606791795996
 21
-47.6249999999998153
 31
0.0
  0
LINE
  5
E8
100
AcDbEntity
  8
0
 62
256
370
-1
 48
1.0
  6
BYLAYER
100
AcDbLine
 10
270.3213606791796337
 20
-47.6250000000000426
 30
0.0
 11
322.7088606791796224
 21
-47.6249999999999574
 31
0.0
  0
LINE
  5
E9
100
AcDbEntity
  8
0
 62
256
370
-1
 48
1.0
  6
BYLAYER
100
AcDbLine
 10
298.8963606791798497
 20
-66.6749999999999261
 30
0.0
 11
317.9463606791798611
 21
-66.6749999999999261
 31
0.0
  0
LINE
  5
EA
100
AcDbEntity
  8
0
 62
256
370
-1
 48
1.0
  6
BYLAYER
100
AcDbLine
 10
279.8463606791798384
 20
-66.6749999999999261
 30
0.0
 11
298.8963606791798497
 21
-66.6749999999999261
 31
0.0
  0
LINE
  5
EB
100
AcDbEntity
  8
0
 62
256
370
-1
 48
1.0
  6
BYLAYER
100
AcDbLine
 10
260.796360679179827
 20
-66.6749999999999261
 30
0.0
 11
279.8463606791798384
 21
-66.6749999999999261
 31
0.0
  0
LINE
  5
EC
100
AcDbEntity
  8
0
 62
256
370
-1
 48
1.0
  6
BYLAYER
100
AcDbLine
 10
279.8463606791798384
 20
-66.6749999999999261
 30
0.0
 11
279.8463606791798384
 21
-47.6249999999999289
 31
0.0
  0
LINE
  5
ED
100
AcDbEntity
  8
0
 62
256
370
-1
 48
1.0
  6
BYLAYER
100
AcDbLine
 10
298.8963606791798497
 20
-66.6749999999999261
 30
0.0
 11
298.8963606791798497
 21
-47.6249999999999289
 31
0.0
  0
LINE
  5
EE
100
AcDbEntity
  8
0
 62
256
370
-1
 48
1.0
  6
BYLAYER
100
AcDbLine
 10
47.4300379280632498
 20
-49.5640143741742492
 30
0.0
 11
44.1220401435082294
 21
-68.3246020690568088
 31
0.0
  0
LINE
  5
EF
100
AcDbEntity
  8
0
 62
256
370
-1
 48
1.0
  6
BYLAYER
100
AcDbLine
 10
44.1220401435082294
 20
-68.3246020690568088
 30
0.0
 11
128.5446847704797335
 21
-83.2105920995543897
 31
0.0
  0
LINE
  5
F0
100
AcDbEntity
  8
0
 62
256
370
-1
 48
1.0
  6
BYLAYER
100
AcDbLine
 10
154.2106803395897998
 20
-33.8018639670368657
 30
0.0
 11
154.2106803395897998
 21
-14.7518639670368668
 31
0.0
  0
LINE
  5
F1
100
AcDbEntity
  8
0
 62
256
370
-1
 48
1.0
  6
BYLAYER
100
AcDbLine
 10
135.1606803395897884
 20
-33.8018639670368657
 30
0.0
 11
135.1606803395897884
 21
-14.7518639670368668
 31
0.0
  0
LINE
  5
F2
100
AcDbEntity
  8
0
 62
256
370
-1
 48
1.0
  6
BYLAYER
100
AcDbLine
 10
135.1606803395897884
 20
-14.7518639670368668
 30
0.0
 11
154.2106803395897998
 21
-14.7518639670368668
 31
0.0
  0
LINE
  5
F3
100
AcDbEntity
  8
0
 62
256
370
-1
 48
1.0
  6
BYLAYER
100
AcDbLine
 10
154.2106803395897998
 20
-33.8018639670368657
 30
0.0
 11
135.1606803395897884
 21
-33.8018639670368657
 31
0.0
  0
CIRCLE
  5
F4
100
AcDbEntity
  8
0
 62
256
370
-1
 48
1.0
  6
BYLAYER
100
AcDbCircle
 10
144.6856803395897941
 20
-24.2768639670368671
 30
0.0
 40
9.0
  0
MTEXT
  5
F5
100
AcDbEntity
  8
0
 62
256
370
-1
 48
1.0
  6
BYLAYER
100
AcDbMText
 10
63.1323804346013162
 20
-3.97461061033815
 30
0.0
 40
5.0
 41
0.0
 71
5
 72
1
  1
e
  7
textstyle45
 50
-10.0
 73
2
 44
1.0
  0
MTEXT
  5
F6
100
AcDbEntity
  8
0
 62
256
370
-1
 48
1.0
  6
BYLAYER
100
AcDbMText
 10
81.8929681294838758
 20
-7.282608394893173
 30
0.0
 40
5.0
 41
0.0
 71
5
 72
1
  1
r
  7
textstyle47
 50
-10.0
 73
2
 44
1.0
  0
MTEXT
  5
F7
100
AcDbEntity
  8
0
 62
256
370
-1
 48
1.0
  6
BYLAYER
100
AcDbMText
 10
100.6535558243664639
 20
-10.5906061794481978
 30
0.0
 40
5.0
 41
0.0
 71
5
 72
1
  1
t
  7
textstyle46
 50
-10.0
 73
2
 44
1.0
  0
MTEXT
  5
F8
100
AcDbEntity
  8
0
 62
256
370
-1
 48
1.0
  6
BYLAYER
100
AcDbMText
 10
63.1323804346013517
 20
-23.3169455837671542
 30
0.0
 40
5.0
 41
0.0
 71
5
 72
1
  1
d
  7
textstyle38
 50
-10.0
 73
2
 44
1.0
  0
MTEXT
  5
F9
100
AcDbEntity
  8
0
 62
256
370
-1
 48
1.0
  6
BYLAYER
100
AcDbMText
 10
81.8929681294839185
 20
-26.6249433683221817
 30
0.0
 40
5.0
 41
0.0
 71
5
 72
1
  1
f
  7
textstyle37
 50
-10.0
 73
2
 44
1.0
  0
MTEXT
  5
FA
100
AcDbEntity
  8
0
 62
256
370
-1
 48
1.0
  6
BYLAYER
100
AcDbMText
 10
100.6535558243664781
 20
-29.932941152877202
 30
0.0
 40
5.0
 41
0.0
 71
5
 72
1
  1
g
  7
textstyle40
 50
-10.0
 73
2
 44
1.0
  0
MTEXT
  5
FB
100
AcDbEntity
  8
0
 62
256
370
-1
 48
1.0
  6
BYLAYER
100
AcDbMText
 10
67.8446245152233303
 20
-43.4917183112879826
 30
0.0
 40
5.0
 41
0.0
 71
5
 72
1
  1
c
  7
textstyle39
 50
-10.0
 73
2
 44
1.0
  0
MTEXT
  5
FC
100
AcDbEntity
  8
0
 62
256
370
-1
 48
1.0
  6
BYLAYER
100
AcDbMText
 10
86.6052122101058757
 20
-46.7997160958430101
 30
0.0
 40
5.0
 41
0.0
 71
5
 72
1
  1
v
  7
textstyle34
 50
-10.0
 73
2
 44
1.0
  0
MTEXT
  5
FD
100
AcDbEntity
  8
0
 62
256
370
-1
 48
1.0
  6
BYLAYER
100
AcDbMText
 10
105.3657999049884495
 20
-50.1077138803980233
 30
0.0
 40
5.0
 41
0.0
 71
5
 72
1
  1
b
  7
textstyle33
 50
-10.0
 73
2
 44
1.0
  0
MTEXT
  5
FE
100
AcDbEntity
  8
0
 62
256
370
-1
 48
1.0
  6
BYLAYER
100
AcDbMText
 10
122.4723887075934812
 20
-62.7960055123943235
 30
0.0
 40
5.0
 41
0.0
 71
5
 72
1
  1
backspace
  7
textstyle36
 50
80.0
 73
2
 44
1.0
  0
MTEXT
  5
FF
100
AcDbEntity
  8
0
 62
256
370
-1
 48
1.0
  6
BYLAYER
100
AcDbMText
 10
57.5014063450873323
 20
-61.011806836962414
 30
0.0
 40
5.0
 41
0.0
 71
5
 72
1
  1
alt
  7
textstyle35
 50
-10.0
 73
2
 44
1.0
  0
MTEXT
  5
100
100
AcDbEntity
  8
0
 62
256
370
-1
 48
1.0
  6
BYLAYER
100
AcDbMText
 10
90.3324348111318045
 20
-66.800802959933705
 30
0.0
 40
5.0
 41
0.0
 71
5
 72
1
  1
space
  7
textstyle43
 50
-10.0
 73
2
 44
1.0
  0
LINE
  5
101
100
AcDbEntity
  8
0
 62
256
370
-1
 48
1.0
  6
BYLAYER
100
AcDbLine
 10
69.2267736543889214
 20
-63.0793054523092991
 30
0.0
 11
69.2267736543889356
 21
-63.0793054523093062
 31
0.0
  0
MTEXT
  5
102
100
AcDbEntity
  8
0
 62
256
370
-1
 48
1.0
  6
BYLAYER
100
AcDbMText
 10
166.8989719715861213
 20
-62.7960055123943803
 30
0.0
 40
5.0
 41
0.0
 71
5
 72
1
  1
enter
  7
textstyle44
 50
-80.0
 73
2
 44
1.0
  0
LINE
  5
103
100
AcDbEntity
  8
0
 62
256
370
-1
 48
1.0
  6
BYLAYER
100
AcDbLine
 10
198.0980987022544753
 20
-8.9366072871707445
 30
0.0
 11
198.0980987022544468
 21
-8.936607287170748
 31
0.0
  0
LINE
  5
104
100
AcDbEntity
  8
0
 62
256
370
-1
 48
1.0
  6
BYLAYER
100
AcDbLine
 10
216.8586863971370065
 20
-5.6286095026157206
 30
0.0
 11
216.8586863971370065
 21
-5.6286095026157295
 31
0.0
  0
LINE
  5
105
100
AcDbEntity
  8
0
 62
256
370
-1
 48
1.0
  6
BYLAYER
100
AcDbLine
 10
235.6192740920195945
 20
-2.3206117180607038
 30
0.0
 11
235.6192740920196513
 21
-2.3206117180607011
 31
0.0
  0
MTEXT
  5
106
100
AcDbEntity
  8
0
 62
256
370
-1
 48
1.0
  6
BYLAYER
100
AcDbMText
 10
188.7178048548131812
 20
-10.5906061794482582
 30
0.0
 40
5.0
 41
0.0
 71
5
 72
1
  1
y
  7
textstyle42
 50
10.0
 73
2
 44
1.0
  0
MTEXT
  5
107
100
AcDbEntity
  8
0
 62
256
370
-1
 48
1.0
  6
BYLAYER
100
AcDbMText
 10
207.4783925496957409
 20
-7.2826083948932343
 30
0.0
 40
5.0
 41
0.0
 71
5
 72
1
  1
u
  7
textstyle41
 50
10.0
 73
2
 44
1.0
  0
MTEXT
  5
108
100
AcDbEntity
  8
0
 62
256
370
-1
 48
1.0
  6
BYLAYER
100
AcDbMText
 10
226.2389802445783005
 20
-3.9746106103382166
 30
0.0
 40
5.0
 41
0.0
 71
5
 72
1
  1
i
  7
textstyle22
 50
10.0
 73
2
 44
1.0
  0
MTEXT
  5
109
100
AcDbEntity
  8
0
 62
256
370
-1
 48
1.0
  6
BYLAYER
100
AcDbMText
 10
244.9995679394608885
 20
-0.6666128257831914
 30
0.0
 40
5.0
 41
0.0
 71
5
 72
1
  1
o
  7
textstyle21
 50
10.0
 73
2
 44
1.0
  0
MTEXT
  5
10A
100
AcDbEntity
  8
0
 62
256
370
-1
 48
1.0
  6
BYLAYER
100
AcDbMText
 10
265.5588606791796451
 20
-0.0000000000000666
 30
0.0
 40
5.0
 41
0.0
 71
5
 72
1
  1
p
  7
textstyle24
 50
0.0
 73
2
 44
1.0
  0
MTEXT
  5
10B
100
AcDbEntity
  8
0
 62
256
370
-1
 48
1.0
  6
BYLAYER
100
AcDbMText
 10
294.1338606791796906
 20
-0.0000000000000684
 30
0.0
 40
5.0
 41
0.0
 71
5
 72
1
  1
backspace
  7
textstyle23
 50
0.0
 73
2
 44
1.0
  0
MTEXT
  5
10C
100
AcDbEntity
  8
0
 62
256
370
-1
 48
1.0
  6
BYLAYER
100
AcDbMText
 10
188.7178048548131244
 20
-29.9329411528772766
 30
0.0
 40
5.0
 41
0.0
 71
5
 72
1
  1
h
  7
textstyle18
 50
10.0
 73
2
 44
1.0
  0
MTEXT
  5
10D
100
AcDbEntity
  8
0
 62
256
370
-1
 48
1.0
  6
BYLAYER
100
AcDbMText
 10
207.478392549695684
 20
-26.6249433683222776
 30
0.0
 40
5.0
 41
0.0
 71
5
 72
1
  1
j
  7
textstyle17
 50
10.0
 73
2
 44
1.0
  0
MTEXT
  5
10E
100
AcDbEntity
  8
0
 62
256
370
-1
 48
1.0
  6
BYLAYER
100
AcDbMText
 10
226.238980244578272
 20
-23.3169455837672182
 30
0.0
 40
5.0
 41
0.0
 71
5
 72
1
  1
k
  7
textstyle20
 50
10.0
 73
2
 44
1.0
  0
MTEXT
  5
10F
100
AcDbEntity
  8
0
 62
256
370
-1
 48
1.0
  6
BYLAYER
100
AcDbMText
 10
244.9995679394608032
 20
-20.0089477992121907
 30
0.0
 40
5.0
 41
0.0
 71
5
 72
1
  1
l
  7
textstyle19
 50
10.0
 73
2
 44
1.0
  0
MTEXT
  5
110
100
AcDbEntity
  8
0
 62
256
370
-1
 48
1.0
  6
BYLAYER
100
AcDbMText
 10
265.5588606791795883
 20
-19.050000000000054
 30
0.0
 40
5.0
 41
0.0
 71
5
 72
1
  1
:\P;
  7
textstyle30
 50
0.0
 73
2
 44
1.0
  0
MTEXT
  5
111
100
AcDbEntity
  8
0
 62
256
370
-1
 48
1.0
  6
BYLAYER
100
AcDbMText
 10
296.5151106791797702
 20
-19.0500000000000469
 30
0.0
 40
5.0
 41
0.0
 71
5
 72
1
  1
enter
  7
textstyle29
 50
0.0
 73
2
 44
1.0
  0
MTEXT
  5
112
100
AcDbEntity
  8
0
 62
256
370
-1
 48
1.0
  6
BYLAYER
100
AcDbMText
 10
202.7661484690737268
 20
-46.7997160958430811
 30
0.0
 40
5.0
 41
0.0
 71
5
 72
1
  1
n
  7
textstyle32
 50
10.0
 73
2
 44
1.0
  0
MTEXT
  5
113
100
AcDbEntity
  8
0
 62
256
370
-1
 48
1.0
  6
BYLAYER
100
AcDbMText
 10
184.0055607741911672
 20
-50.1077138803980873
 30
0.0
 40
5.0
 41
0.0
 71
5
 72
1
  1
b
  7
textstyle31
 50
10.0
 73
2
 44
1.0
  0
MTEXT
  5
114
100
AcDbEntity
  8
0
 62
256
370
-1
 48
1.0
  6
BYLAYER
100
AcDbMText
 10
221.5267361639562864
 20
-43.4917183112880821
 30
0.0
 40
5.0
 41
0.0
 71
5
 72
1
  1
<\P,
  7
textstyle26
 50
10.0
 73
2
 44
1.0
  0
MTEXT
  5
115
100
AcDbEntity
  8
0
 62
256
370
-1
 48
1.0
  6
BYLAYER
100
AcDbMText
 10
240.287323858838846
 20
-40.1837205267330262
 30
0.0
 40
5.0
 41
0.0
 71
5
 72
1
  1
>\P.
  7
textstyle25
 50
10.0
 73
2
 44
1.0
  0
MTEXT
  5
116
100
AcDbEntity
  8
0
 62
256
370
-1
 48
1.0
  6
BYLAYER
100
AcDbMText
 10
260.7963606791796565
 20
-38.1000000000000227
 30
0.0
 40
5.0
 41
0.0
 71
5
 72
1
  1
?\P/
  7
textstyle28
 50
0.0
 73
2
 44
1.0
  0
MTEXT
  5
117
100
AcDbEntity
  8
0
 62
256
370
-1
 48
1.0
  6
BYLAYER
100
AcDbMText
 10
296.5151106791796565
 20
-38.1000000000000156
 30
0.0
 40
5.0
 41
0.0
 71
5
 72
1
  1
shift
  7
textstyle27
 50
0.0
 73
2
 44
1.0
  0
MTEXT
  5
118
100
AcDbEntity
  8
0
 62
256
370
-1
 48
1.0
  6
BYLAYER
100
AcDbMText
 10
203.7290727917684592
 20
-65.9738035137949907
 30
0.0
 40
5.0
 41
0.0
 71
5
 72
1
  1
space
  7
textstyle3
 50
10.0
 73
2
 44
1.0
  0
MTEXT
  5
119
100
AcDbEntity
  8
0
 62
256
370
-1
 48
1.0
  6
BYLAYER
100
AcDbMText
 10
238.9051747196732833
 20
-59.7713076677543143
 30
0.0
 40
5.0
 41
0.0
 71
5
 72
1
  1
alt
  7
textstyle2
 50
10.0
 73
2
 44
1.0
  0
MTEXT
  5
11A
100
AcDbEntity
  8
0
 62
256
370
-1
 48
1.0
  6
BYLAYER
100
AcDbMText
 10
270.3213606791797474
 20
-57.1499999999998707
 30
0.0
 40
5.0
 41
0.0
 71
5
 72
1
  1
fn
  7
textstyle5
 50
0.0
 73
2
 44
1.0
  0
MTEXT
  5
11B
100
AcDbEntity
  8
0
 62
256
370
-1
 48
1.0
  6
BYLAYER
100
AcDbMText
 10
289.3713606791798156
 20
-57.1499999999999275
 30
0.0
 40
5.0
 41
0.0
 71
5
 72
1
  1
win
  7
textstyle4
 50
0.0
 73
2
 44
1.0
  0
MTEXT
  5
11C
100
AcDbEntity
  8
0
 62
256
370
-1
 48
1.0
  6
BYLAYER
100
AcDbMText
 10
308.4213606791798838
 20
-57.1499999999999275
 30
0.0
 40
5.0
 41
0.0
 71
5
 72
1
  1
ctrl
  7
textstyle1
 50
0.0
 73
2
 44
1.0
  0
MTEXT
  5
11D
100
AcDbEntity
  8
0
 62
256
370
-1
 48
1.0
  6
BYLAYER
100
AcDbMText
 10
144.6856803395897941
 20
-24.2768639670368671
 30
0.0
 40
5.0
 41
0.0
 71
5
 72
1
  1
enc
  7
textstyle0
 50
0.0
 73
2
 44
1.0
  0
CIRCLE
  5
11E
100
AcDbEntity
  8
0
 62
256
370
-1
 48
1.0
  6
BYLAYER
100
AcDbCircle
 10
0.0
 20
0.0
 30
0.0
 40
5.0
  0
CIRCLE
  5
11F
100
AcDbEntity
  8
0
 62
256
370
-1
 48
1.0
  6
BYLAYER
100
AcDbCircle
 10
23.8125
 20
0.0000000000000284
 30
0.0
 40
5.0
  0
CIRCLE
  5
120
100
AcDbEntity
  8
0
 62
256
370
-1
 48
1.0
  6
BYLAYER
100
AcDbCircle
 10
44.3717927397187708
 20
-0.6666128257831296
 30
0.0
 40
5.0000000000000009
  0
CIRCLE
  5
121
100
AcDbEntity
  8
0
 62
256
370
-1
 48
1.0
  6
BYLAYER
100
AcDbCircle
 10
63.1323804346013162
 20
-3.97461061033815
 30
0.0
 40
5.0000000000000009
  0
CIRCLE
  5
122
100
AcDbEntity
  8
0
 62
256
370
-1
 48
1.0
  6
BYLAYER
100
AcDbCircle
 10
81.8929681294838758
 20
-7.2826083948931721
 30
0.0
 40
5.0000000000000009
  0
CIRCLE
  5
123
100
AcDbEntity
  8
0
 62
256
370
-1
 48
1.0
  6
BYLAYER
100
AcDbCircle
 10
100.6535558243664639
 20
-10.5906061794481978
 30
0.0
 40
5.0000000000000009
  0
CIRCLE
  5
124
100
AcDbEntity
  8
0
 62
256
370
-1
 48
1.0
  6
BYLAYER
100
AcDbCircle
 10
44.371792739718785
 20
-20.0089477992121232
 30
0.0
 40
5.0000000000000009
  0
CIRCLE
  5
125
100
AcDbEntity
  8
0
 62
256
370
-1
 48
1.0
  6
BYLAYER
100
AcDbCircle
 10
63.1323804346013517
 20
-23.3169455837671542
 30
0.0
 40
4.9999999999999947
  0
CIRCLE
  5
126
100
AcDbEntity
  8
0
 62
256
370
-1
 48
1.0
  6
BYLAYER
100
AcDbCircle
 10
81.8929681294839185
 20
-26.6249433683221817
 30
0.0
 40
5.0000000000000009
  0
CIRCLE
  5
127
100
AcDbEntity
  8
0
 62
256
370
-1
 48
1.0
  6
BYLAYER
100
AcDbCircle
 10
100.6535558243664781
 20
-29.932941152877202
 30
0.0
 40
5.0000000000000018
  0
CIRCLE
  5
128
100
AcDbEntity
  8
0
 62
256
370
-1
 48
1.0
  6
BYLAYER
100
AcDbCircle
 10
23.8125
 20
-19.0499999999999829
 30
0.0
 40
4.9999999999999991
  0
CIRCLE
  5
129
100
AcDbEntity
  8
0
 62
256
370
-1
 48
1.0
  6
BYLAYER
100
AcDbCircle
 10
28.5750000000000171
 20
-38.0999999999999943
 30
0.0
 40
5.0
  0
CIRCLE
  5
12A
100
AcDbEntity
  8
0
 62
256
370
-1
 48
1.0
  6
BYLAYER
100
AcDbCircle
 10
49.0840368203407493
 20
-40.1837205267329622
 30
0.0
 40
4.9999999999999973
  0
CIRCLE
  5
12B
100
AcDbEntity
  8
0
 62
256
370
-1
 48
1.0
  6
BYLAYER
100
AcDbCircle
 10
67.8446245152233303
 20
-43.4917183112879826
 30
0.0
 40
5.0000000000000018
  0
CIRCLE
  5
12C
100
AcDbEntity
  8
0
 62
256
370
-1
 48
1.0
  6
BYLAYER
100
AcDbCircle
 10
86.6052122101058757
 20
-46.7997160958430101
 30
0.0
 40
5.0000000000000018
  0
CIRCLE
  5
12D
100
AcDbEntity
  8
0
 62
256
370
-1
 48
1.0
  6
BYLAYER
100
AcDbCircle
 10
105.3657999049884495
 20
-50.1077138803980233
 30
0.0
 40
5.0000000000000018
  0
CIRCLE
  5
12E
100
AcDbEntity
  8
0
 62
256
370
-1
 48
1.0
  6
BYLAYER
100
AcDbCircle
 10
57.5014063450873323
 20
-61.0118068369624211
 30
0.0
 40
5.0000000000000018
  0
CIRCLE
  5
12F
100
AcDbEntity
  8
0
 62
256
370
-1
 48
1.0
  6
BYLAYER
100
AcDbCircle
 10
16.6687500000000171
 20
-57.1499999999999773
 30
0.0
 40
5.0
  0
CIRCLE
  5
130
100
AcDbEntity
  8
0
 62
256
370
-1
 48
1.0
  6
BYLAYER
100
AcDbCircle
 10
-7.1437499999999829
 20
-57.1499999999999773
 30
0.0
 40
5.0
  0
CIRCLE
  5
131
100
AcDbEntity
  8
0
 62
256
370
-1
 48
1.0
  6
BYLAYER
100
AcDbCircle
 10
90.3324348111318045
 20
-66.800802959933705
 30
0.0
 40
5.0000000000000018
  0
CIRCLE
  5
132
100
AcDbEntity
  8
0
 62
256
370
-1
 48
1.0
  6
BYLAYER
100
AcDbCircle
 10
122.472388707593467
 20
-62.7960055123943164
 30
0.0
 40
5.0000000000000018
  0
CIRCLE
  5
133
100
AcDbEntity
  8
0
 62
256
370
-1
 48
1.0
  6
BYLAYER
100
AcDbCircle
 10
-2.3812499999999872
 20
-38.0999999999999517
 30
0.0
 40
5.0000000000000009
  0
CIRCLE
  5
134
100
AcDbEntity
  8
0
 62
256
370
-1
 48
1.0
  6
BYLAYER
100
AcDbCircle
 10
-2.381249999999989
 20
-19.0499999999999758
 30
0.0
 40
4.9999999999999991
  0
CIRCLE
  5
135
100
AcDbEntity
  8
0
 62
256
370
-1
 48
1.0
  6
BYLAYER
100
AcDbCircle
 10
166.8989719715861213
 20
-62.7960055123943732
 30
0.0
 40
5.0000000000000018
  0
CIRCLE
  5
136
100
AcDbEntity
  8
0
 62
256
370
-1
 48
1.0
  6
BYLAYER
100
AcDbCircle
 10
203.7290727917684592
 20
-65.9738035137949907
 30
0.0
 40
5.0000000000000018
  0
CIRCLE
  5
137
100
AcDbEntity
  8
0
 62
256
370
-1
 48
1.0
  6
BYLAYER
100
AcDbCircle
 10
184.0055607741911672
 20
-50.1077138803980873
 30
0.0
 40
5.0000000000000009
  0
CIRCLE
  5
138
100
AcDbEntity
  8
0
 62
256
370
-1
 48
1.0
  6
BYLAYER
100
AcDbCircle
 10
202.7661484690737268
 20
-46.7997160958430811
 30
0.0
 40
5.0000000000000018
  0
CIRCLE
  5
139
100
AcDbEntity
  8
0
 62
256
370
-1
 48
1.0
  6
BYLAYER
100
AcDbCircle
 10
188.7178048548131244
 20
-29.9329411528772766
 30
0.0
 40
5.0000000000000018
  0
CIRCLE
  5
13A
100
AcDbEntity
  8
0
 62
256
370
-1
 48
1.0
  6
BYLAYER
100
AcDbCircle
 10
188.7178048548131812
 20
-10.5906061794482582
 30
0.0
 40
5.0000000000000009
  0
CIRCLE
  5
13B
100
AcDbEntity
  8
0
 62
256
370
-1
 48
1.0
  6
BYLAYER
100
AcDbCircle
 10
207.4783925496957409
 20
-7.2826083948932343
 30
0.0
 40
5.0000000000000009
  0
CIRCLE
  5
13C
100
AcDbEntity
  8
0
 62
256
370
-1
 48
1.0
  6
BYLAYER
100
AcDbCircle
 10
207.478392549695684
 20
-26.6249433683222776
 30
0.0
 40
5.0000000000000018
  0
CIRCLE
  5
13D
100
AcDbEntity
  8
0
 62
256
370
-1
 48
1.0
  6
BYLAYER
100
AcDbCircle
 10
226.2389802445783005
 20
-3.9746106103382162
 30
0.0
 40
5.0000000000000009
  0
CIRCLE
  5
13E
100
AcDbEntity
  8
0
 62
256
370
-1
 48
1.0
  6
BYLAYER
100
AcDbCircle
 10
226.238980244578272
 20
-23.3169455837672182
 30
0.0
 40
5.0000000000000009
  0
CIRCLE
  5
13F
100
AcDbEntity
  8
0
 62
256
370
-1
 48
1.0
  6
BYLAYER
100
AcDbCircle
 10
221.5267361639562864
 20
-43.4917183112880821
 30
0.0
 40
5.0000000000000018
  0
CIRCLE
  5
140
100
AcDbEntity
  8
0
 62
256
370
-1
 48
1.0
  6
BYLAYER
100
AcDbCircle
 10
240.287323858838846
 20
-40.1837205267330262
 30
0.0
 40
5.0000000000000018
  0
CIRCLE
  5
141
100
AcDbEntity
  8
0
 62
256
370
-1
 48
1.0
  6
BYLAYER
100
AcDbCircle
 10
260.7963606791796565
 20
-38.1000000000000227
 30
0.0
 40
5.0000000000000018
  0
CIRCLE
  5
142
100
AcDbEntity
  8
0
 62
256
370
-1
 48
1.0
  6
BYLAYER
100
AcDbCircle
 10
244.9995679394608032
 20
-20.0089477992121907
 30
0.0
 40
5.0000000000000009
  0
CIRCLE
  5
143
100
AcDbEntity
  8
0
 62
256
370
-1
 48
1.0
  6
BYLAYER
100
AcDbCircle
 10
244.9995679394608885
 20
-0.6666128257831916
 30
0.0
 40
5.0000000000000009
  0
CIRCLE
  5
144
100
AcDbEntity
  8
0
 62
256
370
-1
 48
1.0
  6
BYLAYER
100
AcDbCircle
 10
265.5588606791796451
 20
-0.0000000000000666
 30
0.0
 40
4.9999999999999876
  0
CIRCLE
  5
145
100
AcDbEntity
  8
0
 62
256
370
-1
 48
1.0
  6
BYLAYER
100
AcDbCircle
 10
294.1338606791796906
 20
-0.0000000000000684
 30
0.0
 40
4.9999999999999876
  0
CIRCLE
  5
146
100
AcDbEntity
  8
0
 62
256
370
-1
 48
1.0
  6
BYLAYER
100
AcDbCircle
 10
296.5151106791797702
 20
-19.0500000000000469
 30
0.0
 40
4.9999999999999876
  0
CIRCLE
  5
147
100
AcDbEntity
  8
0
 62
256
370
-1
 48
1.0
  6
BYLAYER
100
AcDbCircle
 10
296.5151106791796565
 20
-38.1000000000000156
 30
0.0
 40
4.9999999999999876
  0
CIRCLE
  5
148
100
AcDbEntity
  8
0
 62
256
370
-1
 48
1.0
  6
BYLAYER
100
AcDbCircle
 10
270.3213606791797474
 20
-57.1499999999998707
 30
0.0
 40
4.9999999999999876
  0
CIRCLE
  5
149
100
AcDbEntity
  8
0
 62
256
370
-1
 48
1.0
  6
BYLAYER
100
AcDbCircle
 10
289.3713606791798156
 20
-57.1499999999999275
 30
0.0
 40
4.9999999999999876
  0
CIRCLE
  5
14A
100
AcDbEntity
  8
0
 62
256
370
-1
 48
1.0
  6
BYLAYER
100
AcDbCircle
 10
308.4213606791798838
 20
-57.1499999999999275
 30
0.0
 40
4.9999999999999876
  0
CIRCLE
  5
14B
100
AcDbEntity
  8
0
 62
256
370
-1
 48
1.0
  6
BYLAYER
100
AcDbCircle
 10
238.9051747196732833
 20
-59.7713076677543143
 30
0.0
 40
5.0000000000000018
  0
CIRCLE
  5
14C
100
AcDbEntity
  8
0
 62
256
370
-1
 48
1.0
  6
BYLAYER
100
AcDbCircle
 10
265.5588606791795883
 20
-19.050000000000054
 30
0.0
 40
4.9999999999999876
  0
LINE
  5
14D
100
AcDbEntity
  8
0
 62
256
370
-1
 48
1.0
  6
BYLAYER
100
AcDbLine
 10
53.7520865871600222
 20
-2.3206117180606389
 30
0.0
 11
52.1887042792531446
 21
-2.0449452360143869
 31
0.0
  0
LINE
  5
14E
100
AcDbEntity
  8
0
 62
256
370
-1
 48
1.0
  6
BYLAYER
100
AcDbLine
 10
53.7520865871600577
 20
-21.6629466914896369
 30
0.0
 11
52.1887042792531801
 21
-21.3872802094433823
 31
0.0
  0
LINE
  5
14F
100
AcDbEntity
  8
0
 62
256
370
-1
 48
1.0
  6
BYLAYER
100
AcDbLine
 10
55.3154688950669424
 20
-21.9386131735358916
 30
0.0
 11
53.7520865871600648
 21
-21.6629466914896369
 31
0.0
  0
LINE
  5
150
100
AcDbEntity
  8
0
 62
256
370
-1
 48
1.0
  6
BYLAYER
100
AcDbLine
 10
91.2732619769251841
 20
-28.2789422605996918
 30
0.0
 11
89.7098796690183207
 21
-28.0032757785534372
 31
0.0
  0
LINE
  5
151
100
AcDbEntity
  8
0
 62
256
370
-1
 48
1.0
  6
BYLAYER
100
AcDbLine
 10
92.8366442848320901
 20
-28.5546087426459465
 30
0.0
 11
91.2732619769251983
 21
-28.2789422605996918
 31
0.0
  0
LINE
  5
152
100
AcDbEntity
  8
0
 62
256
370
-1
 48
1.0
  6
BYLAYER
100
AcDbLine
 10
91.2732619769251556
 20
-8.9366072871706859
 30
0.0
 11
89.709879669018278
 21
-8.6609408051244348
 31
0.0
  0
LINE
  5
153
100
AcDbEntity
  8
0
 62
256
370
-1
 48
1.0
  6
BYLAYER
100
AcDbLine
 10
55.3154688950668998
 20
-2.5962782001068896
 30
0.0
 11
53.7520865871600222
 21
-2.3206117180606376
 31
0.0
  0
LINE
  5
154
100
AcDbEntity
  8
0
 62
256
370
-1
 48
1.0
  6
BYLAYER
100
AcDbLine
 10
92.8366442848320332
 20
-9.212273769216937
 30
0.0
 11
91.2732619769251556
 21
-8.9366072871706859
 31
0.0
  0
LINE
  5
155
100
AcDbEntity
  8
0
 62
256
370
-1
 48
1.0
  6
BYLAYER
100
AcDbLine
 10
12.699999999999994
 20
0.0
 30
0.0
 11
14.2874999999999943
 21
0.0
 31
0.0
  0
LINE
  5
156
100
AcDbEntity
  8
0
 62
256
370
-1
 48
1.0
  6
BYLAYER
100
AcDbLine
 10
14.2874999999999943
 20
-0.0
 30
0.0
 11
15.8749999999999947
 21
0.0
 31
0.0
  0
LINE
  5
157
100
AcDbEntity
  8
0
 62
256
370
-1
 48
1.0
  6
BYLAYER
100
AcDbLine
 10
12.699999999999994
 20
-19.0499999999999901
 30
0.0
 11
14.2874999999999943
 21
-19.0499999999999901
 31
0.0
  0
LINE
  5
158
100
AcDbEntity
  8
0
 62
256
370
-1
 48
1.0
  6
BYLAYER
100
AcDbLine
 10
14.2874999999999943
 20
-19.0499999999999901
 30
0.0
 11
15.8749999999999947
 21
-19.0499999999999901
 31
0.0
  0
LINE
  5
159
100
AcDbEntity
  8
0
 62
256
370
-1
 48
1.0
  6
BYLAYER
100
AcDbLine
 10
19.0499999999999972
 20
-38.0999999999999659
 30
0.0
 11
20.6374999999999993
 21
-38.1000000000000014
 31
0.0
  0
LINE
  5
15A
100
AcDbEntity
  8
0
 62
256
370
-1
 48
1.0
  6
BYLAYER
100
AcDbLine
 10
17.4624999999999986
 20
-38.099999999999973
 30
0.0
 11
19.0500000000000007
 21
-38.099999999999973
 31
0.0
  0
LINE
  5
15B
100
AcDbEntity
  8
0
 62
256
370
-1
 48
1.0
  6
BYLAYER
100
AcDbLine
 10
60.0277129756889281
 20
-42.1133859010567235
 30
0.0
 11
58.4643306677820505
 21
-41.8377194190104689
 31
0.0
  0
LINE
  5
15C
100
AcDbEntity
  8
0
 62
256
370
-1
 48
1.0
  6
BYLAYER
100
AcDbLine
 10
58.4643306677820433
 20
-41.8377194190104689
 30
0.0
 11
56.9009483598751657
 21
-41.5620529369642142
 31
0.0
  0
LINE
  5
15D
100
AcDbEntity
  8
0
 62
256
370
-1
 48
1.0
  6
BYLAYER
100
AcDbLine
 10
4.7625000000000171
 20
-57.1499999999999488
 30
0.0
 11
6.3500000000000174
 21
-57.1499999999999488
 31
0.0
  0
LINE
  5
15E
100
AcDbEntity
  8
0
 62
256
370
-1
 48
1.0
  6
BYLAYER
100
AcDbLine
 10
3.1750000000000171
 20
-57.1499999999999488
 30
0.0
 11
4.7625000000000171
 21
-57.1499999999999488
 31
0.0
  0
LINE
  5
15F
100
AcDbEntity
  8
0
 62
256
370
-1
 48
1.0
  6
BYLAYER
100
AcDbLine
 10
95.9855060575471555
 20
-48.4537149881205096
 30
0.0
 11
94.4221237496402779
 21
-48.1780485060742549
 31
0.0
  0
LINE
  5
160
100
AcDbEntity
  8
0
 62
256
370
-1
 48
1.0
  6
BYLAYER
100
AcDbLine
 10
97.5488883654540473
 20
-48.7293814701667642
 30
0.0
 11
95.9855060575471697
 21
-48.4537149881205096
 31
0.0
  0
LINE
  5
161
100
AcDbEntity
  8
0
 62
256
370
-1
 48
1.0
  6
BYLAYER
100
AcDbLine
 10
70.7901559622958132
 20
-63.3549719343555608
 30
0.0
 11
69.2267736543889356
 21
-63.0793054523093062
 31
0.0
  0
LINE
  5
162
100
AcDbEntity
  8
0
 62
256
370
-1
 48
1.0
  6
BYLAYER
100
AcDbLine
 10
69.2267736543889214
 20
-63.0793054523093062
 30
0.0
 11
67.6633913464820438
 21
-62.8036389702630444
 31
0.0
  0
ENDSEC
  0
SECTION
  2
OBJECTS
  0
DICTIONARY
  5
C
100
AcDbDictionary
280
0
281
1
  3
ACAD_GROUP
350
D
  3
ACAD_LAYOUT
350
1A
  3
ACAD_MLINESTYLE
350
17
  3
ACAD_PLOTSETTINGS
350
19
  3
ACAD_PLOTSTYLENAME
350
E
  3
AcDbVariableDictionary
350
163
  3
QCAD_OBJECTS
350
164
  0
DICTIONARY
  5
D
100
AcDbDictionary
280
0
281
1
  0
ACDBDICTIONARYWDFLT
  5
E
100
AcDbDictionary
281
1
  3
Normal
350
F
100
AcDbDictionaryWithDefault
340
F
  0
ACDBPLACEHOLDER
  5
F
  0
DICTIONARY
  5
17
100
AcDbDictionary
280
0
281
1
  3
Standard
350
18
  0
MLINESTYLE
  5
18
100
AcDbMlineStyle
  2
STANDARD
 70
0
  3

 62
256
 51
90.0
 52
90.0
 71
2
 49
0.5
 62
256
  6
BYLAYER
 49
-0.5
 62
256
  6
BYLAYER
  0
DICTIONARY
  5
19
100
AcDbDictionary
280
0
281
1
  0
DICTIONARY
  5
1A
100
AcDbDictionary
281
1
  3
Layout1
350
1E
  3
Layout2
350
26
  3
Model
350
22
  0
LAYOUT
  5
1E
100
AcDbPlotSettings
  1

  2
none_device
  4

  6

 40
0.0
 41
0.0
 42
0.0
 43
0.0
 44
0.0
 45
0.0
 46
0.0
 47
0.0
 48
0.0
 49
0.0
140
0.0
141
0.0
142
1.0
143
1.0
 70
688
 72
0
 73
0
 74
5
  7

 75
16
147
1.0
148
0.0
149
0.0
100
AcDbLayout
  1
Layout1
 70
1
 71
1
 10
0.0
 20
0.0
 11
420.0
 21
297.0
 12
0.0
 22
0.0
 32
0.0
 14
100000000000000000000.0
 24
100000000000000000000.0
 34
100000000000000000000.0
 15
-100000000000000000000.0
 25
-100000000000000000000.0
 35
-100000000000000000000.0
146
0.0
 13
0.0
 23
0.0
 33
0.0
 16
1.0
 26
0.0
 36
0.0
 17
0.0
 27
1.0
 37
0.0
 76
0
330
1B
  0
LAYOUT
  5
22
100
AcDbPlotSettings
  1

  2
none_device
  4

  6

 40
0.0
 41
0.0
 42
0.0
 43
0.0
 44
0.0
 45
0.0
 46
0.0
 47
0.0
 48
0.0
 49
0.0
140
0.0
141
0.0
142
1.0
143
1.0
 70
1712
 72
0
 73
0
 74
0
  7

 75
0
147
1.0
148
0.0
149
0.0
100
AcDbLayout
  1
Model
 70
1
 71
0
 10
0.0
 20
0.0
 11
12.0
 21
9.0
 12
0.0
 22
0.0
 32
0.0
 14
0.0
 24
0.0
 34
0.0
 15
0.0
 25
0.0
 35
0.0
146
0.0
 13
0.0
 23
0.0
 33
0.0
 16
1.0
 26
0.0
 36
0.0
 17
0.0
 27
1.0
 37
0.0
 76
0
330
1F
  0
LAYOUT
  5
26
100
AcDbPlotSettings
  1

  2
none_device
  4

  6

 40
0.0
 41
0.0
 42
0.0
 43
0.0
 44
0.0
 45
0.0
 46
0.0
 47
0.0
 48
0.0
 49
0.0
140
0.0
141
0.0
142
1.0
143
1.0
 70
688
 72
0
 73
0
 74
5
  7

 75
16
147
1.0
148
0.0
149
0.0
100
AcDbLayout
  1
Layout2
 70
1
 71
2
 10
0.0
 20
0.0
 11
12.0
 21
9.0
 12
0.0
 22
0.0
 32
0.0
 14
0.0
 24
0.0
 34
0.0
 15
0.0
 25
0.0
 35
0.0
146
0.0
 13
0.0
 23
0.0
 33
0.0
 16
1.0
 26
0.0
 36
0.0
 17
0.0
 27
1.0
 37
0.0
 76
0
330
23
  0
DICTIONARY
  5
163
100
AcDbDictionary
281
1
  3
DIMASSOC
350
166
  3
HIDETEXT
350
165
  0
DICTIONARYVAR
  5
165
100
DictionaryVariables
280
0
  1
2
  0
DICTIONARYVAR
  5
166
100
DictionaryVariables
280
0
  1
1
  0
DICTIONARY
  5
164
100
AcDbDictionary
281
1
  3
ColorSettings/BackgroundColor
350
167
  3
ColorSettings/ColorMode
350
168
  3
Grid/DisplayGrid00
350
169
  3
Grid/DisplayGrid01
350
16A
  3
Grid/DisplayGrid02
350
16B
  3
Grid/DisplayGrid03
350
16C
  3
Grid/GridSpacingX00
350
16D
  3
Grid/GridSpacingX01
350
16E
  3
Grid/GridSpacingX02
350
16F
  3
Grid/GridSpacingX03
350
170
  3
Grid/GridSpacingY00
350
171
  3
Grid/GridSpacingY01
350
172
  3
Grid/GridSpacingY02
350
173
  3
Grid/GridSpacingY03
350
174
  3
Grid/IsometricGrid00
350
175
  3
Grid/IsometricGrid01
350
176
  3
Grid/IsometricGrid02
350
177
  3
Grid/IsometricGrid03
350
178
  3
Grid/IsometricProjection00
350
179
  3
Grid/IsometricProjection01
350
17A
  3
Grid/IsometricProjection02
350
17B
  3
Grid/IsometricProjection03
350
17C
  3
Grid/MetaGridSpacingX00
350
17D
  3
Grid/MetaGridSpacingX01
350
17E
  3
Grid/MetaGridSpacingX02
350
17F
  3
Grid/MetaGridSpacingX03
350
180
  3
Grid/MetaGridSpacingY00
350
181
  3
Grid/MetaGridSpacingY01
350
182
  3
Grid/MetaGridSpacingY02
350
183
  3
Grid/MetaGridSpacingY03
350
184
  3
MultiPageSettings/Columns
350
185
  3
MultiPageSettings/GlueMarginsBottom
350
186
  3
MultiPageSettings/GlueMarginsLeft
350
187
  3
MultiPageSettings/GlueMarginsRight
350
188
  3
MultiPageSettings/GlueMarginsTop
350
189
  3
MultiPageSettings/PrintCropMarks
350
18A
  3
MultiPageSettings/Rows
350
18B
  3
PageSettings/OffsetX
350
18C
  3
PageSettings/OffsetY
350
18D
  3
PageSettings/PageOrientation
350
18E
  3
PageSettings/PaperHeight
350
18F
  3
PageSettings/PaperWidth
350
190
  3
PageSettings/Scale
350
191
  3
PageSettings/ShowPaperBorders
350
192
  3
PageTagSettings/EnablePageTags
350
193
  3
PageTagSettings/TagAlignment
350
194
  3
PageTagSettings/TagFont
350
195
  3
PageTagSettings/TagPosition
350
196
  3
QCADVersion
350
197
  3
UnitSettings/PaperUnit
350
198
  3
ViewportCenter
350
199
  3
ViewportHeight
350
19A
  3
ViewportWidth
350
19B
  0
XRECORD
  5
167
330
164
100
AcDbXrecord
280
1
1000
Wit
  0
XRECORD
  5
168
330
164
100
AcDbXrecord
280
1
1000
FullColor
  0
XRECORD
  5
169
330
164
100
AcDbXrecord
280
1
290
1
  0
XRECORD
  5
16A
330
164
100
AcDbXrecord
280
1
290
1
  0
XRECORD
  5
16B
330
164
100
AcDbXrecord
280
1
290
1
  0
XRECORD
  5
16C
330
164
100
AcDbXrecord
280
1
290
1
  0
XRECORD
  5
16D
330
164
100
AcDbXrecord
280
1
1000
auto
  0
XRECORD
  5
16E
330
164
100
AcDbXrecord
280
1
1000
auto
  0
XRECORD
  5
16F
330
164
100
AcDbXrecord
280
1
1000
auto
  0
XRECORD
  5
170
330
164
100
AcDbXrecord
280
1
1000
auto
  0
XRECORD
  5
171
330
164
100
AcDbXrecord
280
1
1000
auto
  0
XRECORD
  5
172
330
164
100
AcDbXrecord
280
1
1000
auto
  0
XRECORD
  5
173
330
164
100
AcDbXrecord
280
1
1000
auto
  0
XRECORD
  5
174
330
164
100
AcDbXrecord
280
1
1000
auto
  0
XRECORD
  5
175
330
164
100
AcDbXrecord
280
1
290
0
  0
XRECORD
  5
176
330
164
100
AcDbXrecord
280
1
290
0
  0
XRECORD
  5
177
330
164
100
AcDbXrecord
280
1
290
0
  0
XRECORD
  5
178
330
164
100
AcDbXrecord
280
1
290
0
  0
XRECORD
  5
179
330
164
100
AcDbXrecord
280
1
 90
65537
  0
XRECORD
  5
17A
330
164
100
AcDbXrecord
280
1
 90
65537
  0
XRECORD
  5
17B
330
164
100
AcDbXrecord
280
1
 90
65537
  0
XRECORD
  5
17C
330
164
100
AcDbXrecord
280
1
 90
65537
  0
XRECORD
  5
17D
330
164
100
AcDbXrecord
280
1
1000
auto
  0
XRECORD
  5
17E
330
164
100
AcDbXrecord
280
1
1000
auto
  0
XRECORD
  5
17F
330
164
100
AcDbXrecord
280
1
1000
auto
  0
XRECORD
  5
180
330
164
100
AcDbXrecord
280
1
1000
auto
  0
XRECORD
  5
181
330
164
100
AcDbXrecord
280
1
1000
auto
  0
XRECORD
  5
182
330
164
100
AcDbXrecord
280
1
1000
auto
  0
XRECORD
  5
183
330
164
100
AcDbXrecord
280
1
1000
auto
  0
XRECORD
  5
184
330
164
100
AcDbXrecord
280
1
1000
auto
  0
XRECORD
  5
185
330
164
100
AcDbXrecord
280
1
 90
1
  0
XRECORD
  5
186
330
164
100
AcDbXrecord
280
1
 40
10.0
  0
XRECORD
  5
187
330
164
100
AcDbXrecord
280
1
 40
10.0
  0
XRECORD
  5
188
330
164
100
AcDbXrecord
280
1
 40
10.0
  0
XRECORD
  5
189
330
164
100
AcDbXrecord
280
1
 40
10.0
  0
XRECORD
  5
18A
330
164
100
AcDbXrecord
280
1
290
0
  0
XRECORD
  5
18B
330
164
100
AcDbXrecord
280
1
 90
1
  0
XRECORD
  5
18C
330
164
100
AcDbXrecord
280
1
 40
0.0
  0
XRECORD
  5
18D
330
164
100
AcDbXrecord
280
1
 40
0.0
  0
XRECORD
  5
18E
330
164
100
AcDbXrecord
280
1
1000
Portrait
  0
XRECORD
  5
18F
330
164
100
AcDbXrecord
280
1
 40
297.0
  0
XRECORD
  5
190
330
164
100
AcDbXrecord
280
1
 40
210.0
  0
XRECORD
  5
191
330
164
100
AcDbXrecord
280
1
1000
1:1
  0
XRECORD
  5
192
330
164
100
AcDbXrecord
280
1
290
1
  0
XRECORD
  5
193
330
164
100
AcDbXrecord
280
1
290
0
  0
XRECORD
  5
194
330
164
100
AcDbXrecord
280
1
1000
Inside
  0
XRECORD
  5
195
330
164
100
AcDbXrecord
280
1
1000
Arial,10,-1,5,50,0,0,0,0,0
  0
XRECORD
  5
196
330
164
100
AcDbXrecord
280
1
1000
TopLeft
  0
XRECORD
  5
197
330
164
100
AcDbXrecord
280
1
1000
3.27.1
  0
XRECORD
  5
198
330
164
100
AcDbXrecord
280
1
 90
4
  0
XRECORD
  5
19A
330
164
100
AcDbXrecord
280
1
 40
63.8923126497927569
  0
XRECORD
  5
19B
330
164
100
AcDbXrecord
280
1
 40
120.1240674053501465
  0
ENDSEC
  0
EOF
