999
dxflib 3.26.4.0
  0
SECTION
  2
HEADER
  9
$ACADVER
  1
AC1015
  9
$HANDSEED
  5
FFFF
  9
$ANGBASE
 50
0.0
  9
$ANGDIR
 70
1
  9
$DIMADEC
 70
0
  9
$DIMASZ
 40
0.18
  9
$DIMATFIT
 70
0
  9
$DIMAUNIT
 70
0
  9
$DIMAZIN
 70
0
  9
$DIMBLK
  1
0
  9
$DIMBLK1
  1
0
  9
$DIMBLK2
  1
0
  9
$DIMDEC
 70
4
  9
$DIMDLI
 40
0.36
  9
$DIMDSEP
 70
0
  9
$DIMEXE
 40
0.18
  9
$DIMEXO
 40
0.0625
  9
$DIMGAP
 40
0.09
  9
$DIMLFAC
 40
0.0
  9
$DIMLUNIT
 70
2
  9
$DIMSCALE
 40
0.0
  9
$DIMTAD
 70
0
  9
$DIMTIH
 70
0
  9
$DIMTSZ
 40
0.0
  9
$DIMTXT
 40
0.18
  9
$DIMZIN
 70
0
  9
$DWGCODEPAGE
  3
ANSI_1252
  9
$INSUNITS
 70
0
  9
$LTSCALE
 40
1.0
  9
$MAXACTVP
 70
64
  9
$MEASUREMENT
 70
1
  9
$MIRRTEXT
 70
0
  9
$PDMODE
 70
0
  9
$PDSIZE
 40
0.0
  0
ENDSEC
  0
SECTION
  2
TABLES
  0
TABLE
  2
VPORT
  5
8
100
AcDbSymbolTable
 70
1
  0
VPORT
  5
30
100
AcDbSymbolTableRecord
100
AcDbViewportTableRecord
  2
*Active
 70
0
 10
0.0
 20
0.0
 11
1.0
 21
1.0
 12
286.3055555555554861
 22
148.5
 13
0.0
 23
0.0
 14
10.0
 24
10.0
 15
10.0
 25
10.0
 16
0.0
 26
0.0
 36
1.0
 17
0.0
 27
0.0
 37
0.0
 40
297.0
 41
1.92798353909465
 42
50.0
 43
0.0
 44
0.0
 50
0.0
 51
0.0
 71
0
 72
100
 73
1
 74
3
 75
1
 76
1
 77
0
 78
0
281
0
 65
1
110
0.0
120
0.0
130
0.0
111
1.0
121
0.0
131
0.0
112
0.0
122
1.0
132
0.0
 79
0
146
0.0
  0
ENDTAB
  0
TABLE
  2
LTYPE
  5
5
100
AcDbSymbolTable
 70
42
  0
LTYPE
  5
16
100
AcDbSymbolTableRecord
100
AcDbLinetypeTableRecord
  2
CONTINUOUS
 70
0
  3
Solid line
 72
65
 73
0
 40
0.0
  0
LTYPE
  5
31
100
AcDbSymbolTableRecord
100
AcDbLinetypeTableRecord
  2
BORDERX2
 70
0
  3
Border (2x) ____  ____  .  ____  ____  .  ___
 72
65
 73
6
 40
88.8999999999999773
 49
25.3999999999999986
 74
0
 49
-12.6999999999999993
 74
0
 49
25.3999999999999986
 74
0
 49
-12.6499999999999986
 74
0
 49
0.1
 74
0
 49
-12.6499999999999986
 74
0
  0
LTYPE
  5
32
100
AcDbSymbolTableRecord
100
AcDbLinetypeTableRecord
  2
ACAD_ISO11W100
 70
0
  3
ISO double-dash dot __ __ . __ __ . __ __ . __ _
 72
65
 73
6
 40
33.0
 49
12.0
 74
0
 49
-3.0
 74
0
 49
12.0
 74
0
 49
-2.9500000000000002
 74
0
 49
0.1
 74
0
 49
-2.9500000000000002
 74
0
  0
LTYPE
  5
33
100
AcDbSymbolTableRecord
100
AcDbLinetypeTableRecord
  2
DIVIDE
 70
0
  3
Divide ____ . . ____ . . ____ . . ____ . . ____
 72
65
 73
6
 40
31.7500000000000036
 49
12.6999999999999993
 74
0
 49
-6.2999999999999998
 74
0
 49
0.1
 74
0
 49
-6.25
 74
0
 49
0.1
 74
0
 49
-6.2999999999999998
 74
0
  0
LTYPE
  5
34
100
AcDbSymbolTableRecord
100
AcDbLinetypeTableRecord
  2
CENTER2
 70
0
  3
Center (.5x) ___ _ ___ _ ___ _ ___ _ ___ _ ___
 72
65
 73
4
 40
28.5750000000000028
 49
19.0500000000000007
 74
0
 49
-3.1749999999999998
 74
0
 49
3.1749999999999998
 74
0
 49
-3.1749999999999998
 74
0
  0
LTYPE
  5
35
100
AcDbSymbolTableRecord
100
AcDbLinetypeTableRecord
  2
DASHED2
 70
0
  3
Dashed (.5x) _ _ _ _ _ _ _ _ _ _ _ _ _ _ _ _ _ 
 72
65
 73
2
 40
9.5249999999999986
 49
6.3499999999999996
 74
0
 49
-3.1749999999999998
 74
0
  0
LTYPE
  5
36
100
AcDbSymbolTableRecord
100
AcDbLinetypeTableRecord
  2
DIVIDEX2
 70
0
  3
Divide (2x) ________  .  .  ________  .  .  _
 72
65
 73
6
 40
63.5
 49
25.3999999999999986
 74
0
 49
-12.6499999999999986
 74
0
 49
0.1
 74
0
 49
-12.5999999999999979
 74
0
 49
0.1
 74
0
 49
-12.6499999999999986
 74
0
  0
LTYPE
  5
37
100
AcDbSymbolTableRecord
100
AcDbLinetypeTableRecord
  2
BORDER
 70
0
  3
Border __ __ . __ __ . __ __ . __ __ . __ __ .
 72
65
 73
6
 40
44.4499999999999957
 49
12.6999999999999993
 74
0
 49
-6.3499999999999996
 74
0
 49
12.6999999999999993
 74
0
 49
-6.2999999999999998
 74
0
 49
0.1
 74
0
 49
-6.2999999999999998
 74
0
  0
LTYPE
  5
38
100
AcDbSymbolTableRecord
100
AcDbLinetypeTableRecord
  2
ACAD_ISO12W100
 70
0
  3
ISO dash double-dot __ . . __ . . __ . . __ . . 
 72
65
 73
6
 40
21.0
 49
12.0
 74
0
 49
-2.9500000000000002
 74
0
 49
0.1
 74
0
 49
-2.9000000000000004
 74
0
 49
0.1
 74
0
 49
-2.9500000000000002
 74
0
  0
LTYPE
  5
39
100
AcDbSymbolTableRecord
100
AcDbLinetypeTableRecord
  2
ACAD_ISO03W100
 70
0
  3
ISO dash space __    __    __    __    __    __
 72
65
 73
2
 40
30.0
 49
12.0
 74
0
 49
-18.0
 74
0
  0
LTYPE
  5
3A
100
AcDbSymbolTableRecord
100
AcDbLinetypeTableRecord
  2
CENTER
 70
0
  3
Center ____ _ ____ _ ____ _ ____ _ ____ _ ____
 72
65
 73
4
 40
50.8000000000000043
 49
31.75
 74
0
 49
-6.3499999999999996
 74
0
 49
6.3499999999999996
 74
0
 49
-6.3499999999999996
 74
0
  0
LTYPE
  5
14
100
AcDbSymbolTableRecord
100
AcDbLinetypeTableRecord
  2
BYBLOCK
 70
0
  3

 72
65
 73
0
 40
0.0
  0
LTYPE
  5
3B
100
AcDbSymbolTableRecord
100
AcDbLinetypeTableRecord
  2
DASHDOT
 70
0
  3
Dash Dot ____ _ ____ _
 72
65
 73
4
 40
2.0
 49
1.25
 74
0
 49
-0.25
 74
0
 49
0.25
 74
0
 49
-0.25
 74
0
  0
LTYPE
  5
3C
100
AcDbSymbolTableRecord
100
AcDbLinetypeTableRecord
  2
PHANTOMX2
 70
0
  3
Phantom (2x) ____________    ____    ____   _
 72
65
 73
6
 40
127.0000000000000142
 49
63.5
 74
0
 49
-12.6999999999999993
 74
0
 49
12.6999999999999993
 74
0
 49
-12.6999999999999993
 74
0
 49
12.6999999999999993
 74
0
 49
-12.6999999999999993
 74
0
  0
LTYPE
  5
3D
100
AcDbSymbolTableRecord
100
AcDbLinetypeTableRecord
  2
ACAD_ISO13W100
 70
0
  3
ISO double-dash double-dot __ __ . . __ __ . . _
 72
65
 73
8
 40
36.0000000000000071
 49
12.0
 74
0
 49
-3.0
 74
0
 49
12.0
 74
0
 49
-2.9500000000000002
 74
0
 49
0.1
 74
0
 49
-2.9000000000000004
 74
0
 49
0.1
 74
0
 49
-2.9500000000000002
 74
0
  0
LTYPE
  5
3E
100
AcDbSymbolTableRecord
100
AcDbLinetypeTableRecord
  2
ACAD_ISO10W100
 70
0
  3
ISO dash dot __ . __ . __ . __ . __ . __ . __ . 
 72
65
 73
4
 40
18.0
 49
12.0
 74
0
 49
-2.9500000000000002
 74
0
 49
0.1
 74
0
 49
-2.9500000000000002
 74
0
  0
LTYPE
  5
3F
100
AcDbSymbolTableRecord
100
AcDbLinetypeTableRecord
  2
DOTX2
 70
0
  3
Dot (2x) .  .  .  .  .  .  .  .  .  .  .  .  .  .
 72
65
 73
2
 40
12.6999999999999993
 49
0.1
 74
0
 49
-12.5999999999999996
 74
0
  0
LTYPE
  5
40
100
AcDbSymbolTableRecord
100
AcDbLinetypeTableRecord
  2
DOT2
 70
0
  3
Dot (.5x) ........................................
 72
65
 73
2
 40
3.1749999999999998
 49
0.1
 74
0
 49
-3.0749999999999997
 74
0
  0
LTYPE
  5
41
100
AcDbSymbolTableRecord
100
AcDbLinetypeTableRecord
  2
HIDDEN
 70
0
  3
Hidden __ __ __ __ __ __ __ __ __ __ __ __ __ __
 72
65
 73
2
 40
9.5249999999999986
 49
6.3499999999999996
 74
0
 49
-3.1749999999999998
 74
0
  0
LTYPE
  5
42
100
AcDbSymbolTableRecord
100
AcDbLinetypeTableRecord
  2
ACAD_ISO04W100
 70
0
  3
ISO long-dash dot ____ . ____ . ____ . ____ . _
 72
65
 73
4
 40
30.0
 49
24.0
 74
0
 49
-2.9500000000000002
 74
0
 49
0.1
 74
0
 49
-2.9500000000000002
 74
0
  0
LTYPE
  5
43
100
AcDbSymbolTableRecord
100
AcDbLinetypeTableRecord
  2
DOTTED
 70
0
  3
Dotted .  .  .  .
 72
65
 73
2
 40
0.2
 49
0.1
 74
0
 49
-0.1
 74
0
  0
LTYPE
  5
44
100
AcDbSymbolTableRecord
100
AcDbLinetypeTableRecord
  2
DOT
 70
0
  3
Dot . . . . . . . . . . . . . . . . . . . . . . . .
 72
65
 73
2
 40
6.3499999999999996
 49
0.1
 74
0
 49
-6.25
 74
0
  0
LTYPE
  5
45
100
AcDbSymbolTableRecord
100
AcDbLinetypeTableRecord
  2
ACAD_ISO06W100
 70
0
  3
ISO long-dash triple-dot ____ ... ____ ... ____
 72
65
 73
8
 40
36.0000000000000071
 49
24.0
 74
0
 49
-2.9500000000000002
 74
0
 49
0.1
 74
0
 49
-2.9000000000000004
 74
0
 49
0.1
 74
0
 49
-2.9000000000000004
 74
0
 49
0.1
 74
0
 49
-2.9500000000000002
 74
0
  0
LTYPE
  5
46
100
AcDbSymbolTableRecord
100
AcDbLinetypeTableRecord
  2
PHANTOM
 70
0
  3
Phantom ______  __  __  ______  __  __  ______ 
 72
65
 73
6
 40
63.5000000000000071
 49
31.75
 74
0
 49
-6.3499999999999996
 74
0
 49
6.3499999999999996
 74
0
 49
-6.3499999999999996
 74
0
 49
6.3499999999999996
 74
0
 49
-6.3499999999999996
 74
0
  0
LTYPE
  5
47
100
AcDbSymbolTableRecord
100
AcDbLinetypeTableRecord
  2
DASHED
 70
0
  3
Dashed __ __ __ __ __
 72
65
 73
2
 40
0.75
 49
0.5
 74
0
 49
-0.25
 74
0
  0
LTYPE
  5
48
100
AcDbSymbolTableRecord
100
AcDbLinetypeTableRecord
  2
HIDDEN2
 70
0
  3
Hidden (.5x) _ _ _ _ _ _ _ _ _ _ _ _ _ _ _ _ _ 
 72
65
 73
2
 40
4.7624999999999993
 49
3.1749999999999998
 74
0
 49
-1.5874999999999999
 74
0
  0
LTYPE
  5
49
100
AcDbSymbolTableRecord
100
AcDbLinetypeTableRecord
  2
ACAD_ISO15W100
 70
0
  3
ISO double-dash triple-dot __ __ . . . __ __ . .
 72
65
 73
10
 40
39.0000000000000071
 49
12.0
 74
0
 49
-3.0
 74
0
 49
12.0
 74
0
 49
-2.9500000000000002
 74
0
 49
0.1
 74
0
 49
-2.9000000000000004
 74
0
 49
0.1
 74
0
 49
-2.9000000000000004
 74
0
 49
0.1
 74
0
 49
-2.9500000000000002
 74
0
  0
LTYPE
  5
4A
100
AcDbSymbolTableRecord
100
AcDbLinetypeTableRecord
  2
ACAD_ISO08W100
 70
0
  3
ISO long-dash short-dash ____ __ ____ __ ____ _
 72
65
 73
4
 40
36.0
 49
24.0
 74
0
 49
-3.0
 74
0
 49
6.0
 74
0
 49
-3.0
 74
0
  0
LTYPE
  5
4B
100
AcDbSymbolTableRecord
100
AcDbLinetypeTableRecord
  2
HIDDENX2
 70
0
  3
Hidden (2x) ____ ____ ____ ____ ____ ____ ____ 
 72
65
 73
2
 40
19.0499999999999972
 49
12.6999999999999993
 74
0
 49
-6.3499999999999996
 74
0
  0
LTYPE
  5
4C
100
AcDbSymbolTableRecord
100
AcDbLinetypeTableRecord
  2
ACAD_ISO05W100
 70
0
  3
ISO long-dash double-dot ____ .. ____ .. ____ . 
 72
65
 73
6
 40
33.0000000000000071
 49
24.0
 74
0
 49
-2.9500000000000002
 74
0
 49
0.1
 74
0
 49
-2.9000000000000004
 74
0
 49
0.1
 74
0
 49
-2.9500000000000002
 74
0
  0
LTYPE
  5
4D
100
AcDbSymbolTableRecord
100
AcDbLinetypeTableRecord
  2
ACAD_ISO02W100
 70
0
  3
ISO dash __ __ __ __ __ __ __ __ __ __ __ __ __
 72
65
 73
2
 40
15.0
 49
12.0
 74
0
 49
-3.0
 74
0
  0
LTYPE
  5
4E
100
AcDbSymbolTableRecord
100
AcDbLinetypeTableRecord
  2
DASHDOTX2
 70
0
  3
Dash dot (2x) ____  .  ____  .  ____  .  ___
 72
65
 73
4
 40
50.7999999999999972
 49
25.3999999999999986
 74
0
 49
-12.6499999999999986
 74
0
 49
0.1
 74
0
 49
-12.6499999999999986
 74
0
  0
LTYPE
  5
4F
100
AcDbSymbolTableRecord
100
AcDbLinetypeTableRecord
  2
DASHDOT2
 70
0
  3
Dash dot (.5x) _._._._._._._._._._._._._._._.
 72
65
 73
4
 40
12.6999999999999993
 49
6.3499999999999996
 74
0
 49
-3.125
 74
0
 49
0.1
 74
0
 49
-3.125
 74
0
  0
LTYPE
  5
50
100
AcDbSymbolTableRecord
100
AcDbLinetypeTableRecord
  2
ACAD_ISO09W100
 70
0
  3
ISO long-dash double-short-dash ____ __ __ ____
 72
65
 73
6
 40
45.0
 49
24.0
 74
0
 49
-3.0
 74
0
 49
6.0
 74
0
 49
-3.0
 74
0
 49
6.0
 74
0
 49
-3.0
 74
0
  0
LTYPE
  5
51
100
AcDbSymbolTableRecord
100
AcDbLinetypeTableRecord
  2
BORDER2
 70
0
  3
Border (.5x) __.__.__.__.__.__.__.__.__.__.__.
 72
65
 73
6
 40
22.2250000000000014
 49
6.3499999999999996
 74
0
 49
-3.1749999999999998
 74
0
 49
6.3499999999999996
 74
0
 49
-3.125
 74
0
 49
0.1
 74
0
 49
-3.125
 74
0
  0
LTYPE
  5
52
100
AcDbSymbolTableRecord
100
AcDbLinetypeTableRecord
  2
PHANTOM2
 70
0
  3
Phantom (.5x) ___ _ _ ___ _ _ ___ _ _ ___ _ _
 72
65
 73
6
 40
31.7500000000000036
 49
15.875
 74
0
 49
-3.1749999999999998
 74
0
 49
3.1749999999999998
 74
0
 49
-3.1749999999999998
 74
0
 49
3.1749999999999998
 74
0
 49
-3.1749999999999998
 74
0
  0
LTYPE
  5
53
100
AcDbSymbolTableRecord
100
AcDbLinetypeTableRecord
  2
DASHEDX2
 70
0
  3
Dashed (2x) ____  ____  ____  ____  ____  ___
 72
65
 73
2
 40
38.0999999999999943
 49
25.3999999999999986
 74
0
 49
-12.6999999999999993
 74
0
  0
LTYPE
  5
15
100
AcDbSymbolTableRecord
100
AcDbLinetypeTableRecord
  2
BYLAYER
 70
0
  3

 72
65
 73
0
 40
0.0
  0
LTYPE
  5
54
100
AcDbSymbolTableRecord
100
AcDbLinetypeTableRecord
  2
ACAD_ISO14W100
 70
0
  3
ISO dash triple-dot __ . . . __ . . . __ . . . _
 72
65
 73
8
 40
24.0000000000000036
 49
12.0
 74
0
 49
-2.9500000000000002
 74
0
 49
0.1
 74
0
 49
-2.9000000000000004
 74
0
 49
0.1
 74
0
 49
-2.9000000000000004
 74
0
 49
0.1
 74
0
 49
-2.9500000000000002
 74
0
  0
LTYPE
  5
55
100
AcDbSymbolTableRecord
100
AcDbLinetypeTableRecord
  2
CENTERX2
 70
0
  3
Center (2x) ________  __  ________  __  _____
 72
65
 73
4
 40
101.6000000000000085
 49
63.5
 74
0
 49
-12.6999999999999993
 74
0
 49
12.6999999999999993
 74
0
 49
-12.6999999999999993
 74
0
  0
LTYPE
  5
56
100
AcDbSymbolTableRecord
100
AcDbLinetypeTableRecord
  2
ACAD_ISO07W100
 70
0
  3
ISO dot . . . . . . . . . . . . . . . . . . . . 
 72
65
 73
2
 40
3.0
 49
0.1
 74
0
 49
-2.8999999999999999
 74
0
  0
LTYPE
  5
57
100
AcDbSymbolTableRecord
100
AcDbLinetypeTableRecord
  2
DIVIDE2
 70
0
  3
Divide (.5x) __..__..__..__..__..__..__..__.._
 72
65
 73
6
 40
15.8749999999999982
 49
6.3499999999999996
 74
0
 49
-3.125
 74
0
 49
0.1
 74
0
 49
-3.0750000000000002
 74
0
 49
0.1
 74
0
 49
-3.125
 74
0
  0
ENDTAB
  0
TABLE
  2
LAYER
  5
2
100
AcDbSymbolTable
 70
8
  0
LAYER
  5
58
100
AcDbSymbolTableRecord
100
AcDbLayerTableRecord
  2
Edge cuts
 70
0
 62
7
420
16777215
  6
CONTINUOUS
370
5
390
F
  0
LAYER
  5
59
100
AcDbSymbolTableRecord
100
AcDbLayerTableRecord
  2
pcb cutout
 70
1
 62
7
420
16777215
  6
CONTINUOUS
370
5
390
F
  0
LAYER
  5
5A
100
AcDbSymbolTableRecord
100
AcDbLayerTableRecord
  2
keycap outlines
 70
1
 62
7
420
16777215
  6
CONTINUOUS
370
5
390
F
  0
LAYER
  5
5B
100
AcDbSymbolTableRecord
100
AcDbLayerTableRecord
  2
plate
 70
0
 62
7
420
16777215
  6
CONTINUOUS
370
5
390
F
  0
LAYER
  5
10
100
AcDbSymbolTableRecord
100
AcDbLayerTableRecord
  2
0
 70
1
 62
7
420
16777215
  6
CONTINUOUS
370
25
390
F
  0
LAYER
  5
5C
100
AcDbSymbolTableRecord
100
AcDbLayerTableRecord
  2
top outline
 70
0
 62
7
420
16777215
  6
CONTINUOUS
370
5
390
F
  0
LAYER
  5
5D
100
AcDbSymbolTableRecord
100
AcDbLayerTableRecord
  2
plate cutout
 70
1
 62
7
420
16777215
  6
CONTINUOUS
370
5
390
F
  0
LAYER
  5
5E
100
AcDbSymbolTableRecord
100
AcDbLayerTableRecord
  2
helplines
 70
0
 62
4
420
65535
  6
CONTINUOUS
370
-3
390
F
  0
ENDTAB
  0
TABLE
  2
STYLE
  5
3
100
AcDbSymbolTable
 70
1
  0
STYLE
  5
5F
100
AcDbSymbolTableRecord
100
AcDbTextStyleTableRecord
  2
Standard
 70
0
 40
0.0
 41
1.0
 50
0.0
 71
0
 42
2.5
  3

  4

1001
ACAD
1000
txt
1071
0
  0
ENDTAB
  0
TABLE
  2
VIEW
  5
6
100
AcDbSymbolTable
 70
0
  0
ENDTAB
  0
TABLE
  2
UCS
  5
7
100
AcDbSymbolTable
 70
0
  0
ENDTAB
  0
TABLE
  2
APPID
  5
9
100
AcDbSymbolTable
 70
1
  0
APPID
  5
12
100
AcDbSymbolTableRecord
100
AcDbRegAppTableRecord
  2
ACAD
 70
0
  0
APPID
  5
60
100
AcDbSymbolTableRecord
100
AcDbRegAppTableRecord
  2
QCAD
 70
0
  0
ENDTAB
  0
TABLE
  2
DIMSTYLE
  5
A
100
AcDbSymbolTable
 70
1
100
AcDbDimStyleTable
 71
0
  0
DIMSTYLE
105
27
100
AcDbSymbolTableRecord
100
AcDbDimStyleTableRecord
  2
Standard
 41
0.18
 42
0.0625
 43
3.75
 44
0.18
 70
0
 73
0
 74
0
 77
0
 78
8
140
0.18
141
2.5
143
0.03937007874016
147
0.09
171
3
172
1
271
2
272
2
274
3
278
44
283
0
284
8
340
5F
  0
ENDTAB
  0
TABLE
  2
BLOCK_RECORD
  5
1
100
AcDbSymbolTable
 70
1
  0
BLOCK_RECORD
  5
1F
100
AcDbSymbolTableRecord
100
AcDbBlockTableRecord
  2
*Model_Space
340
22
  0
BLOCK_RECORD
  5
1B
100
AcDbSymbolTableRecord
100
AcDbBlockTableRecord
  2
*Paper_Space
340
1E
  0
BLOCK_RECORD
  5
23
100
AcDbSymbolTableRecord
100
AcDbBlockTableRecord
  2
*Paper_Space0
340
26
  0
ENDTAB
  0
ENDSEC
  0
SECTION
  2
BLOCKS
  0
BLOCK
  5
20
100
AcDbEntity
  8
0
100
AcDbBlockBegin
  2
*Model_Space
 70
0
 10
0.0
 20
0.0
 30
0.0
  3
*Model_Space
  1

  0
ENDBLK
  5
21
100
AcDbEntity
  8
0
100
AcDbBlockEnd
  0
BLOCK
  5
1C
100
AcDbEntity
 67
1
  8
0
100
AcDbBlockBegin
  2
*Paper_Space
 70
0
 10
0.0
 20
0.0
 30
0.0
  3
*Paper_Space
  1

  0
ENDBLK
  5
1D
100
AcDbEntity
 67
1
  8
0
100
AcDbBlockEnd
  0
BLOCK
  5
24
100
AcDbEntity
  8
0
100
AcDbBlockBegin
  2
*Paper_Space0
 70
0
 10
0.0
 20
0.0
 30
0.0
  3
*Paper_Space0
  1

  0
ENDBLK
  5
25
100
AcDbEntity
  8
0
100
AcDbBlockEnd
  0
ENDSEC
  0
SECTION
  2
ENTITIES
  0
ARC
  5
61
100
AcDbEntity
  8
Edge cuts
 62
256
370
-1
 48
1.0
  6
BYLAYER
100
AcDbCircle
 10
-22.8125
 20
-46.625
 30
0.0
 40
0.999999
100
AcDbArc
 50
-180.0
 51
-89.9998999999999967
  0
LINE
  5
62
100
AcDbEntity
  8
plate
 62
256
370
-1
 48
1.0
  6
BYLAYER
100
AcDbLine
 10
12.5567500000000507
 20
-31.0999999999999446
 30
0.0
 11
-17.3192499999999825
 21
-31.0999999999999446
 31
0.0
  0
LINE
  5
63
100
AcDbEntity
  8
keycap outlines
 62
256
370
-1
 48
1.0
  6
BYLAYER
100
AcDbLine
 10
33.3374999999999986
 20
-28.5749999999999673
 30
0.0
 11
33.3374999999999986
 21
-9.525000000000011
 31
0.0
  0
LINE
  5
64
100
AcDbEntity
  8
plate
 62
256
370
-1
 48
1.0
  6
BYLAYER
100
AcDbLine
 10
74.4560952723449532
 20
-70.815485271133781
 30
0.0
 11
103.8782117013377615
 21
-76.0033982271110062
 31
0.0
  0
LINE
  5
65
100
AcDbEntity
  8
Edge cuts
 62
256
370
-1
 48
1.0
  6
CONTINUOUS
100
AcDbLine
 10
-19.0500000000000007
 20
-27.5749999999999993
 30
0.0
 11
-19.0500000000000007
 21
-10.5250000000000004
 31
0.0
  0
LINE
  5
66
100
AcDbEntity
  8
keycap outlines
 62
256
370
-1
 48
1.0
  6
BYLAYER
100
AcDbLine
 10
33.3374999999999986
 20
-9.525000000000011
 30
0.0
 11
33.3374999999999986
 21
9.5250000000000004
 31
0.0
  0
LINE
  5
67
100
AcDbEntity
  8
plate
 62
256
370
-1
 48
1.0
  6
BYLAYER
100
AcDbLine
 10
126.6335868509444822
 20
-79.5080715161867033
 30
0.0
 11
132.1990109451695048
 21
-47.9449830321454513
 31
0.0
  0
LINE
  5
68
100
AcDbEntity
  8
Edge cuts
 62
256
370
-1
 48
1.0
  6
CONTINUOUS
100
AcDbLine
 10
-20.0500000000000007
 20
-47.625
 30
0.0
 11
-22.8125
 21
-47.625
 31
0.0
  0
LINE
  5
69
100
AcDbEntity
  8
keycap outlines
 62
256
370
-1
 48
1.0
  6
BYLAYER
100
AcDbLine
 10
14.287499999999989
 20
-9.525000000000011
 30
0.0
 11
14.287499999999989
 21
9.5250000000000004
 31
0.0
  0
LINE
  5
6A
100
AcDbEntity
  8
plate
 62
256
370
-1
 48
1.0
  6
BYLAYER
100
AcDbLine
 10
-10.3192499999999825
 20
-45.0999999999999446
 30
0.0
 11
5.5567500000000507
 21
-45.0999999999999446
 31
0.0
  0
LINE
  5
6B
100
AcDbEntity
  8
Edge cuts
 62
256
370
-1
 48
1.0
  6
CONTINUOUS
100
AcDbLine
 10
78.8178529056112893
 20
12.2845801840047013
 30
0.0
 11
82.7570839176601396
 21
11.5899874733369774
 31
0.0
  0
LINE
  5
6C
100
AcDbEntity
  8
plate
 62
256
370
-1
 48
1.0
  6
BYLAYER
100
AcDbLine
 10
99.4156319175893373
 20
-61.0005524412716014
 30
0.0
 11
83.7808240307674055
 21
-58.2437139726314186
 31
0.0
  0
LINE
  5
6D
100
AcDbEntity
  8
keycap outlines
 62
256
370
-1
 48
1.0
  6
BYLAYER
100
AcDbLine
 10
19.0499999999999758
 20
-47.6249999999999716
 30
0.0
 11
19.0500000000000043
 21
-28.5749999999999673
 31
0.0
  0
LINE
  5
6E
100
AcDbEntity
  8
plate
 62
256
370
-1
 48
1.0
  6
BYLAYER
100
AcDbLine
 10
117.0074095902062368
 20
-53.4780488434181578
 30
0.0
 11
114.2505711215659971
 21
-69.1128567302399688
 31
0.0
  0
LINE
  5
6F
100
AcDbEntity
  8
Edge cuts
 62
256
370
-1
 48
1.0
  6
CONTINUOUS
100
AcDbLine
 10
68.6743330495015272
 20
14.0731564134975642
 30
0.0
 11
72.6135640615503632
 21
13.3785637028298385
 31
0.0
  0
LINE
  5
70
100
AcDbEntity
  8
keycap outlines
 62
256
370
-1
 48
1.0
  6
BYLAYER
100
AcDbLine
 10
-19.0499999999999616
 20
-28.5749999999999531
 30
0.0
 11
-19.0499999999999616
 21
-9.5249999999999968
 31
0.0
  0
ARC
  5
71
100
AcDbEntity
  8
Edge cuts
 62
256
370
-1
 48
1.0
  6
BYLAYER
100
AcDbCircle
 10
-18.0500000000000007
 20
-65.6749999999999972
 30
0.0
 40
0.999999
100
AcDbArc
 50
-180.0
 51
-89.9998999999999967
  0
LINE
  5
72
100
AcDbEntity
  8
keycap outlines
 62
256
370
-1
 48
1.0
  6
BYLAYER
100
AcDbLine
 10
-19.0499999999999901
 20
-66.6749999999999545
 30
0.0
 11
-19.0499999999999901
 21
-47.6249999999999432
 31
0.0
  0
LINE
  5
73
100
AcDbEntity
  8
keycap outlines
 62
256
370
-1
 48
1.0
  6
BYLAYER
100
AcDbLine
 10
-19.0499999999999901
 20
-28.5750000000000099
 30
0.0
 11
-19.0499999999999901
 21
-9.5249999999999968
 31
0.0
  0
LINE
  5
74
100
AcDbEntity
  8
Edge cuts
 62
256
370
-1
 48
1.0
  6
CONTINUOUS
100
AcDbLine
 10
43.1861366346477524
 20
9.5098077530122058
 30
0.0
 11
65.1557757986880972
 21
5.635967611962533
 31
0.0
  0
ARC
  5
75
100
AcDbEntity
  8
Edge cuts
 62
256
370
-1
 48
1.0
  6
BYLAYER
100
AcDbCircle
 10
22.2075000000000031
 20
10.5250000000000004
 30
0.0
 40
1.0
100
AcDbArc
 50
-180.0
 51
-90.0
  0
LINE
  5
76
100
AcDbEntity
  8
keycap outlines
 62
256
370
-1
 48
1.0
  6
BYLAYER
100
AcDbLine
 10
28.5750000000000099
 20
-66.6749999999999545
 30
0.0
 11
28.5750000000000099
 21
-47.6249999999999432
 31
0.0
  0
LINE
  5
77
100
AcDbEntity
  8
Edge cuts
 62
256
370
-1
 48
1.0
  6
CONTINUOUS
100
AcDbLine
 10
-22.8125
 20
-28.5749999999999993
 30
0.0
 11
-20.0500000000000007
 21
-28.5749999999999993
 31
0.0
  0
LINE
  5
78
100
AcDbEntity
  8
plate
 62
256
370
-1
 48
1.0
  6
BYLAYER
100
AcDbLine
 10
-17.3192499999999825
 20
-47.0999999999999446
 30
0.0
 11
-11.3192499999999825
 21
-47.0999999999999446
 31
0.0
  0
LINE
  5
79
100
AcDbEntity
  8
Edge cuts
 62
256
370
-1
 48
1.0
  6
CONTINUOUS
100
AcDbLine
 10
83.1776641143818978
 20
2.4582224585910883
 30
0.0
 11
110.7030408110731514
 21
-2.3952441071996202
 31
0.0
  0
LINE
  5
7A
100
AcDbEntity
  8
keycap outlines
 62
256
370
-1
 48
1.0
  6
BYLAYER
100
AcDbLine
 10
4.7625000000000117
 20
-66.6749999999999545
 30
0.0
 11
4.7625000000000117
 21
-47.6249999999999432
 31
0.0
  0
LINE
  5
7B
100
AcDbEntity
  8
plate
 62
256
370
-1
 48
1.0
  6
BYLAYER
100
AcDbLine
 10
106.656582544008586
 20
-60.2464741789156975
 30
0.0
 11
100.7477360259353532
 21
-59.2045851129141241
 31
0.0
  0
LINE
  5
7C
100
AcDbEntity
  8
plate
 62
256
370
-1
 48
1.0
  6
BYLAYER
100
AcDbLine
 10
116.253331327850276
 20
-46.2370982169988238
 30
0.0
 11
115.2114422618487311
 21
-52.1459447350720851
 31
0.0
  0
LINE
  5
7D
100
AcDbEntity
  8
keycap outlines
 62
256
370
-1
 48
1.0
  6
BYLAYER
100
AcDbLine
 10
-14.2874999999999996
 20
-9.5250000000000004
 30
0.0
 11
-14.2874999999999996
 21
9.5250000000000004
 31
0.0
  0
LINE
  5
7E
100
AcDbEntity
  8
Edge cuts
 62
256
370
-1
 48
1.0
  6
CONTINUOUS
100
AcDbLine
 10
-23.8125
 20
-46.625
 30
0.0
 11
-23.8125
 21
-29.5749999999999993
 31
0.0
  0
ARC
  5
7F
100
AcDbEntity
  8
Edge cuts
 62
256
370
-1
 48
1.0
  6
BYLAYER
100
AcDbCircle
 10
-18.0500000000000007
 20
-10.5250000000000004
 30
0.0
 40
0.999999
100
AcDbArc
 50
-270.0
 51
-180.0
  0
LINE
  5
80
100
AcDbEntity
  8
plate
 62
256
370
-1
 48
1.0
  6
BYLAYER
100
AcDbLine
 10
-17.8192499999999825
 20
-31.5999999999999446
 30
0.0
 11
-17.8192499999999825
 21
-46.5999999999999446
 31
0.0
  0
LINE
  5
81
100
AcDbEntity
  8
keycap outlines
 62
256
370
-1
 48
1.0
  6
BYLAYER
100
AcDbLine
 10
-23.8124999999999503
 20
-28.5749999999999389
 30
0.0
 11
-23.8124999999999787
 21
-47.6249999999999574
 31
0.0
  0
LINE
  5
82
100
AcDbEntity
  8
plate
 62
256
370
-1
 48
1.0
  6
BYLAYER
100
AcDbLine
 10
104.4574396666773168
 20
-75.5978184394383845
 30
0.0
 11
107.0621623316812361
 21
-60.8257021442552812
 31
0.0
  0
LINE
  5
83
100
AcDbEntity
  8
Edge cuts
 62
256
370
-1
 48
1.0
  6
CONTINUOUS
100
AcDbLine
 10
-18.0500000000000007
 20
-9.5250000000000004
 30
0.0
 11
-15.2874999999999996
 21
-9.5250000000000004
 31
0.0
  0
LINE
  5
84
100
AcDbEntity
  8
keycap outlines
 62
256
370
-1
 48
1.0
  6
BYLAYER
100
AcDbLine
 10
14.287499999999989
 20
-9.525000000000011
 30
0.0
 11
14.287499999999989
 21
-28.5749999999999673
 31
0.0
  0
LINE
  5
85
100
AcDbEntity
  8
plate
 62
256
370
-1
 48
1.0
  6
BYLAYER
100
AcDbLine
 10
117.8173670462020368
 20
-46.0051666069931073
 30
0.0
 11
116.8325592931898314
 21
-45.8315184293262021
 31
0.0
  0
LINE
  5
86
100
AcDbEntity
  8
Edge cuts
 62
256
370
-1
 48
1.0
  6
CONTINUOUS
100
AcDbLine
 10
-14.2874999999999996
 20
-8.5250000000000004
 30
0.0
 11
-14.2874999999999996
 21
8.5250000000000004
 31
0.0
  0
LINE
  5
87
100
AcDbEntity
  8
Edge cuts
 62
256
370
-1
 48
1.0
  6
CONTINUOUS
100
AcDbLine
 10
36.3458466250152057
 20
-66.6749989999984791
 30
0.0
 11
-18.0499982546724951
 21
-66.6749989999984791
 31
0.0
  0
LINE
  5
88
100
AcDbEntity
  8
keycap outlines
 62
256
370
-1
 48
1.0
  6
BYLAYER
100
AcDbLine
 10
33.3374999999999986
 20
-28.5749999999999531
 30
0.0
 11
33.3374999999999986
 21
-27.7352427543758964
 31
0.0
  0
ARC
  5
89
100
AcDbEntity
  8
Edge cuts
 62
256
370
-1
 48
1.0
  6
BYLAYER
100
AcDbCircle
 10
-20.0500000000000007
 20
-27.5749999999999993
 30
0.0
 40
0.999999
100
AcDbArc
 50
-90.0001000000000033
 51
0.0000572958
  0
LINE
  5
8A
100
AcDbEntity
  8
plate
 62
256
370
-1
 48
1.0
  6
BYLAYER
100
AcDbLine
 10
-10.8192499999999825
 20
-45.5999999999999446
 30
0.0
 11
-10.8192499999999825
 21
-46.5999999999999446
 31
0.0
  0
LINE
  5
8B
100
AcDbEntity
  8
keycap outlines
 62
256
370
-1
 48
1.0
  6
BYLAYER
100
AcDbLine
 10
33.3374999999999986
 20
9.5250000000000004
 30
0.0
 11
-14.2874999999999996
 21
9.5250000000000004
 31
0.0
  0
ARC
  5
8C
100
AcDbEntity
  8
Edge cuts
 62
256
370
-1
 48
1.0
  6
BYLAYER
100
AcDbCircle
 10
-20.0500000000000007
 20
-48.625
 30
0.0
 40
0.999999
100
AcDbArc
 50
-0.0000572958
 51
90.0001000000000033
  0
LINE
  5
8D
100
AcDbEntity
  8
plate
 62
256
370
-1
 48
1.0
  6
BYLAYER
100
AcDbLine
 10
99.9948598829288926
 20
-60.5949726535989797
 30
0.0
 11
100.1685080605957978
 21
-59.6101649005867458
 31
0.0
  0
LINE
  5
8E
100
AcDbEntity
  8
Edge cuts
 62
256
370
-1
 48
1.0
  6
CONTINUOUS
100
AcDbLine
 10
-13.2874999999999996
 20
9.5250000000000004
 30
0.0
 11
6.3675000000000015
 21
9.5250000000000004
 31
0.0
  0
LINE
  5
8F
100
AcDbEntity
  8
plate
 62
256
370
-1
 48
1.0
  6
BYLAYER
100
AcDbLine
 10
116.6018298025335866
 20
-52.898820878078574
 30
0.0
 11
115.6170220495213812
 21
-52.7251727004116404
 31
0.0
  0
LINE
  5
90
100
AcDbEntity
  8
keycap outlines
 62
256
370
-1
 48
1.0
  6
BYLAYER
100
AcDbLine
 10
-19.0499999999999616
 20
-9.5249999999999968
 30
0.0
 11
33.3374999999999986
 21
-9.525000000000011
 31
0.0
  0
ARC
  5
91
100
AcDbEntity
  8
Edge cuts
 62
256
370
-1
 48
1.0
  6
BYLAYER
100
AcDbCircle
 10
-15.2874999999999996
 20
-8.5250000000000004
 30
0.0
 40
0.999999
100
AcDbArc
 50
-90.0001000000000033
 51
0.0000572958
  0
ARC
  5
92
100
AcDbEntity
  8
plate
 62
256
370
-1
 48
1.0
  6
BYLAYER
100
AcDbCircle
 10
-17.3192499999999825
 20
-31.5999999999999446
 30
0.0
 40
0.5
100
AcDbArc
 50
90.0
 51
180.0
  0
LINE
  5
93
100
AcDbEntity
  8
keycap outlines
 62
256
370
-1
 48
1.0
  6
BYLAYER
100
AcDbLine
 10
-23.8124999999999503
 20
-28.5749999999999389
 30
0.0
 11
38.0999999999999872
 21
-28.5749999999999673
 31
0.0
  0
LINE
  5
94
100
AcDbEntity
  8
Edge cuts
 62
256
370
-1
 48
1.0
  6
CONTINUOUS
100
AcDbLine
 10
21.2075000000000031
 20
17.4450000000000003
 30
0.0
 11
21.2075000000000031
 21
10.5250000000000004
 31
0.0
  0
ARC
  5
95
100
AcDbEntity
  8
plate
 62
256
370
-1
 48
1.0
  6
BYLAYER
100
AcDbCircle
 10
103.9650357901711573
 20
-75.5109943506049035
 30
0.0
 40
0.5
100
AcDbArc
 50
260.0
 51
350.0
  0
ARC
  5
96
100
AcDbEntity
  8
plate
 62
256
370
-1
 48
1.0
  6
BYLAYER
100
AcDbCircle
 10
-17.3192499999999825
 20
-46.5999999999999446
 30
0.0
 40
0.5
100
AcDbArc
 50
180.0
 51
270.0
  0
LINE
  5
97
100
AcDbEntity
  8
keycap outlines
 62
256
370
-1
 48
1.0
  6
BYLAYER
100
AcDbLine
 10
-23.8124999999999787
 20
-47.6249999999999574
 30
0.0
 11
38.0999999999999872
 21
-47.6249999999999574
 31
0.0
  0
ARC
  5
98
100
AcDbEntity
  8
plate
 62
256
370
-1
 48
1.0
  6
BYLAYER
100
AcDbCircle
 10
106.5697584551751902
 20
-60.7388780554218286
 30
0.0
 40
0.5
100
AcDbArc
 50
350.0
 51
79.9999999999999858
  0
ARC
  5
99
100
AcDbEntity
  8
Edge cuts
 62
256
370
-1
 48
1.0
  6
BYLAYER
100
AcDbCircle
 10
6.3675000000000015
 20
10.5250000000000004
 30
0.0
 40
1.0
100
AcDbArc
 50
-90.0
 51
-0.0
  0
ARC
  5
9A
100
AcDbEntity
  8
plate
 62
256
370
-1
 48
1.0
  6
BYLAYER
100
AcDbCircle
 10
116.7457352043564356
 20
-46.3239223058323049
 30
0.0
 40
0.5
100
AcDbArc
 50
80.0000000000000142
 51
170.0
  0
ARC
  5
9B
100
AcDbEntity
  8
plate
 62
256
370
-1
 48
1.0
  6
BYLAYER
100
AcDbCircle
 10
-11.3192499999999825
 20
-46.5999999999999446
 30
0.0
 40
0.5
100
AcDbArc
 50
270.0
 51
0.0
  0
LINE
  5
9C
100
AcDbEntity
  8
Edge cuts
 62
256
370
-1
 48
1.0
  6
CONTINUOUS
100
AcDbLine
 10
7.3675000000000015
 20
10.5250000000000004
 30
0.0
 11
7.3675000000000015
 21
17.4450000000000003
 31
0.0
  0
ARC
  5
9D
100
AcDbEntity
  8
plate
 62
256
370
-1
 48
1.0
  6
BYLAYER
100
AcDbCircle
 10
100.6609119371018437
 20
-59.6969889894202268
 30
0.0
 40
0.5
100
AcDbArc
 50
79.9999999999999858
 51
170.0
  0
ARC
  5
9E
100
AcDbEntity
  8
Edge cuts
 62
256
370
-1
 48
1.0
  6
BYLAYER
100
AcDbCircle
 10
-22.8125
 20
-29.5749999999999993
 30
0.0
 40
0.999999
100
AcDbArc
 50
-270.0
 51
-180.0
  0
ARC
  5
9F
100
AcDbEntity
  8
plate
 62
256
370
-1
 48
1.0
  6
BYLAYER
100
AcDbCircle
 10
115.7038461383548906
 20
-52.2327688239055377
 30
0.0
 40
0.5
100
AcDbArc
 50
170.0
 51
260.0
  0
LINE
  5
A0
100
AcDbEntity
  8
plate
 62
256
370
-1
 48
1.0
  6
BYLAYER
100
AcDbLine
 10
6.5567500000000507
 20
-47.0999999999999446
 30
0.0
 11
12.5567500000000507
 21
-47.0999999999999446
 31
0.0
  0
ARC
  5
A1
100
AcDbEntity
  8
Edge cuts
 62
256
370
-1
 48
1.0
  6
BYLAYER
100
AcDbCircle
 10
8.3675000000000015
 20
17.4450000000000003
 30
0.0
 40
1.0
100
AcDbArc
 50
90.0
 51
180.0
  0
LINE
  5
A2
100
AcDbEntity
  8
plate
 62
256
370
-1
 48
1.0
  6
BYLAYER
100
AcDbLine
 10
83.1433126330891241
 20
-56.100450288940074
 30
0.0
 11
77.2344661150158913
 21
-55.0585612229384722
 31
0.0
  0
LINE
  5
A3
100
AcDbEntity
  8
plate
 62
256
370
-1
 48
1.0
  6
BYLAYER
100
AcDbLine
 10
112.107307437874681
 20
-69.750368127918307
 30
0.0
 11
111.065418371873136
 21
-75.6592146459915682
 31
0.0
  0
LINE
  5
A4
100
AcDbEntity
  8
plate
 62
256
370
-1
 48
1.0
  6
BYLAYER
100
AcDbLine
 10
6.0567500000000507
 20
-45.5999999999999446
 30
0.0
 11
6.0567500000000507
 21
-46.5999999999999446
 31
0.0
  0
LINE
  5
A5
100
AcDbEntity
  8
plate
 62
256
370
-1
 48
1.0
  6
BYLAYER
100
AcDbLine
 10
83.375244243094869
 20
-57.6644860072918348
 30
0.0
 11
83.5488924207617742
 21
-56.6796782542796294
 31
0.0
  0
LINE
  5
A6
100
AcDbEntity
  8
plate
 62
256
370
-1
 48
1.0
  6
BYLAYER
100
AcDbLine
 10
113.6713431562264418
 20
-69.5184365179126189
 30
0.0
 11
112.6865354032142363
 21
-69.3447883402456853
 31
0.0
  0
LINE
  5
A7
100
AcDbEntity
  8
plate
 62
256
370
-1
 48
1.0
  6
BYLAYER
100
AcDbLine
 10
13.0567500000000507
 20
-31.5999999999999446
 30
0.0
 11
13.0567500000000507
 21
-46.5999999999999446
 31
0.0
  0
LINE
  5
A8
100
AcDbEntity
  8
Edge cuts
 62
256
370
-1
 48
1.0
  6
CONTINUOUS
100
AcDbLine
 10
-19.0500000000000007
 20
-65.6749999999999972
 30
0.0
 11
-19.0500000000000007
 21
-48.625
 31
0.0
  0
LINE
  5
A9
100
AcDbEntity
  8
plate
 62
256
370
-1
 48
1.0
  6
BYLAYER
100
AcDbLine
 10
74.0505154846723315
 20
-70.2362573057942257
 30
0.0
 11
76.655238149676336
 21
-55.4641410106111223
 31
0.0
  0
ARC
  5
AA
100
AcDbEntity
  8
Edge cuts
 62
256
370
-1
 48
1.0
  6
BYLAYER
100
AcDbCircle
 10
20.2075000000000031
 20
17.4450000000000003
 30
0.0
 40
1.0
100
AcDbArc
 50
-0.0
 51
90.0
  0
LINE
  5
AB
100
AcDbEntity
  8
plate
 62
256
370
-1
 48
1.0
  6
BYLAYER
100
AcDbLine
 10
112.4558059125579916
 20
-76.4120907889980572
 30
0.0
 11
111.4709981595457862
 21
-76.2384426113311235
 31
0.0
  0
ARC
  5
AC
100
AcDbEntity
  8
plate
 62
256
370
-1
 48
1.0
  6
BYLAYER
100
AcDbCircle
 10
12.5567500000000507
 20
-31.5999999999999446
 30
0.0
 40
0.5
100
AcDbArc
 50
0.0
 51
90.0
  0
ARC
  5
AD
100
AcDbEntity
  8
plate
 62
256
370
-1
 48
1.0
  6
BYLAYER
100
AcDbCircle
 10
74.5429193611784626
 20
-70.3230813946276783
 30
0.0
 40
0.5
100
AcDbArc
 50
170.0
 51
260.0
  0
ARC
  5
AE
100
AcDbEntity
  8
plate
 62
256
370
-1
 48
1.0
  6
BYLAYER
100
AcDbCircle
 10
6.5567500000000507
 20
-46.5999999999999446
 30
0.0
 40
0.5
100
AcDbArc
 50
180.0
 51
270.0
  0
ARC
  5
AF
100
AcDbEntity
  8
Edge cuts
 62
256
370
-1
 48
1.0
  6
BYLAYER
100
AcDbCircle
 10
-13.2874999999999996
 20
8.5250000000000004
 30
0.0
 40
0.999999
100
AcDbArc
 50
-270.0
 51
-180.0
  0
ARC
  5
B0
100
AcDbEntity
  8
plate
 62
256
370
-1
 48
1.0
  6
BYLAYER
100
AcDbCircle
 10
83.0564885442556147
 20
-56.5928541654461768
 30
0.0
 40
0.5
100
AcDbArc
 50
350.0
 51
79.9999999999999858
  0
ARC
  5
B1
100
AcDbEntity
  8
plate
 62
256
370
-1
 48
1.0
  6
BYLAYER
100
AcDbCircle
 10
112.5997113143808406
 20
-69.837192216751788
 30
0.0
 40
0.5
100
AcDbArc
 50
80.0000000000000142
 51
170.0
  0
ARC
  5
B2
100
AcDbEntity
  8
plate
 62
256
370
-1
 48
1.0
  6
BYLAYER
100
AcDbCircle
 10
12.5567500000000507
 20
-46.5999999999999446
 30
0.0
 40
0.5
100
AcDbArc
 50
270.0
 51
0.0
  0
ARC
  5
B3
100
AcDbEntity
  8
plate
 62
256
370
-1
 48
1.0
  6
BYLAYER
100
AcDbCircle
 10
77.1476420261823819
 20
-55.5509650994445749
 30
0.0
 40
0.5
100
AcDbArc
 50
79.9999999999999858
 51
170.0
  0
LINE
  5
B4
100
AcDbEntity
  8
Edge cuts
 62
256
370
-1
 48
1.0
  6
CONTINUOUS
100
AcDbLine
 10
77.1855600354587637
 20
3.0273873052171032
 30
0.0
 11
78.8178529056112893
 21
12.2845801840047013
 31
0.0
  0
ARC
  5
B5
100
AcDbEntity
  8
plate
 62
256
370
-1
 48
1.0
  6
BYLAYER
100
AcDbCircle
 10
111.5578222483791819
 20
-75.7460387348250208
 30
0.0
 40
0.5
100
AcDbArc
 50
170.0
 51
260.0
  0
LINE
  5
B6
100
AcDbEntity
  8
Edge cuts
 62
256
370
-1
 48
1.0
  6
CONTINUOUS
100
AcDbLine
 10
66.3142317293672363
 20
6.4471271873078084
 30
0.0
 11
67.5158771188223881
 21
13.2619968381522888
 31
0.0
  0
LINE
  5
B7
100
AcDbEntity
  8
Edge cuts
 62
256
370
-1
 48
1.0
  6
CONTINUOUS
100
AcDbLine
 10
82.3665045390366259
 20
3.6166783892702239
 30
0.0
 11
83.5681499284917777
 21
10.4315480401147056
 31
0.0
  0
LINE
  5
B8
100
AcDbEntity
  8
Edge cuts
 62
256
370
-1
 48
1.0
  6
CONTINUOUS
100
AcDbLine
 10
70.9812711914812269
 20
4.1213708245150862
 30
0.0
 11
72.6135640615503632
 21
13.3785637028298403
 31
0.0
  0
LINE
  5
B9
100
AcDbEntity
  8
plate
 62
256
370
-1
 48
1.0
  6
BYLAYER
100
AcDbLine
 10
-6.5
 20
6.9999999999999929
 30
0.0
 11
6.5
 21
6.9999999999999929
 31
0.0
  0
LINE
  5
BA
100
AcDbEntity
  8
Edge cuts
 62
256
370
-1
 48
1.0
  6
CONTINUOUS
100
AcDbLine
 10
77.1855600354587637
 20
3.0273873052171032
 30
0.0
 11
77.6287235243142675
 21
2.9492456252669816
 31
0.0
  0
LINE
  5
BB
100
AcDbEntity
  8
plate
 62
256
370
-1
 48
1.0
  6
BYLAYER
100
AcDbLine
 10
-13.6437499999999829
 20
-50.1499999999999844
 30
0.0
 11
-0.6437499999999829
 21
-50.1499999999999844
 31
0.0
  0
LINE
  5
BC
100
AcDbEntity
  8
Edge cuts
 62
256
370
-1
 48
1.0
  6
CONTINUOUS
100
AcDbLine
 10
70.5381077026257373
 20
4.1995125044652042
 30
0.0
 11
70.9812711914812269
 21
4.1213708245150862
 31
0.0
  0
LINE
  5
BD
100
AcDbEntity
  8
plate
 62
256
370
-1
 48
1.0
  6
BYLAYER
100
AcDbLine
 10
-13.6437499999999829
 20
-12.0500000000000398
 30
0.0
 11
4.1187500000000341
 21
-12.0499999999999758
 31
0.0
  0
LINE
  5
BE
100
AcDbEntity
  8
Edge cuts
 62
256
370
-1
 48
1.0
  6
CONTINUOUS
100
AcDbLine
 10
76.9771822222582927
 20
1.8456180016015491
 30
0.0
 11
77.4203457111137823
 21
1.7674763216514275
 31
0.0
  0
LINE
  5
BF
100
AcDbEntity
  8
plate
 62
256
370
-1
 48
1.0
  6
BYLAYER
100
AcDbLine
 10
17.3125
 20
7.0000000000000213
 30
0.0
 11
30.3125
 21
7.0000000000000213
 31
0.0
  0
LINE
  5
C0
100
AcDbEntity
  8
Edge cuts
 62
256
370
-1
 48
1.0
  6
CONTINUOUS
100
AcDbLine
 10
70.3297298894259058
 20
3.0177432008533227
 30
0.0
 11
70.7728933782813954
 21
2.9396015209032047
 31
0.0
  0
LINE
  5
C1
100
AcDbEntity
  8
plate
 62
256
370
-1
 48
1.0
  6
BYLAYER
100
AcDbLine
 10
17.3125
 20
-12.0499999999999901
 30
0.0
 11
30.3125
 21
-12.0499999999999901
 31
0.0
  0
LINE
  5
C2
100
AcDbEntity
  8
Edge cuts
 62
256
370
-1
 48
1.0
  6
CONTINUOUS
100
AcDbLine
 10
70.1303951209137466
 20
-0.7041871652419598
 30
0.0
 11
70.7728933782813954
 21
2.9396015209032047
 31
0.0
  0
LINE
  5
C3
100
AcDbEntity
  8
plate
 62
256
370
-1
 48
1.0
  6
BYLAYER
100
AcDbLine
 10
22.0750000000000171
 20
-31.1000000000000014
 30
0.0
 11
35.0750000000000171
 21
-31.1000000000000014
 31
0.0
  0
LINE
  5
C4
100
AcDbEntity
  8
Edge cuts
 62
256
370
-1
 48
1.0
  6
CONTINUOUS
100
AcDbLine
 10
76.3346839648906581
 20
-1.7981706845436189
 30
0.0
 11
76.9771822222582927
 21
1.8456180016015491
 31
0.0
  0
LINE
  5
C5
100
AcDbEntity
  8
plate
 62
256
370
-1
 48
1.0
  6
BYLAYER
100
AcDbLine
 10
39.1860795888079849
 20
7.651173539555252
 30
0.0
 11
51.9885803779667128
 21
5.3937472298851716
 31
0.0
  0
LINE
  5
C6
100
AcDbEntity
  8
plate
 62
256
370
-1
 48
1.0
  6
BYLAYER
100
AcDbLine
 10
39.1860795888079849
 20
-11.6927034168681914
 30
0.0
 11
51.9885803779667128
 21
-13.950129726538286
 31
0.0
  0
LINE
  5
C7
100
AcDbEntity
  8
plate
 62
256
370
-1
 48
1.0
  6
BYLAYER
100
AcDbLine
 10
43.948579588808002
 20
-31.8763376189157057
 30
0.0
 11
56.7510803779667015
 21
-34.1337639285857861
 31
0.0
  0
LINE
  5
C8
100
AcDbEntity
  8
plate
 62
256
370
-1
 48
1.0
  6
BYLAYER
100
AcDbLine
 10
62.7091672836905616
 20
-35.1843354034707048
 30
0.0
 11
75.5116680728493179
 21
-37.4417617131408136
 31
0.0
  0
LINE
  5
C9
100
AcDbEntity
  8
plate
 62
256
370
-1
 48
1.0
  6
BYLAYER
100
AcDbLine
 10
57.9466672836905161
 20
-15.0007012014232046
 30
0.0
 11
70.749168072849244
 21
-17.2581275110933134
 31
0.0
  0
LINE
  5
CA
100
AcDbEntity
  8
plate
 62
256
370
-1
 48
1.0
  6
BYLAYER
100
AcDbLine
 10
57.9466672836905161
 20
4.3431757550002246
 30
0.0
 11
70.749168072849244
 21
2.0857494453301442
 31
0.0
  0
LINE
  5
CB
100
AcDbEntity
  8
plate
 62
256
370
-1
 48
1.0
  6
BYLAYER
100
AcDbLine
 10
76.7072549785730757
 20
1.0351779704452113
 30
0.0
 11
89.5097557677318605
 21
-1.2222483392248833
 31
0.0
  0
LINE
  5
CC
100
AcDbEntity
  8
plate
 62
256
370
-1
 48
1.0
  6
BYLAYER
100
AcDbLine
 10
76.7072549785730757
 20
-18.3086989859782321
 30
0.0
 11
89.5097557677318605
 21
-20.5661252956483409
 31
0.0
  0
LINE
  5
CD
100
AcDbEntity
  8
plate
 62
256
370
-1
 48
1.0
  6
BYLAYER
100
AcDbLine
 10
81.4697549785731212
 20
-38.4923331880257322
 30
0.0
 11
94.2722557677317923
 21
-40.749759497695841
 31
0.0
  0
LINE
  5
CE
100
AcDbEntity
  8
keycap outlines
 62
256
370
-1
 48
1.0
  6
BYLAYER
100
AcDbLine
 10
-19.0499999999999901
 20
-66.6749999999999545
 30
0.0
 11
4.7625000000000117
 21
-66.6749999999999545
 31
0.0
  0
LINE
  5
CF
100
AcDbEntity
  8
top outline
 62
256
370
-1
 48
1.0
  6
BYLAYER
100
AcDbLine
 10
-19.0499999999999901
 20
-67.199999999999946
 30
0.0
 11
36.3414778631290787
 21
-67.199999999999946
 31
0.0
  0
LINE
  5
D0
100
AcDbEntity
  8
plate
 62
256
370
-1
 48
1.0
  6
BYLAYER
100
AcDbLine
 10
100.2303426734555956
 20
-41.8003309725807597
 30
0.0
 11
113.0328434626143803
 21
-44.0577572822508401
 31
0.0
  0
LINE
  5
D1
100
AcDbEntity
  8
plate
 62
256
370
-1
 48
1.0
  6
BYLAYER
100
AcDbLine
 10
52.365949113554521
 20
-52.7044249291451621
 30
0.0
 11
65.1684499027133057
 21
-54.9618512388152425
 31
0.0
  0
LINE
  5
D2
100
AcDbEntity
  8
keycap outlines
 62
256
370
-1
 48
1.0
  6
BYLAYER
100
AcDbLine
 10
-19.0499999999999901
 20
-28.5750000000000099
 30
0.0
 11
4.7625000000000117
 21
-28.5750000000000099
 31
0.0
  0
LINE
  5
D3
100
AcDbEntity
  8
plate
 62
256
370
-1
 48
1.0
  6
BYLAYER
100
AcDbLine
 10
95.4678426734556638
 20
-21.6166967705332596
 30
0.0
 11
108.2703434626143348
 21
-23.87412308020334
 31
0.0
  0
LINE
  5
D4
100
AcDbEntity
  8
keycap outlines
 62
256
370
-1
 48
1.0
  6
BYLAYER
100
AcDbLine
 10
38.0999999999999872
 20
-28.5749999999999673
 30
0.0
 11
38.0999999999999872
 21
-47.6249999999999574
 31
0.0
  0
LINE
  5
D5
100
AcDbEntity
  8
plate
 62
256
370
-1
 48
1.0
  6
BYLAYER
100
AcDbLine
 10
95.4678426734556638
 20
-2.2728198141098161
 30
0.0
 11
108.2703434626144485
 21
-4.5302461237799108
 31
0.0
  0
LINE
  5
D6
100
AcDbEntity
  8
keycap outlines
 62
256
370
-1
 48
1.0
  6
BYLAYER
100
AcDbLine
 10
38.1000000000000156
 20
-47.6249999999999645
 30
0.0
 11
56.8605876948825752
 21
-50.9329977845549848
 31
0.0
  0
LINE
  5
D7
100
AcDbEntity
  8
plate
 62
256
370
-1
 48
1.0
  6
BYLAYER
100
AcDbLine
 10
118.9909303683381836
 20
-45.1083287571357587
 30
0.0
 11
131.7934311574968547
 21
-47.3657550668058676
 31
0.0
  0
LINE
  5
D8
100
AcDbEntity
  8
keycap outlines
 62
256
370
-1
 48
1.0
  6
BYLAYER
100
AcDbLine
 10
38.1000000000000156
 20
-47.6249999999999645
 30
0.0
 11
41.4079977845550431
 21
-28.8644123051174049
 31
0.0
  0
LINE
  5
D9
100
AcDbEntity
  8
plate
 62
256
370
-1
 48
1.0
  6
BYLAYER
100
AcDbLine
 10
10.1687500000000099
 20
-50.1499999999999844
 30
0.0
 11
23.1687500000000099
 21
-50.1499999999999844
 31
0.0
  0
LINE
  5
DA
100
AcDbEntity
  8
keycap outlines
 62
256
370
-1
 48
1.0
  6
BYLAYER
100
AcDbLine
 10
56.8605876948825752
 20
-50.9329977845549848
 30
0.0
 11
60.1685854794376027
 21
-32.1724100896724252
 31
0.0
  0
LINE
  5
DB
100
AcDbEntity
  8
plate
 62
256
370
-1
 48
1.0
  6
BYLAYER
100
AcDbLine
 10
-6.4999999999999716
 20
-7.0000000000000071
 30
0.0
 11
6.5000000000000284
 21
-7.0000000000000071
 31
0.0
  0
LINE
  5
DC
100
AcDbEntity
  8
keycap outlines
 62
256
370
-1
 48
1.0
  6
BYLAYER
100
AcDbLine
 10
67.6230306814894959
 20
-72.1745838178538008
 30
0.0
 11
70.9310284660445234
 21
-53.4139961229712483
 31
0.0
  0
LINE
  5
DD
100
AcDbEntity
  8
plate
 62
256
370
-1
 48
1.0
  6
BYLAYER
100
AcDbLine
 10
-13.6437499999999829
 20
-64.1499999999999773
 30
0.0
 11
-0.6437499999999829
 21
-64.1499999999999773
 31
0.0
  0
LINE
  5
DE
100
AcDbEntity
  8
keycap outlines
 62
256
370
-1
 48
1.0
  6
BYLAYER
100
AcDbLine
 10
67.6230306814894959
 20
-72.1745838178538008
 30
0.0
 11
70.9310284660445234
 21
-53.4139961229712483
 31
0.0
  0
LINE
  5
DF
100
AcDbEntity
  8
plate
 62
256
370
-1
 48
1.0
  6
BYLAYER
100
AcDbLine
 10
-13.6437499999999829
 20
-26.0500000000000398
 30
0.0
 11
4.1187500000000341
 21
-26.0499999999999616
 31
0.0
  0
LINE
  5
E0
100
AcDbEntity
  8
keycap outlines
 62
256
370
-1
 48
1.0
  6
BYLAYER
100
AcDbLine
 10
52.1704407711619567
 20
-50.105998338416228
 30
0.0
 11
70.9310284660445234
 21
-53.4139961229712483
 31
0.0
  0
LINE
  5
E1
100
AcDbEntity
  8
plate
 62
256
370
-1
 48
1.0
  6
BYLAYER
100
AcDbLine
 10
17.3125
 20
-6.9999999999999787
 30
0.0
 11
30.3125
 21
-6.9999999999999787
 31
0.0
  0
LINE
  5
E2
100
AcDbEntity
  8
keycap outlines
 62
256
370
-1
 48
1.0
  6
BYLAYER
100
AcDbLine
 10
33.3374999999999986
 20
-27.4413657979524643
 30
0.0
 11
52.0980876948825582
 21
-30.7493635825074847
 31
0.0
  0
LINE
  5
E3
100
AcDbEntity
  8
plate
 62
256
370
-1
 48
1.0
  6
BYLAYER
100
AcDbLine
 10
17.3125
 20
-26.0499999999999901
 30
0.0
 11
30.3125
 21
-26.0499999999999901
 31
0.0
  0
LINE
  5
E4
100
AcDbEntity
  8
keycap outlines
 62
256
370
-1
 48
1.0
  6
BYLAYER
100
AcDbLine
 10
33.3374999999999986
 20
-27.4413657979524643
 30
0.0
 11
36.645497784555026
 21
-8.6807781030698887
 31
0.0
  0
LINE
  5
E5
100
AcDbEntity
  8
plate
 62
256
370
-1
 48
1.0
  6
BYLAYER
100
AcDbLine
 10
22.0750000000000171
 20
-45.1000000000000014
 30
0.0
 11
35.0750000000000171
 21
-45.1000000000000014
 31
0.0
  0
LINE
  5
E6
100
AcDbEntity
  8
keycap outlines
 62
256
370
-1
 48
1.0
  6
BYLAYER
100
AcDbLine
 10
36.645497784555026
 20
-8.6807781030698887
 30
0.0
 11
55.4060854794375857
 21
-11.9887758876249162
 31
0.0
  0
LINE
  5
E7
100
AcDbEntity
  8
plate
 62
256
370
-1
 48
1.0
  6
BYLAYER
100
AcDbLine
 10
36.7550051014709709
 20
-6.1361350026156529
 30
0.0
 11
49.5575058906296704
 21
-8.3935613122857475
 31
0.0
  0
LINE
  5
E8
100
AcDbEntity
  8
keycap outlines
 62
256
370
-1
 48
1.0
  6
BYLAYER
100
AcDbLine
 10
33.3374999999999986
 20
-8.0974888415290192
 30
0.0
 11
52.0980876948825582
 21
-11.4054866260840466
 31
0.0
  0
LINE
  5
E9
100
AcDbEntity
  8
plate
 62
256
370
-1
 48
1.0
  6
BYLAYER
100
AcDbLine
 10
36.7550051014709425
 20
-25.4800119590391105
 30
0.0
 11
49.557505890629642
 21
-27.7374382687091909
 31
0.0
  0
LINE
  5
EA
100
AcDbEntity
  8
keycap outlines
 62
256
370
-1
 48
1.0
  6
BYLAYER
100
AcDbLine
 10
33.3374999999999986
 20
-8.0974888415290192
 30
0.0
 11
36.645497784555026
 21
10.6630988533535405
 31
0.0
  0
LINE
  5
EB
100
AcDbEntity
  8
top outline
 62
256
370
-1
 48
1.0
  6
BYLAYER
100
AcDbLine
 10
36.0807897075906965
 20
10.4838347067248616
 30
0.0
 11
36.1284737142236168
 21
10.7542641466286728
 31
0.0
  0
LINE
  5
EC
100
AcDbEntity
  8
plate
 62
256
370
-1
 48
1.0
  6
BYLAYER
100
AcDbLine
 10
41.5175051014709879
 20
-45.6636461610866107
 30
0.0
 11
54.3200058906296874
 21
-47.9210724707566911
 31
0.0
  0
LINE
  5
ED
100
AcDbEntity
  8
keycap outlines
 62
256
370
-1
 48
1.0
  6
BYLAYER
100
AcDbLine
 10
52.0980876948825582
 20
-11.4054866260840466
 30
0.0
 11
55.4060854794375857
 21
7.3551010687985272
 31
0.0
  0
LINE
  5
EE
100
AcDbEntity
  8
plate
 62
256
370
-1
 48
1.0
  6
BYLAYER
100
AcDbLine
 10
60.2780927963535476
 20
-48.9716439456416381
 30
0.0
 11
73.0805935855122186
 21
-51.2290702553117185
 31
0.0
  0
LINE
  5
EF
100
AcDbEntity
  8
keycap outlines
 62
256
370
-1
 48
1.0
  6
BYLAYER
100
AcDbLine
 10
52.0980876948825582
 20
-30.7493635825074847
 30
0.0
 11
55.4060854794375857
 21
-11.9887758876249162
 31
0.0
  0
LINE
  5
F0
100
AcDbEntity
  8
plate
 62
256
370
-1
 48
1.0
  6
BYLAYER
100
AcDbLine
 10
55.5155927963535021
 20
-28.788009743594138
 30
0.0
 11
68.31809358551223
 21
-31.0454360532642184
 31
0.0
  0
LINE
  5
F1
100
AcDbEntity
  8
keycap outlines
 62
256
370
-1
 48
1.0
  6
BYLAYER
100
AcDbLine
 10
36.645497784555026
 20
10.6630988533535405
 30
0.0
 11
55.4060854794375857
 21
7.3551010687985272
 31
0.0
  0
LINE
  5
F2
100
AcDbEntity
  8
top outline
 62
256
370
-1
 48
1.0
  6
BYLAYER
100
AcDbLine
 10
36.7366630778301655
 20
11.180122923684948
 30
0.0
 11
111.7790138573604395
 21
-2.0518682145351317
 31
0.0
  0
LINE
  5
F3
100
AcDbEntity
  8
plate
 62
256
370
-1
 48
1.0
  6
BYLAYER
100
AcDbLine
 10
43.3611139616996084
 20
11.5098077530122058
 30
0.0
 11
106.1262984013459061
 21
0.4426122871594576
 31
0.0
  0
LINE
  5
F4
100
AcDbEntity
  8
plate cutout
 62
256
370
-1
 48
1.0
  6
BYLAYER
100
AcDbLine
 10
43.4522792549747265
 20
12.0268318233436187
 30
0.0
 11
106.2174636946210455
 21
0.9596363574908399
 31
0.0
  0
LINE
  5
F5
100
AcDbEntity
  8
plate
 62
256
370
-1
 48
1.0
  6
BYLAYER
100
AcDbLine
 10
55.5155927963535021
 20
-9.4441327871706804
 30
0.0
 11
68.31809358551223
 21
-11.701559096840775
 31
0.0
  0
LINE
  5
F6
100
AcDbEntity
  8
keycap outlines
 62
256
370
-1
 48
1.0
  6
BYLAYER
100
AcDbLine
 10
55.4060854794375857
 20
7.355101068798513
 30
0.0
 11
74.1666731743201808
 21
4.0471032842434997
 31
0.0
  0
LINE
  5
F7
100
AcDbEntity
  8
plate
 62
256
370
-1
 48
1.0
  6
BYLAYER
100
AcDbLine
 10
74.2761804912360617
 20
-12.7521305717257079
 30
0.0
 11
87.0786812803947328
 21
-15.0095568813957883
 31
0.0
  0
LINE
  5
F8
100
AcDbEntity
  8
keycap outlines
 62
256
370
-1
 48
1.0
  6
BYLAYER
100
AcDbLine
 10
74.1666731743201808
 20
4.0471032842434997
 30
0.0
 11
92.9272608692027404
 21
0.7391054996884865
 31
0.0
  0
LINE
  5
F9
100
AcDbEntity
  8
plate
 62
256
370
-1
 48
1.0
  6
BYLAYER
100
AcDbLine
 10
74.2761804912360617
 20
-32.096007528149137
 30
0.0
 11
87.0786812803947328
 21
-34.3534338378192459
 31
0.0
  0
LINE
  5
FA
100
AcDbEntity
  8
keycap outlines
 62
256
370
-1
 48
1.0
  6
BYLAYER
100
AcDbLine
 10
92.9272608692027404
 20
0.7391054996884865
 30
0.0
 11
111.6878485640853
 21
-2.568892284866541
 31
0.0
  0
LINE
  5
FB
100
AcDbEntity
  8
plate
 62
256
370
-1
 48
1.0
  6
BYLAYER
100
AcDbLine
 10
79.0386804912361072
 20
-52.2796417301966656
 30
0.0
 11
91.8411812803947782
 21
-54.537068039866746
 31
0.0
  0
LINE
  5
FC
100
AcDbEntity
  8
plate
 62
256
370
-1
 48
1.0
  6
BYLAYER
100
AcDbLine
 10
97.7992681861185815
 20
-55.5876395147516646
 30
0.0
 11
110.6017689752773663
 21
-57.8450658244217735
 31
0.0
  0
LINE
  5
FD
100
AcDbEntity
  8
plate
 62
256
370
-1
 48
1.0
  6
BYLAYER
100
AcDbLine
 10
49.9348746262175069
 20
-66.491733471316067
 30
0.0
 11
62.7373754153762917
 21
-68.7491597809861759
 31
0.0
  0
LINE
  5
FE
100
AcDbEntity
  8
plate
 62
256
370
-1
 48
1.0
  6
BYLAYER
100
AcDbLine
 10
93.0367681861186497
 20
-35.4040053127041645
 30
0.0
 11
105.8392689752773208
 21
-37.6614316223742733
 31
0.0
  0
LINE
  5
FF
100
AcDbEntity
  8
keycap outlines
 62
256
370
-1
 48
1.0
  6
BYLAYER
100
AcDbLine
 10
52.0980876948825866
 20
-11.4054866260840466
 30
0.0
 11
70.8586753897651533
 21
-14.7134844106390741
 31
0.0
  0
LINE
  5
100
100
AcDbEntity
  8
plate
 62
256
370
-1
 48
1.0
  6
BYLAYER
100
AcDbLine
 10
93.0367681861186497
 20
-16.0601283562807353
 30
0.0
 11
105.8392689752773208
 21
-18.3175546659508157
 31
0.0
  0
LINE
  5
101
100
AcDbEntity
  8
keycap outlines
 62
256
370
-1
 48
1.0
  6
BYLAYER
100
AcDbLine
 10
70.8586753897651533
 20
-14.7134844106390741
 30
0.0
 11
89.619263084647713
 21
-18.0214821951940891
 31
0.0
  0
LINE
  5
102
100
AcDbEntity
  8
plate
 62
256
370
-1
 48
1.0
  6
BYLAYER
100
AcDbLine
 10
113.2518580964461421
 20
-77.6562249941892446
 30
0.0
 11
126.0543588856049269
 21
-79.9136513038593534
 31
0.0
  0
LINE
  5
103
100
AcDbEntity
  8
keycap outlines
 62
256
370
-1
 48
1.0
  6
BYLAYER
100
AcDbLine
 10
89.619263084647713
 20
-18.0214821951940891
 30
0.0
 11
108.3798507795302726
 21
-21.3294799797491166
 31
0.0
  0
LINE
  5
104
100
AcDbEntity
  8
plate
 62
256
370
-1
 48
1.0
  6
BYLAYER
100
AcDbLine
 10
10.1687500000000099
 20
-64.1499999999999773
 30
0.0
 11
23.1687500000000099
 21
-64.1499999999999773
 31
0.0
  0
LINE
  5
105
100
AcDbEntity
  8
keycap outlines
 62
256
370
-1
 48
1.0
  6
BYLAYER
100
AcDbLine
 10
70.8586753897651533
 20
-14.7134844106390741
 30
0.0
 11
74.1666731743201808
 21
4.0471032842434997
 31
0.0
  0
LINE
  5
106
100
AcDbEntity
  8
plate
 62
256
370
-1
 48
1.0
  6
BYLAYER
100
AcDbLine
 10
-6.9999999999999716
 20
-6.5000000000000071
 30
0.0
 11
-6.9999999999999716
 21
6.4999999999999929
 31
0.0
  0
LINE
  5
107
100
AcDbEntity
  8
keycap outlines
 62
256
370
-1
 48
1.0
  6
BYLAYER
100
AcDbLine
 10
89.619263084647713
 20
-18.0214821951940891
 30
0.0
 11
92.9272608692027404
 21
0.7391054996884723
 31
0.0
  0
LINE
  5
108
100
AcDbEntity
  8
plate
 62
256
370
-1
 48
1.0
  6
BYLAYER
100
AcDbLine
 10
-14.1437499999999829
 20
-63.6499999999999844
 30
0.0
 11
-14.1437499999999829
 21
-50.6499999999999844
 31
0.0
  0
LINE
  5
109
100
AcDbEntity
  8
keycap outlines
 62
256
370
-1
 48
1.0
  6
BYLAYER
100
AcDbLine
 10
108.3798507795303294
 20
-21.3294799797491272
 30
0.0
 11
111.6878485640853
 21
-2.5688922848665552
 31
0.0
  0
LINE
  5
10A
100
AcDbEntity
  8
top outline
 62
256
370
-1
 48
1.0
  6
BYLAYER
100
AcDbLine
 10
109.0792054364120105
 20
-20.3865971323614517
 30
0.0
 11
112.204872634416688
 21
-2.6600575781416795
 31
0.0
  0
LINE
  5
10B
100
AcDbEntity
  8
top outline
 62
256
370
-1
 48
1.0
  6
BYLAYER
100
AcDbLine
 10
109.0792054364120389
 20
-39.730474088784888
 30
0.0
 11
112.2048726344167164
 21
-22.0039345345651398
 31
0.0
  0
LINE
  5
10C
100
AcDbEntity
  8
top outline
 62
256
370
-1
 48
1.0
  6
BYLAYER
100
AcDbLine
 10
129.1119647601892098
 20
-83.0167419109327795
 30
0.0
 11
135.7279603292992647
 21
-45.4955665211676461
 31
0.0
  0
LINE
  5
10D
100
AcDbEntity
  8
top outline
 62
256
370
-1
 48
1.0
  6
BYLAYER
100
AcDbLine
 10
135.1044962820036801
 20
-92.222185461357725
 30
0.0
 11
144.5075451026679616
 21
-38.8948456357466412
 31
0.0
  0
LINE
  5
10E
100
AcDbEntity
  8
top outline
 62
256
370
-1
 48
1.0
  6
BYLAYER
100
AcDbLine
 10
118.5447005115650114
 20
-29.2397625789656495
 30
0.0
 11
125.1606960806750379
 21
8.281412810799484
 31
0.0
  0
LINE
  5
10F
100
AcDbEntity
  8
plate
 62
256
370
-1
 48
1.0
  6
BYLAYER
100
AcDbLine
 10
110.8704108185555697
 20
-38.0662300324698109
 30
0.0
 11
113.831112247776673
 21
-21.2752578436116444
 31
0.0
  0
LINE
  5
110
100
AcDbEntity
  8
plate
 62
256
370
-1
 48
1.0
  6
BYLAYER
100
AcDbLine
 10
110.870410818555527
 20
-18.7223530760463639
 30
0.0
 11
113.8311122477766304
 21
-1.9313808871881797
 31
0.0
  0
LINE
  5
111
100
AcDbEntity
  8
Edge cuts
 62
256
370
-1
 48
1.0
  6
BYLAYER
100
AcDbLine
 10
108.5534989571973057
 20
-20.3446722267369147
 30
0.0
 11
111.5142003864184232
 21
-3.5537000378787553
 31
0.0
  0
LINE
  5
112
100
AcDbEntity
  8
plate
 62
256
370
-1
 48
1.0
  6
BYLAYER
100
AcDbLine
 10
-14.1437499999999829
 20
-25.5500000000000398
 30
0.0
 11
-14.1437499999999829
 21
-12.5500000000000398
 31
0.0
  0
LINE
  5
113
100
AcDbEntity
  8
keycap outlines
 62
256
370
-1
 48
1.0
  6
BYLAYER
100
AcDbLine
 10
52.0980876948825582
 20
-30.7493635825074847
 30
0.0
 11
70.8586753897651249
 21
-34.0573613670625051
 31
0.0
  0
LINE
  5
114
100
AcDbEntity
  8
plate
 62
256
370
-1
 48
1.0
  6
BYLAYER
100
AcDbLine
 10
16.8125
 20
-6.4999999999999787
 30
0.0
 11
16.8125
 21
6.5000000000000213
 31
0.0
  0
LINE
  5
115
100
AcDbEntity
  8
keycap outlines
 62
256
370
-1
 48
1.0
  6
BYLAYER
100
AcDbLine
 10
70.8586753897651249
 20
-34.0573613670625051
 30
0.0
 11
89.6192630846476845
 21
-37.3653591516175254
 31
0.0
  0
LINE
  5
116
100
AcDbEntity
  8
plate
 62
256
370
-1
 48
1.0
  6
BYLAYER
100
AcDbLine
 10
16.8125
 20
-25.5499999999999901
 30
0.0
 11
16.8125
 21
-12.5499999999999901
 31
0.0
  0
LINE
  5
117
100
AcDbEntity
  8
keycap outlines
 62
256
370
-1
 48
1.0
  6
BYLAYER
100
AcDbLine
 10
89.6192630846476845
 20
-37.3653591516175254
 30
0.0
 11
108.3798507795302726
 21
-40.6733569361725458
 31
0.0
  0
LINE
  5
118
100
AcDbEntity
  8
plate
 62
256
370
-1
 48
1.0
  6
BYLAYER
100
AcDbLine
 10
21.5750000000000171
 20
-44.6000000000000014
 30
0.0
 11
21.5750000000000171
 21
-31.6000000000000014
 31
0.0
  0
LINE
  5
119
100
AcDbEntity
  8
keycap outlines
 62
256
370
-1
 48
1.0
  6
BYLAYER
100
AcDbLine
 10
55.4060854794375857
 20
-11.9887758876249162
 30
0.0
 11
74.1666731743201524
 21
-15.2967736721799437
 31
0.0
  0
LINE
  5
11A
100
AcDbEntity
  8
plate
 62
256
370
-1
 48
1.0
  6
BYLAYER
100
AcDbLine
 10
36.3494253137983208
 20
-5.5569070372760834
 30
0.0
 11
38.6068516234684296
 21
7.2455937518826161
 31
0.0
  0
LINE
  5
11B
100
AcDbEntity
  8
keycap outlines
 62
256
370
-1
 48
1.0
  6
BYLAYER
100
AcDbLine
 10
74.1666731743201524
 20
-15.2967736721799437
 30
0.0
 11
92.927260869202712
 21
-18.6047714567349729
 31
0.0
  0
LINE
  5
11C
100
AcDbEntity
  8
plate
 62
256
370
-1
 48
1.0
  6
BYLAYER
100
AcDbLine
 10
36.3494253137983208
 20
-24.9007839936995268
 30
0.0
 11
38.6068516234684012
 21
-12.0982832045408273
 31
0.0
  0
LINE
  5
11D
100
AcDbEntity
  8
keycap outlines
 62
256
370
-1
 48
1.0
  6
BYLAYER
100
AcDbLine
 10
92.927260869202712
 20
-18.6047714567349729
 30
0.0
 11
111.6878485640853
 21
-21.9127692412900004
 31
0.0
  0
LINE
  5
11E
100
AcDbEntity
  8
Edge cuts
 62
256
370
-1
 48
1.0
  6
BYLAYER
100
AcDbLine
 10
109.3646585325425775
 20
-21.5031281574160502
 30
0.0
 11
110.7030408110731514
 21
-21.7391210636230632
 31
0.0
  0
LINE
  5
11F
100
AcDbEntity
  8
plate
 62
256
370
-1
 48
1.0
  6
BYLAYER
100
AcDbLine
 10
41.1119253137983378
 20
-45.0844181957470269
 30
0.0
 11
43.3693516234684182
 21
-32.2819174065883274
 31
0.0
  0
LINE
  5
120
100
AcDbEntity
  8
keycap outlines
 62
256
370
-1
 48
1.0
  6
BYLAYER
100
AcDbLine
 10
70.8586753897651249
 20
-34.0573613670625051
 30
0.0
 11
74.1666731743201524
 21
-15.2967736721799437
 31
0.0
  0
LINE
  5
121
100
AcDbEntity
  8
plate
 62
256
370
-1
 48
1.0
  6
BYLAYER
100
AcDbLine
 10
59.8725130086808974
 20
-48.3924159803020544
 30
0.0
 11
62.1299393183510062
 21
-35.5899151911433549
 31
0.0
  0
LINE
  5
122
100
AcDbEntity
  8
keycap outlines
 62
256
370
-1
 48
1.0
  6
BYLAYER
100
AcDbLine
 10
92.927260869202712
 20
-18.6047714567349729
 30
0.0
 11
89.6192630846476845
 21
-37.3653591516175254
 31
0.0
  0
LINE
  5
123
100
AcDbEntity
  8
plate
 62
256
370
-1
 48
1.0
  6
BYLAYER
100
AcDbLine
 10
55.110013008680852
 20
-28.2087817782545542
 30
0.0
 11
57.3674393183509608
 21
-15.4062809890958547
 31
0.0
  0
LINE
  5
124
100
AcDbEntity
  8
keycap outlines
 62
256
370
-1
 48
1.0
  6
BYLAYER
100
AcDbLine
 10
108.3798507795302726
 20
-40.6733569361725458
 30
0.0
 11
111.6878485640853
 21
-21.9127692412900004
 31
0.0
  0
LINE
  5
125
100
AcDbEntity
  8
Edge cuts
 62
256
370
-1
 48
1.0
  6
BYLAYER
100
AcDbLine
 10
108.5534989571972631
 20
-39.6885491831603403
 30
0.0
 11
111.5142003864184232
 21
-22.8975769943022094
 31
0.0
  0
LINE
  5
126
100
AcDbEntity
  8
plate
 62
256
370
-1
 48
1.0
  6
BYLAYER
100
AcDbLine
 10
55.110013008680852
 20
-8.8649048218311108
 30
0.0
 11
57.3674393183509608
 21
3.9375959673275887
 31
0.0
  0
LINE
  5
127
100
AcDbEntity
  8
keycap outlines
 62
256
370
-1
 48
1.0
  6
BYLAYER
100
AcDbLine
 10
78.9291731743201694
 20
-35.4804078742274456
 30
0.0
 11
97.6897608692027291
 21
-38.7884056587824659
 31
0.0
  0
LINE
  5
128
100
AcDbEntity
  8
plate
 62
256
370
-1
 48
1.0
  6
BYLAYER
100
AcDbLine
 10
73.87060070356344
 20
-12.1729026063861383
 30
0.0
 11
76.1280270132335204
 21
0.6295981827725754
 31
0.0
  0
LINE
  5
129
100
AcDbEntity
  8
keycap outlines
 62
256
370
-1
 48
1.0
  6
BYLAYER
100
AcDbLine
 10
97.6897608692027291
 20
-38.7884056587824659
 30
0.0
 11
116.4503485640852887
 21
-42.0964034433374863
 31
0.0
  0
LINE
  5
12A
100
AcDbEntity
  8
plate
 62
256
370
-1
 48
1.0
  6
BYLAYER
100
AcDbLine
 10
73.87060070356344
 20
-31.5167795628095817
 30
0.0
 11
76.1280270132335204
 21
-18.7142787736508822
 31
0.0
  0
LINE
  5
12B
100
AcDbEntity
  8
keycap outlines
 62
256
370
-1
 48
1.0
  6
BYLAYER
100
AcDbLine
 10
56.8605876948825752
 20
-50.9329977845549919
 30
0.0
 11
75.621175389765142
 21
-54.2409955691100052
 31
0.0
  0
LINE
  5
12C
100
AcDbEntity
  8
plate
 62
256
370
-1
 48
1.0
  6
BYLAYER
100
AcDbLine
 10
78.633100703563457
 20
-51.7004137648570818
 30
0.0
 11
80.8905270132335659
 21
-38.8979129756983824
 31
0.0
  0
LINE
  5
12D
100
AcDbEntity
  8
keycap outlines
 62
256
370
-1
 48
1.0
  6
BYLAYER
100
AcDbLine
 10
75.621175389765142
 20
-54.2409955691100052
 30
0.0
 11
94.3817630846477016
 21
-57.5489933536650327
 31
0.0
  0
LINE
  5
12E
100
AcDbEntity
  8
keycap outlines
 62
256
370
-1
 48
1.0
  6
BYLAYER
100
AcDbLine
 10
94.3817630846477016
 20
-57.5489933536650327
 30
0.0
 11
113.1423507795302612
 21
-60.8569911382200601
 31
0.0
  0
LINE
  5
12F
100
AcDbEntity
  8
plate
 62
256
370
-1
 48
1.0
  6
BYLAYER
100
AcDbLine
 10
97.3936883984459314
 20
-55.0084115494121093
 30
0.0
 11
99.6511147081160402
 21
-42.2059107602534098
 31
0.0
  0
LINE
  5
130
100
AcDbEntity
  8
plate
 62
256
370
-1
 48
1.0
  6
BYLAYER
100
AcDbLine
 10
49.5292948385448568
 20
-65.9125055059765117
 30
0.0
 11
51.7867211482149656
 21
-53.1100047168178122
 31
0.0
  0
LINE
  5
131
100
AcDbEntity
  8
keycap outlines
 62
256
370
-1
 48
1.0
  6
BYLAYER
100
AcDbLine
 10
75.621175389765142
 20
-54.2409955691100052
 30
0.0
 11
78.9291731743201694
 21
-35.4804078742274527
 31
0.0
  0
LINE
  5
132
100
AcDbEntity
  8
plate
 62
256
370
-1
 48
1.0
  6
BYLAYER
100
AcDbLine
 10
92.6311883984459996
 20
-34.8247773473646092
 30
0.0
 11
94.8886147081161084
 21
-22.0222765582058813
 31
0.0
  0
LINE
  5
133
100
AcDbEntity
  8
keycap outlines
 62
256
370
-1
 48
1.0
  6
BYLAYER
100
AcDbLine
 10
94.3817630846477016
 20
-57.5489933536650327
 30
0.0
 11
97.6897608692027291
 21
-38.7884056587824659
 31
0.0
  0
LINE
  5
134
100
AcDbEntity
  8
plate
 62
256
370
-1
 48
1.0
  6
BYLAYER
100
AcDbLine
 10
92.6311883984459996
 20
-15.4809003909411516
 30
0.0
 11
94.8886147081161084
 21
-2.6783996017824521
 31
0.0
  0
LINE
  5
135
100
AcDbEntity
  8
keycap outlines
 62
256
370
-1
 48
1.0
  6
BYLAYER
100
AcDbLine
 10
113.1423507795302612
 20
-60.8569911382200601
 30
0.0
 11
116.4503485640852887
 21
-42.0964034433374934
 31
0.0
  0
LINE
  5
136
100
AcDbEntity
  8
plate
 62
256
370
-1
 48
1.0
  6
BYLAYER
100
AcDbLine
 10
118.3965950115415922
 20
-45.5995868193204572
 30
0.0
 11
118.4117024029986283
 21
-45.5139085448084089
 31
0.0
  0
LINE
  5
137
100
AcDbEntity
  8
keycap outlines
 62
256
370
-1
 48
1.0
  6
BYLAYER
100
AcDbLine
 10
116.4503485640852887
 20
-42.0964034433374863
 30
0.0
 11
135.2109362589678767
 21
-45.4044012278925067
 31
0.0
  0
LINE
  5
138
100
AcDbEntity
  8
Edge cuts
 62
256
370
-1
 48
1.0
  6
BYLAYER
100
AcDbLine
 10
109.3646585325425349
 20
-40.8470051138394652
 30
0.0
 11
134.2261285059557281
 21
-45.230753050225573
 31
0.0
  0
LINE
  5
139
100
AcDbEntity
  8
plate
 62
256
370
-1
 48
1.0
  6
BYLAYER
100
AcDbLine
 10
112.846278308773492
 20
-77.0769970288496893
 30
0.0
 11
112.8613857002305281
 21
-76.9913187543375841
 31
0.0
  0
LINE
  5
13A
100
AcDbEntity
  8
keycap outlines
 62
256
370
-1
 48
1.0
  6
BYLAYER
100
AcDbLine
 10
128.5949406898578218
 20
-82.9255766176576401
 30
0.0
 11
135.2109362589678767
 21
-45.4044012278925067
 31
0.0
  0
LINE
  5
13B
100
AcDbEntity
  8
Edge cuts
 62
256
370
-1
 48
1.0
  6
BYLAYER
100
AcDbLine
 10
128.7685888675248123
 20
-81.9407688646454062
 30
0.0
 11
135.0372880813009431
 21
-46.3892089809046837
 31
0.0
  0
LINE
  5
13C
100
AcDbEntity
  8
plate
 62
256
370
-1
 48
1.0
  6
BYLAYER
100
AcDbLine
 10
9.6687500000000099
 20
-63.6499999999999844
 30
0.0
 11
9.6687500000000099
 21
-50.6499999999999844
 31
0.0
  0
LINE
  5
13D
100
AcDbEntity
  8
keycap outlines
 62
256
370
-1
 48
1.0
  6
BYLAYER
100
AcDbLine
 10
109.8343529949752337
 20
-79.6175788331026126
 30
0.0
 11
113.1423507795302612
 21
-60.8569911382200459
 31
0.0
  0
LINE
  5
13E
100
AcDbEntity
  8
plate
 62
256
370
-1
 48
1.0
  6
BYLAYER
100
AcDbLine
 10
7.0000000000000284
 20
-6.5000000000000071
 30
0.0
 11
7.0000000000000284
 21
6.4999999999999929
 31
0.0
  0
LINE
  5
13F
100
AcDbEntity
  8
keycap outlines
 62
256
370
-1
 48
1.0
  6
BYLAYER
100
AcDbLine
 10
109.8343529949752337
 20
-79.6175788331026126
 30
0.0
 11
128.5949406898578218
 21
-82.9255766176576401
 31
0.0
  0
LINE
  5
140
100
AcDbEntity
  8
top outline
 62
256
370
-1
 48
1.0
  6
BYLAYER
100
AcDbLine
 10
36.4326431564042323
 20
-67.2079759296685495
 30
0.0
 11
128.5037753965826539
 21
-83.4426006879890281
 31
0.0
  0
LINE
  5
141
100
AcDbEntity
  8
top outline
 62
256
370
-1
 48
1.0
  6
BYLAYER
100
AcDbLine
 10
35.7279215615733179
 20
-77.2379806174694323
 30
0.0
 11
132.2083564553058466
 21
-94.2500843997209188
 31
0.0
  0
LINE
  5
142
100
AcDbEntity
  8
plate
 62
256
370
-1
 48
1.0
  6
BYLAYER
100
AcDbLine
 10
36.344523146920416
 20
-68.6901922469877348
 30
0.0
 11
122.3387978164506933
 21
-83.8533030576804492
 31
0.0
  0
LINE
  5
143
100
AcDbEntity
  8
plate cutout
 62
256
370
-1
 48
1.0
  6
BYLAYER
100
AcDbLine
 10
36.3438253434931511
 20
-69.2231681766563156
 30
0.0
 11
122.2476325231755254
 21
-84.3703271280118656
 31
0.0
  0
LINE
  5
144
100
AcDbEntity
  8
plate
 62
256
370
-1
 48
1.0
  6
BYLAYER
100
AcDbLine
 10
130.3909080182152707
 20
-84.2576807260036844
 30
0.0
 11
137.3541999426591929
 21
-44.7668898302141471
 31
0.0
  0
LINE
  5
145
100
AcDbEntity
  8
Edge cuts
 62
256
370
-1
 48
1.0
  6
BYLAYER
100
AcDbLine
 10
36.5194948026821322
 20
-66.6901912469862737
 30
0.0
 11
127.6101329368456447
 21
-82.7519284399906923
 31
0.0
  0
LINE
  5
146
100
AcDbEntity
  8
plate
 62
256
370
-1
 48
1.0
  6
BYLAYER
100
AcDbLine
 10
4.6187500000000341
 20
-25.5499999999999616
 30
0.0
 11
4.6187500000000341
 21
-12.5499999999999758
 31
0.0
  0
LINE
  5
147
100
AcDbEntity
  8
keycap outlines
 62
256
370
-1
 48
1.0
  6
BYLAYER
100
AcDbLine
 10
67.6230306814894675
 20
-72.1745838178538008
 30
0.0
 11
109.8343529949752337
 21
-79.6175788331026126
 31
0.0
  0
LINE
  5
148
100
AcDbEntity
  8
plate
 62
256
370
-1
 48
1.0
  6
BYLAYER
100
AcDbLine
 10
-0.1437499999999829
 20
-63.6499999999999844
 30
0.0
 11
-0.1437499999999829
 21
-50.6499999999999844
 31
0.0
  0
LINE
  5
149
100
AcDbEntity
  8
keycap outlines
 62
256
370
-1
 48
1.0
  6
BYLAYER
100
AcDbLine
 10
47.4802938474412812
 20
-49.2789988922774853
 30
0.0
 11
70.931028466044495
 21
-53.4139961229712625
 31
0.0
  0
LINE
  5
14A
100
AcDbEntity
  8
plate
 62
256
370
-1
 48
1.0
  6
BYLAYER
100
AcDbLine
 10
23.6687500000000099
 20
-63.6499999999999844
 30
0.0
 11
23.6687500000000099
 21
-50.6499999999999844
 31
0.0
  0
LINE
  5
14B
100
AcDbEntity
  8
keycap outlines
 62
256
370
-1
 48
1.0
  6
BYLAYER
100
AcDbLine
 10
44.1722960628862822
 20
-68.0395865871600165
 30
0.0
 11
47.4802938474413097
 21
-49.2789988922774711
 31
0.0
  0
LINE
  5
14C
100
AcDbEntity
  8
plate
 62
256
370
-1
 48
1.0
  6
BYLAYER
100
AcDbLine
 10
30.8125
 20
-6.4999999999999787
 30
0.0
 11
30.8125
 21
6.5000000000000213
 31
0.0
  0
LINE
  5
14D
100
AcDbEntity
  8
keycap outlines
 62
256
370
-1
 48
1.0
  6
BYLAYER
100
AcDbLine
 10
113.1423507795302612
 20
-60.8569911382200459
 30
0.0
 11
131.9029384744128492
 21
-64.1649889227750521
 31
0.0
  0
LINE
  5
14E
100
AcDbEntity
  8
plate
 62
256
370
-1
 48
1.0
  6
BYLAYER
100
AcDbLine
 10
30.8125
 20
-25.5499999999999901
 30
0.0
 11
30.8125
 21
-12.5499999999999901
 31
0.0
  0
LINE
  5
14F
100
AcDbEntity
  8
keycap outlines
 62
256
370
-1
 48
1.0
  6
BYLAYER
100
AcDbLine
 10
130.8949877392047938
 20
-63.987260012932957
 30
0.0
 11
131.9029384744128492
 21
-64.1649889227750521
 31
0.0
  0
LINE
  5
150
100
AcDbEntity
  8
plate
 62
256
370
-1
 48
1.0
  6
BYLAYER
100
AcDbLine
 10
35.5750000000000171
 20
-44.6000000000000014
 30
0.0
 11
35.5750000000000171
 21
-31.6000000000000014
 31
0.0
  0
LINE
  5
151
100
AcDbEntity
  8
keycap outlines
 62
256
370
-1
 48
1.0
  6
BYLAYER
100
AcDbLine
 10
4.7625000000000117
 20
-47.6249999999999574
 30
0.0
 11
23.8125000000000213
 21
-47.6249999999999574
 31
0.0
  0
LINE
  5
152
100
AcDbEntity
  8
plate
 62
256
370
-1
 48
1.0
  6
BYLAYER
100
AcDbLine
 10
50.1367338559692541
 20
-7.9879815246131116
 30
0.0
 11
52.394160165639363
 21
4.8145192645455879
 31
0.0
  0
LINE
  5
153
100
AcDbEntity
  8
keycap outlines
 62
256
370
-1
 48
1.0
  6
BYLAYER
100
AcDbLine
 10
52.1704407711619567
 20
-50.1059983384162706
 30
0.0
 11
70.931028466044495
 21
-53.4139961229713052
 31
0.0
  0
LINE
  5
154
100
AcDbEntity
  8
plate
 62
256
370
-1
 48
1.0
  6
BYLAYER
100
AcDbLine
 10
50.1367338559692257
 20
-27.3318584810365408
 30
0.0
 11
52.3941601656393061
 21
-14.5293576918778413
 31
0.0
  0
LINE
  5
155
100
AcDbEntity
  8
keycap outlines
 62
256
370
-1
 48
1.0
  6
BYLAYER
100
AcDbLine
 10
4.7625000000000117
 20
-66.6749999999999545
 30
0.0
 11
28.5750000000000099
 21
-66.6749999999999545
 31
0.0
  0
LINE
  5
156
100
AcDbEntity
  8
plate
 62
256
370
-1
 48
1.0
  6
BYLAYER
100
AcDbLine
 10
54.8992338559692428
 20
-47.5154926830840694
 30
0.0
 11
57.1566601656393516
 21
-34.7129918939253699
 31
0.0
  0
LINE
  5
157
100
AcDbEntity
  8
keycap outlines
 62
256
370
-1
 48
1.0
  6
BYLAYER
100
AcDbLine
 10
4.7625000000000117
 20
-66.6749999999999545
 30
0.0
 11
4.7625000000000117
 21
-47.6249999999999574
 31
0.0
  0
LINE
  5
158
100
AcDbEntity
  8
plate
 62
256
370
-1
 48
1.0
  6
BYLAYER
100
AcDbLine
 10
73.6598215508518308
 20
-50.8234904676390968
 30
0.0
 11
75.9172478605218544
 21
-38.0209896784803689
 31
0.0
  0
LINE
  5
159
100
AcDbEntity
  8
keycap outlines
 62
256
370
-1
 48
1.0
  6
BYLAYER
100
AcDbLine
 10
44.1722960628862822
 20
-68.0395865871600165
 30
0.0
 11
67.6230306814894959
 21
-72.1745838178538293
 31
0.0
  0
LINE
  5
15A
100
AcDbEntity
  8
plate
 62
256
370
-1
 48
1.0
  6
BYLAYER
100
AcDbLine
 10
68.8973215508517853
 20
-30.6398562655915683
 30
0.0
 11
71.1547478605218942
 21
-17.8373554764328688
 31
0.0
  0
LINE
  5
15B
100
AcDbEntity
  8
plate
 62
256
370
-1
 48
1.0
  6
BYLAYER
100
AcDbLine
 10
68.8973215508517853
 20
-11.2959793091681391
 30
0.0
 11
71.1547478605218942
 21
1.5065214799905604
 31
0.0
  0
LINE
  5
15C
100
AcDbEntity
  8
plate
 62
256
370
-1
 48
1.0
  6
BYLAYER
100
AcDbLine
 10
87.6579092457344018
 20
-14.6039770937231665
 30
0.0
 11
89.9153355554043969
 21
-1.8014763045644528
 31
0.0
  0
LINE
  5
15D
100
AcDbEntity
  8
plate
 62
256
370
-1
 48
1.0
  6
BYLAYER
100
AcDbLine
 10
87.6579092457344018
 20
-33.9478540501465957
 30
0.0
 11
89.9153355554043969
 21
-21.1453532609878962
 31
0.0
  0
LINE
  5
15E
100
AcDbEntity
  8
keycap outlines
 62
256
370
-1
 48
1.0
  6
BYLAYER
100
AcDbLine
 10
4.7625000000000117
 20
-47.6249999999999289
 30
0.0
 11
23.8125000000000213
 21
-47.6249999999999289
 31
0.0
  0
LINE
  5
15F
100
AcDbEntity
  8
plate
 62
256
370
-1
 48
1.0
  6
BYLAYER
100
AcDbLine
 10
92.4204092457343336
 20
-54.1314882521941243
 30
0.0
 11
94.6778355554044424
 21
-41.3289874630353964
 31
0.0
  0
LINE
  5
160
100
AcDbEntity
  8
keycap outlines
 62
256
370
-1
 48
1.0
  6
BYLAYER
100
AcDbLine
 10
4.7625000000000117
 20
-66.6749999999999261
 30
0.0
 11
4.7625000000000117
 21
-47.6249999999999289
 31
0.0
  0
LINE
  5
161
100
AcDbEntity
  8
plate
 62
256
370
-1
 48
1.0
  6
BYLAYER
100
AcDbLine
 10
111.1809969406169216
 20
-57.4394860367491233
 30
0.0
 11
113.4384232502870304
 21
-44.6369852475904239
 31
0.0
  0
LINE
  5
162
100
AcDbEntity
  8
plate
 62
256
370
-1
 48
1.0
  6
BYLAYER
100
AcDbLine
 10
63.316603380715847
 20
-68.3435799933135257
 30
0.0
 11
65.5740296903859559
 21
-55.5410792041548262
 31
0.0
  0
LINE
  5
163
100
AcDbEntity
  8
keycap outlines
 62
256
370
-1
 48
1.0
  6
BYLAYER
100
AcDbLine
 10
67.6230306814894959
 20
-72.1745838178538293
 30
0.0
 11
70.9310284660445234
 21
-53.4139961229712767
 31
0.0
  0
LINE
  5
164
100
AcDbEntity
  8
plate
 62
256
370
-1
 48
1.0
  6
BYLAYER
100
AcDbLine
 10
106.4184969406168761
 20
-37.2558518347016232
 30
0.0
 11
108.675923250286985
 21
-24.4533510455429237
 31
0.0
  0
LINE
  5
165
100
AcDbEntity
  8
keycap outlines
 62
256
370
-1
 48
1.0
  6
BYLAYER
100
AcDbLine
 10
-19.0499999999999901
 20
-9.5249999999999968
 30
0.0
 11
4.7625000000000117
 21
-9.525000000000011
 31
0.0
  0
LINE
  5
166
100
AcDbEntity
  8
plate
 62
256
370
-1
 48
1.0
  6
BYLAYER
100
AcDbLine
 10
106.4184969406169898
 20
-17.911974878278194
 30
0.0
 11
108.675923250286985
 21
-5.1094740891194803
 31
0.0
  0
ARC
  5
167
100
AcDbEntity
  8
plate
 62
256
370
-1
 48
1.0
  6
BYLAYER
100
AcDbCircle
 10
-6.5
 20
6.4999999999999929
 30
0.0
 40
0.5
100
AcDbArc
 50
90.0
 51
180.0
  0
ARC
  5
168
100
AcDbEntity
  8
plate
 62
256
370
-1
 48
1.0
  6
BYLAYER
100
AcDbCircle
 10
-13.6437499999999829
 20
-50.6499999999999844
 30
0.0
 40
0.5
100
AcDbArc
 50
90.0
 51
180.0
  0
ARC
  5
169
100
AcDbEntity
  8
plate
 62
256
370
-1
 48
1.0
  6
BYLAYER
100
AcDbCircle
 10
-13.6437499999999829
 20
-12.5500000000000398
 30
0.0
 40
0.5
100
AcDbArc
 50
90.0
 51
180.0
  0
ARC
  5
16A
100
AcDbEntity
  8
plate
 62
256
370
-1
 48
1.0
  6
BYLAYER
100
AcDbCircle
 10
17.3125
 20
6.5000000000000213
 30
0.0
 40
0.5
100
AcDbArc
 50
90.0
 51
180.0
  0
ARC
  5
16B
100
AcDbEntity
  8
plate
 62
256
370
-1
 48
1.0
  6
BYLAYER
100
AcDbCircle
 10
17.3125
 20
-12.5499999999999901
 30
0.0
 40
0.5
100
AcDbArc
 50
90.0
 51
180.0
  0
ARC
  5
16C
100
AcDbEntity
  8
plate
 62
256
370
-1
 48
1.0
  6
BYLAYER
100
AcDbCircle
 10
22.0750000000000171
 20
-31.6000000000000014
 30
0.0
 40
0.5
100
AcDbArc
 50
90.0
 51
180.0
  0
ARC
  5
16D
100
AcDbEntity
  8
plate
 62
256
370
-1
 48
1.0
  6
BYLAYER
100
AcDbCircle
 10
39.0992554999745323
 20
7.1587696630491493
 30
0.0
 40
0.5
100
AcDbArc
 50
80.0
 51
170.0000000000000284
  0
ARC
  5
16E
100
AcDbEntity
  8
plate
 62
256
370
-1
 48
1.0
  6
BYLAYER
100
AcDbCircle
 10
39.0992554999745039
 20
-12.1851072933742941
 30
0.0
 40
0.5
100
AcDbArc
 50
80.0
 51
170.0000000000000284
  0
ARC
  5
16F
100
AcDbEntity
  8
plate
 62
256
370
-1
 48
1.0
  6
BYLAYER
100
AcDbCircle
 10
43.8617554999745494
 20
-32.3687414954218085
 30
0.0
 40
0.5
100
AcDbArc
 50
80.0
 51
170.0000000000000284
  0
ARC
  5
170
100
AcDbEntity
  8
plate
 62
256
370
-1
 48
1.0
  6
BYLAYER
100
AcDbCircle
 10
62.622343194857109
 20
-35.6767392799768075
 30
0.0
 40
0.5
100
AcDbArc
 50
80.0
 51
170.0000000000000284
  0
ARC
  5
171
100
AcDbEntity
  8
plate
 62
256
370
-1
 48
1.0
  6
BYLAYER
100
AcDbCircle
 10
57.8598431948571204
 20
-15.4931050779293358
 30
0.0
 40
0.5
100
AcDbArc
 50
80.0
 51
170.0000000000000284
  0
ARC
  5
172
100
AcDbEntity
  8
plate
 62
256
370
-1
 48
1.0
  6
BYLAYER
100
AcDbCircle
 10
57.8598431948571204
 20
3.8507718784941218
 30
0.0
 40
0.5
100
AcDbArc
 50
80.0
 51
170.0000000000000284
  0
ARC
  5
173
100
AcDbEntity
  8
plate
 62
256
370
-1
 48
1.0
  6
BYLAYER
100
AcDbCircle
 10
76.62043088973968
 20
0.5427740939390944
 30
0.0
 40
0.5
100
AcDbArc
 50
80.0
 51
170.0000000000000284
  0
ARC
  5
174
100
AcDbEntity
  8
plate
 62
256
370
-1
 48
1.0
  6
BYLAYER
100
AcDbCircle
 10
76.62043088973968
 20
-18.8011028624843348
 30
0.0
 40
0.5
100
AcDbArc
 50
80.0
 51
170.0000000000000284
  0
ARC
  5
175
100
AcDbEntity
  8
plate
 62
256
370
-1
 48
1.0
  6
BYLAYER
100
AcDbCircle
 10
81.3829308897396118
 20
-38.984737064531835
 30
0.0
 40
0.5
100
AcDbArc
 50
80.0
 51
170.0000000000000284
  0
ARC
  5
176
100
AcDbEntity
  8
plate
 62
256
370
-1
 48
1.0
  6
BYLAYER
100
AcDbCircle
 10
100.1435185846221998
 20
-42.2927348490868624
 30
0.0
 40
0.5
100
AcDbArc
 50
80.0
 51
170.0000000000000284
  0
ARC
  5
177
100
AcDbEntity
  8
plate
 62
256
370
-1
 48
1.0
  6
BYLAYER
100
AcDbCircle
 10
52.2791250247211252
 20
-53.1968288056512648
 30
0.0
 40
0.5
100
AcDbArc
 50
80.0
 51
170.0000000000000284
  0
ARC
  5
178
100
AcDbEntity
  8
plate
 62
256
370
-1
 48
1.0
  6
BYLAYER
100
AcDbCircle
 10
95.3810185846221543
 20
-22.1091006470393623
 30
0.0
 40
0.5
100
AcDbArc
 50
80.0
 51
170.0000000000000284
  0
ARC
  5
179
100
AcDbEntity
  8
plate
 62
256
370
-1
 48
1.0
  6
BYLAYER
100
AcDbCircle
 10
95.381018584622268
 20
-2.7652236906159331
 30
0.0
 40
0.5
100
AcDbArc
 50
80.0
 51
170.0000000000000284
  0
ARC
  5
17A
100
AcDbEntity
  8
plate
 62
256
370
-1
 48
1.0
  6
BYLAYER
100
AcDbCircle
 10
118.9041062795047878
 20
-45.6007326336418899
 30
0.0
 40
0.5
100
AcDbArc
 50
80.0
 51
170.0000000000000284
  0
ARC
  5
17B
100
AcDbEntity
  8
plate
 62
256
370
-1
 48
1.0
  6
BYLAYER
100
AcDbCircle
 10
10.1687500000000099
 20
-50.6499999999999844
 30
0.0
 40
0.5
100
AcDbArc
 50
90.0
 51
180.0
  0
ARC
  5
17C
100
AcDbEntity
  8
plate
 62
256
370
-1
 48
1.0
  6
BYLAYER
100
AcDbCircle
 10
6.5000000000000284
 20
6.4999999999999929
 30
0.0
 40
0.5
100
AcDbArc
 50
0.0
 51
90.0000000000000995
  0
ARC
  5
17D
100
AcDbEntity
  8
plate
 62
256
370
-1
 48
1.0
  6
BYLAYER
100
AcDbCircle
 10
4.1187500000000341
 20
-12.5499999999999758
 30
0.0
 40
0.5
100
AcDbArc
 50
0.0
 51
90.0000000000000995
  0
ARC
  5
17E
100
AcDbEntity
  8
plate
 62
256
370
-1
 48
1.0
  6
BYLAYER
100
AcDbCircle
 10
-0.6437499999999829
 20
-50.6499999999999844
 30
0.0
 40
0.5
100
AcDbArc
 50
0.0
 51
90.0000000000000995
  0
ARC
  5
17F
100
AcDbEntity
  8
plate
 62
256
370
-1
 48
1.0
  6
BYLAYER
100
AcDbCircle
 10
23.1687500000000099
 20
-50.6499999999999844
 30
0.0
 40
0.5
100
AcDbArc
 50
0.0
 51
90.0000000000000995
  0
ARC
  5
180
100
AcDbEntity
  8
plate
 62
256
370
-1
 48
1.0
  6
BYLAYER
100
AcDbCircle
 10
30.3125
 20
6.5000000000000213
 30
0.0
 40
0.5
100
AcDbArc
 50
0.0
 51
90.0000000000000995
  0
ARC
  5
181
100
AcDbEntity
  8
plate
 62
256
370
-1
 48
1.0
  6
BYLAYER
100
AcDbCircle
 10
30.3125
 20
-12.5499999999999901
 30
0.0
 40
0.5
100
AcDbArc
 50
0.0
 51
90.0000000000000995
  0
ARC
  5
182
100
AcDbEntity
  8
plate
 62
256
370
-1
 48
1.0
  6
BYLAYER
100
AcDbCircle
 10
35.0750000000000171
 20
-31.6000000000000014
 30
0.0
 40
0.5
100
AcDbArc
 50
0.0
 51
90.0000000000000995
  0
ARC
  5
183
100
AcDbEntity
  8
plate
 62
256
370
-1
 48
1.0
  6
BYLAYER
100
AcDbCircle
 10
51.9017562891332034
 20
4.9013433533790547
 30
0.0
 40
0.5
100
AcDbArc
 50
350.0
 51
80.0000000000000995
  0
ARC
  5
184
100
AcDbEntity
  8
plate
 62
256
370
-1
 48
1.0
  6
BYLAYER
100
AcDbCircle
 10
51.9017562891332034
 20
-14.4425336030443887
 30
0.0
 40
0.5
100
AcDbArc
 50
350.0
 51
80.0000000000000995
  0
ARC
  5
185
100
AcDbEntity
  8
plate
 62
256
370
-1
 48
1.0
  6
BYLAYER
100
AcDbCircle
 10
56.6642562891332489
 20
-34.6261678050918889
 30
0.0
 40
0.5
100
AcDbArc
 50
350.0
 51
80.0000000000000995
  0
ARC
  5
186
100
AcDbEntity
  8
plate
 62
256
370
-1
 48
1.0
  6
BYLAYER
100
AcDbCircle
 10
75.4248439840158085
 20
-37.9341655896469163
 30
0.0
 40
0.5
100
AcDbArc
 50
350.0
 51
80.0000000000000995
  0
ARC
  5
187
100
AcDbEntity
  8
plate
 62
256
370
-1
 48
1.0
  6
BYLAYER
100
AcDbCircle
 10
70.6623439840157914
 20
-17.7505313875994162
 30
0.0
 40
0.5
100
AcDbArc
 50
350.0
 51
80.0000000000000995
  0
ARC
  5
188
100
AcDbEntity
  8
plate
 62
256
370
-1
 48
1.0
  6
BYLAYER
100
AcDbCircle
 10
70.6623439840157914
 20
1.5933455688240272
 30
0.0
 40
0.5
100
AcDbArc
 50
350.0
 51
80.0000000000000995
  0
ARC
  5
189
100
AcDbEntity
  8
plate
 62
256
370
-1
 48
1.0
  6
BYLAYER
100
AcDbCircle
 10
89.422931678898351
 20
-1.714652215730986
 30
0.0
 40
0.5
100
AcDbArc
 50
350.0
 51
80.0000000000000995
  0
ARC
  5
18A
100
AcDbEntity
  8
plate
 62
256
370
-1
 48
1.0
  6
BYLAYER
100
AcDbCircle
 10
89.422931678898351
 20
-21.0585291721544436
 30
0.0
 40
0.5
100
AcDbArc
 50
350.0
 51
80.0000000000000995
  0
ARC
  5
18B
100
AcDbEntity
  8
plate
 62
256
370
-1
 48
1.0
  6
BYLAYER
100
AcDbCircle
 10
94.1854316788983965
 20
-41.2421633742019438
 30
0.0
 40
0.5
100
AcDbArc
 50
350.0
 51
80.0000000000000995
  0
ARC
  5
18C
100
AcDbEntity
  8
plate
 62
256
370
-1
 48
1.0
  6
BYLAYER
100
AcDbCircle
 10
112.9460193737808709
 20
-44.5501611587569712
 30
0.0
 40
0.5
100
AcDbArc
 50
350.0
 51
80.0000000000000995
  0
ARC
  5
18D
100
AcDbEntity
  8
plate
 62
256
370
-1
 48
1.0
  6
BYLAYER
100
AcDbCircle
 10
65.0816258138797963
 20
-55.4542551153213736
 30
0.0
 40
0.5
100
AcDbArc
 50
350.0
 51
80.0000000000000995
  0
ARC
  5
18E
100
AcDbEntity
  8
plate
 62
256
370
-1
 48
1.0
  6
BYLAYER
100
AcDbCircle
 10
108.1835193737809391
 20
-24.3665269567094427
 30
0.0
 40
0.5
100
AcDbArc
 50
350.0
 51
80.0000000000000995
  0
ARC
  5
18F
100
AcDbEntity
  8
plate
 62
256
370
-1
 48
1.0
  6
BYLAYER
100
AcDbCircle
 10
108.1835193737809391
 20
-5.0226500002860135
 30
0.0
 40
0.5
100
AcDbArc
 50
350.0
 51
80.0000000000000995
  0
ARC
  5
190
100
AcDbEntity
  8
plate
 62
256
370
-1
 48
1.0
  6
BYLAYER
100
AcDbCircle
 10
131.7066070686634589
 20
-47.8581589433119703
 30
0.0
 40
0.5
100
AcDbArc
 50
350.0
 51
80.0000000000000995
  0
ARC
  5
191
100
AcDbEntity
  8
plate
 62
256
370
-1
 48
1.0
  6
BYLAYER
100
AcDbCircle
 10
6.5000000000000284
 20
-6.5000000000000071
 30
0.0
 40
0.5
100
AcDbArc
 50
270.0
 51
0.0
  0
ARC
  5
192
100
AcDbEntity
  8
plate
 62
256
370
-1
 48
1.0
  6
BYLAYER
100
AcDbCircle
 10
4.1187500000000341
 20
-25.5499999999999616
 30
0.0
 40
0.5
100
AcDbArc
 50
270.0
 51
0.0
  0
ARC
  5
193
100
AcDbEntity
  8
plate
 62
256
370
-1
 48
1.0
  6
BYLAYER
100
AcDbCircle
 10
-0.6437499999999829
 20
-63.6499999999999844
 30
0.0
 40
0.5
100
AcDbArc
 50
270.0
 51
0.0
  0
ARC
  5
194
100
AcDbEntity
  8
plate
 62
256
370
-1
 48
1.0
  6
BYLAYER
100
AcDbCircle
 10
23.1687500000000099
 20
-63.6499999999999844
 30
0.0
 40
0.5
100
AcDbArc
 50
270.0
 51
0.0
  0
ARC
  5
195
100
AcDbEntity
  8
plate
 62
256
370
-1
 48
1.0
  6
BYLAYER
100
AcDbCircle
 10
30.3125
 20
-6.4999999999999787
 30
0.0
 40
0.5
100
AcDbArc
 50
270.0
 51
0.0
  0
ARC
  5
196
100
AcDbEntity
  8
plate
 62
256
370
-1
 48
1.0
  6
BYLAYER
100
AcDbCircle
 10
30.3125
 20
-25.5499999999999901
 30
0.0
 40
0.5
100
AcDbArc
 50
270.0
 51
0.0
  0
ARC
  5
197
100
AcDbEntity
  8
plate
 62
256
370
-1
 48
1.0
  6
BYLAYER
100
AcDbCircle
 10
35.0750000000000171
 20
-44.6000000000000014
 30
0.0
 40
0.5
100
AcDbArc
 50
270.0
 51
0.0
  0
ARC
  5
198
100
AcDbEntity
  8
plate
 62
256
370
-1
 48
1.0
  6
BYLAYER
100
AcDbCircle
 10
49.644329979463123
 20
-7.9011574357796448
 30
0.0
 40
0.5
100
AcDbArc
 50
260.0
 51
350.0
  0
ARC
  5
199
100
AcDbEntity
  8
plate
 62
256
370
-1
 48
1.0
  6
BYLAYER
100
AcDbCircle
 10
49.644329979463123
 20
-27.2450343922030882
 30
0.0
 40
0.5
100
AcDbArc
 50
260.0
 51
350.0
  0
ARC
  5
19A
100
AcDbEntity
  8
plate
 62
256
370
-1
 48
1.0
  6
BYLAYER
100
AcDbCircle
 10
54.40682997946314
 20
-47.4286685942505883
 30
0.0
 40
0.5
100
AcDbArc
 50
260.0
 51
350.0
  0
ARC
  5
19B
100
AcDbEntity
  8
plate
 62
256
370
-1
 48
1.0
  6
BYLAYER
100
AcDbCircle
 10
73.1674176743457281
 20
-50.7366663788056158
 30
0.0
 40
0.5
100
AcDbArc
 50
260.0
 51
350.0
  0
ARC
  5
19C
100
AcDbEntity
  8
plate
 62
256
370
-1
 48
1.0
  6
BYLAYER
100
AcDbCircle
 10
68.4049176743456826
 20
-30.5530321767581157
 30
0.0
 40
0.5
100
AcDbArc
 50
260.0
 51
350.0
  0
ARC
  5
19D
100
AcDbEntity
  8
plate
 62
256
370
-1
 48
1.0
  6
BYLAYER
100
AcDbCircle
 10
68.4049176743456826
 20
-11.2091552203346723
 30
0.0
 40
0.5
100
AcDbArc
 50
260.0
 51
350.0
  0
ARC
  5
19E
100
AcDbEntity
  8
plate
 62
256
370
-1
 48
1.0
  6
BYLAYER
100
AcDbCircle
 10
87.1655053692282422
 20
-14.5171530048896855
 30
0.0
 40
0.5
100
AcDbArc
 50
260.0
 51
350.0
  0
ARC
  5
19F
100
AcDbEntity
  8
plate
 62
256
370
-1
 48
1.0
  6
BYLAYER
100
AcDbCircle
 10
87.1655053692282422
 20
-33.8610299613131431
 30
0.0
 40
0.5
100
AcDbArc
 50
260.0
 51
350.0
  0
ARC
  5
1A0
100
AcDbEntity
  8
plate
 62
256
370
-1
 48
1.0
  6
BYLAYER
100
AcDbCircle
 10
91.9280053692282877
 20
-54.0446641633606433
 30
0.0
 40
0.5
100
AcDbArc
 50
260.0
 51
350.0
  0
ARC
  5
1A1
100
AcDbEntity
  8
plate
 62
256
370
-1
 48
1.0
  6
BYLAYER
100
AcDbCircle
 10
110.688593064110762
 20
-57.3526619479156423
 30
0.0
 40
0.5
100
AcDbArc
 50
260.0
 51
350.0
  0
ARC
  5
1A2
100
AcDbEntity
  8
plate
 62
256
370
-1
 48
1.0
  6
BYLAYER
100
AcDbCircle
 10
62.8241995042096875
 20
-68.2567559044800447
 30
0.0
 40
0.5
100
AcDbArc
 50
260.0
 51
350.0
  0
ARC
  5
1A3
100
AcDbEntity
  8
plate
 62
256
370
-1
 48
1.0
  6
BYLAYER
100
AcDbCircle
 10
105.9260930641108303
 20
-37.1690277458681706
 30
0.0
 40
0.5
100
AcDbArc
 50
260.0
 51
350.0
  0
ARC
  5
1A4
100
AcDbEntity
  8
plate
 62
256
370
-1
 48
1.0
  6
BYLAYER
100
AcDbCircle
 10
105.9260930641108303
 20
-17.825150789444713
 30
0.0
 40
0.5
100
AcDbArc
 50
260.0
 51
350.0
  0
ARC
  5
1A5
100
AcDbEntity
  8
plate
 62
256
370
-1
 48
1.0
  6
BYLAYER
100
AcDbCircle
 10
126.1411829744383226
 20
-79.4212474273532507
 30
0.0
 40
0.5
100
AcDbArc
 50
260.0
 51
350.0
  0
ARC
  5
1A6
100
AcDbEntity
  8
plate
 62
256
370
-1
 48
1.0
  6
BYLAYER
100
AcDbCircle
 10
-6.4999999999999716
 20
-6.5000000000000071
 30
0.0
 40
0.5
100
AcDbArc
 50
180.0
 51
270.0
  0
ARC
  5
1A7
100
AcDbEntity
  8
plate
 62
256
370
-1
 48
1.0
  6
BYLAYER
100
AcDbCircle
 10
-13.6437499999999829
 20
-63.6499999999999844
 30
0.0
 40
0.5
100
AcDbArc
 50
180.0
 51
270.0
  0
ARC
  5
1A8
100
AcDbEntity
  8
plate
 62
256
370
-1
 48
1.0
  6
BYLAYER
100
AcDbCircle
 10
-13.6437499999999829
 20
-25.5500000000000398
 30
0.0
 40
0.5
100
AcDbArc
 50
180.0
 51
270.0
  0
ARC
  5
1A9
100
AcDbEntity
  8
plate
 62
256
370
-1
 48
1.0
  6
BYLAYER
100
AcDbCircle
 10
17.3125
 20
-6.4999999999999787
 30
0.0
 40
0.5
100
AcDbArc
 50
180.0
 51
270.0
  0
ARC
  5
1AA
100
AcDbEntity
  8
plate
 62
256
370
-1
 48
1.0
  6
BYLAYER
100
AcDbCircle
 10
17.3125
 20
-25.5499999999999901
 30
0.0
 40
0.5
100
AcDbArc
 50
180.0
 51
270.0
  0
ARC
  5
1AB
100
AcDbEntity
  8
plate
 62
256
370
-1
 48
1.0
  6
BYLAYER
100
AcDbCircle
 10
22.0750000000000171
 20
-44.6000000000000014
 30
0.0
 40
0.5
100
AcDbArc
 50
180.0
 51
270.0
  0
ARC
  5
1AC
100
AcDbEntity
  8
plate
 62
256
370
-1
 48
1.0
  6
BYLAYER
100
AcDbCircle
 10
36.8418291903044235
 20
-5.6437311261095502
 30
0.0
 40
0.5
100
AcDbArc
 50
170.0000000000000284
 51
260.0
  0
ARC
  5
1AD
100
AcDbEntity
  8
plate
 62
256
370
-1
 48
1.0
  6
BYLAYER
100
AcDbCircle
 10
36.8418291903044235
 20
-24.9876080825330078
 30
0.0
 40
0.5
100
AcDbArc
 50
170.0000000000000284
 51
260.0
  0
ARC
  5
1AE
100
AcDbEntity
  8
plate
 62
256
370
-1
 48
1.0
  6
BYLAYER
100
AcDbCircle
 10
41.6043291903044405
 20
-45.1712422845805079
 30
0.0
 40
0.5
100
AcDbArc
 50
170.0000000000000284
 51
260.0
  0
ARC
  5
1AF
100
AcDbEntity
  8
plate
 62
256
370
-1
 48
1.0
  6
BYLAYER
100
AcDbCircle
 10
60.3649168851870002
 20
-48.4792400691355354
 30
0.0
 40
0.5
100
AcDbArc
 50
170.0000000000000284
 51
260.0
  0
ARC
  5
1B0
100
AcDbEntity
  8
plate
 62
256
370
-1
 48
1.0
  6
BYLAYER
100
AcDbCircle
 10
55.6024168851870115
 20
-28.2956058670880353
 30
0.0
 40
0.5
100
AcDbArc
 50
170.0000000000000284
 51
260.0
  0
ARC
  5
1B1
100
AcDbEntity
  8
plate
 62
256
370
-1
 48
1.0
  6
BYLAYER
100
AcDbCircle
 10
55.6024168851870115
 20
-8.9517289106645777
 30
0.0
 40
0.5
100
AcDbArc
 50
170.0000000000000284
 51
260.0
  0
ARC
  5
1B2
100
AcDbEntity
  8
plate
 62
256
370
-1
 48
1.0
  6
BYLAYER
100
AcDbCircle
 10
74.3630045800695711
 20
-12.2597266952196051
 30
0.0
 40
0.5
100
AcDbArc
 50
170.0000000000000284
 51
260.0
  0
ARC
  5
1B3
100
AcDbEntity
  8
plate
 62
256
370
-1
 48
1.0
  6
BYLAYER
100
AcDbCircle
 10
74.3630045800695711
 20
-31.6036036516430343
 30
0.0
 40
0.5
100
AcDbArc
 50
170.0000000000000284
 51
260.0
  0
ARC
  5
1B4
100
AcDbEntity
  8
plate
 62
256
370
-1
 48
1.0
  6
BYLAYER
100
AcDbCircle
 10
79.1255045800695029
 20
-51.7872378536905629
 30
0.0
 40
0.5
100
AcDbArc
 50
170.0000000000000284
 51
260.0
  0
ARC
  5
1B5
100
AcDbEntity
  8
plate
 62
256
370
-1
 48
1.0
  6
BYLAYER
100
AcDbCircle
 10
97.886092274952091
 20
-55.0952356382455619
 30
0.0
 40
0.5
100
AcDbArc
 50
170.0000000000000284
 51
260.0
  0
ARC
  5
1B6
100
AcDbEntity
  8
plate
 62
256
370
-1
 48
1.0
  6
BYLAYER
100
AcDbCircle
 10
50.0216987150510164
 20
-65.9993295948099643
 30
0.0
 40
0.5
100
AcDbArc
 50
170.0000000000000284
 51
260.0
  0
ARC
  5
1B7
100
AcDbEntity
  8
plate
 62
256
370
-1
 48
1.0
  6
BYLAYER
100
AcDbCircle
 10
93.1235922749520455
 20
-34.9116014361980618
 30
0.0
 40
0.5
100
AcDbArc
 50
170.0000000000000284
 51
260.0
  0
ARC
  5
1B8
100
AcDbEntity
  8
plate
 62
256
370
-1
 48
1.0
  6
BYLAYER
100
AcDbCircle
 10
93.1235922749521592
 20
-15.5677244797746326
 30
0.0
 40
0.5
100
AcDbArc
 50
170.0000000000000284
 51
260.0
  0
ARC
  5
1B9
100
AcDbEntity
  8
plate
 62
256
370
-1
 48
1.0
  6
BYLAYER
100
AcDbCircle
 10
113.3386821852796515
 20
-77.1638211176831419
 30
0.0
 40
0.5
100
AcDbArc
 50
170.0000000000000284
 51
260.0
  0
ARC
  5
1BA
100
AcDbEntity
  8
plate
 62
256
370
-1
 48
1.0
  6
BYLAYER
100
AcDbCircle
 10
10.1687500000000099
 20
-63.6499999999999844
 30
0.0
 40
0.5
100
AcDbArc
 50
180.0
 51
270.0
  0
ARC
  5
1BB
100
AcDbEntity
  8
plate
 62
256
370
-1
 48
1.0
  6
BYLAYER
100
AcDbCircle
 10
-10.3192499999999825
 20
-45.5999999999999446
 30
0.0
 40
0.5
100
AcDbArc
 50
90.0
 51
180.0
  0
ARC
  5
1BC
100
AcDbEntity
  8
plate
 62
256
370
-1
 48
1.0
  6
BYLAYER
100
AcDbCircle
 10
99.502456006422733
 20
-60.5081485647654986
 30
0.0
 40
0.5
100
AcDbArc
 50
260.0
 51
350.0
  0
ARC
  5
1BD
100
AcDbEntity
  8
plate
 62
256
370
-1
 48
1.0
  6
BYLAYER
100
AcDbCircle
 10
116.5150057137000772
 20
-53.3912247545846768
 30
0.0
 40
0.5
100
AcDbArc
 50
350.0
 51
80.0000000000000142
  0
ARC
  5
1BE
100
AcDbEntity
  8
plate
 62
256
370
-1
 48
1.0
  6
BYLAYER
100
AcDbCircle
 10
5.5567500000000507
 20
-45.5999999999999446
 30
0.0
 40
0.5
100
AcDbArc
 50
0.0
 51
89.999999999999801
  0
ARC
  5
1BF
100
AcDbEntity
  8
plate
 62
256
370
-1
 48
1.0
  6
BYLAYER
100
AcDbCircle
 10
83.8676481196009149
 20
-57.7513100961253159
 30
0.0
 40
0.5
100
AcDbArc
 50
170.0
 51
259.9999999999997726
  0
ARC
  5
1C0
100
AcDbEntity
  8
plate
 62
256
370
-1
 48
1.0
  6
BYLAYER
100
AcDbCircle
 10
113.7581672450599513
 20
-69.0260326414064878
 30
0.0
 40
0.5
100
AcDbArc
 50
260.0
 51
349.9999999999997726
  0
ARC
  5
1C1
100
AcDbEntity
  8
plate
 62
256
370
-1
 48
1.0
  6
BYLAYER
100
AcDbCircle
 10
112.3689818237244822
 20
-76.9044946655041315
 30
0.0
 40
0.5
100
AcDbArc
 50
349.9999999999994316
 51
79.9999999999992326
  0
ARC
  5
1C2
100
AcDbEntity
  8
plate
 62
256
370
-1
 48
1.0
  6
BYLAYER
100
AcDbCircle
 10
117.9041911350355463
 20
-45.5127627304870046
 30
0.0
 40
0.5
100
AcDbArc
 50
259.9999999999999432
 51
350.0000000000001137
  0
ARC
  5
1C3
100
AcDbEntity
  8
Edge cuts
 62
256
370
-1
 48
1.0
  6
BYLAYER
100
AcDbCircle
 10
70.4339187960258215
 20
3.6086278526592634
 30
0.0
 40
0.5999999999985945
100
AcDbArc
 50
80.0
 51
260.0
  0
ARC
  5
1C4
100
AcDbEntity
  8
Edge cuts
 62
256
370
-1
 48
1.0
  6
BYLAYER
100
AcDbCircle
 10
77.5245346177140249
 20
2.3583609734592046
 30
0.0
 40
0.6000000000004592
100
AcDbArc
 50
260.0
 51
80.0
  0
ARC
  5
1C5
100
AcDbEntity
  8
Edge cuts
 62
256
370
-1
 48
1.0
  6
BYLAYER
100
AcDbCircle
 10
70.6227989974198493
 20
-0.7910112540754246
 30
0.0
 40
0.5
100
AcDbArc
 50
170.0000000000000284
 51
350.0
  0
ARC
  5
1C6
100
AcDbEntity
  8
Edge cuts
 62
256
370
-1
 48
1.0
  6
BYLAYER
100
AcDbCircle
 10
75.8422800883845554
 20
-1.7113465957101539
 30
0.0
 40
0.5
100
AcDbArc
 50
170.0000000000000284
 51
350.0
  0
LINE
  5
1C7
100
AcDbEntity
  8
Edge cuts
 62
256
370
-1
 48
1.0
  6
BYLAYER
100
AcDbLine
 10
22.2075000000000031
 20
9.5250000000000004
 30
0.0
 11
43.0124884569808188
 21
9.5250000000000004
 31
0.0
  0
LINE
  5
1C8
100
AcDbEntity
  8
keycap outlines
 62
256
370
-1
 48
1.0
  6
BYLAYER
100
AcDbLine
 10
66.1404899872706977
 20
5.4623359322289833
 30
0.0
 11
82.1928563613696923
 21
2.6318706362580184
 31
0.0
  0
ARC
  5
1C9
100
AcDbEntity
  8
Edge cuts
 62
256
370
-1
 48
1.0
  6
BYLAYER
100
AcDbCircle
 10
43.0124884569808188
 20
8.5250000000000004
 30
0.0
 40
1.0
100
AcDbArc
 50
79.999999999999801
 51
90.0
  0
ARC
  5
1CA
100
AcDbEntity
  8
Edge cuts
 62
256
370
-1
 48
1.0
  6
BYLAYER
100
AcDbCircle
 10
83.3513122920488314
 20
3.4430302116032929
 30
0.0
 40
1.0
100
AcDbArc
 50
170.0000000000000284
 51
259.9999999999997726
  0
ARC
  5
1CB
100
AcDbEntity
  8
Edge cuts
 62
256
370
-1
 48
1.0
  6
BYLAYER
100
AcDbCircle
 10
110.529392633406232
 20
-3.3800518602118288
 30
0.0
 40
1.0
100
AcDbArc
 50
350.0000000000002842
 51
80.0000000000006111
  0
ARC
  5
1CC
100
AcDbEntity
  8
Edge cuts
 62
256
370
-1
 48
1.0
  6
BYLAYER
100
AcDbCircle
 10
109.5383067102095112
 20
-20.5183204044038412
 30
0.0
 40
1.0
100
AcDbArc
 50
170.0000000000002274
 51
259.9999999999997726
  0
ARC
  5
1CD
100
AcDbEntity
  8
Edge cuts
 62
256
370
-1
 48
1.0
  6
BYLAYER
100
AcDbCircle
 10
110.5293926334062178
 20
-22.7239288166352758
 30
0.0
 40
1.0
100
AcDbArc
 50
349.9999999999997726
 51
79.9999999999998579
  0
ARC
  5
1CE
100
AcDbEntity
  8
Edge cuts
 62
256
370
-1
 48
1.0
  6
BYLAYER
100
AcDbCircle
 10
109.5383067102094685
 20
-39.8621973608272739
 30
0.0
 40
1.0
100
AcDbArc
 50
169.9999999999998295
 51
259.9999999999997158
  0
ARC
  5
1CF
100
AcDbEntity
  8
Edge cuts
 62
256
370
-1
 48
1.0
  6
BYLAYER
100
AcDbCircle
 10
134.0524803282887945
 20
-46.2155608032377714
 30
0.0
 40
1.0
100
AcDbArc
 50
350.0000000000001705
 51
79.9999999999997158
  0
ARC
  5
1D0
100
AcDbEntity
  8
Edge cuts
 62
256
370
-1
 48
1.0
  6
BYLAYER
100
AcDbCircle
 10
127.7837811145125784
 20
-81.7671206869784726
 30
0.0
 40
1.0
100
AcDbArc
 50
259.9999999999999432
 51
350.0000000000001137
  0
ARC
  5
1D1
100
AcDbEntity
  8
Edge cuts
 62
256
370
-1
 48
1.0
  6
BYLAYER
100
AcDbCircle
 10
36.3458466250152057
 20
-67.6749989999984791
 30
0.0
 40
1.0
100
AcDbArc
 50
80.0000000000001847
 51
90.0
  0
ARC
  5
1D2
100
AcDbEntity
  8
Edge cuts
 62
256
370
-1
 48
1.0
  6
BYLAYER
100
AcDbCircle
 10
82.583435739993206
 20
10.6051797203247702
 30
0.0
 40
1.0
100
AcDbArc
 50
349.9999999999999432
 51
79.9999999999997584
  0
ARC
  5
1D3
100
AcDbEntity
  8
Edge cuts
 62
256
370
-1
 48
1.0
  6
BYLAYER
100
AcDbCircle
 10
68.5006848718345935
 20
13.0883486604853587
 30
0.0
 40
1.0
100
AcDbArc
 50
79.999999999999801
 51
170.0000000000000284
  0
ARC
  5
1D4
100
AcDbEntity
  8
Edge cuts
 62
256
370
-1
 48
1.0
  6
BYLAYER
100
AcDbCircle
 10
65.3294239763550166
 20
6.6207753649747403
 30
0.0
 40
1.0
100
AcDbArc
 50
260.0000000000005684
 51
350.0
  0
LINE
  5
1D5
100
AcDbEntity
  8
top outline
 62
256
370
-1
 48
1.0
  6
BYLAYER
100
AcDbLine
 10
-14.8124999999999982
 20
-8.4749999999999996
 30
0.0
 11
-14.8125
 21
9.5250000000000004
 31
0.0
  0
LINE
  5
1D6
100
AcDbEntity
  8
top outline
 62
256
370
-1
 48
1.0
  6
BYLAYER
100
AcDbLine
 10
-14.2874999999999996
 20
10.0500000000000007
 30
0.0
 11
35.5637656372592872
 21
10.0500000000000007
 31
0.0
  0
ARC
  5
1D7
100
AcDbEntity
  8
top outline
 62
256
370
-1
 48
1.0
  6
BYLAYER
100
AcDbCircle
 10
35.5637656372592872
 20
10.5750000000000011
 30
0.0
 40
0.525
100
AcDbArc
 50
270.0
 51
349.9999999999998863
  0
ARC
  5
1D8
100
AcDbEntity
  8
top outline
 62
256
370
-1
 48
1.0
  6
BYLAYER
100
AcDbCircle
 10
36.645497784555026
 20
10.6630988533535351
 30
0.0
 40
0.525
100
AcDbArc
 50
79.9999999999999574
 51
170.0000000000001137
  0
LINE
  5
1D9
100
AcDbEntity
  8
top outline
 62
256
370
-1
 48
1.0
  6
BYLAYER
100
AcDbLine
 10
109.5050642134683159
 20
-40.3386634523914367
 30
0.0
 11
135.3021015522430162
 21
-44.8873771575610974
 31
0.0
  0
LINE
  5
1DA
100
AcDbEntity
  8
plate
 62
256
370
-1
 48
1.0
  6
BYLAYER
100
AcDbLine
 10
111.6815703939008273
 20
-39.2246859631489428
 30
0.0
 11
129.6493860962284828
 21
-42.3928966558665152
 31
0.0
  0
LINE
  5
1DB
100
AcDbEntity
  8
top outline
 62
256
370
-1
 48
1.0
  6
BYLAYER
100
AcDbLine
 10
109.5050642134682874
 20
-20.9947864959680004
 30
0.0
 11
111.7790138573604395
 21
-21.3957451709585911
 31
0.0
  0
LINE
  5
1DC
100
AcDbEntity
  8
plate
 62
256
370
-1
 48
1.0
  6
BYLAYER
100
AcDbLine
 10
111.6815703939007847
 20
-19.8808090067254959
 30
0.0
 11
113.019952672431387
 21
-20.1168019129325089
 31
0.0
  0
LINE
  5
1DD
100
AcDbEntity
  8
top outline
 62
256
370
-1
 48
1.0
  6
BYLAYER
100
AcDbLine
 10
-15.337499999999995
 20
-8.9999999999999982
 30
0.0
 11
-19.0499999999999581
 21
-8.9999999999999964
 31
0.0
  0
LINE
  5
1DE
100
AcDbEntity
  8
top outline
 62
256
370
-1
 48
1.0
  6
BYLAYER
100
AcDbLine
 10
-19.5749999999999567
 20
-9.5249999999999968
 30
0.0
 11
-19.5749999999999922
 21
-27.5249999999999346
 31
0.0
  0
LINE
  5
1DF
100
AcDbEntity
  8
top outline
 62
256
370
-1
 48
1.0
  6
BYLAYER
100
AcDbLine
 10
-20.0999999999999872
 20
-28.0499999999999403
 30
0.0
 11
-23.8124999999999503
 21
-28.0499999999999297
 31
0.0
  0
LINE
  5
1E0
100
AcDbEntity
  8
top outline
 62
256
370
-1
 48
1.0
  6
BYLAYER
100
AcDbLine
 10
-24.3374999999999488
 20
-28.5749999999999318
 30
0.0
 11
-24.3374999999999808
 21
-47.6249999999999574
 31
0.0
  0
LINE
  5
1E1
100
AcDbEntity
  8
top outline
 62
256
370
-1
 48
1.0
  6
BYLAYER
100
AcDbLine
 10
-23.8124999999999822
 20
-48.1499999999999559
 30
0.0
 11
-20.0999999999999908
 21
-48.1499999999999631
 31
0.0
  0
LINE
  5
1E2
100
AcDbEntity
  8
top outline
 62
256
370
-1
 48
1.0
  6
BYLAYER
100
AcDbLine
 10
-19.5749999999999922
 20
-48.1499999999999631
 30
0.0
 11
-19.5749999999999922
 21
-48.1499999999999631
 31
0.0
  0
LINE
  5
1E3
100
AcDbEntity
  8
top outline
 62
256
370
-1
 48
1.0
  6
BYLAYER
100
AcDbLine
 10
-19.5749999999999922
 20
-48.6749999999999616
 30
0.0
 11
-19.5749999999999886
 21
-66.6749999999999545
 31
0.0
  0
ARC
  5
1E4
100
AcDbEntity
  8
top outline
 62
256
370
-1
 48
1.0
  6
BYLAYER
100
AcDbCircle
 10
-19.0499999999999972
 20
-66.6749999999999403
 30
0.0
 40
0.524999999999995
100
AcDbArc
 50
180.0
 51
270.000000000000739
  0
ARC
  5
1E5
100
AcDbEntity
  8
top outline
 62
256
370
-1
 48
1.0
  6
BYLAYER
100
AcDbCircle
 10
128.5949406898577934
 20
-82.9255766176576401
 30
0.0
 40
0.5249999999999743
100
AcDbArc
 50
260.000000000002558
 51
349.9999999999994316
  0
ARC
  5
1E6
100
AcDbEntity
  8
top outline
 62
256
370
-1
 48
1.0
  6
BYLAYER
100
AcDbCircle
 10
135.2109362589678483
 20
-45.4044012278924995
 30
0.0
 40
0.5250000000000097
100
AcDbArc
 50
349.9999999999985221
 51
79.9999999999969873
  0
ARC
  5
1E7
100
AcDbEntity
  8
top outline
 62
256
370
-1
 48
1.0
  6
BYLAYER
100
AcDbCircle
 10
111.6878485640853
 20
-21.9127692412900004
 30
0.0
 40
0.5249999999999931
100
AcDbArc
 50
349.9999999999997726
 51
79.9999999999998153
  0
ARC
  5
1E8
100
AcDbEntity
  8
top outline
 62
256
370
-1
 48
1.0
  6
BYLAYER
100
AcDbCircle
 10
111.6878485640852858
 20
-2.568892284866537
 30
0.0
 40
0.5249999999999932
100
AcDbArc
 50
349.9999999999997726
 51
79.9999999999997868
  0
ARC
  5
1E9
100
AcDbEntity
  8
top outline
 62
256
370
-1
 48
1.0
  6
BYLAYER
100
AcDbCircle
 10
-14.2874999999999996
 20
9.5250000000000004
 30
0.0
 40
0.5250000000000004
100
AcDbArc
 50
90.0
 51
180.0
  0
ARC
  5
1EA
100
AcDbEntity
  8
top outline
 62
256
370
-1
 48
1.0
  6
BYLAYER
100
AcDbCircle
 10
-19.0499999999999581
 20
-9.5249999999999968
 30
0.0
 40
0.5249999999999986
100
AcDbArc
 50
90.0
 51
180.0
  0
ARC
  5
1EB
100
AcDbEntity
  8
top outline
 62
256
370
-1
 48
1.0
  6
BYLAYER
100
AcDbCircle
 10
-23.8124999999999467
 20
-28.5749999999999318
 30
0.0
 40
0.5250000000000021
100
AcDbArc
 50
90.0000000000003979
 51
180.0
  0
ARC
  5
1EC
100
AcDbEntity
  8
top outline
 62
256
370
-1
 48
1.0
  6
BYLAYER
100
AcDbCircle
 10
-23.8124999999999787
 20
-47.6249999999999503
 30
0.0
 40
0.5250000000000021
100
AcDbArc
 50
180.0
 51
269.9999999999996021
  0
ARC
  5
1ED
100
AcDbEntity
  8
top outline
 62
256
370
-1
 48
1.0
  6
BYLAYER
100
AcDbCircle
 10
109.5962295067434269
 20
-20.4777624256365911
 30
0.0
 40
0.525
100
AcDbArc
 50
170.0000000000000284
 51
259.9999999999999432
  0
ARC
  5
1EE
100
AcDbEntity
  8
top outline
 62
256
370
-1
 48
1.0
  6
BYLAYER
100
AcDbCircle
 10
109.5962295067434553
 20
-39.8216393820600274
 30
0.0
 40
0.525
100
AcDbArc
 50
170.0000000000000284
 51
259.9999999999999432
  0
ARC
  5
1EF
100
AcDbEntity
  8
top outline
 62
256
370
-1
 48
1.0
  6
BYLAYER
100
AcDbCircle
 10
36.3414778631290929
 20
-67.7249999999999517
 30
0.0
 40
0.525
100
AcDbArc
 50
79.9999999999997584
 51
90.0000000000007816
  0
ARC
  5
1F0
100
AcDbEntity
  8
top outline
 62
256
370
-1
 48
1.0
  6
BYLAYER
100
AcDbCircle
 10
-20.0999999999999908
 20
-48.6749999999999616
 30
0.0
 40
0.525
100
AcDbArc
 50
0.0
 51
90.0
  0
ARC
  5
1F1
100
AcDbEntity
  8
top outline
 62
256
370
-1
 48
1.0
  6
BYLAYER
100
AcDbCircle
 10
-20.0999999999999872
 20
-27.5249999999999382
 30
0.0
 40
0.525
100
AcDbArc
 50
270.0
 51
0.0
  0
ARC
  5
1F2
100
AcDbEntity
  8
top outline
 62
256
370
-1
 48
1.0
  6
BYLAYER
100
AcDbCircle
 10
-15.337499999999995
 20
-8.4749999999999996
 30
0.0
 40
0.525
100
AcDbArc
 50
270.0
 51
0.0
  0
LINE
  5
1F3
100
AcDbEntity
  8
top outline
 62
256
370
-1
 48
1.0
  6
BYLAYER
100
AcDbLine
 10
-29.3374999999999631
 20
25.0500000000000007
 30
0.0
 11
44.2395169629312193
 21
25.0499999999999972
 31
0.0
  0
LINE
  5
1F4
100
AcDbEntity
  8
top outline
 62
256
370
-1
 48
1.0
  6
BYLAYER
100
AcDbLine
 10
-31.8374999999999631
 20
-74.699999999999946
 30
0.0
 11
-31.8374999999999631
 21
22.5499999999999972
 31
0.0
  0
LINE
  5
1F5
100
AcDbEntity
  8
top outline
 62
256
370
-1
 48
1.0
  6
BYLAYER
100
AcDbLine
 10
-29.3374999999999595
 20
-77.199999999999946
 30
0.0
 11
35.2938011174059625
 21
-77.199999999999946
 31
0.0
  0
LINE
  5
1F6
100
AcDbEntity
  8
top outline
 62
256
370
-1
 48
1.0
  6
BYLAYER
100
AcDbLine
 10
142.4796461643047394
 20
-35.9987058090487935
 30
0.0
 11
120.5725994499282194
 21
-32.1359024056634937
 31
0.0
  0
LINE
  5
1F7
100
AcDbEntity
  8
top outline
 62
256
370
-1
 48
1.0
  6
BYLAYER
100
AcDbLine
 10
44.6736374070985534
 20
25.0120193825305215
 30
0.0
 11
123.1327971423118299
 21
11.1775526374973353
 31
0.0
  0
ARC
  5
1F8
100
AcDbEntity
  8
top outline
 62
256
370
-1
 48
1.0
  6
BYLAYER
100
AcDbCircle
 10
-29.3374999999999631
 20
22.5499999999999972
 30
0.0
 40
2.5
100
AcDbArc
 50
90.0
 51
180.0
  0
ARC
  5
1F9
100
AcDbEntity
  8
top outline
 62
256
370
-1
 48
1.0
  6
BYLAYER
100
AcDbCircle
 10
-29.3374999999999595
 20
-74.699999999999946
 30
0.0
 40
2.5
100
AcDbArc
 50
180.0
 51
270.0
  0
ARC
  5
1FA
100
AcDbEntity
  8
top outline
 62
256
370
-1
 48
1.0
  6
BYLAYER
100
AcDbCircle
 10
132.6424768994731664
 20
-91.7880650171904051
 30
0.0
 40
2.5
100
AcDbArc
 50
260.0000000000001137
 51
350.0000000000001137
  0
ARC
  5
1FB
100
AcDbEntity
  8
top outline
 62
256
370
-1
 48
1.0
  6
BYLAYER
100
AcDbCircle
 10
35.2938011174059909
 20
-79.699999999999946
 30
0.0
 40
2.5
100
AcDbArc
 50
79.9999999999999432
 51
90.0000000000003411
  0
ARC
  5
1FC
100
AcDbEntity
  8
top outline
 62
256
370
-1
 48
1.0
  6
BYLAYER
100
AcDbCircle
 10
142.0455257201374195
 20
-38.4607251915793213
 30
0.0
 40
2.5
100
AcDbArc
 50
350.0000000000000568
 51
80.0000000000001705
  0
ARC
  5
1FD
100
AcDbEntity
  8
top outline
 62
256
370
-1
 48
1.0
  6
BYLAYER
100
AcDbCircle
 10
121.0067198940955393
 20
-29.6738830231329729
 30
0.0
 40
2.5
100
AcDbArc
 50
170.0000000000001137
 51
260.0000000000001137
  0
ARC
  5
1FE
100
AcDbEntity
  8
top outline
 62
256
370
-1
 48
1.0
  6
BYLAYER
100
AcDbCircle
 10
122.6986766981445101
 20
8.7155332549668199
 30
0.0
 40
2.5
100
AcDbArc
 50
350.0
 51
80.0000000000001137
  0
ARC
  5
1FF
100
AcDbEntity
  8
top outline
 62
256
370
-1
 48
1.0
  6
BYLAYER
100
AcDbCircle
 10
44.2395169629312335
 20
22.5500000000000007
 30
0.0
 40
2.5
100
AcDbArc
 50
80.0000000000001563
 51
90.0000000000003411
  0
LINE
  5
200
100
AcDbEntity
  8
plate
 62
256
370
-1
 48
1.0
  6
BYLAYER
100
AcDbLine
 10
36.1708749692534894
 20
-68.6749999999999403
 30
0.0
 11
-13.0499999999999972
 21
-68.6749999999999403
 31
0.0
  0
LINE
  5
201
100
AcDbEntity
  8
plate cutout
 62
256
370
-1
 48
1.0
  6
BYLAYER
100
AcDbLine
 10
36.079011872551078
 20
-69.1999999999999318
 30
0.0
 11
-13.0499999999999865
 21
-69.1999999999999176
 31
0.0
  0
LINE
  5
202
100
AcDbEntity
  8
plate
 62
256
370
-1
 48
1.0
  6
BYLAYER
100
AcDbLine
 10
-22.0499999999999901
 20
-49.6249999999999645
 30
0.0
 11
-24.8124999999999645
 21
-49.6249999999999645
 31
0.0
  0
LINE
  5
203
100
AcDbEntity
  8
plate
 62
256
370
-1
 48
1.0
  6
BYLAYER
100
AcDbLine
 10
-25.8124999999999645
 20
-48.6249999999999645
 30
0.0
 11
-25.8124999999999645
 21
-27.5749999999999247
 31
0.0
  0
LINE
  5
204
100
AcDbEntity
  8
plate
 62
256
370
-1
 48
1.0
  6
BYLAYER
100
AcDbLine
 10
-24.8124999999999645
 20
-26.5749999999999318
 30
0.0
 11
-22.0499999999999758
 21
-26.5749999999999318
 31
0.0
  0
LINE
  5
205
100
AcDbEntity
  8
plate
 62
256
370
-1
 48
1.0
  6
BYLAYER
100
AcDbLine
 10
-21.0499999999999758
 20
-25.5749999999999318
 30
0.0
 11
-21.0499999999999758
 21
-8.5249999999999986
 31
0.0
  0
LINE
  5
206
100
AcDbEntity
  8
plate
 62
256
370
-1
 48
1.0
  6
BYLAYER
100
AcDbLine
 10
-20.0499999999999723
 20
-7.5249999999999968
 30
0.0
 11
-17.2874999999999979
 21
-7.5249999999999968
 31
0.0
  0
LINE
  5
207
100
AcDbEntity
  8
plate
 62
256
370
-1
 48
1.0
  6
BYLAYER
100
AcDbLine
 10
-16.2874999999999943
 20
-6.5249999999999968
 30
0.0
 11
-16.2874999999999943
 21
10.5250000000000004
 31
0.0
  0
LINE
  5
208
100
AcDbEntity
  8
plate
 62
256
370
-1
 48
1.0
  6
BYLAYER
100
AcDbLine
 10
-8.2874999999999943
 20
11.5250000000000004
 30
0.0
 11
43.1874657840326748
 21
11.5250000000000004
 31
0.0
  0
LINE
  5
209
100
AcDbEntity
  8
plate cutout
 62
256
370
-1
 48
1.0
  6
BYLAYER
100
AcDbLine
 10
-8.2874999999999801
 20
12.0500000000000007
 30
0.0
 11
43.1874657840326606
 21
12.0500000000000007
 31
0.0
  0
LINE
  5
20A
100
AcDbEntity
  8
plate
 62
256
370
-1
 48
1.0
  6
BYLAYER
100
AcDbLine
 10
-21.0499999999999901
 20
-67.6749999999999403
 30
0.0
 11
-21.0499999999999901
 21
-50.6249999999999645
 31
0.0
  0
ARC
  5
20B
100
AcDbEntity
  8
plate
 62
256
370
-1
 48
1.0
  6
BYLAYER
100
AcDbCircle
 10
-20.0499999999999901
 20
-67.6749999999999403
 30
0.0
 40
1.0
100
AcDbArc
 50
180.0
 51
270.0000000000003979
  0
ARC
  5
20C
100
AcDbEntity
  8
plate
 62
256
370
-1
 48
1.0
  6
BYLAYER
100
AcDbCircle
 10
-22.0499999999999901
 20
-50.6249999999999645
 30
0.0
 40
1.0
100
AcDbArc
 50
0.0
 51
90.0
  0
ARC
  5
20D
100
AcDbEntity
  8
plate
 62
256
370
-1
 48
1.0
  6
BYLAYER
100
AcDbCircle
 10
-24.8124999999999645
 20
-48.6249999999999645
 30
0.0
 40
1.0
100
AcDbArc
 50
180.0
 51
270.0
  0
ARC
  5
20E
100
AcDbEntity
  8
plate
 62
256
370
-1
 48
1.0
  6
BYLAYER
100
AcDbCircle
 10
-24.8124999999999645
 20
-27.5749999999999247
 30
0.0
 40
1.0
100
AcDbArc
 50
90.0
 51
180.0
  0
ARC
  5
20F
100
AcDbEntity
  8
plate
 62
256
370
-1
 48
1.0
  6
BYLAYER
100
AcDbCircle
 10
-22.0499999999999758
 20
-25.5749999999999318
 30
0.0
 40
1.0
100
AcDbArc
 50
270.0
 51
0.0
  0
ARC
  5
210
100
AcDbEntity
  8
plate
 62
256
370
-1
 48
1.0
  6
BYLAYER
100
AcDbCircle
 10
-20.0499999999999723
 20
-8.5249999999999968
 30
0.0
 40
1.0
100
AcDbArc
 50
90.0
 51
180.0
  0
ARC
  5
211
100
AcDbEntity
  8
plate
 62
256
370
-1
 48
1.0
  6
BYLAYER
100
AcDbCircle
 10
-17.2874999999999979
 20
-6.5249999999999968
 30
0.0
 40
1.0
100
AcDbArc
 50
270.0
 51
0.0
  0
ARC
  5
212
100
AcDbEntity
  8
plate
 62
256
370
-1
 48
1.0
  6
BYLAYER
100
AcDbCircle
 10
-15.2874999999999943
 20
10.5250000000000004
 30
0.0
 40
1.0
100
AcDbArc
 50
90.0
 51
180.0
  0
ARC
  5
213
100
AcDbEntity
  8
plate
 62
256
370
-1
 48
1.0
  6
BYLAYER
100
AcDbCircle
 10
43.1874657840326819
 20
10.5249999999999986
 30
0.0
 40
1.0
100
AcDbArc
 50
80.0000000000001847
 51
90.0000000000003979
  0
ARC
  5
214
100
AcDbEntity
  8
plate
 62
256
370
-1
 48
1.0
  6
BYLAYER
100
AcDbCircle
 10
112.8463044947644107
 20
-1.757732709521258
 30
0.0
 40
1.0
100
AcDbArc
 50
350.0000000000004547
 51
79.9999999999997868
  0
ARC
  5
215
100
AcDbEntity
  8
plate
 62
256
370
-1
 48
1.0
  6
BYLAYER
100
AcDbCircle
 10
111.8552185715677183
 20
-18.8960012537132869
 30
0.0
 40
1.0
100
AcDbArc
 50
170.0000000000002842
 51
259.9999999999997726
  0
ARC
  5
216
100
AcDbEntity
  8
plate
 62
256
370
-1
 48
1.0
  6
BYLAYER
100
AcDbCircle
 10
112.8463044947644534
 20
-21.1016096659447179
 30
0.0
 40
1.0
100
AcDbArc
 50
350.0000000000003411
 51
79.9999999999998153
  0
ARC
  5
217
100
AcDbEntity
  8
plate
 62
256
370
-1
 48
1.0
  6
BYLAYER
100
AcDbCircle
 10
111.8552185715677609
 20
-38.2398782101367374
 30
0.0
 40
1.0
100
AcDbArc
 50
170.0000000000000568
 51
259.9999999999997158
  0
ARC
  5
218
100
AcDbEntity
  8
plate
 62
256
370
-1
 48
1.0
  6
BYLAYER
100
AcDbCircle
 10
136.3693921896469874
 20
-44.5932416525472135
 30
0.0
 40
1.0
100
AcDbArc
 50
349.9999999999997726
 51
79.9999999999997158
  0
ARC
  5
219
100
AcDbEntity
  8
plate
 62
256
370
-1
 48
1.0
  6
BYLAYER
100
AcDbCircle
 10
129.4061002652030652
 20
-84.0840325483367508
 30
0.0
 40
1.0
100
AcDbArc
 50
259.9999999999997726
 51
349.9999999999997726
  0
ARC
  5
21A
100
AcDbEntity
  8
plate
 62
256
370
-1
 48
1.0
  6
BYLAYER
100
AcDbCircle
 10
36.1708749692534894
 20
-69.6749999999999261
 30
0.0
 40
1.0
100
AcDbArc
 50
80.0000000000000426
 51
90.0
  0
LINE
  5
21B
100
AcDbEntity
  8
plate cutout
 62
256
370
-1
 48
1.0
  6
BYLAYER
100
AcDbLine
 10
-16.8124999999999929
 20
-6.5249999999999968
 30
0.0
 11
-16.8124999999999929
 21
10.5250000000000004
 31
0.0
  0
LINE
  5
21C
100
AcDbEntity
  8
plate cutout
 62
256
370
-1
 48
1.0
  6
BYLAYER
100
AcDbLine
 10
-17.2874999999999979
 20
-6.9999999999999964
 30
0.0
 11
-20.0499999999999723
 21
-6.9999999999999964
 31
0.0
  0
LINE
  5
21D
100
AcDbEntity
  8
plate cutout
 62
256
370
-1
 48
1.0
  6
BYLAYER
100
AcDbLine
 10
-21.5749999999999744
 20
-8.5249999999999986
 30
0.0
 11
-21.5749999999999744
 21
-25.5749999999999318
 31
0.0
  0
LINE
  5
21E
100
AcDbEntity
  8
plate cutout
 62
256
370
-1
 48
1.0
  6
BYLAYER
100
AcDbLine
 10
-22.0499999999999758
 20
-26.0499999999999332
 30
0.0
 11
-24.8124999999999645
 21
-26.0499999999999332
 31
0.0
  0
LINE
  5
21F
100
AcDbEntity
  8
plate cutout
 62
256
370
-1
 48
1.0
  6
BYLAYER
100
AcDbLine
 10
-26.3374999999999666
 20
-27.5749999999999318
 30
0.0
 11
-26.3374999999999631
 21
-48.6249999999999645
 31
0.0
  0
LINE
  5
220
100
AcDbEntity
  8
plate cutout
 62
256
370
-1
 48
1.0
  6
BYLAYER
100
AcDbLine
 10
-24.8124999999999645
 20
-50.1499999999999631
 30
0.0
 11
-22.0499999999999901
 21
-50.1499999999999631
 31
0.0
  0
LINE
  5
221
100
AcDbEntity
  8
plate cutout
 62
256
370
-1
 48
1.0
  6
BYLAYER
100
AcDbLine
 10
-21.5749999999999886
 20
-50.6249999999999645
 30
0.0
 11
-21.5749999999999957
 21
-67.6749999999999403
 31
0.0
  0
LINE
  5
222
100
AcDbEntity
  8
plate cutout
 62
256
370
-1
 48
1.0
  6
BYLAYER
100
AcDbLine
 10
137.8712240129906377
 20
-44.8580551234892866
 30
0.0
 11
130.9079320885467155
 21
-84.3488460192788239
 31
0.0
  0
LINE
  5
223
100
AcDbEntity
  8
plate cutout
 62
256
370
-1
 48
1.0
  6
BYLAYER
100
AcDbLine
 10
129.7405513895035938
 20
-41.8758725855350917
 30
0.0
 11
111.7727356871759667
 21
-38.7076618928175336
 31
0.0
  0
LINE
  5
224
100
AcDbEntity
  8
plate cutout
 62
256
370
-1
 48
1.0
  6
BYLAYER
100
AcDbLine
 10
111.3874348888869577
 20
-38.1573953257449503
 30
0.0
 11
114.3481363181080894
 21
-21.3664231368867839
 31
0.0
  0
LINE
  5
225
100
AcDbEntity
  8
plate cutout
 62
256
370
-1
 48
1.0
  6
BYLAYER
100
AcDbLine
 10
113.1111179657065264
 20
-19.5997778426011031
 30
0.0
 11
111.7727356871759241
 21
-19.3637849363940866
 31
0.0
  0
LINE
  5
226
100
AcDbEntity
  8
plate cutout
 62
256
370
-1
 48
1.0
  6
BYLAYER
100
AcDbLine
 10
111.387434888886915
 20
-18.8135183693215033
 30
0.0
 11
114.3481363181080468
 21
-2.0225461804633253
 31
0.0
  0
ARC
  5
227
100
AcDbEntity
  8
plate cutout
 62
256
370
-1
 48
1.0
  6
BYLAYER
100
AcDbCircle
 10
-15.2874999999999943
 20
10.5250000000000039
 30
0.0
 40
1.5249999999999986
100
AcDbArc
 50
90.0000000000000853
 51
180.0
  0
ARC
  5
228
100
AcDbEntity
  8
plate cutout
 62
256
370
-1
 48
1.0
  6
BYLAYER
100
AcDbCircle
 10
-17.2874999999999943
 20
-6.5249999999999924
 30
0.0
 40
0.475000000000005
100
AcDbArc
 50
269.9999999999996021
 51
360.0
  0
ARC
  5
229
100
AcDbEntity
  8
plate cutout
 62
256
370
-1
 48
1.0
  6
BYLAYER
100
AcDbCircle
 10
-20.0499999999999723
 20
-8.5250000000000021
 30
0.0
 40
1.5250000000000048
100
AcDbArc
 50
90.0
 51
180.0
  0
ARC
  5
22A
100
AcDbEntity
  8
plate cutout
 62
256
370
-1
 48
1.0
  6
BYLAYER
100
AcDbCircle
 10
-22.0499999999999758
 20
-25.5749999999999318
 30
0.0
 40
0.475000000000005
100
AcDbArc
 50
270.0
 51
0.0
  0
ARC
  5
22B
100
AcDbEntity
  8
plate cutout
 62
256
370
-1
 48
1.0
  6
BYLAYER
100
AcDbCircle
 10
-24.8124999999999716
 20
-27.5749999999999353
 30
0.0
 40
1.5249999999999986
100
AcDbArc
 50
89.99999999999973
 51
180.0
  0
ARC
  5
22C
100
AcDbEntity
  8
plate cutout
 62
256
370
-1
 48
1.0
  6
BYLAYER
100
AcDbCircle
 10
-24.812499999999968
 20
-48.6249999999999716
 30
0.0
 40
1.5249999999999986
100
AcDbArc
 50
180.0
 51
270.0000000000001137
  0
ARC
  5
22D
100
AcDbEntity
  8
plate cutout
 62
256
370
-1
 48
1.0
  6
BYLAYER
100
AcDbCircle
 10
-22.0499999999999972
 20
-50.6249999999999645
 30
0.0
 40
0.475000000000005
100
AcDbArc
 50
360.0
 51
89.9999999999991473
  0
ARC
  5
22E
100
AcDbEntity
  8
plate cutout
 62
256
370
-1
 48
1.0
  6
BYLAYER
100
AcDbCircle
 10
-20.0500000000000078
 20
-67.6749999999999119
 30
0.0
 40
1.5249999999999915
100
AcDbArc
 50
180.0
 51
270.0000000000003979
  0
ARC
  5
22F
100
AcDbEntity
  8
plate cutout
 62
256
370
-1
 48
1.0
  6
BYLAYER
100
AcDbCircle
 10
129.4061002652030936
 20
-84.0840325483367081
 30
0.0
 40
1.5250000000000572
100
AcDbArc
 50
259.9999999999979536
 51
349.9999999999978968
  0
ARC
  5
230
100
AcDbEntity
  8
plate cutout
 62
256
370
-1
 48
1.0
  6
BYLAYER
100
AcDbCircle
 10
136.3693921896470442
 20
-44.593241652547249
 30
0.0
 40
1.5250000000000004
100
AcDbArc
 50
350.0000000000009095
 51
80.0000000000021174
  0
ARC
  5
231
100
AcDbEntity
  8
plate cutout
 62
256
370
-1
 48
1.0
  6
BYLAYER
100
AcDbCircle
 10
111.8552185715677467
 20
-38.2398782101367374
 30
0.0
 40
0.4749999999999883
100
AcDbArc
 50
170.0000000000012221
 51
260.0000000000012506
  0
ARC
  5
232
100
AcDbEntity
  8
plate cutout
 62
256
370
-1
 48
1.0
  6
BYLAYER
100
AcDbCircle
 10
112.8463044947644391
 20
-21.1016096659447179
 30
0.0
 40
1.5250000000000175
100
AcDbArc
 50
350.0000000000003411
 51
79.9999999999998153
  0
ARC
  5
233
100
AcDbEntity
  8
plate cutout
 62
256
370
-1
 48
1.0
  6
BYLAYER
100
AcDbCircle
 10
111.8552185715677183
 20
-18.8960012537132904
 30
0.0
 40
0.4749999999999895
100
AcDbArc
 50
170.0000000000003979
 51
260.0000000000012506
  0
ARC
  5
234
100
AcDbEntity
  8
plate cutout
 62
256
370
-1
 48
1.0
  6
BYLAYER
100
AcDbCircle
 10
112.8463044947644534
 20
-1.757732709521272
 30
0.0
 40
1.5249999999999879
100
AcDbArc
 50
350.0000000000005116
 51
80.0000000000009095
  0
ARC
  5
235
100
AcDbEntity
  8
plate cutout
 62
256
370
-1
 48
1.0
  6
BYLAYER
100
AcDbCircle
 10
43.1874657840326606
 20
10.5250000000000004
 30
0.0
 40
1.5249999999999999
100
AcDbArc
 50
80.0000000000000995
 51
90.0
  0
ARC
  5
236
100
AcDbEntity
  8
plate cutout
 62
256
370
-1
 48
1.0
  6
BYLAYER
100
AcDbCircle
 10
36.079011872551078
 20
-70.7249999999999375
 30
0.0
 40
1.5249999999999999
100
AcDbArc
 50
79.9999999999998721
 51
90.0
  0
LINE
  5
237
100
AcDbEntity
  8
plate
 62
256
370
-1
 48
1.0
  6
BYLAYER
100
AcDbLine
 10
-14.2874999999999943
 20
12.5250000000000004
 30
0.0
 11
-14.2874999999999943
 21
14.0250000000000004
 31
0.0
  0
LINE
  5
238
100
AcDbEntity
  8
plate
 62
256
370
-1
 48
1.0
  6
BYLAYER
100
AcDbLine
 10
-9.2874999999999943
 20
12.5250000000000004
 30
0.0
 11
-9.2874999999999943
 21
14.0250000000000004
 31
0.0
  0
LINE
  5
239
100
AcDbEntity
  8
plate
 62
256
370
-1
 48
1.0
  6
BYLAYER
100
AcDbLine
 10
-15.2874999999999943
 20
11.5250000000000004
 30
0.0
 11
-15.2874999999999943
 21
11.5250000000000004
 31
0.0
  0
LINE
  5
23A
100
AcDbEntity
  8
plate
 62
256
370
-1
 48
1.0
  6
BYLAYER
100
AcDbLine
 10
107.284754332025031
 20
1.2537718625047383
 30
0.0
 11
107.5452265985254314
 21
2.7309834920230491
 31
0.0
  0
LINE
  5
23B
100
AcDbEntity
  8
plate
 62
256
370
-1
 48
1.0
  6
BYLAYER
100
AcDbLine
 10
130.8078420269076219
 20
-41.5817370805212292
 30
0.0
 11
131.0683142934080081
 21
-40.1045254510029139
 31
0.0
  0
LINE
  5
23C
100
AcDbEntity
  8
plate
 62
256
370
-1
 48
1.0
  6
BYLAYER
100
AcDbLine
 10
112.2087930970860725
 20
0.3855309741700856
 30
0.0
 11
112.4692653635864588
 21
1.8627426036883969
 31
0.0
  0
LINE
  5
23D
100
AcDbEntity
  8
plate
 62
256
370
-1
 48
1.0
  6
BYLAYER
100
AcDbLine
 10
135.7318807919686492
 20
-42.4499779688558831
 30
0.0
 11
135.9923530584690354
 21
-40.9727663393375678
 31
0.0
  0
LINE
  5
23E
100
AcDbEntity
  8
plate
 62
256
370
-1
 48
1.0
  6
BYLAYER
100
AcDbLine
 10
-14.0500000000000007
 20
-69.6749999999999403
 30
0.0
 11
-14.0500000000000007
 21
-71.1749999999999403
 31
0.0
  0
LINE
  5
23F
100
AcDbEntity
  8
plate
 62
256
370
-1
 48
1.0
  6
BYLAYER
100
AcDbLine
 10
-19.0500000000000007
 20
-69.6749999999999403
 30
0.0
 11
-19.0500000000000007
 21
-71.1749999999999403
 31
0.0
  0
LINE
  5
240
100
AcDbEntity
  8
plate
 62
256
370
-1
 48
1.0
  6
BYLAYER
100
AcDbLine
 10
128.0739961568569925
 20
-85.8799998766942281
 30
0.0
 11
127.813523890356592
 21
-87.3572115062125363
 31
0.0
  0
LINE
  5
241
100
AcDbEntity
  8
plate
 62
256
370
-1
 48
1.0
  6
BYLAYER
100
AcDbLine
 10
123.1499573917959509
 20
-85.0117589883595741
 30
0.0
 11
122.8894851252955647
 21
-86.4889706178778823
 31
0.0
  0
LINE
  5
242
100
AcDbEntity
  8
plate
 62
256
370
-1
 48
1.0
  6
BYLAYER
100
AcDbLine
 10
-11.7874999999999943
 20
16.5249999999999986
 30
0.0
 11
-11.7874999999999943
 21
16.5249999999999986
 31
0.0
  0
ARC
  5
243
100
AcDbEntity
  8
plate
 62
256
370
-1
 48
1.0
  6
BYLAYER
100
AcDbCircle
 10
-15.2874999999999943
 20
12.5250000000000004
 30
0.0
 40
1.0
100
AcDbArc
 50
270.0
 51
0.0
  0
ARC
  5
244
100
AcDbEntity
  8
plate
 62
256
370
-1
 48
1.0
  6
BYLAYER
100
AcDbCircle
 10
106.2999465790128255
 20
1.4274200401716692
 30
0.0
 40
1.0
100
AcDbArc
 50
260.0
 51
350.0
  0
ARC
  5
245
100
AcDbEntity
  8
plate
 62
256
370
-1
 48
1.0
  6
BYLAYER
100
AcDbCircle
 10
129.8230342738954164
 20
-41.4080889028542956
 30
0.0
 40
1.0
100
AcDbArc
 50
260.0
 51
350.0
  0
ARC
  5
246
100
AcDbEntity
  8
plate
 62
256
370
-1
 48
1.0
  6
BYLAYER
100
AcDbCircle
 10
-13.0499999999999989
 20
-69.6749999999999403
 30
0.0
 40
1.0
100
AcDbArc
 50
90.0
 51
180.0
  0
ARC
  5
247
100
AcDbEntity
  8
plate
 62
256
370
-1
 48
1.0
  6
BYLAYER
100
AcDbCircle
 10
129.0588039098691979
 20
-86.0536480543611617
 30
0.0
 40
1.0
100
AcDbArc
 50
80.0000000000000142
 51
170.0000000000000284
  0
ARC
  5
248
100
AcDbEntity
  8
plate
 62
256
370
-1
 48
1.0
  6
BYLAYER
100
AcDbCircle
 10
-8.2874999999999943
 20
12.5250000000000004
 30
0.0
 40
1.0
100
AcDbArc
 50
180.0
 51
270.0
  0
ARC
  5
249
100
AcDbEntity
  8
plate
 62
256
370
-1
 48
1.0
  6
BYLAYER
100
AcDbCircle
 10
113.193600850098278
 20
0.2118827965031551
 30
0.0
 40
1.0
100
AcDbArc
 50
170.0000000000000284
 51
260.0
  0
ARC
  5
24A
100
AcDbEntity
  8
plate
 62
256
370
-1
 48
1.0
  6
BYLAYER
100
AcDbCircle
 10
136.7166885449808547
 20
-42.6236261465228097
 30
0.0
 40
1.0
100
AcDbArc
 50
170.0000000000000284
 51
260.0
  0
ARC
  5
24B
100
AcDbEntity
  8
plate
 62
256
370
-1
 48
1.0
  6
BYLAYER
100
AcDbCircle
 10
-20.0499999999999972
 20
-69.6749999999999403
 30
0.0
 40
1.0
100
AcDbArc
 50
0.0
 51
90.0
  0
ARC
  5
24C
100
AcDbEntity
  8
plate
 62
256
370
-1
 48
1.0
  6
BYLAYER
100
AcDbCircle
 10
122.1651496387837454
 20
-84.8381108106926405
 30
0.0
 40
1.0
100
AcDbArc
 50
350.0
 51
80.0000000000000142
  0
ARC
  5
24D
100
AcDbEntity
  8
plate
 62
256
370
-1
 48
1.0
  6
BYLAYER
100
AcDbCircle
 10
-11.7874999999999943
 20
14.0250000000000004
 30
0.0
 40
2.5
100
AcDbArc
 50
0.0
 51
180.0
  0
ARC
  5
24E
100
AcDbEntity
  8
plate
 62
256
370
-1
 48
1.0
  6
BYLAYER
100
AcDbCircle
 10
110.0072459810559451
 20
2.296863047855723
 30
0.0
 40
2.5
100
AcDbArc
 50
350.0
 51
170.0000000000000284
  0
ARC
  5
24F
100
AcDbEntity
  8
plate
 62
256
370
-1
 48
1.0
  6
BYLAYER
100
AcDbCircle
 10
133.5303336759385218
 20
-40.5386458951702409
 30
0.0
 40
2.5
100
AcDbArc
 50
350.0
 51
170.0000000000000284
  0
ARC
  5
250
100
AcDbEntity
  8
plate
 62
256
370
-1
 48
1.0
  6
BYLAYER
100
AcDbCircle
 10
-16.5500000000000043
 20
-71.1749999999999403
 30
0.0
 40
2.5
100
AcDbArc
 50
180.0
 51
0.0
  0
ARC
  5
251
100
AcDbEntity
  8
plate
 62
256
370
-1
 48
1.0
  6
BYLAYER
100
AcDbCircle
 10
125.3515045078260783
 20
-86.9230910620452022
 30
0.0
 40
2.5
100
AcDbArc
 50
170.0000000000000284
 51
350.0
  0
ARC
  5
252
100
AcDbEntity
  8
plate cutout
 62
256
370
-1
 48
1.0
  6
BYLAYER
100
AcDbCircle
 10
129.0588039098691979
 20
-86.0536480543611617
 30
0.0
 40
0.4749999999999908
100
AcDbArc
 50
79.999999999999531
 51
169.9999999999989768
  0
ARC
  5
253
100
AcDbEntity
  8
plate cutout
 62
256
370
-1
 48
1.0
  6
BYLAYER
100
AcDbCircle
 10
106.2999465790128397
 20
1.4274200401716293
 30
0.0
 40
0.4749999999999908
100
AcDbArc
 50
259.9999999999994316
 51
349.9999999999989768
  0
ARC
  5
254
100
AcDbEntity
  8
plate cutout
 62
256
370
-1
 48
1.0
  6
BYLAYER
100
AcDbCircle
 10
129.8230342738954164
 20
-41.4080889028543382
 30
0.0
 40
0.4749999999999908
100
AcDbArc
 50
259.9999999999994316
 51
349.9999999999989768
  0
ARC
  5
255
100
AcDbEntity
  8
plate cutout
 62
256
370
-1
 48
1.0
  6
BYLAYER
100
AcDbCircle
 10
-13.0499999999999901
 20
-69.6749999999998977
 30
0.0
 40
0.4749999999999908
100
AcDbArc
 50
89.999999999999531
 51
179.9999999999989484
  0
ARC
  5
256
100
AcDbEntity
  8
plate cutout
 62
256
370
-1
 48
1.0
  6
BYLAYER
100
AcDbCircle
 10
-8.2874999999999854
 20
12.5249999999999737
 30
0.0
 40
0.4749999999999908
100
AcDbArc
 50
180.0
 51
269.9999999999995453
  0
ARC
  5
257
100
AcDbEntity
  8
plate cutout
 62
256
370
-1
 48
1.0
  6
BYLAYER
100
AcDbCircle
 10
122.1651496387837312
 20
-84.8381108106926405
 30
0.0
 40
0.4749999999999743
100
AcDbArc
 50
350.0000000000009095
 51
79.999999999999531
  0
ARC
  5
258
100
AcDbEntity
  8
plate cutout
 62
256
370
-1
 48
1.0
  6
BYLAYER
100
AcDbCircle
 10
113.1936008500983064
 20
0.2118827965031076
 30
0.0
 40
0.4749999999999743
100
AcDbArc
 50
170.0000000000009379
 51
259.9999999999994316
  0
ARC
  5
259
100
AcDbEntity
  8
plate cutout
 62
256
370
-1
 48
1.0
  6
BYLAYER
100
AcDbCircle
 10
136.7166885449808831
 20
-42.6236261465228594
 30
0.0
 40
0.4749999999999743
100
AcDbArc
 50
170.0000000000009379
 51
259.9999999999994316
  0
ARC
  5
25A
100
AcDbEntity
  8
plate cutout
 62
256
370
-1
 48
1.0
  6
BYLAYER
100
AcDbCircle
 10
-20.0500000000000007
 20
-69.6749999999998977
 30
0.0
 40
0.4749999999999743
100
AcDbArc
 50
0.000000000000916
 51
89.999999999999531
  0
ARC
  5
25B
100
AcDbEntity
  8
plate cutout
 62
256
370
-1
 48
1.0
  6
BYLAYER
100
AcDbCircle
 10
-15.2874999999999943
 20
12.5249999999999755
 30
0.0
 40
0.4749999999999743
100
AcDbArc
 50
269.9999999999995453
 51
0.0
  0
ARC
  5
25C
100
AcDbEntity
  8
plate cutout
 62
256
370
-1
 48
1.0
  6
BYLAYER
100
AcDbCircle
 10
125.3515045078260641
 20
-86.9230910620452164
 30
0.0
 40
3.0250000000000137
100
AcDbArc
 50
170.0000000000001421
 51
350.0000000000001705
  0
ARC
  5
25D
100
AcDbEntity
  8
plate cutout
 62
256
370
-1
 48
1.0
  6
BYLAYER
100
AcDbCircle
 10
110.0072459810559735
 20
2.2968630478556848
 30
0.0
 40
3.0250000000000137
100
AcDbArc
 50
350.0000000000001705
 51
170.0000000000002274
  0
ARC
  5
25E
100
AcDbEntity
  8
plate cutout
 62
256
370
-1
 48
1.0
  6
BYLAYER
100
AcDbCircle
 10
133.5303336759385502
 20
-40.5386458951702835
 30
0.0
 40
3.0250000000000137
100
AcDbArc
 50
350.0000000000001705
 51
170.0000000000002274
  0
ARC
  5
25F
100
AcDbEntity
  8
plate cutout
 62
256
370
-1
 48
1.0
  6
BYLAYER
100
AcDbCircle
 10
-16.5499999999999972
 20
-71.1749999999998977
 30
0.0
 40
3.0250000000000137
100
AcDbArc
 50
180.0000000000001705
 51
0.0000000000001527
  0
ARC
  5
260
100
AcDbEntity
  8
plate cutout
 62
256
370
-1
 48
1.0
  6
BYLAYER
100
AcDbCircle
 10
-11.7874999999999908
 20
14.0249999999999755
 30
0.0
 40
3.0250000000000137
100
AcDbArc
 50
0.0
 51
180.0
  0
LINE
  5
261
100
AcDbEntity
  8
plate cutout
 62
256
370
-1
 48
1.0
  6
BYLAYER
100
AcDbLine
 10
122.3724610549641199
 20
-86.3978053246027571
 30
0.0
 11
122.6329333214645061
 21
-84.9205936950844205
 31
0.0
  0
LINE
  5
262
100
AcDbEntity
  8
plate cutout
 62
256
370
-1
 48
1.0
  6
BYLAYER
100
AcDbLine
 10
112.9862894339179178
 20
1.7715773104132264
 30
0.0
 11
112.7258171674175316
 21
0.2943656808948889
 31
0.0
  0
LINE
  5
263
100
AcDbEntity
  8
plate cutout
 62
256
370
-1
 48
1.0
  6
BYLAYER
100
AcDbLine
 10
136.5093771288005087
 20
-41.0639316326127357
 30
0.0
 11
136.248904862300094
 21
-42.5411432621310794
 31
0.0
  0
LINE
  5
264
100
AcDbEntity
  8
plate cutout
 62
256
370
-1
 48
1.0
  6
BYLAYER
100
AcDbLine
 10
-19.5750000000000135
 20
-71.1749999999999119
 30
0.0
 11
-19.5750000000000277
 21
-69.6749999999998835
 31
0.0
  0
LINE
  5
265
100
AcDbEntity
  8
plate cutout
 62
256
370
-1
 48
1.0
  6
BYLAYER
100
AcDbLine
 10
-14.8125000000000071
 20
14.0249999999999897
 30
0.0
 11
-14.8125000000000213
 21
12.5249999999999631
 31
0.0
  0
LINE
  5
266
100
AcDbEntity
  8
plate cutout
 62
256
370
-1
 48
1.0
  6
BYLAYER
100
AcDbLine
 10
128.3305479606880226
 20
-87.4483767994876757
 30
0.0
 11
128.5910202271884089
 21
-85.9711651699693675
 31
0.0
  0
LINE
  5
267
100
AcDbEntity
  8
plate cutout
 62
256
370
-1
 48
1.0
  6
BYLAYER
100
AcDbLine
 10
107.028202528194015
 20
2.8221487852981468
 30
0.0
 11
106.7677302616936288
 21
1.3449371557798373
 31
0.0
  0
LINE
  5
268
100
AcDbEntity
  8
plate cutout
 62
256
370
-1
 48
1.0
  6
BYLAYER
100
AcDbLine
 10
130.5512902230765917
 20
-40.0133601577278171
 30
0.0
 11
130.2908179565762055
 21
-41.4905717872461253
 31
0.0
  0
LINE
  5
269
100
AcDbEntity
  8
plate cutout
 62
256
370
-1
 48
1.0
  6
BYLAYER
100
AcDbLine
 10
-13.5249999999999719
 20
-71.1749999999998977
 30
0.0
 11
-13.524999999999979
 21
-69.6749999999998977
 31
0.0
  0
LINE
  5
26A
100
AcDbEntity
  8
plate cutout
 62
256
370
-1
 48
1.0
  6
BYLAYER
100
AcDbLine
 10
-8.7624999999999655
 20
14.0249999999999684
 30
0.0
 11
-8.7624999999999744
 21
12.5249999999999737
 31
0.0
  0
LINE
  5
26B
100
AcDbEntity
  8
Edge cuts
 62
256
370
-1
 48
1.0
  6
BYLAYER
100
AcDbLine
 10
8.3675000000000015
 20
18.4450000000000003
 30
0.0
 11
20.2075000000000031
 21
18.4450000000000003
 31
0.0
  0
LINE
  5
26C
100
AcDbEntity
  8
Edge cuts
 62
256
370
-1
 48
1.0
  6
BYLAYER
100
AcDbLine
 10
75.3498762118784526
 20
-1.6245225068766891
 30
0.0
 11
71.1152028739259521
 21
-0.8778353429088898
 31
0.0
  0
CIRCLE
  5
26D
100
AcDbEntity
  8
plate
 62
256
370
-1
 48
1.0
  6
BYLAYER
100
AcDbCircle
 10
-11.7874999999999943
 20
14.0250000000000004
 30
0.0
 40
1.0999999999999996
  0
CIRCLE
  5
26E
100
AcDbEntity
  8
plate
 62
256
370
-1
 48
1.0
  6
BYLAYER
100
AcDbCircle
 10
110.0072459810559451
 20
2.296863047855723
 30
0.0
 40
1.0999999999999943
  0
CIRCLE
  5
26F
100
AcDbEntity
  8
plate
 62
256
370
-1
 48
1.0
  6
BYLAYER
100
AcDbCircle
 10
133.5303336759385218
 20
-40.5386458951702409
 30
0.0
 40
1.0999999999999943
  0
CIRCLE
  5
270
100
AcDbEntity
  8
plate
 62
256
370
-1
 48
1.0
  6
BYLAYER
100
AcDbCircle
 10
125.3515045078260783
 20
-86.9230910620452022
 30
0.0
 40
1.0999999999999943
  0
CIRCLE
  5
271
100
AcDbEntity
  8
plate
 62
256
370
-1
 48
1.0
  6
BYLAYER
100
AcDbCircle
 10
-16.5500000000000043
 20
-71.1749999999999403
 30
0.0
 40
1.1000000000000005
  0
ENDSEC
  0
SECTION
  2
OBJECTS
  0
DICTIONARY
  5
C
100
AcDbDictionary
280
0
281
1
  3
ACAD_GROUP
350
D
  3
ACAD_LAYOUT
350
1A
  3
ACAD_MLINESTYLE
350
17
  3
ACAD_PLOTSETTINGS
350
19
  3
ACAD_PLOTSTYLENAME
350
E
  3
AcDbVariableDictionary
350
272
  3
QCAD_OBJECTS
350
273
  0
DICTIONARY
  5
D
100
AcDbDictionary
280
0
281
1
  0
ACDBDICTIONARYWDFLT
  5
E
100
AcDbDictionary
281
1
  3
Normal
350
F
100
AcDbDictionaryWithDefault
340
F
  0
ACDBPLACEHOLDER
  5
F
  0
DICTIONARY
  5
17
100
AcDbDictionary
280
0
281
1
  3
Standard
350
18
  0
MLINESTYLE
  5
18
100
AcDbMlineStyle
  2
STANDARD
 70
0
  3

 62
256
 51
90.0
 52
90.0
 71
2
 49
0.5
 62
256
  6
BYLAYER
 49
-0.5
 62
256
  6
BYLAYER
  0
DICTIONARY
  5
19
100
AcDbDictionary
280
0
281
1
  0
DICTIONARY
  5
1A
100
AcDbDictionary
281
1
  3
Layout1
350
1E
  3
Layout2
350
26
  3
Model
350
22
  0
LAYOUT
  5
1E
100
AcDbPlotSettings
  1

  2
none_device
  4

  6

 40
0.0
 41
0.0
 42
0.0
 43
0.0
 44
0.0
 45
0.0
 46
0.0
 47
0.0
 48
0.0
 49
0.0
140
0.0
141
0.0
142
1.0
143
1.0
 70
688
 72
0
 73
0
 74
5
  7

 75
16
147
1.0
148
0.0
149
0.0
100
AcDbLayout
  1
Layout1
 70
1
 71
1
 10
0.0
 20
0.0
 11
420.0
 21
297.0
 12
0.0
 22
0.0
 32
0.0
 14
100000000000000000000.0
 24
100000000000000000000.0
 34
100000000000000000000.0
 15
-100000000000000000000.0
 25
-100000000000000000000.0
 35
-100000000000000000000.0
146
0.0
 13
0.0
 23
0.0
 33
0.0
 16
1.0
 26
0.0
 36
0.0
 17
0.0
 27
1.0
 37
0.0
 76
0
330
1B
  0
LAYOUT
  5
22
100
AcDbPlotSettings
  1

  2
none_device
  4

  6

 40
0.0
 41
0.0
 42
0.0
 43
0.0
 44
0.0
 45
0.0
 46
0.0
 47
0.0
 48
0.0
 49
0.0
140
0.0
141
0.0
142
1.0
143
1.0
 70
1712
 72
0
 73
0
 74
0
  7

 75
0
147
1.0
148
0.0
149
0.0
100
AcDbLayout
  1
Model
 70
1
 71
0
 10
0.0
 20
0.0
 11
12.0
 21
9.0
 12
0.0
 22
0.0
 32
0.0
 14
0.0
 24
0.0
 34
0.0
 15
0.0
 25
0.0
 35
0.0
146
0.0
 13
0.0
 23
0.0
 33
0.0
 16
1.0
 26
0.0
 36
0.0
 17
0.0
 27
1.0
 37
0.0
 76
0
330
1F
  0
LAYOUT
  5
26
100
AcDbPlotSettings
  1

  2
none_device
  4

  6

 40
0.0
 41
0.0
 42
0.0
 43
0.0
 44
0.0
 45
0.0
 46
0.0
 47
0.0
 48
0.0
 49
0.0
140
0.0
141
0.0
142
1.0
143
1.0
 70
688
 72
0
 73
0
 74
5
  7

 75
16
147
1.0
148
0.0
149
0.0
100
AcDbLayout
  1
Layout2
 70
1
 71
2
 10
0.0
 20
0.0
 11
12.0
 21
9.0
 12
0.0
 22
0.0
 32
0.0
 14
0.0
 24
0.0
 34
0.0
 15
0.0
 25
0.0
 35
0.0
146
0.0
 13
0.0
 23
0.0
 33
0.0
 16
1.0
 26
0.0
 36
0.0
 17
0.0
 27
1.0
 37
0.0
 76
0
330
23
  0
DICTIONARY
  5
272
100
AcDbDictionary
281
1
  3
DIMASSOC
350
275
  3
HIDETEXT
350
274
  0
DICTIONARYVAR
  5
274
100
DictionaryVariables
280
0
  1
2
  0
DICTIONARYVAR
  5
275
100
DictionaryVariables
280
0
  1
1
  0
DICTIONARY
  5
273
100
AcDbDictionary
281
1
  3
ColorSettings/BackgroundColor
350
276
  3
ColorSettings/ColorMode
350
277
  3
Grid/DisplayGrid00
350
278
  3
Grid/DisplayGrid01
350
279
  3
Grid/DisplayGrid02
350
27A
  3
Grid/DisplayGrid03
350
27B
  3
Grid/GridSpacingX00
350
27C
  3
Grid/GridSpacingX01
350
27D
  3
Grid/GridSpacingX02
350
27E
  3
Grid/GridSpacingX03
350
27F
  3
Grid/GridSpacingY00
350
280
  3
Grid/GridSpacingY01
350
281
  3
Grid/GridSpacingY02
350
282
  3
Grid/GridSpacingY03
350
283
  3
Grid/IsometricGrid00
350
284
  3
Grid/IsometricGrid01
350
285
  3
Grid/IsometricGrid02
350
286
  3
Grid/IsometricGrid03
350
287
  3
Grid/IsometricProjection00
350
288
  3
Grid/IsometricProjection01
350
289
  3
Grid/IsometricProjection02
350
28A
  3
Grid/IsometricProjection03
350
28B
  3
Grid/MetaGridSpacingX00
350
28C
  3
Grid/MetaGridSpacingX01
350
28D
  3
Grid/MetaGridSpacingX02
350
28E
  3
Grid/MetaGridSpacingX03
350
28F
  3
Grid/MetaGridSpacingY00
350
290
  3
Grid/MetaGridSpacingY01
350
291
  3
Grid/MetaGridSpacingY02
350
292
  3
Grid/MetaGridSpacingY03
350
293
  3
MultiPageSettings/Columns
350
294
  3
MultiPageSettings/GlueMarginsBottom
350
295
  3
MultiPageSettings/GlueMarginsLeft
350
296
  3
MultiPageSettings/GlueMarginsRight
350
297
  3
MultiPageSettings/GlueMarginsTop
350
298
  3
MultiPageSettings/PrintCropMarks
350
299
  3
MultiPageSettings/Rows
350
29A
  3
PageSettings/OffsetX
350
29B
  3
PageSettings/OffsetY
350
29C
  3
PageSettings/PageOrientation
350
29D
  3
PageSettings/PaperHeight
350
29E
  3
PageSettings/PaperWidth
350
29F
  3
PageSettings/PositionAccepted
350
2A0
  3
PageSettings/Scale
350
2A1
  3
PageSettings/ShowPaperBorders
350
2A2
  3
PageTagSettings/EnablePageTags
350
2A3
  3
PageTagSettings/TagAlignment
350
2A4
  3
PageTagSettings/TagFont
350
2A5
  3
PageTagSettings/TagPosition
350
2A6
  3
QCADVersion
350
2A7
  3
UnitSettings/PaperUnit
350
2A8
  3
ViewportCenter
350
2A9
  3
ViewportHeight
350
2AA
  3
ViewportWidth
350
2AB
  0
XRECORD
  5
276
330
273
100
AcDbXrecord
280
1
1000
Wit
  0
XRECORD
  5
277
330
273
100
AcDbXrecord
280
1
1000
FullColor
  0
XRECORD
  5
278
330
273
100
AcDbXrecord
280
1
290
1
  0
XRECORD
  5
279
330
273
100
AcDbXrecord
280
1
290
1
  0
XRECORD
  5
27A
330
273
100
AcDbXrecord
280
1
290
1
  0
XRECORD
  5
27B
330
273
100
AcDbXrecord
280
1
290
1
  0
XRECORD
  5
27C
330
273
100
AcDbXrecord
280
1
1000
auto
  0
XRECORD
  5
27D
330
273
100
AcDbXrecord
280
1
1000
auto
  0
XRECORD
  5
27E
330
273
100
AcDbXrecord
280
1
1000
auto
  0
XRECORD
  5
27F
330
273
100
AcDbXrecord
280
1
1000
auto
  0
XRECORD
  5
280
330
273
100
AcDbXrecord
280
1
1000
auto
  0
XRECORD
  5
281
330
273
100
AcDbXrecord
280
1
1000
auto
  0
XRECORD
  5
282
330
273
100
AcDbXrecord
280
1
1000
auto
  0
XRECORD
  5
283
330
273
100
AcDbXrecord
280
1
1000
auto
  0
XRECORD
  5
284
330
273
100
AcDbXrecord
280
1
290
0
  0
XRECORD
  5
285
330
273
100
AcDbXrecord
280
1
290
0
  0
XRECORD
  5
286
330
273
100
AcDbXrecord
280
1
290
0
  0
XRECORD
  5
287
330
273
100
AcDbXrecord
280
1
290
0
  0
XRECORD
  5
288
330
273
100
AcDbXrecord
280
1
 90
65537
  0
XRECORD
  5
289
330
273
100
AcDbXrecord
280
1
 90
65537
  0
XRECORD
  5
28A
330
273
100
AcDbXrecord
280
1
 90
65537
  0
XRECORD
  5
28B
330
273
100
AcDbXrecord
280
1
 90
65537
  0
XRECORD
  5
28C
330
273
100
AcDbXrecord
280
1
1000
auto
  0
XRECORD
  5
28D
330
273
100
AcDbXrecord
280
1
1000
auto
  0
XRECORD
  5
28E
330
273
100
AcDbXrecord
280
1
1000
auto
  0
XRECORD
  5
28F
330
273
100
AcDbXrecord
280
1
1000
auto
  0
XRECORD
  5
290
330
273
100
AcDbXrecord
280
1
1000
auto
  0
XRECORD
  5
291
330
273
100
AcDbXrecord
280
1
1000
auto
  0
XRECORD
  5
292
330
273
100
AcDbXrecord
280
1
1000
auto
  0
XRECORD
  5
293
330
273
100
AcDbXrecord
280
1
1000
auto
  0
XRECORD
  5
294
330
273
100
AcDbXrecord
280
1
 90
1
  0
XRECORD
  5
295
330
273
100
AcDbXrecord
280
1
 40
10.0
  0
XRECORD
  5
296
330
273
100
AcDbXrecord
280
1
 40
10.0
  0
XRECORD
  5
297
330
273
100
AcDbXrecord
280
1
 40
10.0
  0
XRECORD
  5
298
330
273
100
AcDbXrecord
280
1
 40
10.0
  0
XRECORD
  5
299
330
273
100
AcDbXrecord
280
1
290
0
  0
XRECORD
  5
29A
330
273
100
AcDbXrecord
280
1
 90
1
  0
XRECORD
  5
29B
330
273
100
AcDbXrecord
280
1
 40
-79.2215539051764779
  0
XRECORD
  5
29C
330
273
100
AcDbXrecord
280
1
 40
-131.9035909855680586
  0
XRECORD
  5
29D
330
273
100
AcDbXrecord
280
1
1000
Landscape
  0
XRECORD
  5
29E
330
273
100
AcDbXrecord
280
1
 40
297.0
  0
XRECORD
  5
29F
330
273
100
AcDbXrecord
280
1
 40
210.0
  0
XRECORD
  5
2A0
330
273
100
AcDbXrecord
280
1
290
1
  0
XRECORD
  5
2A1
330
273
100
AcDbXrecord
280
1
 40
1.1000000000000001
  0
XRECORD
  5
2A2
330
273
100
AcDbXrecord
280
1
290
1
  0
XRECORD
  5
2A3
330
273
100
AcDbXrecord
280
1
290
0
  0
XRECORD
  5
2A4
330
273
100
AcDbXrecord
280
1
1000
Inside
  0
XRECORD
  5
2A5
330
273
100
AcDbXrecord
280
1
1000
Arial,10,-1,5,50,0,0,0,0,0
  0
XRECORD
  5
2A6
330
273
100
AcDbXrecord
280
1
1000
TopLeft
  0
XRECORD
  5
2A7
330
273
100
AcDbXrecord
280
1
1000
3.28.1
  0
XRECORD
  5
2A8
330
273
100
AcDbXrecord
280
1
 90
4
  0
XRECORD
  5
2AA
330
273
100
AcDbXrecord
280
1
 40
316.9319600472028355
  0
XRECORD
  5
2AB
330
273
100
AcDbXrecord
280
1
 40
621.6294142837599566
  0
ENDSEC
  0
EOF
