999
dxflib 3.26.4.0
  0
SECTION
  2
HEADER
  9
$ACADVER
  1
AC1015
  9
$HANDSEED
  5
FFFF
  9
$ANGBASE
 50
0.0
  9
$ANGDIR
 70
1
  9
$DIMADEC
 70
0
  9
$DIMASZ
 40
0.18
  9
$DIMATFIT
 70
0
  9
$DIMAUNIT
 70
0
  9
$DIMAZIN
 70
0
  9
$DIMBLK
  1
0
  9
$DIMBLK1
  1
0
  9
$DIMBLK2
  1
0
  9
$DIMDEC
 70
4
  9
$DIMDLI
 40
0.36
  9
$DIMDSEP
 70
0
  9
$DIMEXE
 40
0.18
  9
$DIMEXO
 40
0.0625
  9
$DIMGAP
 40
0.09
  9
$DIMLFAC
 40
0.0
  9
$DIMLUNIT
 70
2
  9
$DIMSCALE
 40
0.0
  9
$DIMTAD
 70
0
  9
$DIMTIH
 70
0
  9
$DIMTSZ
 40
0.0
  9
$DIMTXT
 40
0.18
  9
$DIMZIN
 70
0
  9
$DWGCODEPAGE
  3
ANSI_1252
  9
$INSUNITS
 70
0
  9
$LTSCALE
 40
1.0
  9
$MAXACTVP
 70
64
  9
$MEASUREMENT
 70
1
  9
$MIRRTEXT
 70
0
  9
$PDMODE
 70
0
  9
$PDSIZE
 40
0.0
  0
ENDSEC
  0
SECTION
  2
TABLES
  0
TABLE
  2
VPORT
  5
8
100
AcDbSymbolTable
 70
1
  0
VPORT
  5
30
100
AcDbSymbolTableRecord
100
AcDbViewportTableRecord
  2
*Active
 70
0
 10
0.0
 20
0.0
 11
1.0
 21
1.0
 12
286.3055555555554861
 22
148.5
 13
0.0
 23
0.0
 14
10.0
 24
10.0
 15
10.0
 25
10.0
 16
0.0
 26
0.0
 36
1.0
 17
0.0
 27
0.0
 37
0.0
 40
297.0
 41
1.92798353909465
 42
50.0
 43
0.0
 44
0.0
 50
0.0
 51
0.0
 71
0
 72
100
 73
1
 74
3
 75
1
 76
1
 77
0
 78
0
281
0
 65
1
110
0.0
120
0.0
130
0.0
111
1.0
121
0.0
131
0.0
112
0.0
122
1.0
132
0.0
 79
0
146
0.0
  0
ENDTAB
  0
TABLE
  2
LTYPE
  5
5
100
AcDbSymbolTable
 70
42
  0
LTYPE
  5
16
100
AcDbSymbolTableRecord
100
AcDbLinetypeTableRecord
  2
CONTINUOUS
 70
0
  3
Solid line
 72
65
 73
0
 40
0.0
  0
LTYPE
  5
31
100
AcDbSymbolTableRecord
100
AcDbLinetypeTableRecord
  2
DASHED2
 70
0
  3
Dashed (.5x) _ _ _ _ _ _ _ _ _ _ _ _ _ _ _ _ _ 
 72
65
 73
2
 40
9.5249999999999986
 49
6.3499999999999996
 74
0
 49
-3.1749999999999998
 74
0
  0
LTYPE
  5
32
100
AcDbSymbolTableRecord
100
AcDbLinetypeTableRecord
  2
PHANTOM2
 70
0
  3
Phantom (.5x) ___ _ _ ___ _ _ ___ _ _ ___ _ _
 72
65
 73
6
 40
31.7500000000000036
 49
15.875
 74
0
 49
-3.1749999999999998
 74
0
 49
3.1749999999999998
 74
0
 49
-3.1749999999999998
 74
0
 49
3.1749999999999998
 74
0
 49
-3.1749999999999998
 74
0
  0
LTYPE
  5
33
100
AcDbSymbolTableRecord
100
AcDbLinetypeTableRecord
  2
ACAD_ISO08W100
 70
0
  3
ISO long-dash short-dash ____ __ ____ __ ____ _
 72
65
 73
4
 40
36.0
 49
24.0
 74
0
 49
-3.0
 74
0
 49
6.0
 74
0
 49
-3.0
 74
0
  0
LTYPE
  5
34
100
AcDbSymbolTableRecord
100
AcDbLinetypeTableRecord
  2
ACAD_ISO12W100
 70
0
  3
ISO dash double-dot __ . . __ . . __ . . __ . . 
 72
65
 73
6
 40
21.0
 49
12.0
 74
0
 49
-2.9500000000000002
 74
0
 49
0.1
 74
0
 49
-2.9000000000000004
 74
0
 49
0.1
 74
0
 49
-2.9500000000000002
 74
0
  0
LTYPE
  5
35
100
AcDbSymbolTableRecord
100
AcDbLinetypeTableRecord
  2
ACAD_ISO14W100
 70
0
  3
ISO dash triple-dot __ . . . __ . . . __ . . . _
 72
65
 73
8
 40
24.0000000000000036
 49
12.0
 74
0
 49
-2.9500000000000002
 74
0
 49
0.1
 74
0
 49
-2.9000000000000004
 74
0
 49
0.1
 74
0
 49
-2.9000000000000004
 74
0
 49
0.1
 74
0
 49
-2.9500000000000002
 74
0
  0
LTYPE
  5
36
100
AcDbSymbolTableRecord
100
AcDbLinetypeTableRecord
  2
BORDER
 70
0
  3
Border __ __ . __ __ . __ __ . __ __ . __ __ .
 72
65
 73
6
 40
44.4499999999999957
 49
12.6999999999999993
 74
0
 49
-6.3499999999999996
 74
0
 49
12.6999999999999993
 74
0
 49
-6.2999999999999998
 74
0
 49
0.1
 74
0
 49
-6.2999999999999998
 74
0
  0
LTYPE
  5
37
100
AcDbSymbolTableRecord
100
AcDbLinetypeTableRecord
  2
ACAD_ISO05W100
 70
0
  3
ISO long-dash double-dot ____ .. ____ .. ____ . 
 72
65
 73
6
 40
33.0000000000000071
 49
24.0
 74
0
 49
-2.9500000000000002
 74
0
 49
0.1
 74
0
 49
-2.9000000000000004
 74
0
 49
0.1
 74
0
 49
-2.9500000000000002
 74
0
  0
LTYPE
  5
38
100
AcDbSymbolTableRecord
100
AcDbLinetypeTableRecord
  2
DASHDOT
 70
0
  3
Dash Dot ____ _ ____ _
 72
65
 73
4
 40
2.0
 49
1.25
 74
0
 49
-0.25
 74
0
 49
0.25
 74
0
 49
-0.25
 74
0
  0
LTYPE
  5
39
100
AcDbSymbolTableRecord
100
AcDbLinetypeTableRecord
  2
ACAD_ISO04W100
 70
0
  3
ISO long-dash dot ____ . ____ . ____ . ____ . _
 72
65
 73
4
 40
30.0
 49
24.0
 74
0
 49
-2.9500000000000002
 74
0
 49
0.1
 74
0
 49
-2.9500000000000002
 74
0
  0
LTYPE
  5
3A
100
AcDbSymbolTableRecord
100
AcDbLinetypeTableRecord
  2
PHANTOMX2
 70
0
  3
Phantom (2x) ____________    ____    ____   _
 72
65
 73
6
 40
127.0000000000000142
 49
63.5
 74
0
 49
-12.6999999999999993
 74
0
 49
12.6999999999999993
 74
0
 49
-12.6999999999999993
 74
0
 49
12.6999999999999993
 74
0
 49
-12.6999999999999993
 74
0
  0
LTYPE
  5
3B
100
AcDbSymbolTableRecord
100
AcDbLinetypeTableRecord
  2
ACAD_ISO15W100
 70
0
  3
ISO double-dash triple-dot __ __ . . . __ __ . .
 72
65
 73
10
 40
39.0000000000000071
 49
12.0
 74
0
 49
-3.0
 74
0
 49
12.0
 74
0
 49
-2.9500000000000002
 74
0
 49
0.1
 74
0
 49
-2.9000000000000004
 74
0
 49
0.1
 74
0
 49
-2.9000000000000004
 74
0
 49
0.1
 74
0
 49
-2.9500000000000002
 74
0
  0
LTYPE
  5
3C
100
AcDbSymbolTableRecord
100
AcDbLinetypeTableRecord
  2
ACAD_ISO11W100
 70
0
  3
ISO double-dash dot __ __ . __ __ . __ __ . __ _
 72
65
 73
6
 40
33.0
 49
12.0
 74
0
 49
-3.0
 74
0
 49
12.0
 74
0
 49
-2.9500000000000002
 74
0
 49
0.1
 74
0
 49
-2.9500000000000002
 74
0
  0
LTYPE
  5
3D
100
AcDbSymbolTableRecord
100
AcDbLinetypeTableRecord
  2
BORDER2
 70
0
  3
Border (.5x) __.__.__.__.__.__.__.__.__.__.__.
 72
65
 73
6
 40
22.2250000000000014
 49
6.3499999999999996
 74
0
 49
-3.1749999999999998
 74
0
 49
6.3499999999999996
 74
0
 49
-3.125
 74
0
 49
0.1
 74
0
 49
-3.125
 74
0
  0
LTYPE
  5
3E
100
AcDbSymbolTableRecord
100
AcDbLinetypeTableRecord
  2
DOT2
 70
0
  3
Dot (.5x) ........................................
 72
65
 73
2
 40
3.1749999999999998
 49
0.1
 74
0
 49
-3.0749999999999997
 74
0
  0
LTYPE
  5
3F
100
AcDbSymbolTableRecord
100
AcDbLinetypeTableRecord
  2
ACAD_ISO10W100
 70
0
  3
ISO dash dot __ . __ . __ . __ . __ . __ . __ . 
 72
65
 73
4
 40
18.0
 49
12.0
 74
0
 49
-2.9500000000000002
 74
0
 49
0.1
 74
0
 49
-2.9500000000000002
 74
0
  0
LTYPE
  5
40
100
AcDbSymbolTableRecord
100
AcDbLinetypeTableRecord
  2
ACAD_ISO03W100
 70
0
  3
ISO dash space __    __    __    __    __    __
 72
65
 73
2
 40
30.0
 49
12.0
 74
0
 49
-18.0
 74
0
  0
LTYPE
  5
41
100
AcDbSymbolTableRecord
100
AcDbLinetypeTableRecord
  2
HIDDENX2
 70
0
  3
Hidden (2x) ____ ____ ____ ____ ____ ____ ____ 
 72
65
 73
2
 40
19.0499999999999972
 49
12.6999999999999993
 74
0
 49
-6.3499999999999996
 74
0
  0
LTYPE
  5
14
100
AcDbSymbolTableRecord
100
AcDbLinetypeTableRecord
  2
BYBLOCK
 70
0
  3

 72
65
 73
0
 40
0.0
  0
LTYPE
  5
42
100
AcDbSymbolTableRecord
100
AcDbLinetypeTableRecord
  2
DASHDOTX2
 70
0
  3
Dash dot (2x) ____  .  ____  .  ____  .  ___
 72
65
 73
4
 40
50.7999999999999972
 49
25.3999999999999986
 74
0
 49
-12.6499999999999986
 74
0
 49
0.1
 74
0
 49
-12.6499999999999986
 74
0
  0
LTYPE
  5
43
100
AcDbSymbolTableRecord
100
AcDbLinetypeTableRecord
  2
CENTER2
 70
0
  3
Center (.5x) ___ _ ___ _ ___ _ ___ _ ___ _ ___
 72
65
 73
4
 40
28.5750000000000028
 49
19.0500000000000007
 74
0
 49
-3.1749999999999998
 74
0
 49
3.1749999999999998
 74
0
 49
-3.1749999999999998
 74
0
  0
LTYPE
  5
44
100
AcDbSymbolTableRecord
100
AcDbLinetypeTableRecord
  2
ACAD_ISO02W100
 70
0
  3
ISO dash __ __ __ __ __ __ __ __ __ __ __ __ __
 72
65
 73
2
 40
15.0
 49
12.0
 74
0
 49
-3.0
 74
0
  0
LTYPE
  5
45
100
AcDbSymbolTableRecord
100
AcDbLinetypeTableRecord
  2
DIVIDE2
 70
0
  3
Divide (.5x) __..__..__..__..__..__..__..__.._
 72
65
 73
6
 40
15.8749999999999982
 49
6.3499999999999996
 74
0
 49
-3.125
 74
0
 49
0.1
 74
0
 49
-3.0750000000000002
 74
0
 49
0.1
 74
0
 49
-3.125
 74
0
  0
LTYPE
  5
46
100
AcDbSymbolTableRecord
100
AcDbLinetypeTableRecord
  2
ACAD_ISO07W100
 70
0
  3
ISO dot . . . . . . . . . . . . . . . . . . . . 
 72
65
 73
2
 40
3.0
 49
0.1
 74
0
 49
-2.8999999999999999
 74
0
  0
LTYPE
  5
47
100
AcDbSymbolTableRecord
100
AcDbLinetypeTableRecord
  2
DASHED
 70
0
  3
Dashed __ __ __ __ __
 72
65
 73
2
 40
0.75
 49
0.5
 74
0
 49
-0.25
 74
0
  0
LTYPE
  5
48
100
AcDbSymbolTableRecord
100
AcDbLinetypeTableRecord
  2
DIVIDE
 70
0
  3
Divide ____ . . ____ . . ____ . . ____ . . ____
 72
65
 73
6
 40
31.7500000000000036
 49
12.6999999999999993
 74
0
 49
-6.2999999999999998
 74
0
 49
0.1
 74
0
 49
-6.25
 74
0
 49
0.1
 74
0
 49
-6.2999999999999998
 74
0
  0
LTYPE
  5
49
100
AcDbSymbolTableRecord
100
AcDbLinetypeTableRecord
  2
CENTER
 70
0
  3
Center ____ _ ____ _ ____ _ ____ _ ____ _ ____
 72
65
 73
4
 40
50.8000000000000043
 49
31.75
 74
0
 49
-6.3499999999999996
 74
0
 49
6.3499999999999996
 74
0
 49
-6.3499999999999996
 74
0
  0
LTYPE
  5
4A
100
AcDbSymbolTableRecord
100
AcDbLinetypeTableRecord
  2
HIDDEN
 70
0
  3
Hidden __ __ __ __ __ __ __ __ __ __ __ __ __ __
 72
65
 73
2
 40
9.5249999999999986
 49
6.3499999999999996
 74
0
 49
-3.1749999999999998
 74
0
  0
LTYPE
  5
4B
100
AcDbSymbolTableRecord
100
AcDbLinetypeTableRecord
  2
DASHDOT2
 70
0
  3
Dash dot (.5x) _._._._._._._._._._._._._._._.
 72
65
 73
4
 40
12.6999999999999993
 49
6.3499999999999996
 74
0
 49
-3.125
 74
0
 49
0.1
 74
0
 49
-3.125
 74
0
  0
LTYPE
  5
4C
100
AcDbSymbolTableRecord
100
AcDbLinetypeTableRecord
  2
DASHEDX2
 70
0
  3
Dashed (2x) ____  ____  ____  ____  ____  ___
 72
65
 73
2
 40
38.0999999999999943
 49
25.3999999999999986
 74
0
 49
-12.6999999999999993
 74
0
  0
LTYPE
  5
4D
100
AcDbSymbolTableRecord
100
AcDbLinetypeTableRecord
  2
ACAD_ISO09W100
 70
0
  3
ISO long-dash double-short-dash ____ __ __ ____
 72
65
 73
6
 40
45.0
 49
24.0
 74
0
 49
-3.0
 74
0
 49
6.0
 74
0
 49
-3.0
 74
0
 49
6.0
 74
0
 49
-3.0
 74
0
  0
LTYPE
  5
4E
100
AcDbSymbolTableRecord
100
AcDbLinetypeTableRecord
  2
DOTTED
 70
0
  3
Dotted .  .  .  .
 72
65
 73
2
 40
0.2
 49
0.1
 74
0
 49
-0.1
 74
0
  0
LTYPE
  5
4F
100
AcDbSymbolTableRecord
100
AcDbLinetypeTableRecord
  2
ACAD_ISO13W100
 70
0
  3
ISO double-dash double-dot __ __ . . __ __ . . _
 72
65
 73
8
 40
36.0000000000000071
 49
12.0
 74
0
 49
-3.0
 74
0
 49
12.0
 74
0
 49
-2.9500000000000002
 74
0
 49
0.1
 74
0
 49
-2.9000000000000004
 74
0
 49
0.1
 74
0
 49
-2.9500000000000002
 74
0
  0
LTYPE
  5
50
100
AcDbSymbolTableRecord
100
AcDbLinetypeTableRecord
  2
ACAD_ISO06W100
 70
0
  3
ISO long-dash triple-dot ____ ... ____ ... ____
 72
65
 73
8
 40
36.0000000000000071
 49
24.0
 74
0
 49
-2.9500000000000002
 74
0
 49
0.1
 74
0
 49
-2.9000000000000004
 74
0
 49
0.1
 74
0
 49
-2.9000000000000004
 74
0
 49
0.1
 74
0
 49
-2.9500000000000002
 74
0
  0
LTYPE
  5
51
100
AcDbSymbolTableRecord
100
AcDbLinetypeTableRecord
  2
DOT
 70
0
  3
Dot . . . . . . . . . . . . . . . . . . . . . . . .
 72
65
 73
2
 40
6.3499999999999996
 49
0.1
 74
0
 49
-6.25
 74
0
  0
LTYPE
  5
52
100
AcDbSymbolTableRecord
100
AcDbLinetypeTableRecord
  2
DIVIDEX2
 70
0
  3
Divide (2x) ________  .  .  ________  .  .  _
 72
65
 73
6
 40
63.5
 49
25.3999999999999986
 74
0
 49
-12.6499999999999986
 74
0
 49
0.1
 74
0
 49
-12.5999999999999979
 74
0
 49
0.1
 74
0
 49
-12.6499999999999986
 74
0
  0
LTYPE
  5
15
100
AcDbSymbolTableRecord
100
AcDbLinetypeTableRecord
  2
BYLAYER
 70
0
  3

 72
65
 73
0
 40
0.0
  0
LTYPE
  5
53
100
AcDbSymbolTableRecord
100
AcDbLinetypeTableRecord
  2
CENTERX2
 70
0
  3
Center (2x) ________  __  ________  __  _____
 72
65
 73
4
 40
101.6000000000000085
 49
63.5
 74
0
 49
-12.6999999999999993
 74
0
 49
12.6999999999999993
 74
0
 49
-12.6999999999999993
 74
0
  0
LTYPE
  5
54
100
AcDbSymbolTableRecord
100
AcDbLinetypeTableRecord
  2
HIDDEN2
 70
0
  3
Hidden (.5x) _ _ _ _ _ _ _ _ _ _ _ _ _ _ _ _ _ 
 72
65
 73
2
 40
4.7624999999999993
 49
3.1749999999999998
 74
0
 49
-1.5874999999999999
 74
0
  0
LTYPE
  5
55
100
AcDbSymbolTableRecord
100
AcDbLinetypeTableRecord
  2
PHANTOM
 70
0
  3
Phantom ______  __  __  ______  __  __  ______ 
 72
65
 73
6
 40
63.5000000000000071
 49
31.75
 74
0
 49
-6.3499999999999996
 74
0
 49
6.3499999999999996
 74
0
 49
-6.3499999999999996
 74
0
 49
6.3499999999999996
 74
0
 49
-6.3499999999999996
 74
0
  0
LTYPE
  5
56
100
AcDbSymbolTableRecord
100
AcDbLinetypeTableRecord
  2
BORDERX2
 70
0
  3
Border (2x) ____  ____  .  ____  ____  .  ___
 72
65
 73
6
 40
88.8999999999999773
 49
25.3999999999999986
 74
0
 49
-12.6999999999999993
 74
0
 49
25.3999999999999986
 74
0
 49
-12.6499999999999986
 74
0
 49
0.1
 74
0
 49
-12.6499999999999986
 74
0
  0
LTYPE
  5
57
100
AcDbSymbolTableRecord
100
AcDbLinetypeTableRecord
  2
DOTX2
 70
0
  3
Dot (2x) .  .  .  .  .  .  .  .  .  .  .  .  .  .
 72
65
 73
2
 40
12.6999999999999993
 49
0.1
 74
0
 49
-12.5999999999999996
 74
0
  0
ENDTAB
  0
TABLE
  2
LAYER
  5
2
100
AcDbSymbolTable
 70
7
  0
LAYER
  5
58
100
AcDbSymbolTableRecord
100
AcDbLayerTableRecord
  2
edgecuts
 70
1
 62
7
420
16777215
  6
CONTINUOUS
370
5
390
F
  0
LAYER
  5
59
100
AcDbSymbolTableRecord
100
AcDbLayerTableRecord
  2
edge cuts plate
 70
1
 62
7
420
16777215
  6
CONTINUOUS
370
5
390
F
  0
LAYER
  5
5A
100
AcDbSymbolTableRecord
100
AcDbLayerTableRecord
  2
keycapedges
 70
1
 62
7
420
16777215
  6
CONTINUOUS
370
5
390
F
  0
LAYER
  5
5B
100
AcDbSymbolTableRecord
100
AcDbLayerTableRecord
  2
outer lines bottom
 70
0
 62
7
420
16777215
  6
CONTINUOUS
370
5
390
F
  0
LAYER
  5
5C
100
AcDbSymbolTableRecord
100
AcDbLayerTableRecord
  2
helplines
 70
1
 62
4
420
65535
  6
CONTINUOUS
370
-3
390
F
  0
LAYER
  5
10
100
AcDbSymbolTableRecord
100
AcDbLayerTableRecord
  2
0
 70
1
 62
7
420
16777215
  6
CONTINUOUS
370
25
390
F
  0
LAYER
  5
5D
100
AcDbSymbolTableRecord
100
AcDbLayerTableRecord
  2
outer lines top
 70
1
 62
7
420
16777215
  6
CONTINUOUS
370
5
390
F
  0
ENDTAB
  0
TABLE
  2
STYLE
  5
3
100
AcDbSymbolTable
 70
1
  0
STYLE
  5
5E
100
AcDbSymbolTableRecord
100
AcDbTextStyleTableRecord
  2
Standard
 70
0
 40
0.0
 41
1.0
 50
0.0
 71
0
 42
2.5
  3

  4

1001
ACAD
1000
txt
1071
0
  0
ENDTAB
  0
TABLE
  2
VIEW
  5
6
100
AcDbSymbolTable
 70
0
  0
ENDTAB
  0
TABLE
  2
UCS
  5
7
100
AcDbSymbolTable
 70
0
  0
ENDTAB
  0
TABLE
  2
APPID
  5
9
100
AcDbSymbolTable
 70
1
  0
APPID
  5
12
100
AcDbSymbolTableRecord
100
AcDbRegAppTableRecord
  2
ACAD
 70
0
  0
APPID
  5
5F
100
AcDbSymbolTableRecord
100
AcDbRegAppTableRecord
  2
QCAD
 70
0
  0
ENDTAB
  0
TABLE
  2
DIMSTYLE
  5
A
100
AcDbSymbolTable
 70
1
100
AcDbDimStyleTable
 71
0
  0
DIMSTYLE
105
27
100
AcDbSymbolTableRecord
100
AcDbDimStyleTableRecord
  2
Standard
 41
0.18
 42
0.0625
 43
3.75
 44
0.18
 70
0
 73
0
 74
0
 77
0
 78
8
140
0.18
141
2.5
143
0.03937007874016
147
0.09
171
3
172
1
271
2
272
2
274
3
278
44
283
0
284
8
340
5E
  0
ENDTAB
  0
TABLE
  2
BLOCK_RECORD
  5
1
100
AcDbSymbolTable
 70
1
  0
BLOCK_RECORD
  5
1F
100
AcDbSymbolTableRecord
100
AcDbBlockTableRecord
  2
*Model_Space
340
22
  0
BLOCK_RECORD
  5
1B
100
AcDbSymbolTableRecord
100
AcDbBlockTableRecord
  2
*Paper_Space
340
1E
  0
BLOCK_RECORD
  5
23
100
AcDbSymbolTableRecord
100
AcDbBlockTableRecord
  2
*Paper_Space0
340
26
  0
ENDTAB
  0
ENDSEC
  0
SECTION
  2
BLOCKS
  0
BLOCK
  5
20
100
AcDbEntity
  8
0
100
AcDbBlockBegin
  2
*Model_Space
 70
0
 10
0.0
 20
0.0
 30
0.0
  3
*Model_Space
  1

  0
ENDBLK
  5
21
100
AcDbEntity
  8
0
100
AcDbBlockEnd
  0
BLOCK
  5
1C
100
AcDbEntity
 67
1
  8
0
100
AcDbBlockBegin
  2
*Paper_Space
 70
0
 10
0.0
 20
0.0
 30
0.0
  3
*Paper_Space
  1

  0
ENDBLK
  5
1D
100
AcDbEntity
 67
1
  8
0
100
AcDbBlockEnd
  0
BLOCK
  5
24
100
AcDbEntity
  8
0
100
AcDbBlockBegin
  2
*Paper_Space0
 70
0
 10
0.0
 20
0.0
 30
0.0
  3
*Paper_Space0
  1

  0
ENDBLK
  5
25
100
AcDbEntity
  8
0
100
AcDbBlockEnd
  0
ENDSEC
  0
SECTION
  2
ENTITIES
  0
LINE
  5
60
100
AcDbEntity
  8
edge cuts plate
 62
256
370
-1
 48
1.0
  6
BYLAYER
100
AcDbLine
 10
12.5567499999999797
 20
-31.1000000000000227
 30
0.0
 11
-17.3192500000000535
 21
-31.1000000000000227
 31
0.0
  0
LINE
  5
61
100
AcDbEntity
  8
keycapedges
 62
256
370
-1
 48
1.0
  6
BYLAYER
100
AcDbLine
 10
33.3374999999999986
 20
-28.5749999999999602
 30
0.0
 11
33.3374999999999986
 21
-9.5250000000000057
 31
0.0
  0
LINE
  5
62
100
AcDbEntity
  8
edge cuts plate
 62
256
370
-1
 48
1.0
  6
BYLAYER
100
AcDbLine
 10
74.4560952723449105
 20
-70.8154852711338663
 30
0.0
 11
103.878211701337662
 21
-76.0033982271110915
 31
0.0
  0
LINE
  5
63
100
AcDbEntity
  8
edgecuts
 62
256
370
-1
 48
1.0
  6
CONTINUOUS
100
AcDbLine
 10
-19.0500000000000007
 20
-27.5749999999999957
 30
0.0
 11
-19.0500000000000007
 21
-10.5249999999999986
 31
0.0
  0
LINE
  5
64
100
AcDbEntity
  8
edge cuts plate
 62
256
370
-1
 48
1.0
  6
BYLAYER
100
AcDbLine
 10
36.4333409598312556
 20
-66.6749999999999972
 30
0.0
 11
-18.0499999999999972
 21
-66.6749999999999972
 31
0.0
  0
LINE
  5
65
100
AcDbEntity
  8
edge cuts plate
 62
256
370
-1
 48
1.0
  6
BYLAYER
100
AcDbLine
 10
-19.0499999999999972
 20
-65.6750000000000114
 30
0.0
 11
-19.050000000000054
 21
-48.6250000000000568
 31
0.0
  0
LINE
  5
66
100
AcDbEntity
  8
keycapedges
 62
256
370
-1
 48
1.0
  6
BYLAYER
100
AcDbLine
 10
33.3374999999999986
 20
-9.5250000000000057
 30
0.0
 11
33.3374999999999986
 21
9.5250000000000057
 31
0.0
  0
LINE
  5
67
100
AcDbEntity
  8
edge cuts plate
 62
256
370
-1
 48
1.0
  6
BYLAYER
100
AcDbLine
 10
126.6335868509443827
 20
-79.5080715161867886
 30
0.0
 11
132.199010945169448
 21
-47.9449830321455295
 31
0.0
  0
LINE
  5
68
100
AcDbEntity
  8
edgecuts
 62
256
370
-1
 48
1.0
  6
CONTINUOUS
100
AcDbLine
 10
111.5140423889775434
 20
-22.8975555471503149
 30
0.0
 11
108.5530237374542821
 21
-39.688365393930809
 31
0.0
  0
LINE
  5
69
100
AcDbEntity
  8
edge cuts plate
 62
256
370
-1
 48
1.0
  6
BYLAYER
100
AcDbLine
 10
-20.050000000000054
 20
-47.6250000000000426
 30
0.0
 11
-22.8125000000000426
 21
-47.6250000000000426
 31
0.0
  0
LINE
  5
6A
100
AcDbEntity
  8
edge cuts plate
 62
256
370
-1
 48
1.0
  6
BYLAYER
100
AcDbLine
 10
-23.8125000000000426
 20
-46.6250000000000426
 30
0.0
 11
-23.8124999999999858
 21
-29.5750000000000171
 31
0.0
  0
LINE
  5
6B
100
AcDbEntity
  8
keycapedges
 62
256
370
-1
 48
1.0
  6
BYLAYER
100
AcDbLine
 10
14.287499999999989
 20
-9.5250000000000057
 30
0.0
 11
14.287499999999989
 21
9.5250000000000057
 31
0.0
  0
LINE
  5
6C
100
AcDbEntity
  8
edge cuts plate
 62
256
370
-1
 48
1.0
  6
BYLAYER
100
AcDbLine
 10
-10.3192500000000535
 20
-45.1000000000000227
 30
0.0
 11
5.5567499999999797
 21
-45.1000000000000227
 31
0.0
  0
LINE
  5
6D
100
AcDbEntity
  8
edgecuts
 62
256
370
-1
 48
1.0
  6
CONTINUOUS
100
AcDbLine
 10
-20.0500000000000007
 20
-47.625
 30
0.0
 11
-22.8125
 21
-47.625
 31
0.0
  0
LINE
  5
6E
100
AcDbEntity
  8
edge cuts plate
 62
256
370
-1
 48
1.0
  6
BYLAYER
100
AcDbLine
 10
-22.8124999999999858
 20
-28.5750000000000171
 30
0.0
 11
-20.0499999999999972
 21
-28.5750000000000171
 31
0.0
  0
LINE
  5
6F
100
AcDbEntity
  8
edge cuts plate
 62
256
370
-1
 48
1.0
  6
BYLAYER
100
AcDbLine
 10
99.4156319175892378
 20
-61.0005524412716795
 30
0.0
 11
83.7808240307673628
 21
-58.2437139726314967
 31
0.0
  0
LINE
  5
70
100
AcDbEntity
  8
keycapedges
 62
256
370
-1
 48
1.0
  6
BYLAYER
100
AcDbLine
 10
19.0499999999999758
 20
-47.6249999999999716
 30
0.0
 11
19.0499999999999758
 21
-28.5749999999999602
 31
0.0
  0
LINE
  5
71
100
AcDbEntity
  8
edge cuts plate
 62
256
370
-1
 48
1.0
  6
BYLAYER
100
AcDbLine
 10
-19.0499999999999972
 20
-27.5750000000000171
 30
0.0
 11
-19.0499999999999972
 21
-10.5250000000000909
 31
0.0
  0
LINE
  5
72
100
AcDbEntity
  8
edge cuts plate
 62
256
370
-1
 48
1.0
  6
BYLAYER
100
AcDbLine
 10
117.0074095902061941
 20
-53.4780488434182359
 30
0.0
 11
114.2505711215659545
 21
-69.112856730240054
 31
0.0
  0
LINE
  5
73
100
AcDbEntity
  8
edgecuts
 62
256
370
-1
 48
1.0
  6
CONTINUOUS
100
AcDbLine
 10
72.6884594313051053
 20
12.3469071533262031
 30
0.0
 11
78.3944423469274483
 21
11.3407925331247181
 31
0.0
  0
LINE
  5
74
100
AcDbEntity
  8
outer lines bottom
 62
256
370
-1
 48
1.0
  6
CONTINUOUS
100
AcDbLine
 10
71.9684743671364089
 20
14.0223904325499173
 30
0.0
 11
79.6440711116244984
 21
12.6689699455236635
 31
0.0
  0
LINE
  5
75
100
AcDbEntity
  8
edge cuts plate
 62
256
370
-1
 48
1.0
  6
BYLAYER
100
AcDbLine
 10
-18.0499999999999972
 20
-9.5250000000000909
 30
0.0
 11
-15.2875000000000654
 21
-9.5250000000000909
 31
0.0
  0
LINE
  5
76
100
AcDbEntity
  8
keycapedges
 62
256
370
-1
 48
1.0
  6
BYLAYER
100
AcDbLine
 10
-19.0499999999999332
 20
-28.5749999999999531
 30
0.0
 11
-19.0499999999999332
 21
-9.5249999999999986
 31
0.0
  0
LINE
  5
77
100
AcDbEntity
  8
edge cuts plate
 62
256
370
-1
 48
1.0
  6
BYLAYER
100
AcDbLine
 10
-14.2875000000000654
 20
-8.5250000000000909
 30
0.0
 11
-14.2875000000000654
 21
8.5249999999999204
 31
0.0
  0
LINE
  5
78
100
AcDbEntity
  8
edge cuts plate
 62
256
370
-1
 48
1.0
  6
BYLAYER
100
AcDbLine
 10
-13.2875000000000654
 20
9.5249999999999204
 30
0.0
 11
43.0124884569807335
 21
9.5249999999999204
 31
0.0
  0
LINE
  5
79
100
AcDbEntity
  8
edge cuts plate
 62
256
370
-1
 48
1.0
  6
BYLAYER
100
AcDbLine
 10
43.1861366346476672
 20
9.5098077530121259
 30
0.0
 11
110.7030408110729951
 21
-2.3952441071996873
 31
0.0
  0
LINE
  5
7A
100
AcDbEntity
  8
keycapedges
 62
256
370
-1
 48
1.0
  6
BYLAYER
100
AcDbLine
 10
-19.0499999999999901
 20
-66.6749999999999545
 30
0.0
 11
-19.0499999999999901
 21
-47.6249999999999432
 31
0.0
  0
LINE
  5
7B
100
AcDbEntity
  8
edge cuts plate
 62
256
370
-1
 48
1.0
  6
BYLAYER
100
AcDbLine
 10
111.5142003864182954
 20
-3.5537000378788264
 30
0.0
 11
108.5534989571971352
 21
-20.3446722267369751
 31
0.0
  0
LINE
  5
7C
100
AcDbEntity
  8
edge cuts plate
 62
256
370
-1
 48
1.0
  6
BYLAYER
100
AcDbLine
 10
109.3646585325424354
 20
-21.5031281574161142
 30
0.0
 11
110.7030408110730519
 21
-21.7391210636231449
 31
0.0
  0
LINE
  5
7D
100
AcDbEntity
  8
keycapedges
 62
256
370
-1
 48
1.0
  6
BYLAYER
100
AcDbLine
 10
-19.0499999999999901
 20
-28.5750000000000135
 30
0.0
 11
-19.0499999999999901
 21
-9.5249999999999986
 31
0.0
  0
LINE
  5
7E
100
AcDbEntity
  8
edge cuts plate
 62
256
370
-1
 48
1.0
  6
BYLAYER
100
AcDbLine
 10
111.5142003864182954
 20
-22.897576994302284
 30
0.0
 11
108.5534989571971352
 21
-39.6885491831604043
 31
0.0
  0
LINE
  5
7F
100
AcDbEntity
  8
edgecuts
 62
256
370
-1
 48
1.0
  6
CONTINUOUS
100
AcDbLine
 10
43.1861123357939789
 20
9.5098078248719613
 30
0.0
 11
69.3440498604612117
 21
4.8974688409321026
 31
0.0
  0
LINE
  5
80
100
AcDbEntity
  8
edge cuts plate
 62
256
370
-1
 48
1.0
  6
BYLAYER
100
AcDbLine
 10
109.3646585325424354
 20
-40.8470051138395434
 30
0.0
 11
134.2261285059555007
 21
-45.2307530502256583
 31
0.0
  0
LINE
  5
81
100
AcDbEntity
  8
edgecuts
 62
256
370
-1
 48
1.0
  6
CONTINUOUS
100
AcDbLine
 10
-22.8125
 20
-28.5749999999999993
 30
0.0
 11
-20.0499999999999972
 21
-28.5749999999999993
 31
0.0
  0
LINE
  5
82
100
AcDbEntity
  8
edge cuts plate
 62
256
370
-1
 48
1.0
  6
BYLAYER
100
AcDbLine
 10
135.037288081300801
 20
-46.3892089809047974
 30
0.0
 11
128.7685888675246701
 21
-81.9407688646454915
 31
0.0
  0
LINE
  5
83
100
AcDbEntity
  8
keycapedges
 62
256
370
-1
 48
1.0
  6
BYLAYER
100
AcDbLine
 10
28.5750000000000099
 20
-66.6749999999999545
 30
0.0
 11
28.5750000000000099
 21
-47.6249999999999432
 31
0.0
  0
LINE
  5
84
100
AcDbEntity
  8
edge cuts plate
 62
256
370
-1
 48
1.0
  6
BYLAYER
100
AcDbLine
 10
127.61013293684546
 20
-82.7519284399907633
 30
0.0
 11
36.4333409598312272
 21
-66.6750000000000114
 31
0.0
  0
LINE
  5
85
100
AcDbEntity
  8
edgecuts
 62
256
370
-1
 48
1.0
  6
CONTINUOUS
100
AcDbLine
 10
78.9892642804993272
 20
3.1967562983218802
 30
0.0
 11
110.7028287201603689
 21
-2.3952097986942591
 31
0.0
  0
LINE
  5
86
100
AcDbEntity
  8
edge cuts plate
 62
256
370
-1
 48
1.0
  6
BYLAYER
100
AcDbLine
 10
-17.3192500000000535
 20
-47.1000000000000227
 30
0.0
 11
-11.3192500000000535
 21
-47.1000000000000227
 31
0.0
  0
ARC
  5
87
100
AcDbEntity
  8
edge cuts plate
 62
256
370
-1
 48
1.0
  6
BYLAYER
100
AcDbCircle
 10
127.7837811145124221
 20
-81.7671206869785578
 30
0.0
 40
1.0
100
AcDbArc
 50
259.9999999999997726
 51
349.9999999999999432
  0
LINE
  5
88
100
AcDbEntity
  8
keycapedges
 62
256
370
-1
 48
1.0
  6
BYLAYER
100
AcDbLine
 10
4.7625000000000117
 20
-66.6749999999999545
 30
0.0
 11
4.7625000000000117
 21
-47.6249999999999432
 31
0.0
  0
LINE
  5
89
100
AcDbEntity
  8
edge cuts plate
 62
256
370
-1
 48
1.0
  6
BYLAYER
100
AcDbLine
 10
106.6565825440085433
 20
-60.2464741789157756
 30
0.0
 11
100.7477360259353105
 21
-59.2045851129142022
 31
0.0
  0
LINE
  5
8A
100
AcDbEntity
  8
edgecuts
 62
256
370
-1
 48
1.0
  6
CONTINUOUS
100
AcDbLine
 10
-23.8125
 20
-46.6250000000000071
 30
0.0
 11
-23.8125
 21
-29.5750000000000028
 31
0.0
  0
ARC
  5
8B
100
AcDbEntity
  8
edge cuts plate
 62
256
370
-1
 48
1.0
  6
BYLAYER
100
AcDbCircle
 10
134.0524803282885955
 20
-46.2155608032378638
 30
0.0
 40
1.0
100
AcDbArc
 50
350.0000000000001137
 51
79.999999999999801
  0
LINE
  5
8C
100
AcDbEntity
  8
edge cuts plate
 62
256
370
-1
 48
1.0
  6
BYLAYER
100
AcDbLine
 10
116.2533313278502334
 20
-46.237098216998902
 30
0.0
 11
115.2114422618486884
 21
-52.1459447350721632
 31
0.0
  0
LINE
  5
8D
100
AcDbEntity
  8
keycapedges
 62
256
370
-1
 48
1.0
  6
BYLAYER
100
AcDbLine
 10
-14.2874999999999996
 20
-9.5249999999999986
 30
0.0
 11
-14.2874999999999996
 21
9.5249999999999986
 31
0.0
  0
ARC
  5
8E
100
AcDbEntity
  8
edge cuts plate
 62
256
370
-1
 48
1.0
  6
BYLAYER
100
AcDbCircle
 10
109.5383067102093406
 20
-39.8621973608273379
 30
0.0
 40
1.0
100
AcDbArc
 50
169.9999999999998295
 51
259.9999999999997726
  0
ARC
  5
8F
100
AcDbEntity
  8
edge cuts plate
 62
256
370
-1
 48
1.0
  6
BYLAYER
100
AcDbCircle
 10
110.5293926334060899
 20
-22.7239288166353504
 30
0.0
 40
1.0
100
AcDbArc
 50
350.0
 51
79.9999999999998153
  0
LINE
  5
90
100
AcDbEntity
  8
edgecuts
 62
256
370
-1
 48
1.0
  6
CONTINUOUS
100
AcDbLine
 10
-18.0500000000000007
 20
-9.5250000000000004
 30
0.0
 11
-15.2874999999999996
 21
-9.5250000000000004
 31
0.0
  0
LINE
  5
91
100
AcDbEntity
  8
edge cuts plate
 62
256
370
-1
 48
1.0
  6
BYLAYER
100
AcDbLine
 10
-17.8192500000000535
 20
-31.6000000000000227
 30
0.0
 11
-17.8192500000000535
 21
-46.6000000000000227
 31
0.0
  0
LINE
  5
92
100
AcDbEntity
  8
keycapedges
 62
256
370
-1
 48
1.0
  6
BYLAYER
100
AcDbLine
 10
-23.8124999999999787
 20
-28.574999999999946
 30
0.0
 11
-23.8124999999999787
 21
-47.6249999999999574
 31
0.0
  0
ARC
  5
93
100
AcDbEntity
  8
edge cuts plate
 62
256
370
-1
 48
1.0
  6
BYLAYER
100
AcDbCircle
 10
109.5383067102093406
 20
-20.5183204044039087
 30
0.0
 40
1.0
100
AcDbArc
 50
169.9999999999998295
 51
259.9999999999997726
  0
LINE
  5
94
100
AcDbEntity
  8
edgecuts
 62
256
370
-1
 48
1.0
  6
CONTINUOUS
100
AcDbLine
 10
-14.2874999999999996
 20
-8.5250000000000004
 30
0.0
 11
-14.2874999999999996
 21
8.525000000000011
 31
0.0
  0
LINE
  5
95
100
AcDbEntity
  8
edge cuts plate
 62
256
370
-1
 48
1.0
  6
BYLAYER
100
AcDbLine
 10
104.4574396666772174
 20
-75.5978184394384698
 30
0.0
 11
107.0621623316811935
 21
-60.8257021442553594
 31
0.0
  0
LINE
  5
96
100
AcDbEntity
  8
edgecuts
 62
256
370
-1
 48
1.0
  6
CONTINUOUS
100
AcDbLine
 10
36.3458522963055657
 20
-66.6750000000000256
 30
0.0
 11
-18.0499999999999972
 21
-66.6749999999999972
 31
0.0
  0
ARC
  5
97
100
AcDbEntity
  8
edge cuts plate
 62
256
370
-1
 48
1.0
  6
BYLAYER
100
AcDbCircle
 10
110.5293926334060899
 20
-3.3800518602118927
 30
0.0
 40
1.0
100
AcDbArc
 50
350.0
 51
79.9999999999997868
  0
LINE
  5
98
100
AcDbEntity
  8
keycapedges
 62
256
370
-1
 48
1.0
  6
BYLAYER
100
AcDbLine
 10
14.287499999999989
 20
-9.5250000000000057
 30
0.0
 11
14.287499999999989
 21
-28.5749999999999744
 31
0.0
  0
LINE
  5
99
100
AcDbEntity
  8
edge cuts plate
 62
256
370
-1
 48
1.0
  6
BYLAYER
100
AcDbLine
 10
117.8173670462019942
 20
-46.0051666069931855
 30
0.0
 11
116.8325592931897887
 21
-45.8315184293262803
 31
0.0
  0
LINE
  5
9A
100
AcDbEntity
  8
edgecuts
 62
256
370
-1
 48
1.0
  6
CONTINUOUS
100
AcDbLine
 10
78.1781055089736583
 20
4.3552151970463102
 30
0.0
 11
79.2056020799825689
 21
10.1823334648569155
 31
0.0
  0
ARC
  5
9B
100
AcDbEntity
  8
edge cuts plate
 62
256
370
-1
 48
1.0
  6
BYLAYER
100
AcDbCircle
 10
-18.0499999999999972
 20
-65.6750000000000114
 30
0.0
 40
1.0
100
AcDbArc
 50
180.0
 51
269.9999999999997726
  0
ARC
  5
9C
100
AcDbEntity
  8
edge cuts plate
 62
256
370
-1
 48
1.0
  6
BYLAYER
100
AcDbCircle
 10
-20.050000000000054
 20
-48.6250000000000426
 30
0.0
 40
1.0
100
AcDbArc
 50
360.0
 51
90.0
  0
ARC
  5
9D
100
AcDbEntity
  8
edge cuts plate
 62
256
370
-1
 48
1.0
  6
BYLAYER
100
AcDbCircle
 10
-22.8125000000000426
 20
-46.6250000000000426
 30
0.0
 40
1.0
100
AcDbArc
 50
180.0
 51
270.0
  0
ARC
  5
9E
100
AcDbEntity
  8
edge cuts plate
 62
256
370
-1
 48
1.0
  6
BYLAYER
100
AcDbCircle
 10
-22.8124999999999858
 20
-29.5750000000000171
 30
0.0
 40
1.0
100
AcDbArc
 50
90.0
 51
180.0
  0
LINE
  5
9F
100
AcDbEntity
  8
keycapedges
 62
256
370
-1
 48
1.0
  6
BYLAYER
100
AcDbLine
 10
33.3374999999999986
 20
9.5250000000000057
 30
0.0
 11
-14.2874999999999996
 21
9.5249999999999986
 31
0.0
  0
LINE
  5
A0
100
AcDbEntity
  8
edge cuts plate
 62
256
370
-1
 48
1.0
  6
BYLAYER
100
AcDbLine
 10
-10.8192500000000535
 20
-45.6000000000000227
 30
0.0
 11
-10.8192500000000535
 21
-46.6000000000000227
 31
0.0
  0
LINE
  5
A1
100
AcDbEntity
  8
edgecuts
 62
256
370
-1
 48
1.0
  6
CONTINUOUS
100
AcDbLine
 10
-13.2874999999999996
 20
9.5250000000000004
 30
0.0
 11
7.6704999999999988
 21
9.5250000000000004
 31
0.0
  0
ARC
  5
A2
100
AcDbEntity
  8
edge cuts plate
 62
256
370
-1
 48
1.0
  6
BYLAYER
100
AcDbCircle
 10
-20.0499999999999972
 20
-27.5750000000000171
 30
0.0
 40
1.0
100
AcDbArc
 50
270.0
 51
0.0
  0
LINE
  5
A3
100
AcDbEntity
  8
edge cuts plate
 62
256
370
-1
 48
1.0
  6
BYLAYER
100
AcDbLine
 10
99.9948598829287931
 20
-60.5949726535990578
 30
0.0
 11
100.1685080605957552
 21
-59.6101649005868239
 31
0.0
  0
LINE
  5
A4
100
AcDbEntity
  8
keycapedges
 62
256
370
-1
 48
1.0
  6
BYLAYER
100
AcDbLine
 10
-19.0499999999999332
 20
-9.5249999999999986
 30
0.0
 11
33.3374999999999986
 21
-9.5250000000000057
 31
0.0
  0
LINE
  5
A5
100
AcDbEntity
  8
edge cuts plate
 62
256
370
-1
 48
1.0
  6
BYLAYER
100
AcDbLine
 10
116.601829802533544
 20
-52.8988208780786522
 30
0.0
 11
115.6170220495213385
 21
-52.7251727004117186
 31
0.0
  0
LINE
  5
A6
100
AcDbEntity
  8
edgecuts
 62
256
370
-1
 48
1.0
  6
CONTINUOUS
100
AcDbLine
 10
19.9044999999999987
 20
10.5250000000000004
 30
0.0
 11
19.9044999999999987
 21
16.4420000000000002
 31
0.0
  0
LINE
  5
A7
100
AcDbEntity
  8
outer lines bottom
 62
256
370
-1
 48
1.0
  6
CONTINUOUS
100
AcDbLine
 10
20.4294999999999973
 20
10.5750000000000046
 30
0.0
 11
20.4294999999999973
 21
18.4420000000000002
 31
0.0
  0
ARC
  5
A8
100
AcDbEntity
  8
edge cuts plate
 62
256
370
-1
 48
1.0
  6
BYLAYER
100
AcDbCircle
 10
-18.0499999999999972
 20
-10.5250000000000625
 30
0.0
 40
1.0
100
AcDbArc
 50
90.0
 51
180.0
  0
LINE
  5
A9
100
AcDbEntity
  8
edgecuts
 62
256
370
-1
 48
1.0
  6
CONTINUOUS
100
AcDbLine
 10
109.3641741073853666
 20
-40.8468399858706519
 30
0.0
 11
134.225864972391463
 21
-45.2307761901785099
 31
0.0
  0
ARC
  5
AA
100
AcDbEntity
  8
edge cuts plate
 62
256
370
-1
 48
1.0
  6
BYLAYER
100
AcDbCircle
 10
-15.2875000000000654
 20
-8.5250000000000909
 30
0.0
 40
1.0
100
AcDbArc
 50
270.0
 51
0.0
  0
LINE
  5
AB
100
AcDbEntity
  8
keycapedges
 62
256
370
-1
 48
1.0
  6
BYLAYER
100
AcDbLine
 10
-23.8124999999999787
 20
-28.574999999999946
 30
0.0
 11
38.0999999999999872
 21
-28.5749999999999602
 31
0.0
  0
ARC
  5
AC
100
AcDbEntity
  8
edge cuts plate
 62
256
370
-1
 48
1.0
  6
BYLAYER
100
AcDbCircle
 10
-17.3192500000000535
 20
-31.6000000000000227
 30
0.0
 40
0.5
100
AcDbArc
 50
90.0
 51
180.0
  0
LINE
  5
AD
100
AcDbEntity
  8
edgecuts
 62
256
370
-1
 48
1.0
  6
CONTINUOUS
100
AcDbLine
 10
111.5139848924620765
 20
-3.5536834374410597
 30
0.0
 11
108.5530026346117296
 21
-20.3444779879130166
 31
0.0
  0
ARC
  5
AE
100
AcDbEntity
  8
edge cuts plate
 62
256
370
-1
 48
1.0
  6
BYLAYER
100
AcDbCircle
 10
-13.2875000000000654
 20
8.5249999999999204
 30
0.0
 40
1.0
100
AcDbArc
 50
90.0
 51
180.0
  0
ARC
  5
AF
100
AcDbEntity
  8
edge cuts plate
 62
256
370
-1
 48
1.0
  6
BYLAYER
100
AcDbCircle
 10
103.9650357901711146
 20
-75.5109943506049888
 30
0.0
 40
0.5
100
AcDbArc
 50
260.0
 51
350.0
  0
LINE
  5
B0
100
AcDbEntity
  8
keycapedges
 62
256
370
-1
 48
1.0
  6
BYLAYER
100
AcDbLine
 10
-23.8124999999999787
 20
-47.6249999999999574
 30
0.0
 11
38.0999999999999872
 21
-47.6249999999999574
 31
0.0
  0
ARC
  5
B1
100
AcDbEntity
  8
edge cuts plate
 62
256
370
-1
 48
1.0
  6
BYLAYER
100
AcDbCircle
 10
-17.3192500000000535
 20
-46.6000000000000227
 30
0.0
 40
0.5
100
AcDbArc
 50
180.0
 51
270.0
  0
LINE
  5
B2
100
AcDbEntity
  8
edgecuts
 62
256
370
-1
 48
1.0
  6
CONTINUOUS
100
AcDbLine
 10
135.037021954798206
 20
-46.389213281110699
 30
0.0
 11
128.7689782423485383
 21
-81.9408191394078216
 31
0.0
  0
ARC
  5
B3
100
AcDbEntity
  8
edge cuts plate
 62
256
370
-1
 48
1.0
  6
BYLAYER
100
AcDbCircle
 10
106.5697584551750907
 20
-60.7388780554219068
 30
0.0
 40
0.5
100
AcDbArc
 50
350.0
 51
79.9999999999999858
  0
LINE
  5
B4
100
AcDbEntity
  8
edgecuts
 62
256
370
-1
 48
1.0
  6
CONTINUOUS
100
AcDbLine
 10
8.6705000000000005
 20
10.5250000000000004
 30
0.0
 11
8.6705000000000005
 21
16.4420000000000002
 31
0.0
  0
ARC
  5
B5
100
AcDbEntity
  8
edge cuts plate
 62
256
370
-1
 48
1.0
  6
BYLAYER
100
AcDbCircle
 10
116.745735204356393
 20
-46.323922305832383
 30
0.0
 40
0.5
100
AcDbArc
 50
80.0000000000000142
 51
170.0
  0
ARC
  5
B6
100
AcDbEntity
  8
edge cuts plate
 62
256
370
-1
 48
1.0
  6
BYLAYER
100
AcDbCircle
 10
-11.3192500000000535
 20
-46.6000000000000227
 30
0.0
 40
0.5
100
AcDbArc
 50
270.0
 51
0.0
  0
ARC
  5
B7
100
AcDbEntity
  8
edge cuts plate
 62
256
370
-1
 48
1.0
  6
BYLAYER
100
AcDbCircle
 10
100.6609119371018011
 20
-59.696988989420305
 30
0.0
 40
0.5
100
AcDbArc
 50
79.9999999999999858
 51
170.0
  0
ARC
  5
B8
100
AcDbEntity
  8
edge cuts plate
 62
256
370
-1
 48
1.0
  6
BYLAYER
100
AcDbCircle
 10
115.7038461383547912
 20
-52.2327688239056158
 30
0.0
 40
0.5
100
AcDbArc
 50
170.0
 51
260.0
  0
LINE
  5
B9
100
AcDbEntity
  8
edge cuts plate
 62
256
370
-1
 48
1.0
  6
BYLAYER
100
AcDbLine
 10
6.5567499999999797
 20
-47.1000000000000227
 30
0.0
 11
12.5567499999999797
 21
-47.1000000000000227
 31
0.0
  0
LINE
  5
BA
100
AcDbEntity
  8
edge cuts plate
 62
256
370
-1
 48
1.0
  6
BYLAYER
100
AcDbLine
 10
83.1433126330890815
 20
-56.1004502889401522
 30
0.0
 11
77.2344661150157918
 21
-55.0585612229385504
 31
0.0
  0
LINE
  5
BB
100
AcDbEntity
  8
edgecuts
 62
256
370
-1
 48
1.0
  6
CONTINUOUS
100
AcDbLine
 10
70.5025047907534059
 20
5.708625125953942
 30
0.0
 11
71.5300047829937427
 21
11.5357508185836952
 31
0.0
  0
LINE
  5
BC
100
AcDbEntity
  8
outer lines bottom
 62
256
370
-1
 48
1.0
  6
CONTINUOUS
100
AcDbLine
 10
69.9941719881353066
 20
5.8490245551806765
 30
0.0
 11
71.3602848384777673
 21
13.5965328923022497
 31
0.0
  0
LINE
  5
BD
100
AcDbEntity
  8
outer lines bottom
 62
256
370
-1
 48
1.0
  6
CONTINUOUS
100
AcDbLine
 10
78.7038182590480204
 20
4.3132813406034112
 30
0.0
 11
80.069929310566323
 21
12.0607794761482374
 31
0.0
  0
LINE
  5
BE
100
AcDbEntity
  8
edge cuts plate
 62
256
370
-1
 48
1.0
  6
BYLAYER
100
AcDbLine
 10
112.1073074378746384
 20
-69.7503681279183922
 30
0.0
 11
111.0654183718730366
 21
-75.6592146459916535
 31
0.0
  0
LINE
  5
BF
100
AcDbEntity
  8
edgecuts
 62
256
370
-1
 48
1.0
  6
CONTINUOUS
100
AcDbLine
 10
109.3641058990588704
 20
-21.502942296097082
 30
0.0
 11
110.7029394625382537
 21
-21.7390893222414299
 31
0.0
  0
LINE
  5
C0
100
AcDbEntity
  8
edge cuts plate
 62
256
370
-1
 48
1.0
  6
BYLAYER
100
AcDbLine
 10
6.0567499999999797
 20
-45.6000000000000227
 30
0.0
 11
6.0567499999999797
 21
-46.6000000000000227
 31
0.0
  0
LINE
  5
C1
100
AcDbEntity
  8
edge cuts plate
 62
256
370
-1
 48
1.0
  6
BYLAYER
100
AcDbLine
 10
83.3752442430947696
 20
-57.664486007291913
 30
0.0
 11
83.5488924207616748
 21
-56.6796782542797075
 31
0.0
  0
LINE
  5
C2
100
AcDbEntity
  8
edgecuts
 62
256
370
-1
 48
1.0
  6
CONTINUOUS
100
AcDbLine
 10
-19.0500000000000007
 20
-65.6749999999999972
 30
0.0
 11
-19.0500000000000007
 21
-48.625
 31
0.0
  0
LINE
  5
C3
100
AcDbEntity
  8
edge cuts plate
 62
256
370
-1
 48
1.0
  6
BYLAYER
100
AcDbLine
 10
113.6713431562263992
 20
-69.5184365179127042
 30
0.0
 11
112.6865354032141937
 21
-69.3447883402457705
 31
0.0
  0
LINE
  5
C4
100
AcDbEntity
  8
edgecuts
 62
256
370
-1
 48
1.0
  6
CONTINUOUS
100
AcDbLine
 10
20.9044999999999987
 20
9.5250000000000004
 30
0.0
 11
43.0124645656644589
 21
9.5250000000000021
 31
0.0
  0
LINE
  5
C5
100
AcDbEntity
  8
edge cuts plate
 62
256
370
-1
 48
1.0
  6
BYLAYER
100
AcDbLine
 10
13.0567499999999797
 20
-31.6000000000000227
 30
0.0
 11
13.0567499999999797
 21
-46.6000000000000227
 31
0.0
  0
LINE
  5
C6
100
AcDbEntity
  8
edge cuts plate
 62
256
370
-1
 48
1.0
  6
BYLAYER
100
AcDbLine
 10
74.0505154846722604
 20
-70.2362573057943109
 30
0.0
 11
76.6552381496762365
 21
-55.4641410106112005
 31
0.0
  0
LINE
  5
C7
100
AcDbEntity
  8
edgecuts
 62
256
370
-1
 48
1.0
  6
CONTINUOUS
100
AcDbLine
 10
9.6705000000000005
 20
17.4420000000000002
 30
0.0
 11
18.9045000000000023
 21
17.4420000000000002
 31
0.0
  0
LINE
  5
C8
100
AcDbEntity
  8
outer lines bottom
 62
256
370
-1
 48
1.0
  6
CONTINUOUS
100
AcDbLine
 10
18.7574999999999967
 20
18.9669999999999987
 30
0.0
 11
19.9044999999999952
 21
18.9669999999999987
 31
0.0
  0
LINE
  5
C9
100
AcDbEntity
  8
edge cuts plate
 62
256
370
-1
 48
1.0
  6
BYLAYER
100
AcDbLine
 10
112.4558059125578922
 20
-76.4120907889981424
 30
0.0
 11
111.4709981595456867
 21
-76.2384426113312088
 31
0.0
  0
LINE
  5
CA
100
AcDbEntity
  8
edgecuts
 62
256
370
-1
 48
1.0
  6
CONTINUOUS
100
AcDbLine
 10
127.6105191682338926
 20
-82.7519965430052906
 30
0.0
 11
36.5195004739724993
 21
-66.6901922469878201
 31
0.0
  0
ARC
  5
CB
100
AcDbEntity
  8
edge cuts plate
 62
256
370
-1
 48
1.0
  6
BYLAYER
100
AcDbCircle
 10
12.5567499999999797
 20
-31.6000000000000227
 30
0.0
 40
0.5
100
AcDbArc
 50
0.0
 51
90.0
  0
ARC
  5
CC
100
AcDbEntity
  8
edge cuts plate
 62
256
370
-1
 48
1.0
  6
BYLAYER
100
AcDbCircle
 10
74.5429193611783631
 20
-70.3230813946277635
 30
0.0
 40
0.5
100
AcDbArc
 50
170.0
 51
260.0
  0
LINE
  5
CD
100
AcDbEntity
  8
keycapedges
 62
256
370
-1
 48
1.0
  6
BYLAYER
100
AcDbLine
 10
-19.0499999999999901
 20
-66.6749999999999545
 30
0.0
 11
4.7625000000000117
 21
-66.6749999999999545
 31
0.0
  0
ARC
  5
CE
100
AcDbEntity
  8
edge cuts plate
 62
256
370
-1
 48
1.0
  6
BYLAYER
100
AcDbCircle
 10
6.5567499999999797
 20
-46.6000000000000227
 30
0.0
 40
0.5
100
AcDbArc
 50
180.0
 51
270.0
  0
LINE
  5
CF
100
AcDbEntity
  8
keycapedges
 62
256
370
-1
 48
1.0
  6
BYLAYER
100
AcDbLine
 10
4.7625000000000117
 20
-66.6749999999999545
 30
0.0
 11
28.5749999999999531
 21
-66.6749999999999545
 31
0.0
  0
ARC
  5
D0
100
AcDbEntity
  8
edge cuts plate
 62
256
370
-1
 48
1.0
  6
BYLAYER
100
AcDbCircle
 10
83.056488544255572
 20
-56.5928541654462549
 30
0.0
 40
0.5
100
AcDbArc
 50
350.0
 51
79.9999999999999858
  0
LINE
  5
D1
100
AcDbEntity
  8
keycapedges
 62
256
370
-1
 48
1.0
  6
BYLAYER
100
AcDbLine
 10
38.0999999999999872
 20
-28.5749999999999602
 30
0.0
 11
38.0999999999999872
 21
-47.6249999999999574
 31
0.0
  0
ARC
  5
D2
100
AcDbEntity
  8
edge cuts plate
 62
256
370
-1
 48
1.0
  6
BYLAYER
100
AcDbCircle
 10
112.5997113143807411
 20
-69.8371922167518733
 30
0.0
 40
0.5
100
AcDbArc
 50
80.0000000000000142
 51
170.0
  0
LINE
  5
D3
100
AcDbEntity
  8
keycapedges
 62
256
370
-1
 48
1.0
  6
BYLAYER
100
AcDbLine
 10
38.1000000000000441
 20
-47.6249999999999645
 30
0.0
 11
56.8605876948825184
 21
-50.9329977845549848
 31
0.0
  0
ARC
  5
D4
100
AcDbEntity
  8
edge cuts plate
 62
256
370
-1
 48
1.0
  6
BYLAYER
100
AcDbCircle
 10
12.5567499999999797
 20
-46.6000000000000227
 30
0.0
 40
0.5
100
AcDbArc
 50
270.0
 51
0.0
  0
LINE
  5
D5
100
AcDbEntity
  8
keycapedges
 62
256
370
-1
 48
1.0
  6
BYLAYER
100
AcDbLine
 10
44.1722960628863106
 20
-68.0395865871600307
 30
0.0
 11
67.6230306814894959
 21
-72.174583817853815
 31
0.0
  0
ARC
  5
D6
100
AcDbEntity
  8
edge cuts plate
 62
256
370
-1
 48
1.0
  6
BYLAYER
100
AcDbCircle
 10
77.1476420261823392
 20
-55.5509650994446531
 30
0.0
 40
0.5
100
AcDbArc
 50
79.9999999999999858
 51
170.0
  0
LINE
  5
D7
100
AcDbEntity
  8
keycapedges
 62
256
370
-1
 48
1.0
  6
BYLAYER
100
AcDbLine
 10
38.1000000000000441
 20
-47.6249999999999645
 30
0.0
 11
41.4079977845550715
 21
-28.8644123051174013
 31
0.0
  0
ARC
  5
D8
100
AcDbEntity
  8
edge cuts plate
 62
256
370
-1
 48
1.0
  6
BYLAYER
100
AcDbCircle
 10
111.5578222483791393
 20
-75.7460387348251061
 30
0.0
 40
0.5
100
AcDbArc
 50
170.0
 51
260.0
  0
LINE
  5
D9
100
AcDbEntity
  8
keycapedges
 62
256
370
-1
 48
1.0
  6
BYLAYER
100
AcDbLine
 10
56.8605876948825184
 20
-50.9329977845549848
 30
0.0
 11
60.1685854794375459
 21
-32.1724100896724252
 31
0.0
  0
LINE
  5
DA
100
AcDbEntity
  8
edge cuts plate
 62
256
370
-1
 48
1.0
  6
BYLAYER
100
AcDbLine
 10
-6.5000000000000711
 20
6.9999999999999147
 30
0.0
 11
6.4999999999999289
 21
6.9999999999999147
 31
0.0
  0
LINE
  5
DB
100
AcDbEntity
  8
keycapedges
 62
256
370
-1
 48
1.0
  6
BYLAYER
100
AcDbLine
 10
67.6230306814894959
 20
-72.174583817853815
 30
0.0
 11
70.9310284660445234
 21
-53.4139961229712554
 31
0.0
  0
LINE
  5
DC
100
AcDbEntity
  8
edge cuts plate
 62
256
370
-1
 48
1.0
  6
BYLAYER
100
AcDbLine
 10
-13.643750000000054
 20
-50.1500000000000625
 30
0.0
 11
-0.643750000000054
 21
-50.1500000000000625
 31
0.0
  0
LINE
  5
DD
100
AcDbEntity
  8
keycapedges
 62
256
370
-1
 48
1.0
  6
BYLAYER
100
AcDbLine
 10
67.6230306814894959
 20
-72.174583817853815
 30
0.0
 11
70.9310284660445234
 21
-53.4139961229712554
 31
0.0
  0
LINE
  5
DE
100
AcDbEntity
  8
edge cuts plate
 62
256
370
-1
 48
1.0
  6
BYLAYER
100
AcDbLine
 10
-13.643750000000054
 20
-12.050000000000118
 30
0.0
 11
4.1187499999999631
 21
-12.050000000000054
 31
0.0
  0
LINE
  5
DF
100
AcDbEntity
  8
keycapedges
 62
256
370
-1
 48
1.0
  6
BYLAYER
100
AcDbLine
 10
41.4079977845550715
 20
-28.8644123051174013
 30
0.0
 11
60.1685854794375459
 21
-32.1724100896724252
 31
0.0
  0
LINE
  5
E0
100
AcDbEntity
  8
edge cuts plate
 62
256
370
-1
 48
1.0
  6
BYLAYER
100
AcDbLine
 10
17.3124999999999289
 20
6.9999999999999432
 30
0.0
 11
30.3124999999999289
 21
6.9999999999999432
 31
0.0
  0
LINE
  5
E1
100
AcDbEntity
  8
keycapedges
 62
256
370
-1
 48
1.0
  6
BYLAYER
100
AcDbLine
 10
52.1704407711619282
 20
-50.105998338416228
 30
0.0
 11
70.9310284660445234
 21
-53.4139961229712554
 31
0.0
  0
LINE
  5
E2
100
AcDbEntity
  8
edge cuts plate
 62
256
370
-1
 48
1.0
  6
BYLAYER
100
AcDbLine
 10
17.3124999999999289
 20
-12.0500000000000682
 30
0.0
 11
30.3124999999999289
 21
-12.0500000000000682
 31
0.0
  0
LINE
  5
E3
100
AcDbEntity
  8
keycapedges
 62
256
370
-1
 48
1.0
  6
BYLAYER
100
AcDbLine
 10
33.3374999999999986
 20
-27.4413657979524608
 30
0.0
 11
52.0980876948825866
 21
-30.7493635825074847
 31
0.0
  0
LINE
  5
E4
100
AcDbEntity
  8
edge cuts plate
 62
256
370
-1
 48
1.0
  6
BYLAYER
100
AcDbLine
 10
22.074999999999946
 20
-31.1000000000000796
 30
0.0
 11
35.074999999999946
 21
-31.1000000000000796
 31
0.0
  0
LINE
  5
E5
100
AcDbEntity
  8
keycapedges
 62
256
370
-1
 48
1.0
  6
BYLAYER
100
AcDbLine
 10
33.3374999999999986
 20
-27.4413657979524608
 30
0.0
 11
36.645497784555026
 21
-8.6807781030698976
 31
0.0
  0
LINE
  5
E6
100
AcDbEntity
  8
edge cuts plate
 62
256
370
-1
 48
1.0
  6
BYLAYER
100
AcDbLine
 10
39.1860795888079139
 20
7.6511735395551739
 30
0.0
 11
51.9885803779666418
 21
5.3937472298850935
 31
0.0
  0
LINE
  5
E7
100
AcDbEntity
  8
keycapedges
 62
256
370
-1
 48
1.0
  6
BYLAYER
100
AcDbLine
 10
36.645497784555026
 20
-8.6807781030698976
 30
0.0
 11
55.4060854794376141
 21
-11.9887758876249215
 31
0.0
  0
LINE
  5
E8
100
AcDbEntity
  8
edge cuts plate
 62
256
370
-1
 48
1.0
  6
BYLAYER
100
AcDbLine
 10
39.1860795888079139
 20
-11.6927034168682695
 30
0.0
 11
51.9885803779666418
 21
-13.9501297265383641
 31
0.0
  0
LINE
  5
E9
100
AcDbEntity
  8
keycapedges
 62
256
370
-1
 48
1.0
  6
BYLAYER
100
AcDbLine
 10
33.3374999999999986
 20
-8.0974888415290209
 30
0.0
 11
52.0980876948825866
 21
-11.4054866260840413
 31
0.0
  0
LINE
  5
EA
100
AcDbEntity
  8
edge cuts plate
 62
256
370
-1
 48
1.0
  6
BYLAYER
100
AcDbLine
 10
43.9485795888079309
 20
-31.8763376189157839
 30
0.0
 11
56.7510803779666304
 21
-34.1337639285858643
 31
0.0
  0
LINE
  5
EB
100
AcDbEntity
  8
keycapedges
 62
256
370
-1
 48
1.0
  6
BYLAYER
100
AcDbLine
 10
33.3374999999999986
 20
-8.0974888415290209
 30
0.0
 11
36.645497784555026
 21
10.6630988533535458
 31
0.0
  0
LINE
  5
EC
100
AcDbEntity
  8
edge cuts plate
 62
256
370
-1
 48
1.0
  6
BYLAYER
100
AcDbLine
 10
54.7110225754148729
 20
-53.1179236522145928
 30
0.0
 11
67.513523364573544
 21
-55.3753499618847229
 31
0.0
  0
LINE
  5
ED
100
AcDbEntity
  8
keycapedges
 62
256
370
-1
 48
1.0
  6
BYLAYER
100
AcDbLine
 10
52.0980876948825866
 20
-11.4054866260840413
 30
0.0
 11
55.4060854794376141
 21
7.3551010687985254
 31
0.0
  0
LINE
  5
EE
100
AcDbEntity
  8
edge cuts plate
 62
256
370
-1
 48
1.0
  6
BYLAYER
100
AcDbLine
 10
62.7091672836904905
 20
-35.1843354034707829
 30
0.0
 11
75.5116680728492184
 21
-37.4417617131408917
 31
0.0
  0
LINE
  5
EF
100
AcDbEntity
  8
keycapedges
 62
256
370
-1
 48
1.0
  6
BYLAYER
100
AcDbLine
 10
52.0980876948825866
 20
-30.7493635825074847
 30
0.0
 11
55.4060854794376141
 21
-11.9887758876249215
 31
0.0
  0
LINE
  5
F0
100
AcDbEntity
  8
edge cuts plate
 62
256
370
-1
 48
1.0
  6
BYLAYER
100
AcDbLine
 10
57.9466672836904451
 20
-15.0007012014232828
 30
0.0
 11
70.749168072849173
 21
-17.2581275110933916
 31
0.0
  0
LINE
  5
F1
100
AcDbEntity
  8
keycapedges
 62
256
370
-1
 48
1.0
  6
BYLAYER
100
AcDbLine
 10
36.645497784555026
 20
10.6630988533535458
 30
0.0
 11
55.4060854794376141
 21
7.3551010687985254
 31
0.0
  0
LINE
  5
F2
100
AcDbEntity
  8
edge cuts plate
 62
256
370
-1
 48
1.0
  6
BYLAYER
100
AcDbLine
 10
57.9466672836904451
 20
4.3431757550001464
 30
0.0
 11
70.749168072849173
 21
2.085749445330066
 31
0.0
  0
LINE
  5
F3
100
AcDbEntity
  8
keycapedges
 62
256
370
-1
 48
1.0
  6
BYLAYER
100
AcDbLine
 10
55.4060854794376141
 20
7.3551010687985183
 30
0.0
 11
74.1666731743202092
 21
4.047103284243498
 31
0.0
  0
LINE
  5
F4
100
AcDbEntity
  8
edge cuts plate
 62
256
370
-1
 48
1.0
  6
BYLAYER
100
AcDbLine
 10
76.7072549785730331
 20
1.0351779704451332
 30
0.0
 11
89.509755767731761
 21
-1.2222483392249615
 31
0.0
  0
LINE
  5
F5
100
AcDbEntity
  8
keycapedges
 62
256
370
-1
 48
1.0
  6
BYLAYER
100
AcDbLine
 10
74.1666731743202092
 20
4.047103284243498
 30
0.0
 11
92.9272608692026836
 21
0.7391054996884776
 31
0.0
  0
LINE
  5
F6
100
AcDbEntity
  8
edge cuts plate
 62
256
370
-1
 48
1.0
  6
BYLAYER
100
AcDbLine
 10
76.7072549785730331
 20
-18.3086989859783102
 30
0.0
 11
89.509755767731761
 21
-20.5661252956484191
 31
0.0
  0
LINE
  5
F7
100
AcDbEntity
  8
keycapedges
 62
256
370
-1
 48
1.0
  6
BYLAYER
100
AcDbLine
 10
92.9272608692026836
 20
0.7391054996884776
 30
0.0
 11
111.6878485640852716
 21
-2.5688922848665499
 31
0.0
  0
LINE
  5
F8
100
AcDbEntity
  8
edge cuts plate
 62
256
370
-1
 48
1.0
  6
BYLAYER
100
AcDbLine
 10
81.4697549785730786
 20
-38.4923331880258104
 30
0.0
 11
94.2722557677317496
 21
-40.7497594976959192
 31
0.0
  0
LINE
  5
F9
100
AcDbEntity
  8
keycapedges
 62
256
370
-1
 48
1.0
  6
BYLAYER
100
AcDbLine
 10
52.0980876948825866
 20
-11.4054866260840484
 30
0.0
 11
70.8586753897651818
 21
-14.7134844106390688
 31
0.0
  0
LINE
  5
FA
100
AcDbEntity
  8
edge cuts plate
 62
256
370
-1
 48
1.0
  6
BYLAYER
100
AcDbLine
 10
100.2303426734555529
 20
-41.8003309725808379
 30
0.0
 11
113.0328434626142808
 21
-44.0577572822509183
 31
0.0
  0
LINE
  5
FB
100
AcDbEntity
  8
keycapedges
 62
256
370
-1
 48
1.0
  6
BYLAYER
100
AcDbLine
 10
70.8586753897651818
 20
-14.7134844106390688
 30
0.0
 11
89.6192630846476561
 21
-18.0214821951940927
 31
0.0
  0
LINE
  5
FC
100
AcDbEntity
  8
edge cuts plate
 62
256
370
-1
 48
1.0
  6
BYLAYER
100
AcDbLine
 10
95.4678426734556211
 20
-21.6166967705333377
 30
0.0
 11
108.2703434626142922
 21
-23.8741230802034181
 31
0.0
  0
LINE
  5
FD
100
AcDbEntity
  8
keycapedges
 62
256
370
-1
 48
1.0
  6
BYLAYER
100
AcDbLine
 10
89.6192630846476561
 20
-18.0214821951940927
 30
0.0
 11
108.3798507795302442
 21
-21.3294799797491166
 31
0.0
  0
LINE
  5
FE
100
AcDbEntity
  8
edge cuts plate
 62
256
370
-1
 48
1.0
  6
BYLAYER
100
AcDbLine
 10
95.4678426734556211
 20
-2.2728198141098943
 30
0.0
 11
108.2703434626143491
 21
-4.5302461237799889
 31
0.0
  0
LINE
  5
FF
100
AcDbEntity
  8
keycapedges
 62
256
370
-1
 48
1.0
  6
BYLAYER
100
AcDbLine
 10
70.8586753897651818
 20
-14.7134844106390688
 30
0.0
 11
74.1666731743202092
 21
4.047103284243498
 31
0.0
  0
LINE
  5
100
100
AcDbEntity
  8
edge cuts plate
 62
256
370
-1
 48
1.0
  6
BYLAYER
100
AcDbLine
 10
118.990930368338141
 20
-45.1083287571358369
 30
0.0
 11
131.7934311574967978
 21
-47.3657550668059457
 31
0.0
  0
LINE
  5
101
100
AcDbEntity
  8
keycapedges
 62
256
370
-1
 48
1.0
  6
BYLAYER
100
AcDbLine
 10
89.6192630846476561
 20
-18.0214821951940927
 30
0.0
 11
92.9272608692026836
 21
0.7391054996884705
 31
0.0
  0
LINE
  5
102
100
AcDbEntity
  8
edge cuts plate
 62
256
370
-1
 48
1.0
  6
BYLAYER
100
AcDbLine
 10
7.7874999999999517
 20
-50.1500000000000625
 30
0.0
 11
20.7874999999999517
 21
-50.1500000000000625
 31
0.0
  0
LINE
  5
103
100
AcDbEntity
  8
keycapedges
 62
256
370
-1
 48
1.0
  6
BYLAYER
100
AcDbLine
 10
108.3798507795302442
 20
-21.3294799797491166
 30
0.0
 11
111.6878485640852716
 21
-2.568892284866557
 31
0.0
  0
LINE
  5
104
100
AcDbEntity
  8
edge cuts plate
 62
256
370
-1
 48
1.0
  6
BYLAYER
100
AcDbLine
 10
-6.5000000000000426
 20
-7.0000000000000853
 30
0.0
 11
6.4999999999999574
 21
-7.0000000000000853
 31
0.0
  0
LINE
  5
105
100
AcDbEntity
  8
keycapedges
 62
256
370
-1
 48
1.0
  6
BYLAYER
100
AcDbLine
 10
52.0980876948825866
 20
-30.7493635825074847
 30
0.0
 11
70.8586753897651818
 21
-34.0573613670625051
 31
0.0
  0
LINE
  5
106
100
AcDbEntity
  8
edge cuts plate
 62
256
370
-1
 48
1.0
  6
BYLAYER
100
AcDbLine
 10
-13.643750000000054
 20
-64.1500000000000625
 30
0.0
 11
-0.643750000000054
 21
-64.1500000000000625
 31
0.0
  0
LINE
  5
107
100
AcDbEntity
  8
keycapedges
 62
256
370
-1
 48
1.0
  6
BYLAYER
100
AcDbLine
 10
89.6192630846476561
 20
-37.3653591516175254
 30
0.0
 11
108.3798507795302442
 21
-40.6733569361725458
 31
0.0
  0
LINE
  5
108
100
AcDbEntity
  8
edge cuts plate
 62
256
370
-1
 48
1.0
  6
BYLAYER
100
AcDbLine
 10
-13.643750000000054
 20
-26.050000000000118
 30
0.0
 11
4.1187499999999631
 21
-26.0500000000000398
 31
0.0
  0
LINE
  5
109
100
AcDbEntity
  8
keycapedges
 62
256
370
-1
 48
1.0
  6
BYLAYER
100
AcDbLine
 10
74.1666731743202092
 20
-15.2967736721799454
 30
0.0
 11
92.9272608692026836
 21
-18.6047714567349693
 31
0.0
  0
LINE
  5
10A
100
AcDbEntity
  8
edge cuts plate
 62
256
370
-1
 48
1.0
  6
BYLAYER
100
AcDbLine
 10
17.3124999999999289
 20
-7.0000000000000568
 30
0.0
 11
30.3124999999999289
 21
-7.0000000000000568
 31
0.0
  0
LINE
  5
10B
100
AcDbEntity
  8
keycapedges
 62
256
370
-1
 48
1.0
  6
BYLAYER
100
AcDbLine
 10
92.9272608692026836
 20
-18.6047714567349693
 30
0.0
 11
111.6878485640852716
 21
-21.9127692412899933
 31
0.0
  0
LINE
  5
10C
100
AcDbEntity
  8
edge cuts plate
 62
256
370
-1
 48
1.0
  6
BYLAYER
100
AcDbLine
 10
17.3124999999999289
 20
-26.0500000000000682
 30
0.0
 11
30.3124999999999289
 21
-26.0500000000000682
 31
0.0
  0
LINE
  5
10D
100
AcDbEntity
  8
keycapedges
 62
256
370
-1
 48
1.0
  6
BYLAYER
100
AcDbLine
 10
70.8586753897651818
 20
-34.0573613670625051
 30
0.0
 11
74.1666731743202092
 21
-15.2967736721799454
 31
0.0
  0
LINE
  5
10E
100
AcDbEntity
  8
edge cuts plate
 62
256
370
-1
 48
1.0
  6
BYLAYER
100
AcDbLine
 10
22.074999999999946
 20
-45.1000000000000796
 30
0.0
 11
35.074999999999946
 21
-45.1000000000000796
 31
0.0
  0
LINE
  5
10F
100
AcDbEntity
  8
keycapedges
 62
256
370
-1
 48
1.0
  6
BYLAYER
100
AcDbLine
 10
92.9272608692026836
 20
-18.6047714567349693
 30
0.0
 11
89.6192630846476561
 21
-37.3653591516175254
 31
0.0
  0
LINE
  5
110
100
AcDbEntity
  8
edge cuts plate
 62
256
370
-1
 48
1.0
  6
BYLAYER
100
AcDbLine
 10
36.7550051014708998
 20
-6.1361350026157311
 30
0.0
 11
49.5575058906295993
 21
-8.3935613122858257
 31
0.0
  0
LINE
  5
111
100
AcDbEntity
  8
keycapedges
 62
256
370
-1
 48
1.0
  6
BYLAYER
100
AcDbLine
 10
108.3798507795302442
 20
-40.6733569361725458
 30
0.0
 11
111.6878485640852716
 21
-21.9127692412899933
 31
0.0
  0
LINE
  5
112
100
AcDbEntity
  8
edge cuts plate
 62
256
370
-1
 48
1.0
  6
BYLAYER
100
AcDbLine
 10
36.7550051014708714
 20
-25.4800119590391887
 30
0.0
 11
49.5575058906295709
 21
-27.7374382687092691
 31
0.0
  0
LINE
  5
113
100
AcDbEntity
  8
keycapedges
 62
256
370
-1
 48
1.0
  6
BYLAYER
100
AcDbLine
 10
60.1685854794375459
 20
-32.1724100896724252
 30
0.0
 11
78.929173174320141
 21
-35.4804078742274456
 31
0.0
  0
LINE
  5
114
100
AcDbEntity
  8
edge cuts plate
 62
256
370
-1
 48
1.0
  6
BYLAYER
100
AcDbLine
 10
41.5175051014709169
 20
-45.6636461610866888
 30
0.0
 11
54.3200058906296164
 21
-47.9210724707567692
 31
0.0
  0
LINE
  5
115
100
AcDbEntity
  8
keycapedges
 62
256
370
-1
 48
1.0
  6
BYLAYER
100
AcDbLine
 10
78.929173174320141
 20
-35.4804078742274456
 30
0.0
 11
97.6897608692027291
 21
-38.7884056587824659
 31
0.0
  0
LINE
  5
116
100
AcDbEntity
  8
edge cuts plate
 62
256
370
-1
 48
1.0
  6
BYLAYER
100
AcDbLine
 10
52.279948088077802
 20
-66.9052321943855333
 30
0.0
 11
65.0824488772365299
 21
-69.1626585040556279
 31
0.0
  0
LINE
  5
117
100
AcDbEntity
  8
keycapedges
 62
256
370
-1
 48
1.0
  6
BYLAYER
100
AcDbLine
 10
97.6897608692027291
 20
-38.7884056587824659
 30
0.0
 11
116.4503485640853171
 21
-42.0964034433374863
 31
0.0
  0
LINE
  5
118
100
AcDbEntity
  8
edge cuts plate
 62
256
370
-1
 48
1.0
  6
BYLAYER
100
AcDbLine
 10
60.2780927963534765
 20
-48.9716439456417163
 30
0.0
 11
73.0805935855121476
 21
-51.2290702553117967
 31
0.0
  0
LINE
  5
119
100
AcDbEntity
  8
keycapedges
 62
256
370
-1
 48
1.0
  6
BYLAYER
100
AcDbLine
 10
56.8605876948825184
 20
-50.9329977845549919
 30
0.0
 11
75.6211753897651136
 21
-54.2409955691100123
 31
0.0
  0
LINE
  5
11A
100
AcDbEntity
  8
edge cuts plate
 62
256
370
-1
 48
1.0
  6
BYLAYER
100
AcDbLine
 10
55.515592796353431
 20
-28.7880097435942162
 30
0.0
 11
68.3180935855121589
 21
-31.0454360532642966
 31
0.0
  0
LINE
  5
11B
100
AcDbEntity
  8
keycapedges
 62
256
370
-1
 48
1.0
  6
BYLAYER
100
AcDbLine
 10
75.6211753897651136
 20
-54.2409955691100123
 30
0.0
 11
94.3817630846477016
 21
-57.5489933536650327
 31
0.0
  0
LINE
  5
11C
100
AcDbEntity
  8
edge cuts plate
 62
256
370
-1
 48
1.0
  6
BYLAYER
100
AcDbLine
 10
55.515592796353431
 20
-9.4441327871707585
 30
0.0
 11
68.3180935855121589
 21
-11.7015590968408532
 31
0.0
  0
LINE
  5
11D
100
AcDbEntity
  8
keycapedges
 62
256
370
-1
 48
1.0
  6
BYLAYER
100
AcDbLine
 10
94.3817630846477016
 20
-57.5489933536650327
 30
0.0
 11
113.1423507795302896
 21
-60.856991138220053
 31
0.0
  0
LINE
  5
11E
100
AcDbEntity
  8
edge cuts plate
 62
256
370
-1
 48
1.0
  6
BYLAYER
100
AcDbLine
 10
74.2761804912360191
 20
-12.752130571725786
 30
0.0
 11
87.0786812803946901
 21
-15.0095568813958664
 31
0.0
  0
LINE
  5
11F
100
AcDbEntity
  8
keycapedges
 62
256
370
-1
 48
1.0
  6
BYLAYER
100
AcDbLine
 10
75.6211753897651136
 20
-54.2409955691100123
 30
0.0
 11
78.929173174320141
 21
-35.4804078742274527
 31
0.0
  0
LINE
  5
120
100
AcDbEntity
  8
edge cuts plate
 62
256
370
-1
 48
1.0
  6
BYLAYER
100
AcDbLine
 10
74.2761804912360191
 20
-32.0960075281492152
 30
0.0
 11
87.0786812803946901
 21
-34.353433837819324
 31
0.0
  0
LINE
  5
121
100
AcDbEntity
  8
keycapedges
 62
256
370
-1
 48
1.0
  6
BYLAYER
100
AcDbLine
 10
94.3817630846477016
 20
-57.5489933536650327
 30
0.0
 11
97.6897608692027291
 21
-38.7884056587824659
 31
0.0
  0
LINE
  5
122
100
AcDbEntity
  8
edge cuts plate
 62
256
370
-1
 48
1.0
  6
BYLAYER
100
AcDbLine
 10
79.0386804912360077
 20
-52.2796417301967438
 30
0.0
 11
91.8411812803947356
 21
-54.5370680398668242
 31
0.0
  0
LINE
  5
123
100
AcDbEntity
  8
keycapedges
 62
256
370
-1
 48
1.0
  6
BYLAYER
100
AcDbLine
 10
113.1423507795302896
 20
-60.856991138220053
 30
0.0
 11
116.4503485640853171
 21
-42.0964034433374934
 31
0.0
  0
LINE
  5
124
100
AcDbEntity
  8
edge cuts plate
 62
256
370
-1
 48
1.0
  6
BYLAYER
100
AcDbLine
 10
97.7992681861185389
 20
-55.5876395147517428
 30
0.0
 11
110.6017689752772668
 21
-57.8450658244218516
 31
0.0
  0
LINE
  5
125
100
AcDbEntity
  8
keycapedges
 62
256
370
-1
 48
1.0
  6
BYLAYER
100
AcDbLine
 10
116.4503485640853171
 20
-42.0964034433374863
 30
0.0
 11
135.2109362589677914
 21
-45.4044012278925067
 31
0.0
  0
LINE
  5
126
100
AcDbEntity
  8
edge cuts plate
 62
256
370
-1
 48
1.0
  6
BYLAYER
100
AcDbLine
 10
93.0367681861185503
 20
-35.4040053127042427
 30
0.0
 11
105.8392689752772782
 21
-37.6614316223743515
 31
0.0
  0
LINE
  5
127
100
AcDbEntity
  8
keycapedges
 62
256
370
-1
 48
1.0
  6
BYLAYER
100
AcDbLine
 10
128.5949406898577365
 20
-82.9255766176576401
 30
0.0
 11
135.2109362589677914
 21
-45.4044012278925067
 31
0.0
  0
LINE
  5
128
100
AcDbEntity
  8
edge cuts plate
 62
256
370
-1
 48
1.0
  6
BYLAYER
100
AcDbLine
 10
93.0367681861186071
 20
-16.0601283562808135
 30
0.0
 11
105.8392689752772782
 21
-18.3175546659508939
 31
0.0
  0
LINE
  5
129
100
AcDbEntity
  8
keycapedges
 62
256
370
-1
 48
1.0
  6
BYLAYER
100
AcDbLine
 10
109.8343529949752622
 20
-79.6175788331026126
 30
0.0
 11
113.1423507795302896
 21
-60.8569911382200459
 31
0.0
  0
LINE
  5
12A
100
AcDbEntity
  8
edge cuts plate
 62
256
370
-1
 48
1.0
  6
BYLAYER
100
AcDbLine
 10
113.2518580964460995
 20
-77.6562249941893299
 30
0.0
 11
126.0543588856048274
 21
-79.9136513038594387
 31
0.0
  0
LINE
  5
12B
100
AcDbEntity
  8
keycapedges
 62
256
370
-1
 48
1.0
  6
BYLAYER
100
AcDbLine
 10
109.8343529949752622
 20
-79.6175788331026126
 30
0.0
 11
128.5949406898577365
 21
-82.9255766176576401
 31
0.0
  0
LINE
  5
12C
100
AcDbEntity
  8
edge cuts plate
 62
256
370
-1
 48
1.0
  6
BYLAYER
100
AcDbLine
 10
7.7874999999999517
 20
-64.1500000000000625
 30
0.0
 11
20.7874999999999517
 21
-64.1500000000000625
 31
0.0
  0
LINE
  5
12D
100
AcDbEntity
  8
keycapedges
 62
256
370
-1
 48
1.0
  6
BYLAYER
100
AcDbLine
 10
67.6230306814894959
 20
-72.174583817853815
 30
0.0
 11
109.8343529949752622
 21
-79.6175788331026126
 31
0.0
  0
LINE
  5
12E
100
AcDbEntity
  8
edge cuts plate
 62
256
370
-1
 48
1.0
  6
BYLAYER
100
AcDbLine
 10
-7.0000000000000426
 20
-6.5000000000000853
 30
0.0
 11
-7.0000000000000426
 21
6.4999999999999147
 31
0.0
  0
LINE
  5
12F
100
AcDbEntity
  8
keycapedges
 62
256
370
-1
 48
1.0
  6
BYLAYER
100
AcDbLine
 10
47.4802938474412812
 20
-49.2789988922774853
 30
0.0
 11
70.9310284660445234
 21
-53.4139961229712625
 31
0.0
  0
LINE
  5
130
100
AcDbEntity
  8
edge cuts plate
 62
256
370
-1
 48
1.0
  6
BYLAYER
100
AcDbLine
 10
-14.143750000000054
 20
-63.6500000000000625
 30
0.0
 11
-14.143750000000054
 21
-50.6500000000000625
 31
0.0
  0
LINE
  5
131
100
AcDbEntity
  8
keycapedges
 62
256
370
-1
 48
1.0
  6
BYLAYER
100
AcDbLine
 10
44.1722960628863106
 20
-68.0395865871600307
 30
0.0
 11
47.4802938474413381
 21
-49.2789988922774711
 31
0.0
  0
LINE
  5
132
100
AcDbEntity
  8
edge cuts plate
 62
256
370
-1
 48
1.0
  6
BYLAYER
100
AcDbLine
 10
-14.143750000000054
 20
-25.550000000000118
 30
0.0
 11
-14.143750000000054
 21
-12.550000000000118
 31
0.0
  0
LINE
  5
133
100
AcDbEntity
  8
keycapedges
 62
256
370
-1
 48
1.0
  6
BYLAYER
100
AcDbLine
 10
113.1423507795302896
 20
-60.8569911382200459
 30
0.0
 11
131.902938474412764
 21
-64.1649889227750663
 31
0.0
  0
LINE
  5
134
100
AcDbEntity
  8
edge cuts plate
 62
256
370
-1
 48
1.0
  6
BYLAYER
100
AcDbLine
 10
16.8124999999999289
 20
-6.5000000000000568
 30
0.0
 11
16.8124999999999289
 21
6.4999999999999432
 31
0.0
  0
LINE
  5
135
100
AcDbEntity
  8
keycapedges
 62
256
370
-1
 48
1.0
  6
BYLAYER
100
AcDbLine
 10
130.8949877392048222
 20
-63.9872600129329641
 30
0.0
 11
131.902938474412764
 21
-64.1649889227750663
 31
0.0
  0
LINE
  5
136
100
AcDbEntity
  8
edge cuts plate
 62
256
370
-1
 48
1.0
  6
BYLAYER
100
AcDbLine
 10
16.8124999999999289
 20
-25.5500000000000682
 30
0.0
 11
16.8124999999999289
 21
-12.5500000000000682
 31
0.0
  0
LINE
  5
137
100
AcDbEntity
  8
keycapedges
 62
256
370
-1
 48
1.0
  6
BYLAYER
100
AcDbLine
 10
4.7625000000000117
 20
-47.6249999999999574
 30
0.0
 11
23.8125000000000213
 21
-47.6249999999999574
 31
0.0
  0
LINE
  5
138
100
AcDbEntity
  8
edge cuts plate
 62
256
370
-1
 48
1.0
  6
BYLAYER
100
AcDbLine
 10
21.574999999999946
 20
-44.6000000000000796
 30
0.0
 11
21.574999999999946
 21
-31.6000000000000796
 31
0.0
  0
LINE
  5
139
100
AcDbEntity
  8
keycapedges
 62
256
370
-1
 48
1.0
  6
BYLAYER
100
AcDbLine
 10
52.1704407711619282
 20
-50.1059983384162706
 30
0.0
 11
70.9310284660445234
 21
-53.4139961229712981
 31
0.0
  0
LINE
  5
13A
100
AcDbEntity
  8
edge cuts plate
 62
256
370
-1
 48
1.0
  6
BYLAYER
100
AcDbLine
 10
36.3494253137982497
 20
-5.5569070372761615
 30
0.0
 11
38.6068516234683585
 21
7.245593751882538
 31
0.0
  0
LINE
  5
13B
100
AcDbEntity
  8
keycapedges
 62
256
370
-1
 48
1.0
  6
BYLAYER
100
AcDbLine
 10
4.7625000000000117
 20
-66.6749999999999545
 30
0.0
 11
4.7625000000000117
 21
-47.6249999999999574
 31
0.0
  0
LINE
  5
13C
100
AcDbEntity
  8
edge cuts plate
 62
256
370
-1
 48
1.0
  6
BYLAYER
100
AcDbLine
 10
36.3494253137982497
 20
-24.9007839936996049
 30
0.0
 11
38.6068516234683301
 21
-12.0982832045409054
 31
0.0
  0
LINE
  5
13D
100
AcDbEntity
  8
keycapedges
 62
256
370
-1
 48
1.0
  6
BYLAYER
100
AcDbLine
 10
4.7625000000000117
 20
-66.6749999999999261
 30
0.0
 11
23.8125000000000213
 21
-66.6749999999999261
 31
0.0
  0
LINE
  5
13E
100
AcDbEntity
  8
edge cuts plate
 62
256
370
-1
 48
1.0
  6
BYLAYER
100
AcDbLine
 10
41.1119253137982668
 20
-45.0844181957471051
 30
0.0
 11
43.3693516234683472
 21
-32.2819174065884056
 31
0.0
  0
LINE
  5
13F
100
AcDbEntity
  8
keycapedges
 62
256
370
-1
 48
1.0
  6
BYLAYER
100
AcDbLine
 10
4.7625000000000117
 20
-47.6249999999999289
 30
0.0
 11
23.8125000000000213
 21
-47.6249999999999289
 31
0.0
  0
LINE
  5
140
100
AcDbEntity
  8
edge cuts plate
 62
256
370
-1
 48
1.0
  6
BYLAYER
100
AcDbLine
 10
59.8725130086808264
 20
-48.3924159803021325
 30
0.0
 11
62.1299393183509352
 21
-35.589915191143433
 31
0.0
  0
LINE
  5
141
100
AcDbEntity
  8
keycapedges
 62
256
370
-1
 48
1.0
  6
BYLAYER
100
AcDbLine
 10
4.7625000000000117
 20
-66.6749999999999261
 30
0.0
 11
4.7625000000000117
 21
-47.6249999999999289
 31
0.0
  0
LINE
  5
142
100
AcDbEntity
  8
edge cuts plate
 62
256
370
-1
 48
1.0
  6
BYLAYER
100
AcDbLine
 10
55.1100130086807809
 20
-28.2087817782546324
 30
0.0
 11
57.3674393183508897
 21
-15.4062809890959329
 31
0.0
  0
LINE
  5
143
100
AcDbEntity
  8
keycapedges
 62
256
370
-1
 48
1.0
  6
BYLAYER
100
AcDbLine
 10
67.6230306814894959
 20
-72.1745838178538293
 30
0.0
 11
70.9310284660445234
 21
-53.4139961229712696
 31
0.0
  0
LINE
  5
144
100
AcDbEntity
  8
edge cuts plate
 62
256
370
-1
 48
1.0
  6
BYLAYER
100
AcDbLine
 10
55.1100130086807809
 20
-8.864904821831189
 30
0.0
 11
57.3674393183508897
 21
3.9375959673275105
 31
0.0
  0
LINE
  5
145
100
AcDbEntity
  8
keycapedges
 62
256
370
-1
 48
1.0
  6
BYLAYER
100
AcDbLine
 10
-19.0499999999999901
 20
-9.5249999999999986
 30
0.0
 11
4.7625000000000117
 21
-9.5250000000000128
 31
0.0
  0
LINE
  5
146
100
AcDbEntity
  8
edge cuts plate
 62
256
370
-1
 48
1.0
  6
BYLAYER
100
AcDbLine
 10
73.8706007035633689
 20
-12.1729026063862165
 30
0.0
 11
76.1280270132334778
 21
0.6295981827724972
 31
0.0
  0
LINE
  5
147
100
AcDbEntity
  8
helplines
 62
256
370
-1
 48
1.0
  6
BYLAYER
100
AcDbLine
 10
-14.8124999999999982
 20
9.5250000000000004
 30
0.0
 11
-14.2874999999999979
 21
9.5250000000000004
 31
0.0
  0
LINE
  5
148
100
AcDbEntity
  8
edge cuts plate
 62
256
370
-1
 48
1.0
  6
BYLAYER
100
AcDbLine
 10
73.8706007035633689
 20
-31.5167795628096599
 30
0.0
 11
76.1280270132334778
 21
-18.7142787736509604
 31
0.0
  0
LINE
  5
149
100
AcDbEntity
  8
helplines
 62
256
370
-1
 48
1.0
  6
BYLAYER
100
AcDbLine
 10
-14.2874999999999979
 20
9.5250000000000004
 30
0.0
 11
-14.2874999999999979
 21
10.0500000000000007
 31
0.0
  0
LINE
  5
14A
100
AcDbEntity
  8
edge cuts plate
 62
256
370
-1
 48
1.0
  6
BYLAYER
100
AcDbLine
 10
78.6331007035634144
 20
-51.70041376485716
 30
0.0
 11
80.8905270132334664
 21
-38.8979129756984605
 31
0.0
  0
LINE
  5
14B
100
AcDbEntity
  8
helplines
 62
256
370
-1
 48
1.0
  6
BYLAYER
100
AcDbLine
 10
33.3374999999999986
 20
9.5250000000000039
 30
0.0
 11
33.3374999999999986
 21
10.0500000000000043
 31
0.0
  0
LINE
  5
14C
100
AcDbEntity
  8
edge cuts plate
 62
256
370
-1
 48
1.0
  6
BYLAYER
100
AcDbLine
 10
51.9611923892387182
 20
-66.3336003525398326
 30
0.0
 11
54.2186186989087702
 21
-53.531099563381126
 31
0.0
  0
LINE
  5
14D
100
AcDbEntity
  8
edge cuts plate
 62
256
370
-1
 48
1.0
  6
BYLAYER
100
AcDbLine
 10
97.3936883984458888
 20
-55.0084115494121875
 30
0.0
 11
99.6511147081159976
 21
-42.205910760253488
 31
0.0
  0
LINE
  5
14E
100
AcDbEntity
  8
edge cuts plate
 62
256
370
-1
 48
1.0
  6
BYLAYER
100
AcDbLine
 10
92.631188398445957
 20
-34.8247773473646873
 30
0.0
 11
94.888614708116009
 21
-22.0222765582059594
 31
0.0
  0
LINE
  5
14F
100
AcDbEntity
  8
edge cuts plate
 62
256
370
-1
 48
1.0
  6
BYLAYER
100
AcDbLine
 10
92.631188398445957
 20
-15.4809003909412297
 30
0.0
 11
94.8886147081160658
 21
-2.6783996017825302
 31
0.0
  0
LINE
  5
150
100
AcDbEntity
  8
edge cuts plate
 62
256
370
-1
 48
1.0
  6
BYLAYER
100
AcDbLine
 10
118.3965950115415495
 20
-45.5995868193205354
 30
0.0
 11
118.4117024029985856
 21
-45.513908544808487
 31
0.0
  0
LINE
  5
151
100
AcDbEntity
  8
helplines
 62
256
370
-1
 48
1.0
  6
BYLAYER
100
AcDbLine
 10
111.6878485640853
 20
-2.5688922848665539
 30
0.0
 11
111.7790138573604395
 21
-2.0518682145351446
 31
0.0
  0
LINE
  5
152
100
AcDbEntity
  8
edge cuts plate
 62
256
370
-1
 48
1.0
  6
BYLAYER
100
AcDbLine
 10
112.8462783087734493
 20
-77.0769970288497746
 30
0.0
 11
112.8613857002304854
 21
-76.9913187543376694
 31
0.0
  0
LINE
  5
153
100
AcDbEntity
  8
helplines
 62
256
370
-1
 48
1.0
  6
BYLAYER
100
AcDbLine
 10
111.6878485640853143
 20
-2.5688922848665583
 30
0.0
 11
112.2048726344167164
 21
-2.6600575781416969
 31
0.0
  0
LINE
  5
154
100
AcDbEntity
  8
edge cuts plate
 62
256
370
-1
 48
1.0
  6
BYLAYER
100
AcDbLine
 10
7.2874999999999517
 20
-63.6500000000000625
 30
0.0
 11
7.2874999999999517
 21
-50.6500000000000625
 31
0.0
  0
LINE
  5
155
100
AcDbEntity
  8
outer lines top
 62
256
370
-1
 48
1.0
  6
BYLAYER
100
AcDbLine
 10
111.7790138573604395
 20
-2.0518682145351446
 30
0.0
 11
36.7366630778301655
 21
11.1801229236849533
 31
0.0
  0
LINE
  5
156
100
AcDbEntity
  8
outer lines bottom
 62
256
370
-1
 48
1.0
  6
BYLAYER
100
AcDbLine
 10
69.385982831059863
 20
5.4231669494127273
 30
0.0
 11
43.1911424137819182
 21
10.042024070331415
 31
0.0
  0
LINE
  5
157
100
AcDbEntity
  8
edge cuts plate
 62
256
370
-1
 48
1.0
  6
BYLAYER
100
AcDbLine
 10
6.9999999999999574
 20
-6.5000000000000853
 30
0.0
 11
6.9999999999999574
 21
6.4999999999999147
 31
0.0
  0
LINE
  5
158
100
AcDbEntity
  8
outer lines top
 62
256
370
-1
 48
1.0
  6
BYLAYER
100
AcDbLine
 10
120.6707777597813163
 20
11.6116730816646339
 30
0.0
 11
44.6736374070993776
 21
25.0120193825305144
 31
0.0
  0
LINE
  5
159
100
AcDbEntity
  8
outer lines bottom
 62
256
370
-1
 48
1.0
  6
BYLAYER
100
AcDbLine
 10
120.6707777597812878
 20
11.6116730816646339
 30
0.0
 11
44.6736374070993634
 21
25.0120193825305108
 31
0.0
  0
LINE
  5
15A
100
AcDbEntity
  8
edge cuts plate
 62
256
370
-1
 48
1.0
  6
BYLAYER
100
AcDbLine
 10
4.6187499999999631
 20
-25.5500000000000398
 30
0.0
 11
4.6187499999999631
 21
-12.550000000000054
 31
0.0
  0
LINE
  5
15B
100
AcDbEntity
  8
outer lines top
 62
256
370
-1
 48
1.0
  6
BYLAYER
100
AcDbLine
 10
36.1284737142236096
 20
10.7542641466286835
 30
0.0
 11
36.0954582369024877
 21
10.5670240703314136
 31
0.0
  0
LINE
  5
15C
100
AcDbEntity
  8
edge cuts plate
 62
256
370
-1
 48
1.0
  6
BYLAYER
100
AcDbLine
 10
-0.143750000000054
 20
-63.6500000000000625
 30
0.0
 11
-0.143750000000054
 21
-50.6500000000000625
 31
0.0
  0
LINE
  5
15D
100
AcDbEntity
  8
outer lines top
 62
256
370
-1
 48
1.0
  6
BYLAYER
100
AcDbLine
 10
35.4792929436273496
 20
10.0500000000000043
 30
0.0
 11
-14.2874999999999979
 21
10.0500000000000007
 31
0.0
  0
LINE
  5
15E
100
AcDbEntity
  8
outer lines bottom
 62
256
370
-1
 48
1.0
  6
BYLAYER
100
AcDbLine
 10
7.6204999999999963
 20
10.0500000000000114
 30
0.0
 11
-14.2874999999999925
 21
10.0500000000000114
 31
0.0
  0
LINE
  5
15F
100
AcDbEntity
  8
outer lines bottom
 62
256
370
-1
 48
1.0
  6
BYLAYER
100
AcDbLine
 10
43.099977120506793
 20
10.0500000000000043
 30
0.0
 11
20.9544999999999959
 21
10.0500000000000043
 31
0.0
  0
LINE
  5
160
100
AcDbEntity
  8
edge cuts plate
 62
256
370
-1
 48
1.0
  6
BYLAYER
100
AcDbLine
 10
21.2874999999999517
 20
-63.6500000000000625
 30
0.0
 11
21.2874999999999517
 21
-50.6500000000000625
 31
0.0
  0
ARC
  5
161
100
AcDbEntity
  8
outer lines top
 62
256
370
-1
 48
1.0
  6
BYLAYER
100
AcDbCircle
 10
35.4792929436273496
 20
10.6756706361119651
 30
0.0
 40
0.6256706361119599
100
AcDbArc
 50
270.0
 51
349.9999999999999432
  0
LINE
  5
162
100
AcDbEntity
  8
edge cuts plate
 62
256
370
-1
 48
1.0
  6
BYLAYER
100
AcDbLine
 10
30.8124999999999289
 20
-6.5000000000000568
 30
0.0
 11
30.8124999999999289
 21
6.4999999999999432
 31
0.0
  0
ARC
  5
163
100
AcDbEntity
  8
outer lines top
 62
256
370
-1
 48
1.0
  6
BYLAYER
100
AcDbCircle
 10
36.6454977845550118
 20
10.663098853353544
 30
0.0
 40
0.5249999999999929
100
AcDbArc
 50
79.9999999999984084
 51
169.9999999999999432
  0
LINE
  5
164
100
AcDbEntity
  8
edge cuts plate
 62
256
370
-1
 48
1.0
  6
BYLAYER
100
AcDbLine
 10
30.8124999999999289
 20
-25.5500000000000682
 30
0.0
 11
30.8124999999999289
 21
-12.5500000000000682
 31
0.0
  0
ARC
  5
165
100
AcDbEntity
  8
outer lines top
 62
256
370
-1
 48
1.0
  6
BYLAYER
100
AcDbCircle
 10
111.6878485640853143
 20
-2.5688922848665587
 30
0.0
 40
0.525000000000003
100
AcDbArc
 50
349.9999999999998863
 51
80.0000000000015206
  0
ARC
  5
166
100
AcDbEntity
  8
outer lines bottom
 62
256
370
-1
 48
1.0
  6
BYLAYER
100
AcDbCircle
 10
111.6878485640853143
 20
-2.5688922848665356
 30
0.0
 40
0.525000000000003
100
AcDbArc
 50
349.9999999999998863
 51
80.0000000000015206
  0
LINE
  5
167
100
AcDbEntity
  8
edge cuts plate
 62
256
370
-1
 48
1.0
  6
BYLAYER
100
AcDbLine
 10
35.574999999999946
 20
-44.6000000000000796
 30
0.0
 11
35.574999999999946
 21
-31.6000000000000796
 31
0.0
  0
LINE
  5
168
100
AcDbEntity
  8
helplines
 62
256
370
-1
 48
1.0
  6
BYLAYER
100
AcDbLine
 10
-14.2874999999999979
 20
-9.5250000000000004
 30
0.0
 11
-14.2874999999999979
 21
-9.0
 31
0.0
  0
LINE
  5
169
100
AcDbEntity
  8
edge cuts plate
 62
256
370
-1
 48
1.0
  6
BYLAYER
100
AcDbLine
 10
50.1367338559691831
 20
-7.9879815246131898
 30
0.0
 11
52.3941601656392919
 21
4.8145192645455097
 31
0.0
  0
LINE
  5
16A
100
AcDbEntity
  8
helplines
 62
256
370
-1
 48
1.0
  6
BYLAYER
100
AcDbLine
 10
-14.8124999999999982
 20
-9.5250000000000021
 30
0.0
 11
-14.2874999999999979
 21
-9.5250000000000021
 31
0.0
  0
LINE
  5
16B
100
AcDbEntity
  8
edge cuts plate
 62
256
370
-1
 48
1.0
  6
BYLAYER
100
AcDbLine
 10
50.1367338559691547
 20
-27.331858481036619
 30
0.0
 11
52.3941601656392351
 21
-14.5293576918779195
 31
0.0
  0
LINE
  5
16C
100
AcDbEntity
  8
helplines
 62
256
370
-1
 48
1.0
  6
BYLAYER
100
AcDbLine
 10
-14.8124999999999982
 20
-9.0
 30
0.0
 11
-14.2874999999999979
 21
-9.0
 31
0.0
  0
LINE
  5
16D
100
AcDbEntity
  8
edge cuts plate
 62
256
370
-1
 48
1.0
  6
BYLAYER
100
AcDbLine
 10
54.8992338559691717
 20
-47.5154926830841475
 30
0.0
 11
57.1566601656392805
 21
-34.712991893925448
 31
0.0
  0
LINE
  5
16E
100
AcDbEntity
  8
helplines
 62
256
370
-1
 48
1.0
  6
BYLAYER
100
AcDbLine
 10
-14.8124999999999982
 20
-9.5250000000000004
 30
0.0
 11
-14.8124999999999982
 21
-9.0
 31
0.0
  0
LINE
  5
16F
100
AcDbEntity
  8
edge cuts plate
 62
256
370
-1
 48
1.0
  6
BYLAYER
100
AcDbLine
 10
73.6598215508517598
 20
-50.823490467639175
 30
0.0
 11
75.9172478605218117
 21
-38.0209896784804471
 31
0.0
  0
LINE
  5
170
100
AcDbEntity
  8
helplines
 62
256
370
-1
 48
1.0
  6
BYLAYER
100
AcDbLine
 10
-19.0499999999999901
 20
-9.5249999999999986
 30
0.0
 11
-19.0499999999999901
 21
-8.9999999999999982
 31
0.0
  0
LINE
  5
171
100
AcDbEntity
  8
edge cuts plate
 62
256
370
-1
 48
1.0
  6
BYLAYER
100
AcDbLine
 10
68.8973215508517143
 20
-30.6398562655916464
 30
0.0
 11
71.1547478605218231
 21
-17.8373554764329469
 31
0.0
  0
LINE
  5
172
100
AcDbEntity
  8
helplines
 62
256
370
-1
 48
1.0
  6
BYLAYER
100
AcDbLine
 10
-19.5749999999999318
 20
-9.5250000000000004
 30
0.0
 11
-19.0499999999999332
 21
-9.5250000000000004
 31
0.0
  0
LINE
  5
173
100
AcDbEntity
  8
edge cuts plate
 62
256
370
-1
 48
1.0
  6
BYLAYER
100
AcDbLine
 10
68.8973215508517143
 20
-11.2959793091682172
 30
0.0
 11
71.1547478605218231
 21
1.5065214799904822
 31
0.0
  0
LINE
  5
174
100
AcDbEntity
  8
outer lines top
 62
256
370
-1
 48
1.0
  6
BYLAYER
100
AcDbLine
 10
-19.0499999999999901
 20
-8.9999999999999982
 30
0.0
 11
-15.3374999999999986
 21
-9.0
 31
0.0
  0
LINE
  5
175
100
AcDbEntity
  8
outer lines bottom
 62
256
370
-1
 48
1.0
  6
BYLAYER
100
AcDbLine
 10
-19.0499999999999972
 20
-8.9999999999999858
 30
0.0
 11
-15.3374999999999897
 21
-8.9999999999999858
 31
0.0
  0
LINE
  5
176
100
AcDbEntity
  8
edge cuts plate
 62
256
370
-1
 48
1.0
  6
BYLAYER
100
AcDbLine
 10
87.6579092457343023
 20
-14.6039770937232447
 30
0.0
 11
89.9153355554043543
 21
-1.801476304564531
 31
0.0
  0
LINE
  5
177
100
AcDbEntity
  8
outer lines top
 62
256
370
-1
 48
1.0
  6
BYLAYER
100
AcDbLine
 10
-14.8124999999999964
 20
-8.4749999999999996
 30
0.0
 11
-14.8124999999999982
 21
9.5250000000000004
 31
0.0
  0
LINE
  5
178
100
AcDbEntity
  8
outer lines bottom
 62
256
370
-1
 48
1.0
  6
BYLAYER
100
AcDbLine
 10
-14.8124999999999982
 20
-8.4749999999999943
 30
0.0
 11
-14.8124999999999982
 21
9.5250000000000057
 31
0.0
  0
LINE
  5
179
100
AcDbEntity
  8
edge cuts plate
 62
256
370
-1
 48
1.0
  6
BYLAYER
100
AcDbLine
 10
87.6579092457343023
 20
-33.9478540501466739
 30
0.0
 11
89.9153355554043543
 21
-21.1453532609879744
 31
0.0
  0
ARC
  5
17A
100
AcDbEntity
  8
outer lines top
 62
256
370
-1
 48
1.0
  6
BYLAYER
100
AcDbCircle
 10
-14.2874999999999961
 20
9.5250000000000004
 30
0.0
 40
0.5250000000000004
100
AcDbArc
 50
90.0
 51
180.0
  0
ARC
  5
17B
100
AcDbEntity
  8
outer lines bottom
 62
256
370
-1
 48
1.0
  6
BYLAYER
100
AcDbCircle
 10
-14.2874999999999925
 20
9.5250000000000057
 30
0.0
 40
0.5250000000000004
100
AcDbArc
 50
90.0
 51
180.0
  0
LINE
  5
17C
100
AcDbEntity
  8
edge cuts plate
 62
256
370
-1
 48
1.0
  6
BYLAYER
100
AcDbLine
 10
92.4204092457342909
 20
-54.1314882521942025
 30
0.0
 11
94.6778355554043998
 21
-41.3289874630354745
 31
0.0
  0
ARC
  5
17D
100
AcDbEntity
  8
outer lines top
 62
256
370
-1
 48
1.0
  6
BYLAYER
100
AcDbCircle
 10
-19.0499999999999616
 20
-9.5249999999999684
 30
0.0
 40
0.5249999999999702
100
AcDbArc
 50
90.0000000000034959
 51
180.0
  0
ARC
  5
17E
100
AcDbEntity
  8
outer lines bottom
 62
256
370
-1
 48
1.0
  6
BYLAYER
100
AcDbCircle
 10
-19.0499999999999687
 20
-9.5249999999999488
 30
0.0
 40
0.5249999999999702
100
AcDbArc
 50
90.0000000000034959
 51
180.0
  0
LINE
  5
17F
100
AcDbEntity
  8
edge cuts plate
 62
256
370
-1
 48
1.0
  6
BYLAYER
100
AcDbLine
 10
111.1809969406168221
 20
-57.4394860367492015
 30
0.0
 11
113.438423250286931
 21
-44.636985247590502
 31
0.0
  0
LINE
  5
180
100
AcDbEntity
  8
outer lines top
 62
256
370
-1
 48
1.0
  6
BYLAYER
100
AcDbLine
 10
-19.5749999999999318
 20
-9.5250000000000004
 30
0.0
 11
-19.5749999999999318
 21
-27.5249999999999488
 31
0.0
  0
LINE
  5
181
100
AcDbEntity
  8
outer lines bottom
 62
256
370
-1
 48
1.0
  6
BYLAYER
100
AcDbLine
 10
-19.5749999999999318
 20
-9.5249999999999773
 30
0.0
 11
-19.5749999999999318
 21
-27.5249999999999346
 31
0.0
  0
LINE
  5
182
100
AcDbEntity
  8
edge cuts plate
 62
256
370
-1
 48
1.0
  6
BYLAYER
100
AcDbLine
 10
106.4184969406168335
 20
-37.2558518347017014
 30
0.0
 11
108.6759232502869423
 21
-24.4533510455430019
 31
0.0
  0
LINE
  5
183
100
AcDbEntity
  8
helplines
 62
256
370
-1
 48
1.0
  6
BYLAYER
100
AcDbLine
 10
-19.0499999999999332
 20
-28.5749999999999424
 30
0.0
 11
-19.0499999999999332
 21
-28.0499999999999439
 31
0.0
  0
LINE
  5
184
100
AcDbEntity
  8
edge cuts plate
 62
256
370
-1
 48
1.0
  6
BYLAYER
100
AcDbLine
 10
106.4184969406168904
 20
-17.9119748782782722
 30
0.0
 11
108.6759232502869423
 21
-5.1094740891195585
 31
0.0
  0
LINE
  5
185
100
AcDbEntity
  8
helplines
 62
256
370
-1
 48
1.0
  6
BYLAYER
100
AcDbLine
 10
-23.8124999999999787
 20
-28.574999999999946
 30
0.0
 11
-23.8124999999999787
 21
-28.0499999999999474
 31
0.0
  0
LINE
  5
186
100
AcDbEntity
  8
edge cuts plate
 62
256
370
-1
 48
1.0
  6
BYLAYER
100
AcDbLine
 10
65.6616768425760853
 20
-68.7570787163830062
 30
0.0
 11
67.9191031522461941
 21
-55.9545779272242783
 31
0.0
  0
LINE
  5
187
100
AcDbEntity
  8
helplines
 62
256
370
-1
 48
1.0
  6
BYLAYER
100
AcDbLine
 10
-19.5749999999999318
 20
-28.0499999999999439
 30
0.0
 11
-19.0499999999999332
 21
-28.0499999999999439
 31
0.0
  0
ARC
  5
188
100
AcDbEntity
  8
edge cuts plate
 62
256
370
-1
 48
1.0
  6
BYLAYER
100
AcDbCircle
 10
-6.5000000000000711
 20
6.4999999999999147
 30
0.0
 40
0.5
100
AcDbArc
 50
90.0
 51
180.0
  0
LINE
  5
189
100
AcDbEntity
  8
helplines
 62
256
370
-1
 48
1.0
  6
BYLAYER
100
AcDbLine
 10
-24.3374999999999773
 20
-28.574999999999946
 30
0.0
 11
-23.8124999999999787
 21
-28.574999999999946
 31
0.0
  0
ARC
  5
18A
100
AcDbEntity
  8
edge cuts plate
 62
256
370
-1
 48
1.0
  6
BYLAYER
100
AcDbCircle
 10
-13.643750000000054
 20
-50.6500000000000625
 30
0.0
 40
0.5
100
AcDbArc
 50
90.0
 51
180.0
  0
ARC
  5
18B
100
AcDbEntity
  8
outer lines top
 62
256
370
-1
 48
1.0
  6
BYLAYER
100
AcDbCircle
 10
-23.8124999999999787
 20
-28.574999999999946
 30
0.0
 40
0.5249999999999986
100
AcDbArc
 50
90.0
 51
180.0
  0
ARC
  5
18C
100
AcDbEntity
  8
outer lines bottom
 62
256
370
-1
 48
1.0
  6
BYLAYER
100
AcDbCircle
 10
-23.8124999999999858
 20
-28.5749999999999318
 30
0.0
 40
0.5249999999999986
100
AcDbArc
 50
90.0
 51
180.0
  0
ARC
  5
18D
100
AcDbEntity
  8
edge cuts plate
 62
256
370
-1
 48
1.0
  6
BYLAYER
100
AcDbCircle
 10
-13.643750000000054
 20
-12.550000000000118
 30
0.0
 40
0.5
100
AcDbArc
 50
90.0
 51
180.0
  0
LINE
  5
18E
100
AcDbEntity
  8
outer lines top
 62
256
370
-1
 48
1.0
  6
BYLAYER
100
AcDbLine
 10
-23.8124999999999787
 20
-28.0499999999999474
 30
0.0
 11
-20.0999999999999304
 21
-28.0499999999999474
 31
0.0
  0
LINE
  5
18F
100
AcDbEntity
  8
outer lines bottom
 62
256
370
-1
 48
1.0
  6
BYLAYER
100
AcDbLine
 10
-23.8124999999999858
 20
-28.0499999999999261
 30
0.0
 11
-20.0999999999999233
 21
-28.0499999999999261
 31
0.0
  0
ARC
  5
190
100
AcDbEntity
  8
edge cuts plate
 62
256
370
-1
 48
1.0
  6
BYLAYER
100
AcDbCircle
 10
17.3124999999999289
 20
6.4999999999999432
 30
0.0
 40
0.5
100
AcDbArc
 50
90.0
 51
180.0
  0
LINE
  5
191
100
AcDbEntity
  8
helplines
 62
256
370
-1
 48
1.0
  6
BYLAYER
100
AcDbLine
 10
108.3798507795302584
 20
-21.3294799797491201
 30
0.0
 11
108.8968748498616606
 21
-21.4206452730242596
 31
0.0
  0
ARC
  5
192
100
AcDbEntity
  8
edge cuts plate
 62
256
370
-1
 48
1.0
  6
BYLAYER
100
AcDbCircle
 10
17.3124999999999289
 20
-12.5500000000000682
 30
0.0
 40
0.5
100
AcDbArc
 50
90.0
 51
180.0
  0
LINE
  5
193
100
AcDbEntity
  8
helplines
 62
256
370
-1
 48
1.0
  6
BYLAYER
100
AcDbLine
 10
108.3798507795302584
 20
-40.6733569361725387
 30
0.0
 11
108.8968748498616606
 21
-40.7645222294476781
 31
0.0
  0
ARC
  5
194
100
AcDbEntity
  8
edge cuts plate
 62
256
370
-1
 48
1.0
  6
BYLAYER
100
AcDbCircle
 10
22.074999999999946
 20
-31.6000000000000796
 30
0.0
 40
0.5
100
AcDbArc
 50
90.0
 51
180.0
  0
LINE
  5
195
100
AcDbEntity
  8
helplines
 62
256
370
-1
 48
1.0
  6
BYLAYER
100
AcDbLine
 10
108.8968748498616606
 20
-21.4206452730242596
 30
0.0
 11
108.9880401431368
 21
-20.9036212026928503
 31
0.0
  0
ARC
  5
196
100
AcDbEntity
  8
edge cuts plate
 62
256
370
-1
 48
1.0
  6
BYLAYER
100
AcDbCircle
 10
39.0992554999744613
 20
7.1587696630490711
 30
0.0
 40
0.5
100
AcDbArc
 50
80.0
 51
170.0000000000000284
  0
LINE
  5
197
100
AcDbEntity
  8
helplines
 62
256
370
-1
 48
1.0
  6
BYLAYER
100
AcDbLine
 10
108.8968748498616606
 20
-40.7645222294476781
 30
0.0
 11
108.9880401431368
 21
-40.2474981591162617
 31
0.0
  0
ARC
  5
198
100
AcDbEntity
  8
edge cuts plate
 62
256
370
-1
 48
1.0
  6
BYLAYER
100
AcDbCircle
 10
39.0992554999744328
 20
-12.1851072933743723
 30
0.0
 40
0.5
100
AcDbArc
 50
80.0
 51
170.0000000000000284
  0
LINE
  5
199
100
AcDbEntity
  8
helplines
 62
256
370
-1
 48
1.0
  6
BYLAYER
100
AcDbLine
 10
111.6878485640852858
 20
-21.9127692412899968
 30
0.0
 11
111.7790138573604253
 21
-21.3957451709585875
 31
0.0
  0
ARC
  5
19A
100
AcDbEntity
  8
edge cuts plate
 62
256
370
-1
 48
1.0
  6
BYLAYER
100
AcDbCircle
 10
43.8617554999744783
 20
-32.3687414954218866
 30
0.0
 40
0.5
100
AcDbArc
 50
80.0
 51
170.0000000000000284
  0
LINE
  5
19B
100
AcDbEntity
  8
helplines
 62
256
370
-1
 48
1.0
  6
BYLAYER
100
AcDbLine
 10
135.210936258967763
 20
-45.4044012278924995
 30
0.0
 11
135.3021015522429025
 21
-44.8873771575610974
 31
0.0
  0
ARC
  5
19C
100
AcDbEntity
  8
edge cuts plate
 62
256
370
-1
 48
1.0
  6
BYLAYER
100
AcDbCircle
 10
54.7110225754148729
 20
-53.6179236522145928
 30
0.0
 40
0.5
100
AcDbArc
 50
80.0
 51
170.0000000000000284
  0
LINE
  5
19D
100
AcDbEntity
  8
helplines
 62
256
370
-1
 48
1.0
  6
BYLAYER
100
AcDbLine
 10
128.5037753965825971
 20
-83.4426006879890707
 30
0.0
 11
128.5949406898577365
 21
-82.9255766176576543
 31
0.0
  0
ARC
  5
19E
100
AcDbEntity
  8
edge cuts plate
 62
256
370
-1
 48
1.0
  6
BYLAYER
100
AcDbCircle
 10
62.6223431948570379
 20
-35.6767392799768857
 30
0.0
 40
0.5
100
AcDbArc
 50
80.0
 51
170.0000000000000284
  0
LINE
  5
19F
100
AcDbEntity
  8
helplines
 62
256
370
-1
 48
1.0
  6
BYLAYER
100
AcDbLine
 10
44.0811307696111712
 20
-68.5566106574914613
 30
0.0
 11
44.1722960628863106
 21
-68.0395865871600449
 31
0.0
  0
ARC
  5
1A0
100
AcDbEntity
  8
edge cuts plate
 62
256
370
-1
 48
1.0
  6
BYLAYER
100
AcDbCircle
 10
57.8598431948570493
 20
-15.4931050779294139
 30
0.0
 40
0.5
100
AcDbArc
 50
80.0
 51
170.0000000000000284
  0
LINE
  5
1A1
100
AcDbEntity
  8
helplines
 62
256
370
-1
 48
1.0
  6
BYLAYER
100
AcDbLine
 10
46.8721044838347751
 20
-49.7048576693337623
 30
0.0
 11
46.9632697771099146
 21
-49.1878335990023459
 31
0.0
  0
ARC
  5
1A2
100
AcDbEntity
  8
edge cuts plate
 62
256
370
-1
 48
1.0
  6
BYLAYER
100
AcDbCircle
 10
57.8598431948570493
 20
3.8507718784940437
 30
0.0
 40
0.5
100
AcDbArc
 50
80.0
 51
170.0000000000000284
  0
LINE
  5
1A3
100
AcDbEntity
  8
helplines
 62
256
370
-1
 48
1.0
  6
BYLAYER
100
AcDbLine
 10
38.0088347067248478
 20
-48.1420240703317361
 30
0.0
 11
38.0999999999999872
 21
-47.6250000000003197
 31
0.0
  0
ARC
  5
1A4
100
AcDbEntity
  8
edge cuts plate
 62
256
370
-1
 48
1.0
  6
BYLAYER
100
AcDbCircle
 10
76.6204308897395805
 20
0.5427740939390162
 30
0.0
 40
0.5
100
AcDbArc
 50
80.0
 51
170.0000000000000284
  0
LINE
  5
1A5
100
AcDbEntity
  8
helplines
 62
256
370
-1
 48
1.0
  6
BYLAYER
100
AcDbLine
 10
111.6878485640853
 20
-21.9127692412900004
 30
0.0
 11
112.2048726344167022
 21
-22.0039345345651398
 31
0.0
  0
ARC
  5
1A6
100
AcDbEntity
  8
edge cuts plate
 62
256
370
-1
 48
1.0
  6
BYLAYER
100
AcDbCircle
 10
76.6204308897395805
 20
-18.801102862484413
 30
0.0
 40
0.5
100
AcDbArc
 50
80.0
 51
170.0000000000000284
  0
LINE
  5
1A7
100
AcDbEntity
  8
helplines
 62
256
370
-1
 48
1.0
  6
BYLAYER
100
AcDbLine
 10
135.2109362589677914
 20
-45.4044012278925067
 30
0.0
 11
135.7279603292992078
 21
-45.4955665211676461
 31
0.0
  0
ARC
  5
1A8
100
AcDbEntity
  8
edge cuts plate
 62
256
370
-1
 48
1.0
  6
BYLAYER
100
AcDbCircle
 10
81.3829308897395691
 20
-38.9847370645319131
 30
0.0
 40
0.5
100
AcDbArc
 50
80.0
 51
170.0000000000000284
  0
LINE
  5
1A9
100
AcDbEntity
  8
helplines
 62
256
370
-1
 48
1.0
  6
BYLAYER
100
AcDbLine
 10
128.5949406898577649
 20
-82.9255766176576401
 30
0.0
 11
129.1119647601891813
 21
-83.0167419109327795
 31
0.0
  0
ARC
  5
1AA
100
AcDbEntity
  8
edge cuts plate
 62
256
370
-1
 48
1.0
  6
BYLAYER
100
AcDbCircle
 10
100.1435185846221003
 20
-42.2927348490869406
 30
0.0
 40
0.5
100
AcDbArc
 50
80.0
 51
170.0000000000000284
  0
LINE
  5
1AB
100
AcDbEntity
  8
helplines
 62
256
370
-1
 48
1.0
  6
BYLAYER
100
AcDbLine
 10
43.6552719925548942
 20
-67.9484212938849055
 30
0.0
 11
44.1722960628863106
 21
-68.0395865871600449
 31
0.0
  0
ARC
  5
1AC
100
AcDbEntity
  8
edge cuts plate
 62
256
370
-1
 48
1.0
  6
BYLAYER
100
AcDbCircle
 10
95.3810185846221117
 20
-22.1091006470394404
 30
0.0
 40
0.5
100
AcDbArc
 50
80.0
 51
170.0000000000000284
  0
LINE
  5
1AD
100
AcDbEntity
  8
helplines
 62
256
370
-1
 48
1.0
  6
BYLAYER
100
AcDbLine
 10
46.9632697771099146
 20
-49.1878335990023459
 30
0.0
 11
47.480293847441331
 21
-49.2789988922774853
 31
0.0
  0
ARC
  5
1AE
100
AcDbEntity
  8
edge cuts plate
 62
256
370
-1
 48
1.0
  6
BYLAYER
100
AcDbCircle
 10
95.3810185846221685
 20
-2.7652236906160113
 30
0.0
 40
0.5
100
AcDbArc
 50
80.0
 51
170.0000000000000284
  0
LINE
  5
1AF
100
AcDbEntity
  8
outer lines top
 62
256
370
-1
 48
1.0
  6
BYLAYER
100
AcDbLine
 10
109.0792054364119394
 20
-20.3865971323614374
 30
0.0
 11
112.2048726344167306
 21
-2.6600575781416986
 31
0.0
  0
LINE
  5
1B0
100
AcDbEntity
  8
outer lines bottom
 62
256
370
-1
 48
1.0
  6
BYLAYER
100
AcDbLine
 10
109.0792054364119394
 20
-20.3865971323614303
 30
0.0
 11
112.2048726344167306
 21
-2.6600575781416751
 31
0.0
  0
ARC
  5
1B1
100
AcDbEntity
  8
edge cuts plate
 62
256
370
-1
 48
1.0
  6
BYLAYER
100
AcDbCircle
 10
118.9041062795046884
 20
-45.6007326336419681
 30
0.0
 40
0.5
100
AcDbArc
 50
80.0
 51
170.0000000000000284
  0
LINE
  5
1B2
100
AcDbEntity
  8
outer lines top
 62
256
370
-1
 48
1.0
  6
BYLAYER
100
AcDbLine
 10
109.5050642134682022
 20
-20.9947864959679862
 30
0.0
 11
111.7790138573604253
 21
-21.3957451709585875
 31
0.0
  0
LINE
  5
1B3
100
AcDbEntity
  8
outer lines bottom
 62
256
370
-1
 48
1.0
  6
BYLAYER
100
AcDbLine
 10
109.5050642134682022
 20
-20.994786495967972
 30
0.0
 11
111.7790138573604253
 21
-21.3957451709585769
 31
0.0
  0
ARC
  5
1B4
100
AcDbEntity
  8
edge cuts plate
 62
256
370
-1
 48
1.0
  6
BYLAYER
100
AcDbCircle
 10
7.7874999999999517
 20
-50.6500000000000625
 30
0.0
 40
0.5
100
AcDbArc
 50
90.0
 51
180.0
  0
ARC
  5
1B5
100
AcDbEntity
  8
outer lines top
 62
256
370
-1
 48
1.0
  6
BYLAYER
100
AcDbCircle
 10
111.6878485640852858
 20
-21.9127692412899897
 30
0.0
 40
0.5249999999999957
100
AcDbArc
 50
349.9999999999988631
 51
79.9999999999982236
  0
ARC
  5
1B6
100
AcDbEntity
  8
outer lines bottom
 62
256
370
-1
 48
1.0
  6
BYLAYER
100
AcDbCircle
 10
111.6878485640852858
 20
-21.912769241289979
 30
0.0
 40
0.5249999999999957
100
AcDbArc
 50
349.9999999999988631
 51
79.9999999999982236
  0
ARC
  5
1B7
100
AcDbEntity
  8
edge cuts plate
 62
256
370
-1
 48
1.0
  6
BYLAYER
100
AcDbCircle
 10
6.4999999999999574
 20
6.4999999999999147
 30
0.0
 40
0.5
100
AcDbArc
 50
0.0
 51
90.0000000000000995
  0
LINE
  5
1B8
100
AcDbEntity
  8
outer lines top
 62
256
370
-1
 48
1.0
  6
BYLAYER
100
AcDbLine
 10
109.0792054364119394
 20
-39.7304740887848453
 30
0.0
 11
112.204872634416688
 21
-22.0039345345651363
 31
0.0
  0
LINE
  5
1B9
100
AcDbEntity
  8
outer lines bottom
 62
256
370
-1
 48
1.0
  6
BYLAYER
100
AcDbLine
 10
109.0792054364119394
 20
-39.7304740887848311
 30
0.0
 11
112.204872634416688
 21
-22.0039345345651185
 31
0.0
  0
ARC
  5
1BA
100
AcDbEntity
  8
edge cuts plate
 62
256
370
-1
 48
1.0
  6
BYLAYER
100
AcDbCircle
 10
4.1187499999999631
 20
-12.550000000000054
 30
0.0
 40
0.5
100
AcDbArc
 50
0.0
 51
90.0000000000000995
  0
LINE
  5
1BB
100
AcDbEntity
  8
outer lines top
 62
256
370
-1
 48
1.0
  6
BYLAYER
100
AcDbLine
 10
135.3021015522429025
 20
-44.8873771575610974
 30
0.0
 11
109.5050642134682164
 21
-40.3386634523914012
 31
0.0
  0
LINE
  5
1BC
100
AcDbEntity
  8
outer lines bottom
 62
256
370
-1
 48
1.0
  6
BYLAYER
100
AcDbLine
 10
135.3021015522429025
 20
-44.8873771575610832
 30
0.0
 11
109.5050642134682164
 21
-40.338663452391387
 31
0.0
  0
ARC
  5
1BD
100
AcDbEntity
  8
edge cuts plate
 62
256
370
-1
 48
1.0
  6
BYLAYER
100
AcDbCircle
 10
-0.643750000000054
 20
-50.6500000000000625
 30
0.0
 40
0.5
100
AcDbArc
 50
0.0
 51
90.0000000000000995
  0
ARC
  5
1BE
100
AcDbEntity
  8
outer lines top
 62
256
370
-1
 48
1.0
  6
BYLAYER
100
AcDbCircle
 10
135.2109362589678199
 20
-45.4044012278925138
 30
0.0
 40
0.5250000000000022
100
AcDbArc
 50
350.0000000000002842
 51
80.000000000003098
  0
ARC
  5
1BF
100
AcDbEntity
  8
outer lines bottom
 62
256
370
-1
 48
1.0
  6
BYLAYER
100
AcDbCircle
 10
135.2109362589678199
 20
-45.4044012278924995
 30
0.0
 40
0.5250000000000022
100
AcDbArc
 50
350.0000000000002842
 51
80.000000000003098
  0
ARC
  5
1C0
100
AcDbEntity
  8
edge cuts plate
 62
256
370
-1
 48
1.0
  6
BYLAYER
100
AcDbCircle
 10
20.7874999999999517
 20
-50.6500000000000625
 30
0.0
 40
0.5
100
AcDbArc
 50
0.0
 51
90.0000000000000995
  0
ARC
  5
1C1
100
AcDbEntity
  8
outer lines top
 62
256
370
-1
 48
1.0
  6
BYLAYER
100
AcDbCircle
 10
128.5949406898577365
 20
-82.9255766176576259
 30
0.0
 40
0.5250000000000377
100
AcDbArc
 50
260.0000000000005684
 51
349.9999999999990905
  0
ARC
  5
1C2
100
AcDbEntity
  8
outer lines bottom
 62
256
370
-1
 48
1.0
  6
BYLAYER
100
AcDbCircle
 10
128.5949406898577649
 20
-82.9255766176576117
 30
0.0
 40
0.5250000000000377
100
AcDbArc
 50
260.0000000000005684
 51
349.9999999999990905
  0
ARC
  5
1C3
100
AcDbEntity
  8
edge cuts plate
 62
256
370
-1
 48
1.0
  6
BYLAYER
100
AcDbCircle
 10
30.3124999999999289
 20
6.4999999999999432
 30
0.0
 40
0.5
100
AcDbArc
 50
0.0
 51
90.0000000000000995
  0
LINE
  5
1C4
100
AcDbEntity
  8
outer lines top
 62
256
370
-1
 48
1.0
  6
BYLAYER
100
AcDbLine
 10
129.1119647601891813
 20
-83.0167419109327795
 30
0.0
 11
135.7279603292992363
 21
-45.4955665211676532
 31
0.0
  0
LINE
  5
1C5
100
AcDbEntity
  8
outer lines bottom
 62
256
370
-1
 48
1.0
  6
BYLAYER
100
AcDbLine
 10
129.1119647601892098
 20
-83.0167419109327653
 30
0.0
 11
135.7279603292992647
 21
-45.495566521167639
 31
0.0
  0
ARC
  5
1C6
100
AcDbEntity
  8
edge cuts plate
 62
256
370
-1
 48
1.0
  6
BYLAYER
100
AcDbCircle
 10
30.3124999999999289
 20
-12.5500000000000682
 30
0.0
 40
0.5
100
AcDbArc
 50
0.0
 51
90.0000000000000995
  0
LINE
  5
1C7
100
AcDbEntity
  8
outer lines top
 62
256
370
-1
 48
1.0
  6
BYLAYER
100
AcDbLine
 10
133.0765973436404295
 20
-89.3260456346599057
 30
0.0
 11
141.1772848318027513
 21
-43.3847639566403558
 31
0.0
  0
LINE
  5
1C8
100
AcDbEntity
  8
outer lines bottom
 62
256
370
-1
 48
1.0
  6
BYLAYER
100
AcDbLine
 10
133.0765973436404579
 20
-89.3260456346599199
 30
0.0
 11
141.1772848318027513
 21
-43.3847639566403558
 31
0.0
  0
ARC
  5
1C9
100
AcDbEntity
  8
edge cuts plate
 62
256
370
-1
 48
1.0
  6
BYLAYER
100
AcDbCircle
 10
35.074999999999946
 20
-31.6000000000000796
 30
0.0
 40
0.5
100
AcDbArc
 50
0.0
 51
90.0000000000000995
  0
LINE
  5
1CA
100
AcDbEntity
  8
outer lines top
 62
256
370
-1
 48
1.0
  6
BYLAYER
100
AcDbLine
 10
44.0811307696111712
 20
-68.5566106574914613
 30
0.0
 11
128.5037753965825971
 21
-83.4426006879890707
 31
0.0
  0
LINE
  5
1CB
100
AcDbEntity
  8
outer lines bottom
 62
256
370
-1
 48
1.0
  6
BYLAYER
100
AcDbLine
 10
36.4326431564041258
 20
-67.2079759296685637
 30
0.0
 11
128.5037753965826255
 21
-83.4426006879890423
 31
0.0
  0
ARC
  5
1CC
100
AcDbEntity
  8
edge cuts plate
 62
256
370
-1
 48
1.0
  6
BYLAYER
100
AcDbCircle
 10
51.9017562891331323
 20
4.9013433533789765
 30
0.0
 40
0.5
100
AcDbArc
 50
350.0
 51
80.0000000000000995
  0
LINE
  5
1CD
100
AcDbEntity
  8
outer lines top
 62
256
370
-1
 48
1.0
  6
BYLAYER
100
AcDbLine
 10
46.7809391905596286
 20
-50.2218817396652
 30
0.0
 11
43.6552719925548942
 21
-67.9484212938849055
 31
0.0
  0
ARC
  5
1CE
100
AcDbEntity
  8
edge cuts plate
 62
256
370
-1
 48
1.0
  6
BYLAYER
100
AcDbCircle
 10
51.9017562891331323
 20
-14.4425336030444669
 30
0.0
 40
0.5
100
AcDbArc
 50
350.0
 51
80.0000000000000995
  0
LINE
  5
1CF
100
AcDbEntity
  8
helplines
 62
256
370
-1
 48
1.0
  6
BYLAYER
100
AcDbLine
 10
38.0999999999999801
 20
-48.1500000000003325
 30
0.0
 11
38.0999999999999801
 21
-47.625000000000334
 31
0.0
  0
ARC
  5
1D0
100
AcDbEntity
  8
edge cuts plate
 62
256
370
-1
 48
1.0
  6
BYLAYER
100
AcDbCircle
 10
56.6642562891331778
 20
-34.626167805091967
 30
0.0
 40
0.5
100
AcDbArc
 50
350.0
 51
80.0000000000000995
  0
LINE
  5
1D1
100
AcDbEntity
  8
outer lines top
 62
256
370
-1
 48
1.0
  6
BYLAYER
100
AcDbLine
 10
38.0993021965729497
 20
-48.1579759296689218
 30
0.0
 11
46.3550804135033374
 21
-49.613692376058637
 31
0.0
  0
ARC
  5
1D2
100
AcDbEntity
  8
edge cuts plate
 62
256
370
-1
 48
1.0
  6
BYLAYER
100
AcDbCircle
 10
75.4248439840157658
 20
-37.9341655896469945
 30
0.0
 40
0.5
100
AcDbArc
 50
350.0
 51
80.0000000000000995
  0
LINE
  5
1D3
100
AcDbEntity
  8
outer lines top
 62
256
370
-1
 48
1.0
  6
BYLAYER
100
AcDbLine
 10
38.0081369032978316
 20
-48.1500000000003325
 30
0.0
 11
29.6250000000000071
 21
-48.1500000000003396
 31
0.0
  0
ARC
  5
1D4
100
AcDbEntity
  8
edge cuts plate
 62
256
370
-1
 48
1.0
  6
BYLAYER
100
AcDbCircle
 10
70.6623439840157204
 20
-17.7505313875994943
 30
0.0
 40
0.5
100
AcDbArc
 50
350.0
 51
80.0000000000000995
  0
LINE
  5
1D5
100
AcDbEntity
  8
helplines
 62
256
370
-1
 48
1.0
  6
BYLAYER
100
AcDbLine
 10
28.5750000000000099
 20
-48.1500000000003396
 30
0.0
 11
29.1000000000000085
 21
-48.1500000000003396
 31
0.0
  0
ARC
  5
1D6
100
AcDbEntity
  8
edge cuts plate
 62
256
370
-1
 48
1.0
  6
BYLAYER
100
AcDbCircle
 10
70.6623439840157204
 20
1.5933455688239491
 30
0.0
 40
0.5
100
AcDbArc
 50
350.0
 51
80.0000000000000995
  0
LINE
  5
1D7
100
AcDbEntity
  8
helplines
 62
256
370
-1
 48
1.0
  6
BYLAYER
100
AcDbLine
 10
28.5750000000000099
 20
-66.6749999999999545
 30
0.0
 11
29.1000000000000156
 21
-66.6749999999999545
 31
0.0
  0
ARC
  5
1D8
100
AcDbEntity
  8
edge cuts plate
 62
256
370
-1
 48
1.0
  6
BYLAYER
100
AcDbCircle
 10
89.4229316788983084
 20
-1.7146522157310642
 30
0.0
 40
0.5
100
AcDbArc
 50
350.0
 51
80.0000000000000995
  0
LINE
  5
1D9
100
AcDbEntity
  8
helplines
 62
256
370
-1
 48
1.0
  6
BYLAYER
100
AcDbLine
 10
-19.5749999999999957
 20
-66.6749999999999403
 30
0.0
 11
-19.0499999999999901
 21
-66.6749999999999403
 31
0.0
  0
ARC
  5
1DA
100
AcDbEntity
  8
edge cuts plate
 62
256
370
-1
 48
1.0
  6
BYLAYER
100
AcDbCircle
 10
89.4229316788983084
 20
-21.0585291721545218
 30
0.0
 40
0.5
100
AcDbArc
 50
350.0
 51
80.0000000000000995
  0
LINE
  5
1DB
100
AcDbEntity
  8
helplines
 62
256
370
-1
 48
1.0
  6
BYLAYER
100
AcDbLine
 10
-19.5749999999999957
 20
-47.6249999999999574
 30
0.0
 11
-19.0499999999999901
 21
-47.6249999999999574
 31
0.0
  0
ARC
  5
1DC
100
AcDbEntity
  8
edge cuts plate
 62
256
370
-1
 48
1.0
  6
BYLAYER
100
AcDbCircle
 10
94.185431678898297
 20
-41.2421633742020219
 30
0.0
 40
0.5
100
AcDbArc
 50
350.0
 51
80.0000000000000995
  0
LINE
  5
1DD
100
AcDbEntity
  8
outer lines top
 62
256
370
-1
 48
1.0
  6
BYLAYER
100
AcDbLine
 10
29.1000000000000156
 20
-66.6749999999999545
 30
0.0
 11
29.1000000000000085
 21
-48.6750000000003382
 31
0.0
  0
ARC
  5
1DE
100
AcDbEntity
  8
edge cuts plate
 62
256
370
-1
 48
1.0
  6
BYLAYER
100
AcDbCircle
 10
112.9460193737808282
 20
-44.5501611587570494
 30
0.0
 40
0.5
100
AcDbArc
 50
350.0
 51
80.0000000000000995
  0
ARC
  5
1DF
100
AcDbEntity
  8
outer lines top
 62
256
370
-1
 48
1.0
  6
BYLAYER
100
AcDbCircle
 10
-20.0999999999999304
 20
-27.5249999999999488
 30
0.0
 40
0.525
100
AcDbArc
 50
270.0
 51
0.0
  0
ARC
  5
1E0
100
AcDbEntity
  8
outer lines bottom
 62
256
370
-1
 48
1.0
  6
BYLAYER
100
AcDbCircle
 10
-20.0999999999999233
 20
-27.5249999999999346
 30
0.0
 40
0.525
100
AcDbArc
 50
270.0
 51
0.0
  0
ARC
  5
1E1
100
AcDbEntity
  8
edge cuts plate
 62
256
370
-1
 48
1.0
  6
BYLAYER
100
AcDbCircle
 10
108.1835193737808396
 20
-24.3665269567095208
 30
0.0
 40
0.5
100
AcDbArc
 50
350.0
 51
80.0000000000000995
  0
ARC
  5
1E2
100
AcDbEntity
  8
outer lines top
 62
256
370
-1
 48
1.0
  6
BYLAYER
100
AcDbCircle
 10
-15.3374999999999986
 20
-8.4749999999999996
 30
0.0
 40
0.525
100
AcDbArc
 50
270.0
 51
0.0
  0
ARC
  5
1E3
100
AcDbEntity
  8
outer lines bottom
 62
256
370
-1
 48
1.0
  6
BYLAYER
100
AcDbCircle
 10
-15.3374999999999897
 20
-8.4749999999999943
 30
0.0
 40
0.525
100
AcDbArc
 50
270.0
 51
0.0
  0
ARC
  5
1E4
100
AcDbEntity
  8
edge cuts plate
 62
256
370
-1
 48
1.0
  6
BYLAYER
100
AcDbCircle
 10
108.1835193737808964
 20
-5.0226500002860917
 30
0.0
 40
0.5
100
AcDbArc
 50
350.0
 51
80.0000000000000995
  0
ARC
  5
1E5
100
AcDbEntity
  8
outer lines top
 62
256
370
-1
 48
1.0
  6
BYLAYER
100
AcDbCircle
 10
109.5962295067433416
 20
-20.4777624256365769
 30
0.0
 40
0.525
100
AcDbArc
 50
169.9999999999998295
 51
259.9999999999999432
  0
ARC
  5
1E6
100
AcDbEntity
  8
outer lines bottom
 62
256
370
-1
 48
1.0
  6
BYLAYER
100
AcDbCircle
 10
109.5962295067433416
 20
-20.4777624256365698
 30
0.0
 40
0.525
100
AcDbArc
 50
169.9999999999998295
 51
259.9999999999999432
  0
ARC
  5
1E7
100
AcDbEntity
  8
edge cuts plate
 62
256
370
-1
 48
1.0
  6
BYLAYER
100
AcDbCircle
 10
131.7066070686634021
 20
-47.8581589433120485
 30
0.0
 40
0.5
100
AcDbArc
 50
350.0
 51
80.0000000000000995
  0
ARC
  5
1E8
100
AcDbEntity
  8
outer lines top
 62
256
370
-1
 48
1.0
  6
BYLAYER
100
AcDbCircle
 10
109.5962295067433558
 20
-39.8216393820599848
 30
0.0
 40
0.525
100
AcDbArc
 50
170.0000000000000284
 51
260.0
  0
ARC
  5
1E9
100
AcDbEntity
  8
outer lines bottom
 62
256
370
-1
 48
1.0
  6
BYLAYER
100
AcDbCircle
 10
109.5962295067433558
 20
-39.8216393820599706
 30
0.0
 40
0.525
100
AcDbArc
 50
170.0000000000000284
 51
260.0
  0
ARC
  5
1EA
100
AcDbEntity
  8
edge cuts plate
 62
256
370
-1
 48
1.0
  6
BYLAYER
100
AcDbCircle
 10
67.4266992757400914
 20
-55.8677538383908256
 30
0.0
 40
0.5
100
AcDbArc
 50
350.0
 51
80.0000000000000995
  0
ARC
  5
1EB
100
AcDbEntity
  8
outer lines top
 62
256
370
-1
 48
1.0
  6
BYLAYER
100
AcDbCircle
 10
46.2639151202282193
 20
-50.1307164463900605
 30
0.0
 40
0.525
100
AcDbArc
 50
349.9999999999998863
 51
80.0000000000024585
  0
ARC
  5
1EC
100
AcDbEntity
  8
edge cuts plate
 62
256
370
-1
 48
1.0
  6
BYLAYER
100
AcDbCircle
 10
6.4999999999999574
 20
-6.5000000000000853
 30
0.0
 40
0.5
100
AcDbArc
 50
270.0
 51
0.0
  0
ARC
  5
1ED
100
AcDbEntity
  8
outer lines top
 62
256
370
-1
 48
1.0
  6
BYLAYER
100
AcDbCircle
 10
38.0081369032978316
 20
-48.6750000000003382
 30
0.0
 40
0.525
100
AcDbArc
 50
80.0000000000023448
 51
90.0
  0
ARC
  5
1EE
100
AcDbEntity
  8
edge cuts plate
 62
256
370
-1
 48
1.0
  6
BYLAYER
100
AcDbCircle
 10
4.1187499999999631
 20
-25.5500000000000398
 30
0.0
 40
0.5
100
AcDbArc
 50
270.0
 51
0.0
  0
ARC
  5
1EF
100
AcDbEntity
  8
outer lines top
 62
256
370
-1
 48
1.0
  6
BYLAYER
100
AcDbCircle
 10
29.6250000000000071
 20
-48.6750000000003382
 30
0.0
 40
0.525
100
AcDbArc
 50
90.0
 51
180.0
  0
ARC
  5
1F0
100
AcDbEntity
  8
edge cuts plate
 62
256
370
-1
 48
1.0
  6
BYLAYER
100
AcDbCircle
 10
-0.643750000000054
 20
-63.6500000000000625
 30
0.0
 40
0.5
100
AcDbArc
 50
270.0
 51
0.0
  0
LINE
  5
1F1
100
AcDbEntity
  8
helplines
 62
256
370
-1
 48
1.0
  6
BYLAYER
100
AcDbLine
 10
28.5750000000000135
 20
-67.1999999999999602
 30
0.0
 11
28.5750000000000135
 21
-66.6749999999999545
 31
0.0
  0
ARC
  5
1F2
100
AcDbEntity
  8
edge cuts plate
 62
256
370
-1
 48
1.0
  6
BYLAYER
100
AcDbCircle
 10
20.7874999999999517
 20
-63.6500000000000625
 30
0.0
 40
0.5
100
AcDbArc
 50
270.0
 51
0.0
  0
LINE
  5
1F3
100
AcDbEntity
  8
helplines
 62
256
370
-1
 48
1.0
  6
BYLAYER
100
AcDbLine
 10
-19.0499999999999901
 20
-67.1999999999999602
 30
0.0
 11
-19.0499999999999901
 21
-66.6749999999999545
 31
0.0
  0
ARC
  5
1F4
100
AcDbEntity
  8
edge cuts plate
 62
256
370
-1
 48
1.0
  6
BYLAYER
100
AcDbCircle
 10
30.3124999999999289
 20
-6.5000000000000568
 30
0.0
 40
0.5
100
AcDbArc
 50
270.0
 51
0.0
  0
LINE
  5
1F5
100
AcDbEntity
  8
outer lines top
 62
256
370
-1
 48
1.0
  6
BYLAYER
100
AcDbLine
 10
-19.0499999999999901
 20
-67.1999999999999602
 30
0.0
 11
28.5750000000000135
 21
-67.1999999999999602
 31
0.0
  0
LINE
  5
1F6
100
AcDbEntity
  8
outer lines bottom
 62
256
370
-1
 48
1.0
  6
BYLAYER
100
AcDbLine
 10
-19.0499999999999972
 20
-67.199999999999946
 30
0.0
 11
36.3414778631290005
 21
-67.199999999999946
 31
0.0
  0
ARC
  5
1F7
100
AcDbEntity
  8
edge cuts plate
 62
256
370
-1
 48
1.0
  6
BYLAYER
100
AcDbCircle
 10
30.3124999999999289
 20
-25.5500000000000682
 30
0.0
 40
0.5
100
AcDbArc
 50
270.0
 51
0.0
  0
LINE
  5
1F8
100
AcDbEntity
  8
helplines
 62
256
370
-1
 48
1.0
  6
BYLAYER
100
AcDbLine
 10
-19.5749999999999957
 20
-48.1499999999999559
 30
0.0
 11
-19.5749999999999957
 21
-47.6249999999999574
 31
0.0
  0
ARC
  5
1F9
100
AcDbEntity
  8
edge cuts plate
 62
256
370
-1
 48
1.0
  6
BYLAYER
100
AcDbCircle
 10
35.074999999999946
 20
-44.6000000000000796
 30
0.0
 40
0.5
100
AcDbArc
 50
270.0
 51
0.0
  0
LINE
  5
1FA
100
AcDbEntity
  8
outer lines top
 62
256
370
-1
 48
1.0
  6
BYLAYER
100
AcDbLine
 10
-19.5749999999999957
 20
-48.6749999999999474
 30
0.0
 11
-19.5749999999999957
 21
-66.6749999999999403
 31
0.0
  0
LINE
  5
1FB
100
AcDbEntity
  8
outer lines bottom
 62
256
370
-1
 48
1.0
  6
BYLAYER
100
AcDbLine
 10
-19.5750000000000028
 20
-48.6749999999999332
 30
0.0
 11
-19.5750000000000028
 21
-66.6749999999999261
 31
0.0
  0
ARC
  5
1FC
100
AcDbEntity
  8
edge cuts plate
 62
256
370
-1
 48
1.0
  6
BYLAYER
100
AcDbCircle
 10
49.6443299794630519
 20
-7.901157435779723
 30
0.0
 40
0.5
100
AcDbArc
 50
260.0
 51
350.0
  0
LINE
  5
1FD
100
AcDbEntity
  8
outer lines top
 62
256
370
-1
 48
1.0
  6
BYLAYER
100
AcDbLine
 10
-20.0999999999999943
 20
-48.1499999999999559
 30
0.0
 11
-23.8124999999999787
 21
-48.1499999999999559
 31
0.0
  0
LINE
  5
1FE
100
AcDbEntity
  8
outer lines bottom
 62
256
370
-1
 48
1.0
  6
BYLAYER
100
AcDbLine
 10
-20.0999999999999943
 20
-48.1499999999999417
 30
0.0
 11
-23.8124999999999858
 21
-48.1499999999999417
 31
0.0
  0
ARC
  5
1FF
100
AcDbEntity
  8
edge cuts plate
 62
256
370
-1
 48
1.0
  6
BYLAYER
100
AcDbCircle
 10
49.6443299794630519
 20
-27.2450343922031664
 30
0.0
 40
0.5
100
AcDbArc
 50
260.0
 51
350.0
  0
LINE
  5
200
100
AcDbEntity
  8
outer lines top
 62
256
370
-1
 48
1.0
  6
BYLAYER
100
AcDbLine
 10
-24.3374999999999773
 20
-28.574999999999946
 30
0.0
 11
-24.3374999999999773
 21
-47.6249999999999574
 31
0.0
  0
LINE
  5
201
100
AcDbEntity
  8
outer lines bottom
 62
256
370
-1
 48
1.0
  6
BYLAYER
100
AcDbLine
 10
-24.3374999999999773
 20
-28.5749999999999318
 30
0.0
 11
-24.3374999999999773
 21
-47.6249999999999432
 31
0.0
  0
ARC
  5
202
100
AcDbEntity
  8
edge cuts plate
 62
256
370
-1
 48
1.0
  6
BYLAYER
100
AcDbCircle
 10
54.406829979463069
 20
-47.4286685942506665
 30
0.0
 40
0.5
100
AcDbArc
 50
260.0
 51
350.0
  0
ARC
  5
203
100
AcDbEntity
  8
outer lines top
 62
256
370
-1
 48
1.0
  6
BYLAYER
100
AcDbCircle
 10
-23.8124999999999787
 20
-47.6249999999999574
 30
0.0
 40
0.5249999999999986
100
AcDbArc
 50
180.0
 51
270.0
  0
ARC
  5
204
100
AcDbEntity
  8
outer lines bottom
 62
256
370
-1
 48
1.0
  6
BYLAYER
100
AcDbCircle
 10
-23.8124999999999858
 20
-47.6249999999999432
 30
0.0
 40
0.5249999999999986
100
AcDbArc
 50
180.0
 51
270.0
  0
ARC
  5
205
100
AcDbEntity
  8
edge cuts plate
 62
256
370
-1
 48
1.0
  6
BYLAYER
100
AcDbCircle
 10
73.167417674345657
 20
-50.736666378805694
 30
0.0
 40
0.5
100
AcDbArc
 50
260.0
 51
350.0
  0
ARC
  5
206
100
AcDbEntity
  8
outer lines top
 62
256
370
-1
 48
1.0
  6
BYLAYER
100
AcDbCircle
 10
-19.0499999999999829
 20
-66.6749999999999545
 30
0.0
 40
0.5250000000000057
100
AcDbArc
 50
180.0
 51
269.999999999999261
  0
ARC
  5
207
100
AcDbEntity
  8
outer lines bottom
 62
256
370
-1
 48
1.0
  6
BYLAYER
100
AcDbCircle
 10
-19.0499999999999829
 20
-66.6749999999999403
 30
0.0
 40
0.5250000000000057
100
AcDbArc
 50
180.0
 51
269.999999999999261
  0
ARC
  5
208
100
AcDbEntity
  8
edge cuts plate
 62
256
370
-1
 48
1.0
  6
BYLAYER
100
AcDbCircle
 10
68.4049176743456115
 20
-30.5530321767581938
 30
0.0
 40
0.5
100
AcDbArc
 50
260.0
 51
350.0
  0
ARC
  5
209
100
AcDbEntity
  8
outer lines top
 62
256
370
-1
 48
1.0
  6
BYLAYER
100
AcDbCircle
 10
28.5750000000000099
 20
-66.6749999999999545
 30
0.0
 40
0.5250000000000057
100
AcDbArc
 50
270.0
 51
0.0
  0
ARC
  5
20A
100
AcDbEntity
  8
edge cuts plate
 62
256
370
-1
 48
1.0
  6
BYLAYER
100
AcDbCircle
 10
68.4049176743456115
 20
-11.2091552203347504
 30
0.0
 40
0.5
100
AcDbArc
 50
260.0
 51
350.0
  0
ARC
  5
20B
100
AcDbEntity
  8
outer lines top
 62
256
370
-1
 48
1.0
  6
BYLAYER
100
AcDbCircle
 10
44.1722960628863035
 20
-68.0395865871600591
 30
0.0
 40
0.5249999999999931
100
AcDbArc
 50
169.9999999999985505
 51
259.9999999999997726
  0
ARC
  5
20C
100
AcDbEntity
  8
edge cuts plate
 62
256
370
-1
 48
1.0
  6
BYLAYER
100
AcDbCircle
 10
87.1655053692281996
 20
-14.5171530048897637
 30
0.0
 40
0.5
100
AcDbArc
 50
260.0
 51
350.0
  0
ARC
  5
20D
100
AcDbEntity
  8
outer lines top
 62
256
370
-1
 48
1.0
  6
BYLAYER
100
AcDbCircle
 10
-20.0999999999999943
 20
-48.6749999999999474
 30
0.0
 40
0.525
100
AcDbArc
 50
0.0
 51
90.0
  0
ARC
  5
20E
100
AcDbEntity
  8
outer lines bottom
 62
256
370
-1
 48
1.0
  6
BYLAYER
100
AcDbCircle
 10
-20.0999999999999943
 20
-48.6749999999999332
 30
0.0
 40
0.525
100
AcDbArc
 50
0.0
 51
90.0
  0
ARC
  5
20F
100
AcDbEntity
  8
edge cuts plate
 62
256
370
-1
 48
1.0
  6
BYLAYER
100
AcDbCircle
 10
87.1655053692281996
 20
-33.8610299613132213
 30
0.0
 40
0.5
100
AcDbArc
 50
260.0
 51
350.0
  0
LINE
  5
210
100
AcDbEntity
  8
helplines
 62
256
370
-1
 48
1.0
  6
BYLAYER
100
AcDbLine
 10
-14.2874999999999837
 20
25.0500000000000007
 30
0.0
 11
-14.2874999999999872
 21
10.0500000000000007
 31
0.0
  0
ARC
  5
211
100
AcDbEntity
  8
edge cuts plate
 62
256
370
-1
 48
1.0
  6
BYLAYER
100
AcDbCircle
 10
91.9280053692281882
 20
-54.0446641633607214
 30
0.0
 40
0.5
100
AcDbArc
 50
260.0
 51
350.0
  0
LINE
  5
212
100
AcDbEntity
  8
helplines
 62
256
370
-1
 48
1.0
  6
BYLAYER
100
AcDbLine
 10
111.7790138573604537
 20
-2.0518682145351459
 30
0.0
 11
114.3837365223644156
 21
12.7202480806479752
 31
0.0
  0
ARC
  5
213
100
AcDbEntity
  8
edge cuts plate
 62
256
370
-1
 48
1.0
  6
BYLAYER
100
AcDbCircle
 10
110.6885930641107194
 20
-57.3526619479157205
 30
0.0
 40
0.5
100
AcDbArc
 50
260.0
 51
350.0
  0
LINE
  5
214
100
AcDbEntity
  8
outer lines top
 62
256
370
-1
 48
1.0
  6
BYLAYER
100
AcDbLine
 10
-26.8374999999999737
 20
25.0500000000000007
 30
0.0
 11
44.2395169629320293
 21
25.0500000000000007
 31
0.0
  0
LINE
  5
215
100
AcDbEntity
  8
outer lines bottom
 62
256
370
-1
 48
1.0
  6
BYLAYER
100
AcDbLine
 10
-26.8374999999999773
 20
25.0499999999999972
 30
0.0
 11
6.2874999999999943
 21
25.0499999999999972
 31
0.0
  0
ARC
  5
216
100
AcDbEntity
  8
edge cuts plate
 62
256
370
-1
 48
1.0
  6
BYLAYER
100
AcDbCircle
 10
105.9260930641107308
 20
-37.1690277458682488
 30
0.0
 40
0.5
100
AcDbArc
 50
260.0
 51
350.0
  0
LINE
  5
217
100
AcDbEntity
  8
helplines
 62
256
370
-1
 48
1.0
  6
BYLAYER
100
AcDbLine
 10
-29.3374999999999773
 20
-38.0999999999999517
 30
0.0
 11
-24.3374999999999773
 21
-38.0999999999999517
 31
0.0
  0
ARC
  5
218
100
AcDbEntity
  8
edge cuts plate
 62
256
370
-1
 48
1.0
  6
BYLAYER
100
AcDbCircle
 10
105.9260930641107876
 20
-17.8251507894447911
 30
0.0
 40
0.5
100
AcDbArc
 50
260.0
 51
350.0
  0
LINE
  5
219
100
AcDbEntity
  8
helplines
 62
256
370
-1
 48
1.0
  6
BYLAYER
100
AcDbLine
 10
-19.0499999999999829
 20
-74.6999999999999602
 30
0.0
 11
-19.0499999999999829
 21
-67.1999999999999602
 31
0.0
  0
ARC
  5
21A
100
AcDbEntity
  8
edge cuts plate
 62
256
370
-1
 48
1.0
  6
BYLAYER
100
AcDbCircle
 10
126.14118297443828
 20
-79.421247427353336
 30
0.0
 40
0.5
100
AcDbArc
 50
260.0
 51
350.0
  0
LINE
  5
21B
100
AcDbEntity
  8
helplines
 62
256
370
-1
 48
1.0
  6
BYLAYER
100
AcDbLine
 10
28.5750000000000135
 20
-74.6999999999999602
 30
0.0
 11
28.5750000000000135
 21
-67.1999999999999602
 31
0.0
  0
ARC
  5
21C
100
AcDbEntity
  8
edge cuts plate
 62
256
370
-1
 48
1.0
  6
BYLAYER
100
AcDbCircle
 10
65.1692729660699825
 20
-68.6702546275495251
 30
0.0
 40
0.5
100
AcDbArc
 50
260.0
 51
350.0
  0
LINE
  5
21D
100
AcDbEntity
  8
helplines
 62
256
370
-1
 48
1.0
  6
BYLAYER
100
AcDbLine
 10
42.7787694371091902
 20
-75.9426688050830165
 30
0.0
 11
44.0811307696111712
 21
-68.5566106574914613
 31
0.0
  0
ARC
  5
21E
100
AcDbEntity
  8
edge cuts plate
 62
256
370
-1
 48
1.0
  6
BYLAYER
100
AcDbCircle
 10
-6.5000000000000426
 20
-6.5000000000000853
 30
0.0
 40
0.5
100
AcDbArc
 50
180.0
 51
270.0
  0
LINE
  5
21F
100
AcDbEntity
  8
helplines
 62
256
370
-1
 48
1.0
  6
BYLAYER
100
AcDbLine
 10
127.2014140640806232
 20
-90.8286588355806259
 30
0.0
 11
128.5037753965825971
 21
-83.4426006879890707
 31
0.0
  0
ARC
  5
220
100
AcDbEntity
  8
edge cuts plate
 62
256
370
-1
 48
1.0
  6
BYLAYER
100
AcDbCircle
 10
-13.643750000000054
 20
-63.6500000000000625
 30
0.0
 40
0.5
100
AcDbArc
 50
180.0
 51
270.0
  0
LINE
  5
221
100
AcDbEntity
  8
helplines
 62
256
370
-1
 48
1.0
  6
BYLAYER
100
AcDbLine
 10
135.3021015522429309
 20
-44.8873771575610903
 30
0.0
 11
136.1703424405775706
 21
-39.9633383925000487
 31
0.0
  0
ARC
  5
222
100
AcDbEntity
  8
edge cuts plate
 62
256
370
-1
 48
1.0
  6
BYLAYER
100
AcDbCircle
 10
-13.643750000000054
 20
-25.550000000000118
 30
0.0
 40
0.5
100
AcDbArc
 50
180.0
 51
270.0
  0
LINE
  5
223
100
AcDbEntity
  8
helplines
 62
256
370
-1
 48
1.0
  6
BYLAYER
100
AcDbLine
 10
110.6420390354143137
 20
-30.867204311674989
 30
0.0
 11
115.5660778004753553
 21
-31.7354452000096465
 31
0.0
  0
ARC
  5
224
100
AcDbEntity
  8
edge cuts plate
 62
256
370
-1
 48
1.0
  6
BYLAYER
100
AcDbCircle
 10
17.3124999999999289
 20
-6.5000000000000568
 30
0.0
 40
0.5
100
AcDbArc
 50
180.0
 51
270.0
  0
LINE
  5
225
100
AcDbEntity
  8
helplines
 62
256
370
-1
 48
1.0
  6
BYLAYER
100
AcDbLine
 10
129.1119647601891813
 20
-83.0167419109327938
 30
0.0
 11
134.0360035252502087
 21
-83.8849827992674477
 31
0.0
  0
ARC
  5
226
100
AcDbEntity
  8
edge cuts plate
 62
256
370
-1
 48
1.0
  6
BYLAYER
100
AcDbCircle
 10
17.3124999999999289
 20
-25.5500000000000682
 30
0.0
 40
0.5
100
AcDbArc
 50
180.0
 51
270.0
  0
LINE
  5
227
100
AcDbEntity
  8
outer lines top
 62
256
370
-1
 48
1.0
  6
BYLAYER
100
AcDbLine
 10
-29.3374999999999737
 20
-72.1999999999999602
 30
0.0
 11
-29.3374999999999737
 21
22.5500000000000007
 31
0.0
  0
LINE
  5
228
100
AcDbEntity
  8
outer lines bottom
 62
256
370
-1
 48
1.0
  6
BYLAYER
100
AcDbLine
 10
-29.3374999999999773
 20
-72.1999999999999602
 30
0.0
 11
-29.3374999999999773
 21
22.5499999999999972
 31
0.0
  0
ARC
  5
229
100
AcDbEntity
  8
edge cuts plate
 62
256
370
-1
 48
1.0
  6
BYLAYER
100
AcDbCircle
 10
22.074999999999946
 20
-44.6000000000000796
 30
0.0
 40
0.5
100
AcDbArc
 50
180.0
 51
270.0
  0
LINE
  5
22A
100
AcDbEntity
  8
outer lines top
 62
256
370
-1
 48
1.0
  6
BYLAYER
100
AcDbLine
 10
35.5125227762208198
 20
-74.6999999999999602
 30
0.0
 11
-26.8374999999999773
 21
-74.6999999999999602
 31
0.0
  0
LINE
  5
22B
100
AcDbEntity
  8
outer lines bottom
 62
256
370
-1
 48
1.0
  6
BYLAYER
100
AcDbLine
 10
35.5125227762208056
 20
-74.6999999999999602
 30
0.0
 11
-26.8374999999999773
 21
-74.6999999999999602
 31
0.0
  0
ARC
  5
22C
100
AcDbEntity
  8
edge cuts plate
 62
256
370
-1
 48
1.0
  6
BYLAYER
100
AcDbCircle
 10
36.8418291903043524
 20
-5.6437311261096283
 30
0.0
 40
0.5
100
AcDbArc
 50
170.0000000000000284
 51
260.0
  0
LINE
  5
22D
100
AcDbEntity
  8
outer lines top
 62
256
370
-1
 48
1.0
  6
BYLAYER
100
AcDbLine
 10
130.1804575169425959
 20
-91.3539445730230995
 30
0.0
 11
35.9466432203881396
 21
-74.7379806174694323
 31
0.0
  0
LINE
  5
22E
100
AcDbEntity
  8
outer lines bottom
 62
256
370
-1
 48
1.0
  6
BYLAYER
100
AcDbLine
 10
130.1804575169425675
 20
-91.3539445730231137
 30
0.0
 11
35.9466432203881254
 21
-74.7379806174694181
 31
0.0
  0
ARC
  5
22F
100
AcDbEntity
  8
edge cuts plate
 62
256
370
-1
 48
1.0
  6
BYLAYER
100
AcDbCircle
 10
36.8418291903043524
 20
-24.987608082533086
 30
0.0
 40
0.5
100
AcDbArc
 50
170.0000000000000284
 51
260.0
  0
LINE
  5
230
100
AcDbEntity
  8
outer lines top
 62
256
370
-1
 48
1.0
  6
BYLAYER
100
AcDbLine
 10
139.1493858934395575
 20
-40.4886241299425222
 30
0.0
 11
117.2423391790629523
 21
-36.6258207265571869
 31
0.0
  0
LINE
  5
231
100
AcDbEntity
  8
outer lines bottom
 62
256
370
-1
 48
1.0
  6
BYLAYER
100
AcDbLine
 10
139.1493858934395575
 20
-40.4886241299425222
 30
0.0
 11
117.2423391790629807
 21
-36.6258207265571798
 31
0.0
  0
ARC
  5
232
100
AcDbEntity
  8
edge cuts plate
 62
256
370
-1
 48
1.0
  6
BYLAYER
100
AcDbCircle
 10
41.6043291903043695
 20
-45.1712422845805861
 30
0.0
 40
0.5
100
AcDbArc
 50
170.0000000000000284
 51
260.0
  0
LINE
  5
233
100
AcDbEntity
  8
outer lines top
 62
256
370
-1
 48
1.0
  6
BYLAYER
100
AcDbLine
 10
122.6986766981445101
 20
8.7155332549667879
 30
0.0
 11
115.2144402406997727
 21
-33.7296808998593391
 31
0.0
  0
LINE
  5
234
100
AcDbEntity
  8
outer lines bottom
 62
256
370
-1
 48
1.0
  6
BYLAYER
100
AcDbLine
 10
122.6986766981445385
 20
8.7155332549667861
 30
0.0
 11
115.214440240699787
 21
-33.7296808998593463
 31
0.0
  0
ARC
  5
235
100
AcDbEntity
  8
edge cuts plate
 62
256
370
-1
 48
1.0
  6
BYLAYER
100
AcDbCircle
 10
60.3649168851869291
 20
-48.4792400691356136
 30
0.0
 40
0.5
100
AcDbArc
 50
170.0000000000000284
 51
260.0
  0
ARC
  5
236
100
AcDbEntity
  8
outer lines top
 62
256
370
-1
 48
1.0
  6
BYLAYER
100
AcDbCircle
 10
-26.8374999999999737
 20
22.5500000000000007
 30
0.0
 40
2.5
100
AcDbArc
 50
90.0
 51
180.0
  0
ARC
  5
237
100
AcDbEntity
  8
outer lines bottom
 62
256
370
-1
 48
1.0
  6
BYLAYER
100
AcDbCircle
 10
-26.8374999999999773
 20
22.5499999999999972
 30
0.0
 40
2.5
100
AcDbArc
 50
90.0
 51
180.0
  0
ARC
  5
238
100
AcDbEntity
  8
edge cuts plate
 62
256
370
-1
 48
1.0
  6
BYLAYER
100
AcDbCircle
 10
55.6024168851869405
 20
-28.2956058670881134
 30
0.0
 40
0.5
100
AcDbArc
 50
170.0000000000000284
 51
260.0
  0
ARC
  5
239
100
AcDbEntity
  8
outer lines top
 62
256
370
-1
 48
1.0
  6
BYLAYER
100
AcDbCircle
 10
-26.8374999999999737
 20
-72.1999999999999602
 30
0.0
 40
2.5
100
AcDbArc
 50
180.0
 51
270.0000000000001137
  0
ARC
  5
23A
100
AcDbEntity
  8
outer lines bottom
 62
256
370
-1
 48
1.0
  6
BYLAYER
100
AcDbCircle
 10
-26.8374999999999773
 20
-72.1999999999999602
 30
0.0
 40
2.5
100
AcDbArc
 50
180.0
 51
270.0000000000001137
  0
ARC
  5
23B
100
AcDbEntity
  8
edge cuts plate
 62
256
370
-1
 48
1.0
  6
BYLAYER
100
AcDbCircle
 10
55.6024168851869405
 20
-8.9517289106646558
 30
0.0
 40
0.5
100
AcDbArc
 50
170.0000000000000284
 51
260.0
  0
ARC
  5
23C
100
AcDbEntity
  8
outer lines top
 62
256
370
-1
 48
1.0
  6
BYLAYER
100
AcDbCircle
 10
35.5125227762208198
 20
-77.1999999999999602
 30
0.0
 40
2.5
100
AcDbArc
 50
80.0000000000001705
 51
90.0
  0
ARC
  5
23D
100
AcDbEntity
  8
outer lines bottom
 62
256
370
-1
 48
1.0
  6
BYLAYER
100
AcDbCircle
 10
35.5125227762208056
 20
-77.1999999999999602
 30
0.0
 40
2.5
100
AcDbArc
 50
80.0000000000001705
 51
90.0
  0
ARC
  5
23E
100
AcDbEntity
  8
edge cuts plate
 62
256
370
-1
 48
1.0
  6
BYLAYER
100
AcDbCircle
 10
74.3630045800694717
 20
-12.2597266952196833
 30
0.0
 40
0.5
100
AcDbArc
 50
170.0000000000000284
 51
260.0
  0
ARC
  5
23F
100
AcDbEntity
  8
outer lines top
 62
256
370
-1
 48
1.0
  6
BYLAYER
100
AcDbCircle
 10
130.6145779611099158
 20
-88.8919251904925858
 30
0.0
 40
2.5
100
AcDbArc
 50
260.0000000000001705
 51
349.9999999999998863
  0
ARC
  5
240
100
AcDbEntity
  8
outer lines bottom
 62
256
370
-1
 48
1.0
  6
BYLAYER
100
AcDbCircle
 10
130.6145779611098874
 20
-88.8919251904926
 30
0.0
 40
2.5
100
AcDbArc
 50
260.0000000000001705
 51
349.9999999999998863
  0
ARC
  5
241
100
AcDbEntity
  8
edge cuts plate
 62
256
370
-1
 48
1.0
  6
BYLAYER
100
AcDbCircle
 10
74.3630045800694717
 20
-31.6036036516431125
 30
0.0
 40
0.5
100
AcDbArc
 50
170.0000000000000284
 51
260.0
  0
ARC
  5
242
100
AcDbEntity
  8
outer lines top
 62
256
370
-1
 48
1.0
  6
BYLAYER
100
AcDbCircle
 10
138.7152654492722377
 20
-42.950643512473043
 30
0.0
 40
2.5
100
AcDbArc
 50
350.0000000000001137
 51
80.0000000000001137
  0
ARC
  5
243
100
AcDbEntity
  8
outer lines bottom
 62
256
370
-1
 48
1.0
  6
BYLAYER
100
AcDbCircle
 10
138.7152654492722377
 20
-42.9506435124730501
 30
0.0
 40
2.5
100
AcDbArc
 50
350.0000000000001137
 51
80.0000000000001137
  0
ARC
  5
244
100
AcDbEntity
  8
edge cuts plate
 62
256
370
-1
 48
1.0
  6
BYLAYER
100
AcDbCircle
 10
79.1255045800694603
 20
-51.787237853690641
 30
0.0
 40
0.5
100
AcDbArc
 50
170.0000000000000284
 51
260.0
  0
ARC
  5
245
100
AcDbEntity
  8
outer lines top
 62
256
370
-1
 48
1.0
  6
BYLAYER
100
AcDbCircle
 10
117.6764596232302864
 20
-34.1638013440266661
 30
0.0
 40
2.5
100
AcDbArc
 50
170.0000000000000284
 51
259.9999999999997726
  0
ARC
  5
246
100
AcDbEntity
  8
outer lines bottom
 62
256
370
-1
 48
1.0
  6
BYLAYER
100
AcDbCircle
 10
117.6764596232303006
 20
-34.1638013440266661
 30
0.0
 40
2.5
100
AcDbArc
 50
170.0000000000000284
 51
259.9999999999997726
  0
ARC
  5
247
100
AcDbEntity
  8
edge cuts plate
 62
256
370
-1
 48
1.0
  6
BYLAYER
100
AcDbCircle
 10
52.4535962657447641
 20
-66.4204244413733136
 30
0.0
 40
0.5
100
AcDbArc
 50
170.0000000000000284
 51
260.0
  0
ARC
  5
248
100
AcDbEntity
  8
outer lines top
 62
256
370
-1
 48
1.0
  6
BYLAYER
100
AcDbCircle
 10
120.2366573156139964
 20
9.1496536991341166
 30
0.0
 40
2.5
100
AcDbArc
 50
349.9999999999999432
 51
79.9999999999998153
  0
ARC
  5
249
100
AcDbEntity
  8
outer lines bottom
 62
256
370
-1
 48
1.0
  6
BYLAYER
100
AcDbCircle
 10
120.236657315613968
 20
9.1496536991341202
 30
0.0
 40
2.5
100
AcDbArc
 50
349.9999999999999432
 51
79.9999999999998153
  0
ARC
  5
24A
100
AcDbEntity
  8
edge cuts plate
 62
256
370
-1
 48
1.0
  6
BYLAYER
100
AcDbCircle
 10
97.8860922749520483
 20
-55.0952356382456401
 30
0.0
 40
0.5
100
AcDbArc
 50
170.0000000000000284
 51
260.0
  0
ARC
  5
24B
100
AcDbEntity
  8
edge cuts plate
 62
256
370
-1
 48
1.0
  6
BYLAYER
100
AcDbCircle
 10
93.1235922749520029
 20
-34.9116014361981399
 30
0.0
 40
0.5
100
AcDbArc
 50
170.0000000000000284
 51
260.0
  0
ARC
  5
24C
100
AcDbEntity
  8
edge cuts plate
 62
256
370
-1
 48
1.0
  6
BYLAYER
100
AcDbCircle
 10
93.1235922749520597
 20
-15.5677244797747107
 30
0.0
 40
0.5
100
AcDbArc
 50
170.0000000000000284
 51
260.0
  0
ARC
  5
24D
100
AcDbEntity
  8
edgecuts
 62
256
370
-1
 48
1.0
  6
BYLAYER
100
AcDbCircle
 10
-18.0499999999999972
 20
-65.6749999999999972
 30
0.0
 40
1.0
100
AcDbArc
 50
180.0
 51
270.0
  0
ARC
  5
24E
100
AcDbEntity
  8
edge cuts plate
 62
256
370
-1
 48
1.0
  6
BYLAYER
100
AcDbCircle
 10
113.3386821852796089
 20
-77.1638211176832272
 30
0.0
 40
0.5
100
AcDbArc
 50
170.0000000000000284
 51
260.0
  0
ARC
  5
24F
100
AcDbEntity
  8
edgecuts
 62
256
370
-1
 48
1.0
  6
BYLAYER
100
AcDbCircle
 10
-20.0500000000000007
 20
-48.625
 30
0.0
 40
1.0
100
AcDbArc
 50
0.0
 51
90.0
  0
ARC
  5
250
100
AcDbEntity
  8
edge cuts plate
 62
256
370
-1
 48
1.0
  6
BYLAYER
100
AcDbCircle
 10
7.7874999999999517
 20
-63.6500000000000625
 30
0.0
 40
0.5
100
AcDbArc
 50
180.0
 51
270.0
  0
ARC
  5
251
100
AcDbEntity
  8
edgecuts
 62
256
370
-1
 48
1.0
  6
BYLAYER
100
AcDbCircle
 10
-22.8125
 20
-46.6250000000000071
 30
0.0
 40
1.0
100
AcDbArc
 50
180.0
 51
270.0
  0
ARC
  5
252
100
AcDbEntity
  8
edge cuts plate
 62
256
370
-1
 48
1.0
  6
BYLAYER
100
AcDbCircle
 10
-10.3192500000000535
 20
-45.6000000000000227
 30
0.0
 40
0.5
100
AcDbArc
 50
90.0
 51
180.0
  0
ARC
  5
253
100
AcDbEntity
  8
edgecuts
 62
256
370
-1
 48
1.0
  6
BYLAYER
100
AcDbCircle
 10
-22.8125
 20
-29.5750000000000028
 30
0.0
 40
1.0
100
AcDbArc
 50
90.0
 51
180.0
  0
ARC
  5
254
100
AcDbEntity
  8
edge cuts plate
 62
256
370
-1
 48
1.0
  6
BYLAYER
100
AcDbCircle
 10
99.5024560064226904
 20
-60.5081485647655768
 30
0.0
 40
0.5
100
AcDbArc
 50
260.0
 51
350.0
  0
ARC
  5
255
100
AcDbEntity
  8
edgecuts
 62
256
370
-1
 48
1.0
  6
BYLAYER
100
AcDbCircle
 10
-20.0499999999999972
 20
-27.5749999999999957
 30
0.0
 40
1.0
100
AcDbArc
 50
270.0
 51
0.0
  0
ARC
  5
256
100
AcDbEntity
  8
edge cuts plate
 62
256
370
-1
 48
1.0
  6
BYLAYER
100
AcDbCircle
 10
116.5150057137000346
 20
-53.3912247545847549
 30
0.0
 40
0.5
100
AcDbArc
 50
350.0
 51
80.0000000000000142
  0
ARC
  5
257
100
AcDbEntity
  8
edgecuts
 62
256
370
-1
 48
1.0
  6
BYLAYER
100
AcDbCircle
 10
-18.0500000000000007
 20
-10.5250000000000004
 30
0.0
 40
1.0
100
AcDbArc
 50
90.0
 51
180.0
  0
ARC
  5
258
100
AcDbEntity
  8
edge cuts plate
 62
256
370
-1
 48
1.0
  6
BYLAYER
100
AcDbCircle
 10
5.5567499999999797
 20
-45.6000000000000227
 30
0.0
 40
0.5
100
AcDbArc
 50
0.0
 51
89.999999999999801
  0
ARC
  5
259
100
AcDbEntity
  8
edgecuts
 62
256
370
-1
 48
1.0
  6
BYLAYER
100
AcDbCircle
 10
-15.2874999999999996
 20
-8.5250000000000004
 30
0.0
 40
1.0
100
AcDbArc
 50
270.0
 51
0.0
  0
ARC
  5
25A
100
AcDbEntity
  8
edge cuts plate
 62
256
370
-1
 48
1.0
  6
BYLAYER
100
AcDbCircle
 10
83.8676481196008723
 20
-57.751310096125394
 30
0.0
 40
0.5
100
AcDbArc
 50
170.0
 51
259.9999999999997726
  0
ARC
  5
25B
100
AcDbEntity
  8
edgecuts
 62
256
370
-1
 48
1.0
  6
BYLAYER
100
AcDbCircle
 10
-13.2874999999999996
 20
8.5250000000000021
 30
0.0
 40
1.0
100
AcDbArc
 50
90.0
 51
180.0
  0
ARC
  5
25C
100
AcDbEntity
  8
edge cuts plate
 62
256
370
-1
 48
1.0
  6
BYLAYER
100
AcDbCircle
 10
113.7581672450598518
 20
-69.026032641406573
 30
0.0
 40
0.5
100
AcDbArc
 50
260.0
 51
349.9999999999997726
  0
ARC
  5
25D
100
AcDbEntity
  8
edgecuts
 62
256
370
-1
 48
1.0
  6
BYLAYER
100
AcDbCircle
 10
7.6705000000000005
 20
10.5250000000000004
 30
0.0
 40
1.0
100
AcDbArc
 50
269.9999999999998863
 51
0.0
  0
ARC
  5
25E
100
AcDbEntity
  8
edge cuts plate
 62
256
370
-1
 48
1.0
  6
BYLAYER
100
AcDbCircle
 10
112.3689818237244396
 20
-76.9044946655042168
 30
0.0
 40
0.5
100
AcDbArc
 50
349.9999999999994316
 51
79.9999999999992326
  0
ARC
  5
25F
100
AcDbEntity
  8
edgecuts
 62
256
370
-1
 48
1.0
  6
BYLAYER
100
AcDbCircle
 10
9.6705000000000005
 20
16.4420000000000002
 30
0.0
 40
1.0
100
AcDbArc
 50
90.0
 51
180.0
  0
ARC
  5
260
100
AcDbEntity
  8
edge cuts plate
 62
256
370
-1
 48
1.0
  6
BYLAYER
100
AcDbCircle
 10
117.9041911350354468
 20
-45.5127627304870828
 30
0.0
 40
0.5
100
AcDbArc
 50
259.9999999999999432
 51
350.0000000000001137
  0
ARC
  5
261
100
AcDbEntity
  8
edgecuts
 62
256
370
-1
 48
1.0
  6
BYLAYER
100
AcDbCircle
 10
18.9045000000000023
 20
16.4420000000000002
 30
0.0
 40
1.0
100
AcDbArc
 50
0.0
 51
90.0
  0
ARC
  5
262
100
AcDbEntity
  8
edgecuts
 62
256
370
-1
 48
1.0
  6
BYLAYER
100
AcDbCircle
 10
20.9044999999999987
 20
10.5250000000000004
 30
0.0
 40
1.0
100
AcDbArc
 50
180.0
 51
270.0
  0
ARC
  5
263
100
AcDbEntity
  8
edgecuts
 62
256
370
-1
 48
1.0
  6
BYLAYER
100
AcDbCircle
 10
43.0124645656644518
 20
8.5250000000000039
 30
0.0
 40
1.0
100
AcDbArc
 50
80.0000237103863441
 51
89.9999999999995879
  0
ARC
  5
264
100
AcDbEntity
  8
edgecuts
 62
256
370
-1
 48
1.0
  6
BYLAYER
100
AcDbCircle
 10
69.5176976305907317
 20
5.8822766658040653
 30
0.0
 40
1.0
100
AcDbArc
 50
260.0000237103867562
 51
349.9998043892684905
  0
ARC
  5
265
100
AcDbEntity
  8
edgecuts
 62
256
370
-1
 48
1.0
  6
BYLAYER
100
AcDbCircle
 10
72.5148119431564027
 20
11.3620992787335719
 30
0.0
 40
1.0
100
AcDbArc
 50
80.0000401159331318
 51
169.999804389268462
  0
ARC
  5
266
100
AcDbEntity
  8
edgecuts
 62
256
370
-1
 48
1.0
  6
BYLAYER
100
AcDbCircle
 10
78.2207948587787456
 20
10.3559846585320905
 30
0.0
 40
1.0
100
AcDbArc
 50
349.999824529620696
 51
80.000040115933075
  0
ARC
  5
267
100
AcDbEntity
  8
edgecuts
 62
256
370
-1
 48
1.0
  6
BYLAYER
100
AcDbCircle
 10
79.1629127301774957
 20
4.1815640033711325
 30
0.0
 40
1.0
100
AcDbArc
 50
169.9998245296206392
 51
259.999984174478584
  0
ARC
  5
268
100
AcDbEntity
  8
edgecuts
 62
256
370
-1
 48
1.0
  6
BYLAYER
100
AcDbCircle
 10
110.5291802704822004
 20
-3.3800175037435078
 30
0.0
 40
1.0
100
AcDbArc
 50
349.9989669585463048
 51
79.9999841744784845
  0
ARC
  5
269
100
AcDbEntity
  8
edgecuts
 62
256
370
-1
 48
1.0
  6
BYLAYER
100
AcDbCircle
 10
109.5378072565916199
 20
-20.5181439216105659
 30
0.0
 40
1.0
100
AcDbArc
 50
169.9989669585465322
 51
259.9969059987951709
  0
ARC
  5
26A
100
AcDbEntity
  8
edgecuts
 62
256
370
-1
 48
1.0
  6
BYLAYER
100
AcDbCircle
 10
110.5292381050055042
 20
-22.7238876967279388
 30
0.0
 40
1.0
100
AcDbArc
 50
349.9988554437755397
 51
79.9969059987951141
  0
ARC
  5
26B
100
AcDbEntity
  8
edgecuts
 62
256
370
-1
 48
1.0
  6
BYLAYER
100
AcDbCircle
 10
109.5378280214263356
 20
-39.8620332443531922
 30
0.0
 40
1.0
100
AcDbArc
 50
169.9988554437753123
 51
259.9996662595415273
  0
ARC
  5
26C
100
AcDbEntity
  8
edgecuts
 62
256
370
-1
 48
1.0
  6
BYLAYER
100
AcDbCircle
 10
134.0522110583505082
 20
-46.2155829316959696
 30
0.0
 40
1.0
100
AcDbArc
 50
350.0010372399829635
 51
79.9996662595423516
  0
ARC
  5
26D
100
AcDbEntity
  8
edgecuts
 62
256
370
-1
 48
1.0
  6
BYLAYER
100
AcDbCircle
 10
127.7841673459008263
 20
-81.7671887899930852
 30
0.0
 40
1.0
100
AcDbArc
 50
259.9999999999997726
 51
350.0010372399826224
  0
ARC
  5
26E
100
AcDbEntity
  8
edgecuts
 62
256
370
-1
 48
1.0
  6
BYLAYER
100
AcDbCircle
 10
36.3458522963055657
 20
-67.6750000000000398
 30
0.0
 40
1.0
100
AcDbArc
 50
79.9999999999991331
 51
90.0
  0
ARC
  5
26F
100
AcDbEntity
  8
0
 62
256
370
-1
 48
1.0
  6
BYLAYER
100
AcDbCircle
 10
230.6423741145111705
 20
47.6774478422508849
 30
0.0
 40
1.0
100
AcDbArc
 50
79.9999999999998437
 51
90.0
  0
LINE
  5
270
100
AcDbEntity
  8
helplines
 62
256
370
-1
 48
1.0
  6
BYLAYER
100
AcDbLine
 10
-29.3374999999999737
 20
-38.0999999999999517
 30
0.0
 11
-25.3374999999999737
 21
-38.0999999999999517
 31
0.0
  0
LINE
  5
271
100
AcDbEntity
  8
helplines
 62
256
370
-1
 48
1.0
  6
BYLAYER
100
AcDbLine
 10
8.1455000000000002
 20
16.4420000000000002
 30
0.0
 11
8.6705000000000005
 21
16.4420000000000002
 31
0.0
  0
LINE
  5
272
100
AcDbEntity
  8
helplines
 62
256
370
-1
 48
1.0
  6
BYLAYER
100
AcDbLine
 10
19.9044999999999987
 20
16.4420000000000002
 30
0.0
 11
20.4294999999999973
 21
16.4420000000000002
 31
0.0
  0
LINE
  5
273
100
AcDbEntity
  8
helplines
 62
256
370
-1
 48
1.0
  6
BYLAYER
100
AcDbLine
 10
9.6705000000000005
 20
17.9669999999999987
 30
0.0
 11
9.6705000000000005
 21
18.9669999999999987
 31
0.0
  0
LINE
  5
274
100
AcDbEntity
  8
helplines
 62
256
370
-1
 48
1.0
  6
BYLAYER
100
AcDbLine
 10
14.2874999999999979
 20
18.9669999999999987
 30
0.0
 11
14.2874999999999979
 21
19.9669999999999987
 31
0.0
  0
LINE
  5
275
100
AcDbEntity
  8
helplines
 62
256
370
-1
 48
1.0
  6
BYLAYER
100
AcDbLine
 10
9.6705000000000005
 20
17.4420000000000002
 30
0.0
 11
9.6705000000000005
 21
17.9669999999999987
 31
0.0
  0
ARC
  5
276
100
AcDbEntity
  8
outer lines top
 62
256
370
-1
 48
1.0
  6
BYLAYER
100
AcDbCircle
 10
44.2395169629320364
 20
22.5500000000000007
 30
0.0
 40
2.5
100
AcDbArc
 50
79.9999999999996305
 51
90.0000000000001563
  0
ARC
  5
277
100
AcDbEntity
  8
outer lines bottom
 62
256
370
-1
 48
1.0
  6
BYLAYER
100
AcDbCircle
 10
44.2395169629320435
 20
22.5499999999999972
 30
0.0
 40
2.5
100
AcDbArc
 50
79.9999999999996305
 51
90.0000000000001563
  0
ARC
  5
278
100
AcDbEntity
  8
outer lines bottom
 62
256
370
-1
 48
1.0
  6
BYLAYER
100
AcDbCircle
 10
36.3414778631289934
 20
-67.7249999999999517
 30
0.0
 40
0.525
100
AcDbArc
 50
80.0000000000002558
 51
89.9999999999992184
  0
LINE
  5
279
100
AcDbEntity
  8
outer lines bottom
 62
256
370
-1
 48
1.0
  6
BYLAYER
100
AcDbLine
 10
8.1455000000000002
 20
18.4420000000000002
 30
0.0
 11
8.1454999999999984
 21
10.5750000000000117
 31
0.0
  0
ARC
  5
27A
100
AcDbEntity
  8
outer lines bottom
 62
256
370
-1
 48
1.0
  6
BYLAYER
100
AcDbCircle
 10
7.6204999999999989
 20
10.5750000000000117
 30
0.0
 40
0.525
100
AcDbArc
 50
269.9999999999996589
 51
0.0
  0
ARC
  5
27B
100
AcDbEntity
  8
outer lines bottom
 62
256
370
-1
 48
1.0
  6
BYLAYER
100
AcDbCircle
 10
8.6705000000000005
 20
18.4420000000000002
 30
0.0
 40
0.525
100
AcDbArc
 50
90.0
 51
180.0
  0
ARC
  5
27C
100
AcDbEntity
  8
outer lines bottom
 62
256
370
-1
 48
1.0
  6
BYLAYER
100
AcDbCircle
 10
19.9044999999999952
 20
18.4420000000000002
 30
0.0
 40
0.525
100
AcDbArc
 50
0.0
 51
90.0
  0
ARC
  5
27D
100
AcDbEntity
  8
outer lines bottom
 62
256
370
-1
 48
1.0
  6
BYLAYER
100
AcDbCircle
 10
20.9544999999999959
 20
10.5750000000000046
 30
0.0
 40
0.525
100
AcDbArc
 50
180.0
 51
270.0
  0
ARC
  5
27E
100
AcDbEntity
  8
outer lines bottom
 62
256
370
-1
 48
1.0
  6
BYLAYER
100
AcDbCircle
 10
43.099977120506793
 20
9.5250000000000039
 30
0.0
 40
0.525
100
AcDbArc
 50
80.0000000000014637
 51
90.0
  0
LINE
  5
27F
100
AcDbEntity
  8
helplines
 62
256
370
-1
 48
1.0
  6
BYLAYER
100
AcDbLine
 10
79.2056020799825689
 20
10.1823334648569137
 30
0.0
 11
79.722626150313971
 21
10.091168171581776
 31
0.0
  0
LINE
  5
280
100
AcDbEntity
  8
helplines
 62
256
370
-1
 48
1.0
  6
BYLAYER
100
AcDbLine
 10
71.0129807126623405
 20
11.6269161118588311
 30
0.0
 11
71.5300047829937427
 21
11.5357508185836934
 31
0.0
  0
LINE
  5
281
100
AcDbEntity
  8
helplines
 62
256
370
-1
 48
1.0
  6
BYLAYER
100
AcDbLine
 10
72.6884594313051053
 20
12.3469071533262049
 30
0.0
 11
72.7796247245802448
 21
12.8639312236576142
 31
0.0
  0
LINE
  5
282
100
AcDbEntity
  8
helplines
 62
256
370
-1
 48
1.0
  6
BYLAYER
100
AcDbLine
 10
72.7796247245802448
 20
12.8639312236576142
 30
0.0
 11
72.9532729022471784
 21
13.8487389766698215
 31
0.0
  0
ARC
  5
283
100
AcDbEntity
  8
outer lines bottom
 62
256
370
-1
 48
1.0
  6
BYLAYER
100
AcDbCircle
 10
69.4771481243350024
 20
5.9401910197441365
 30
0.0
 40
0.525
100
AcDbArc
 50
259.9999999999999432
 51
349.9998701996778436
  0
ARC
  5
284
100
AcDbEntity
  8
outer lines bottom
 62
256
370
-1
 48
1.0
  6
BYLAYER
100
AcDbCircle
 10
71.8773087022780715
 20
13.5053664277387888
 30
0.0
 40
0.525
100
AcDbArc
 50
79.9999588217423394
 51
169.9998701996778152
  0
ARC
  5
285
100
AcDbEntity
  8
outer lines bottom
 62
256
370
-1
 48
1.0
  6
BYLAYER
100
AcDbCircle
 10
79.5529054467661609
 20
12.1519459407125296
 30
0.0
 40
0.525
100
AcDbArc
 50
349.9998701995854162
 51
79.9999588217424389
  0
LINE
  5
286
100
AcDbEntity
  8
outer lines bottom
 62
256
370
-1
 48
1.0
  6
BYLAYER
100
AcDbLine
 10
79.1296768295730431
 20
3.7050908057077088
 30
0.0
 11
111.7790138573604395
 21
-2.0518682145351215
 31
0.0
  0
ARC
  5
287
100
AcDbEntity
  8
outer lines bottom
 62
256
370
-1
 48
1.0
  6
BYLAYER
100
AcDbCircle
 10
79.2208421228481825
 20
4.2221148760391172
 30
0.0
 40
0.525
100
AcDbArc
 50
169.9998701995854731
 51
259.9999999999998863
  0
LINE
  5
288
100
AcDbEntity
  8
outer lines bottom
 62
256
370
-1
 48
1.0
  6
BYLAYER
100
AcDbLine
 10
22.2874999999999943
 20
19.9669999999999987
 30
0.0
 11
18.7574999999999967
 21
19.9669999999999987
 31
0.0
  0
LINE
  5
289
100
AcDbEntity
  8
outer lines bottom
 62
256
370
-1
 48
1.0
  6
BYLAYER
100
AcDbLine
 10
44.2395169629320364
 20
25.0499999999999972
 30
0.0
 11
22.2874999999999943
 21
25.0499999999999972
 31
0.0
  0
LINE
  5
28A
100
AcDbEntity
  8
outer lines bottom
 62
256
370
-1
 48
1.0
  6
BYLAYER
100
AcDbLine
 10
9.817499999999999
 20
19.9669999999999987
 30
0.0
 11
9.817499999999999
 21
18.9669999999999987
 31
0.0
  0
LINE
  5
28B
100
AcDbEntity
  8
outer lines bottom
 62
256
370
-1
 48
1.0
  6
BYLAYER
100
AcDbLine
 10
18.7574999999999967
 20
19.9669999999999987
 30
0.0
 11
18.7574999999999967
 21
18.9669999999999987
 31
0.0
  0
LINE
  5
28C
100
AcDbEntity
  8
outer lines bottom
 62
256
370
-1
 48
1.0
  6
BYLAYER
100
AcDbLine
 10
9.817499999999999
 20
19.9669999999999987
 30
0.0
 11
6.2874999999999943
 21
19.9669999999999987
 31
0.0
  0
LINE
  5
28D
100
AcDbEntity
  8
outer lines bottom
 62
256
370
-1
 48
1.0
  6
BYLAYER
100
AcDbLine
 10
6.2874999999999943
 20
19.9669999999999987
 30
0.0
 11
9.817499999999999
 21
19.9669999999999987
 31
0.0
  0
LINE
  5
28E
100
AcDbEntity
  8
outer lines bottom
 62
256
370
-1
 48
1.0
  6
BYLAYER
100
AcDbLine
 10
6.2874999999999943
 20
25.0499999999999972
 30
0.0
 11
6.2874999999999943
 21
19.9669999999999987
 31
0.0
  0
LINE
  5
28F
100
AcDbEntity
  8
outer lines bottom
 62
256
370
-1
 48
1.0
  6
BYLAYER
100
AcDbLine
 10
22.2874999999999943
 20
19.9669999999999987
 30
0.0
 11
22.2874999999999943
 21
25.0499999999999972
 31
0.0
  0
LINE
  5
290
100
AcDbEntity
  8
outer lines bottom
 62
256
370
-1
 48
1.0
  6
BYLAYER
100
AcDbLine
 10
8.6705000000000005
 20
18.9669999999999987
 30
0.0
 11
9.817499999999999
 21
18.9669999999999987
 31
0.0
  0
ENDSEC
  0
SECTION
  2
OBJECTS
  0
DICTIONARY
  5
C
100
AcDbDictionary
280
0
281
1
  3
ACAD_GROUP
350
D
  3
ACAD_LAYOUT
350
1A
  3
ACAD_MLINESTYLE
350
17
  3
ACAD_PLOTSETTINGS
350
19
  3
ACAD_PLOTSTYLENAME
350
E
  3
AcDbVariableDictionary
350
291
  3
QCAD_OBJECTS
350
292
  0
DICTIONARY
  5
D
100
AcDbDictionary
280
0
281
1
  0
ACDBDICTIONARYWDFLT
  5
E
100
AcDbDictionary
281
1
  3
Normal
350
F
100
AcDbDictionaryWithDefault
340
F
  0
ACDBPLACEHOLDER
  5
F
  0
DICTIONARY
  5
17
100
AcDbDictionary
280
0
281
1
  3
Standard
350
18
  0
MLINESTYLE
  5
18
100
AcDbMlineStyle
  2
STANDARD
 70
0
  3

 62
256
 51
90.0
 52
90.0
 71
2
 49
0.5
 62
256
  6
BYLAYER
 49
-0.5
 62
256
  6
BYLAYER
  0
DICTIONARY
  5
19
100
AcDbDictionary
280
0
281
1
  0
DICTIONARY
  5
1A
100
AcDbDictionary
281
1
  3
Layout1
350
1E
  3
Layout2
350
26
  3
Model
350
22
  0
LAYOUT
  5
1E
100
AcDbPlotSettings
  1

  2
none_device
  4

  6

 40
0.0
 41
0.0
 42
0.0
 43
0.0
 44
0.0
 45
0.0
 46
0.0
 47
0.0
 48
0.0
 49
0.0
140
0.0
141
0.0
142
1.0
143
1.0
 70
688
 72
0
 73
0
 74
5
  7

 75
16
147
1.0
148
0.0
149
0.0
100
AcDbLayout
  1
Layout1
 70
1
 71
1
 10
0.0
 20
0.0
 11
420.0
 21
297.0
 12
0.0
 22
0.0
 32
0.0
 14
100000000000000000000.0
 24
100000000000000000000.0
 34
100000000000000000000.0
 15
-100000000000000000000.0
 25
-100000000000000000000.0
 35
-100000000000000000000.0
146
0.0
 13
0.0
 23
0.0
 33
0.0
 16
1.0
 26
0.0
 36
0.0
 17
0.0
 27
1.0
 37
0.0
 76
0
330
1B
  0
LAYOUT
  5
22
100
AcDbPlotSettings
  1

  2
none_device
  4

  6

 40
0.0
 41
0.0
 42
0.0
 43
0.0
 44
0.0
 45
0.0
 46
0.0
 47
0.0
 48
0.0
 49
0.0
140
0.0
141
0.0
142
1.0
143
1.0
 70
1712
 72
0
 73
0
 74
0
  7

 75
0
147
1.0
148
0.0
149
0.0
100
AcDbLayout
  1
Model
 70
1
 71
0
 10
0.0
 20
0.0
 11
12.0
 21
9.0
 12
0.0
 22
0.0
 32
0.0
 14
0.0
 24
0.0
 34
0.0
 15
0.0
 25
0.0
 35
0.0
146
0.0
 13
0.0
 23
0.0
 33
0.0
 16
1.0
 26
0.0
 36
0.0
 17
0.0
 27
1.0
 37
0.0
 76
0
330
1F
  0
LAYOUT
  5
26
100
AcDbPlotSettings
  1

  2
none_device
  4

  6

 40
0.0
 41
0.0
 42
0.0
 43
0.0
 44
0.0
 45
0.0
 46
0.0
 47
0.0
 48
0.0
 49
0.0
140
0.0
141
0.0
142
1.0
143
1.0
 70
688
 72
0
 73
0
 74
5
  7

 75
16
147
1.0
148
0.0
149
0.0
100
AcDbLayout
  1
Layout2
 70
1
 71
2
 10
0.0
 20
0.0
 11
12.0
 21
9.0
 12
0.0
 22
0.0
 32
0.0
 14
0.0
 24
0.0
 34
0.0
 15
0.0
 25
0.0
 35
0.0
146
0.0
 13
0.0
 23
0.0
 33
0.0
 16
1.0
 26
0.0
 36
0.0
 17
0.0
 27
1.0
 37
0.0
 76
0
330
23
  0
DICTIONARY
  5
291
100
AcDbDictionary
281
1
  3
DIMASSOC
350
294
  3
HIDETEXT
350
293
  0
DICTIONARYVAR
  5
293
100
DictionaryVariables
280
0
  1
2
  0
DICTIONARYVAR
  5
294
100
DictionaryVariables
280
0
  1
1
  0
DICTIONARY
  5
292
100
AcDbDictionary
281
1
  3
ColorSettings/BackgroundColor
350
295
  3
ColorSettings/ColorMode
350
296
  3
Grid/DisplayGrid00
350
297
  3
Grid/DisplayGrid01
350
298
  3
Grid/DisplayGrid02
350
299
  3
Grid/DisplayGrid03
350
29A
  3
Grid/GridSpacingX00
350
29B
  3
Grid/GridSpacingX01
350
29C
  3
Grid/GridSpacingX02
350
29D
  3
Grid/GridSpacingX03
350
29E
  3
Grid/GridSpacingY00
350
29F
  3
Grid/GridSpacingY01
350
2A0
  3
Grid/GridSpacingY02
350
2A1
  3
Grid/GridSpacingY03
350
2A2
  3
Grid/IsometricGrid00
350
2A3
  3
Grid/IsometricGrid01
350
2A4
  3
Grid/IsometricGrid02
350
2A5
  3
Grid/IsometricGrid03
350
2A6
  3
Grid/IsometricProjection00
350
2A7
  3
Grid/IsometricProjection01
350
2A8
  3
Grid/IsometricProjection02
350
2A9
  3
Grid/IsometricProjection03
350
2AA
  3
Grid/MetaGridSpacingX00
350
2AB
  3
Grid/MetaGridSpacingX01
350
2AC
  3
Grid/MetaGridSpacingX02
350
2AD
  3
Grid/MetaGridSpacingX03
350
2AE
  3
Grid/MetaGridSpacingY00
350
2AF
  3
Grid/MetaGridSpacingY01
350
2B0
  3
Grid/MetaGridSpacingY02
350
2B1
  3
Grid/MetaGridSpacingY03
350
2B2
  3
MultiPageSettings/Columns
350
2B3
  3
MultiPageSettings/GlueMarginsBottom
350
2B4
  3
MultiPageSettings/GlueMarginsLeft
350
2B5
  3
MultiPageSettings/GlueMarginsRight
350
2B6
  3
MultiPageSettings/GlueMarginsTop
350
2B7
  3
MultiPageSettings/PrintCropMarks
350
2B8
  3
MultiPageSettings/Rows
350
2B9
  3
PageSettings/OffsetX
350
2BA
  3
PageSettings/OffsetY
350
2BB
  3
PageSettings/PageOrientation
350
2BC
  3
PageSettings/PaperHeight
350
2BD
  3
PageSettings/PaperSizeName
350
2BE
  3
PageSettings/PaperWidth
350
2BF
  3
PageSettings/PointSize
350
2C0
  3
PageSettings/Scale
350
2C1
  3
PageSettings/ShowPaperBorders
350
2C2
  3
PageTagSettings/EnablePageTags
350
2C3
  3
PageTagSettings/TagAlignment
350
2C4
  3
PageTagSettings/TagFont
350
2C5
  3
PageTagSettings/TagPosition
350
2C6
  3
QCADVersion
350
2C7
  3
UnitSettings/PaperUnit
350
2C8
  3
ViewportCenter
350
2C9
  3
ViewportHeight
350
2CA
  3
ViewportWidth
350
2CB
  0
XRECORD
  5
295
330
292
100
AcDbXrecord
280
1
1000
Wit
  0
XRECORD
  5
296
330
292
100
AcDbXrecord
280
1
1000
FullColor
  0
XRECORD
  5
297
330
292
100
AcDbXrecord
280
1
290
1
  0
XRECORD
  5
298
330
292
100
AcDbXrecord
280
1
290
1
  0
XRECORD
  5
299
330
292
100
AcDbXrecord
280
1
290
1
  0
XRECORD
  5
29A
330
292
100
AcDbXrecord
280
1
290
1
  0
XRECORD
  5
29B
330
292
100
AcDbXrecord
280
1
1000
auto
  0
XRECORD
  5
29C
330
292
100
AcDbXrecord
280
1
1000
auto
  0
XRECORD
  5
29D
330
292
100
AcDbXrecord
280
1
1000
auto
  0
XRECORD
  5
29E
330
292
100
AcDbXrecord
280
1
1000
auto
  0
XRECORD
  5
29F
330
292
100
AcDbXrecord
280
1
1000
auto
  0
XRECORD
  5
2A0
330
292
100
AcDbXrecord
280
1
1000
auto
  0
XRECORD
  5
2A1
330
292
100
AcDbXrecord
280
1
1000
auto
  0
XRECORD
  5
2A2
330
292
100
AcDbXrecord
280
1
1000
auto
  0
XRECORD
  5
2A3
330
292
100
AcDbXrecord
280
1
290
0
  0
XRECORD
  5
2A4
330
292
100
AcDbXrecord
280
1
290
0
  0
XRECORD
  5
2A5
330
292
100
AcDbXrecord
280
1
290
0
  0
XRECORD
  5
2A6
330
292
100
AcDbXrecord
280
1
290
0
  0
XRECORD
  5
2A7
330
292
100
AcDbXrecord
280
1
 90
65537
  0
XRECORD
  5
2A8
330
292
100
AcDbXrecord
280
1
 90
65537
  0
XRECORD
  5
2A9
330
292
100
AcDbXrecord
280
1
 90
65537
  0
XRECORD
  5
2AA
330
292
100
AcDbXrecord
280
1
 90
65537
  0
XRECORD
  5
2AB
330
292
100
AcDbXrecord
280
1
1000
auto
  0
XRECORD
  5
2AC
330
292
100
AcDbXrecord
280
1
1000
auto
  0
XRECORD
  5
2AD
330
292
100
AcDbXrecord
280
1
1000
auto
  0
XRECORD
  5
2AE
330
292
100
AcDbXrecord
280
1
1000
auto
  0
XRECORD
  5
2AF
330
292
100
AcDbXrecord
280
1
1000
auto
  0
XRECORD
  5
2B0
330
292
100
AcDbXrecord
280
1
1000
auto
  0
XRECORD
  5
2B1
330
292
100
AcDbXrecord
280
1
1000
auto
  0
XRECORD
  5
2B2
330
292
100
AcDbXrecord
280
1
1000
auto
  0
XRECORD
  5
2B3
330
292
100
AcDbXrecord
280
1
 90
1
  0
XRECORD
  5
2B4
330
292
100
AcDbXrecord
280
1
 40
10.0
  0
XRECORD
  5
2B5
330
292
100
AcDbXrecord
280
1
 40
10.0
  0
XRECORD
  5
2B6
330
292
100
AcDbXrecord
280
1
 40
10.0
  0
XRECORD
  5
2B7
330
292
100
AcDbXrecord
280
1
 40
10.0
  0
XRECORD
  5
2B8
330
292
100
AcDbXrecord
280
1
290
0
  0
XRECORD
  5
2B9
330
292
100
AcDbXrecord
280
1
 90
1
  0
XRECORD
  5
2BA
330
292
100
AcDbXrecord
280
1
 40
-92.5611172753638698
  0
XRECORD
  5
2BB
330
292
100
AcDbXrecord
280
1
 40
-140.6709625952462943
  0
XRECORD
  5
2BC
330
292
100
AcDbXrecord
280
1
1000
Landscape
  0
XRECORD
  5
2BD
330
292
100
AcDbXrecord
280
1
 40
297.0
  0
XRECORD
  5
2BE
330
292
100
AcDbXrecord
280
1
1000
ISO A4
  0
XRECORD
  5
2BF
330
292
100
AcDbXrecord
280
1
 40
210.0
  0
XRECORD
  5
2C0
330
292
100
AcDbXrecord
280
1
1000
0.5
  0
XRECORD
  5
2C1
330
292
100
AcDbXrecord
280
1
1000
1:1
  0
XRECORD
  5
2C2
330
292
100
AcDbXrecord
280
1
290
0
  0
XRECORD
  5
2C3
330
292
100
AcDbXrecord
280
1
290
0
  0
XRECORD
  5
2C4
330
292
100
AcDbXrecord
280
1
1000
Inside
  0
XRECORD
  5
2C5
330
292
100
AcDbXrecord
280
1
1000
Arial,10,-1,5,50,0,0,0,0,0
  0
XRECORD
  5
2C6
330
292
100
AcDbXrecord
280
1
1000
TopLeft
  0
XRECORD
  5
2C7
330
292
100
AcDbXrecord
280
1
1000
3.27.1
  0
XRECORD
  5
2C8
330
292
100
AcDbXrecord
280
1
 90
4
  0
XRECORD
  5
2CA
330
292
100
AcDbXrecord
280
1
 40
247.3812409302510673
  0
XRECORD
  5
2CB
330
292
100
AcDbXrecord
280
1
 40
465.101975932640471
  0
ENDSEC
  0
EOF
