999
dxflib 3.26.4.0
  0
SECTION
  2
HEADER
  9
$ACADVER
  1
AC1015
  9
$HANDSEED
  5
FFFF
  9
$ANGBASE
 50
0.0
  9
$ANGDIR
 70
1
  9
$DIMADEC
 70
0
  9
$DIMASZ
 40
0.18
  9
$DIMATFIT
 70
0
  9
$DIMAUNIT
 70
0
  9
$DIMAZIN
 70
0
  9
$DIMBLK
  1
0
  9
$DIMBLK1
  1
0
  9
$DIMBLK2
  1
0
  9
$DIMDEC
 70
4
  9
$DIMDLI
 40
0.36
  9
$DIMDSEP
 70
0
  9
$DIMEXE
 40
0.18
  9
$DIMEXO
 40
0.0625
  9
$DIMGAP
 40
0.09
  9
$DIMLFAC
 40
0.0
  9
$DIMLUNIT
 70
2
  9
$DIMSCALE
 40
0.0
  9
$DIMTAD
 70
0
  9
$DIMTIH
 70
0
  9
$DIMTSZ
 40
0.0
  9
$DIMTXT
 40
0.18
  9
$DIMZIN
 70
0
  9
$DWGCODEPAGE
  3
ANSI_1252
  9
$INSUNITS
 70
0
  9
$LTSCALE
 40
1.0
  9
$MAXACTVP
 70
64
  9
$MEASUREMENT
 70
1
  9
$MIRRTEXT
 70
0
  9
$PDMODE
 70
0
  9
$PDSIZE
 40
0.0
  0
ENDSEC
  0
SECTION
  2
TABLES
  0
TABLE
  2
VPORT
  5
8
100
AcDbSymbolTable
 70
1
  0
VPORT
  5
30
100
AcDbSymbolTableRecord
100
AcDbViewportTableRecord
  2
*Active
 70
0
 10
0.0
 20
0.0
 11
1.0
 21
1.0
 12
286.3055555555554861
 22
148.5
 13
0.0
 23
0.0
 14
10.0
 24
10.0
 15
10.0
 25
10.0
 16
0.0
 26
0.0
 36
1.0
 17
0.0
 27
0.0
 37
0.0
 40
297.0
 41
1.92798353909465
 42
50.0
 43
0.0
 44
0.0
 50
0.0
 51
0.0
 71
0
 72
100
 73
1
 74
3
 75
1
 76
1
 77
0
 78
0
281
0
 65
1
110
0.0
120
0.0
130
0.0
111
1.0
121
0.0
131
0.0
112
0.0
122
1.0
132
0.0
 79
0
146
0.0
  0
ENDTAB
  0
TABLE
  2
LTYPE
  5
5
100
AcDbSymbolTable
 70
42
  0
LTYPE
  5
16
100
AcDbSymbolTableRecord
100
AcDbLinetypeTableRecord
  2
CONTINUOUS
 70
0
  3
Solid line
 72
65
 73
0
 40
0.0
  0
LTYPE
  5
31
100
AcDbSymbolTableRecord
100
AcDbLinetypeTableRecord
  2
DASHDOT2
 70
0
  3
Dash dot (.5x) _._._._._._._._._._._._._._._.
 72
65
 73
4
 40
12.6999999999999993
 49
6.3499999999999996
 74
0
 49
-3.125
 74
0
 49
0.1
 74
0
 49
-3.125
 74
0
  0
LTYPE
  5
32
100
AcDbSymbolTableRecord
100
AcDbLinetypeTableRecord
  2
ACAD_ISO15W100
 70
0
  3
ISO double-dash triple-dot __ __ . . . __ __ . .
 72
65
 73
10
 40
39.0000000000000071
 49
12.0
 74
0
 49
-3.0
 74
0
 49
12.0
 74
0
 49
-2.9500000000000002
 74
0
 49
0.1
 74
0
 49
-2.9000000000000004
 74
0
 49
0.1
 74
0
 49
-2.9000000000000004
 74
0
 49
0.1
 74
0
 49
-2.9500000000000002
 74
0
  0
LTYPE
  5
33
100
AcDbSymbolTableRecord
100
AcDbLinetypeTableRecord
  2
ACAD_ISO11W100
 70
0
  3
ISO double-dash dot __ __ . __ __ . __ __ . __ _
 72
65
 73
6
 40
33.0
 49
12.0
 74
0
 49
-3.0
 74
0
 49
12.0
 74
0
 49
-2.9500000000000002
 74
0
 49
0.1
 74
0
 49
-2.9500000000000002
 74
0
  0
LTYPE
  5
34
100
AcDbSymbolTableRecord
100
AcDbLinetypeTableRecord
  2
DOT
 70
0
  3
Dot . . . . . . . . . . . . . . . . . . . . . . . .
 72
65
 73
2
 40
6.3499999999999996
 49
0.1
 74
0
 49
-6.25
 74
0
  0
LTYPE
  5
35
100
AcDbSymbolTableRecord
100
AcDbLinetypeTableRecord
  2
ACAD_ISO09W100
 70
0
  3
ISO long-dash double-short-dash ____ __ __ ____
 72
65
 73
6
 40
45.0
 49
24.0
 74
0
 49
-3.0
 74
0
 49
6.0
 74
0
 49
-3.0
 74
0
 49
6.0
 74
0
 49
-3.0
 74
0
  0
LTYPE
  5
36
100
AcDbSymbolTableRecord
100
AcDbLinetypeTableRecord
  2
DOTTED
 70
0
  3
Dotted .  .  .  .
 72
65
 73
2
 40
0.2
 49
0.1
 74
0
 49
-0.1
 74
0
  0
LTYPE
  5
37
100
AcDbSymbolTableRecord
100
AcDbLinetypeTableRecord
  2
DIVIDEX2
 70
0
  3
Divide (2x) ________  .  .  ________  .  .  _
 72
65
 73
6
 40
63.5
 49
25.3999999999999986
 74
0
 49
-12.6499999999999986
 74
0
 49
0.1
 74
0
 49
-12.5999999999999979
 74
0
 49
0.1
 74
0
 49
-12.6499999999999986
 74
0
  0
LTYPE
  5
38
100
AcDbSymbolTableRecord
100
AcDbLinetypeTableRecord
  2
PHANTOM2
 70
0
  3
Phantom (.5x) ___ _ _ ___ _ _ ___ _ _ ___ _ _
 72
65
 73
6
 40
31.7500000000000036
 49
15.875
 74
0
 49
-3.1749999999999998
 74
0
 49
3.1749999999999998
 74
0
 49
-3.1749999999999998
 74
0
 49
3.1749999999999998
 74
0
 49
-3.1749999999999998
 74
0
  0
LTYPE
  5
39
100
AcDbSymbolTableRecord
100
AcDbLinetypeTableRecord
  2
DIVIDE2
 70
0
  3
Divide (.5x) __..__..__..__..__..__..__..__.._
 72
65
 73
6
 40
15.8749999999999982
 49
6.3499999999999996
 74
0
 49
-3.125
 74
0
 49
0.1
 74
0
 49
-3.0750000000000002
 74
0
 49
0.1
 74
0
 49
-3.125
 74
0
  0
LTYPE
  5
3A
100
AcDbSymbolTableRecord
100
AcDbLinetypeTableRecord
  2
PHANTOMX2
 70
0
  3
Phantom (2x) ____________    ____    ____   _
 72
65
 73
6
 40
127.0000000000000142
 49
63.5
 74
0
 49
-12.6999999999999993
 74
0
 49
12.6999999999999993
 74
0
 49
-12.6999999999999993
 74
0
 49
12.6999999999999993
 74
0
 49
-12.6999999999999993
 74
0
  0
LTYPE
  5
3B
100
AcDbSymbolTableRecord
100
AcDbLinetypeTableRecord
  2
ACAD_ISO10W100
 70
0
  3
ISO dash dot __ . __ . __ . __ . __ . __ . __ . 
 72
65
 73
4
 40
18.0
 49
12.0
 74
0
 49
-2.9500000000000002
 74
0
 49
0.1
 74
0
 49
-2.9500000000000002
 74
0
  0
LTYPE
  5
3C
100
AcDbSymbolTableRecord
100
AcDbLinetypeTableRecord
  2
BORDERX2
 70
0
  3
Border (2x) ____  ____  .  ____  ____  .  ___
 72
65
 73
6
 40
88.8999999999999773
 49
25.3999999999999986
 74
0
 49
-12.6999999999999993
 74
0
 49
25.3999999999999986
 74
0
 49
-12.6499999999999986
 74
0
 49
0.1
 74
0
 49
-12.6499999999999986
 74
0
  0
LTYPE
  5
3D
100
AcDbSymbolTableRecord
100
AcDbLinetypeTableRecord
  2
BORDER2
 70
0
  3
Border (.5x) __.__.__.__.__.__.__.__.__.__.__.
 72
65
 73
6
 40
22.2250000000000014
 49
6.3499999999999996
 74
0
 49
-3.1749999999999998
 74
0
 49
6.3499999999999996
 74
0
 49
-3.125
 74
0
 49
0.1
 74
0
 49
-3.125
 74
0
  0
LTYPE
  5
3E
100
AcDbSymbolTableRecord
100
AcDbLinetypeTableRecord
  2
CENTER
 70
0
  3
Center ____ _ ____ _ ____ _ ____ _ ____ _ ____
 72
65
 73
4
 40
50.8000000000000043
 49
31.75
 74
0
 49
-6.3499999999999996
 74
0
 49
6.3499999999999996
 74
0
 49
-6.3499999999999996
 74
0
  0
LTYPE
  5
3F
100
AcDbSymbolTableRecord
100
AcDbLinetypeTableRecord
  2
ACAD_ISO08W100
 70
0
  3
ISO long-dash short-dash ____ __ ____ __ ____ _
 72
65
 73
4
 40
36.0
 49
24.0
 74
0
 49
-3.0
 74
0
 49
6.0
 74
0
 49
-3.0
 74
0
  0
LTYPE
  5
40
100
AcDbSymbolTableRecord
100
AcDbLinetypeTableRecord
  2
ACAD_ISO12W100
 70
0
  3
ISO dash double-dot __ . . __ . . __ . . __ . . 
 72
65
 73
6
 40
21.0
 49
12.0
 74
0
 49
-2.9500000000000002
 74
0
 49
0.1
 74
0
 49
-2.9000000000000004
 74
0
 49
0.1
 74
0
 49
-2.9500000000000002
 74
0
  0
LTYPE
  5
41
100
AcDbSymbolTableRecord
100
AcDbLinetypeTableRecord
  2
DASHED
 70
0
  3
Dashed __ __ __ __ __
 72
65
 73
2
 40
0.75
 49
0.5
 74
0
 49
-0.25
 74
0
  0
LTYPE
  5
42
100
AcDbSymbolTableRecord
100
AcDbLinetypeTableRecord
  2
DASHDOTX2
 70
0
  3
Dash dot (2x) ____  .  ____  .  ____  .  ___
 72
65
 73
4
 40
50.7999999999999972
 49
25.3999999999999986
 74
0
 49
-12.6499999999999986
 74
0
 49
0.1
 74
0
 49
-12.6499999999999986
 74
0
  0
LTYPE
  5
43
100
AcDbSymbolTableRecord
100
AcDbLinetypeTableRecord
  2
BORDER
 70
0
  3
Border __ __ . __ __ . __ __ . __ __ . __ __ .
 72
65
 73
6
 40
44.4499999999999957
 49
12.6999999999999993
 74
0
 49
-6.3499999999999996
 74
0
 49
12.6999999999999993
 74
0
 49
-6.2999999999999998
 74
0
 49
0.1
 74
0
 49
-6.2999999999999998
 74
0
  0
LTYPE
  5
44
100
AcDbSymbolTableRecord
100
AcDbLinetypeTableRecord
  2
DASHED2
 70
0
  3
Dashed (.5x) _ _ _ _ _ _ _ _ _ _ _ _ _ _ _ _ _ 
 72
65
 73
2
 40
9.5249999999999986
 49
6.3499999999999996
 74
0
 49
-3.1749999999999998
 74
0
  0
LTYPE
  5
45
100
AcDbSymbolTableRecord
100
AcDbLinetypeTableRecord
  2
ACAD_ISO06W100
 70
0
  3
ISO long-dash triple-dot ____ ... ____ ... ____
 72
65
 73
8
 40
36.0000000000000071
 49
24.0
 74
0
 49
-2.9500000000000002
 74
0
 49
0.1
 74
0
 49
-2.9000000000000004
 74
0
 49
0.1
 74
0
 49
-2.9000000000000004
 74
0
 49
0.1
 74
0
 49
-2.9500000000000002
 74
0
  0
LTYPE
  5
46
100
AcDbSymbolTableRecord
100
AcDbLinetypeTableRecord
  2
HIDDENX2
 70
0
  3
Hidden (2x) ____ ____ ____ ____ ____ ____ ____ 
 72
65
 73
2
 40
19.0499999999999972
 49
12.6999999999999993
 74
0
 49
-6.3499999999999996
 74
0
  0
LTYPE
  5
47
100
AcDbSymbolTableRecord
100
AcDbLinetypeTableRecord
  2
DASHEDX2
 70
0
  3
Dashed (2x) ____  ____  ____  ____  ____  ___
 72
65
 73
2
 40
38.0999999999999943
 49
25.3999999999999986
 74
0
 49
-12.6999999999999993
 74
0
  0
LTYPE
  5
48
100
AcDbSymbolTableRecord
100
AcDbLinetypeTableRecord
  2
ACAD_ISO13W100
 70
0
  3
ISO double-dash double-dot __ __ . . __ __ . . _
 72
65
 73
8
 40
36.0000000000000071
 49
12.0
 74
0
 49
-3.0
 74
0
 49
12.0
 74
0
 49
-2.9500000000000002
 74
0
 49
0.1
 74
0
 49
-2.9000000000000004
 74
0
 49
0.1
 74
0
 49
-2.9500000000000002
 74
0
  0
LTYPE
  5
49
100
AcDbSymbolTableRecord
100
AcDbLinetypeTableRecord
  2
ACAD_ISO02W100
 70
0
  3
ISO dash __ __ __ __ __ __ __ __ __ __ __ __ __
 72
65
 73
2
 40
15.0
 49
12.0
 74
0
 49
-3.0
 74
0
  0
LTYPE
  5
4A
100
AcDbSymbolTableRecord
100
AcDbLinetypeTableRecord
  2
ACAD_ISO03W100
 70
0
  3
ISO dash space __    __    __    __    __    __
 72
65
 73
2
 40
30.0
 49
12.0
 74
0
 49
-18.0
 74
0
  0
LTYPE
  5
4B
100
AcDbSymbolTableRecord
100
AcDbLinetypeTableRecord
  2
ACAD_ISO04W100
 70
0
  3
ISO long-dash dot ____ . ____ . ____ . ____ . _
 72
65
 73
4
 40
30.0
 49
24.0
 74
0
 49
-2.9500000000000002
 74
0
 49
0.1
 74
0
 49
-2.9500000000000002
 74
0
  0
LTYPE
  5
14
100
AcDbSymbolTableRecord
100
AcDbLinetypeTableRecord
  2
BYBLOCK
 70
0
  3

 72
65
 73
0
 40
0.0
  0
LTYPE
  5
4C
100
AcDbSymbolTableRecord
100
AcDbLinetypeTableRecord
  2
DASHDOT
 70
0
  3
Dash Dot ____ _ ____ _
 72
65
 73
4
 40
2.0
 49
1.25
 74
0
 49
-0.25
 74
0
 49
0.25
 74
0
 49
-0.25
 74
0
  0
LTYPE
  5
4D
100
AcDbSymbolTableRecord
100
AcDbLinetypeTableRecord
  2
DIVIDE
 70
0
  3
Divide ____ . . ____ . . ____ . . ____ . . ____
 72
65
 73
6
 40
31.7500000000000036
 49
12.6999999999999993
 74
0
 49
-6.2999999999999998
 74
0
 49
0.1
 74
0
 49
-6.25
 74
0
 49
0.1
 74
0
 49
-6.2999999999999998
 74
0
  0
LTYPE
  5
4E
100
AcDbSymbolTableRecord
100
AcDbLinetypeTableRecord
  2
CENTERX2
 70
0
  3
Center (2x) ________  __  ________  __  _____
 72
65
 73
4
 40
101.6000000000000085
 49
63.5
 74
0
 49
-12.6999999999999993
 74
0
 49
12.6999999999999993
 74
0
 49
-12.6999999999999993
 74
0
  0
LTYPE
  5
4F
100
AcDbSymbolTableRecord
100
AcDbLinetypeTableRecord
  2
PHANTOM
 70
0
  3
Phantom ______  __  __  ______  __  __  ______ 
 72
65
 73
6
 40
63.5000000000000071
 49
31.75
 74
0
 49
-6.3499999999999996
 74
0
 49
6.3499999999999996
 74
0
 49
-6.3499999999999996
 74
0
 49
6.3499999999999996
 74
0
 49
-6.3499999999999996
 74
0
  0
LTYPE
  5
50
100
AcDbSymbolTableRecord
100
AcDbLinetypeTableRecord
  2
DOT2
 70
0
  3
Dot (.5x) ........................................
 72
65
 73
2
 40
3.1749999999999998
 49
0.1
 74
0
 49
-3.0749999999999997
 74
0
  0
LTYPE
  5
51
100
AcDbSymbolTableRecord
100
AcDbLinetypeTableRecord
  2
HIDDEN2
 70
0
  3
Hidden (.5x) _ _ _ _ _ _ _ _ _ _ _ _ _ _ _ _ _ 
 72
65
 73
2
 40
4.7624999999999993
 49
3.1749999999999998
 74
0
 49
-1.5874999999999999
 74
0
  0
LTYPE
  5
52
100
AcDbSymbolTableRecord
100
AcDbLinetypeTableRecord
  2
HIDDEN
 70
0
  3
Hidden __ __ __ __ __ __ __ __ __ __ __ __ __ __
 72
65
 73
2
 40
9.5249999999999986
 49
6.3499999999999996
 74
0
 49
-3.1749999999999998
 74
0
  0
LTYPE
  5
53
100
AcDbSymbolTableRecord
100
AcDbLinetypeTableRecord
  2
DOTX2
 70
0
  3
Dot (2x) .  .  .  .  .  .  .  .  .  .  .  .  .  .
 72
65
 73
2
 40
12.6999999999999993
 49
0.1
 74
0
 49
-12.5999999999999996
 74
0
  0
LTYPE
  5
54
100
AcDbSymbolTableRecord
100
AcDbLinetypeTableRecord
  2
ACAD_ISO07W100
 70
0
  3
ISO dot . . . . . . . . . . . . . . . . . . . . 
 72
65
 73
2
 40
3.0
 49
0.1
 74
0
 49
-2.8999999999999999
 74
0
  0
LTYPE
  5
15
100
AcDbSymbolTableRecord
100
AcDbLinetypeTableRecord
  2
BYLAYER
 70
0
  3

 72
65
 73
0
 40
0.0
  0
LTYPE
  5
55
100
AcDbSymbolTableRecord
100
AcDbLinetypeTableRecord
  2
ACAD_ISO05W100
 70
0
  3
ISO long-dash double-dot ____ .. ____ .. ____ . 
 72
65
 73
6
 40
33.0000000000000071
 49
24.0
 74
0
 49
-2.9500000000000002
 74
0
 49
0.1
 74
0
 49
-2.9000000000000004
 74
0
 49
0.1
 74
0
 49
-2.9500000000000002
 74
0
  0
LTYPE
  5
56
100
AcDbSymbolTableRecord
100
AcDbLinetypeTableRecord
  2
ACAD_ISO14W100
 70
0
  3
ISO dash triple-dot __ . . . __ . . . __ . . . _
 72
65
 73
8
 40
24.0000000000000036
 49
12.0
 74
0
 49
-2.9500000000000002
 74
0
 49
0.1
 74
0
 49
-2.9000000000000004
 74
0
 49
0.1
 74
0
 49
-2.9000000000000004
 74
0
 49
0.1
 74
0
 49
-2.9500000000000002
 74
0
  0
LTYPE
  5
57
100
AcDbSymbolTableRecord
100
AcDbLinetypeTableRecord
  2
CENTER2
 70
0
  3
Center (.5x) ___ _ ___ _ ___ _ ___ _ ___ _ ___
 72
65
 73
4
 40
28.5750000000000028
 49
19.0500000000000007
 74
0
 49
-3.1749999999999998
 74
0
 49
3.1749999999999998
 74
0
 49
-3.1749999999999998
 74
0
  0
ENDTAB
  0
TABLE
  2
LAYER
  5
2
100
AcDbSymbolTable
 70
2
  0
LAYER
  5
58
100
AcDbSymbolTableRecord
100
AcDbLayerTableRecord
  2
edge cuts plate
 70
0
 62
7
420
16777215
  6
CONTINUOUS
370
5
390
F
  0
LAYER
  5
10
100
AcDbSymbolTableRecord
100
AcDbLayerTableRecord
  2
0
 70
0
 62
7
420
16777215
  6
CONTINUOUS
370
25
390
F
  0
ENDTAB
  0
TABLE
  2
STYLE
  5
3
100
AcDbSymbolTable
 70
1
  0
STYLE
  5
59
100
AcDbSymbolTableRecord
100
AcDbTextStyleTableRecord
  2
Standard
 70
0
 40
0.0
 41
1.0
 50
0.0
 71
0
 42
2.5
  3

  4

1001
ACAD
1000
txt
1071
0
  0
ENDTAB
  0
TABLE
  2
VIEW
  5
6
100
AcDbSymbolTable
 70
0
  0
ENDTAB
  0
TABLE
  2
UCS
  5
7
100
AcDbSymbolTable
 70
0
  0
ENDTAB
  0
TABLE
  2
APPID
  5
9
100
AcDbSymbolTable
 70
1
  0
APPID
  5
12
100
AcDbSymbolTableRecord
100
AcDbRegAppTableRecord
  2
ACAD
 70
0
  0
APPID
  5
5A
100
AcDbSymbolTableRecord
100
AcDbRegAppTableRecord
  2
QCAD
 70
0
  0
ENDTAB
  0
TABLE
  2
DIMSTYLE
  5
A
100
AcDbSymbolTable
 70
1
100
AcDbDimStyleTable
 71
0
  0
DIMSTYLE
105
27
100
AcDbSymbolTableRecord
100
AcDbDimStyleTableRecord
  2
Standard
 41
0.18
 42
0.0625
 43
3.75
 44
0.18
 70
0
 73
0
 74
0
 77
0
 78
8
140
0.18
141
2.5
143
0.03937007874016
147
0.09
171
3
172
1
271
2
272
2
274
3
278
44
283
0
284
8
340
59
  0
ENDTAB
  0
TABLE
  2
BLOCK_RECORD
  5
1
100
AcDbSymbolTable
 70
1
  0
BLOCK_RECORD
  5
1F
100
AcDbSymbolTableRecord
100
AcDbBlockTableRecord
  2
*Model_Space
340
22
  0
BLOCK_RECORD
  5
1B
100
AcDbSymbolTableRecord
100
AcDbBlockTableRecord
  2
*Paper_Space
340
1E
  0
BLOCK_RECORD
  5
23
100
AcDbSymbolTableRecord
100
AcDbBlockTableRecord
  2
*Paper_Space0
340
26
  0
ENDTAB
  0
ENDSEC
  0
SECTION
  2
BLOCKS
  0
BLOCK
  5
20
100
AcDbEntity
  8
0
100
AcDbBlockBegin
  2
*Model_Space
 70
0
 10
0.0
 20
0.0
 30
0.0
  3
*Model_Space
  1

  0
ENDBLK
  5
21
100
AcDbEntity
  8
0
100
AcDbBlockEnd
  0
BLOCK
  5
1C
100
AcDbEntity
 67
1
  8
0
100
AcDbBlockBegin
  2
*Paper_Space
 70
0
 10
0.0
 20
0.0
 30
0.0
  3
*Paper_Space
  1

  0
ENDBLK
  5
1D
100
AcDbEntity
 67
1
  8
0
100
AcDbBlockEnd
  0
BLOCK
  5
24
100
AcDbEntity
  8
0
100
AcDbBlockBegin
  2
*Paper_Space0
 70
0
 10
0.0
 20
0.0
 30
0.0
  3
*Paper_Space0
  1

  0
ENDBLK
  5
25
100
AcDbEntity
  8
0
100
AcDbBlockEnd
  0
ENDSEC
  0
SECTION
  2
ENTITIES
  0
ARC
  5
5B
100
AcDbEntity
  8
edge cuts plate
 62
256
370
-1
 48
1.0
  6
BYLAYER
100
AcDbCircle
 10
-138.8149999999999977
 20
-46.215600000000002
 30
0.0
 40
1.0
100
AcDbArc
 50
-260.0
 51
-170.0
  0
LINE
  5
5C
100
AcDbEntity
  8
edge cuts plate
 62
256
370
-1
 48
1.0
  6
CONTINUOUS
100
AcDbLine
 10
28.5749999999999993
 20
-46.625
 30
0.0
 11
28.5749999999999993
 21
-29.5749999999999993
 31
0.0
  0
ARC
  5
5D
100
AcDbEntity
  8
edge cuts plate
 62
256
370
-1
 48
1.0
  6
BYLAYER
100
AcDbCircle
 10
20.0500000000000007
 20
-8.5250000000000004
 30
0.0
 40
1.0
100
AcDbArc
 50
-180.0
 51
-90.0
  0
ARC
  5
5E
100
AcDbEntity
  8
edge cuts plate
 62
256
370
-1
 48
1.0
  6
BYLAYER
100
AcDbCircle
 10
18.0500000000000007
 20
8.5250000000000004
 30
0.0
 40
1.0
100
AcDbArc
 50
-0.0
 51
90.0
  0
ARC
  5
5F
100
AcDbEntity
  8
edge cuts plate
 62
256
370
-1
 48
1.0
  6
BYLAYER
100
AcDbCircle
 10
-47.7749999999999986
 20
8.5250599999999999
 30
0.0
 40
0.999943
100
AcDbArc
 50
89.9997000000000043
 51
100.0
  0
LINE
  5
60
100
AcDbEntity
  8
edge cuts plate
 62
256
370
-1
 48
1.0
  6
CONTINUOUS
100
AcDbLine
 10
19.0500000000000007
 20
-8.5250000000000004
 30
0.0
 11
19.0500000000000007
 21
8.5250000000000004
 31
0.0
  0
LINE
  5
61
100
AcDbEntity
  8
edge cuts plate
 62
256
370
-1
 48
1.0
  6
CONTINUOUS
100
AcDbLine
 10
-115.465999999999994
 20
-21.7391000000000005
 30
0.0
 11
-114.1269999999999953
 21
-21.5030999999999999
 31
0.0
  0
LINE
  5
62
100
AcDbEntity
  8
edge cuts plate
 62
256
370
-1
 48
1.0
  6
CONTINUOUS
100
AcDbLine
 10
-41.2882999999999996
 20
-66.6902000000000044
 30
0.0
 11
-132.3729999999999905
 21
-82.7519000000000062
 31
0.0
  0
ARC
  5
63
100
AcDbEntity
  8
edge cuts plate
 62
256
370
-1
 48
1.0
  6
BYLAYER
100
AcDbCircle
 10
27.5749999999999993
 20
-46.625
 30
0.0
 40
1.0
100
AcDbArc
 50
-90.0
 51
-0.0
  0
LINE
  5
64
100
AcDbEntity
  8
edge cuts plate
 62
256
370
-1
 48
1.0
  6
CONTINUOUS
100
AcDbLine
 10
-113.3160000000000025
 20
-20.3446999999999996
 30
0.0
 11
-116.277000000000001
 21
-3.5537000000000001
 31
0.0
  0
LINE
  5
65
100
AcDbEntity
  8
edge cuts plate
 62
256
370
-1
 48
1.0
  6
CONTINUOUS
100
AcDbLine
 10
-133.5310000000000059
 20
-81.9407999999999959
 30
0.0
 11
-139.8000000000000114
 21
-46.3892000000000024
 31
0.0
  0
ARC
  5
66
100
AcDbEntity
  8
edge cuts plate
 62
256
370
-1
 48
1.0
  6
BYLAYER
100
AcDbCircle
 10
-132.5459999999999923
 20
-81.7670999999999992
 30
0.0
 40
0.999999
100
AcDbArc
 50
-170.0
 51
-79.9992000000000019
  0
ARC
  5
67
100
AcDbEntity
  8
edge cuts plate
 62
256
370
-1
 48
1.0
  6
BYLAYER
100
AcDbCircle
 10
-115.2920000000000016
 20
-22.7239000000000004
 30
0.0
 40
1.0
100
AcDbArc
 50
-260.0
 51
-170.0
  0
LINE
  5
68
100
AcDbEntity
  8
edge cuts plate
 62
256
370
-1
 48
1.0
  6
CONTINUOUS
100
AcDbLine
 10
22.8125
 20
-9.5250000000000004
 30
0.0
 11
20.0500000000000007
 21
-9.5250000000000004
 31
0.0
  0
ARC
  5
69
100
AcDbEntity
  8
edge cuts plate
 62
256
370
-1
 48
1.0
  6
BYLAYER
100
AcDbCircle
 10
22.8125
 20
-10.5250000000000004
 30
0.0
 40
1.0
100
AcDbArc
 50
-0.0
 51
90.0
  0
LINE
  5
6A
100
AcDbEntity
  8
edge cuts plate
 62
256
370
-1
 48
1.0
  6
CONTINUOUS
100
AcDbLine
 10
-47.948599999999999
 20
9.5098099999999999
 30
0.0
 11
-115.465999999999994
 21
-2.3952399999999998
 31
0.0
  0
ARC
  5
6B
100
AcDbEntity
  8
edge cuts plate
 62
256
370
-1
 48
1.0
  6
BYLAYER
100
AcDbCircle
 10
-114.3010000000000019
 20
-20.5183
 30
0.0
 40
1.0
100
AcDbArc
 50
-80.0
 51
9.9999900000000004
  0
ARC
  5
6C
100
AcDbEntity
  8
edge cuts plate
 62
256
370
-1
 48
1.0
  6
BYLAYER
100
AcDbCircle
 10
24.8125
 20
-48.625
 30
0.0
 40
1.0
100
AcDbArc
 50
90.0
 51
180.0
  0
LINE
  5
6D
100
AcDbEntity
  8
edge cuts plate
 62
256
370
-1
 48
1.0
  6
CONTINUOUS
100
AcDbLine
 10
23.8125
 20
-27.5749999999999993
 30
0.0
 11
23.8125
 21
-10.5250000000000004
 31
0.0
  0
ARC
  5
6E
100
AcDbEntity
  8
edge cuts plate
 62
256
370
-1
 48
1.0
  6
BYLAYER
100
AcDbCircle
 10
27.5749999999999993
 20
-29.5749999999999993
 30
0.0
 40
1.0
100
AcDbArc
 50
-0.0
 51
90.0
  0
ARC
  5
6F
100
AcDbEntity
  8
edge cuts plate
 62
256
370
-1
 48
1.0
  6
BYLAYER
100
AcDbCircle
 10
-114.3010000000000019
 20
-39.8622000000000014
 30
0.0
 40
1.0
100
AcDbArc
 50
-80.0
 51
9.9999900000000004
  0
ARC
  5
70
100
AcDbEntity
  8
edge cuts plate
 62
256
370
-1
 48
1.0
  6
BYLAYER
100
AcDbCircle
 10
-115.2920000000000016
 20
-3.3800500000000002
 30
0.0
 40
1.0
100
AcDbArc
 50
-260.0
 51
-170.0
  0
ARC
  5
71
100
AcDbEntity
  8
edge cuts plate
 62
256
370
-1
 48
1.0
  6
BYLAYER
100
AcDbCircle
 10
22.8125
 20
-65.6749999999999972
 30
0.0
 40
1.0
100
AcDbArc
 50
-90.0
 51
-0.0
  0
LINE
  5
72
100
AcDbEntity
  8
edge cuts plate
 62
256
370
-1
 48
1.0
  6
CONTINUOUS
100
AcDbLine
 10
18.0500000000000007
 20
9.5250000000000004
 30
0.0
 11
-47.7749999999999986
 21
9.5250000000000004
 31
0.0
  0
LINE
  5
73
100
AcDbEntity
  8
edge cuts plate
 62
256
370
-1
 48
1.0
  6
CONTINUOUS
100
AcDbLine
 10
27.5749999999999993
 20
-28.5749999999999993
 30
0.0
 11
24.8125
 21
-28.5749999999999993
 31
0.0
  0
LINE
  5
74
100
AcDbEntity
  8
edge cuts plate
 62
256
370
-1
 48
1.0
  6
CONTINUOUS
100
AcDbLine
 10
-138.9890000000000043
 20
-45.2308000000000021
 30
0.0
 11
-114.1269999999999953
 21
-40.8470000000000013
 31
0.0
  0
LINE
  5
75
100
AcDbEntity
  8
edge cuts plate
 62
256
370
-1
 48
1.0
  6
CONTINUOUS
100
AcDbLine
 10
23.8125
 20
-65.6749999999999972
 30
0.0
 11
23.8125
 21
-48.625
 31
0.0
  0
LINE
  5
76
100
AcDbEntity
  8
edge cuts plate
 62
256
370
-1
 48
1.0
  6
CONTINUOUS
100
AcDbLine
 10
24.8125
 20
-47.625
 30
0.0
 11
27.5749999999999993
 21
-47.625
 31
0.0
  0
LINE
  5
77
100
AcDbEntity
  8
edge cuts plate
 62
256
370
-1
 48
1.0
  6
CONTINUOUS
100
AcDbLine
 10
-113.3160000000000025
 20
-39.6884999999999977
 30
0.0
 11
-116.277000000000001
 21
-22.8976000000000006
 31
0.0
  0
ARC
  5
78
100
AcDbEntity
  8
edge cuts plate
 62
256
370
-1
 48
1.0
  6
BYLAYER
100
AcDbCircle
 10
24.8125
 20
-27.5749999999999993
 30
0.0
 40
1.0
100
AcDbArc
 50
-180.0
 51
-90.0
  0
LINE
  5
79
100
AcDbEntity
  8
edge cuts plate
 62
256
370
-1
 48
1.0
  6
BYLAYER
100
AcDbLine
 10
-21.6749999999999901
 20
-6.4999999999999432
 30
0.0
 11
-21.6749999999999901
 21
6.5000000000000568
 31
0.0
  0
LINE
  5
7A
100
AcDbEntity
  8
edge cuts plate
 62
256
370
-1
 48
1.0
  6
BYLAYER
100
AcDbLine
 10
-21.6749999999999901
 20
-25.5499999999999545
 30
0.0
 11
-21.6749999999999901
 21
-12.5499999999999545
 31
0.0
  0
LINE
  5
7B
100
AcDbEntity
  8
edge cuts plate
 62
256
370
-1
 48
1.0
  6
BYLAYER
100
AcDbLine
 10
-26.4375000000000071
 20
-44.6000000000000227
 30
0.0
 11
-26.4375000000000071
 21
-31.6000000000000227
 31
0.0
  0
LINE
  5
7C
100
AcDbEntity
  8
edge cuts plate
 62
256
370
-1
 48
1.0
  6
BYLAYER
100
AcDbLine
 10
-2.6249999999999982
 20
-63.6499999999999915
 30
0.0
 11
-2.6249999999999982
 21
-50.6499999999999915
 31
0.0
  0
LINE
  5
7D
100
AcDbEntity
  8
edge cuts plate
 62
256
370
-1
 48
1.0
  6
BYLAYER
100
AcDbLine
 10
18.8062499999999986
 20
-63.6499999999999986
 30
0.0
 11
18.8062499999999986
 21
-50.6499999999999986
 31
0.0
  0
LINE
  5
7E
100
AcDbEntity
  8
edge cuts plate
 62
256
370
-1
 48
1.0
  6
BYLAYER
100
AcDbLine
 10
-21.6750000000000043
 20
-63.649999999999892
 30
0.0
 11
-21.6750000000000043
 21
-50.649999999999892
 31
0.0
  0
LINE
  5
7F
100
AcDbEntity
  8
edge cuts plate
 62
256
370
-1
 48
1.0
  6
BYLAYER
100
AcDbLine
 10
-47.3550552282651296
 20
-64.689370154535041
 30
0.0
 11
-49.6124815379352242
 21
-51.8868693653763273
 31
0.0
  0
LINE
  5
80
100
AcDbEntity
  8
edge cuts plate
 62
256
370
-1
 48
1.0
  6
BYLAYER
100
AcDbLine
 10
-45.9729060890995385
 20
-45.1017830135136961
 30
0.0
 11
-48.2303323987696331
 21
-32.2992822243549895
 31
0.0
  0
LINE
  5
81
100
AcDbEntity
  8
edge cuts plate
 62
256
370
-1
 48
1.0
  6
BYLAYER
100
AcDbLine
 10
-41.2104060890995214
 20
-24.9181488114661995
 30
0.0
 11
-43.467832398769616
 21
-12.1156480223074894
 31
0.0
  0
LINE
  5
82
100
AcDbEntity
  8
edge cuts plate
 62
256
370
-1
 48
1.0
  6
BYLAYER
100
AcDbLine
 10
-41.2104060890995072
 20
-5.5742718550427526
 30
0.0
 11
-43.4678323987696018
 21
7.2282289341159567
 31
0.0
  0
LINE
  5
83
100
AcDbEntity
  8
edge cuts plate
 62
256
370
-1
 48
1.0
  6
BYLAYER
100
AcDbLine
 10
-59.970993783982081
 20
-8.8822696395977836
 30
0.0
 11
-62.2284200936521756
 21
3.9202311495609266
 31
0.0
  0
LINE
  5
84
100
AcDbEntity
  8
edge cuts plate
 62
256
370
-1
 48
1.0
  6
BYLAYER
100
AcDbLine
 10
-78.7315814788646406
 20
-12.1902674241528111
 30
0.0
 11
-80.9890077885347353
 21
0.6122333650058991
 31
0.0
  0
LINE
  5
85
100
AcDbEntity
  8
edge cuts plate
 62
256
370
-1
 48
1.0
  6
BYLAYER
100
AcDbLine
 10
-97.4921691737472287
 20
-15.4982652087078243
 30
0.0
 11
-99.7495954834173233
 21
-2.6957644195491142
 31
0.0
  0
LINE
  5
86
100
AcDbEntity
  8
edge cuts plate
 62
256
370
-1
 48
1.0
  6
BYLAYER
100
AcDbLine
 10
-97.4921691737472003
 20
-34.8421421651312926
 30
0.0
 11
-99.7495954834172949
 21
-22.039641375972586
 31
0.0
  0
LINE
  5
87
100
AcDbEntity
  8
edge cuts plate
 62
256
370
-1
 48
1.0
  6
BYLAYER
100
AcDbLine
 10
-102.2546691737471889
 20
-55.0257763671788069
 30
0.0
 11
-104.5120954834172835
 21
-42.2232755780201003
 31
0.0
  0
LINE
  5
88
100
AcDbEntity
  8
edge cuts plate
 62
256
370
-1
 48
1.0
  6
BYLAYER
100
AcDbLine
 10
-83.4940814788646577
 20
-51.7177785826237795
 30
0.0
 11
-85.7515077885347523
 21
-38.9152777934650729
 31
0.0
  0
LINE
  5
89
100
AcDbEntity
  8
edge cuts plate
 62
256
370
-1
 48
1.0
  6
BYLAYER
100
AcDbLine
 10
-64.7334937839820981
 20
-48.4097807980687236
 30
0.0
 11
-66.9909200936521927
 21
-35.607280008910017
 31
0.0
  0
LINE
  5
8A
100
AcDbEntity
  8
edge cuts plate
 62
256
370
-1
 48
1.0
  6
BYLAYER
100
AcDbLine
 10
-66.1156429231477176
 20
-67.9973679390901111
 30
0.0
 11
-68.3730692328178122
 21
-55.1948671499313903
 31
0.0
  0
LINE
  5
8B
100
AcDbEntity
  8
edge cuts plate
 62
256
370
-1
 48
1.0
  6
BYLAYER
100
AcDbLine
 10
-78.7315814788646406
 20
-31.5341443805762509
 30
0.0
 11
-80.9890077885347353
 21
-18.7316435914175443
 31
0.0
  0
LINE
  5
8C
100
AcDbEntity
  8
edge cuts plate
 62
256
370
-1
 48
1.0
  6
BYLAYER
100
AcDbLine
 10
-59.970993783982081
 20
-28.2261465960212234
 30
0.0
 11
-62.2284200936521756
 21
-15.4236458068625168
 31
0.0
  0
LINE
  5
8D
100
AcDbEntity
  8
edge cuts plate
 62
256
370
-1
 48
1.0
  6
BYLAYER
100
AcDbLine
 10
18.8062500000000021
 20
-44.6000000000000227
 30
0.0
 11
18.8062500000000021
 21
-31.6000000000000227
 31
0.0
  0
ARC
  5
8E
100
AcDbEntity
  8
edge cuts plate
 62
256
370
-1
 48
1.0
  6
BYLAYER
100
AcDbCircle
 10
-41.1146999999999991
 20
-67.6751000000000005
 30
0.0
 40
1.0000800000000001
100
AcDbArc
 50
90.0002999999999957
 51
100.0
  0
LINE
  5
8F
100
AcDbEntity
  8
edge cuts plate
 62
256
370
-1
 48
1.0
  6
CONTINUOUS
100
AcDbLine
 10
22.8125
 20
-66.6749999999999972
 30
0.0
 11
-41.1146999999999991
 21
-66.6749999999999972
 31
0.0
  0
ARC
  5
90
100
AcDbEntity
  8
edge cuts plate
 62
256
370
-1
 48
1.0
  6
BYLAYER
100
AcDbCircle
 10
-22.0749999999999886
 20
6.5000000000000577
 30
0.0
 40
0.3999999999999995
100
AcDbArc
 50
0.0
 51
90.0000000000001137
  0
ARC
  5
91
100
AcDbEntity
  8
edge cuts plate
 62
256
370
-1
 48
1.0
  6
BYLAYER
100
AcDbCircle
 10
-22.0749999999999886
 20
-12.5499999999999545
 30
0.0
 40
0.3999999999999995
100
AcDbArc
 50
0.0
 51
90.0000000000001137
  0
ARC
  5
92
100
AcDbEntity
  8
edge cuts plate
 62
256
370
-1
 48
1.0
  6
BYLAYER
100
AcDbCircle
 10
-26.8375000000000057
 20
-31.6000000000000227
 30
0.0
 40
0.3999999999999995
100
AcDbArc
 50
0.0
 51
90.0000000000001137
  0
ARC
  5
93
100
AcDbEntity
  8
edge cuts plate
 62
256
370
-1
 48
1.0
  6
BYLAYER
100
AcDbCircle
 10
-3.0249999999999977
 20
-50.6499999999999915
 30
0.0
 40
0.3999999999999995
100
AcDbArc
 50
0.0
 51
90.0000000000001137
  0
ARC
  5
94
100
AcDbEntity
  8
edge cuts plate
 62
256
370
-1
 48
1.0
  6
BYLAYER
100
AcDbCircle
 10
18.40625
 20
-50.6499999999999986
 30
0.0
 40
0.3999999999999995
100
AcDbArc
 50
0.0
 51
90.0000000000001137
  0
ARC
  5
95
100
AcDbEntity
  8
edge cuts plate
 62
256
370
-1
 48
1.0
  6
BYLAYER
100
AcDbCircle
 10
-22.0750000000000028
 20
-50.649999999999892
 30
0.0
 40
0.3999999999999995
100
AcDbArc
 50
0.0
 51
90.0000000000001137
  0
ARC
  5
96
100
AcDbEntity
  8
edge cuts plate
 62
256
370
-1
 48
1.0
  6
BYLAYER
100
AcDbCircle
 10
-50.0064046391401078
 20
-51.9563286364431036
 30
0.0
 40
0.3999999999999995
100
AcDbArc
 50
10.0
 51
100.0000000000001279
  0
ARC
  5
97
100
AcDbEntity
  8
edge cuts plate
 62
256
370
-1
 48
1.0
  6
BYLAYER
100
AcDbCircle
 10
-48.6242554999745167
 20
-32.3687414954217587
 30
0.0
 40
0.3999999999999995
100
AcDbArc
 50
10.0
 51
100.0000000000001279
  0
ARC
  5
98
100
AcDbEntity
  8
edge cuts plate
 62
256
370
-1
 48
1.0
  6
BYLAYER
100
AcDbCircle
 10
-43.8617554999744996
 20
-12.1851072933742621
 30
0.0
 40
0.3999999999999995
100
AcDbArc
 50
10.0
 51
100.0000000000001279
  0
ARC
  5
99
100
AcDbEntity
  8
edge cuts plate
 62
256
370
-1
 48
1.0
  6
BYLAYER
100
AcDbCircle
 10
-43.8617554999744854
 20
7.1587696630491839
 30
0.0
 40
0.3999999999999995
100
AcDbArc
 50
10.0
 51
100.0000000000001279
  0
ARC
  5
9A
100
AcDbEntity
  8
edge cuts plate
 62
256
370
-1
 48
1.0
  6
BYLAYER
100
AcDbCircle
 10
-62.6223431948570592
 20
3.8507718784941538
 30
0.0
 40
0.3999999999999995
100
AcDbArc
 50
10.0
 51
100.0000000000001279
  0
ARC
  5
9B
100
AcDbEntity
  8
edge cuts plate
 62
256
370
-1
 48
1.0
  6
BYLAYER
100
AcDbCircle
 10
-81.3829308897396118
 20
0.5427740939391263
 30
0.0
 40
0.3999999999999995
100
AcDbArc
 50
10.0
 51
100.0000000000001279
  0
ARC
  5
9C
100
AcDbEntity
  8
edge cuts plate
 62
256
370
-1
 48
1.0
  6
BYLAYER
100
AcDbCircle
 10
-100.1435185846221998
 20
-2.7652236906158869
 30
0.0
 40
0.3999999999999995
100
AcDbArc
 50
10.0
 51
100.0000000000001279
  0
ARC
  5
9D
100
AcDbEntity
  8
edge cuts plate
 62
256
370
-1
 48
1.0
  6
BYLAYER
100
AcDbCircle
 10
-100.1435185846221714
 20
-22.1091006470393587
 30
0.0
 40
0.3999999999999995
100
AcDbArc
 50
10.0
 51
100.0000000000001279
  0
ARC
  5
9E
100
AcDbEntity
  8
edge cuts plate
 62
256
370
-1
 48
1.0
  6
BYLAYER
100
AcDbCircle
 10
-104.90601858462216
 20
-42.2927348490868695
 30
0.0
 40
0.3999999999999995
100
AcDbArc
 50
10.0
 51
100.0000000000001279
  0
ARC
  5
9F
100
AcDbEntity
  8
edge cuts plate
 62
256
370
-1
 48
1.0
  6
BYLAYER
100
AcDbCircle
 10
-86.1454308897396288
 20
-38.9847370645318421
 30
0.0
 40
0.3999999999999995
100
AcDbArc
 50
10.0
 51
100.0000000000001279
  0
ARC
  5
A0
100
AcDbEntity
  8
edge cuts plate
 62
256
370
-1
 48
1.0
  6
BYLAYER
100
AcDbCircle
 10
-67.3848431948570692
 20
-35.6767392799767862
 30
0.0
 40
0.3999999999999995
100
AcDbArc
 50
10.0
 51
100.0000000000001279
  0
ARC
  5
A1
100
AcDbEntity
  8
edge cuts plate
 62
256
370
-1
 48
1.0
  6
BYLAYER
100
AcDbCircle
 10
-68.7669923340226887
 20
-55.2643264209981666
 30
0.0
 40
0.3999999999999995
100
AcDbArc
 50
10.0
 51
100.0000000000001279
  0
ARC
  5
A2
100
AcDbEntity
  8
edge cuts plate
 62
256
370
-1
 48
1.0
  6
BYLAYER
100
AcDbCircle
 10
-81.3829308897396118
 20
-18.8011028624843171
 30
0.0
 40
0.3999999999999995
100
AcDbArc
 50
10.0
 51
100.0000000000001279
  0
ARC
  5
A3
100
AcDbEntity
  8
edge cuts plate
 62
256
370
-1
 48
1.0
  6
BYLAYER
100
AcDbCircle
 10
-62.6223431948570521
 20
-15.4931050779292896
 30
0.0
 40
0.3999999999999995
100
AcDbArc
 50
10.0
 51
100.0000000000001279
  0
ARC
  5
A4
100
AcDbEntity
  8
edge cuts plate
 62
256
370
-1
 48
1.0
  6
BYLAYER
100
AcDbCircle
 10
18.4062500000000071
 20
-31.6000000000000227
 30
0.0
 40
0.3999999999999995
100
AcDbArc
 50
0.0
 51
90.0000000000001137
  0
ARC
  5
A5
100
AcDbEntity
  8
edge cuts plate
 62
256
370
-1
 48
1.0
  6
BYLAYER
100
AcDbCircle
 10
-22.0749999999999886
 20
-6.499999999999944
 30
0.0
 40
0.3999999999999995
100
AcDbArc
 50
269.9999999999998863
 51
0.0
  0
ARC
  5
A6
100
AcDbEntity
  8
edge cuts plate
 62
256
370
-1
 48
1.0
  6
BYLAYER
100
AcDbCircle
 10
-22.0749999999999886
 20
-25.5499999999999545
 30
0.0
 40
0.3999999999999995
100
AcDbArc
 50
269.9999999999998863
 51
0.0
  0
ARC
  5
A7
100
AcDbEntity
  8
edge cuts plate
 62
256
370
-1
 48
1.0
  6
BYLAYER
100
AcDbCircle
 10
-26.8375000000000057
 20
-44.6000000000000227
 30
0.0
 40
0.3999999999999995
100
AcDbArc
 50
269.9999999999998863
 51
0.0
  0
ARC
  5
A8
100
AcDbEntity
  8
edge cuts plate
 62
256
370
-1
 48
1.0
  6
BYLAYER
100
AcDbCircle
 10
-3.0249999999999977
 20
-63.6499999999999915
 30
0.0
 40
0.3999999999999995
100
AcDbArc
 50
269.9999999999998863
 51
0.0
  0
ARC
  5
A9
100
AcDbEntity
  8
edge cuts plate
 62
256
370
-1
 48
1.0
  6
BYLAYER
100
AcDbCircle
 10
18.40625
 20
-63.6499999999999986
 30
0.0
 40
0.3999999999999995
100
AcDbArc
 50
269.9999999999998863
 51
0.0
  0
ARC
  5
AA
100
AcDbEntity
  8
edge cuts plate
 62
256
370
-1
 48
1.0
  6
BYLAYER
100
AcDbCircle
 10
-22.0750000000000028
 20
-63.649999999999892
 30
0.0
 40
0.3999999999999995
100
AcDbArc
 50
269.9999999999998863
 51
0.0
  0
ARC
  5
AB
100
AcDbEntity
  8
edge cuts plate
 62
256
370
-1
 48
1.0
  6
BYLAYER
100
AcDbCircle
 10
-47.7489783294700132
 20
-64.7588294256018173
 30
0.0
 40
0.3999999999999995
100
AcDbArc
 50
279.9999999999998863
 51
10.0
  0
ARC
  5
AC
100
AcDbEntity
  8
edge cuts plate
 62
256
370
-1
 48
1.0
  6
BYLAYER
100
AcDbCircle
 10
-46.3668291903044221
 20
-45.1712422845804724
 30
0.0
 40
0.3999999999999995
100
AcDbArc
 50
279.9999999999998863
 51
10.0
  0
ARC
  5
AD
100
AcDbEntity
  8
edge cuts plate
 62
256
370
-1
 48
1.0
  6
BYLAYER
100
AcDbCircle
 10
-41.604329190304405
 20
-24.9876080825329723
 30
0.0
 40
0.3999999999999995
100
AcDbArc
 50
279.9999999999998863
 51
10.0
  0
ARC
  5
AE
100
AcDbEntity
  8
edge cuts plate
 62
256
370
-1
 48
1.0
  6
BYLAYER
100
AcDbCircle
 10
-41.6043291903043908
 20
-5.6437311261095262
 30
0.0
 40
0.3999999999999995
100
AcDbArc
 50
279.9999999999998863
 51
10.0
  0
ARC
  5
AF
100
AcDbEntity
  8
edge cuts plate
 62
256
370
-1
 48
1.0
  6
BYLAYER
100
AcDbCircle
 10
-60.3649168851869646
 20
-8.9517289106645563
 30
0.0
 40
0.3999999999999995
100
AcDbArc
 50
279.9999999999998863
 51
10.0
  0
ARC
  5
B0
100
AcDbEntity
  8
edge cuts plate
 62
256
370
-1
 48
1.0
  6
BYLAYER
100
AcDbCircle
 10
-79.1255045800695171
 20
-12.2597266952195838
 30
0.0
 40
0.3999999999999995
100
AcDbArc
 50
279.9999999999998863
 51
10.0
  0
ARC
  5
B1
100
AcDbEntity
  8
edge cuts plate
 62
256
370
-1
 48
1.0
  6
BYLAYER
100
AcDbCircle
 10
-97.8860922749521052
 20
-15.5677244797745971
 30
0.0
 40
0.3999999999999995
100
AcDbArc
 50
279.9999999999998863
 51
10.0
  0
ARC
  5
B2
100
AcDbEntity
  8
edge cuts plate
 62
256
370
-1
 48
1.0
  6
BYLAYER
100
AcDbCircle
 10
-97.8860922749520768
 20
-34.9116014361980689
 30
0.0
 40
0.3999999999999995
100
AcDbArc
 50
279.9999999999998863
 51
10.0
  0
ARC
  5
B3
100
AcDbEntity
  8
edge cuts plate
 62
256
370
-1
 48
1.0
  6
BYLAYER
100
AcDbCircle
 10
-102.6485922749520654
 20
-55.0952356382455832
 30
0.0
 40
0.3999999999999995
100
AcDbArc
 50
279.9999999999998863
 51
10.0
  0
ARC
  5
B4
100
AcDbEntity
  8
edge cuts plate
 62
256
370
-1
 48
1.0
  6
BYLAYER
100
AcDbCircle
 10
-83.8880045800695342
 20
-51.7872378536905558
 30
0.0
 40
0.3999999999999995
100
AcDbArc
 50
279.9999999999998863
 51
10.0
  0
ARC
  5
B5
100
AcDbEntity
  8
edge cuts plate
 62
256
370
-1
 48
1.0
  6
BYLAYER
100
AcDbCircle
 10
-65.1274168851869746
 20
-48.4792400691354999
 30
0.0
 40
0.3999999999999995
100
AcDbArc
 50
279.9999999999998863
 51
10.0
  0
ARC
  5
B6
100
AcDbEntity
  8
edge cuts plate
 62
256
370
-1
 48
1.0
  6
BYLAYER
100
AcDbCircle
 10
-66.5095660243525941
 20
-68.0668272101568732
 30
0.0
 40
0.3999999999999995
100
AcDbArc
 50
279.9999999999998863
 51
10.0
  0
ARC
  5
B7
100
AcDbEntity
  8
edge cuts plate
 62
256
370
-1
 48
1.0
  6
BYLAYER
100
AcDbCircle
 10
-79.1255045800695171
 20
-31.6036036516430272
 30
0.0
 40
0.3999999999999995
100
AcDbArc
 50
279.9999999999998863
 51
10.0
  0
ARC
  5
B8
100
AcDbEntity
  8
edge cuts plate
 62
256
370
-1
 48
1.0
  6
BYLAYER
100
AcDbCircle
 10
-60.3649168851869575
 20
-28.2956058670879997
 30
0.0
 40
0.3999999999999995
100
AcDbArc
 50
279.9999999999998863
 51
10.0
  0
ARC
  5
B9
100
AcDbEntity
  8
edge cuts plate
 62
256
370
-1
 48
1.0
  6
BYLAYER
100
AcDbCircle
 10
18.4062500000000071
 20
-44.6000000000000298
 30
0.0
 40
0.3999999999999995
100
AcDbArc
 50
269.9999999999998863
 51
0.0
  0
ARC
  5
BA
100
AcDbEntity
  8
edge cuts plate
 62
256
370
-1
 48
1.0
  6
BYLAYER
100
AcDbCircle
 10
-35.0749999999999886
 20
-6.4999999999999432
 30
0.0
 40
0.4000000000000004
100
AcDbArc
 50
180.0
 51
270.0
  0
ARC
  5
BB
100
AcDbEntity
  8
edge cuts plate
 62
256
370
-1
 48
1.0
  6
BYLAYER
100
AcDbCircle
 10
-35.0749999999999886
 20
-25.5499999999999545
 30
0.0
 40
0.4000000000000004
100
AcDbArc
 50
180.0
 51
270.0
  0
ARC
  5
BC
100
AcDbEntity
  8
edge cuts plate
 62
256
370
-1
 48
1.0
  6
BYLAYER
100
AcDbCircle
 10
-39.8375000000000057
 20
-44.6000000000000227
 30
0.0
 40
0.4000000000000004
100
AcDbArc
 50
180.0
 51
270.0
  0
ARC
  5
BD
100
AcDbEntity
  8
edge cuts plate
 62
256
370
-1
 48
1.0
  6
BYLAYER
100
AcDbCircle
 10
-16.0249999999999986
 20
-63.6499999999999915
 30
0.0
 40
0.4000000000000004
100
AcDbArc
 50
180.0
 51
270.0
  0
ARC
  5
BE
100
AcDbEntity
  8
edge cuts plate
 62
256
370
-1
 48
1.0
  6
BYLAYER
100
AcDbCircle
 10
5.40625
 20
-63.6499999999999986
 30
0.0
 40
0.4000000000000004
100
AcDbArc
 50
180.0
 51
270.0
  0
ARC
  5
BF
100
AcDbEntity
  8
edge cuts plate
 62
256
370
-1
 48
1.0
  6
BYLAYER
100
AcDbCircle
 10
-35.0750000000000028
 20
-63.649999999999892
 30
0.0
 40
0.4000000000000004
100
AcDbArc
 50
180.0
 51
270.0
  0
ARC
  5
C0
100
AcDbEntity
  8
edge cuts plate
 62
256
370
-1
 48
1.0
  6
BYLAYER
100
AcDbCircle
 10
-60.5514791186287198
 20
-67.0162557352718977
 30
0.0
 40
0.4000000000000004
100
AcDbArc
 50
190.0
 51
280.0
  0
ARC
  5
C1
100
AcDbEntity
  8
edge cuts plate
 62
256
370
-1
 48
1.0
  6
BYLAYER
100
AcDbCircle
 10
-59.1693299794631287
 20
-47.4286685942505599
 30
0.0
 40
0.4000000000000004
100
AcDbArc
 50
190.0
 51
280.0
  0
ARC
  5
C2
100
AcDbEntity
  8
edge cuts plate
 62
256
370
-1
 48
1.0
  6
BYLAYER
100
AcDbCircle
 10
-54.4068299794631116
 20
-27.2450343922030598
 30
0.0
 40
0.4000000000000004
100
AcDbArc
 50
190.0
 51
280.0
  0
ARC
  5
C3
100
AcDbEntity
  8
edge cuts plate
 62
256
370
-1
 48
1.0
  6
BYLAYER
100
AcDbCircle
 10
-54.4068299794630974
 20
-7.9011574357796137
 30
0.0
 40
0.4000000000000004
100
AcDbArc
 50
190.0
 51
280.0
  0
ARC
  5
C4
100
AcDbEntity
  8
edge cuts plate
 62
256
370
-1
 48
1.0
  6
BYLAYER
100
AcDbCircle
 10
-73.1674176743456712
 20
-11.2091552203346438
 30
0.0
 40
0.4000000000000004
100
AcDbArc
 50
190.0
 51
280.0
  0
ARC
  5
C5
100
AcDbEntity
  8
edge cuts plate
 62
256
370
-1
 48
1.0
  6
BYLAYER
100
AcDbCircle
 10
-91.9280053692282308
 20
-14.5171530048896713
 30
0.0
 40
0.4000000000000004
100
AcDbArc
 50
190.0
 51
280.0
  0
ARC
  5
C6
100
AcDbEntity
  8
edge cuts plate
 62
256
370
-1
 48
1.0
  6
BYLAYER
100
AcDbCircle
 10
-110.6885930641108189
 20
-17.8251507894446846
 30
0.0
 40
0.4000000000000004
100
AcDbArc
 50
190.0
 51
280.0
  0
ARC
  5
C7
100
AcDbEntity
  8
edge cuts plate
 62
256
370
-1
 48
1.0
  6
BYLAYER
100
AcDbCircle
 10
-110.6885930641107905
 20
-37.1690277458681564
 30
0.0
 40
0.4000000000000004
100
AcDbArc
 50
190.0
 51
280.0
  0
ARC
  5
C8
100
AcDbEntity
  8
edge cuts plate
 62
256
370
-1
 48
1.0
  6
BYLAYER
100
AcDbCircle
 10
-115.4510930641107791
 20
-57.3526619479156707
 30
0.0
 40
0.4000000000000004
100
AcDbArc
 50
190.0
 51
280.0
  0
ARC
  5
C9
100
AcDbEntity
  8
edge cuts plate
 62
256
370
-1
 48
1.0
  6
BYLAYER
100
AcDbCircle
 10
-96.6905053692282479
 20
-54.0446641633606433
 30
0.0
 40
0.4000000000000004
100
AcDbArc
 50
190.0
 51
280.0
  0
ARC
  5
CA
100
AcDbEntity
  8
edge cuts plate
 62
256
370
-1
 48
1.0
  6
BYLAYER
100
AcDbCircle
 10
-77.9299176743456883
 20
-50.7366663788055874
 30
0.0
 40
0.4000000000000004
100
AcDbArc
 50
190.0
 51
280.0
  0
ARC
  5
CB
100
AcDbEntity
  8
edge cuts plate
 62
256
370
-1
 48
1.0
  6
BYLAYER
100
AcDbCircle
 10
-105.1078752397442742
 20
-74.872750549414377
 30
0.0
 40
0.4000000000000004
100
AcDbArc
 50
190.0
 51
280.0
  0
ARC
  5
CC
100
AcDbEntity
  8
edge cuts plate
 62
256
370
-1
 48
1.0
  6
BYLAYER
100
AcDbCircle
 10
-91.9280053692282308
 20
-33.8610299613131147
 30
0.0
 40
0.4000000000000004
100
AcDbArc
 50
190.0
 51
280.0
  0
ARC
  5
CD
100
AcDbEntity
  8
edge cuts plate
 62
256
370
-1
 48
1.0
  6
BYLAYER
100
AcDbCircle
 10
-73.1674176743456712
 20
-30.5530321767580872
 30
0.0
 40
0.4000000000000004
100
AcDbArc
 50
190.0
 51
280.0
  0
ARC
  5
CE
100
AcDbEntity
  8
edge cuts plate
 62
256
370
-1
 48
1.0
  6
BYLAYER
100
AcDbCircle
 10
-20.7874999999999801
 20
-44.6000000000000156
 30
0.0
 40
0.4000000000000004
100
AcDbArc
 50
180.0
 51
270.0
  0
ARC
  5
CF
100
AcDbEntity
  8
edge cuts plate
 62
256
370
-1
 48
1.0
  6
BYLAYER
100
AcDbCircle
 10
-35.0750000000000028
 20
6.5000000000000711
 30
0.0
 40
0.3999999999999861
100
AcDbArc
 50
90.0000000000020322
 51
180.0
  0
ARC
  5
D0
100
AcDbEntity
  8
edge cuts plate
 62
256
370
-1
 48
1.0
  6
BYLAYER
100
AcDbCircle
 10
-35.0750000000000028
 20
-12.5499999999999403
 30
0.0
 40
0.3999999999999861
100
AcDbArc
 50
90.0000000000020322
 51
180.0
  0
ARC
  5
D1
100
AcDbEntity
  8
edge cuts plate
 62
256
370
-1
 48
1.0
  6
BYLAYER
100
AcDbCircle
 10
-39.8375000000000199
 20
-31.6000000000000085
 30
0.0
 40
0.3999999999999861
100
AcDbArc
 50
90.0000000000020322
 51
180.0
  0
ARC
  5
D2
100
AcDbEntity
  8
edge cuts plate
 62
256
370
-1
 48
1.0
  6
BYLAYER
100
AcDbCircle
 10
-16.0250000000000128
 20
-50.6499999999999773
 30
0.0
 40
0.3999999999999861
100
AcDbArc
 50
90.0000000000020322
 51
180.0
  0
ARC
  5
D3
100
AcDbEntity
  8
edge cuts plate
 62
256
370
-1
 48
1.0
  6
BYLAYER
100
AcDbCircle
 10
5.4062499999999858
 20
-50.6499999999999844
 30
0.0
 40
0.3999999999999861
100
AcDbArc
 50
90.0000000000020322
 51
180.0
  0
ARC
  5
D4
100
AcDbEntity
  8
edge cuts plate
 62
256
370
-1
 48
1.0
  6
BYLAYER
100
AcDbCircle
 10
-35.0750000000000171
 20
-50.6499999999998778
 30
0.0
 40
0.3999999999999861
100
AcDbArc
 50
90.0000000000020322
 51
180.0
  0
ARC
  5
D5
100
AcDbEntity
  8
edge cuts plate
 62
256
370
-1
 48
1.0
  6
BYLAYER
100
AcDbCircle
 10
-62.8089054282988286
 20
-54.213754946113184
 30
0.0
 40
0.3999999999999861
100
AcDbArc
 50
100.0000000000020464
 51
190.0
  0
ARC
  5
D6
100
AcDbEntity
  8
edge cuts plate
 62
256
370
-1
 48
1.0
  6
BYLAYER
100
AcDbCircle
 10
-61.4267562891332375
 20
-34.6261678050918462
 30
0.0
 40
0.3999999999999861
100
AcDbArc
 50
100.0000000000020464
 51
190.0
  0
ARC
  5
D7
100
AcDbEntity
  8
edge cuts plate
 62
256
370
-1
 48
1.0
  6
BYLAYER
100
AcDbCircle
 10
-56.6642562891332204
 20
-14.4425336030443425
 30
0.0
 40
0.3999999999999861
100
AcDbArc
 50
100.0000000000020464
 51
190.0
  0
ARC
  5
D8
100
AcDbEntity
  8
edge cuts plate
 62
256
370
-1
 48
1.0
  6
BYLAYER
100
AcDbCircle
 10
-56.6642562891332062
 20
4.9013433533791027
 30
0.0
 40
0.3999999999999861
100
AcDbArc
 50
100.0000000000020464
 51
190.0
  0
ARC
  5
D9
100
AcDbEntity
  8
edge cuts plate
 62
256
370
-1
 48
1.0
  6
BYLAYER
100
AcDbCircle
 10
-75.4248439840157801
 20
1.5933455688240725
 30
0.0
 40
0.3999999999999861
100
AcDbArc
 50
100.0000000000020464
 51
190.0
  0
ARC
  5
DA
100
AcDbEntity
  8
edge cuts plate
 62
256
370
-1
 48
1.0
  6
BYLAYER
100
AcDbCircle
 10
-94.1854316788983397
 20
-1.7146522157309549
 30
0.0
 40
0.3999999999999861
100
AcDbArc
 50
100.0000000000020464
 51
190.0
  0
ARC
  5
DB
100
AcDbEntity
  8
edge cuts plate
 62
256
370
-1
 48
1.0
  6
BYLAYER
100
AcDbCircle
 10
-112.9460193737809277
 20
-5.0226500002859682
 30
0.0
 40
0.3999999999999861
100
AcDbArc
 50
100.0000000000020464
 51
190.0
  0
ARC
  5
DC
100
AcDbEntity
  8
edge cuts plate
 62
256
370
-1
 48
1.0
  6
BYLAYER
100
AcDbCircle
 10
-112.9460193737808993
 20
-24.3665269567094391
 30
0.0
 40
0.3999999999999861
100
AcDbArc
 50
100.0000000000020464
 51
190.0
  0
ARC
  5
DD
100
AcDbEntity
  8
edge cuts plate
 62
256
370
-1
 48
1.0
  6
BYLAYER
100
AcDbCircle
 10
-117.7085193737808879
 20
-44.550161158756957
 30
0.0
 40
0.3999999999999861
100
AcDbArc
 50
100.0000000000020464
 51
190.0
  0
ARC
  5
DE
100
AcDbEntity
  8
edge cuts plate
 62
256
370
-1
 48
1.0
  6
BYLAYER
100
AcDbCircle
 10
-98.9479316788983567
 20
-41.2421633742019296
 30
0.0
 40
0.3999999999999861
100
AcDbArc
 50
100.0000000000020464
 51
190.0
  0
ARC
  5
DF
100
AcDbEntity
  8
edge cuts plate
 62
256
370
-1
 48
1.0
  6
BYLAYER
100
AcDbCircle
 10
-80.1873439840157971
 20
-37.9341655896468737
 30
0.0
 40
0.3999999999999861
100
AcDbArc
 50
100.0000000000020464
 51
190.0
  0
ARC
  5
E0
100
AcDbEntity
  8
edge cuts plate
 62
256
370
-1
 48
1.0
  6
BYLAYER
100
AcDbCircle
 10
-107.365301549414383
 20
-62.0702497602556846
 30
0.0
 40
0.3999999999999861
100
AcDbArc
 50
100.0000000000020464
 51
190.0
  0
ARC
  5
E1
100
AcDbEntity
  8
edge cuts plate
 62
256
370
-1
 48
1.0
  6
BYLAYER
100
AcDbCircle
 10
-94.1854316788983397
 20
-21.0585291721543975
 30
0.0
 40
0.3999999999999861
100
AcDbArc
 50
100.0000000000020464
 51
190.0
  0
ARC
  5
E2
100
AcDbEntity
  8
edge cuts plate
 62
256
370
-1
 48
1.0
  6
BYLAYER
100
AcDbCircle
 10
-75.4248439840157801
 20
-17.75053138759937
 30
0.0
 40
0.3999999999999861
100
AcDbArc
 50
100.0000000000020464
 51
190.0
  0
ARC
  5
E3
100
AcDbEntity
  8
edge cuts plate
 62
256
370
-1
 48
1.0
  6
BYLAYER
100
AcDbCircle
 10
-20.7874999999999943
 20
-31.600000000000005
 30
0.0
 40
0.3999999999999861
100
AcDbArc
 50
90.0000000000020322
 51
180.0
  0
LINE
  5
E4
100
AcDbEntity
  8
edge cuts plate
 62
256
370
-1
 48
1.0
  6
BYLAYER
100
AcDbLine
 10
-35.0750000000000171
 20
6.9000000000000572
 30
0.0
 11
-22.0749999999999886
 21
6.9000000000000572
 31
0.0
  0
LINE
  5
E5
100
AcDbEntity
  8
edge cuts plate
 62
256
370
-1
 48
1.0
  6
BYLAYER
100
AcDbLine
 10
-35.0750000000000171
 20
-12.1499999999999542
 30
0.0
 11
-22.0749999999999886
 21
-12.1499999999999542
 31
0.0
  0
LINE
  5
E6
100
AcDbEntity
  8
edge cuts plate
 62
256
370
-1
 48
1.0
  6
BYLAYER
100
AcDbLine
 10
-39.8375000000000341
 20
-31.2000000000000242
 30
0.0
 11
-26.8375000000000057
 21
-31.2000000000000242
 31
0.0
  0
LINE
  5
E7
100
AcDbEntity
  8
edge cuts plate
 62
256
370
-1
 48
1.0
  6
BYLAYER
100
AcDbLine
 10
-16.025000000000027
 20
-50.2499999999999929
 30
0.0
 11
-3.0249999999999986
 21
-50.2499999999999929
 31
0.0
  0
LINE
  5
E8
100
AcDbEntity
  8
edge cuts plate
 62
256
370
-1
 48
1.0
  6
BYLAYER
100
AcDbLine
 10
5.4062499999999716
 20
-50.25
 30
0.0
 11
18.40625
 21
-50.25
 31
0.0
  0
LINE
  5
E9
100
AcDbEntity
  8
edge cuts plate
 62
256
370
-1
 48
1.0
  6
BYLAYER
100
AcDbLine
 10
-35.0750000000000313
 20
-50.2499999999998934
 30
0.0
 11
-22.0750000000000028
 21
-50.2499999999998934
 31
0.0
  0
LINE
  5
EA
100
AcDbEntity
  8
edge cuts plate
 62
256
370
-1
 48
1.0
  6
BYLAYER
100
AcDbLine
 10
-62.878364699365612
 20
-53.8198318449083146
 30
0.0
 11
-50.075863910206877
 21
-51.5624055352382129
 31
0.0
  0
LINE
  5
EB
100
AcDbEntity
  8
edge cuts plate
 62
256
370
-1
 48
1.0
  6
BYLAYER
100
AcDbLine
 10
-61.4962155602000209
 20
-34.2322447038869768
 30
0.0
 11
-48.6937147710412859
 21
-31.9748183942168787
 31
0.0
  0
LINE
  5
EC
100
AcDbEntity
  8
edge cuts plate
 62
256
370
-1
 48
1.0
  6
BYLAYER
100
AcDbLine
 10
-56.7337155602000038
 20
-14.0486105018394785
 30
0.0
 11
-43.9312147710412688
 21
-11.7911841921693785
 31
0.0
  0
LINE
  5
ED
100
AcDbEntity
  8
edge cuts plate
 62
256
370
-1
 48
1.0
  6
BYLAYER
100
AcDbLine
 10
-56.7337155601999896
 20
5.2952664545839676
 30
0.0
 11
-43.9312147710412546
 21
7.5526927642540675
 31
0.0
  0
LINE
  5
EE
100
AcDbEntity
  8
edge cuts plate
 62
256
370
-1
 48
1.0
  6
BYLAYER
100
AcDbLine
 10
-75.4943032550825563
 20
1.9872686700289375
 30
0.0
 11
-62.6918024659238284
 21
4.2446949796990374
 31
0.0
  0
LINE
  5
EF
100
AcDbEntity
  8
edge cuts plate
 62
256
370
-1
 48
1.0
  6
BYLAYER
100
AcDbLine
 10
-94.254890949965116
 20
-1.32072911452609
 30
0.0
 11
-81.4523901608063881
 21
0.93669719514401
 31
0.0
  0
LINE
  5
F0
100
AcDbEntity
  8
edge cuts plate
 62
256
370
-1
 48
1.0
  6
BYLAYER
100
AcDbLine
 10
-113.015478644847704
 20
-4.6287268990811032
 30
0.0
 11
-100.2129778556889761
 21
-2.3713005894110033
 31
0.0
  0
LINE
  5
F1
100
AcDbEntity
  8
edge cuts plate
 62
256
370
-1
 48
1.0
  6
BYLAYER
100
AcDbLine
 10
-113.0154786448476756
 20
-23.9726038555045733
 30
0.0
 11
-100.2129778556889477
 21
-21.7151775458344751
 31
0.0
  0
LINE
  5
F2
100
AcDbEntity
  8
edge cuts plate
 62
256
370
-1
 48
1.0
  6
BYLAYER
100
AcDbLine
 10
-117.7779786448476642
 20
-44.1562380575520876
 30
0.0
 11
-104.9754778556889363
 21
-41.898811747881993
 31
0.0
  0
LINE
  5
F3
100
AcDbEntity
  8
edge cuts plate
 62
256
370
-1
 48
1.0
  6
BYLAYER
100
AcDbLine
 10
-99.017390949965133
 20
-40.8482402729970602
 30
0.0
 11
-86.2148901608064051
 21
-38.5908139633269656
 31
0.0
  0
LINE
  5
F4
100
AcDbEntity
  8
edge cuts plate
 62
256
370
-1
 48
1.0
  6
BYLAYER
100
AcDbLine
 10
-80.2568032550825734
 20
-37.5402424884420043
 30
0.0
 11
-67.4543024659238455
 21
-35.2828161787719097
 31
0.0
  0
LINE
  5
F5
100
AcDbEntity
  8
edge cuts plate
 62
256
370
-1
 48
1.0
  6
BYLAYER
100
AcDbLine
 10
-76.1543119977147427
 20
-56.1607395480709641
 30
0.0
 11
-68.836451605089465
 21
-54.8704033197932901
 31
0.0
  0
LINE
  5
F6
100
AcDbEntity
  8
edge cuts plate
 62
256
370
-1
 48
1.0
  6
BYLAYER
100
AcDbLine
 10
-107.4347608204811593
 20
-61.6763266590508081
 30
0.0
 11
-107.1521208289865257
 21
-61.6264896027230904
 31
0.0
  0
LINE
  5
F7
100
AcDbEntity
  8
edge cuts plate
 62
256
370
-1
 48
1.0
  6
BYLAYER
100
AcDbLine
 10
-94.254890949965116
 20
-20.6646060709495316
 30
0.0
 11
-81.4523901608063881
 21
-18.4071797612794334
 31
0.0
  0
LINE
  5
F8
100
AcDbEntity
  8
edge cuts plate
 62
256
370
-1
 48
1.0
  6
BYLAYER
100
AcDbLine
 10
-75.4943032550825563
 20
-17.3566082863945041
 30
0.0
 11
-62.6918024659238284
 21
-15.099181976724406
 31
0.0
  0
LINE
  5
F9
100
AcDbEntity
  8
edge cuts plate
 62
256
370
-1
 48
1.0
  6
BYLAYER
100
AcDbLine
 10
-35.4749999999999872
 20
6.5000000000000568
 30
0.0
 11
-35.4749999999999872
 21
-6.4999999999999432
 31
0.0
  0
LINE
  5
FA
100
AcDbEntity
  8
edge cuts plate
 62
256
370
-1
 48
1.0
  6
BYLAYER
100
AcDbLine
 10
-35.4749999999999872
 20
-12.5499999999999545
 30
0.0
 11
-35.4749999999999872
 21
-25.5499999999999545
 31
0.0
  0
LINE
  5
FB
100
AcDbEntity
  8
edge cuts plate
 62
256
370
-1
 48
1.0
  6
BYLAYER
100
AcDbLine
 10
-40.2375000000000043
 20
-31.6000000000000227
 30
0.0
 11
-40.2375000000000043
 21
-44.6000000000000227
 31
0.0
  0
LINE
  5
FC
100
AcDbEntity
  8
edge cuts plate
 62
256
370
-1
 48
1.0
  6
BYLAYER
100
AcDbLine
 10
-16.4249999999999972
 20
-50.6499999999999915
 30
0.0
 11
-16.4249999999999972
 21
-63.6499999999999915
 31
0.0
  0
LINE
  5
FD
100
AcDbEntity
  8
edge cuts plate
 62
256
370
-1
 48
1.0
  6
BYLAYER
100
AcDbLine
 10
5.0062499999999996
 20
-50.6499999999999986
 30
0.0
 11
5.0062499999999996
 21
-63.6499999999999986
 31
0.0
  0
LINE
  5
FE
100
AcDbEntity
  8
edge cuts plate
 62
256
370
-1
 48
1.0
  6
BYLAYER
100
AcDbLine
 10
-35.4750000000000014
 20
-50.649999999999892
 30
0.0
 11
-35.4750000000000014
 21
-63.649999999999892
 31
0.0
  0
LINE
  5
FF
100
AcDbEntity
  8
edge cuts plate
 62
256
370
-1
 48
1.0
  6
BYLAYER
100
AcDbLine
 10
-63.2028285295036909
 20
-54.2832142171799674
 30
0.0
 11
-60.9454022198336034
 21
-67.085715006338674
 31
0.0
  0
LINE
  5
100
100
AcDbEntity
  8
edge cuts plate
 62
256
370
-1
 48
1.0
  6
BYLAYER
100
AcDbLine
 10
-61.8206793903380998
 20
-34.6956270761586296
 30
0.0
 11
-59.5632530806680123
 21
-47.4981278653173291
 31
0.0
  0
LINE
  5
101
100
AcDbEntity
  8
edge cuts plate
 62
256
370
-1
 48
1.0
  6
BYLAYER
100
AcDbLine
 10
-57.0581793903380827
 20
-14.5119928741111295
 30
0.0
 11
-54.8007530806679952
 21
-27.3144936632698325
 31
0.0
  0
LINE
  5
102
100
AcDbEntity
  8
edge cuts plate
 62
256
370
-1
 48
1.0
  6
BYLAYER
100
AcDbLine
 10
-57.0581793903380685
 20
4.8318840823123175
 30
0.0
 11
-54.800753080667981
 21
-7.9706167068463856
 31
0.0
  0
LINE
  5
103
100
AcDbEntity
  8
edge cuts plate
 62
256
370
-1
 48
1.0
  6
BYLAYER
100
AcDbLine
 10
-75.8187670852206423
 20
1.5238862977572873
 30
0.0
 11
-73.5613407755505477
 21
-11.2786144914014166
 31
0.0
  0
LINE
  5
104
100
AcDbEntity
  8
edge cuts plate
 62
256
370
-1
 48
1.0
  6
BYLAYER
100
AcDbLine
 10
-94.579354780103202
 20
-1.7841114867977401
 30
0.0
 11
-92.3219284704331073
 21
-14.5866122759564441
 31
0.0
  0
LINE
  5
105
100
AcDbEntity
  8
edge cuts plate
 62
256
370
-1
 48
1.0
  6
BYLAYER
100
AcDbLine
 10
-113.33994247498579
 20
-5.0921092713527534
 30
0.0
 11
-111.0825161653156954
 21
-17.8946100605114573
 31
0.0
  0
LINE
  5
106
100
AcDbEntity
  8
edge cuts plate
 62
256
370
-1
 48
1.0
  6
BYLAYER
100
AcDbLine
 10
-113.3399424749857616
 20
-24.4359862277762261
 30
0.0
 11
-111.082516165315667
 21
-37.2384870169349256
 31
0.0
  0
LINE
  5
107
100
AcDbEntity
  8
edge cuts plate
 62
256
370
-1
 48
1.0
  6
BYLAYER
100
AcDbLine
 10
-118.1024424749857502
 20
-44.6196204298237404
 30
0.0
 11
-115.8450161653156556
 21
-57.4221212189824399
 31
0.0
  0
LINE
  5
108
100
AcDbEntity
  8
edge cuts plate
 62
256
370
-1
 48
1.0
  6
BYLAYER
100
AcDbLine
 10
-99.341854780103219
 20
-41.311622645268713
 30
0.0
 11
-97.0844284704331244
 21
-54.1141234344274125
 31
0.0
  0
LINE
  5
109
100
AcDbEntity
  8
edge cuts plate
 62
256
370
-1
 48
1.0
  6
BYLAYER
100
AcDbLine
 10
-80.5812670852206594
 20
-38.0036248607136571
 30
0.0
 11
-78.3238407755505648
 21
-50.8061256498723566
 31
0.0
  0
LINE
  5
10A
100
AcDbEntity
  8
edge cuts plate
 62
256
370
-1
 48
1.0
  6
BYLAYER
100
AcDbLine
 10
-107.7592246506192453
 20
-62.1397090313224609
 30
0.0
 11
-105.5017983409491507
 21
-74.9422098204811675
 31
0.0
  0
LINE
  5
10B
100
AcDbEntity
  8
edge cuts plate
 62
256
370
-1
 48
1.0
  6
BYLAYER
100
AcDbLine
 10
-94.579354780103202
 20
-21.1279884432211844
 30
0.0
 11
-92.3219284704331073
 21
-33.9304892323798839
 31
0.0
  0
LINE
  5
10C
100
AcDbEntity
  8
edge cuts plate
 62
256
370
-1
 48
1.0
  6
BYLAYER
100
AcDbLine
 10
-75.8187670852206423
 20
-17.8199906586661569
 30
0.0
 11
-73.5613407755505477
 21
-30.6224914478248564
 31
0.0
  0
LINE
  5
10D
100
AcDbEntity
  8
edge cuts plate
 62
256
370
-1
 48
1.0
  6
BYLAYER
100
AcDbLine
 10
-21.1874999999999787
 20
-31.6000000000000227
 30
0.0
 11
-21.1874999999999716
 21
-44.6000000000000156
 31
0.0
  0
LINE
  5
10E
100
AcDbEntity
  8
edge cuts plate
 62
256
370
-1
 48
1.0
  6
BYLAYER
100
AcDbLine
 10
-35.0749999999999886
 20
-6.8999999999999435
 30
0.0
 11
-22.0749999999999886
 21
-6.8999999999999435
 31
0.0
  0
LINE
  5
10F
100
AcDbEntity
  8
edge cuts plate
 62
256
370
-1
 48
1.0
  6
BYLAYER
100
AcDbLine
 10
-35.0749999999999886
 20
-25.9499999999999531
 30
0.0
 11
-22.0749999999999886
 21
-25.9499999999999531
 31
0.0
  0
LINE
  5
110
100
AcDbEntity
  8
edge cuts plate
 62
256
370
-1
 48
1.0
  6
BYLAYER
100
AcDbLine
 10
-39.8375000000000057
 20
-45.0000000000000213
 30
0.0
 11
-26.8375000000000057
 21
-45.0000000000000213
 31
0.0
  0
LINE
  5
111
100
AcDbEntity
  8
edge cuts plate
 62
256
370
-1
 48
1.0
  6
BYLAYER
100
AcDbLine
 10
-16.0249999999999986
 20
-64.0499999999999972
 30
0.0
 11
-3.0249999999999986
 21
-64.0499999999999972
 31
0.0
  0
LINE
  5
112
100
AcDbEntity
  8
edge cuts plate
 62
256
370
-1
 48
1.0
  6
BYLAYER
100
AcDbLine
 10
5.40625
 20
-64.0499999999999972
 30
0.0
 11
18.40625
 21
-64.0499999999999972
 31
0.0
  0
LINE
  5
113
100
AcDbEntity
  8
edge cuts plate
 62
256
370
-1
 48
1.0
  6
BYLAYER
100
AcDbLine
 10
-35.0750000000000028
 20
-64.0499999999998977
 30
0.0
 11
-22.0750000000000028
 21
-64.0499999999998977
 31
0.0
  0
LINE
  5
114
100
AcDbEntity
  8
edge cuts plate
 62
256
370
-1
 48
1.0
  6
BYLAYER
100
AcDbLine
 10
-60.4820198475619435
 20
-67.4101788364767884
 30
0.0
 11
-47.679519058403244
 21
-65.1527525268066938
 31
0.0
  0
LINE
  5
115
100
AcDbEntity
  8
edge cuts plate
 62
256
370
-1
 48
1.0
  6
BYLAYER
100
AcDbLine
 10
-59.0998707083963524
 20
-47.8225916954554435
 30
0.0
 11
-46.2973699192376529
 21
-45.565165385785356
 31
0.0
  0
LINE
  5
116
100
AcDbEntity
  8
edge cuts plate
 62
256
370
-1
 48
1.0
  6
BYLAYER
100
AcDbLine
 10
-54.3373707083963353
 20
-27.6389574934079434
 30
0.0
 11
-41.5348699192376358
 21
-25.3815311837378559
 31
0.0
  0
LINE
  5
117
100
AcDbEntity
  8
edge cuts plate
 62
256
370
-1
 48
1.0
  6
BYLAYER
100
AcDbLine
 10
-54.3373707083963211
 20
-8.2950805369844982
 30
0.0
 11
-41.5348699192376216
 21
-6.0376542273144098
 31
0.0
  0
LINE
  5
118
100
AcDbEntity
  8
edge cuts plate
 62
256
370
-1
 48
1.0
  6
BYLAYER
100
AcDbLine
 10
-73.0979584032788949
 20
-11.6030783215395292
 30
0.0
 11
-60.2954576141201954
 21
-9.3456520118694399
 31
0.0
  0
LINE
  5
119
100
AcDbEntity
  8
edge cuts plate
 62
256
370
-1
 48
1.0
  6
BYLAYER
100
AcDbLine
 10
-91.8585460981614546
 20
-14.9110761060945567
 30
0.0
 11
-79.0560453090027551
 21
-12.6536497964244674
 31
0.0
  0
LINE
  5
11A
100
AcDbEntity
  8
edge cuts plate
 62
256
370
-1
 48
1.0
  6
BYLAYER
100
AcDbLine
 10
-110.6191337930440426
 20
-18.2190738906495682
 30
0.0
 11
-97.8166330038853431
 21
-15.9616475809794807
 31
0.0
  0
LINE
  5
11B
100
AcDbEntity
  8
edge cuts plate
 62
256
370
-1
 48
1.0
  6
BYLAYER
100
AcDbLine
 10
-110.6191337930440142
 20
-37.56295084707304
 30
0.0
 11
-97.8166330038853147
 21
-35.3055245374029525
 31
0.0
  0
LINE
  5
11C
100
AcDbEntity
  8
edge cuts plate
 62
256
370
-1
 48
1.0
  6
BYLAYER
100
AcDbLine
 10
-115.3816337930440028
 20
-57.7465850491205543
 30
0.0
 11
-102.5791330038853033
 21
-55.4891587394504668
 31
0.0
  0
LINE
  5
11D
100
AcDbEntity
  8
edge cuts plate
 62
256
370
-1
 48
1.0
  6
BYLAYER
100
AcDbLine
 10
-96.6210460981614716
 20
-54.4385872645655269
 30
0.0
 11
-83.8185453090027721
 21
-52.1811609548954394
 31
0.0
  0
LINE
  5
11E
100
AcDbEntity
  8
edge cuts plate
 62
256
370
-1
 48
1.0
  6
BYLAYER
100
AcDbLine
 10
-77.860458403278912
 20
-51.130589480010471
 30
0.0
 11
-65.0579576141202125
 21
-48.8731631703403835
 31
0.0
  0
LINE
  5
11F
100
AcDbEntity
  8
edge cuts plate
 62
256
370
-1
 48
1.0
  6
BYLAYER
100
AcDbLine
 10
-105.0384159686774979
 20
-75.2666736506192677
 30
0.0
 11
-66.440106753285832
 21
-68.4607503113617497
 31
0.0
  0
LINE
  5
120
100
AcDbEntity
  8
edge cuts plate
 62
256
370
-1
 48
1.0
  6
BYLAYER
100
AcDbLine
 10
-91.8585460981614546
 20
-34.2549530625179983
 30
0.0
 11
-79.0560453090027551
 21
-31.9975267528479108
 31
0.0
  0
LINE
  5
121
100
AcDbEntity
  8
edge cuts plate
 62
256
370
-1
 48
1.0
  6
BYLAYER
100
AcDbLine
 10
-73.0979584032788949
 20
-30.9469552779629709
 30
0.0
 11
-60.2954576141201954
 21
-28.6895289682928833
 31
0.0
  0
LINE
  5
122
100
AcDbEntity
  8
edge cuts plate
 62
256
370
-1
 48
1.0
  6
BYLAYER
100
AcDbLine
 10
-20.787499999999973
 20
-45.0000000000000213
 30
0.0
 11
-13.3567500000000159
 21
-45.0000000000000284
 31
0.0
  0
LINE
  5
123
100
AcDbEntity
  8
edge cuts plate
 62
256
370
-1
 48
1.0
  6
BYLAYER
100
AcDbLine
 10
18.1192500000000081
 20
-45.0000000000000284
 30
0.0
 11
18.40625
 21
-45.0000000000000284
 31
0.0
  0
LINE
  5
124
100
AcDbEntity
  8
edge cuts plate
 62
256
370
-1
 48
1.0
  6
BYLAYER
100
AcDbLine
 10
-15.3380000000000152
 20
-8.4999999999999432
 30
0.0
 11
-15.3380000000000152
 21
6.5000000000000568
 31
0.0
  0
LINE
  5
125
100
AcDbEntity
  8
edge cuts plate
 62
256
370
-1
 48
1.0
  6
BYLAYER
100
AcDbLine
 10
-12.9567500000000138
 20
-27.5499999999999545
 30
0.0
 11
-12.9567500000000138
 21
-12.5499999999999545
 31
0.0
  0
LINE
  5
126
100
AcDbEntity
  8
edge cuts plate
 62
256
370
-1
 48
1.0
  6
BYLAYER
100
AcDbLine
 10
-12.9567500000000138
 20
-46.6000000000000227
 30
0.0
 11
-12.9567500000000138
 21
-45.4000000000000199
 31
0.0
  0
LINE
  5
127
100
AcDbEntity
  8
edge cuts plate
 62
256
370
-1
 48
1.0
  6
BYLAYER
100
AcDbLine
 10
-76.8260721806462215
 20
-54.6545064287260658
 30
0.0
 11
-76.6176943699863955
 21
-55.8362757179328497
 31
0.0
  0
LINE
  5
128
100
AcDbEntity
  8
edge cuts plate
 62
256
370
-1
 48
1.0
  6
BYLAYER
100
AcDbLine
 10
-14.9380000000000166
 20
6.9000000000000554
 30
0.0
 11
14.9380000000000166
 21
6.9000000000000554
 31
0.0
  0
LINE
  5
129
100
AcDbEntity
  8
edge cuts plate
 62
256
370
-1
 48
1.0
  6
BYLAYER
100
AcDbLine
 10
-12.5567500000000152
 20
-12.1499999999999559
 30
0.0
 11
17.319250000000018
 21
-12.1499999999999559
 31
0.0
  0
LINE
  5
12A
100
AcDbEntity
  8
edge cuts plate
 62
256
370
-1
 48
1.0
  6
BYLAYER
100
AcDbLine
 10
15.3380000000000152
 20
6.5000000000000568
 30
0.0
 11
15.3380000000000152
 21
-8.4999999999999432
 31
0.0
  0
LINE
  5
12B
100
AcDbEntity
  8
edge cuts plate
 62
256
370
-1
 48
1.0
  6
BYLAYER
100
AcDbLine
 10
17.7192500000000095
 20
-12.5499999999999545
 30
0.0
 11
17.7192500000000095
 21
-27.5499999999999545
 31
0.0
  0
LINE
  5
12C
100
AcDbEntity
  8
edge cuts plate
 62
256
370
-1
 48
1.0
  6
BYLAYER
100
AcDbLine
 10
17.7192500000000095
 20
-45.400000000000027
 30
0.0
 11
17.7192500000000095
 21
-46.6000000000000227
 31
0.0
  0
LINE
  5
12D
100
AcDbEntity
  8
edge cuts plate
 62
256
370
-1
 48
1.0
  6
BYLAYER
100
AcDbLine
 10
-106.8276569988484397
 20
-61.1631072304514305
 30
0.0
 11
-107.0360348120487544
 21
-59.9813379268368294
 31
0.0
  0
LINE
  5
12E
100
AcDbEntity
  8
edge cuts plate
 62
256
370
-1
 48
1.0
  6
BYLAYER
100
AcDbLine
 10
14.9380000000000166
 20
-8.8999999999999417
 30
0.0
 11
8.9380000000000166
 21
-8.8999999999999417
 31
0.0
  0
LINE
  5
12F
100
AcDbEntity
  8
edge cuts plate
 62
256
370
-1
 48
1.0
  6
BYLAYER
100
AcDbLine
 10
17.319250000000018
 20
-27.9499999999999531
 30
0.0
 11
11.319250000000018
 21
-27.9499999999999531
 31
0.0
  0
LINE
  5
130
100
AcDbEntity
  8
edge cuts plate
 62
256
370
-1
 48
1.0
  6
BYLAYER
100
AcDbLine
 10
17.319250000000018
 20
-47.0000000000000213
 30
0.0
 11
11.319250000000018
 21
-47.0000000000000213
 31
0.0
  0
LINE
  5
131
100
AcDbEntity
  8
edge cuts plate
 62
256
370
-1
 48
1.0
  6
BYLAYER
100
AcDbLine
 10
-106.7115709819106399
 20
-59.5179555545651766
 30
0.0
 11
-100.8027244638373929
 21
-58.4760664885636032
 31
0.0
  0
LINE
  5
132
100
AcDbEntity
  8
edge cuts plate
 62
256
370
-1
 48
1.0
  6
BYLAYER
100
AcDbLine
 10
8.538000000000018
 20
-8.4999999999999432
 30
0.0
 11
8.538000000000018
 21
-7.4999999999999432
 31
0.0
  0
LINE
  5
133
100
AcDbEntity
  8
edge cuts plate
 62
256
370
-1
 48
1.0
  6
BYLAYER
100
AcDbLine
 10
10.9192500000000194
 20
-27.5499999999999545
 30
0.0
 11
10.9192500000000194
 21
-26.5499999999999545
 31
0.0
  0
LINE
  5
134
100
AcDbEntity
  8
edge cuts plate
 62
256
370
-1
 48
1.0
  6
BYLAYER
100
AcDbLine
 10
10.9192500000000123
 20
-46.6000000000000227
 30
0.0
 11
10.9192500000000123
 21
-45.6000000000000227
 31
0.0
  0
LINE
  5
135
100
AcDbEntity
  8
edge cuts plate
 62
256
370
-1
 48
1.0
  6
BYLAYER
100
AcDbLine
 10
-100.3393420915657401
 20
-58.8005303187017034
 30
0.0
 11
-100.1656939138988065
 21
-59.7853380717139089
 31
0.0
  0
LINE
  5
136
100
AcDbEntity
  8
edge cuts plate
 62
256
370
-1
 48
1.0
  6
BYLAYER
100
AcDbLine
 10
7.9380000000000166
 20
-6.8999999999999417
 30
0.0
 11
-7.9380000000000166
 21
-6.8999999999999417
 31
0.0
  0
LINE
  5
137
100
AcDbEntity
  8
edge cuts plate
 62
256
370
-1
 48
1.0
  6
BYLAYER
100
AcDbLine
 10
10.319250000000018
 20
-25.9499999999999531
 30
0.0
 11
-5.5567500000000152
 21
-25.9499999999999531
 31
0.0
  0
LINE
  5
138
100
AcDbEntity
  8
edge cuts plate
 62
256
370
-1
 48
1.0
  6
BYLAYER
100
AcDbLine
 10
10.319250000000018
 20
-45.0000000000000213
 30
0.0
 11
-5.5567500000000152
 21
-45.0000000000000213
 31
0.0
  0
LINE
  5
139
100
AcDbEntity
  8
edge cuts plate
 62
256
370
-1
 48
1.0
  6
BYLAYER
100
AcDbLine
 10
-99.4706203554913202
 20
-60.2720338169210805
 30
0.0
 11
-83.8358124686694879
 21
-57.5151953482808977
 31
0.0
  0
LINE
  5
13A
100
AcDbEntity
  8
edge cuts plate
 62
256
370
-1
 48
1.0
  6
BYLAYER
100
AcDbLine
 10
-8.538000000000018
 20
-7.4999999999999432
 30
0.0
 11
-8.538000000000018
 21
-8.4999999999999432
 31
0.0
  0
LINE
  5
13B
100
AcDbEntity
  8
edge cuts plate
 62
256
370
-1
 48
1.0
  6
BYLAYER
100
AcDbLine
 10
-6.1567500000000166
 20
-26.5499999999999545
 30
0.0
 11
-6.1567500000000166
 21
-27.5499999999999545
 31
0.0
  0
LINE
  5
13C
100
AcDbEntity
  8
edge cuts plate
 62
256
370
-1
 48
1.0
  6
BYLAYER
100
AcDbLine
 10
-6.1567500000000166
 20
-45.6000000000000227
 30
0.0
 11
-6.1567500000000166
 21
-46.6000000000000227
 31
0.0
  0
LINE
  5
13D
100
AcDbEntity
  8
edge cuts plate
 62
256
370
-1
 48
1.0
  6
BYLAYER
100
AcDbLine
 10
-83.3491167234623163
 20
-56.8201217898733972
 30
0.0
 11
-83.5227649011292357
 21
-55.8353140368611918
 31
0.0
  0
LINE
  5
13E
100
AcDbEntity
  8
edge cuts plate
 62
256
370
-1
 48
1.0
  6
BYLAYER
100
AcDbLine
 10
-8.9380000000000166
 20
-8.8999999999999417
 30
0.0
 11
-14.9380000000000166
 21
-8.8999999999999417
 31
0.0
  0
LINE
  5
13F
100
AcDbEntity
  8
edge cuts plate
 62
256
370
-1
 48
1.0
  6
BYLAYER
100
AcDbLine
 10
-6.5567500000000152
 20
-27.9499999999999531
 30
0.0
 11
-12.5567500000000152
 21
-27.9499999999999531
 31
0.0
  0
LINE
  5
140
100
AcDbEntity
  8
edge cuts plate
 62
256
370
-1
 48
1.0
  6
BYLAYER
100
AcDbLine
 10
-6.5567500000000152
 20
-47.0000000000000213
 30
0.0
 11
-12.5567500000000152
 21
-47.0000000000000213
 31
0.0
  0
LINE
  5
141
100
AcDbEntity
  8
edge cuts plate
 62
256
370
-1
 48
1.0
  6
BYLAYER
100
AcDbLine
 10
-83.1983010709911355
 20
-55.3719316645895532
 30
0.0
 11
-77.2894545529178885
 21
-54.3300425985879656
 31
0.0
  0
ARC
  5
142
100
AcDbEntity
  8
edge cuts plate
 62
256
370
-1
 48
1.0
  6
BYLAYER
100
AcDbCircle
 10
-14.9380000000000166
 20
-8.4999999999999432
 30
0.0
 40
0.3999999999999986
100
AcDbArc
 50
180.0
 51
270.0
  0
ARC
  5
143
100
AcDbEntity
  8
edge cuts plate
 62
256
370
-1
 48
1.0
  6
BYLAYER
100
AcDbCircle
 10
-12.5567500000000152
 20
-27.5499999999999545
 30
0.0
 40
0.3999999999999986
100
AcDbArc
 50
180.0
 51
270.0
  0
ARC
  5
144
100
AcDbEntity
  8
edge cuts plate
 62
256
370
-1
 48
1.0
  6
BYLAYER
100
AcDbCircle
 10
-12.5567500000000152
 20
-46.6000000000000227
 30
0.0
 40
0.3999999999999986
100
AcDbArc
 50
180.0
 51
270.0
  0
ARC
  5
145
100
AcDbEntity
  8
edge cuts plate
 62
256
370
-1
 48
1.0
  6
BYLAYER
100
AcDbCircle
 10
-77.2199952818511122
 20
-54.7239656997928421
 30
0.0
 40
0.3999999999999986
100
AcDbArc
 50
10.0
 51
100.0
  0
ARC
  5
146
100
AcDbEntity
  8
edge cuts plate
 62
256
370
-1
 48
1.0
  6
BYLAYER
100
AcDbCircle
 10
-8.9380000000000166
 20
-8.4999999999999432
 30
0.0
 40
0.3999999999999986
100
AcDbArc
 50
270.0
 51
0.0
  0
ARC
  5
147
100
AcDbEntity
  8
edge cuts plate
 62
256
370
-1
 48
1.0
  6
BYLAYER
100
AcDbCircle
 10
-6.5567500000000152
 20
-27.5499999999999545
 30
0.0
 40
0.3999999999999986
100
AcDbArc
 50
270.0
 51
0.0
  0
ARC
  5
148
100
AcDbEntity
  8
edge cuts plate
 62
256
370
-1
 48
1.0
  6
BYLAYER
100
AcDbCircle
 10
-6.5567500000000152
 20
-46.6000000000000227
 30
0.0
 40
0.3999999999999986
100
AcDbArc
 50
270.0
 51
0.0
  0
ARC
  5
149
100
AcDbEntity
  8
edge cuts plate
 62
256
370
-1
 48
1.0
  6
BYLAYER
100
AcDbCircle
 10
-83.1288417999243592
 20
-55.7658547657944297
 30
0.0
 40
0.3999999999999986
100
AcDbArc
 50
100.0
 51
190.0
  0
ARC
  5
14A
100
AcDbEntity
  8
edge cuts plate
 62
256
370
-1
 48
1.0
  6
BYLAYER
100
AcDbCircle
 10
-7.9380000000000166
 20
-7.4999999999999503
 30
0.0
 40
0.6000000000000014
100
AcDbArc
 50
89.9999999999996732
 51
180.0
  0
ARC
  5
14B
100
AcDbEntity
  8
edge cuts plate
 62
256
370
-1
 48
1.0
  6
BYLAYER
100
AcDbCircle
 10
-5.5567500000000152
 20
-26.5499999999999616
 30
0.0
 40
0.6000000000000014
100
AcDbArc
 50
89.9999999999996732
 51
180.0
  0
ARC
  5
14C
100
AcDbEntity
  8
edge cuts plate
 62
256
370
-1
 48
1.0
  6
BYLAYER
100
AcDbCircle
 10
-5.5567500000000152
 20
-45.6000000000000298
 30
0.0
 40
0.6000000000000014
100
AcDbArc
 50
89.9999999999996732
 51
180.0
  0
ARC
  5
14D
100
AcDbEntity
  8
edge cuts plate
 62
256
370
-1
 48
1.0
  6
BYLAYER
100
AcDbCircle
 10
-83.9400013752696452
 20
-56.9243106964735546
 30
0.0
 40
0.6000000000000014
100
AcDbArc
 50
280.0000000000002842
 51
10.0
  0
ARC
  5
14E
100
AcDbEntity
  8
edge cuts plate
 62
256
370
-1
 48
1.0
  6
BYLAYER
100
AcDbCircle
 10
7.9380000000000166
 20
-7.4999999999999432
 30
0.0
 40
0.599999999999997
100
AcDbArc
 50
0.0
 51
90.0000000000001847
  0
ARC
  5
14F
100
AcDbEntity
  8
edge cuts plate
 62
256
370
-1
 48
1.0
  6
BYLAYER
100
AcDbCircle
 10
10.319250000000018
 20
-26.5499999999999545
 30
0.0
 40
0.599999999999997
100
AcDbArc
 50
0.0
 51
90.0000000000001847
  0
ARC
  5
150
100
AcDbEntity
  8
edge cuts plate
 62
256
370
-1
 48
1.0
  6
BYLAYER
100
AcDbCircle
 10
10.319250000000018
 20
-45.6000000000000227
 30
0.0
 40
0.599999999999997
100
AcDbArc
 50
0.0
 51
90.0000000000001847
  0
ARC
  5
151
100
AcDbEntity
  8
edge cuts plate
 62
256
370
-1
 48
1.0
  6
BYLAYER
100
AcDbCircle
 10
-99.5748092620914775
 20
-59.6811491651137516
 30
0.0
 40
0.599999999999997
100
AcDbArc
 50
190.0
 51
279.9999999999998295
  0
ARC
  5
152
100
AcDbEntity
  8
edge cuts plate
 62
256
370
-1
 48
1.0
  6
BYLAYER
100
AcDbCircle
 10
8.9380000000000166
 20
-8.4999999999999432
 30
0.0
 40
0.3999999999999995
100
AcDbArc
 50
180.0
 51
270.0000000000001137
  0
ARC
  5
153
100
AcDbEntity
  8
edge cuts plate
 62
256
370
-1
 48
1.0
  6
BYLAYER
100
AcDbCircle
 10
11.319250000000018
 20
-27.5499999999999545
 30
0.0
 40
0.3999999999999995
100
AcDbArc
 50
180.0
 51
270.0000000000001137
  0
ARC
  5
154
100
AcDbEntity
  8
edge cuts plate
 62
256
370
-1
 48
1.0
  6
BYLAYER
100
AcDbCircle
 10
11.319250000000018
 20
-46.6000000000000227
 30
0.0
 40
0.3999999999999995
100
AcDbArc
 50
180.0
 51
270.0000000000001137
  0
ARC
  5
155
100
AcDbEntity
  8
edge cuts plate
 62
256
370
-1
 48
1.0
  6
BYLAYER
100
AcDbCircle
 10
-100.7332651927706166
 20
-58.8699895897684655
 30
0.0
 40
0.3999999999999995
100
AcDbArc
 50
10.0
 51
100.0000000000001279
  0
ARC
  5
156
100
AcDbEntity
  8
edge cuts plate
 62
256
370
-1
 48
1.0
  6
BYLAYER
100
AcDbCircle
 10
14.9380000000000166
 20
-8.4999999999999361
 30
0.0
 40
0.4000000000000057
100
AcDbArc
 50
270.0000000000005116
 51
0.0
  0
ARC
  5
157
100
AcDbEntity
  8
edge cuts plate
 62
256
370
-1
 48
1.0
  6
BYLAYER
100
AcDbCircle
 10
17.319250000000018
 20
-27.5499999999999474
 30
0.0
 40
0.4000000000000057
100
AcDbArc
 50
270.0000000000005116
 51
0.0
  0
ARC
  5
158
100
AcDbEntity
  8
edge cuts plate
 62
256
370
-1
 48
1.0
  6
BYLAYER
100
AcDbCircle
 10
17.319250000000018
 20
-46.6000000000000156
 30
0.0
 40
0.4000000000000057
100
AcDbArc
 50
270.0000000000005116
 51
0.0
  0
ARC
  5
159
100
AcDbEntity
  8
edge cuts plate
 62
256
370
-1
 48
1.0
  6
BYLAYER
100
AcDbCircle
 10
-106.6421117108438779
 20
-59.9118786557700531
 30
0.0
 40
0.4000000000000057
100
AcDbArc
 50
100.0000000000005258
 51
190.0
  0
ARC
  5
15A
100
AcDbEntity
  8
edge cuts plate
 62
256
370
-1
 48
1.0
  6
BYLAYER
100
AcDbCircle
 10
14.9380000000000166
 20
6.5000000000000533
 30
0.0
 40
0.3999999999999986
100
AcDbArc
 50
0.0
 51
90.0000000000002558
  0
ARC
  5
15B
100
AcDbEntity
  8
edge cuts plate
 62
256
370
-1
 48
1.0
  6
BYLAYER
100
AcDbCircle
 10
17.319250000000018
 20
-12.5499999999999581
 30
0.0
 40
0.3999999999999986
100
AcDbArc
 50
0.0
 51
90.0000000000002558
  0
ARC
  5
15C
100
AcDbEntity
  8
edge cuts plate
 62
256
370
-1
 48
1.0
  6
BYLAYER
100
AcDbCircle
 10
-14.9380000000000202
 20
6.5000000000000533
 30
0.0
 40
0.3999999999999986
100
AcDbArc
 50
89.9999999999994884
 51
180.0
  0
ARC
  5
15D
100
AcDbEntity
  8
edge cuts plate
 62
256
370
-1
 48
1.0
  6
BYLAYER
100
AcDbCircle
 10
-12.5567500000000223
 20
-12.5499999999999581
 30
0.0
 40
0.3999999999999986
100
AcDbArc
 50
89.9999999999994884
 51
180.0
  0
LINE
  5
15E
100
AcDbEntity
  8
edge cuts plate
 62
256
370
-1
 48
1.0
  6
BYLAYER
100
AcDbLine
 10
-123.7360655505715528
 20
-45.2068095324369281
 30
0.0
 11
-136.5385663397302665
 21
-47.4642358421070512
 31
0.0
  0
LINE
  5
15F
100
AcDbEntity
  8
edge cuts plate
 62
256
370
-1
 48
1.0
  6
BYLAYER
100
AcDbLine
 10
-136.863030169868324
 20
-47.9276182143786897
 30
0.0
 11
-131.2976060756432446
 21
-79.4907066984199844
 31
0.0
  0
LINE
  5
160
100
AcDbEntity
  8
edge cuts plate
 62
256
370
-1
 48
1.0
  6
BYLAYER
100
AcDbLine
 10
-130.8342237033715776
 20
-79.8151705285580988
 30
0.0
 11
-118.0317229142129207
 21
-77.55774421888799
 31
0.0
  0
LINE
  5
161
100
AcDbEntity
  8
edge cuts plate
 62
256
370
-1
 48
1.0
  6
BYLAYER
100
AcDbLine
 10
-117.7072590840747779
 20
-77.0943618466162661
 30
0.0
 11
-117.7223664755317998
 21
-77.0086835721042746
 31
0.0
  0
LINE
  5
162
100
AcDbEntity
  8
edge cuts plate
 62
256
370
-1
 48
1.0
  6
BYLAYER
100
AcDbLine
 10
-117.235670730324685
 20
-76.3136100136967741
 30
0.0
 11
-116.2508629773124511
 21
-76.1399618360298405
 31
0.0
  0
LINE
  5
163
100
AcDbEntity
  8
edge cuts plate
 62
256
370
-1
 48
1.0
  6
BYLAYER
100
AcDbLine
 10
-115.9263991471743509
 20
-75.6765794637582019
 30
0.0
 11
-116.9682882131759527
 21
-69.7677329456849691
 31
0.0
  0
LINE
  5
164
100
AcDbEntity
  8
edge cuts plate
 62
256
370
-1
 48
1.0
  6
BYLAYER
100
AcDbLine
 10
-117.4316705854476055
 20
-69.4432691155468547
 30
0.0
 11
-118.4164783384597825
 21
-69.6169172932137883
 31
0.0
  0
LINE
  5
165
100
AcDbEntity
  8
edge cuts plate
 62
256
370
-1
 48
1.0
  6
BYLAYER
100
AcDbLine
 10
-121.8683903655075085
 20
-53.4954136611847915
 30
0.0
 11
-119.1115518968672689
 21
-69.1302215480066025
 31
0.0
  0
LINE
  5
166
100
AcDbEntity
  8
edge cuts plate
 62
256
370
-1
 48
1.0
  6
BYLAYER
100
AcDbLine
 10
-121.38169462030028
 20
-52.8003401027773052
 30
0.0
 11
-120.396886867288103
 21
-52.6266919251103857
 31
0.0
  0
LINE
  5
167
100
AcDbEntity
  8
edge cuts plate
 62
256
370
-1
 48
1.0
  6
BYLAYER
100
AcDbLine
 10
-120.0724230371500028
 20
-52.1633095528387329
 30
0.0
 11
-121.1143121031515477
 21
-46.2544630347654859
 31
0.0
  0
LINE
  5
168
100
AcDbEntity
  8
edge cuts plate
 62
256
370
-1
 48
1.0
  6
BYLAYER
100
AcDbLine
 10
-121.5776944754232431
 20
-45.9299992046273857
 30
0.0
 11
-122.5625022284353918
 21
-46.1036473822942909
 31
0.0
  0
LINE
  5
169
100
AcDbEntity
  8
edge cuts plate
 62
256
370
-1
 48
1.0
  6
BYLAYER
100
AcDbLine
 10
-123.2726831782999142
 20
-45.5312733625749857
 30
0.0
 11
-123.2575757868428497
 21
-45.6169516370872046
 31
0.0
  0
ARC
  5
16A
100
AcDbEntity
  8
edge cuts plate
 62
256
370
-1
 48
1.0
  6
BYLAYER
100
AcDbCircle
 10
-123.6666062795047765
 20
-45.6007326336417762
 30
0.0
 40
0.3999999999999756
100
AcDbArc
 50
10.000000000004114
 51
100.0000000000032827
  0
ARC
  5
16B
100
AcDbEntity
  8
edge cuts plate
 62
256
370
-1
 48
1.0
  6
BYLAYER
100
AcDbCircle
 10
-122.6666911350355917
 20
-45.5127627304870046
 30
0.0
 40
0.5999999999999553
100
AcDbArc
 50
190.0000000000050306
 51
280.0000000000048317
  0
ARC
  5
16C
100
AcDbEntity
  8
edge cuts plate
 62
256
370
-1
 48
1.0
  6
BYLAYER
100
AcDbCircle
 10
-121.5082352043564384
 20
-46.3239223058322764
 30
0.0
 40
0.400000000000006
100
AcDbArc
 50
10.0000000000027605
 51
100.0000000000045759
  0
ARC
  5
16D
100
AcDbEntity
  8
edge cuts plate
 62
256
370
-1
 48
1.0
  6
BYLAYER
100
AcDbCircle
 10
-120.4663461383548793
 20
-52.2327688239055092
 30
0.0
 40
0.3999999999999813
100
AcDbArc
 50
280.0000000000009095
 51
10.0000000000020997
  0
ARC
  5
16E
100
AcDbEntity
  8
edge cuts plate
 62
256
370
-1
 48
1.0
  6
BYLAYER
100
AcDbCircle
 10
-121.2775057137001653
 20
-53.391224754584691
 30
0.0
 40
0.6000000000000373
100
AcDbArc
 50
99.9999999999949125
 51
189.9999999999944578
  0
ARC
  5
16F
100
AcDbEntity
  8
edge cuts plate
 62
256
370
-1
 48
1.0
  6
BYLAYER
100
AcDbCircle
 10
-118.5206672450599115
 20
-69.0260326414064309
 30
0.0
 40
0.600000000000027
100
AcDbArc
 50
189.9999999999977263
 51
279.9999999999967031
  0
ARC
  5
170
100
AcDbEntity
  8
edge cuts plate
 62
256
370
-1
 48
1.0
  6
BYLAYER
100
AcDbCircle
 10
-117.362211314380815
 20
-69.8371922167517596
 30
0.0
 40
0.3999999999999966
100
AcDbArc
 50
10.0000000000007443
 51
100.0000000000027427
  0
ARC
  5
171
100
AcDbEntity
  8
edge cuts plate
 62
256
370
-1
 48
1.0
  6
BYLAYER
100
AcDbCircle
 10
-116.3203222483792132
 20
-75.7460387348249924
 30
0.0
 40
0.3999999999999801
100
AcDbArc
 50
280.0000000000011369
 51
10.0000000000011138
  0
ARC
  5
172
100
AcDbEntity
  8
edge cuts plate
 62
256
370
-1
 48
1.0
  6
BYLAYER
100
AcDbCircle
 10
-117.131481823724485
 20
-76.9044946655041031
 30
0.0
 40
0.5999999999999924
100
AcDbArc
 50
100.0000000000029985
 51
190.0000000000014495
  0
ARC
  5
173
100
AcDbEntity
  8
edge cuts plate
 62
256
370
-1
 48
1.0
  6
BYLAYER
100
AcDbCircle
 10
-118.1011821852796828
 20
-77.1638211176830566
 30
0.0
 40
0.4000000000000361
100
AcDbArc
 50
280.0000000000013642
 51
9.9999999999996838
  0
ARC
  5
174
100
AcDbEntity
  8
edge cuts plate
 62
256
370
-1
 48
1.0
  6
BYLAYER
100
AcDbCircle
 10
-130.9036829744383681
 20
-79.4212474273532223
 30
0.0
 40
0.3999999999999777
100
AcDbArc
 50
189.9999999999990337
 51
279.9999999999991473
  0
ARC
  5
175
100
AcDbEntity
  8
edge cuts plate
 62
256
370
-1
 48
1.0
  6
BYLAYER
100
AcDbCircle
 10
-136.4691070686634475
 20
-47.858158943311885
 30
0.0
 40
0.399999999999971
100
AcDbArc
 50
100.000000000007816
 51
190.0000000000054285
  0
ARC
  5
176
100
AcDbEntity
  8
edge cuts plate
 62
256
370
-1
 48
1.0
  6
BYLAYER
100
AcDbCircle
 10
-107.221580100053302
 20
-61.2325665015181997
 30
0.0
 40
0.4
100
AcDbArc
 50
280.0000000000003979
 51
10.000000000000087
  0
ARC
  5
177
100
AcDbEntity
  8
edge cuts plate
 62
256
370
-1
 48
1.0
  6
BYLAYER
100
AcDbCircle
 10
-76.223771268781519
 20
-55.7668164468660805
 30
0.0
 40
0.4
100
AcDbArc
 50
189.999999999999801
 51
280.0000000000006253
  0
ARC
  5
178
100
AcDbEntity
  8
edge cuts plate
 62
256
370
-1
 48
1.0
  6
BYLAYER
100
AcDbCircle
 10
-13.3567500000000141
 20
-45.4000000000000199
 30
0.0
 40
0.4
100
AcDbArc
 50
0.0
 51
90.0000000000002558
  0
LINE
  5
179
100
AcDbEntity
  8
edge cuts plate
 62
256
370
-1
 48
1.0
  6
BYLAYER
100
AcDbLine
 10
-20.7875000000000085
 20
-31.2000000000000206
 30
0.0
 11
18.4062500000000071
 21
-31.2000000000000242
 31
0.0
  0
ARC
  5
17A
100
AcDbEntity
  8
edge cuts plate
 62
256
370
-1
 48
1.0
  6
BYLAYER
100
AcDbCircle
 10
18.1192500000000081
 20
-45.400000000000027
 30
0.0
 40
0.4
100
AcDbArc
 50
90.0
 51
180.0
  0
ENDSEC
  0
SECTION
  2
OBJECTS
  0
DICTIONARY
  5
C
100
AcDbDictionary
280
0
281
1
  3
ACAD_GROUP
350
D
  3
ACAD_LAYOUT
350
1A
  3
ACAD_MLINESTYLE
350
17
  3
ACAD_PLOTSETTINGS
350
19
  3
ACAD_PLOTSTYLENAME
350
E
  3
AcDbVariableDictionary
350
17B
  3
QCAD_OBJECTS
350
17C
  0
DICTIONARY
  5
D
100
AcDbDictionary
280
0
281
1
  0
ACDBDICTIONARYWDFLT
  5
E
100
AcDbDictionary
281
1
  3
Normal
350
F
100
AcDbDictionaryWithDefault
340
F
  0
ACDBPLACEHOLDER
  5
F
  0
DICTIONARY
  5
17
100
AcDbDictionary
280
0
281
1
  3
Standard
350
18
  0
MLINESTYLE
  5
18
100
AcDbMlineStyle
  2
STANDARD
 70
0
  3

 62
256
 51
90.0
 52
90.0
 71
2
 49
0.5
 62
256
  6
BYLAYER
 49
-0.5
 62
256
  6
BYLAYER
  0
DICTIONARY
  5
19
100
AcDbDictionary
280
0
281
1
  0
DICTIONARY
  5
1A
100
AcDbDictionary
281
1
  3
Layout1
350
1E
  3
Layout2
350
26
  3
Model
350
22
  0
LAYOUT
  5
1E
100
AcDbPlotSettings
  1

  2
none_device
  4

  6

 40
0.0
 41
0.0
 42
0.0
 43
0.0
 44
0.0
 45
0.0
 46
0.0
 47
0.0
 48
0.0
 49
0.0
140
0.0
141
0.0
142
1.0
143
1.0
 70
688
 72
0
 73
0
 74
5
  7

 75
16
147
1.0
148
0.0
149
0.0
100
AcDbLayout
  1
Layout1
 70
1
 71
1
 10
0.0
 20
0.0
 11
420.0
 21
297.0
 12
0.0
 22
0.0
 32
0.0
 14
100000000000000000000.0
 24
100000000000000000000.0
 34
100000000000000000000.0
 15
-100000000000000000000.0
 25
-100000000000000000000.0
 35
-100000000000000000000.0
146
0.0
 13
0.0
 23
0.0
 33
0.0
 16
1.0
 26
0.0
 36
0.0
 17
0.0
 27
1.0
 37
0.0
 76
0
330
1B
  0
LAYOUT
  5
22
100
AcDbPlotSettings
  1

  2
none_device
  4

  6

 40
0.0
 41
0.0
 42
0.0
 43
0.0
 44
0.0
 45
0.0
 46
0.0
 47
0.0
 48
0.0
 49
0.0
140
0.0
141
0.0
142
1.0
143
1.0
 70
1712
 72
0
 73
0
 74
0
  7

 75
0
147
1.0
148
0.0
149
0.0
100
AcDbLayout
  1
Model
 70
1
 71
0
 10
0.0
 20
0.0
 11
12.0
 21
9.0
 12
0.0
 22
0.0
 32
0.0
 14
0.0
 24
0.0
 34
0.0
 15
0.0
 25
0.0
 35
0.0
146
0.0
 13
0.0
 23
0.0
 33
0.0
 16
1.0
 26
0.0
 36
0.0
 17
0.0
 27
1.0
 37
0.0
 76
0
330
1F
  0
LAYOUT
  5
26
100
AcDbPlotSettings
  1

  2
none_device
  4

  6

 40
0.0
 41
0.0
 42
0.0
 43
0.0
 44
0.0
 45
0.0
 46
0.0
 47
0.0
 48
0.0
 49
0.0
140
0.0
141
0.0
142
1.0
143
1.0
 70
688
 72
0
 73
0
 74
5
  7

 75
16
147
1.0
148
0.0
149
0.0
100
AcDbLayout
  1
Layout2
 70
1
 71
2
 10
0.0
 20
0.0
 11
12.0
 21
9.0
 12
0.0
 22
0.0
 32
0.0
 14
0.0
 24
0.0
 34
0.0
 15
0.0
 25
0.0
 35
0.0
146
0.0
 13
0.0
 23
0.0
 33
0.0
 16
1.0
 26
0.0
 36
0.0
 17
0.0
 27
1.0
 37
0.0
 76
0
330
23
  0
DICTIONARY
  5
17B
100
AcDbDictionary
281
1
  3
DIMASSOC
350
17E
  3
HIDETEXT
350
17D
  0
DICTIONARYVAR
  5
17D
100
DictionaryVariables
280
0
  1
2
  0
DICTIONARYVAR
  5
17E
100
DictionaryVariables
280
0
  1
1
  0
DICTIONARY
  5
17C
100
AcDbDictionary
281
1
  3
ColorSettings/BackgroundColor
350
17F
  3
ColorSettings/ColorMode
350
180
  3
Grid/DisplayGrid00
350
181
  3
Grid/DisplayGrid01
350
182
  3
Grid/DisplayGrid02
350
183
  3
Grid/DisplayGrid03
350
184
  3
Grid/GridSpacingX00
350
185
  3
Grid/GridSpacingX01
350
186
  3
Grid/GridSpacingX02
350
187
  3
Grid/GridSpacingX03
350
188
  3
Grid/GridSpacingY00
350
189
  3
Grid/GridSpacingY01
350
18A
  3
Grid/GridSpacingY02
350
18B
  3
Grid/GridSpacingY03
350
18C
  3
Grid/IsometricGrid00
350
18D
  3
Grid/IsometricGrid01
350
18E
  3
Grid/IsometricGrid02
350
18F
  3
Grid/IsometricGrid03
350
190
  3
Grid/IsometricProjection00
350
191
  3
Grid/IsometricProjection01
350
192
  3
Grid/IsometricProjection02
350
193
  3
Grid/IsometricProjection03
350
194
  3
Grid/MetaGridSpacingX00
350
195
  3
Grid/MetaGridSpacingX01
350
196
  3
Grid/MetaGridSpacingX02
350
197
  3
Grid/MetaGridSpacingX03
350
198
  3
Grid/MetaGridSpacingY00
350
199
  3
Grid/MetaGridSpacingY01
350
19A
  3
Grid/MetaGridSpacingY02
350
19B
  3
Grid/MetaGridSpacingY03
350
19C
  3
MultiPageSettings/Columns
350
19D
  3
MultiPageSettings/GlueMarginsBottom
350
19E
  3
MultiPageSettings/GlueMarginsLeft
350
19F
  3
MultiPageSettings/GlueMarginsRight
350
1A0
  3
MultiPageSettings/GlueMarginsTop
350
1A1
  3
MultiPageSettings/PrintCropMarks
350
1A2
  3
MultiPageSettings/Rows
350
1A3
  3
PageSettings/OffsetX
350
1A4
  3
PageSettings/OffsetY
350
1A5
  3
PageSettings/PageOrientation
350
1A6
  3
PageSettings/PaperHeight
350
1A7
  3
PageSettings/PaperWidth
350
1A8
  3
PageSettings/Scale
350
1A9
  3
PageSettings/ShowPaperBorders
350
1AA
  3
PageTagSettings/EnablePageTags
350
1AB
  3
PageTagSettings/TagAlignment
350
1AC
  3
PageTagSettings/TagFont
350
1AD
  3
PageTagSettings/TagPosition
350
1AE
  3
QCADVersion
350
1AF
  3
UnitSettings/PaperUnit
350
1B0
  3
ViewportCenter
350
1B1
  3
ViewportHeight
350
1B2
  3
ViewportWidth
350
1B3
  0
XRECORD
  5
17F
330
17C
100
AcDbXrecord
280
1
1000
Wit
  0
XRECORD
  5
180
330
17C
100
AcDbXrecord
280
1
1000
FullColor
  0
XRECORD
  5
181
330
17C
100
AcDbXrecord
280
1
290
1
  0
XRECORD
  5
182
330
17C
100
AcDbXrecord
280
1
290
1
  0
XRECORD
  5
183
330
17C
100
AcDbXrecord
280
1
290
1
  0
XRECORD
  5
184
330
17C
100
AcDbXrecord
280
1
290
1
  0
XRECORD
  5
185
330
17C
100
AcDbXrecord
280
1
1000
auto
  0
XRECORD
  5
186
330
17C
100
AcDbXrecord
280
1
1000
auto
  0
XRECORD
  5
187
330
17C
100
AcDbXrecord
280
1
1000
auto
  0
XRECORD
  5
188
330
17C
100
AcDbXrecord
280
1
1000
auto
  0
XRECORD
  5
189
330
17C
100
AcDbXrecord
280
1
1000
auto
  0
XRECORD
  5
18A
330
17C
100
AcDbXrecord
280
1
1000
auto
  0
XRECORD
  5
18B
330
17C
100
AcDbXrecord
280
1
1000
auto
  0
XRECORD
  5
18C
330
17C
100
AcDbXrecord
280
1
1000
auto
  0
XRECORD
  5
18D
330
17C
100
AcDbXrecord
280
1
290
0
  0
XRECORD
  5
18E
330
17C
100
AcDbXrecord
280
1
290
0
  0
XRECORD
  5
18F
330
17C
100
AcDbXrecord
280
1
290
0
  0
XRECORD
  5
190
330
17C
100
AcDbXrecord
280
1
290
0
  0
XRECORD
  5
191
330
17C
100
AcDbXrecord
280
1
 90
65537
  0
XRECORD
  5
192
330
17C
100
AcDbXrecord
280
1
 90
65537
  0
XRECORD
  5
193
330
17C
100
AcDbXrecord
280
1
 90
65537
  0
XRECORD
  5
194
330
17C
100
AcDbXrecord
280
1
 90
65537
  0
XRECORD
  5
195
330
17C
100
AcDbXrecord
280
1
1000
auto
  0
XRECORD
  5
196
330
17C
100
AcDbXrecord
280
1
1000
auto
  0
XRECORD
  5
197
330
17C
100
AcDbXrecord
280
1
1000
auto
  0
XRECORD
  5
198
330
17C
100
AcDbXrecord
280
1
1000
auto
  0
XRECORD
  5
199
330
17C
100
AcDbXrecord
280
1
1000
auto
  0
XRECORD
  5
19A
330
17C
100
AcDbXrecord
280
1
1000
auto
  0
XRECORD
  5
19B
330
17C
100
AcDbXrecord
280
1
1000
auto
  0
XRECORD
  5
19C
330
17C
100
AcDbXrecord
280
1
1000
auto
  0
XRECORD
  5
19D
330
17C
100
AcDbXrecord
280
1
 90
1
  0
XRECORD
  5
19E
330
17C
100
AcDbXrecord
280
1
 40
10.0
  0
XRECORD
  5
19F
330
17C
100
AcDbXrecord
280
1
 40
10.0
  0
XRECORD
  5
1A0
330
17C
100
AcDbXrecord
280
1
 40
10.0
  0
XRECORD
  5
1A1
330
17C
100
AcDbXrecord
280
1
 40
10.0
  0
XRECORD
  5
1A2
330
17C
100
AcDbXrecord
280
1
290
0
  0
XRECORD
  5
1A3
330
17C
100
AcDbXrecord
280
1
 90
1
  0
XRECORD
  5
1A4
330
17C
100
AcDbXrecord
280
1
 40
0.0
  0
XRECORD
  5
1A5
330
17C
100
AcDbXrecord
280
1
 40
0.0
  0
XRECORD
  5
1A6
330
17C
100
AcDbXrecord
280
1
1000
Portrait
  0
XRECORD
  5
1A7
330
17C
100
AcDbXrecord
280
1
 40
297.0
  0
XRECORD
  5
1A8
330
17C
100
AcDbXrecord
280
1
 40
210.0
  0
XRECORD
  5
1A9
330
17C
100
AcDbXrecord
280
1
1000
1:1
  0
XRECORD
  5
1AA
330
17C
100
AcDbXrecord
280
1
290
1
  0
XRECORD
  5
1AB
330
17C
100
AcDbXrecord
280
1
290
0
  0
XRECORD
  5
1AC
330
17C
100
AcDbXrecord
280
1
1000
Inside
  0
XRECORD
  5
1AD
330
17C
100
AcDbXrecord
280
1
1000
Arial,10,-1,5,50,0,0,0,0,0
  0
XRECORD
  5
1AE
330
17C
100
AcDbXrecord
280
1
1000
TopLeft
  0
XRECORD
  5
1AF
330
17C
100
AcDbXrecord
280
1
1000
3.28.1
  0
XRECORD
  5
1B0
330
17C
100
AcDbXrecord
280
1
 90
4
  0
XRECORD
  5
1B2
330
17C
100
AcDbXrecord
280
1
 40
116.1430788196342974
  0
XRECORD
  5
1B3
330
17C
100
AcDbXrecord
280
1
 40
227.5935079899904565
  0
ENDSEC
  0
EOF
