%TF.GenerationSoftware,KiCad,Pcbnew,(6.0.7)*%
%TF.CreationDate,2023-04-18T20:13:39+02:00*%
%TF.ProjectId,chocobanan,63686f63-6f62-4616-9e61-6e2e6b696361,rev?*%
%TF.SameCoordinates,Original*%
%TF.FileFunction,Legend,Bot*%
%TF.FilePolarity,Positive*%
%FSLAX46Y46*%
G04 Gerber Fmt 4.6, Leading zero omitted, Abs format (unit mm)*
G04 Created by KiCad (PCBNEW (6.0.7)) date 2023-04-18 20:13:39*
%MOMM*%
%LPD*%
G01*
G04 APERTURE LIST*
%ADD10C,0.150000*%
%ADD11C,0.381000*%
%ADD12C,0.120000*%
G04 APERTURE END LIST*
D10*
X-5495044Y-62478544D02*
X-5452187Y-62516639D01*
X-5333139Y-62554734D01*
X-5256949Y-62554734D01*
X-5147425Y-62516639D01*
X-5080758Y-62440449D01*
X-5052187Y-62364258D01*
X-5033139Y-62211877D01*
X-5047425Y-62097591D01*
X-5104568Y-61945210D01*
X-5152187Y-61869020D01*
X-5237901Y-61792830D01*
X-5356949Y-61754734D01*
X-5433139Y-61754734D01*
X-5542663Y-61792830D01*
X-5575996Y-61830925D01*
X-5828377Y-62554734D02*
X-5928377Y-61754734D01*
X-6171234Y-62554734D02*
X-6223615Y-62135687D01*
X-6195044Y-62059496D01*
X-6123615Y-62021401D01*
X-6009329Y-62021401D01*
X-5928377Y-62059496D01*
X-5885520Y-62097591D01*
X-6666472Y-62554734D02*
X-6595044Y-62516639D01*
X-6561710Y-62478544D01*
X-6533139Y-62402353D01*
X-6561710Y-62173782D01*
X-6609329Y-62097591D01*
X-6652187Y-62059496D01*
X-6733139Y-62021401D01*
X-6847425Y-62021401D01*
X-6918853Y-62059496D01*
X-6952187Y-62097591D01*
X-6980758Y-62173782D01*
X-6952187Y-62402353D01*
X-6904568Y-62478544D01*
X-6861710Y-62516639D01*
X-6780758Y-62554734D01*
X-6666472Y-62554734D01*
X-7623615Y-62516639D02*
X-7542663Y-62554734D01*
X-7390282Y-62554734D01*
X-7318853Y-62516639D01*
X-7285520Y-62478544D01*
X-7256949Y-62402353D01*
X-7285520Y-62173782D01*
X-7333139Y-62097591D01*
X-7375996Y-62059496D01*
X-7456949Y-62021401D01*
X-7609330Y-62021401D01*
X-7680758Y-62059496D01*
X-8075996Y-62554734D02*
X-8004568Y-62516639D01*
X-7971234Y-62478544D01*
X-7942663Y-62402353D01*
X-7971234Y-62173782D01*
X-8018853Y-62097591D01*
X-8061710Y-62059496D01*
X-8142663Y-62021401D01*
X-8256949Y-62021401D01*
X-8328377Y-62059496D01*
X-8361710Y-62097591D01*
X-8390282Y-62173782D01*
X-8361710Y-62402353D01*
X-8314091Y-62478544D01*
X-8271234Y-62516639D01*
X-8190282Y-62554734D01*
X-8075996Y-62554734D01*
X-8685520Y-62554734D02*
X-8785520Y-61754734D01*
X-8747425Y-62059496D02*
X-8828377Y-62021401D01*
X-8980758Y-62021401D01*
X-9052187Y-62059496D01*
X-9085520Y-62097591D01*
X-9114091Y-62173782D01*
X-9085520Y-62402353D01*
X-9037901Y-62478544D01*
X-8995044Y-62516639D01*
X-8914091Y-62554734D01*
X-8761710Y-62554734D01*
X-8690282Y-62516639D01*
X-9752187Y-62554734D02*
X-9804568Y-62135687D01*
X-9775996Y-62059496D01*
X-9704568Y-62021401D01*
X-9552187Y-62021401D01*
X-9471234Y-62059496D01*
X-9756949Y-62516639D02*
X-9675996Y-62554734D01*
X-9485520Y-62554734D01*
X-9414091Y-62516639D01*
X-9385520Y-62440449D01*
X-9395044Y-62364258D01*
X-9442663Y-62288068D01*
X-9523615Y-62249972D01*
X-9714091Y-62249972D01*
X-9795044Y-62211877D01*
X-10199806Y-62021401D02*
X-10133139Y-62554734D01*
X-10190282Y-62097591D02*
X-10233139Y-62059496D01*
X-10314091Y-62021401D01*
X-10428377Y-62021401D01*
X-10499806Y-62059496D01*
X-10528377Y-62135687D01*
X-10475996Y-62554734D01*
X-11199806Y-62554734D02*
X-11252187Y-62135687D01*
X-11223615Y-62059496D01*
X-11152187Y-62021401D01*
X-10999806Y-62021401D01*
X-10918853Y-62059496D01*
X-11204568Y-62516639D02*
X-11123615Y-62554734D01*
X-10933139Y-62554734D01*
X-10861710Y-62516639D01*
X-10833139Y-62440449D01*
X-10842663Y-62364258D01*
X-10890282Y-62288068D01*
X-10971234Y-62249972D01*
X-11161710Y-62249972D01*
X-11242663Y-62211877D01*
X-11647425Y-62021401D02*
X-11580758Y-62554734D01*
X-11637901Y-62097591D02*
X-11680758Y-62059496D01*
X-11761710Y-62021401D01*
X-11875996Y-62021401D01*
X-11947425Y-62059496D01*
X-11975996Y-62135687D01*
X-11923615Y-62554734D01*
X-12899806Y-61754734D02*
X-13066472Y-62554734D01*
X-13433139Y-61754734D01*
X-14018853Y-62554734D02*
X-13561710Y-62554734D01*
X-13790282Y-62554734D02*
X-13890282Y-61754734D01*
X-13799806Y-61869020D01*
X-13714091Y-61945210D01*
X-13633139Y-61983306D01*
X-14371234Y-62478544D02*
X-14404568Y-62516639D01*
X-14361710Y-62554734D01*
X-14328377Y-62516639D01*
X-14371234Y-62478544D01*
X-14361710Y-62554734D01*
X-14995044Y-61754734D02*
X-15071234Y-61754734D01*
X-15142663Y-61792830D01*
X-15175996Y-61830925D01*
X-15204568Y-61907115D01*
X-15223615Y-62059496D01*
X-15199806Y-62249972D01*
X-15142663Y-62402353D01*
X-15095044Y-62478544D01*
X-15052187Y-62516639D01*
X-14971234Y-62554734D01*
X-14895044Y-62554734D01*
X-14823615Y-62516639D01*
X-14790282Y-62478544D01*
X-14761710Y-62402353D01*
X-14742663Y-62249972D01*
X-14766472Y-62059496D01*
X-14823615Y-61907115D01*
X-14871234Y-61830925D01*
X-14914091Y-61792830D01*
X-14995044Y-61754734D01*
X-990282Y-64054734D02*
X-1090282Y-63254734D01*
X-1714091Y-64054734D02*
X-1814091Y-63254734D01*
X-1718853Y-64016639D02*
X-1637901Y-64054734D01*
X-1485520Y-64054734D01*
X-1414091Y-64016639D01*
X-1380758Y-63978544D01*
X-1352187Y-63902353D01*
X-1380758Y-63673782D01*
X-1428377Y-63597591D01*
X-1471234Y-63559496D01*
X-1552187Y-63521401D01*
X-1704568Y-63521401D01*
X-1775996Y-63559496D01*
X-2404568Y-64016639D02*
X-2323615Y-64054734D01*
X-2171234Y-64054734D01*
X-2099806Y-64016639D01*
X-2071234Y-63940449D01*
X-2109329Y-63635687D01*
X-2156949Y-63559496D01*
X-2237901Y-63521401D01*
X-2390282Y-63521401D01*
X-2461710Y-63559496D01*
X-2490282Y-63635687D01*
X-2480758Y-63711877D01*
X-2090282Y-63788068D01*
X-3123615Y-64054734D02*
X-3175996Y-63635687D01*
X-3147425Y-63559496D01*
X-3075996Y-63521401D01*
X-2923615Y-63521401D01*
X-2842663Y-63559496D01*
X-3128377Y-64016639D02*
X-3047425Y-64054734D01*
X-2856949Y-64054734D01*
X-2785520Y-64016639D01*
X-2756949Y-63940449D01*
X-2766472Y-63864258D01*
X-2814091Y-63788068D01*
X-2895044Y-63749972D01*
X-3085520Y-63749972D01*
X-3166472Y-63711877D01*
X-4114091Y-64054734D02*
X-4214091Y-63254734D01*
X-4175996Y-63559496D02*
X-4256949Y-63521401D01*
X-4409330Y-63521401D01*
X-4480758Y-63559496D01*
X-4514091Y-63597591D01*
X-4542663Y-63673782D01*
X-4514091Y-63902353D01*
X-4466472Y-63978544D01*
X-4423615Y-64016639D01*
X-4342663Y-64054734D01*
X-4190282Y-64054734D01*
X-4118853Y-64016639D01*
X-4828377Y-63521401D02*
X-4952187Y-64054734D01*
X-5209330Y-63521401D02*
X-4952187Y-64054734D01*
X-4852187Y-64245210D01*
X-4809330Y-64283306D01*
X-4728377Y-64321401D01*
X-6056949Y-64054734D02*
X-6156949Y-63254734D01*
X-6390282Y-63521401D02*
X-6695044Y-63521401D01*
X-6537901Y-63254734D02*
X-6452187Y-63940449D01*
X-6480758Y-64016639D01*
X-6552187Y-64054734D01*
X-6628377Y-64054734D01*
X-6861710Y-64016639D02*
X-6933139Y-64054734D01*
X-7085520Y-64054734D01*
X-7166472Y-64016639D01*
X-7214091Y-63940449D01*
X-7218853Y-63902353D01*
X-7190282Y-63826163D01*
X-7118853Y-63788068D01*
X-7004568Y-63788068D01*
X-6933139Y-63749972D01*
X-6904568Y-63673782D01*
X-6909329Y-63635687D01*
X-6956949Y-63559496D01*
X-7037901Y-63521401D01*
X-7152187Y-63521401D01*
X-7223615Y-63559496D01*
X-7542663Y-64054734D02*
X-7642663Y-63254734D01*
X-7837901Y-63826163D01*
X-8175996Y-63254734D01*
X-8075996Y-64054734D01*
X-8799806Y-64054734D02*
X-8852187Y-63635687D01*
X-8823615Y-63559496D01*
X-8752187Y-63521401D01*
X-8599806Y-63521401D01*
X-8518853Y-63559496D01*
X-8804568Y-64016639D02*
X-8723615Y-64054734D01*
X-8533139Y-64054734D01*
X-8461710Y-64016639D01*
X-8433139Y-63940449D01*
X-8442663Y-63864258D01*
X-8490282Y-63788068D01*
X-8571234Y-63749972D01*
X-8761710Y-63749972D01*
X-8842663Y-63711877D01*
X-9180758Y-64054734D02*
X-9247425Y-63521401D01*
X-9228377Y-63673782D02*
X-9275996Y-63597591D01*
X-9318853Y-63559496D01*
X-9399806Y-63521401D01*
X-9475996Y-63521401D01*
X-9628377Y-63521401D02*
X-9933139Y-63521401D01*
X-9775996Y-63254734D02*
X-9690282Y-63940449D01*
X-9718853Y-64016639D01*
X-9790282Y-64054734D01*
X-9866472Y-64054734D01*
X-10385520Y-63254734D02*
X-10461710Y-63254734D01*
X-10533139Y-63292830D01*
X-10566472Y-63330925D01*
X-10595044Y-63407115D01*
X-10614091Y-63559496D01*
X-10590282Y-63749972D01*
X-10533139Y-63902353D01*
X-10485520Y-63978544D01*
X-10442663Y-64016639D01*
X-10361710Y-64054734D01*
X-10285520Y-64054734D01*
X-10214091Y-64016639D01*
X-10180758Y-63978544D01*
X-10152187Y-63902353D01*
X-10133139Y-63749972D01*
X-10156949Y-63559496D01*
X-10214091Y-63407115D01*
X-10261710Y-63330925D01*
X-10304568Y-63292830D01*
X-10385520Y-63254734D01*
X-11337901Y-63254734D02*
X-11185520Y-63254734D01*
X-11104568Y-63292830D01*
X-11061710Y-63330925D01*
X-10971234Y-63445210D01*
X-10914091Y-63597591D01*
X-10875996Y-63902353D01*
X-10904568Y-63978544D01*
X-10937901Y-64016639D01*
X-11009330Y-64054734D01*
X-11161710Y-64054734D01*
X-11242663Y-64016639D01*
X-11285520Y-63978544D01*
X-11333139Y-63902353D01*
X-11356949Y-63711877D01*
X-11328377Y-63635687D01*
X-11295044Y-63597591D01*
X-11223615Y-63559496D01*
X-11071234Y-63559496D01*
X-10990282Y-63597591D01*
X-10947425Y-63635687D01*
X-10899806Y-63711877D01*
X-11685520Y-63521401D02*
X-12256949Y-63521401D01*
X-11956949Y-63178544D02*
X-11599806Y-64207115D01*
X-12137901Y-63864258D02*
X-11566472Y-63864258D01*
X-11866472Y-64207115D02*
X-12223615Y-63178544D01*
X-12709330Y-63254734D02*
X-12785520Y-63254734D01*
X-12856949Y-63292830D01*
X-12890282Y-63330925D01*
X-12918853Y-63407115D01*
X-12937901Y-63559496D01*
X-12914091Y-63749972D01*
X-12856949Y-63902353D01*
X-12809330Y-63978544D01*
X-12766472Y-64016639D01*
X-12685520Y-64054734D01*
X-12609330Y-64054734D01*
X-12537901Y-64016639D01*
X-12504568Y-63978544D01*
X-12475996Y-63902353D01*
X-12456949Y-63749972D01*
X-12480758Y-63559496D01*
X-12537901Y-63407115D01*
X-12585520Y-63330925D01*
X-12628377Y-63292830D01*
X-12709330Y-63254734D01*
X-13242663Y-63254734D02*
X-13737901Y-63254734D01*
X-13433139Y-63559496D01*
X-13547425Y-63559496D01*
X-13618853Y-63597591D01*
X-13652187Y-63635687D01*
X-13680758Y-63711877D01*
X-13656949Y-63902353D01*
X-13609330Y-63978544D01*
X-13566472Y-64016639D01*
X-13485520Y-64054734D01*
X-13256949Y-64054734D01*
X-13185520Y-64016639D01*
X-13152187Y-63978544D01*
X-14152187Y-63597591D02*
X-14080758Y-63559496D01*
X-14047425Y-63521401D01*
X-14018853Y-63445210D01*
X-14023615Y-63407115D01*
X-14071234Y-63330925D01*
X-14114091Y-63292830D01*
X-14195044Y-63254734D01*
X-14347425Y-63254734D01*
X-14418853Y-63292830D01*
X-14452187Y-63330925D01*
X-14480758Y-63407115D01*
X-14475996Y-63445210D01*
X-14428377Y-63521401D01*
X-14385520Y-63559496D01*
X-14304568Y-63597591D01*
X-14152187Y-63597591D01*
X-14071234Y-63635687D01*
X-14028377Y-63673782D01*
X-13980758Y-63749972D01*
X-13961710Y-63902353D01*
X-13990282Y-63978544D01*
X-14023615Y-64016639D01*
X-14095044Y-64054734D01*
X-14247425Y-64054734D01*
X-14328377Y-64016639D01*
X-14371234Y-63978544D01*
X-14418853Y-63902353D01*
X-14437901Y-63749972D01*
X-14409330Y-63673782D01*
X-14375996Y-63635687D01*
X-14304568Y-63597591D01*
X-14995044Y-63254734D02*
X-15071234Y-63254734D01*
X-15142663Y-63292830D01*
X-15175996Y-63330925D01*
X-15204568Y-63407115D01*
X-15223615Y-63559496D01*
X-15199806Y-63749972D01*
X-15142663Y-63902353D01*
X-15095044Y-63978544D01*
X-15052187Y-64016639D01*
X-14971234Y-64054734D01*
X-14895044Y-64054734D01*
X-14823615Y-64016639D01*
X-14790282Y-63978544D01*
X-14761710Y-63902353D01*
X-14742663Y-63749972D01*
X-14766472Y-63559496D01*
X-14823615Y-63407115D01*
X-14871234Y-63330925D01*
X-14914091Y-63292830D01*
X-14995044Y-63254734D01*
X10247812Y-65554734D02*
X10147812Y-64754734D01*
X9957336Y-64754734D01*
X9847812Y-64792830D01*
X9781146Y-64869020D01*
X9752574Y-64945210D01*
X9733527Y-65097591D01*
X9747812Y-65211877D01*
X9804955Y-65364258D01*
X9852574Y-65440449D01*
X9938289Y-65516639D01*
X10057336Y-65554734D01*
X10247812Y-65554734D01*
X9138289Y-65516639D02*
X9219241Y-65554734D01*
X9371622Y-65554734D01*
X9443050Y-65516639D01*
X9471622Y-65440449D01*
X9433527Y-65135687D01*
X9385908Y-65059496D01*
X9304955Y-65021401D01*
X9152574Y-65021401D01*
X9081146Y-65059496D01*
X9052574Y-65135687D01*
X9062098Y-65211877D01*
X9452574Y-65288068D01*
X8795431Y-65516639D02*
X8724003Y-65554734D01*
X8571622Y-65554734D01*
X8490670Y-65516639D01*
X8443050Y-65440449D01*
X8438289Y-65402353D01*
X8466860Y-65326163D01*
X8538289Y-65288068D01*
X8652574Y-65288068D01*
X8724003Y-65249972D01*
X8752574Y-65173782D01*
X8747812Y-65135687D01*
X8700193Y-65059496D01*
X8619241Y-65021401D01*
X8504955Y-65021401D01*
X8433527Y-65059496D01*
X8114479Y-65554734D02*
X8047812Y-65021401D01*
X8014479Y-64754734D02*
X8057336Y-64792830D01*
X8024003Y-64830925D01*
X7981146Y-64792830D01*
X8014479Y-64754734D01*
X8024003Y-64830925D01*
X7324003Y-65021401D02*
X7404955Y-65669020D01*
X7452574Y-65745210D01*
X7495431Y-65783306D01*
X7576384Y-65821401D01*
X7690670Y-65821401D01*
X7762098Y-65783306D01*
X7385908Y-65516639D02*
X7466860Y-65554734D01*
X7619241Y-65554734D01*
X7690670Y-65516639D01*
X7724003Y-65478544D01*
X7752574Y-65402353D01*
X7724003Y-65173782D01*
X7676384Y-65097591D01*
X7633527Y-65059496D01*
X7552574Y-65021401D01*
X7400193Y-65021401D01*
X7328765Y-65059496D01*
X6943050Y-65021401D02*
X7009717Y-65554734D01*
X6952574Y-65097591D02*
X6909717Y-65059496D01*
X6828765Y-65021401D01*
X6714479Y-65021401D01*
X6643050Y-65059496D01*
X6614479Y-65135687D01*
X6666860Y-65554734D01*
X5976384Y-65516639D02*
X6057336Y-65554734D01*
X6209717Y-65554734D01*
X6281146Y-65516639D01*
X6309717Y-65440449D01*
X6271622Y-65135687D01*
X6224003Y-65059496D01*
X6143050Y-65021401D01*
X5990670Y-65021401D01*
X5919241Y-65059496D01*
X5890670Y-65135687D01*
X5900193Y-65211877D01*
X6290670Y-65288068D01*
X5257336Y-65554734D02*
X5157336Y-64754734D01*
X5252574Y-65516639D02*
X5333527Y-65554734D01*
X5485908Y-65554734D01*
X5557336Y-65516639D01*
X5590670Y-65478544D01*
X5619241Y-65402353D01*
X5590670Y-65173782D01*
X5543050Y-65097591D01*
X5500193Y-65059496D01*
X5419241Y-65021401D01*
X5266860Y-65021401D01*
X5195431Y-65059496D01*
X4266860Y-65554734D02*
X4166860Y-64754734D01*
X4204955Y-65059496D02*
X4124003Y-65021401D01*
X3971622Y-65021401D01*
X3900193Y-65059496D01*
X3866860Y-65097591D01*
X3838289Y-65173782D01*
X3866860Y-65402353D01*
X3914479Y-65478544D01*
X3957336Y-65516639D01*
X4038289Y-65554734D01*
X4190670Y-65554734D01*
X4262098Y-65516639D01*
X3552574Y-65021401D02*
X3428765Y-65554734D01*
X3171622Y-65021401D02*
X3428765Y-65554734D01*
X3528765Y-65745210D01*
X3571622Y-65783306D01*
X3652574Y-65821401D01*
X1943050Y-65554734D02*
X2324003Y-65554734D01*
X2224003Y-64754734D01*
X1366860Y-65516639D02*
X1447812Y-65554734D01*
X1600193Y-65554734D01*
X1671622Y-65516639D01*
X1700193Y-65440449D01*
X1662098Y-65135687D01*
X1614479Y-65059496D01*
X1533527Y-65021401D01*
X1381146Y-65021401D01*
X1309717Y-65059496D01*
X1281146Y-65135687D01*
X1290670Y-65211877D01*
X1681146Y-65288068D01*
X1343050Y-64716639D02*
X1471622Y-64830925D01*
X876384Y-65554734D02*
X947812Y-65516639D01*
X981146Y-65478544D01*
X1009717Y-65402353D01*
X981146Y-65173782D01*
X933527Y-65097591D01*
X890670Y-65059496D01*
X809717Y-65021401D01*
X695431Y-65021401D01*
X624003Y-65059496D01*
X590670Y-65097591D01*
X562098Y-65173782D01*
X590670Y-65402353D01*
X638289Y-65478544D01*
X681146Y-65516639D01*
X762098Y-65554734D01*
X876384Y-65554734D01*
X200193Y-65021401D02*
X266860Y-65554734D01*
X209717Y-65097591D02*
X166860Y-65059496D01*
X85908Y-65021401D01*
X-28377Y-65021401D01*
X-99806Y-65059496D01*
X-128377Y-65135687D01*
X-75996Y-65554734D01*
X-1523615Y-65554734D02*
X-1304568Y-65173782D01*
X-1066472Y-65554734D02*
X-1166472Y-64754734D01*
X-1471234Y-64754734D01*
X-1542663Y-64792830D01*
X-1575996Y-64830925D01*
X-1604568Y-64907115D01*
X-1590282Y-65021401D01*
X-1542663Y-65097591D01*
X-1499806Y-65135687D01*
X-1418853Y-65173782D01*
X-1114091Y-65173782D01*
X-2209329Y-65554734D02*
X-2261710Y-65135687D01*
X-2233139Y-65059496D01*
X-2161710Y-65021401D01*
X-2009329Y-65021401D01*
X-1928377Y-65059496D01*
X-2214091Y-65516639D02*
X-2133139Y-65554734D01*
X-1942663Y-65554734D01*
X-1871234Y-65516639D01*
X-1842663Y-65440449D01*
X-1852187Y-65364258D01*
X-1899806Y-65288068D01*
X-1980758Y-65249972D01*
X-2171234Y-65249972D01*
X-2252187Y-65211877D01*
X-2542663Y-65021401D02*
X-2847425Y-65021401D01*
X-2690282Y-64754734D02*
X-2604568Y-65440449D01*
X-2633139Y-65516639D01*
X-2704568Y-65554734D01*
X-2780758Y-65554734D01*
X-3047425Y-65554734D02*
X-3114091Y-65021401D01*
X-3147425Y-64754734D02*
X-3104568Y-64792830D01*
X-3137901Y-64830925D01*
X-3180758Y-64792830D01*
X-3147425Y-64754734D01*
X-3137901Y-64830925D01*
X-3495044Y-65021401D02*
X-3428377Y-65554734D01*
X-3485520Y-65097591D02*
X-3528377Y-65059496D01*
X-3609329Y-65021401D01*
X-3723615Y-65021401D01*
X-3795044Y-65059496D01*
X-3823615Y-65135687D01*
X-3771234Y-65554734D01*
X-4499806Y-65516639D02*
X-4418853Y-65554734D01*
X-4266472Y-65554734D01*
X-4195044Y-65516639D01*
X-4161710Y-65478544D01*
X-4133139Y-65402353D01*
X-4161710Y-65173782D01*
X-4209329Y-65097591D01*
X-4252187Y-65059496D01*
X-4333139Y-65021401D01*
X-4485520Y-65021401D01*
X-4556949Y-65059496D01*
X-4837901Y-65554734D02*
X-4937901Y-64754734D01*
X-4952187Y-65249972D02*
X-5142663Y-65554734D01*
X-5209329Y-65021401D02*
X-4866472Y-65326163D01*
X-5409329Y-65554734D02*
X-5895044Y-65021401D01*
X-5475996Y-65021401D02*
X-5828377Y-65554734D01*
X-6323615Y-65859496D02*
X-6290282Y-65821401D01*
X-6228377Y-65707115D01*
X-6199806Y-65630925D01*
X-6175996Y-65516639D01*
X-6161710Y-65326163D01*
X-6180758Y-65173782D01*
X-6242663Y-64983306D01*
X-6295044Y-64869020D01*
X-6342663Y-64792830D01*
X-6433139Y-64678544D01*
X-6475996Y-64640449D01*
X-7047425Y-65554734D02*
X-6666472Y-65554734D01*
X-6766472Y-64754734D01*
X-7623615Y-65516639D02*
X-7542663Y-65554734D01*
X-7390282Y-65554734D01*
X-7318853Y-65516639D01*
X-7290282Y-65440449D01*
X-7328377Y-65135687D01*
X-7375996Y-65059496D01*
X-7456949Y-65021401D01*
X-7609329Y-65021401D01*
X-7680758Y-65059496D01*
X-7709329Y-65135687D01*
X-7699806Y-65211877D01*
X-7309329Y-65288068D01*
X-8114091Y-65554734D02*
X-8042663Y-65516639D01*
X-8009329Y-65478544D01*
X-7980758Y-65402353D01*
X-8009329Y-65173782D01*
X-8056949Y-65097591D01*
X-8099806Y-65059496D01*
X-8180758Y-65021401D01*
X-8295044Y-65021401D01*
X-8366472Y-65059496D01*
X-8399806Y-65097591D01*
X-8428377Y-65173782D01*
X-8399806Y-65402353D01*
X-8352187Y-65478544D01*
X-8309329Y-65516639D01*
X-8228377Y-65554734D01*
X-8114091Y-65554734D01*
X-8790282Y-65021401D02*
X-8723615Y-65554734D01*
X-8780758Y-65097591D02*
X-8823615Y-65059496D01*
X-8904568Y-65021401D01*
X-9018853Y-65021401D01*
X-9090282Y-65059496D01*
X-9118853Y-65135687D01*
X-9066472Y-65554734D01*
X-9447425Y-65554734D02*
X-9514091Y-65021401D01*
X-9495044Y-65173782D02*
X-9542663Y-65097591D01*
X-9585520Y-65059496D01*
X-9666472Y-65021401D01*
X-9742663Y-65021401D01*
X-10285520Y-65554734D02*
X-10337901Y-65135687D01*
X-10309329Y-65059496D01*
X-10237901Y-65021401D01*
X-10085520Y-65021401D01*
X-10004568Y-65059496D01*
X-10290282Y-65516639D02*
X-10209329Y-65554734D01*
X-10018853Y-65554734D01*
X-9947425Y-65516639D01*
X-9918853Y-65440449D01*
X-9928377Y-65364258D01*
X-9975996Y-65288068D01*
X-10056949Y-65249972D01*
X-10247425Y-65249972D01*
X-10328377Y-65211877D01*
X-10618853Y-65021401D02*
X-10923615Y-65021401D01*
X-10766472Y-64754734D02*
X-10680758Y-65440449D01*
X-10709329Y-65516639D01*
X-10780758Y-65554734D01*
X-10856949Y-65554734D01*
X-11152187Y-65021401D02*
X-11723615Y-65021401D01*
X-11423615Y-64678544D02*
X-11066472Y-65707115D01*
X-11604568Y-65364258D02*
X-11033139Y-65364258D01*
X-11333139Y-65707115D02*
X-11690282Y-64678544D01*
X-12333139Y-65021401D02*
X-12266472Y-65554734D01*
X-12180758Y-64716639D02*
X-11918853Y-65288068D01*
X-12414091Y-65288068D01*
X-13104568Y-65554734D02*
X-12647425Y-65554734D01*
X-12875996Y-65554734D02*
X-12975996Y-64754734D01*
X-12885520Y-64869020D01*
X-12799806Y-64945210D01*
X-12718853Y-64983306D01*
X-13856949Y-65021401D02*
X-13790282Y-65554734D01*
X-13704568Y-64716639D02*
X-13442663Y-65288068D01*
X-13937901Y-65288068D01*
X-14247425Y-65554734D02*
X-14399806Y-65554734D01*
X-14480758Y-65516639D01*
X-14523615Y-65478544D01*
X-14614091Y-65364258D01*
X-14671234Y-65211877D01*
X-14709329Y-64907115D01*
X-14680758Y-64830925D01*
X-14647425Y-64792830D01*
X-14575996Y-64754734D01*
X-14423615Y-64754734D01*
X-14342663Y-64792830D01*
X-14299806Y-64830925D01*
X-14252187Y-64907115D01*
X-14228377Y-65097591D01*
X-14256949Y-65173782D01*
X-14290282Y-65211877D01*
X-14361710Y-65249972D01*
X-14514091Y-65249972D01*
X-14595044Y-65211877D01*
X-14637901Y-65173782D01*
X-14685520Y-65097591D01*
X-14856949Y-65859496D02*
X-14899806Y-65821401D01*
X-14990282Y-65707115D01*
X-15037901Y-65630925D01*
X-15090282Y-65516639D01*
X-15152187Y-65326163D01*
X-15171234Y-65173782D01*
X-15156949Y-64983306D01*
X-15133139Y-64869020D01*
X-15104568Y-64792830D01*
X-15042663Y-64678544D01*
X-15009329Y-64640449D01*
%TO.C,U1*%
X29676557Y-14547857D02*
X29562271Y-14585952D01*
X29524176Y-14624047D01*
X29486080Y-14700238D01*
X29486080Y-14814523D01*
X29524176Y-14890714D01*
X29562271Y-14928809D01*
X29638461Y-14966904D01*
X29943223Y-14966904D01*
X29943223Y-14166904D01*
X29676557Y-14166904D01*
X29600366Y-14205000D01*
X29562271Y-14243095D01*
X29524176Y-14319285D01*
X29524176Y-14395476D01*
X29562271Y-14471666D01*
X29600366Y-14509761D01*
X29676557Y-14547857D01*
X29943223Y-14547857D01*
X28724176Y-14966904D02*
X29181319Y-14966904D01*
X28952747Y-14966904D02*
X28952747Y-14166904D01*
X29028938Y-14281190D01*
X29105128Y-14357380D01*
X29181319Y-14395476D01*
X18405585Y-12350714D02*
X18443680Y-12388809D01*
X18557966Y-12426904D01*
X18634157Y-12426904D01*
X18748442Y-12388809D01*
X18824633Y-12312619D01*
X18862728Y-12236428D01*
X18900823Y-12084047D01*
X18900823Y-11969761D01*
X18862728Y-11817380D01*
X18824633Y-11741190D01*
X18748442Y-11665000D01*
X18634157Y-11626904D01*
X18557966Y-11626904D01*
X18443680Y-11665000D01*
X18405585Y-11703095D01*
X17719871Y-11626904D02*
X17872252Y-11626904D01*
X17948442Y-11665000D01*
X17986538Y-11703095D01*
X18062728Y-11817380D01*
X18100823Y-11969761D01*
X18100823Y-12274523D01*
X18062728Y-12350714D01*
X18024633Y-12388809D01*
X17948442Y-12426904D01*
X17796061Y-12426904D01*
X17719871Y-12388809D01*
X17681776Y-12350714D01*
X17643680Y-12274523D01*
X17643680Y-12084047D01*
X17681776Y-12007857D01*
X17719871Y-11969761D01*
X17796061Y-11931666D01*
X17948442Y-11931666D01*
X18024633Y-11969761D01*
X18062728Y-12007857D01*
X18100823Y-12084047D01*
X29676557Y-4387857D02*
X29943223Y-4387857D01*
X29943223Y-4806904D02*
X29943223Y-4006904D01*
X29562271Y-4006904D01*
X28914652Y-4273571D02*
X28914652Y-4806904D01*
X29105128Y-3968809D02*
X29295604Y-4540238D01*
X28800366Y-4540238D01*
X29676557Y-12007857D02*
X29943223Y-12007857D01*
X29943223Y-12426904D02*
X29943223Y-11626904D01*
X29562271Y-11626904D01*
X29333700Y-11626904D02*
X28800366Y-11626904D01*
X29143223Y-12426904D01*
X30057509Y-1466904D02*
X29790842Y-2266904D01*
X29524176Y-1466904D01*
X28800366Y-2190714D02*
X28838461Y-2228809D01*
X28952747Y-2266904D01*
X29028938Y-2266904D01*
X29143223Y-2228809D01*
X29219414Y-2152619D01*
X29257509Y-2076428D01*
X29295604Y-1924047D01*
X29295604Y-1809761D01*
X29257509Y-1657380D01*
X29219414Y-1581190D01*
X29143223Y-1505000D01*
X29028938Y-1466904D01*
X28952747Y-1466904D01*
X28838461Y-1505000D01*
X28800366Y-1543095D01*
X28000366Y-2190714D02*
X28038461Y-2228809D01*
X28152747Y-2266904D01*
X28228938Y-2266904D01*
X28343223Y-2228809D01*
X28419414Y-2152619D01*
X28457509Y-2076428D01*
X28495604Y-1924047D01*
X28495604Y-1809761D01*
X28457509Y-1657380D01*
X28419414Y-1581190D01*
X28343223Y-1505000D01*
X28228938Y-1466904D01*
X28152747Y-1466904D01*
X28038461Y-1505000D01*
X28000366Y-1543095D01*
X29676557Y-22167857D02*
X29562271Y-22205952D01*
X29524176Y-22244047D01*
X29486080Y-22320238D01*
X29486080Y-22434523D01*
X29524176Y-22510714D01*
X29562271Y-22548809D01*
X29638461Y-22586904D01*
X29943223Y-22586904D01*
X29943223Y-21786904D01*
X29676557Y-21786904D01*
X29600366Y-21825000D01*
X29562271Y-21863095D01*
X29524176Y-21939285D01*
X29524176Y-22015476D01*
X29562271Y-22091666D01*
X29600366Y-22129761D01*
X29676557Y-22167857D01*
X29943223Y-22167857D01*
X28800366Y-21786904D02*
X28952747Y-21786904D01*
X29028938Y-21825000D01*
X29067033Y-21863095D01*
X29143223Y-21977380D01*
X29181319Y-22129761D01*
X29181319Y-22434523D01*
X29143223Y-22510714D01*
X29105128Y-22548809D01*
X29028938Y-22586904D01*
X28876557Y-22586904D01*
X28800366Y-22548809D01*
X28762271Y-22510714D01*
X28724176Y-22434523D01*
X28724176Y-22244047D01*
X28762271Y-22167857D01*
X28800366Y-22129761D01*
X28876557Y-22091666D01*
X29028938Y-22091666D01*
X29105128Y-22129761D01*
X29143223Y-22167857D01*
X29181319Y-22244047D01*
X19319871Y1035000D02*
X19396061Y1073095D01*
X19510347Y1073095D01*
X19624633Y1035000D01*
X19700823Y958809D01*
X19738919Y882619D01*
X19777014Y730238D01*
X19777014Y615952D01*
X19738919Y463571D01*
X19700823Y387380D01*
X19624633Y311190D01*
X19510347Y273095D01*
X19434157Y273095D01*
X19319871Y311190D01*
X19281776Y349285D01*
X19281776Y615952D01*
X19434157Y615952D01*
X18938919Y273095D02*
X18938919Y1073095D01*
X18481776Y273095D01*
X18481776Y1073095D01*
X18100823Y273095D02*
X18100823Y1073095D01*
X17910347Y1073095D01*
X17796061Y1035000D01*
X17719871Y958809D01*
X17681776Y882619D01*
X17643680Y730238D01*
X17643680Y615952D01*
X17681776Y463571D01*
X17719871Y387380D01*
X17796061Y311190D01*
X17910347Y273095D01*
X18100823Y273095D01*
X19319871Y-1505000D02*
X19396061Y-1466904D01*
X19510347Y-1466904D01*
X19624633Y-1505000D01*
X19700823Y-1581190D01*
X19738919Y-1657380D01*
X19777014Y-1809761D01*
X19777014Y-1924047D01*
X19738919Y-2076428D01*
X19700823Y-2152619D01*
X19624633Y-2228809D01*
X19510347Y-2266904D01*
X19434157Y-2266904D01*
X19319871Y-2228809D01*
X19281776Y-2190714D01*
X19281776Y-1924047D01*
X19434157Y-1924047D01*
X18938919Y-2266904D02*
X18938919Y-1466904D01*
X18481776Y-2266904D01*
X18481776Y-1466904D01*
X18100823Y-2266904D02*
X18100823Y-1466904D01*
X17910347Y-1466904D01*
X17796061Y-1505000D01*
X17719871Y-1581190D01*
X17681776Y-1657380D01*
X17643680Y-1809761D01*
X17643680Y-1924047D01*
X17681776Y-2076428D01*
X17719871Y-2152619D01*
X17796061Y-2228809D01*
X17910347Y-2266904D01*
X18100823Y-2266904D01*
X18596061Y-22167857D02*
X18481776Y-22205952D01*
X18443680Y-22244047D01*
X18405585Y-22320238D01*
X18405585Y-22434523D01*
X18443680Y-22510714D01*
X18481776Y-22548809D01*
X18557966Y-22586904D01*
X18862728Y-22586904D01*
X18862728Y-21786904D01*
X18596061Y-21786904D01*
X18519871Y-21825000D01*
X18481776Y-21863095D01*
X18443680Y-21939285D01*
X18443680Y-22015476D01*
X18481776Y-22091666D01*
X18519871Y-22129761D01*
X18596061Y-22167857D01*
X18862728Y-22167857D01*
X17681776Y-21786904D02*
X18062728Y-21786904D01*
X18100823Y-22167857D01*
X18062728Y-22129761D01*
X17986538Y-22091666D01*
X17796061Y-22091666D01*
X17719871Y-22129761D01*
X17681776Y-22167857D01*
X17643680Y-22244047D01*
X17643680Y-22434523D01*
X17681776Y-22510714D01*
X17719871Y-22548809D01*
X17796061Y-22586904D01*
X17986538Y-22586904D01*
X18062728Y-22548809D01*
X18100823Y-22510714D01*
X29676557Y-6927857D02*
X29943223Y-6927857D01*
X29943223Y-7346904D02*
X29943223Y-6546904D01*
X29562271Y-6546904D01*
X28876557Y-6546904D02*
X29257509Y-6546904D01*
X29295604Y-6927857D01*
X29257509Y-6889761D01*
X29181319Y-6851666D01*
X28990842Y-6851666D01*
X28914652Y-6889761D01*
X28876557Y-6927857D01*
X28838461Y-7004047D01*
X28838461Y-7194523D01*
X28876557Y-7270714D01*
X28914652Y-7308809D01*
X28990842Y-7346904D01*
X29181319Y-7346904D01*
X29257509Y-7308809D01*
X29295604Y-7270714D01*
X18862728Y-7346904D02*
X18862728Y-6546904D01*
X18672252Y-6546904D01*
X18557966Y-6585000D01*
X18481776Y-6661190D01*
X18443680Y-6737380D01*
X18405585Y-6889761D01*
X18405585Y-7004047D01*
X18443680Y-7156428D01*
X18481776Y-7232619D01*
X18557966Y-7308809D01*
X18672252Y-7346904D01*
X18862728Y-7346904D01*
X17910347Y-6546904D02*
X17834157Y-6546904D01*
X17757966Y-6585000D01*
X17719871Y-6623095D01*
X17681776Y-6699285D01*
X17643680Y-6851666D01*
X17643680Y-7042142D01*
X17681776Y-7194523D01*
X17719871Y-7270714D01*
X17757966Y-7308809D01*
X17834157Y-7346904D01*
X17910347Y-7346904D01*
X17986538Y-7308809D01*
X18024633Y-7270714D01*
X18062728Y-7194523D01*
X18100823Y-7042142D01*
X18100823Y-6851666D01*
X18062728Y-6699285D01*
X18024633Y-6623095D01*
X17986538Y-6585000D01*
X17910347Y-6546904D01*
X18786538Y-17087857D02*
X18519871Y-17087857D01*
X18405585Y-17506904D02*
X18786538Y-17506904D01*
X18786538Y-16706904D01*
X18405585Y-16706904D01*
X17719871Y-16706904D02*
X17872252Y-16706904D01*
X17948442Y-16745000D01*
X17986538Y-16783095D01*
X18062728Y-16897380D01*
X18100823Y-17049761D01*
X18100823Y-17354523D01*
X18062728Y-17430714D01*
X18024633Y-17468809D01*
X17948442Y-17506904D01*
X17796061Y-17506904D01*
X17719871Y-17468809D01*
X17681776Y-17430714D01*
X17643680Y-17354523D01*
X17643680Y-17164047D01*
X17681776Y-17087857D01*
X17719871Y-17049761D01*
X17796061Y-17011666D01*
X17948442Y-17011666D01*
X18024633Y-17049761D01*
X18062728Y-17087857D01*
X18100823Y-17164047D01*
X18862728Y-14966904D02*
X18862728Y-14166904D01*
X18672252Y-14166904D01*
X18557966Y-14205000D01*
X18481776Y-14281190D01*
X18443680Y-14357380D01*
X18405585Y-14509761D01*
X18405585Y-14624047D01*
X18443680Y-14776428D01*
X18481776Y-14852619D01*
X18557966Y-14928809D01*
X18672252Y-14966904D01*
X18862728Y-14966904D01*
X18138919Y-14166904D02*
X17605585Y-14166904D01*
X17948442Y-14966904D01*
X29676557Y-9467857D02*
X29943223Y-9467857D01*
X29943223Y-9886904D02*
X29943223Y-9086904D01*
X29562271Y-9086904D01*
X28914652Y-9086904D02*
X29067033Y-9086904D01*
X29143223Y-9125000D01*
X29181319Y-9163095D01*
X29257509Y-9277380D01*
X29295604Y-9429761D01*
X29295604Y-9734523D01*
X29257509Y-9810714D01*
X29219414Y-9848809D01*
X29143223Y-9886904D01*
X28990842Y-9886904D01*
X28914652Y-9848809D01*
X28876557Y-9810714D01*
X28838461Y-9734523D01*
X28838461Y-9544047D01*
X28876557Y-9467857D01*
X28914652Y-9429761D01*
X28990842Y-9391666D01*
X29143223Y-9391666D01*
X29219414Y-9429761D01*
X29257509Y-9467857D01*
X29295604Y-9544047D01*
X29676557Y-19627857D02*
X29562271Y-19665952D01*
X29524176Y-19704047D01*
X29486080Y-19780238D01*
X29486080Y-19894523D01*
X29524176Y-19970714D01*
X29562271Y-20008809D01*
X29638461Y-20046904D01*
X29943223Y-20046904D01*
X29943223Y-19246904D01*
X29676557Y-19246904D01*
X29600366Y-19285000D01*
X29562271Y-19323095D01*
X29524176Y-19399285D01*
X29524176Y-19475476D01*
X29562271Y-19551666D01*
X29600366Y-19589761D01*
X29676557Y-19627857D01*
X29943223Y-19627857D01*
X29181319Y-19323095D02*
X29143223Y-19285000D01*
X29067033Y-19246904D01*
X28876557Y-19246904D01*
X28800366Y-19285000D01*
X28762271Y-19323095D01*
X28724176Y-19399285D01*
X28724176Y-19475476D01*
X28762271Y-19589761D01*
X29219414Y-20046904D01*
X28724176Y-20046904D01*
X18596061Y-19627857D02*
X18481776Y-19665952D01*
X18443680Y-19704047D01*
X18405585Y-19780238D01*
X18405585Y-19894523D01*
X18443680Y-19970714D01*
X18481776Y-20008809D01*
X18557966Y-20046904D01*
X18862728Y-20046904D01*
X18862728Y-19246904D01*
X18596061Y-19246904D01*
X18519871Y-19285000D01*
X18481776Y-19323095D01*
X18443680Y-19399285D01*
X18443680Y-19475476D01*
X18481776Y-19551666D01*
X18519871Y-19589761D01*
X18596061Y-19627857D01*
X18862728Y-19627857D01*
X17719871Y-19513571D02*
X17719871Y-20046904D01*
X17910347Y-19208809D02*
X18100823Y-19780238D01*
X17605585Y-19780238D01*
X29524176Y3575000D02*
X29600366Y3613095D01*
X29714652Y3613095D01*
X29828938Y3575000D01*
X29905128Y3498809D01*
X29943223Y3422619D01*
X29981319Y3270238D01*
X29981319Y3155952D01*
X29943223Y3003571D01*
X29905128Y2927380D01*
X29828938Y2851190D01*
X29714652Y2813095D01*
X29638461Y2813095D01*
X29524176Y2851190D01*
X29486080Y2889285D01*
X29486080Y3155952D01*
X29638461Y3155952D01*
X29143223Y2813095D02*
X29143223Y3613095D01*
X28686080Y2813095D01*
X28686080Y3613095D01*
X28305128Y2813095D02*
X28305128Y3613095D01*
X28114652Y3613095D01*
X28000366Y3575000D01*
X27924176Y3498809D01*
X27886080Y3422619D01*
X27847985Y3270238D01*
X27847985Y3155952D01*
X27886080Y3003571D01*
X27924176Y2927380D01*
X28000366Y2851190D01*
X28114652Y2813095D01*
X28305128Y2813095D01*
X22342142Y6153095D02*
X21885000Y6153095D01*
X22113571Y5353095D02*
X22113571Y6153095D01*
X21694523Y6153095D02*
X21161190Y5353095D01*
X21161190Y6153095D02*
X21694523Y5353095D01*
X20704047Y6153095D02*
X20627857Y6153095D01*
X20551666Y6115000D01*
X20513571Y6076904D01*
X20475476Y6000714D01*
X20437380Y5848333D01*
X20437380Y5657857D01*
X20475476Y5505476D01*
X20513571Y5429285D01*
X20551666Y5391190D01*
X20627857Y5353095D01*
X20704047Y5353095D01*
X20780238Y5391190D01*
X20818333Y5429285D01*
X20856428Y5505476D01*
X20894523Y5657857D01*
X20894523Y5848333D01*
X20856428Y6000714D01*
X20818333Y6076904D01*
X20780238Y6115000D01*
X20704047Y6153095D01*
X19523095Y6191190D02*
X20208809Y5162619D01*
X19256428Y5353095D02*
X19256428Y6153095D01*
X19065952Y6153095D01*
X18951666Y6115000D01*
X18875476Y6038809D01*
X18837380Y5962619D01*
X18799285Y5810238D01*
X18799285Y5695952D01*
X18837380Y5543571D01*
X18875476Y5467380D01*
X18951666Y5391190D01*
X19065952Y5353095D01*
X19256428Y5353095D01*
X18532619Y6153095D02*
X18037380Y6153095D01*
X18304047Y5848333D01*
X18189761Y5848333D01*
X18113571Y5810238D01*
X18075476Y5772142D01*
X18037380Y5695952D01*
X18037380Y5505476D01*
X18075476Y5429285D01*
X18113571Y5391190D01*
X18189761Y5353095D01*
X18418333Y5353095D01*
X18494523Y5391190D01*
X18532619Y5429285D01*
X18862728Y-4806904D02*
X18862728Y-4006904D01*
X18672252Y-4006904D01*
X18557966Y-4045000D01*
X18481776Y-4121190D01*
X18443680Y-4197380D01*
X18405585Y-4349761D01*
X18405585Y-4464047D01*
X18443680Y-4616428D01*
X18481776Y-4692619D01*
X18557966Y-4768809D01*
X18672252Y-4806904D01*
X18862728Y-4806904D01*
X17643680Y-4806904D02*
X18100823Y-4806904D01*
X17872252Y-4806904D02*
X17872252Y-4006904D01*
X17948442Y-4121190D01*
X18024633Y-4197380D01*
X18100823Y-4235476D01*
X29486080Y293095D02*
X29752747Y674047D01*
X29943223Y293095D02*
X29943223Y1093095D01*
X29638461Y1093095D01*
X29562271Y1055000D01*
X29524176Y1016904D01*
X29486080Y940714D01*
X29486080Y826428D01*
X29524176Y750238D01*
X29562271Y712142D01*
X29638461Y674047D01*
X29943223Y674047D01*
X29181319Y331190D02*
X29067033Y293095D01*
X28876557Y293095D01*
X28800366Y331190D01*
X28762271Y369285D01*
X28724176Y445476D01*
X28724176Y521666D01*
X28762271Y597857D01*
X28800366Y635952D01*
X28876557Y674047D01*
X29028938Y712142D01*
X29105128Y750238D01*
X29143223Y788333D01*
X29181319Y864523D01*
X29181319Y940714D01*
X29143223Y1016904D01*
X29105128Y1055000D01*
X29028938Y1093095D01*
X28838461Y1093095D01*
X28724176Y1055000D01*
X28495604Y1093095D02*
X28038461Y1093095D01*
X28267033Y293095D02*
X28267033Y1093095D01*
X29486080Y5353095D02*
X29752747Y5734047D01*
X29943223Y5353095D02*
X29943223Y6153095D01*
X29638461Y6153095D01*
X29562271Y6115000D01*
X29524176Y6076904D01*
X29486080Y6000714D01*
X29486080Y5886428D01*
X29524176Y5810238D01*
X29562271Y5772142D01*
X29638461Y5734047D01*
X29943223Y5734047D01*
X29181319Y5581666D02*
X28800366Y5581666D01*
X29257509Y5353095D02*
X28990842Y6153095D01*
X28724176Y5353095D01*
X28533700Y6153095D02*
X28343223Y5353095D01*
X28190842Y5924523D01*
X28038461Y5353095D01*
X27847985Y6153095D01*
X18862728Y-9886904D02*
X18862728Y-9086904D01*
X18672252Y-9086904D01*
X18557966Y-9125000D01*
X18481776Y-9201190D01*
X18443680Y-9277380D01*
X18405585Y-9429761D01*
X18405585Y-9544047D01*
X18443680Y-9696428D01*
X18481776Y-9772619D01*
X18557966Y-9848809D01*
X18672252Y-9886904D01*
X18862728Y-9886904D01*
X17719871Y-9353571D02*
X17719871Y-9886904D01*
X17910347Y-9048809D02*
X18100823Y-9620238D01*
X17605585Y-9620238D01*
X18862728Y2813095D02*
X18862728Y3613095D01*
X18672252Y3613095D01*
X18557966Y3575000D01*
X18481776Y3498809D01*
X18443680Y3422619D01*
X18405585Y3270238D01*
X18405585Y3155952D01*
X18443680Y3003571D01*
X18481776Y2927380D01*
X18557966Y2851190D01*
X18672252Y2813095D01*
X18862728Y2813095D01*
X18100823Y3536904D02*
X18062728Y3575000D01*
X17986538Y3613095D01*
X17796061Y3613095D01*
X17719871Y3575000D01*
X17681776Y3536904D01*
X17643680Y3460714D01*
X17643680Y3384523D01*
X17681776Y3270238D01*
X18138919Y2813095D01*
X17643680Y2813095D01*
X29676557Y-17087857D02*
X29562271Y-17125952D01*
X29524176Y-17164047D01*
X29486080Y-17240238D01*
X29486080Y-17354523D01*
X29524176Y-17430714D01*
X29562271Y-17468809D01*
X29638461Y-17506904D01*
X29943223Y-17506904D01*
X29943223Y-16706904D01*
X29676557Y-16706904D01*
X29600366Y-16745000D01*
X29562271Y-16783095D01*
X29524176Y-16859285D01*
X29524176Y-16935476D01*
X29562271Y-17011666D01*
X29600366Y-17049761D01*
X29676557Y-17087857D01*
X29943223Y-17087857D01*
X29219414Y-16706904D02*
X28724176Y-16706904D01*
X28990842Y-17011666D01*
X28876557Y-17011666D01*
X28800366Y-17049761D01*
X28762271Y-17087857D01*
X28724176Y-17164047D01*
X28724176Y-17354523D01*
X28762271Y-17430714D01*
X28800366Y-17468809D01*
X28876557Y-17506904D01*
X29105128Y-17506904D01*
X29181319Y-17468809D01*
X29219414Y-17430714D01*
%TO.C,U3*%
X32294234Y-51109253D02*
X32262925Y-51030032D01*
X32272885Y-50916181D01*
X32320796Y-50805650D01*
X32403337Y-50736390D01*
X32482558Y-50705080D01*
X32637679Y-50680411D01*
X32751530Y-50690372D01*
X32900011Y-50741603D01*
X32972591Y-50786194D01*
X33041851Y-50868735D01*
X33069841Y-50985906D01*
X33063201Y-51061806D01*
X33015290Y-51172337D01*
X32974019Y-51206967D01*
X32708367Y-51183725D01*
X32721648Y-51031924D01*
X33020038Y-51555160D02*
X32223082Y-51485435D01*
X32980195Y-52010563D01*
X32183239Y-51940838D01*
X32946993Y-52390066D02*
X32150037Y-52320341D01*
X32133436Y-52510093D01*
X32161426Y-52627264D01*
X32230686Y-52709805D01*
X32303266Y-52754395D01*
X32451747Y-52805626D01*
X32565598Y-52815587D01*
X32720719Y-52790918D01*
X32799940Y-52759608D01*
X32882481Y-52690348D01*
X32930392Y-52579817D01*
X32946993Y-52390066D01*
X35620096Y-50979579D02*
X34823141Y-50909854D01*
X35586894Y-51359082D02*
X34789938Y-51289357D01*
X35547052Y-51814485D01*
X34750096Y-51744760D01*
X34726854Y-52010412D02*
X34687012Y-52465816D01*
X35503889Y-52307839D02*
X34706933Y-52238114D01*
X42420785Y-51498081D02*
X42377622Y-51991434D01*
X42704466Y-51752344D01*
X42694505Y-51866195D01*
X42725815Y-51945416D01*
X42760445Y-51986686D01*
X42833025Y-52031277D01*
X43022777Y-52047878D01*
X43101998Y-52016568D01*
X43143268Y-51981938D01*
X43187859Y-51909358D01*
X43207780Y-51681656D01*
X43176470Y-51602435D01*
X43141840Y-51561165D01*
X42841094Y-52376150D02*
X42787970Y-52983354D01*
X42228212Y-53699197D02*
X42261415Y-53319694D01*
X42644237Y-53314946D01*
X42602967Y-53349576D01*
X42558376Y-53422156D01*
X42541775Y-53611908D01*
X42573085Y-53691128D01*
X42607715Y-53732399D01*
X42680295Y-53776990D01*
X42870047Y-53793591D01*
X42949268Y-53762281D01*
X42990538Y-53727651D01*
X43035129Y-53655070D01*
X43051730Y-53465319D01*
X43020420Y-53386098D01*
X42985790Y-53344828D01*
X42204971Y-53964849D02*
X42978685Y-54300225D01*
X42158488Y-54496152D01*
X38115801Y-51159684D02*
X38143791Y-51276855D01*
X38127190Y-51466607D01*
X38082599Y-51539187D01*
X38041329Y-51573817D01*
X37962108Y-51605127D01*
X37886207Y-51598487D01*
X37813627Y-51553896D01*
X37778997Y-51512625D01*
X37747687Y-51433405D01*
X37723018Y-51278283D01*
X37691708Y-51199063D01*
X37657078Y-51157792D01*
X37584497Y-51113201D01*
X37508597Y-51106561D01*
X37429376Y-51137871D01*
X37388106Y-51172501D01*
X37343515Y-51245081D01*
X37326914Y-51434833D01*
X37354903Y-51552004D01*
X37968284Y-52408723D02*
X38009554Y-52374093D01*
X38057465Y-52263563D01*
X38064106Y-52187662D01*
X38036116Y-52070491D01*
X37966856Y-51987950D01*
X37894276Y-51943359D01*
X37745795Y-51892128D01*
X37631944Y-51882168D01*
X37476823Y-51906837D01*
X37397602Y-51938147D01*
X37315061Y-52007407D01*
X37267150Y-52117937D01*
X37260509Y-52193838D01*
X37288499Y-52311009D01*
X37323129Y-52352280D01*
X37981100Y-53136419D02*
X38014302Y-52756916D01*
X37217347Y-52687192D01*
X40646135Y-51381060D02*
X40674125Y-51498231D01*
X40657524Y-51687983D01*
X40612933Y-51760563D01*
X40571663Y-51795193D01*
X40492442Y-51826503D01*
X40416541Y-51819863D01*
X40343961Y-51775272D01*
X40309331Y-51734001D01*
X40278021Y-51654781D01*
X40253352Y-51499659D01*
X40222042Y-51420439D01*
X40187412Y-51379168D01*
X40114831Y-51334577D01*
X40038931Y-51327937D01*
X39959710Y-51359247D01*
X39918440Y-51393877D01*
X39873849Y-51466457D01*
X39857248Y-51656209D01*
X39885237Y-51773380D01*
X40614361Y-52181336D02*
X39817405Y-52111612D01*
X39800804Y-52301363D01*
X39828794Y-52418534D01*
X39898054Y-52501075D01*
X39970634Y-52545666D01*
X40119115Y-52596897D01*
X40232966Y-52606858D01*
X40388087Y-52582188D01*
X40467308Y-52550879D01*
X40549849Y-52481618D01*
X40597760Y-52371088D01*
X40614361Y-52181336D01*
X40320255Y-52920421D02*
X40287053Y-53299923D01*
X40554597Y-52864441D02*
X39734400Y-53060369D01*
X40508114Y-53395745D01*
%TO.C,RGB6*%
X2294958Y-44486904D02*
X2561625Y-44105952D01*
X2752101Y-44486904D02*
X2752101Y-43686904D01*
X2447339Y-43686904D01*
X2371148Y-43725000D01*
X2333053Y-43763095D01*
X2294958Y-43839285D01*
X2294958Y-43953571D01*
X2333053Y-44029761D01*
X2371148Y-44067857D01*
X2447339Y-44105952D01*
X2752101Y-44105952D01*
X1533053Y-43725000D02*
X1609244Y-43686904D01*
X1723529Y-43686904D01*
X1837815Y-43725000D01*
X1914005Y-43801190D01*
X1952101Y-43877380D01*
X1990196Y-44029761D01*
X1990196Y-44144047D01*
X1952101Y-44296428D01*
X1914005Y-44372619D01*
X1837815Y-44448809D01*
X1723529Y-44486904D01*
X1647339Y-44486904D01*
X1533053Y-44448809D01*
X1494958Y-44410714D01*
X1494958Y-44144047D01*
X1647339Y-44144047D01*
X885434Y-44067857D02*
X771148Y-44105952D01*
X733053Y-44144047D01*
X694958Y-44220238D01*
X694958Y-44334523D01*
X733053Y-44410714D01*
X771148Y-44448809D01*
X847339Y-44486904D01*
X1152101Y-44486904D01*
X1152101Y-43686904D01*
X885434Y-43686904D01*
X809244Y-43725000D01*
X771148Y-43763095D01*
X733053Y-43839285D01*
X733053Y-43915476D01*
X771148Y-43991666D01*
X809244Y-44029761D01*
X885434Y-44067857D01*
X1152101Y-44067857D01*
X9244Y-43686904D02*
X161625Y-43686904D01*
X237815Y-43725000D01*
X275910Y-43763095D01*
X352101Y-43877380D01*
X390196Y-44029761D01*
X390196Y-44334523D01*
X352101Y-44410714D01*
X314005Y-44448809D01*
X237815Y-44486904D01*
X85434Y-44486904D01*
X9244Y-44448809D01*
X-28851Y-44410714D01*
X-66946Y-44334523D01*
X-66946Y-44144047D01*
X-28851Y-44067857D01*
X9244Y-44029761D01*
X85434Y-43991666D01*
X237815Y-43991666D01*
X314005Y-44029761D01*
X352101Y-44067857D01*
X390196Y-44144047D01*
%TO.C,RGB5*%
X58324666Y-48004649D02*
X58653433Y-47675790D01*
X58774864Y-48084031D02*
X58913783Y-47296185D01*
X58613651Y-47243263D01*
X58532003Y-47267549D01*
X58487871Y-47298451D01*
X58437124Y-47366868D01*
X58417279Y-47479418D01*
X58441565Y-47561066D01*
X58472466Y-47605198D01*
X58540884Y-47655945D01*
X58841016Y-47708866D01*
X57706640Y-47122016D02*
X57788288Y-47097730D01*
X57900838Y-47117575D01*
X58006772Y-47174937D01*
X58068574Y-47263200D01*
X58092861Y-47344848D01*
X58103916Y-47501530D01*
X58084071Y-47614079D01*
X58020094Y-47757530D01*
X57969347Y-47825948D01*
X57881084Y-47887750D01*
X57761919Y-47905421D01*
X57686886Y-47892191D01*
X57580952Y-47834829D01*
X57550050Y-47790697D01*
X57596357Y-47528082D01*
X57746423Y-47554543D01*
X57009323Y-47347206D02*
X56890159Y-47364877D01*
X56846027Y-47395778D01*
X56795280Y-47464196D01*
X56775435Y-47576746D01*
X56799721Y-47658394D01*
X56830622Y-47702526D01*
X56899040Y-47753272D01*
X57199172Y-47806194D01*
X57338090Y-47018347D01*
X57075475Y-46972041D01*
X56993827Y-46996327D01*
X56949695Y-47027229D01*
X56898948Y-47095647D01*
X56885718Y-47170680D01*
X56910004Y-47252328D01*
X56940905Y-47296459D01*
X57009323Y-47347206D01*
X57271939Y-47393512D01*
X56175079Y-46813277D02*
X56550244Y-46879429D01*
X56521609Y-47261209D01*
X56490708Y-47217077D01*
X56422290Y-47166330D01*
X56234707Y-47133255D01*
X56153059Y-47157541D01*
X56108928Y-47188442D01*
X56058181Y-47256860D01*
X56025105Y-47444442D01*
X56049391Y-47526090D01*
X56080292Y-47570222D01*
X56148710Y-47620969D01*
X56336293Y-47654045D01*
X56417941Y-47629759D01*
X56462072Y-47598857D01*
%TO.C,RGB3*%
X91083341Y-15093133D02*
X91412108Y-14764274D01*
X91533539Y-15172515D02*
X91672458Y-14384669D01*
X91372326Y-14331747D01*
X91290678Y-14356033D01*
X91246546Y-14386935D01*
X91195799Y-14455352D01*
X91175954Y-14567902D01*
X91200240Y-14649550D01*
X91231141Y-14693682D01*
X91299559Y-14744429D01*
X91599691Y-14797350D01*
X90465315Y-14210500D02*
X90546963Y-14186214D01*
X90659513Y-14206059D01*
X90765447Y-14263421D01*
X90827249Y-14351684D01*
X90851536Y-14433332D01*
X90862591Y-14590014D01*
X90842746Y-14702563D01*
X90778769Y-14846014D01*
X90728022Y-14914432D01*
X90639759Y-14976234D01*
X90520594Y-14993905D01*
X90445561Y-14980675D01*
X90339627Y-14923313D01*
X90308725Y-14879181D01*
X90355032Y-14616566D01*
X90505098Y-14643027D01*
X89767998Y-14435690D02*
X89648834Y-14453361D01*
X89604702Y-14484262D01*
X89553955Y-14552680D01*
X89534110Y-14665230D01*
X89558396Y-14746878D01*
X89589297Y-14791010D01*
X89657715Y-14841756D01*
X89957847Y-14894678D01*
X90096765Y-14106831D01*
X89834150Y-14060525D01*
X89752502Y-14084811D01*
X89708370Y-14115713D01*
X89657623Y-14184131D01*
X89644393Y-14259164D01*
X89668679Y-14340812D01*
X89699580Y-14384943D01*
X89767998Y-14435690D01*
X90030614Y-14481996D01*
X89383952Y-13981143D02*
X88896238Y-13895146D01*
X89105932Y-14241584D01*
X88993382Y-14221739D01*
X88911734Y-14246025D01*
X88867603Y-14276926D01*
X88816856Y-14345344D01*
X88783780Y-14532926D01*
X88808066Y-14614574D01*
X88838967Y-14658706D01*
X88907385Y-14709453D01*
X89132484Y-14749144D01*
X89214132Y-14724858D01*
X89258264Y-14693957D01*
%TO.C,RGB1*%
X5695833Y-6386904D02*
X5962500Y-6005952D01*
X6152976Y-6386904D02*
X6152976Y-5586904D01*
X5848214Y-5586904D01*
X5772023Y-5625000D01*
X5733928Y-5663095D01*
X5695833Y-5739285D01*
X5695833Y-5853571D01*
X5733928Y-5929761D01*
X5772023Y-5967857D01*
X5848214Y-6005952D01*
X6152976Y-6005952D01*
X4933928Y-5625000D02*
X5010119Y-5586904D01*
X5124404Y-5586904D01*
X5238690Y-5625000D01*
X5314880Y-5701190D01*
X5352976Y-5777380D01*
X5391071Y-5929761D01*
X5391071Y-6044047D01*
X5352976Y-6196428D01*
X5314880Y-6272619D01*
X5238690Y-6348809D01*
X5124404Y-6386904D01*
X5048214Y-6386904D01*
X4933928Y-6348809D01*
X4895833Y-6310714D01*
X4895833Y-6044047D01*
X5048214Y-6044047D01*
X4286309Y-5967857D02*
X4172023Y-6005952D01*
X4133928Y-6044047D01*
X4095833Y-6120238D01*
X4095833Y-6234523D01*
X4133928Y-6310714D01*
X4172023Y-6348809D01*
X4248214Y-6386904D01*
X4552976Y-6386904D01*
X4552976Y-5586904D01*
X4286309Y-5586904D01*
X4210119Y-5625000D01*
X4172023Y-5663095D01*
X4133928Y-5739285D01*
X4133928Y-5815476D01*
X4172023Y-5891666D01*
X4210119Y-5929761D01*
X4286309Y-5967857D01*
X4552976Y-5967857D01*
X3333928Y-6386904D02*
X3791071Y-6386904D01*
X3562500Y-6386904D02*
X3562500Y-5586904D01*
X3638690Y-5701190D01*
X3714880Y-5777380D01*
X3791071Y-5815476D01*
%TO.C,RGB4*%
X95845841Y-54620644D02*
X96174608Y-54291785D01*
X96296039Y-54700026D02*
X96434958Y-53912180D01*
X96134826Y-53859258D01*
X96053178Y-53883544D01*
X96009046Y-53914446D01*
X95958299Y-53982863D01*
X95938454Y-54095413D01*
X95962740Y-54177061D01*
X95993641Y-54221193D01*
X96062059Y-54271940D01*
X96362191Y-54324861D01*
X95227815Y-53738011D02*
X95309463Y-53713725D01*
X95422013Y-53733570D01*
X95527947Y-53790932D01*
X95589749Y-53879195D01*
X95614036Y-53960843D01*
X95625091Y-54117525D01*
X95605246Y-54230074D01*
X95541269Y-54373525D01*
X95490522Y-54441943D01*
X95402259Y-54503745D01*
X95283094Y-54521416D01*
X95208061Y-54508186D01*
X95102127Y-54450824D01*
X95071225Y-54406692D01*
X95117532Y-54144077D01*
X95267598Y-54170538D01*
X94530498Y-53963201D02*
X94411334Y-53980872D01*
X94367202Y-54011773D01*
X94316455Y-54080191D01*
X94296610Y-54192741D01*
X94320896Y-54274389D01*
X94351797Y-54318521D01*
X94420215Y-54369267D01*
X94720347Y-54422189D01*
X94859265Y-53634342D01*
X94596650Y-53588036D01*
X94515002Y-53612322D01*
X94470870Y-53643224D01*
X94420123Y-53711642D01*
X94406893Y-53786675D01*
X94431179Y-53868323D01*
X94462080Y-53912454D01*
X94530498Y-53963201D01*
X94793114Y-54009507D01*
X93687465Y-53698503D02*
X93594852Y-54223734D01*
X93927968Y-53431447D02*
X94016323Y-54027270D01*
X93528609Y-53941273D01*
%TO.C,RGB2*%
X53562166Y-8477138D02*
X53890933Y-8148279D01*
X54012364Y-8556520D02*
X54151283Y-7768674D01*
X53851151Y-7715752D01*
X53769503Y-7740038D01*
X53725371Y-7770940D01*
X53674624Y-7839357D01*
X53654779Y-7951907D01*
X53679065Y-8033555D01*
X53709966Y-8077687D01*
X53778384Y-8128434D01*
X54078516Y-8181355D01*
X52944140Y-7594505D02*
X53025788Y-7570219D01*
X53138338Y-7590064D01*
X53244272Y-7647426D01*
X53306074Y-7735689D01*
X53330361Y-7817337D01*
X53341416Y-7974019D01*
X53321571Y-8086568D01*
X53257594Y-8230019D01*
X53206847Y-8298437D01*
X53118584Y-8360239D01*
X52999419Y-8377910D01*
X52924386Y-8364680D01*
X52818452Y-8307318D01*
X52787550Y-8263186D01*
X52833857Y-8000571D01*
X52983923Y-8027032D01*
X52246823Y-7819695D02*
X52127659Y-7837366D01*
X52083527Y-7868267D01*
X52032780Y-7936685D01*
X52012935Y-8049235D01*
X52037221Y-8130883D01*
X52068122Y-8175015D01*
X52136540Y-8225761D01*
X52436672Y-8278683D01*
X52575590Y-7490836D01*
X52312975Y-7444530D01*
X52231327Y-7468816D01*
X52187195Y-7499718D01*
X52136448Y-7568136D01*
X52123218Y-7643169D01*
X52147504Y-7724817D01*
X52178405Y-7768948D01*
X52246823Y-7819695D01*
X52509439Y-7866001D01*
X51812030Y-7433566D02*
X51781129Y-7389434D01*
X51712711Y-7338688D01*
X51525129Y-7305612D01*
X51443481Y-7329898D01*
X51399349Y-7360799D01*
X51348602Y-7429217D01*
X51335372Y-7504250D01*
X51353043Y-7623415D01*
X51723858Y-8152994D01*
X51236144Y-8066997D01*
%TO.C,D12*%
X67061623Y-65145306D02*
X68538835Y-65405778D01*
X67863499Y-62037333D02*
X68848307Y-62210981D01*
X68848307Y-62210981D02*
X68199620Y-63010484D01*
X68199620Y-63010484D02*
X67863499Y-62037333D01*
X68538835Y-65405778D02*
X69476535Y-60087816D01*
X69476535Y-60087816D02*
X67999323Y-59827344D01*
X67999323Y-59827344D02*
X67061623Y-65145306D01*
X67689851Y-63022141D02*
X68674659Y-63195789D01*
%TO.C,D16*%
X70864208Y-62566439D02*
X70215521Y-63365942D01*
X70215521Y-63365942D02*
X69879400Y-62392791D01*
X70554736Y-65761236D02*
X71492436Y-60443274D01*
X69705752Y-63377599D02*
X70690560Y-63551247D01*
X71492436Y-60443274D02*
X70015224Y-60182802D01*
X70015224Y-60182802D02*
X69077524Y-65500764D01*
X69077524Y-65500764D02*
X70554736Y-65761236D01*
X69879400Y-62392791D02*
X70864208Y-62566439D01*
%TO.C,D21*%
X91701985Y-9224497D02*
X92686793Y-9398145D01*
X92550969Y-11608134D02*
X93488669Y-6290172D01*
X92860441Y-8413337D02*
X92211754Y-9212840D01*
X92211754Y-9212840D02*
X91875633Y-8239689D01*
X92011457Y-6029700D02*
X91073757Y-11347662D01*
X91875633Y-8239689D02*
X92860441Y-8413337D01*
X93488669Y-6290172D02*
X92011457Y-6029700D01*
X91073757Y-11347662D02*
X92550969Y-11608134D01*
%TO.C,D17*%
X89686083Y-8869039D02*
X90670891Y-9042687D01*
X89995555Y-5674242D02*
X89057855Y-10992204D01*
X90195852Y-8857382D02*
X89859731Y-7884231D01*
X90844539Y-8057879D02*
X90195852Y-8857382D01*
X90535067Y-11252676D02*
X91472767Y-5934714D01*
X91472767Y-5934714D02*
X89995555Y-5674242D01*
X89859731Y-7884231D02*
X90844539Y-8057879D01*
X89057855Y-10992204D02*
X90535067Y-11252676D01*
%TO.C,D14*%
X54690578Y-21940722D02*
X54354457Y-20967571D01*
X54354457Y-20967571D02*
X55339265Y-21141219D01*
X53552581Y-24075544D02*
X55029793Y-24336016D01*
X55339265Y-21141219D02*
X54690578Y-21940722D01*
X54180809Y-21952379D02*
X55165617Y-22126027D01*
X54490281Y-18757582D02*
X53552581Y-24075544D01*
X55029793Y-24336016D02*
X55967493Y-19018054D01*
X55967493Y-19018054D02*
X54490281Y-18757582D01*
%TO.C,D23*%
X96974254Y-48740351D02*
X96638133Y-47767200D01*
X97622941Y-47940848D02*
X96974254Y-48740351D01*
X96638133Y-47767200D02*
X97622941Y-47940848D01*
X96464485Y-48752008D02*
X97449293Y-48925656D01*
X95836257Y-50875173D02*
X97313469Y-51135645D01*
X97313469Y-51135645D02*
X98251169Y-45817683D01*
X96773957Y-45557211D02*
X95836257Y-50875173D01*
X98251169Y-45817683D02*
X96773957Y-45557211D01*
%TO.C,D3*%
X17526500Y-37600000D02*
X18526500Y-37600000D01*
X17276500Y-40800000D02*
X18776500Y-40800000D01*
X18776500Y-40800000D02*
X18776500Y-35400000D01*
X17276500Y-35400000D02*
X17276500Y-40800000D01*
X18026500Y-38500000D02*
X17526500Y-37600000D01*
X18776500Y-35400000D02*
X17276500Y-35400000D01*
X17526500Y-38600000D02*
X18526500Y-38600000D01*
X18526500Y-37600000D02*
X18026500Y-38500000D01*
%TO.C,D4*%
X4489000Y-59850000D02*
X4489000Y-54450000D01*
X3239000Y-56650000D02*
X4239000Y-56650000D01*
X3739000Y-57550000D02*
X3239000Y-56650000D01*
X3239000Y-57650000D02*
X4239000Y-57650000D01*
X2989000Y-59850000D02*
X4489000Y-59850000D01*
X4239000Y-56650000D02*
X3739000Y-57550000D01*
X4489000Y-54450000D02*
X2989000Y-54450000D01*
X2989000Y-54450000D02*
X2989000Y-59850000D01*
%TO.C,D5*%
X34861000Y500000D02*
X34361000Y-400000D01*
X33611000Y-2700000D02*
X35111000Y-2700000D01*
X33611000Y2700000D02*
X33611000Y-2700000D01*
X35111000Y-2700000D02*
X35111000Y2700000D01*
X33861000Y-500000D02*
X34861000Y-500000D01*
X34361000Y-400000D02*
X33861000Y500000D01*
X35111000Y2700000D02*
X33611000Y2700000D01*
X33861000Y500000D02*
X34861000Y500000D01*
%TO.C,D10*%
X52674677Y-21585264D02*
X52338556Y-20612113D01*
X52164908Y-21596921D02*
X53149716Y-21770569D01*
X53951592Y-18662596D02*
X52474380Y-18402124D01*
X53323364Y-20785761D02*
X52674677Y-21585264D01*
X53013892Y-23980558D02*
X53951592Y-18662596D01*
X51536680Y-23720086D02*
X53013892Y-23980558D01*
X52474380Y-18402124D02*
X51536680Y-23720086D01*
X52338556Y-20612113D02*
X53323364Y-20785761D01*
D11*
%TO.C,U1*%
X17462500Y6985000D02*
X14922500Y6985000D01*
X17462500Y6985000D02*
X17462500Y4445000D01*
X17462500Y4445000D02*
X14922500Y4445000D01*
X14922500Y-23495000D02*
X32702500Y-23495000D01*
X32702500Y-23495000D02*
X32702500Y9525000D01*
X14922500Y9525000D02*
X32702500Y9525000D01*
X14922500Y9525000D02*
X14922500Y-23495000D01*
D10*
%TO.C,D7*%
X20823500Y-35400000D02*
X19323500Y-35400000D01*
X20823500Y-40800000D02*
X20823500Y-35400000D01*
X19323500Y-35400000D02*
X19323500Y-40800000D01*
X19573500Y-37600000D02*
X20573500Y-37600000D01*
X19573500Y-38600000D02*
X20573500Y-38600000D01*
X19323500Y-40800000D02*
X20823500Y-40800000D01*
X20073500Y-38500000D02*
X19573500Y-37600000D01*
X20573500Y-37600000D02*
X20073500Y-38500000D01*
%TO.C,D15*%
X58943309Y-42136013D02*
X59928117Y-42309661D01*
X60101765Y-41324853D02*
X59453078Y-42124356D01*
X59453078Y-42124356D02*
X59116957Y-41151205D01*
X58315081Y-44259178D02*
X59792293Y-44519650D01*
X59792293Y-44519650D02*
X60729993Y-39201688D01*
X59116957Y-41151205D02*
X60101765Y-41324853D01*
X60729993Y-39201688D02*
X59252781Y-38941216D01*
X59252781Y-38941216D02*
X58315081Y-44259178D01*
%TO.C,D24*%
X110926944Y-63208007D02*
X112404156Y-63468479D01*
X113341856Y-58150517D02*
X111864644Y-57890045D01*
X112713628Y-60273682D02*
X112064941Y-61073185D01*
X111555172Y-61084842D02*
X112539980Y-61258490D01*
X112404156Y-63468479D02*
X113341856Y-58150517D01*
X111864644Y-57890045D02*
X110926944Y-63208007D01*
X111728820Y-60100034D02*
X112713628Y-60273682D01*
X112064941Y-61073185D02*
X111728820Y-60100034D01*
%TO.C,D6*%
X33611000Y-21750000D02*
X35111000Y-21750000D01*
X33861000Y-19550000D02*
X34861000Y-19550000D01*
X35111000Y-21750000D02*
X35111000Y-16350000D01*
X33861000Y-18550000D02*
X34861000Y-18550000D01*
X33611000Y-16350000D02*
X33611000Y-21750000D01*
X34361000Y-19450000D02*
X33861000Y-18550000D01*
X35111000Y-16350000D02*
X33611000Y-16350000D01*
X34861000Y-18550000D02*
X34361000Y-19450000D01*
%TO.C,D22*%
X91701985Y-28568374D02*
X92686793Y-28742022D01*
X91073757Y-30691539D02*
X92550969Y-30952011D01*
X91875633Y-27583566D02*
X92860441Y-27757214D01*
X92211754Y-28556717D02*
X91875633Y-27583566D01*
X93488669Y-25634049D02*
X92011457Y-25373577D01*
X92550969Y-30952011D02*
X93488669Y-25634049D01*
X92860441Y-27757214D02*
X92211754Y-28556717D01*
X92011457Y-25373577D02*
X91073757Y-30691539D01*
%TO.C,D11*%
X56299180Y-43903720D02*
X57776392Y-44164192D01*
X56927408Y-41780555D02*
X57912216Y-41954203D01*
X57101056Y-40795747D02*
X58085864Y-40969395D01*
X57236880Y-38585758D02*
X56299180Y-43903720D01*
X58085864Y-40969395D02*
X57437177Y-41768898D01*
X57437177Y-41768898D02*
X57101056Y-40795747D01*
X57776392Y-44164192D02*
X58714092Y-38846230D01*
X58714092Y-38846230D02*
X57236880Y-38585758D01*
%TO.C,D18*%
X89686083Y-28212916D02*
X90670891Y-28386564D01*
X91472767Y-25278591D02*
X89995555Y-25018119D01*
X90844539Y-27401756D02*
X90195852Y-28201259D01*
X89057855Y-30336081D02*
X90535067Y-30596553D01*
X90195852Y-28201259D02*
X89859731Y-27228108D01*
X90535067Y-30596553D02*
X91472767Y-25278591D01*
X89995555Y-25018119D02*
X89057855Y-30336081D01*
X89859731Y-27228108D02*
X90844539Y-27401756D01*
%TO.C,D9*%
X52338556Y-1268236D02*
X53323364Y-1441884D01*
X52474380Y941753D02*
X51536680Y-4376209D01*
X53951592Y681281D02*
X52474380Y941753D01*
X53323364Y-1441884D02*
X52674677Y-2241387D01*
X52164908Y-2253044D02*
X53149716Y-2426692D01*
X52674677Y-2241387D02*
X52338556Y-1268236D01*
X51536680Y-4376209D02*
X53013892Y-4636681D01*
X53013892Y-4636681D02*
X53951592Y681281D01*
%TO.C,D8*%
X5786000Y-57550000D02*
X5286000Y-56650000D01*
X6536000Y-59850000D02*
X6536000Y-54450000D01*
X6536000Y-54450000D02*
X5036000Y-54450000D01*
X5036000Y-54450000D02*
X5036000Y-59850000D01*
X5286000Y-56650000D02*
X6286000Y-56650000D01*
X5036000Y-59850000D02*
X6536000Y-59850000D01*
X6286000Y-56650000D02*
X5786000Y-57550000D01*
X5286000Y-57650000D02*
X6286000Y-57650000D01*
%TO.C,D2*%
X13764000Y-18550000D02*
X13264000Y-19450000D01*
X12514000Y-16350000D02*
X12514000Y-21750000D01*
X14014000Y-16350000D02*
X12514000Y-16350000D01*
X12514000Y-21750000D02*
X14014000Y-21750000D01*
X13264000Y-19450000D02*
X12764000Y-18550000D01*
X14014000Y-21750000D02*
X14014000Y-16350000D01*
X12764000Y-18550000D02*
X13764000Y-18550000D01*
X12764000Y-19550000D02*
X13764000Y-19550000D01*
%TO.C,D20*%
X113744722Y-60455492D02*
X114729530Y-60629140D01*
X112942846Y-63563465D02*
X114420058Y-63823937D01*
X114080843Y-61428643D02*
X113744722Y-60455492D01*
X114420058Y-63823937D02*
X115357758Y-58505975D01*
X113880546Y-58245503D02*
X112942846Y-63563465D01*
X115357758Y-58505975D02*
X113880546Y-58245503D01*
X114729530Y-60629140D02*
X114080843Y-61428643D01*
X113571074Y-61440300D02*
X114555882Y-61613948D01*
%TO.C,D13*%
X55029793Y-4992139D02*
X55967493Y325823D01*
X54690578Y-2596845D02*
X54354457Y-1623694D01*
X55967493Y325823D02*
X54490281Y586295D01*
X54180809Y-2608502D02*
X55165617Y-2782150D01*
X55339265Y-1797342D02*
X54690578Y-2596845D01*
X54490281Y586295D02*
X53552581Y-4731667D01*
X54354457Y-1623694D02*
X55339265Y-1797342D01*
X53552581Y-4731667D02*
X55029793Y-4992139D01*
%TO.C,D1*%
X14014000Y-2700000D02*
X14014000Y2700000D01*
X12514000Y2700000D02*
X12514000Y-2700000D01*
X13264000Y-400000D02*
X12764000Y500000D01*
X12764000Y-500000D02*
X13764000Y-500000D01*
X12514000Y-2700000D02*
X14014000Y-2700000D01*
X13764000Y500000D02*
X13264000Y-400000D01*
X12764000Y500000D02*
X13764000Y500000D01*
X14014000Y2700000D02*
X12514000Y2700000D01*
%TO.C,D19*%
X94622231Y-47411743D02*
X95607039Y-47585391D01*
X96235267Y-45462226D02*
X94758055Y-45201754D01*
X94448583Y-48396551D02*
X95433391Y-48570199D01*
X95297567Y-50780188D02*
X96235267Y-45462226D01*
X94958352Y-48384894D02*
X94622231Y-47411743D01*
X94758055Y-45201754D02*
X93820355Y-50519716D01*
X95607039Y-47585391D02*
X94958352Y-48384894D01*
X93820355Y-50519716D02*
X95297567Y-50780188D01*
D12*
%TO.C,RGB6*%
X4861625Y-45025000D02*
X-2138375Y-45025000D01*
X-2338375Y-50225000D02*
X-2338375Y-48732491D01*
X4861625Y-50225000D02*
X-2338375Y-50225000D01*
%TO.C,RGB5*%
X59855930Y-54101267D02*
X52765314Y-52851000D01*
X60758900Y-48980266D02*
X53865246Y-47764729D01*
X52765314Y-52851000D02*
X53024486Y-51381165D01*
D10*
%TO.C,U2*%
X76823041Y1547861D02*
X74721898Y-10368313D01*
X70815714Y2607115D02*
X68714571Y-9309059D01*
X71061916Y2563703D02*
X71409212Y4533319D01*
X71409212Y4533319D02*
X76924135Y3560889D01*
X68714571Y-9309059D02*
X74721898Y-10368313D01*
X70815714Y2607115D02*
X76823041Y1547861D01*
X76576839Y1591273D02*
X76924135Y3560889D01*
D12*
%TO.C,RGB3*%
X85523989Y-19939484D02*
X85783161Y-18469649D01*
X93517575Y-16068750D02*
X86623921Y-14853213D01*
X92614605Y-21189751D02*
X85523989Y-19939484D01*
%TO.C,RGB1*%
X8262500Y-12125000D02*
X1062500Y-12125000D01*
X1062500Y-12125000D02*
X1062500Y-10632491D01*
X8262500Y-6925000D02*
X1262500Y-6925000D01*
%TO.C,RGB4*%
X98280075Y-55596261D02*
X91386421Y-54380724D01*
X90286489Y-59466995D02*
X90545661Y-57997160D01*
X97377105Y-60717262D02*
X90286489Y-59466995D01*
%TO.C,RGB2*%
X48002814Y-13323489D02*
X48261986Y-11853654D01*
X55093430Y-14573756D02*
X48002814Y-13323489D01*
X55996400Y-9452755D02*
X49102746Y-8237218D01*
%TD*%
M02*
