M48
; DRILL file {KiCad (6.0.7)} date Tue Apr 18 20:13:43 2023
; FORMAT={-:-/ absolute / metric / decimal}
; #@! TF.CreationDate,2023-04-18T20:13:43+02:00
; #@! TF.GenerationSoftware,Kicad,Pcbnew,(6.0.7)
; #@! TF.FileFunction,NonPlated,1,2,NPTH
FMAT,2
METRIC
; #@! TA.AperFunction,NonPlated,NPTH,ComponentDrill
T1C0.800
; #@! TA.AperFunction,NonPlated,NPTH,ComponentDrill
T2C1.750
; #@! TA.AperFunction,NonPlated,NPTH,ComponentDrill
T3C2.100
; #@! TA.AperFunction,NonPlated,NPTH,ComponentDrill
T4C3.048
; #@! TA.AperFunction,NonPlated,NPTH,ComponentDrill
T5C3.988
%
G90
G05
T1
X72.326Y-6.392
X73.542Y0.502
T2
X-12.224Y-19.05
X-12.224Y-57.15
X-7.461Y-19.05
X-7.461Y-38.1
X-5.08Y0.0
X-2.064Y-19.05
X-2.064Y-57.15
X2.699Y-19.05
X2.699Y-38.1
X5.08Y0.0
X9.207Y-57.15
X11.589Y-57.15
X18.732Y0.0
X18.732Y-19.05
X19.367Y-57.15
X21.749Y-57.15
X23.495Y-38.1
X28.892Y0.0
X28.892Y-19.05
X33.655Y-38.1
X39.369Y0.511
X39.369Y-18.833
X44.131Y-39.017
X49.375Y-1.253
X49.375Y-20.597
X52.549Y-59.845
X54.137Y-40.781
X54.894Y-60.258
X58.13Y-2.797
X58.13Y-22.141
X62.554Y-61.609
X62.892Y-42.325
X64.9Y-62.022
X68.135Y-4.561
X68.135Y-23.905
X72.898Y-44.089
X76.89Y-6.105
X76.89Y-25.449
X81.653Y-45.633
X85.38Y-65.634
X86.896Y-7.869
X86.896Y-27.213
X91.658Y-47.397
X95.386Y-67.398
X95.651Y-9.413
X95.651Y-28.757
X100.413Y-48.941
X105.656Y-11.177
X105.656Y-30.521
X110.419Y-50.705
X115.866Y-71.009
X119.174Y-52.249
X121.641Y-67.514
X123.405Y-57.508
X125.871Y-72.773
X129.179Y-54.013
T3
X-17.568Y-65.193
X-12.805Y8.043
X26.593Y-66.713
X27.543Y-55.855
X46.118Y-68.422
X47.068Y-57.563
X109.971Y-3.771
X127.393Y-81.209
X133.494Y-46.607
T4
X-14.287Y-31.115
X9.525Y-31.115
X77.444Y-71.327
X100.895Y-75.462
X127.334Y-75.449
X131.469Y-51.999
T5
X-14.287Y-46.355
X-7.144Y-19.05
X-7.144Y-57.15
X-2.381Y-19.05
X-2.381Y-38.1
X0.0Y0.0
X9.525Y-46.355
X14.287Y-57.15
X16.669Y-57.15
X23.812Y0.0
X23.812Y-19.05
X28.575Y-38.1
X44.372Y-0.371
X44.372Y-19.715
X49.134Y-39.899
X57.552Y-60.727
X59.897Y-61.14
X63.132Y-3.679
X63.132Y-23.023
X67.895Y-43.207
X80.091Y-56.319
X81.893Y-6.987
X81.893Y-26.331
X86.655Y-46.515
X90.383Y-66.516
X100.654Y-10.295
X100.654Y-29.639
X103.542Y-60.454
X105.416Y-49.823
X112.326Y-72.803
X116.461Y-49.352
X120.869Y-71.891
X122.523Y-62.511
X124.177Y-53.131
T0
M30
