M48
; DRILL file {KiCad (6.0.7)} date Tue Apr 18 20:13:43 2023
; FORMAT={-:-/ absolute / metric / decimal}
; #@! TF.CreationDate,2023-04-18T20:13:43+02:00
; #@! TF.GenerationSoftware,Kicad,Pcbnew,(6.0.7)
; #@! TF.FileFunction,Plated,1,2,PTH
FMAT,2
METRIC
; #@! TA.AperFunction,Plated,PTH,ViaDrill
T1C0.400
; #@! TA.AperFunction,Plated,PTH,ComponentDrill
T2C0.813
; #@! TA.AperFunction,Plated,PTH,ComponentDrill
T3C0.900
; #@! TA.AperFunction,Plated,PTH,ComponentDrill
T4C1.000
; #@! TA.AperFunction,Plated,PTH,ComponentDrill
T5C1.092
; #@! TA.AperFunction,Plated,PTH,ComponentDrill
T6C1.470
; #@! TA.AperFunction,Plated,PTH,ComponentDrill
T7C1.500
%
G90
G05
T1
X0.862Y-46.025
X0.862Y-49.225
X1.862Y-46.025
X1.862Y-49.225
X4.263Y-7.925
X4.263Y-11.125
X5.263Y-7.925
X5.263Y-11.125
X13.264Y-9.525
X17.096Y-25.781
X28.352Y-4.965
X28.892Y-22.225
X29.324Y-7.845
X35.164Y-8.98
X51.328Y-12.894
X51.884Y-9.743
X52.313Y-13.068
X52.868Y-9.917
X56.09Y-52.422
X56.646Y-49.27
X57.075Y-52.596
X57.631Y-49.444
X88.849Y-19.51
X89.405Y-16.359
X89.834Y-19.684
X90.39Y-16.533
X93.612Y-59.038
X94.167Y-55.886
X94.596Y-59.212
X95.152Y-56.06
X96.239Y-17.564
X97.224Y-17.738
X120.943Y-57.074
T2
X3.739Y-53.34
X3.739Y-60.96
X5.786Y-53.34
X5.786Y-60.96
X13.264Y3.81
X13.264Y-3.81
X13.264Y-15.24
X13.264Y-22.86
X18.026Y-34.29
X18.026Y-41.91
X20.073Y-34.29
X20.073Y-41.91
X34.361Y3.81
X34.361Y-3.81
X34.361Y-15.24
X34.361Y-22.86
X52.083Y-5.6
X52.083Y-24.943
X53.406Y1.905
X53.406Y-17.439
X54.098Y-5.955
X54.098Y-25.299
X55.422Y1.549
X55.422Y-17.795
X56.845Y-45.127
X58.168Y-37.623
X58.861Y-45.483
X60.184Y-37.978
X67.607Y-66.369
X68.931Y-58.864
X69.623Y-66.724
X70.947Y-59.22
X89.604Y-12.216
X89.604Y-31.559
X90.927Y-4.711
X90.927Y-24.055
X91.62Y-12.571
X91.62Y-31.915
X92.943Y-5.067
X92.943Y-24.411
X94.366Y-51.743
X95.689Y-44.239
X96.382Y-52.099
X97.705Y-44.594
X111.473Y-64.431
X112.796Y-56.927
X113.489Y-64.787
X114.812Y-57.283
T4
X120.412Y-60.083
X122.874Y-60.517
X122.93Y-45.803
X125.336Y-60.951
X127.854Y-46.671
T5
X16.192Y5.715
X16.192Y3.175
X16.192Y0.635
X16.192Y-1.905
X16.192Y-4.445
X16.192Y-6.985
X16.192Y-9.525
X16.192Y-12.065
X16.192Y-14.605
X16.192Y-17.145
X16.192Y-19.685
X16.192Y-22.225
X31.432Y5.715
X31.432Y3.175
X31.432Y0.635
X31.432Y-1.905
X31.432Y-4.445
X31.432Y-6.985
X31.432Y-9.525
X31.432Y-12.065
X31.432Y-14.605
X31.432Y-17.145
X31.432Y-19.685
X31.432Y-22.225
X32.859Y-49.243
X35.389Y-49.464
X37.92Y-49.686
X40.45Y-49.907
X42.98Y-50.129
T6
X-10.954Y-16.51
X-10.954Y-54.61
X-6.191Y-16.51
X-6.191Y-35.56
X-4.604Y-13.97
X-4.604Y-52.07
X-3.81Y2.54
X0.159Y-13.97
X0.159Y-33.02
X2.54Y5.08
X10.477Y-54.61
X12.859Y-54.61
X16.828Y-52.07
X19.209Y-52.07
X20.002Y2.54
X20.002Y-16.51
X24.765Y-35.56
X26.352Y5.08
X26.352Y-13.97
X31.115Y-33.02
X41.061Y2.792
X41.061Y-16.552
X45.823Y-36.736
X47.755Y4.191
X47.755Y-15.153
X52.518Y-35.337
X54.241Y-57.564
X56.586Y-57.977
X59.821Y-0.516
X59.821Y-19.86
X60.935Y-56.165
X63.28Y-56.579
X64.584Y-40.044
X66.516Y0.883
X66.516Y-18.461
X71.278Y-38.645
X78.582Y-3.824
X78.582Y-23.168
X83.344Y-43.352
X85.277Y-2.425
X85.277Y-21.769
X87.072Y-63.353
X90.039Y-41.953
X93.766Y-61.954
X97.343Y-7.132
X97.343Y-26.476
X102.105Y-46.66
X104.037Y-5.733
X104.037Y-25.077
X108.8Y-45.261
X117.558Y-68.728
X117.961Y-59.127
X119.36Y-65.822
X120.866Y-49.968
X124.252Y-67.33
X127.56Y-48.569
T3
G00X69.748Y-7.765
M15
G01X69.818Y-7.371
M16
G05
G00X70.443Y-3.826
M15
G01X70.512Y-3.432
M16
G05
G00X70.964Y-0.871
M15
G01X71.033Y-0.478
M16
G05
G00X74.087Y-9.647
M15
G01X74.157Y-9.253
M16
G05
T7
G00X118.549Y-52.798
M15
G01X118.775Y-51.518
M16
G05
G00X129.579Y-54.743
M15
G01X129.804Y-53.463
M16
G05
T0
M30
