  0
SECTION
  2
HEADER
  9
$ANGBASE
  50
0.0
  9
$ANGDIR
  70
1
  9
$MEASUREMENT
  70
1
  0
ENDSEC
  0
SECTION
  2
TABLES
  0
TABLE
  2
LTYPE
  70
4
  0
LTYPE
  5
40F
  2
CONTINUOUS
  70
0
  3
Solid line
  72
65
  73
0
  40
0.0
  0
LTYPE
  5
410
  2
DASHDOT
 70
0
  3
Dash Dot ____ _ ____ _
 72
65
 73
4
 40
2.0
 49
1.25
 49
-0.25
 49
0.25
 49
-0.25
  0
LTYPE
  5
411
  2
DASHED
 70
0
  3
Dashed __ __ __ __ __
 72
65
 73
2
 40
0.75
 49
0.5
 49
-0.25
  0
LTYPE
  5
43B
  2
DOTTED
 70
0
  3
Dotted .  .  .  .
 72
65
 73
2
 40
0.2
 49
0.0
 49
-0.2
  0
ENDTAB
  0
TABLE
  2
STYLE
  70
4
  0
STYLE
  2
KICAD
  70
0
  40
0
  41
1
  42
1
  50
0
  71
0
  3
isocp.shx
  0
STYLE
  2
KICADB
  70
0
  40
0
  41
1
  42
1
  50
0
  71
0
  3
isocp.shx
  0
STYLE
  2
KICADI
  70
0
  40
0
  41
1
  42
1
  50
15
  71
0
  3
isocp.shx
  0
STYLE
  2
KICADBI
  70
0
  40
0
  41
1
  42
1
  50
15
  71
0
  3
isocp.shx
  0
ENDTAB
  0
TABLE
  2
LAYER
  70
1
  0
LAYER
  2
BLACK
  70
0
  62
7
  6
CONTINUOUS
  0
ENDTAB
  0
ENDSEC
  0
SECTION
  2
ENTITIES
0
LINE
8
BLACK
6
CONTINUOUS
10
135.037
20
-46.3892
11
128.769
21
-81.9408
0
LINE
8
BLACK
6
CONTINUOUS
10
-14.2875
20
-8.525
11
-14.2875
21
8.525
0
LINE
8
BLACK
6
CONTINUOUS
10
-13.2875
20
9.525
11
43.0125
21
9.525
0
ARC
8
BLACK
10
-22.8125
20
-29.575
40
0.999999
50
-270
51
-180
0
ARC
8
BLACK
10
134.053
20
-46.2155
40
0.999919
50
-10.0046
51
80.0061
0
LINE
8
BLACK
6
CONTINUOUS
10
-22.8125
20
-28.575
11
-20.05
21
-28.575
0
LINE
8
BLACK
6
CONTINUOUS
10
-20.05
20
-47.625
11
-22.8125
21
-47.625
0
LINE
8
BLACK
6
CONTINUOUS
10
-19.05
20
-65.675
11
-19.05
21
-48.625
0
ARC
8
BLACK
10
110.529
20
-22.7239
40
0.99997
50
-10.0017
51
80.0001
0
ARC
8
BLACK
10
22.7943
20
-67.675
40
1
50
-5.00009
51
90.0009
0
ARC
8
BLACK
10
24.7639
20
-68.1094
40
0.999908
50
-185.005
51
-94.9989
0
ARC
8
BLACK
10
43.0125
20
8.5253
40
0.9997
50
79.9976
51
90.0007
0
LINE
8
BLACK
6
CONTINUOUS
10
22.7943
20
-66.675
11
-18.05
21
-66.675
0
ARC
8
BLACK
10
127.784
20
-81.7671
40
1.00008
50
-99.9952
51
-10.0004
0
ARC
8
BLACK
10
47.6764
20
-70.1139
40
1
50
-94.9998
51
-4.99953
0
LINE
8
BLACK
6
CONTINUOUS
10
-19.05
20
-27.575
11
-19.05
21
-10.525
0
ARC
8
BLACK
10
110.529
20
-3.38
40
0.99993
50
-10.004
51
80.0055
0
ARC
8
BLACK
10
109.538
20
-20.5183
40
1.00002
50
-189.999
51
-99.9994
0
LINE
8
BLACK
6
CONTINUOUS
10
24.6768
20
-69.1055
11
47.5892
21
-71.1101
0
LINE
8
BLACK
6
CONTINUOUS
10
111.514
20
-3.5537
11
108.553
21
-20.3447
0
ARC
8
BLACK
10
-15.2875
20
-8.525
40
0.999999
50
-90.0001
51
5.72958e-05
0
LINE
8
BLACK
6
CONTINUOUS
10
109.365
20
-40.847
11
134.226
21
-45.2308
0
ARC
8
BLACK
10
109.538
20
-39.8622
40
0.999996
50
-190
51
-99.9996
0
LINE
8
BLACK
6
CONTINUOUS
10
127.61
20
-82.7519
11
49.8652
21
-69.0434
0
ARC
8
BLACK
10
-18.05
20
-10.525
40
0.999999
50
-270
51
-180
0
LINE
8
BLACK
6
CONTINUOUS
10
-23.8125
20
-46.625
11
-23.8125
21
-29.575
0
ARC
8
BLACK
10
-20.05
20
-48.625
40
0.999999
50
-5.72958e-05
51
90.0001
0
LINE
8
BLACK
6
CONTINUOUS
10
-18.05
20
-9.525
11
-15.2875
21
-9.525
0
ARC
8
BLACK
10
-22.8125
20
-46.625
40
0.999999
50
-180
51
-89.9999
0
LINE
8
BLACK
6
CONTINUOUS
10
23.7905
20
-67.7622
11
23.7677
21
-68.0222
0
LINE
8
BLACK
6
CONTINUOUS
10
48.6953
20
-69.941
11
48.6726
21
-70.201
0
ARC
8
BLACK
10
-13.2875
20
8.525
40
0.999999
50
-270
51
-180
0
ARC
8
BLACK
10
-18.05
20
-65.675
40
0.999999
50
-180
51
-89.9999
0
LINE
8
BLACK
6
CONTINUOUS
10
43.1861
20
9.50981
11
110.703
21
-2.39524
0
LINE
8
BLACK
6
CONTINUOUS
10
109.365
20
-21.5031
11
110.703
21
-21.7391
0
ARC
8
BLACK
10
49.6916
20
-70.0282
40
1.00006
50
80.0032
51
175.001
0
LINE
8
BLACK
6
CONTINUOUS
10
111.514
20
-22.8976
11
108.553
21
-39.6885
0
ARC
8
BLACK
10
-20.05
20
-27.575
40
0.999999
50
-90.0001
51
5.72958e-05
  0
ENDSEC
  0
EOF
