999
dxflib 3.26.4.0
  0
SECTION
  2
HEADER
  9
$ACADVER
  1
AC1015
  9
$HANDSEED
  5
FFFF
  9
$ANGBASE
 50
0.0
  9
$ANGDIR
 70
1
  9
$DIMADEC
 70
0
  9
$DIMASZ
 40
0.18
  9
$DIMATFIT
 70
0
  9
$DIMAUNIT
 70
0
  9
$DIMAZIN
 70
0
  9
$DIMBLK
  1
0
  9
$DIMBLK1
  1
0
  9
$DIMBLK2
  1
0
  9
$DIMDEC
 70
4
  9
$DIMDLI
 40
0.36
  9
$DIMDSEP
 70
0
  9
$DIMEXE
 40
0.18
  9
$DIMEXO
 40
0.0625
  9
$DIMGAP
 40
0.09
  9
$DIMLFAC
 40
0.0
  9
$DIMLUNIT
 70
2
  9
$DIMSCALE
 40
0.0
  9
$DIMTAD
 70
0
  9
$DIMTIH
 70
0
  9
$DIMTSZ
 40
0.0
  9
$DIMTXT
 40
0.18
  9
$DIMZIN
 70
0
  9
$DWGCODEPAGE
  3
ANSI_1252
  9
$INSUNITS
 70
0
  9
$LTSCALE
 40
1.0
  9
$MAXACTVP
 70
64
  9
$MEASUREMENT
 70
1
  9
$MIRRTEXT
 70
0
  9
$PDMODE
 70
0
  9
$PDSIZE
 40
0.0
  0
ENDSEC
  0
SECTION
  2
TABLES
  0
TABLE
  2
VPORT
  5
8
100
AcDbSymbolTable
 70
1
  0
VPORT
  5
30
100
AcDbSymbolTableRecord
100
AcDbViewportTableRecord
  2
*Active
 70
0
 10
0.0
 20
0.0
 11
1.0
 21
1.0
 12
286.3055555555554861
 22
148.5
 13
0.0
 23
0.0
 14
10.0
 24
10.0
 15
10.0
 25
10.0
 16
0.0
 26
0.0
 36
1.0
 17
0.0
 27
0.0
 37
0.0
 40
297.0
 41
1.92798353909465
 42
50.0
 43
0.0
 44
0.0
 50
0.0
 51
0.0
 71
0
 72
100
 73
1
 74
3
 75
1
 76
1
 77
0
 78
0
281
0
 65
1
110
0.0
120
0.0
130
0.0
111
1.0
121
0.0
131
0.0
112
0.0
122
1.0
132
0.0
 79
0
146
0.0
  0
ENDTAB
  0
TABLE
  2
LTYPE
  5
5
100
AcDbSymbolTable
 70
42
  0
LTYPE
  5
16
100
AcDbSymbolTableRecord
100
AcDbLinetypeTableRecord
  2
CONTINUOUS
 70
0
  3
Solid line
 72
65
 73
0
 40
0.0
  0
LTYPE
  5
31
100
AcDbSymbolTableRecord
100
AcDbLinetypeTableRecord
  2
DASHED
 70
0
  3
Dashed __ __ __ __ __
 72
65
 73
2
 40
0.75
 49
0.5
 74
0
 49
-0.25
 74
0
  0
LTYPE
  5
32
100
AcDbSymbolTableRecord
100
AcDbLinetypeTableRecord
  2
DASHDOTX2
 70
0
  3
Dash dot (2x) ____  .  ____  .  ____  .  ___
 72
65
 73
4
 40
50.7999999999999972
 49
25.3999999999999986
 74
0
 49
-12.6499999999999986
 74
0
 49
0.1
 74
0
 49
-12.6499999999999986
 74
0
  0
LTYPE
  5
33
100
AcDbSymbolTableRecord
100
AcDbLinetypeTableRecord
  2
ACAD_ISO06W100
 70
0
  3
ISO long-dash triple-dot ____ ... ____ ... ____
 72
65
 73
8
 40
36.0000000000000071
 49
24.0
 74
0
 49
-2.9500000000000002
 74
0
 49
0.1
 74
0
 49
-2.9000000000000004
 74
0
 49
0.1
 74
0
 49
-2.9000000000000004
 74
0
 49
0.1
 74
0
 49
-2.9500000000000002
 74
0
  0
LTYPE
  5
34
100
AcDbSymbolTableRecord
100
AcDbLinetypeTableRecord
  2
CENTERX2
 70
0
  3
Center (2x) ________  __  ________  __  _____
 72
65
 73
4
 40
101.6000000000000085
 49
63.5
 74
0
 49
-12.6999999999999993
 74
0
 49
12.6999999999999993
 74
0
 49
-12.6999999999999993
 74
0
  0
LTYPE
  5
35
100
AcDbSymbolTableRecord
100
AcDbLinetypeTableRecord
  2
ACAD_ISO04W100
 70
0
  3
ISO long-dash dot ____ . ____ . ____ . ____ . _
 72
65
 73
4
 40
30.0
 49
24.0
 74
0
 49
-2.9500000000000002
 74
0
 49
0.1
 74
0
 49
-2.9500000000000002
 74
0
  0
LTYPE
  5
36
100
AcDbSymbolTableRecord
100
AcDbLinetypeTableRecord
  2
ACAD_ISO03W100
 70
0
  3
ISO dash space __    __    __    __    __    __
 72
65
 73
2
 40
30.0
 49
12.0
 74
0
 49
-18.0
 74
0
  0
LTYPE
  5
37
100
AcDbSymbolTableRecord
100
AcDbLinetypeTableRecord
  2
CENTER2
 70
0
  3
Center (.5x) ___ _ ___ _ ___ _ ___ _ ___ _ ___
 72
65
 73
4
 40
28.5750000000000028
 49
19.0500000000000007
 74
0
 49
-3.1749999999999998
 74
0
 49
3.1749999999999998
 74
0
 49
-3.1749999999999998
 74
0
  0
LTYPE
  5
38
100
AcDbSymbolTableRecord
100
AcDbLinetypeTableRecord
  2
BORDERX2
 70
0
  3
Border (2x) ____  ____  .  ____  ____  .  ___
 72
65
 73
6
 40
88.8999999999999773
 49
25.3999999999999986
 74
0
 49
-12.6999999999999993
 74
0
 49
25.3999999999999986
 74
0
 49
-12.6499999999999986
 74
0
 49
0.1
 74
0
 49
-12.6499999999999986
 74
0
  0
LTYPE
  5
39
100
AcDbSymbolTableRecord
100
AcDbLinetypeTableRecord
  2
DASHEDX2
 70
0
  3
Dashed (2x) ____  ____  ____  ____  ____  ___
 72
65
 73
2
 40
38.0999999999999943
 49
25.3999999999999986
 74
0
 49
-12.6999999999999993
 74
0
  0
LTYPE
  5
3A
100
AcDbSymbolTableRecord
100
AcDbLinetypeTableRecord
  2
DOTX2
 70
0
  3
Dot (2x) .  .  .  .  .  .  .  .  .  .  .  .  .  .
 72
65
 73
2
 40
12.6999999999999993
 49
0.1
 74
0
 49
-12.5999999999999996
 74
0
  0
LTYPE
  5
3B
100
AcDbSymbolTableRecord
100
AcDbLinetypeTableRecord
  2
DOT2
 70
0
  3
Dot (.5x) ........................................
 72
65
 73
2
 40
3.1749999999999998
 49
0.1
 74
0
 49
-3.0749999999999997
 74
0
  0
LTYPE
  5
3C
100
AcDbSymbolTableRecord
100
AcDbLinetypeTableRecord
  2
ACAD_ISO07W100
 70
0
  3
ISO dot . . . . . . . . . . . . . . . . . . . . 
 72
65
 73
2
 40
3.0
 49
0.1
 74
0
 49
-2.8999999999999999
 74
0
  0
LTYPE
  5
3D
100
AcDbSymbolTableRecord
100
AcDbLinetypeTableRecord
  2
ACAD_ISO08W100
 70
0
  3
ISO long-dash short-dash ____ __ ____ __ ____ _
 72
65
 73
4
 40
36.0
 49
24.0
 74
0
 49
-3.0
 74
0
 49
6.0
 74
0
 49
-3.0
 74
0
  0
LTYPE
  5
3E
100
AcDbSymbolTableRecord
100
AcDbLinetypeTableRecord
  2
ACAD_ISO02W100
 70
0
  3
ISO dash __ __ __ __ __ __ __ __ __ __ __ __ __
 72
65
 73
2
 40
15.0
 49
12.0
 74
0
 49
-3.0
 74
0
  0
LTYPE
  5
3F
100
AcDbSymbolTableRecord
100
AcDbLinetypeTableRecord
  2
DASHDOT2
 70
0
  3
Dash dot (.5x) _._._._._._._._._._._._._._._.
 72
65
 73
4
 40
12.6999999999999993
 49
6.3499999999999996
 74
0
 49
-3.125
 74
0
 49
0.1
 74
0
 49
-3.125
 74
0
  0
LTYPE
  5
40
100
AcDbSymbolTableRecord
100
AcDbLinetypeTableRecord
  2
PHANTOMX2
 70
0
  3
Phantom (2x) ____________    ____    ____   _
 72
65
 73
6
 40
127.0000000000000142
 49
63.5
 74
0
 49
-12.6999999999999993
 74
0
 49
12.6999999999999993
 74
0
 49
-12.6999999999999993
 74
0
 49
12.6999999999999993
 74
0
 49
-12.6999999999999993
 74
0
  0
LTYPE
  5
41
100
AcDbSymbolTableRecord
100
AcDbLinetypeTableRecord
  2
ACAD_ISO12W100
 70
0
  3
ISO dash double-dot __ . . __ . . __ . . __ . . 
 72
65
 73
6
 40
21.0
 49
12.0
 74
0
 49
-2.9500000000000002
 74
0
 49
0.1
 74
0
 49
-2.9000000000000004
 74
0
 49
0.1
 74
0
 49
-2.9500000000000002
 74
0
  0
LTYPE
  5
42
100
AcDbSymbolTableRecord
100
AcDbLinetypeTableRecord
  2
ACAD_ISO10W100
 70
0
  3
ISO dash dot __ . __ . __ . __ . __ . __ . __ . 
 72
65
 73
4
 40
18.0
 49
12.0
 74
0
 49
-2.9500000000000002
 74
0
 49
0.1
 74
0
 49
-2.9500000000000002
 74
0
  0
LTYPE
  5
43
100
AcDbSymbolTableRecord
100
AcDbLinetypeTableRecord
  2
HIDDEN2
 70
0
  3
Hidden (.5x) _ _ _ _ _ _ _ _ _ _ _ _ _ _ _ _ _ 
 72
65
 73
2
 40
4.7624999999999993
 49
3.1749999999999998
 74
0
 49
-1.5874999999999999
 74
0
  0
LTYPE
  5
44
100
AcDbSymbolTableRecord
100
AcDbLinetypeTableRecord
  2
BORDER2
 70
0
  3
Border (.5x) __.__.__.__.__.__.__.__.__.__.__.
 72
65
 73
6
 40
22.2250000000000014
 49
6.3499999999999996
 74
0
 49
-3.1749999999999998
 74
0
 49
6.3499999999999996
 74
0
 49
-3.125
 74
0
 49
0.1
 74
0
 49
-3.125
 74
0
  0
LTYPE
  5
45
100
AcDbSymbolTableRecord
100
AcDbLinetypeTableRecord
  2
HIDDENX2
 70
0
  3
Hidden (2x) ____ ____ ____ ____ ____ ____ ____ 
 72
65
 73
2
 40
19.0499999999999972
 49
12.6999999999999993
 74
0
 49
-6.3499999999999996
 74
0
  0
LTYPE
  5
46
100
AcDbSymbolTableRecord
100
AcDbLinetypeTableRecord
  2
ACAD_ISO13W100
 70
0
  3
ISO double-dash double-dot __ __ . . __ __ . . _
 72
65
 73
8
 40
36.0000000000000071
 49
12.0
 74
0
 49
-3.0
 74
0
 49
12.0
 74
0
 49
-2.9500000000000002
 74
0
 49
0.1
 74
0
 49
-2.9000000000000004
 74
0
 49
0.1
 74
0
 49
-2.9500000000000002
 74
0
  0
LTYPE
  5
47
100
AcDbSymbolTableRecord
100
AcDbLinetypeTableRecord
  2
PHANTOM
 70
0
  3
Phantom ______  __  __  ______  __  __  ______ 
 72
65
 73
6
 40
63.5000000000000071
 49
31.75
 74
0
 49
-6.3499999999999996
 74
0
 49
6.3499999999999996
 74
0
 49
-6.3499999999999996
 74
0
 49
6.3499999999999996
 74
0
 49
-6.3499999999999996
 74
0
  0
LTYPE
  5
48
100
AcDbSymbolTableRecord
100
AcDbLinetypeTableRecord
  2
DASHED2
 70
0
  3
Dashed (.5x) _ _ _ _ _ _ _ _ _ _ _ _ _ _ _ _ _ 
 72
65
 73
2
 40
9.5249999999999986
 49
6.3499999999999996
 74
0
 49
-3.1749999999999998
 74
0
  0
LTYPE
  5
49
100
AcDbSymbolTableRecord
100
AcDbLinetypeTableRecord
  2
DOTTED
 70
0
  3
Dotted .  .  .  .
 72
65
 73
2
 40
0.2
 49
0.1
 74
0
 49
-0.1
 74
0
  0
LTYPE
  5
4A
100
AcDbSymbolTableRecord
100
AcDbLinetypeTableRecord
  2
PHANTOM2
 70
0
  3
Phantom (.5x) ___ _ _ ___ _ _ ___ _ _ ___ _ _
 72
65
 73
6
 40
31.7500000000000036
 49
15.875
 74
0
 49
-3.1749999999999998
 74
0
 49
3.1749999999999998
 74
0
 49
-3.1749999999999998
 74
0
 49
3.1749999999999998
 74
0
 49
-3.1749999999999998
 74
0
  0
LTYPE
  5
4B
100
AcDbSymbolTableRecord
100
AcDbLinetypeTableRecord
  2
BORDER
 70
0
  3
Border __ __ . __ __ . __ __ . __ __ . __ __ .
 72
65
 73
6
 40
44.4499999999999957
 49
12.6999999999999993
 74
0
 49
-6.3499999999999996
 74
0
 49
12.6999999999999993
 74
0
 49
-6.2999999999999998
 74
0
 49
0.1
 74
0
 49
-6.2999999999999998
 74
0
  0
LTYPE
  5
4C
100
AcDbSymbolTableRecord
100
AcDbLinetypeTableRecord
  2
ACAD_ISO14W100
 70
0
  3
ISO dash triple-dot __ . . . __ . . . __ . . . _
 72
65
 73
8
 40
24.0000000000000036
 49
12.0
 74
0
 49
-2.9500000000000002
 74
0
 49
0.1
 74
0
 49
-2.9000000000000004
 74
0
 49
0.1
 74
0
 49
-2.9000000000000004
 74
0
 49
0.1
 74
0
 49
-2.9500000000000002
 74
0
  0
LTYPE
  5
14
100
AcDbSymbolTableRecord
100
AcDbLinetypeTableRecord
  2
BYBLOCK
 70
0
  3

 72
65
 73
0
 40
0.0
  0
LTYPE
  5
4D
100
AcDbSymbolTableRecord
100
AcDbLinetypeTableRecord
  2
ACAD_ISO05W100
 70
0
  3
ISO long-dash double-dot ____ .. ____ .. ____ . 
 72
65
 73
6
 40
33.0000000000000071
 49
24.0
 74
0
 49
-2.9500000000000002
 74
0
 49
0.1
 74
0
 49
-2.9000000000000004
 74
0
 49
0.1
 74
0
 49
-2.9500000000000002
 74
0
  0
LTYPE
  5
4E
100
AcDbSymbolTableRecord
100
AcDbLinetypeTableRecord
  2
CENTER
 70
0
  3
Center ____ _ ____ _ ____ _ ____ _ ____ _ ____
 72
65
 73
4
 40
50.8000000000000043
 49
31.75
 74
0
 49
-6.3499999999999996
 74
0
 49
6.3499999999999996
 74
0
 49
-6.3499999999999996
 74
0
  0
LTYPE
  5
4F
100
AcDbSymbolTableRecord
100
AcDbLinetypeTableRecord
  2
ACAD_ISO11W100
 70
0
  3
ISO double-dash dot __ __ . __ __ . __ __ . __ _
 72
65
 73
6
 40
33.0
 49
12.0
 74
0
 49
-3.0
 74
0
 49
12.0
 74
0
 49
-2.9500000000000002
 74
0
 49
0.1
 74
0
 49
-2.9500000000000002
 74
0
  0
LTYPE
  5
50
100
AcDbSymbolTableRecord
100
AcDbLinetypeTableRecord
  2
DIVIDE
 70
0
  3
Divide ____ . . ____ . . ____ . . ____ . . ____
 72
65
 73
6
 40
31.7500000000000036
 49
12.6999999999999993
 74
0
 49
-6.2999999999999998
 74
0
 49
0.1
 74
0
 49
-6.25
 74
0
 49
0.1
 74
0
 49
-6.2999999999999998
 74
0
  0
LTYPE
  5
51
100
AcDbSymbolTableRecord
100
AcDbLinetypeTableRecord
  2
DOT
 70
0
  3
Dot . . . . . . . . . . . . . . . . . . . . . . . .
 72
65
 73
2
 40
6.3499999999999996
 49
0.1
 74
0
 49
-6.25
 74
0
  0
LTYPE
  5
52
100
AcDbSymbolTableRecord
100
AcDbLinetypeTableRecord
  2
HIDDEN
 70
0
  3
Hidden __ __ __ __ __ __ __ __ __ __ __ __ __ __
 72
65
 73
2
 40
9.5249999999999986
 49
6.3499999999999996
 74
0
 49
-3.1749999999999998
 74
0
  0
LTYPE
  5
53
100
AcDbSymbolTableRecord
100
AcDbLinetypeTableRecord
  2
ACAD_ISO15W100
 70
0
  3
ISO double-dash triple-dot __ __ . . . __ __ . .
 72
65
 73
10
 40
39.0000000000000071
 49
12.0
 74
0
 49
-3.0
 74
0
 49
12.0
 74
0
 49
-2.9500000000000002
 74
0
 49
0.1
 74
0
 49
-2.9000000000000004
 74
0
 49
0.1
 74
0
 49
-2.9000000000000004
 74
0
 49
0.1
 74
0
 49
-2.9500000000000002
 74
0
  0
LTYPE
  5
54
100
AcDbSymbolTableRecord
100
AcDbLinetypeTableRecord
  2
ACAD_ISO09W100
 70
0
  3
ISO long-dash double-short-dash ____ __ __ ____
 72
65
 73
6
 40
45.0
 49
24.0
 74
0
 49
-3.0
 74
0
 49
6.0
 74
0
 49
-3.0
 74
0
 49
6.0
 74
0
 49
-3.0
 74
0
  0
LTYPE
  5
55
100
AcDbSymbolTableRecord
100
AcDbLinetypeTableRecord
  2
DIVIDE2
 70
0
  3
Divide (.5x) __..__..__..__..__..__..__..__.._
 72
65
 73
6
 40
15.8749999999999982
 49
6.3499999999999996
 74
0
 49
-3.125
 74
0
 49
0.1
 74
0
 49
-3.0750000000000002
 74
0
 49
0.1
 74
0
 49
-3.125
 74
0
  0
LTYPE
  5
56
100
AcDbSymbolTableRecord
100
AcDbLinetypeTableRecord
  2
DASHDOT
 70
0
  3
Dash Dot ____ _ ____ _
 72
65
 73
4
 40
2.0
 49
1.25
 74
0
 49
-0.25
 74
0
 49
0.25
 74
0
 49
-0.25
 74
0
  0
LTYPE
  5
15
100
AcDbSymbolTableRecord
100
AcDbLinetypeTableRecord
  2
BYLAYER
 70
0
  3

 72
65
 73
0
 40
0.0
  0
LTYPE
  5
57
100
AcDbSymbolTableRecord
100
AcDbLinetypeTableRecord
  2
DIVIDEX2
 70
0
  3
Divide (2x) ________  .  .  ________  .  .  _
 72
65
 73
6
 40
63.5
 49
25.3999999999999986
 74
0
 49
-12.6499999999999986
 74
0
 49
0.1
 74
0
 49
-12.5999999999999979
 74
0
 49
0.1
 74
0
 49
-12.6499999999999986
 74
0
  0
ENDTAB
  0
TABLE
  2
LAYER
  5
2
100
AcDbSymbolTable
 70
2
  0
LAYER
  5
10
100
AcDbSymbolTableRecord
100
AcDbLayerTableRecord
  2
0
 70
1
 62
7
420
16777215
  6
CONTINUOUS
370
25
390
F
  0
LAYER
  5
58
100
AcDbSymbolTableRecord
100
AcDbLayerTableRecord
  2
edge cuts plate
 70
0
 62
7
420
16777215
  6
CONTINUOUS
370
5
390
F
  0
ENDTAB
  0
TABLE
  2
STYLE
  5
3
100
AcDbSymbolTable
 70
1
  0
STYLE
  5
59
100
AcDbSymbolTableRecord
100
AcDbTextStyleTableRecord
  2
Standard
 70
0
 40
0.0
 41
1.0
 50
0.0
 71
0
 42
2.5
  3

  4

1001
ACAD
1000
txt
1071
0
  0
ENDTAB
  0
TABLE
  2
VIEW
  5
6
100
AcDbSymbolTable
 70
0
  0
ENDTAB
  0
TABLE
  2
UCS
  5
7
100
AcDbSymbolTable
 70
0
  0
ENDTAB
  0
TABLE
  2
APPID
  5
9
100
AcDbSymbolTable
 70
1
  0
APPID
  5
12
100
AcDbSymbolTableRecord
100
AcDbRegAppTableRecord
  2
ACAD
 70
0
  0
APPID
  5
5A
100
AcDbSymbolTableRecord
100
AcDbRegAppTableRecord
  2
QCAD
 70
0
  0
ENDTAB
  0
TABLE
  2
DIMSTYLE
  5
A
100
AcDbSymbolTable
 70
1
100
AcDbDimStyleTable
 71
0
  0
DIMSTYLE
105
27
100
AcDbSymbolTableRecord
100
AcDbDimStyleTableRecord
  2
Standard
 41
0.18
 42
0.0625
 43
3.75
 44
0.18
 70
0
 73
0
 74
0
 77
0
 78
8
140
0.18
141
2.5
143
0.03937007874016
147
0.09
171
3
172
1
271
2
272
2
274
3
278
44
283
0
284
8
340
59
  0
ENDTAB
  0
TABLE
  2
BLOCK_RECORD
  5
1
100
AcDbSymbolTable
 70
1
  0
BLOCK_RECORD
  5
1F
100
AcDbSymbolTableRecord
100
AcDbBlockTableRecord
  2
*Model_Space
340
22
  0
BLOCK_RECORD
  5
1B
100
AcDbSymbolTableRecord
100
AcDbBlockTableRecord
  2
*Paper_Space
340
1E
  0
BLOCK_RECORD
  5
23
100
AcDbSymbolTableRecord
100
AcDbBlockTableRecord
  2
*Paper_Space0
340
26
  0
ENDTAB
  0
ENDSEC
  0
SECTION
  2
BLOCKS
  0
BLOCK
  5
20
100
AcDbEntity
  8
0
100
AcDbBlockBegin
  2
*Model_Space
 70
0
 10
0.0
 20
0.0
 30
0.0
  3
*Model_Space
  1

  0
ENDBLK
  5
21
100
AcDbEntity
  8
0
100
AcDbBlockEnd
  0
BLOCK
  5
1C
100
AcDbEntity
 67
1
  8
0
100
AcDbBlockBegin
  2
*Paper_Space
 70
0
 10
0.0
 20
0.0
 30
0.0
  3
*Paper_Space
  1

  0
ENDBLK
  5
1D
100
AcDbEntity
 67
1
  8
0
100
AcDbBlockEnd
  0
BLOCK
  5
24
100
AcDbEntity
  8
0
100
AcDbBlockBegin
  2
*Paper_Space0
 70
0
 10
0.0
 20
0.0
 30
0.0
  3
*Paper_Space0
  1

  0
ENDBLK
  5
25
100
AcDbEntity
  8
0
100
AcDbBlockEnd
  0
ENDSEC
  0
SECTION
  2
ENTITIES
  0
ARC
  5
5B
100
AcDbEntity
  8
edge cuts plate
 62
256
370
-1
 48
1.0
  6
BYLAYER
100
AcDbCircle
 10
-138.8149999999999977
 20
-46.215600000000002
 30
0.0
 40
1.0
100
AcDbArc
 50
-260.0
 51
-170.0
  0
LINE
  5
5C
100
AcDbEntity
  8
edge cuts plate
 62
256
370
-1
 48
1.0
  6
BYLAYER
100
AcDbLine
 10
14.9380000000000166
 20
7.0000000000000568
 30
0.0
 11
-14.9380000000000166
 21
7.0000000000000568
 31
0.0
  0
LINE
  5
5D
100
AcDbEntity
  8
edge cuts plate
 62
256
370
-1
 48
1.0
  6
BYLAYER
100
AcDbLine
 10
17.319250000000018
 20
-12.0499999999999545
 30
0.0
 11
-12.556750000000017
 21
-12.0499999999999545
 31
0.0
  0
LINE
  5
5E
100
AcDbEntity
  8
edge cuts plate
 62
256
370
-1
 48
1.0
  6
BYLAYER
100
AcDbLine
 10
18.40625
 20
-31.1000000000000227
 30
0.0
 11
-20.7875000000000014
 21
-31.1000000000000227
 31
0.0
  0
LINE
  5
5F
100
AcDbEntity
  8
edge cuts plate
 62
256
370
-1
 48
1.0
  6
CONTINUOUS
100
AcDbLine
 10
28.5749999999999993
 20
-46.625
 30
0.0
 11
28.5749999999999993
 21
-29.5749999999999993
 31
0.0
  0
LINE
  5
60
100
AcDbEntity
  8
edge cuts plate
 62
256
370
-1
 48
1.0
  6
BYLAYER
100
AcDbLine
 10
-105.0210511509108358
 20
-75.3651544259205082
 30
0.0
 11
-66.4227419355191415
 21
-68.5592310866629617
 31
0.0
  0
ARC
  5
61
100
AcDbEntity
  8
edge cuts plate
 62
256
370
-1
 48
1.0
  6
BYLAYER
100
AcDbCircle
 10
20.0500000000000007
 20
-8.5250000000000004
 30
0.0
 40
1.0
100
AcDbArc
 50
-180.0
 51
-90.0
  0
ARC
  5
62
100
AcDbEntity
  8
edge cuts plate
 62
256
370
-1
 48
1.0
  6
BYLAYER
100
AcDbCircle
 10
18.0500000000000007
 20
8.5250000000000004
 30
0.0
 40
1.0
100
AcDbArc
 50
-0.0
 51
90.0
  0
ARC
  5
63
100
AcDbEntity
  8
edge cuts plate
 62
256
370
-1
 48
1.0
  6
BYLAYER
100
AcDbCircle
 10
-47.7749999999999986
 20
8.5250599999999999
 30
0.0
 40
0.999943
100
AcDbArc
 50
89.9997000000000043
 51
100.0
  0
LINE
  5
64
100
AcDbEntity
  8
edge cuts plate
 62
256
370
-1
 48
1.0
  6
BYLAYER
100
AcDbLine
 10
-131.3960868509444708
 20
-79.5080715161866465
 30
0.0
 11
-136.9615109451695503
 21
-47.9449830321453803
 31
0.0
  0
LINE
  5
65
100
AcDbEntity
  8
edge cuts plate
 62
256
370
-1
 48
1.0
  6
CONTINUOUS
100
AcDbLine
 10
19.0500000000000007
 20
-8.5250000000000004
 30
0.0
 11
19.0500000000000007
 21
8.5250000000000004
 31
0.0
  0
LINE
  5
66
100
AcDbEntity
  8
edge cuts plate
 62
256
370
-1
 48
1.0
  6
CONTINUOUS
100
AcDbLine
 10
-115.465999999999994
 20
-21.7391000000000005
 30
0.0
 11
-114.1269999999999953
 21
-21.5030999999999999
 31
0.0
  0
LINE
  5
67
100
AcDbEntity
  8
edge cuts plate
 62
256
370
-1
 48
1.0
  6
CONTINUOUS
100
AcDbLine
 10
-41.2882999999999996
 20
-66.6902000000000044
 30
0.0
 11
-132.3729999999999905
 21
-82.7519000000000062
 31
0.0
  0
LINE
  5
68
100
AcDbEntity
  8
edge cuts plate
 62
256
370
-1
 48
1.0
  6
BYLAYER
100
AcDbLine
 10
-7.9380000000000166
 20
-6.9999999999999432
 30
0.0
 11
7.9380000000000166
 21
-6.9999999999999432
 31
0.0
  0
LINE
  5
69
100
AcDbEntity
  8
edge cuts plate
 62
256
370
-1
 48
1.0
  6
BYLAYER
100
AcDbLine
 10
-5.556750000000017
 20
-26.0499999999999545
 30
0.0
 11
10.3192500000000162
 21
-26.0499999999999545
 31
0.0
  0
LINE
  5
6A
100
AcDbEntity
  8
edge cuts plate
 62
256
370
-1
 48
1.0
  6
BYLAYER
100
AcDbLine
 10
-5.556750000000017
 20
-45.1000000000000227
 30
0.0
 11
10.3192500000000162
 21
-45.1000000000000227
 31
0.0
  0
ARC
  5
6B
100
AcDbEntity
  8
edge cuts plate
 62
256
370
-1
 48
1.0
  6
BYLAYER
100
AcDbCircle
 10
27.5749999999999993
 20
-46.625
 30
0.0
 40
1.0
100
AcDbArc
 50
-90.0
 51
-0.0
  0
LINE
  5
6C
100
AcDbEntity
  8
edge cuts plate
 62
256
370
-1
 48
1.0
  6
CONTINUOUS
100
AcDbLine
 10
-113.3160000000000025
 20
-20.3446999999999996
 30
0.0
 11
-116.277000000000001
 21
-3.5537000000000001
 31
0.0
  0
LINE
  5
6D
100
AcDbEntity
  8
edge cuts plate
 62
256
370
-1
 48
1.0
  6
BYLAYER
100
AcDbLine
 10
-83.85317728643615
 20
-57.4167145729796573
 30
0.0
 11
-99.4879851732580249
 21
-60.1735530416198685
 31
0.0
  0
LINE
  5
6E
100
AcDbEntity
  8
edge cuts plate
 62
256
370
-1
 48
1.0
  6
CONTINUOUS
100
AcDbLine
 10
-133.5310000000000059
 20
-81.9407999999999959
 30
0.0
 11
-139.8000000000000114
 21
-46.3892000000000024
 31
0.0
  0
ARC
  5
6F
100
AcDbEntity
  8
edge cuts plate
 62
256
370
-1
 48
1.0
  6
BYLAYER
100
AcDbCircle
 10
-132.5459999999999923
 20
-81.7670999999999992
 30
0.0
 40
0.999999
100
AcDbArc
 50
-170.0
 51
-79.9992000000000019
  0
LINE
  5
70
100
AcDbEntity
  8
edge cuts plate
 62
256
370
-1
 48
1.0
  6
BYLAYER
100
AcDbLine
 10
-121.769909590206268
 20
-53.4780488434180867
 30
0.0
 11
-119.0130711215660284
 21
-69.1128567302399119
 31
0.0
  0
ARC
  5
71
100
AcDbEntity
  8
edge cuts plate
 62
256
370
-1
 48
1.0
  6
BYLAYER
100
AcDbCircle
 10
-115.2920000000000016
 20
-22.7239000000000004
 30
0.0
 40
1.0
100
AcDbArc
 50
-260.0
 51
-170.0
  0
LINE
  5
72
100
AcDbEntity
  8
edge cuts plate
 62
256
370
-1
 48
1.0
  6
CONTINUOUS
100
AcDbLine
 10
22.8125
 20
-9.5250000000000004
 30
0.0
 11
20.0500000000000007
 21
-9.5250000000000004
 31
0.0
  0
ARC
  5
73
100
AcDbEntity
  8
edge cuts plate
 62
256
370
-1
 48
1.0
  6
BYLAYER
100
AcDbCircle
 10
22.8125
 20
-10.5250000000000004
 30
0.0
 40
1.0
100
AcDbArc
 50
-0.0
 51
90.0
  0
LINE
  5
74
100
AcDbEntity
  8
edge cuts plate
 62
256
370
-1
 48
1.0
  6
CONTINUOUS
100
AcDbLine
 10
-47.948599999999999
 20
9.5098099999999999
 30
0.0
 11
-115.465999999999994
 21
-2.3952399999999998
 31
0.0
  0
ARC
  5
75
100
AcDbEntity
  8
edge cuts plate
 62
256
370
-1
 48
1.0
  6
BYLAYER
100
AcDbCircle
 10
-114.3010000000000019
 20
-20.5183
 30
0.0
 40
1.0
100
AcDbArc
 50
-80.0
 51
9.9999900000000004
  0
ARC
  5
76
100
AcDbEntity
  8
edge cuts plate
 62
256
370
-1
 48
1.0
  6
BYLAYER
100
AcDbCircle
 10
24.8125
 20
-48.625
 30
0.0
 40
1.0
100
AcDbArc
 50
90.0
 51
180.0
  0
LINE
  5
77
100
AcDbEntity
  8
edge cuts plate
 62
256
370
-1
 48
1.0
  6
CONTINUOUS
100
AcDbLine
 10
23.8125
 20
-27.5749999999999993
 30
0.0
 11
23.8125
 21
-10.5250000000000004
 31
0.0
  0
ARC
  5
78
100
AcDbEntity
  8
edge cuts plate
 62
256
370
-1
 48
1.0
  6
BYLAYER
100
AcDbCircle
 10
27.5749999999999993
 20
-29.5749999999999993
 30
0.0
 40
1.0
100
AcDbArc
 50
-0.0
 51
90.0
  0
ARC
  5
79
100
AcDbEntity
  8
edge cuts plate
 62
256
370
-1
 48
1.0
  6
BYLAYER
100
AcDbCircle
 10
-114.3010000000000019
 20
-39.8622000000000014
 30
0.0
 40
1.0
100
AcDbArc
 50
-80.0
 51
9.9999900000000004
  0
ARC
  5
7A
100
AcDbEntity
  8
edge cuts plate
 62
256
370
-1
 48
1.0
  6
BYLAYER
100
AcDbCircle
 10
-115.2920000000000016
 20
-3.3800500000000002
 30
0.0
 40
1.0
100
AcDbArc
 50
-260.0
 51
-170.0
  0
ARC
  5
7B
100
AcDbEntity
  8
edge cuts plate
 62
256
370
-1
 48
1.0
  6
BYLAYER
100
AcDbCircle
 10
22.8125
 20
-65.6749999999999972
 30
0.0
 40
1.0
100
AcDbArc
 50
-90.0
 51
-0.0
  0
LINE
  5
7C
100
AcDbEntity
  8
edge cuts plate
 62
256
370
-1
 48
1.0
  6
BYLAYER
100
AcDbLine
 10
-14.9380000000000166
 20
-8.9999999999999432
 30
0.0
 11
-8.9380000000000166
 21
-8.9999999999999432
 31
0.0
  0
LINE
  5
7D
100
AcDbEntity
  8
edge cuts plate
 62
256
370
-1
 48
1.0
  6
BYLAYER
100
AcDbLine
 10
-12.556750000000017
 20
-28.0499999999999545
 30
0.0
 11
-6.556750000000017
 21
-28.0499999999999545
 31
0.0
  0
LINE
  5
7E
100
AcDbEntity
  8
edge cuts plate
 62
256
370
-1
 48
1.0
  6
BYLAYER
100
AcDbLine
 10
-12.556750000000017
 20
-47.1000000000000227
 30
0.0
 11
-6.556750000000017
 21
-47.1000000000000227
 31
0.0
  0
LINE
  5
7F
100
AcDbEntity
  8
edge cuts plate
 62
256
370
-1
 48
1.0
  6
CONTINUOUS
100
AcDbLine
 10
18.0500000000000007
 20
9.5250000000000004
 30
0.0
 11
-47.7749999999999986
 21
9.5250000000000004
 31
0.0
  0
LINE
  5
80
100
AcDbEntity
  8
edge cuts plate
 62
256
370
-1
 48
1.0
  6
CONTINUOUS
100
AcDbLine
 10
27.5749999999999993
 20
-28.5749999999999993
 30
0.0
 11
24.8125
 21
-28.5749999999999993
 31
0.0
  0
LINE
  5
81
100
AcDbEntity
  8
edge cuts plate
 62
256
370
-1
 48
1.0
  6
BYLAYER
100
AcDbLine
 10
-77.3068193706845648
 20
-54.2315618232867394
 30
0.0
 11
-83.2156658887577976
 21
-55.2734508892883198
 31
0.0
  0
LINE
  5
82
100
AcDbEntity
  8
edge cuts plate
 62
256
370
-1
 48
1.0
  6
CONTINUOUS
100
AcDbLine
 10
-138.9890000000000043
 20
-45.2308000000000021
 30
0.0
 11
-114.1269999999999953
 21
-40.8470000000000013
 31
0.0
  0
LINE
  5
83
100
AcDbEntity
  8
edge cuts plate
 62
256
370
-1
 48
1.0
  6
CONTINUOUS
100
AcDbLine
 10
23.8125
 20
-65.6749999999999972
 30
0.0
 11
23.8125
 21
-48.625
 31
0.0
  0
LINE
  5
84
100
AcDbEntity
  8
edge cuts plate
 62
256
370
-1
 48
1.0
  6
BYLAYER
100
AcDbLine
 10
-121.0158313278503073
 20
-46.2370982169987528
 30
0.0
 11
-119.9739422618487623
 21
-52.145944735072014
 31
0.0
  0
LINE
  5
85
100
AcDbEntity
  8
edge cuts plate
 62
256
370
-1
 48
1.0
  6
CONTINUOUS
100
AcDbLine
 10
24.8125
 20
-47.625
 30
0.0
 11
27.5749999999999993
 21
-47.625
 31
0.0
  0
LINE
  5
86
100
AcDbEntity
  8
edge cuts plate
 62
256
370
-1
 48
1.0
  6
CONTINUOUS
100
AcDbLine
 10
-113.3160000000000025
 20
-39.6884999999999977
 30
0.0
 11
-116.277000000000001
 21
-22.8976000000000006
 31
0.0
  0
ARC
  5
87
100
AcDbEntity
  8
edge cuts plate
 62
256
370
-1
 48
1.0
  6
BYLAYER
100
AcDbCircle
 10
24.8125
 20
-27.5749999999999993
 30
0.0
 40
1.0
100
AcDbArc
 50
-180.0
 51
-90.0
  0
LINE
  5
88
100
AcDbEntity
  8
edge cuts plate
 62
256
370
-1
 48
1.0
  6
BYLAYER
100
AcDbLine
 10
-15.4380000000000166
 20
6.5000000000000568
 30
0.0
 11
-15.4380000000000166
 21
-8.4999999999999432
 31
0.0
  0
LINE
  5
89
100
AcDbEntity
  8
edge cuts plate
 62
256
370
-1
 48
1.0
  6
BYLAYER
100
AcDbLine
 10
-13.056750000000017
 20
-12.5499999999999545
 30
0.0
 11
-13.056750000000017
 21
-27.5499999999999545
 31
0.0
  0
LINE
  5
8A
100
AcDbEntity
  8
edge cuts plate
 62
256
370
-1
 48
1.0
  6
BYLAYER
100
AcDbLine
 10
-13.056750000000017
 20
-45.6000000000000227
 30
0.0
 11
-13.056750000000017
 21
-46.6000000000000227
 31
0.0
  0
ARC
  5
8B
100
AcDbEntity
  8
edge cuts plate
 62
256
370
-1
 48
1.0
  6
BYLAYER
100
AcDbCircle
 10
-41.1146999999999991
 20
-67.6751000000000005
 30
0.0
 40
1.0000800000000001
100
AcDbArc
 50
90.0002999999999957
 51
100.0
  0
LINE
  5
8C
100
AcDbEntity
  8
edge cuts plate
 62
256
370
-1
 48
1.0
  6
CONTINUOUS
100
AcDbLine
 10
22.8125
 20
-66.6749999999999972
 30
0.0
 11
-41.1146999999999991
 21
-66.6749999999999972
 31
0.0
  0
LINE
  5
8D
100
AcDbEntity
  8
edge cuts plate
 62
256
370
-1
 48
1.0
  6
BYLAYER
100
AcDbLine
 10
-76.5539432302185503
 20
-55.6219493495636996
 30
0.0
 11
-76.727591405344981
 21
-54.6371416109593895
 31
0.0
  0
LINE
  5
8E
100
AcDbEntity
  8
edge cuts plate
 62
256
370
-1
 48
1.0
  6
BYLAYER
100
AcDbLine
 10
-122.5798670462020681
 20
-46.0051666069930363
 30
0.0
 11
-121.5950592931898626
 21
-45.8315184293261311
 31
0.0
  0
LINE
  5
8F
100
AcDbEntity
  8
edge cuts plate
 62
256
370
-1
 48
1.0
  6
BYLAYER
100
AcDbLine
 10
-8.4380000000000166
 20
-7.4999999999999432
 30
0.0
 11
-8.4380000000000166
 21
-8.4999999999999432
 31
0.0
  0
LINE
  5
90
100
AcDbEntity
  8
edge cuts plate
 62
256
370
-1
 48
1.0
  6
BYLAYER
100
AcDbLine
 10
-6.056750000000017
 20
-26.5499999999999545
 30
0.0
 11
-6.056750000000017
 21
-27.5499999999999545
 31
0.0
  0
LINE
  5
91
100
AcDbEntity
  8
edge cuts plate
 62
256
370
-1
 48
1.0
  6
BYLAYER
100
AcDbLine
 10
-6.056750000000017
 20
-45.6000000000000227
 30
0.0
 11
-6.056750000000017
 21
-46.6000000000000227
 31
0.0
  0
LINE
  5
92
100
AcDbEntity
  8
edge cuts plate
 62
256
370
-1
 48
1.0
  6
BYLAYER
100
AcDbLine
 10
-83.4475974987635141
 20
-56.8374866076401091
 30
0.0
 11
-83.6212456764304335
 21
-55.8526788546278681
 31
0.0
  0
LINE
  5
93
100
AcDbEntity
  8
edge cuts plate
 62
256
370
-1
 48
1.0
  6
BYLAYER
100
AcDbLine
 10
-121.3643298025336179
 20
-52.898820878078503
 30
0.0
 11
-120.3795220495214124
 21
-52.7251727004115693
 31
0.0
  0
ARC
  5
94
100
AcDbEntity
  8
edge cuts plate
 62
256
370
-1
 48
1.0
  6
BYLAYER
100
AcDbCircle
 10
-14.9380000000000166
 20
6.5000000000000568
 30
0.0
 40
0.5
100
AcDbArc
 50
90.0
 51
180.0
  0
ARC
  5
95
100
AcDbEntity
  8
edge cuts plate
 62
256
370
-1
 48
1.0
  6
BYLAYER
100
AcDbCircle
 10
-12.556750000000017
 20
-12.5499999999999545
 30
0.0
 40
0.5
100
AcDbArc
 50
90.0
 51
180.0
  0
ARC
  5
96
100
AcDbEntity
  8
edge cuts plate
 62
256
370
-1
 48
1.0
  6
BYLAYER
100
AcDbCircle
 10
-14.9380000000000166
 20
-8.4999999999999432
 30
0.0
 40
0.5
100
AcDbArc
 50
180.0
 51
270.0
  0
ARC
  5
97
100
AcDbEntity
  8
edge cuts plate
 62
256
370
-1
 48
1.0
  6
BYLAYER
100
AcDbCircle
 10
-12.556750000000017
 20
-27.5499999999999545
 30
0.0
 40
0.5
100
AcDbArc
 50
180.0
 51
270.0
  0
ARC
  5
98
100
AcDbEntity
  8
edge cuts plate
 62
256
370
-1
 48
1.0
  6
BYLAYER
100
AcDbCircle
 10
-12.556750000000017
 20
-46.6000000000000227
 30
0.0
 40
0.5
100
AcDbArc
 50
180.0
 51
270.0
  0
ARC
  5
99
100
AcDbEntity
  8
edge cuts plate
 62
256
370
-1
 48
1.0
  6
BYLAYER
100
AcDbCircle
 10
-77.2199952818510695
 20
-54.7239656997928634
 30
0.0
 40
0.5
100
AcDbArc
 50
9.9999999999999876
 51
99.9999999999999858
  0
ARC
  5
9A
100
AcDbEntity
  8
edge cuts plate
 62
256
370
-1
 48
1.0
  6
BYLAYER
100
AcDbCircle
 10
-121.5082352043564669
 20
-46.3239223058322338
 30
0.0
 40
0.5
100
AcDbArc
 50
10.0000000000000124
 51
99.9999999999999858
  0
ARC
  5
9B
100
AcDbEntity
  8
edge cuts plate
 62
256
370
-1
 48
1.0
  6
BYLAYER
100
AcDbCircle
 10
-8.9380000000000166
 20
-8.4999999999999432
 30
0.0
 40
0.5
100
AcDbArc
 50
270.0
 51
0.0
  0
ARC
  5
9C
100
AcDbEntity
  8
edge cuts plate
 62
256
370
-1
 48
1.0
  6
BYLAYER
100
AcDbCircle
 10
-6.556750000000017
 20
-27.5499999999999545
 30
0.0
 40
0.5
100
AcDbArc
 50
270.0
 51
0.0
  0
ARC
  5
9D
100
AcDbEntity
  8
edge cuts plate
 62
256
370
-1
 48
1.0
  6
BYLAYER
100
AcDbCircle
 10
-6.556750000000017
 20
-46.6000000000000227
 30
0.0
 40
0.5
100
AcDbArc
 50
270.0
 51
0.0
  0
ARC
  5
9E
100
AcDbEntity
  8
edge cuts plate
 62
256
370
-1
 48
1.0
  6
BYLAYER
100
AcDbCircle
 10
-83.1288417999243734
 20
-55.7658547657944439
 30
0.0
 40
0.5
100
AcDbArc
 50
99.9999999999999858
 51
190.0
  0
ARC
  5
9F
100
AcDbEntity
  8
edge cuts plate
 62
256
370
-1
 48
1.0
  6
BYLAYER
100
AcDbCircle
 10
-120.466346138354865
 20
-52.2327688239054666
 30
0.0
 40
0.5
100
AcDbArc
 50
280.0
 51
10.0000000000000124
  0
LINE
  5
A0
100
AcDbEntity
  8
edge cuts plate
 62
256
370
-1
 48
1.0
  6
BYLAYER
100
AcDbLine
 10
8.9380000000000166
 20
-8.9999999999999432
 30
0.0
 11
14.9380000000000166
 21
-8.9999999999999432
 31
0.0
  0
LINE
  5
A1
100
AcDbEntity
  8
edge cuts plate
 62
256
370
-1
 48
1.0
  6
BYLAYER
100
AcDbLine
 10
11.3192500000000162
 20
-28.0499999999999545
 30
0.0
 11
17.319250000000018
 21
-28.0499999999999545
 31
0.0
  0
LINE
  5
A2
100
AcDbEntity
  8
edge cuts plate
 62
256
370
-1
 48
1.0
  6
BYLAYER
100
AcDbLine
 10
11.3192500000000162
 20
-47.1000000000000227
 30
0.0
 11
17.319250000000018
 21
-47.1000000000000227
 31
0.0
  0
LINE
  5
A3
100
AcDbEntity
  8
edge cuts plate
 62
256
370
-1
 48
1.0
  6
BYLAYER
100
AcDbLine
 10
-100.8200892816040266
 20
-58.3775857132623628
 30
0.0
 11
-106.7289357996773163
 21
-59.4194747792639433
 31
0.0
  0
LINE
  5
A4
100
AcDbEntity
  8
edge cuts plate
 62
256
370
-1
 48
1.0
  6
BYLAYER
100
AcDbLine
 10
-116.8698074378747123
 20
-69.7503681279182501
 30
0.0
 11
-115.8279183718731105
 21
-75.6592146459915114
 31
0.0
  0
LINE
  5
A5
100
AcDbEntity
  8
edge cuts plate
 62
256
370
-1
 48
1.0
  6
BYLAYER
100
AcDbLine
 10
8.4380000000000166
 20
-7.4999999999999432
 30
0.0
 11
8.4380000000000166
 21
-8.4999999999999432
 31
0.0
  0
LINE
  5
A6
100
AcDbEntity
  8
edge cuts plate
 62
256
370
-1
 48
1.0
  6
BYLAYER
100
AcDbLine
 10
10.8192500000000162
 20
-26.5499999999999545
 30
0.0
 11
10.8192500000000162
 21
-27.5499999999999545
 31
0.0
  0
LINE
  5
A7
100
AcDbEntity
  8
edge cuts plate
 62
256
370
-1
 48
1.0
  6
BYLAYER
100
AcDbLine
 10
10.8192500000000162
 20
-45.6000000000000227
 30
0.0
 11
10.8192500000000162
 21
-46.6000000000000227
 31
0.0
  0
LINE
  5
A8
100
AcDbEntity
  8
edge cuts plate
 62
256
370
-1
 48
1.0
  6
BYLAYER
100
AcDbLine
 10
-100.0672131385975518
 20
-59.7679732539472042
 30
0.0
 11
-100.2408613162645139
 21
-58.7831655009350058
 31
0.0
  0
LINE
  5
A9
100
AcDbEntity
  8
edge cuts plate
 62
256
370
-1
 48
1.0
  6
BYLAYER
100
AcDbLine
 10
-118.4338431562264731
 20
-69.5184365179125621
 30
0.0
 11
-117.4490354032142676
 21
-69.3447883402456284
 31
0.0
  0
LINE
  5
AA
100
AcDbEntity
  8
edge cuts plate
 62
256
370
-1
 48
1.0
  6
BYLAYER
100
AcDbLine
 10
15.4380000000000166
 20
6.5000000000000568
 30
0.0
 11
15.4380000000000166
 21
-8.4999999999999432
 31
0.0
  0
LINE
  5
AB
100
AcDbEntity
  8
edge cuts plate
 62
256
370
-1
 48
1.0
  6
BYLAYER
100
AcDbLine
 10
17.819250000000018
 20
-12.5499999999999545
 30
0.0
 11
17.819250000000018
 21
-27.5499999999999545
 31
0.0
  0
LINE
  5
AC
100
AcDbEntity
  8
edge cuts plate
 62
256
370
-1
 48
1.0
  6
BYLAYER
100
AcDbLine
 10
17.819250000000018
 20
-45.6000000000000156
 30
0.0
 11
17.819250000000018
 21
-46.6000000000000227
 31
0.0
  0
LINE
  5
AD
100
AcDbEntity
  8
edge cuts plate
 62
256
370
-1
 48
1.0
  6
BYLAYER
100
AcDbLine
 10
-106.9608674096830185
 20
-60.983510497615697
 30
0.0
 11
-107.134515587349938
 21
-59.9987027446035057
 31
0.0
  0
LINE
  5
AE
100
AcDbEntity
  8
edge cuts plate
 62
256
370
-1
 48
1.0
  6
BYLAYER
100
AcDbLine
 10
-117.2183059125579661
 20
-76.4120907889980003
 30
0.0
 11
-116.2334981595457606
 21
-76.2384426113310667
 31
0.0
  0
ARC
  5
AF
100
AcDbEntity
  8
edge cuts plate
 62
256
370
-1
 48
1.0
  6
BYLAYER
100
AcDbCircle
 10
14.9380000000000166
 20
6.5000000000000568
 30
0.0
 40
0.5
100
AcDbArc
 50
0.0
 51
90.0
  0
ARC
  5
B0
100
AcDbEntity
  8
edge cuts plate
 62
256
370
-1
 48
1.0
  6
BYLAYER
100
AcDbCircle
 10
17.319250000000018
 20
-12.5499999999999545
 30
0.0
 40
0.5
100
AcDbArc
 50
0.0
 51
90.0
  0
ARC
  5
B1
100
AcDbEntity
  8
edge cuts plate
 62
256
370
-1
 48
1.0
  6
BYLAYER
100
AcDbCircle
 10
8.9380000000000166
 20
-8.4999999999999432
 30
0.0
 40
0.5
100
AcDbArc
 50
180.0
 51
270.0
  0
ARC
  5
B2
100
AcDbEntity
  8
edge cuts plate
 62
256
370
-1
 48
1.0
  6
BYLAYER
100
AcDbCircle
 10
11.3192500000000162
 20
-27.5499999999999545
 30
0.0
 40
0.5
100
AcDbArc
 50
180.0
 51
270.0
  0
ARC
  5
B3
100
AcDbEntity
  8
edge cuts plate
 62
256
370
-1
 48
1.0
  6
BYLAYER
100
AcDbCircle
 10
11.3192500000000162
 20
-46.6000000000000227
 30
0.0
 40
0.5
100
AcDbArc
 50
180.0
 51
270.0
  0
ARC
  5
B4
100
AcDbEntity
  8
edge cuts plate
 62
256
370
-1
 48
1.0
  6
BYLAYER
100
AcDbCircle
 10
-100.7332651927706024
 20
-58.8699895897684797
 30
0.0
 40
0.5
100
AcDbArc
 50
9.9999999999999876
 51
99.9999999999999858
  0
ARC
  5
B5
100
AcDbEntity
  8
edge cuts plate
 62
256
370
-1
 48
1.0
  6
BYLAYER
100
AcDbCircle
 10
-117.362211314380815
 20
-69.8371922167517312
 30
0.0
 40
0.5
100
AcDbArc
 50
10.0000000000000124
 51
99.9999999999999858
  0
ARC
  5
B6
100
AcDbEntity
  8
edge cuts plate
 62
256
370
-1
 48
1.0
  6
BYLAYER
100
AcDbCircle
 10
14.9380000000000166
 20
-8.4999999999999432
 30
0.0
 40
0.5
100
AcDbArc
 50
270.0
 51
0.0
  0
ARC
  5
B7
100
AcDbEntity
  8
edge cuts plate
 62
256
370
-1
 48
1.0
  6
BYLAYER
100
AcDbCircle
 10
17.319250000000018
 20
-27.5499999999999545
 30
0.0
 40
0.5
100
AcDbArc
 50
270.0
 51
0.0
  0
ARC
  5
B8
100
AcDbEntity
  8
edge cuts plate
 62
256
370
-1
 48
1.0
  6
BYLAYER
100
AcDbCircle
 10
17.319250000000018
 20
-46.6000000000000227
 30
0.0
 40
0.5
100
AcDbArc
 50
270.0
 51
0.0
  0
ARC
  5
B9
100
AcDbEntity
  8
edge cuts plate
 62
256
370
-1
 48
1.0
  6
BYLAYER
100
AcDbCircle
 10
-106.6421117108438494
 20
-59.9118786557700389
 30
0.0
 40
0.5
100
AcDbArc
 50
99.9999999999999858
 51
190.0
  0
ARC
  5
BA
100
AcDbEntity
  8
edge cuts plate
 62
256
370
-1
 48
1.0
  6
BYLAYER
100
AcDbCircle
 10
-116.3203222483792132
 20
-75.746038734824964
 30
0.0
 40
0.5
100
AcDbArc
 50
280.0
 51
10.0000000000000124
  0
LINE
  5
BB
100
AcDbEntity
  8
edge cuts plate
 62
256
370
-1
 48
1.0
  6
BYLAYER
100
AcDbLine
 10
-35.0749999999999886
 20
7.0000000000000568
 30
0.0
 11
-22.0749999999999886
 21
7.0000000000000568
 31
0.0
  0
LINE
  5
BC
100
AcDbEntity
  8
edge cuts plate
 62
256
370
-1
 48
1.0
  6
BYLAYER
100
AcDbLine
 10
-35.0749999999999886
 20
-12.0499999999999545
 30
0.0
 11
-22.0749999999999886
 21
-12.0499999999999545
 31
0.0
  0
LINE
  5
BD
100
AcDbEntity
  8
edge cuts plate
 62
256
370
-1
 48
1.0
  6
BYLAYER
100
AcDbLine
 10
-39.8375000000000057
 20
-31.1000000000000227
 30
0.0
 11
-26.8375000000000057
 21
-31.1000000000000227
 31
0.0
  0
LINE
  5
BE
100
AcDbEntity
  8
edge cuts plate
 62
256
370
-1
 48
1.0
  6
BYLAYER
100
AcDbLine
 10
-56.7510803779666659
 20
-13.9501297265382505
 30
0.0
 11
-43.9485795888079593
 21
-11.6927034168681594
 31
0.0
  0
LINE
  5
BF
100
AcDbEntity
  8
edge cuts plate
 62
256
370
-1
 48
1.0
  6
BYLAYER
100
AcDbLine
 10
-56.7510803779666446
 20
5.3937472298851947
 30
0.0
 11
-43.948579588807938
 21
7.6511735395552867
 31
0.0
  0
LINE
  5
C0
100
AcDbEntity
  8
edge cuts plate
 62
256
370
-1
 48
1.0
  6
BYLAYER
100
AcDbLine
 10
-75.5116680728492184
 20
2.0857494453301646
 30
0.0
 11
-62.709167283690519
 21
4.3431757550002565
 31
0.0
  0
LINE
  5
C1
100
AcDbEntity
  8
edge cuts plate
 62
256
370
-1
 48
1.0
  6
BYLAYER
100
AcDbLine
 10
-94.2722557677317781
 20
-1.2222483392248629
 30
0.0
 11
-81.4697549785730786
 21
1.0351779704452291
 31
0.0
  0
LINE
  5
C2
100
AcDbEntity
  8
edge cuts plate
 62
256
370
-1
 48
1.0
  6
BYLAYER
100
AcDbLine
 10
-113.0328434626143661
 20
-4.5302461237798761
 30
0.0
 11
-100.2303426734556666
 21
-2.2728198141097842
 31
0.0
  0
LINE
  5
C3
100
AcDbEntity
  8
edge cuts plate
 62
256
370
-1
 48
1.0
  6
BYLAYER
100
AcDbLine
 10
-113.0328434626143377
 20
-23.8741230802033471
 30
0.0
 11
-100.2303426734556382
 21
-21.616696770533256
 31
0.0
  0
LINE
  5
C4
100
AcDbEntity
  8
edge cuts plate
 62
256
370
-1
 48
1.0
  6
BYLAYER
100
AcDbLine
 10
-94.2722557677317781
 20
-20.5661252956483054
 30
0.0
 11
-81.4697549785730786
 21
-18.3086989859782143
 31
0.0
  0
LINE
  5
C5
100
AcDbEntity
  8
edge cuts plate
 62
256
370
-1
 48
1.0
  6
BYLAYER
100
AcDbLine
 10
-75.5116680728492184
 20
-17.2581275110932779
 30
0.0
 11
-62.709167283690519
 21
-15.0007012014231869
 31
0.0
  0
LINE
  5
C6
100
AcDbEntity
  8
edge cuts plate
 62
256
370
-1
 48
1.0
  6
BYLAYER
100
AcDbLine
 10
-61.513580377966683
 20
-34.1337639285857506
 30
0.0
 11
-48.7110795888079764
 21
-31.8763376189156595
 31
0.0
  0
LINE
  5
C7
100
AcDbEntity
  8
edge cuts plate
 62
256
370
-1
 48
1.0
  6
BYLAYER
100
AcDbLine
 10
-80.2741680728492355
 20
-37.4417617131407781
 30
0.0
 11
-67.471667283690536
 21
-35.1843354034706834
 31
0.0
  0
LINE
  5
C8
100
AcDbEntity
  8
edge cuts plate
 62
256
370
-1
 48
1.0
  6
BYLAYER
100
AcDbLine
 10
-99.0347557677317951
 20
-40.7497594976958339
 30
0.0
 11
-86.2322549785730956
 21
-38.4923331880257393
 31
0.0
  0
LINE
  5
C9
100
AcDbEntity
  8
edge cuts plate
 62
256
370
-1
 48
1.0
  6
BYLAYER
100
AcDbLine
 10
-117.7953434626143263
 20
-44.0577572822508614
 30
0.0
 11
-104.9928426734556268
 21
-41.8003309725807668
 31
0.0
  0
LINE
  5
CA
100
AcDbEntity
  8
edge cuts plate
 62
256
370
-1
 48
1.0
  6
BYLAYER
100
AcDbLine
 10
-62.8957295171322741
 20
-53.7213510696070884
 30
0.0
 11
-50.0932287279735675
 21
-51.4639247599370009
 31
0.0
  0
LINE
  5
CB
100
AcDbEntity
  8
edge cuts plate
 62
256
370
-1
 48
1.0
  6
BYLAYER
100
AcDbLine
 10
-75.9747152648789665
 20
-56.0275291372363426
 30
0.0
 11
-68.8538164228561556
 21
-54.7719225444920568
 31
0.0
  0
LINE
  5
CC
100
AcDbEntity
  8
edge cuts plate
 62
256
370
-1
 48
1.0
  6
BYLAYER
100
AcDbLine
 10
5.40625
 20
-50.1499999999999986
 30
0.0
 11
18.40625
 21
-50.1499999999999986
 31
0.0
  0
LINE
  5
CD
100
AcDbEntity
  8
edge cuts plate
 62
256
370
-1
 48
1.0
  6
BYLAYER
100
AcDbLine
 10
-16.0249999999999986
 20
-50.1499999999999915
 30
0.0
 11
-3.0250000000000004
 21
-50.1499999999999915
 31
0.0
  0
LINE
  5
CE
100
AcDbEntity
  8
edge cuts plate
 62
256
370
-1
 48
1.0
  6
BYLAYER
100
AcDbLine
 10
-35.0750000000000028
 20
-50.149999999999892
 30
0.0
 11
-22.0749999999999993
 21
-50.149999999999892
 31
0.0
  0
LINE
  5
CF
100
AcDbEntity
  8
edge cuts plate
 62
256
370
-1
 48
1.0
  6
BYLAYER
100
AcDbLine
 10
-107.4521256382478498
 20
-61.577845883749589
 30
0.0
 11
-107.3664471973556545
 21
-61.5627384629552594
 31
0.0
  0
LINE
  5
D0
100
AcDbEntity
  8
edge cuts plate
 62
256
370
-1
 48
1.0
  6
BYLAYER
100
AcDbLine
 10
-123.7534303683382149
 20
-45.1083287571356877
 30
0.0
 11
-136.5559311574969001
 21
-47.3657550668057965
 31
0.0
  0
LINE
  5
D1
100
AcDbEntity
  8
edge cuts plate
 62
256
370
-1
 48
1.0
  6
BYLAYER
100
AcDbLine
 10
-35.0749999999999886
 20
-6.9999999999999432
 30
0.0
 11
-22.0749999999999886
 21
-6.9999999999999432
 31
0.0
  0
LINE
  5
D2
100
AcDbEntity
  8
edge cuts plate
 62
256
370
-1
 48
1.0
  6
BYLAYER
100
AcDbLine
 10
-35.0749999999999886
 20
-26.0499999999999545
 30
0.0
 11
-22.0749999999999886
 21
-26.0499999999999545
 31
0.0
  0
LINE
  5
D3
100
AcDbEntity
  8
edge cuts plate
 62
256
370
-1
 48
1.0
  6
BYLAYER
100
AcDbLine
 10
-39.8375000000000057
 20
-45.1000000000000227
 30
0.0
 11
-26.8375000000000057
 21
-45.1000000000000227
 31
0.0
  0
LINE
  5
D4
100
AcDbEntity
  8
edge cuts plate
 62
256
370
-1
 48
1.0
  6
BYLAYER
100
AcDbLine
 10
-54.3200058906296448
 20
-27.7374382687091625
 30
0.0
 11
-41.5175051014709382
 21
-25.480011959039075
 31
0.0
  0
LINE
  5
D5
100
AcDbEntity
  8
edge cuts plate
 62
256
370
-1
 48
1.0
  6
BYLAYER
100
AcDbLine
 10
-54.3200058906296235
 20
-8.3935613122857191
 30
0.0
 11
-41.5175051014709169
 21
-6.1361350026156298
 31
0.0
  0
LINE
  5
D6
100
AcDbEntity
  8
edge cuts plate
 62
256
370
-1
 48
1.0
  6
BYLAYER
100
AcDbLine
 10
-73.0805935855122044
 20
-11.7015590968407484
 30
0.0
 11
-60.2780927963534978
 21
-9.4441327871706591
 31
0.0
  0
LINE
  5
D7
100
AcDbEntity
  8
edge cuts plate
 62
256
370
-1
 48
1.0
  6
BYLAYER
100
AcDbLine
 10
-91.841181280394764
 20
-15.0095568813957758
 30
0.0
 11
-79.0386804912360645
 21
-12.7521305717256865
 31
0.0
  0
LINE
  5
D8
100
AcDbEntity
  8
edge cuts plate
 62
256
370
-1
 48
1.0
  6
BYLAYER
100
AcDbLine
 10
-110.6017689752773521
 20
-18.3175546659507873
 30
0.0
 11
-97.7992681861186526
 21
-16.0601283562806998
 31
0.0
  0
LINE
  5
D9
100
AcDbEntity
  8
edge cuts plate
 62
256
370
-1
 48
1.0
  6
BYLAYER
100
AcDbLine
 10
-110.6017689752773236
 20
-37.6614316223742591
 30
0.0
 11
-97.7992681861186242
 21
-35.4040053127041716
 31
0.0
  0
LINE
  5
DA
100
AcDbEntity
  8
edge cuts plate
 62
256
370
-1
 48
1.0
  6
BYLAYER
100
AcDbLine
 10
-91.841181280394764
 20
-34.3534338378192174
 30
0.0
 11
-79.0386804912360645
 21
-32.0960075281491299
 31
0.0
  0
LINE
  5
DB
100
AcDbEntity
  8
edge cuts plate
 62
256
370
-1
 48
1.0
  6
BYLAYER
100
AcDbLine
 10
-73.0805935855122044
 20
-31.04543605326419
 30
0.0
 11
-60.2780927963534978
 21
-28.7880097435941025
 31
0.0
  0
LINE
  5
DC
100
AcDbEntity
  8
edge cuts plate
 62
256
370
-1
 48
1.0
  6
BYLAYER
100
AcDbLine
 10
-59.0825058906296618
 20
-47.9210724707566627
 30
0.0
 11
-46.2800051014709553
 21
-45.6636461610865751
 31
0.0
  0
LINE
  5
DD
100
AcDbEntity
  8
edge cuts plate
 62
256
370
-1
 48
1.0
  6
BYLAYER
100
AcDbLine
 10
-77.8430935855122215
 20
-51.2290702553116901
 30
0.0
 11
-65.040592796353522
 21
-48.9716439456416026
 31
0.0
  0
LINE
  5
DE
100
AcDbEntity
  8
edge cuts plate
 62
256
370
-1
 48
1.0
  6
BYLAYER
100
AcDbLine
 10
-96.6036812803947811
 20
-54.537068039866746
 30
0.0
 11
-83.8011804912360816
 21
-52.2796417301966585
 31
0.0
  0
LINE
  5
DF
100
AcDbEntity
  8
edge cuts plate
 62
256
370
-1
 48
1.0
  6
BYLAYER
100
AcDbLine
 10
-115.3642689752773123
 20
-57.8450658244217735
 30
0.0
 11
-102.5617681861186128
 21
-55.587639514751686
 31
0.0
  0
LINE
  5
E0
100
AcDbEntity
  8
edge cuts plate
 62
256
370
-1
 48
1.0
  6
BYLAYER
100
AcDbLine
 10
-60.464655029795253
 20
-67.5086596117780005
 30
0.0
 11
-47.6621542406365464
 21
-65.2512333021079201
 31
0.0
  0
LINE
  5
E1
100
AcDbEntity
  8
edge cuts plate
 62
256
370
-1
 48
1.0
  6
BYLAYER
100
AcDbLine
 10
5.40625
 20
-64.1500000000000057
 30
0.0
 11
18.40625
 21
-64.1500000000000057
 31
0.0
  0
LINE
  5
E2
100
AcDbEntity
  8
edge cuts plate
 62
256
370
-1
 48
1.0
  6
BYLAYER
100
AcDbLine
 10
-16.0249999999999986
 20
-64.1500000000000057
 30
0.0
 11
-3.0250000000000004
 21
-64.1500000000000057
 31
0.0
  0
LINE
  5
E3
100
AcDbEntity
  8
edge cuts plate
 62
256
370
-1
 48
1.0
  6
BYLAYER
100
AcDbLine
 10
-35.0750000000000028
 20
-64.149999999999892
 30
0.0
 11
-22.0749999999999993
 21
-64.149999999999892
 31
0.0
  0
LINE
  5
E4
100
AcDbEntity
  8
edge cuts plate
 62
256
370
-1
 48
1.0
  6
BYLAYER
100
AcDbLine
 10
-20.7875000000000014
 20
-45.1000000000000227
 30
0.0
 11
-13.5567500000000152
 21
-45.1000000000000227
 31
0.0
  0
LINE
  5
E5
100
AcDbEntity
  8
edge cuts plate
 62
256
370
-1
 48
1.0
  6
BYLAYER
100
AcDbLine
 10
18.319250000000018
 20
-45.1000000000000227
 30
0.0
 11
18.40625
 21
-45.1000000000000227
 31
0.0
  0
LINE
  5
E6
100
AcDbEntity
  8
edge cuts plate
 62
256
370
-1
 48
1.0
  6
BYLAYER
100
AcDbLine
 10
-118.0143580964461734
 20
-77.6562249941891878
 30
0.0
 11
-130.8168588856049155
 21
-79.9136513038592966
 31
0.0
  0
LINE
  5
E7
100
AcDbEntity
  8
edge cuts plate
 62
256
370
-1
 48
1.0
  6
BYLAYER
100
AcDbLine
 10
-35.5749999999999886
 20
-6.4999999999999432
 30
0.0
 11
-35.5749999999999886
 21
6.5000000000000568
 31
0.0
  0
LINE
  5
E8
100
AcDbEntity
  8
edge cuts plate
 62
256
370
-1
 48
1.0
  6
BYLAYER
100
AcDbLine
 10
-35.5749999999999886
 20
-25.5499999999999545
 30
0.0
 11
-35.5749999999999886
 21
-12.5499999999999545
 31
0.0
  0
LINE
  5
E9
100
AcDbEntity
  8
edge cuts plate
 62
256
370
-1
 48
1.0
  6
BYLAYER
100
AcDbLine
 10
-40.3375000000000057
 20
-44.6000000000000227
 30
0.0
 11
-40.3375000000000057
 21
-31.6000000000000227
 31
0.0
  0
LINE
  5
EA
100
AcDbEntity
  8
edge cuts plate
 62
256
370
-1
 48
1.0
  6
BYLAYER
100
AcDbLine
 10
-54.8992338559692143
 20
-27.3318584810365266
 30
0.0
 11
-57.1566601656393019
 21
-14.52935769187782
 31
0.0
  0
LINE
  5
EB
100
AcDbEntity
  8
edge cuts plate
 62
256
370
-1
 48
1.0
  6
BYLAYER
100
AcDbLine
 10
-54.899233855969193
 20
-7.9879815246130796
 30
0.0
 11
-57.1566601656392805
 21
4.8145192645456252
 31
0.0
  0
LINE
  5
EC
100
AcDbEntity
  8
edge cuts plate
 62
256
370
-1
 48
1.0
  6
BYLAYER
100
AcDbLine
 10
-73.659821550851774
 20
-11.2959793091681107
 30
0.0
 11
-75.9172478605218686
 21
1.506521479990595
 31
0.0
  0
LINE
  5
ED
100
AcDbEntity
  8
edge cuts plate
 62
256
370
-1
 48
1.0
  6
BYLAYER
100
AcDbLine
 10
-92.4204092457343336
 20
-14.6039770937231381
 30
0.0
 11
-94.6778355554044282
 21
-1.8014763045644324
 31
0.0
  0
LINE
  5
EE
100
AcDbEntity
  8
edge cuts plate
 62
256
370
-1
 48
1.0
  6
BYLAYER
100
AcDbLine
 10
-111.1809969406169216
 20
-17.9119748782781514
 30
0.0
 11
-113.4384232502870162
 21
-5.1094740891194457
 31
0.0
  0
LINE
  5
EF
100
AcDbEntity
  8
edge cuts plate
 62
256
370
-1
 48
1.0
  6
BYLAYER
100
AcDbLine
 10
-111.1809969406168932
 20
-37.2558518347016232
 30
0.0
 11
-113.4384232502869878
 21
-24.4533510455429166
 31
0.0
  0
LINE
  5
F0
100
AcDbEntity
  8
edge cuts plate
 62
256
370
-1
 48
1.0
  6
BYLAYER
100
AcDbLine
 10
-92.4204092457343336
 20
-33.9478540501465815
 30
0.0
 11
-94.6778355554044282
 21
-21.1453532609878749
 31
0.0
  0
LINE
  5
F1
100
AcDbEntity
  8
edge cuts plate
 62
256
370
-1
 48
1.0
  6
BYLAYER
100
AcDbLine
 10
-73.659821550851774
 20
-30.6398562655915541
 30
0.0
 11
-75.9172478605218686
 21
-17.8373554764328475
 31
0.0
  0
LINE
  5
F2
100
AcDbEntity
  8
edge cuts plate
 62
256
370
-1
 48
1.0
  6
BYLAYER
100
AcDbLine
 10
-59.6617338559692314
 20
-47.5154926830840267
 30
0.0
 11
-61.9191601656393189
 21
-34.7129918939253201
 31
0.0
  0
LINE
  5
F3
100
AcDbEntity
  8
edge cuts plate
 62
256
370
-1
 48
1.0
  6
BYLAYER
100
AcDbLine
 10
-78.422321550851791
 20
-50.8234904676390542
 30
0.0
 11
-80.6797478605218856
 21
-38.0209896784803476
 31
0.0
  0
LINE
  5
F4
100
AcDbEntity
  8
edge cuts plate
 62
256
370
-1
 48
1.0
  6
BYLAYER
100
AcDbLine
 10
-97.1829092457343506
 20
-54.1314882521941101
 30
0.0
 11
-99.4403355554044452
 21
-41.3289874630354035
 31
0.0
  0
LINE
  5
F5
100
AcDbEntity
  8
edge cuts plate
 62
256
370
-1
 48
1.0
  6
BYLAYER
100
AcDbLine
 10
-115.9434969406168818
 20
-57.4394860367491376
 30
0.0
 11
-118.2009232502869764
 21
-44.636985247590431
 31
0.0
  0
LINE
  5
F6
100
AcDbEntity
  8
edge cuts plate
 62
256
370
-1
 48
1.0
  6
BYLAYER
100
AcDbLine
 10
-61.0438829951348225
 20
-67.1030798241053645
 30
0.0
 11
-63.30130930480491
 21
-54.3005790349466579
 31
0.0
  0
LINE
  5
F7
100
AcDbEntity
  8
edge cuts plate
 62
256
370
-1
 48
1.0
  6
BYLAYER
100
AcDbLine
 10
4.90625
 20
-63.6499999999999986
 30
0.0
 11
4.90625
 21
-50.6499999999999986
 31
0.0
  0
LINE
  5
F8
100
AcDbEntity
  8
edge cuts plate
 62
256
370
-1
 48
1.0
  6
BYLAYER
100
AcDbLine
 10
-16.5249999999999986
 20
-63.6499999999999915
 30
0.0
 11
-16.5249999999999986
 21
-50.6499999999999915
 31
0.0
  0
LINE
  5
F9
100
AcDbEntity
  8
edge cuts plate
 62
256
370
-1
 48
1.0
  6
BYLAYER
100
AcDbLine
 10
-35.5750000000000028
 20
-63.649999999999892
 30
0.0
 11
-35.5750000000000028
 21
-50.649999999999892
 31
0.0
  0
LINE
  5
FA
100
AcDbEntity
  8
edge cuts plate
 62
256
370
-1
 48
1.0
  6
BYLAYER
100
AcDbLine
 10
-21.2875000000000014
 20
-44.6000000000000227
 30
0.0
 11
-21.2875000000000014
 21
-31.6000000000000227
 31
0.0
  0
LINE
  5
FB
100
AcDbEntity
  8
edge cuts plate
 62
256
370
-1
 48
1.0
  6
BYLAYER
100
AcDbLine
 10
-105.6002791162504053
 20
-74.959574638247858
 30
0.0
 11
-107.8577054259204999
 21
-62.1570738490891586
 31
0.0
  0
LINE
  5
FC
100
AcDbEntity
  8
edge cuts plate
 62
256
370
-1
 48
1.0
  6
BYLAYER
100
AcDbLine
 10
-123.1590950115416234
 20
-45.5995868193203862
 30
0.0
 11
-123.1742024029986595
 21
-45.5139085448083378
 31
0.0
  0
LINE
  5
FD
100
AcDbEntity
  8
edge cuts plate
 62
256
370
-1
 48
1.0
  6
BYLAYER
100
AcDbLine
 10
-117.6087783087735232
 20
-77.0769970288496324
 30
0.0
 11
-117.6238857002305593
 21
-76.9913187543375273
 31
0.0
  0
LINE
  5
FE
100
AcDbEntity
  8
edge cuts plate
 62
256
370
-1
 48
1.0
  6
BYLAYER
100
AcDbLine
 10
-21.5749999999999886
 20
-6.4999999999999432
 30
0.0
 11
-21.5749999999999886
 21
6.5000000000000568
 31
0.0
  0
LINE
  5
FF
100
AcDbEntity
  8
edge cuts plate
 62
256
370
-1
 48
1.0
  6
BYLAYER
100
AcDbLine
 10
-21.5749999999999886
 20
-25.5499999999999545
 30
0.0
 11
-21.5749999999999886
 21
-12.5499999999999545
 31
0.0
  0
LINE
  5
100
100
AcDbEntity
  8
edge cuts plate
 62
256
370
-1
 48
1.0
  6
BYLAYER
100
AcDbLine
 10
-26.3375000000000057
 20
-44.6000000000000227
 30
0.0
 11
-26.3375000000000057
 21
-31.6000000000000227
 31
0.0
  0
LINE
  5
101
100
AcDbEntity
  8
edge cuts plate
 62
256
370
-1
 48
1.0
  6
BYLAYER
100
AcDbLine
 10
-41.1119253137983023
 20
-24.9007839936995055
 30
0.0
 11
-43.3693516234683898
 21
-12.0982832045407989
 31
0.0
  0
LINE
  5
102
100
AcDbEntity
  8
edge cuts plate
 62
256
370
-1
 48
1.0
  6
BYLAYER
100
AcDbLine
 10
-41.111925313798281
 20
-5.5569070372760594
 30
0.0
 11
-43.3693516234683756
 21
7.2455937518826481
 31
0.0
  0
LINE
  5
103
100
AcDbEntity
  8
edge cuts plate
 62
256
370
-1
 48
1.0
  6
BYLAYER
100
AcDbLine
 10
-59.8725130086808619
 20
-8.8649048218310895
 30
0.0
 11
-62.1299393183509494
 21
3.937595967327618
 31
0.0
  0
LINE
  5
104
100
AcDbEntity
  8
edge cuts plate
 62
256
370
-1
 48
1.0
  6
BYLAYER
100
AcDbLine
 10
-78.6331007035634144
 20
-12.172902606386117
 30
0.0
 11
-80.890527013233509
 21
0.6295981827725905
 31
0.0
  0
LINE
  5
105
100
AcDbEntity
  8
edge cuts plate
 62
256
370
-1
 48
1.0
  6
BYLAYER
100
AcDbLine
 10
-97.3936883984460025
 20
-15.4809003909411302
 30
0.0
 11
-99.6511147081160971
 21
-2.6783996017824228
 31
0.0
  0
LINE
  5
106
100
AcDbEntity
  8
edge cuts plate
 62
256
370
-1
 48
1.0
  6
BYLAYER
100
AcDbLine
 10
-97.393688398445974
 20
-34.8247773473646021
 30
0.0
 11
-99.6511147081160686
 21
-22.0222765582058955
 31
0.0
  0
LINE
  5
107
100
AcDbEntity
  8
edge cuts plate
 62
256
370
-1
 48
1.0
  6
BYLAYER
100
AcDbLine
 10
-78.6331007035634144
 20
-31.5167795628095604
 30
0.0
 11
-80.890527013233509
 21
-18.7142787736508538
 31
0.0
  0
LINE
  5
108
100
AcDbEntity
  8
edge cuts plate
 62
256
370
-1
 48
1.0
  6
BYLAYER
100
AcDbLine
 10
-59.8725130086808619
 20
-28.2087817782545329
 30
0.0
 11
-62.1299393183509494
 21
-15.4062809890958263
 31
0.0
  0
LINE
  5
109
100
AcDbEntity
  8
edge cuts plate
 62
256
370
-1
 48
1.0
  6
BYLAYER
100
AcDbLine
 10
-45.8744253137983193
 20
-45.0844181957470056
 30
0.0
 11
-48.1318516234684068
 21
-32.281917406588299
 31
0.0
  0
LINE
  5
10A
100
AcDbEntity
  8
edge cuts plate
 62
256
370
-1
 48
1.0
  6
BYLAYER
100
AcDbLine
 10
-64.6350130086808718
 20
-48.3924159803020331
 30
0.0
 11
-66.8924393183509665
 21
-35.5899151911433265
 31
0.0
  0
LINE
  5
10B
100
AcDbEntity
  8
edge cuts plate
 62
256
370
-1
 48
1.0
  6
BYLAYER
100
AcDbLine
 10
-83.3956007035634315
 20
-51.7004137648570889
 30
0.0
 11
-85.6530270132335261
 21
-38.8979129756983824
 31
0.0
  0
LINE
  5
10C
100
AcDbEntity
  8
edge cuts plate
 62
256
370
-1
 48
1.0
  6
BYLAYER
100
AcDbLine
 10
-102.1561883984459627
 20
-55.0084115494121164
 30
0.0
 11
-104.4136147081160573
 21
-42.2059107602534098
 31
0.0
  0
LINE
  5
10D
100
AcDbEntity
  8
edge cuts plate
 62
256
370
-1
 48
1.0
  6
BYLAYER
100
AcDbLine
 10
-47.2565744529639105
 20
-64.6720053367683363
 30
0.0
 11
-49.514000762633998
 21
-51.8695045476096368
 31
0.0
  0
LINE
  5
10E
100
AcDbEntity
  8
edge cuts plate
 62
256
370
-1
 48
1.0
  6
BYLAYER
100
AcDbLine
 10
-66.0171621478464914
 20
-67.9800031213233922
 30
0.0
 11
-68.274588457516586
 21
-55.1775023321646927
 31
0.0
  0
LINE
  5
10F
100
AcDbEntity
  8
edge cuts plate
 62
256
370
-1
 48
1.0
  6
BYLAYER
100
AcDbLine
 10
18.90625
 20
-63.6499999999999986
 30
0.0
 11
18.90625
 21
-50.6499999999999986
 31
0.0
  0
LINE
  5
110
100
AcDbEntity
  8
edge cuts plate
 62
256
370
-1
 48
1.0
  6
BYLAYER
100
AcDbLine
 10
-2.5250000000000004
 20
-63.6499999999999915
 30
0.0
 11
-2.5250000000000004
 21
-50.6499999999999915
 31
0.0
  0
LINE
  5
111
100
AcDbEntity
  8
edge cuts plate
 62
256
370
-1
 48
1.0
  6
BYLAYER
100
AcDbLine
 10
-21.5749999999999993
 20
-63.649999999999892
 30
0.0
 11
-21.5749999999999993
 21
-50.649999999999892
 31
0.0
  0
LINE
  5
112
100
AcDbEntity
  8
edge cuts plate
 62
256
370
-1
 48
1.0
  6
BYLAYER
100
AcDbLine
 10
18.90625
 20
-44.6000000000000227
 30
0.0
 11
18.90625
 21
-31.6000000000000227
 31
0.0
  0
ARC
  5
113
100
AcDbEntity
  8
edge cuts plate
 62
256
370
-1
 48
1.0
  6
BYLAYER
100
AcDbCircle
 10
-35.0749999999999886
 20
6.5000000000000568
 30
0.0
 40
0.5
100
AcDbArc
 50
90.0
 51
180.0
  0
ARC
  5
114
100
AcDbEntity
  8
edge cuts plate
 62
256
370
-1
 48
1.0
  6
BYLAYER
100
AcDbCircle
 10
-35.0749999999999886
 20
-12.5499999999999545
 30
0.0
 40
0.5
100
AcDbArc
 50
90.0
 51
180.0
  0
ARC
  5
115
100
AcDbEntity
  8
edge cuts plate
 62
256
370
-1
 48
1.0
  6
BYLAYER
100
AcDbCircle
 10
-39.8375000000000057
 20
-31.6000000000000227
 30
0.0
 40
0.5
100
AcDbArc
 50
90.0
 51
180.0
  0
ARC
  5
116
100
AcDbEntity
  8
edge cuts plate
 62
256
370
-1
 48
1.0
  6
BYLAYER
100
AcDbCircle
 10
-56.6642562891331991
 20
-14.442533603044355
 30
0.0
 40
0.5
100
AcDbArc
 50
100.0
 51
190.0
  0
ARC
  5
117
100
AcDbEntity
  8
edge cuts plate
 62
256
370
-1
 48
1.0
  6
BYLAYER
100
AcDbCircle
 10
-56.6642562891331778
 20
4.9013433533790911
 30
0.0
 40
0.5
100
AcDbArc
 50
100.0
 51
190.0
  0
ARC
  5
118
100
AcDbEntity
  8
edge cuts plate
 62
256
370
-1
 48
1.0
  6
BYLAYER
100
AcDbCircle
 10
-75.4248439840157516
 20
1.593345568824061
 30
0.0
 40
0.5
100
AcDbArc
 50
100.0
 51
190.0
  0
ARC
  5
119
100
AcDbEntity
  8
edge cuts plate
 62
256
370
-1
 48
1.0
  6
BYLAYER
100
AcDbCircle
 10
-94.1854316788983112
 20
-1.7146522157309665
 30
0.0
 40
0.5
100
AcDbArc
 50
100.0
 51
190.0
  0
ARC
  5
11A
100
AcDbEntity
  8
edge cuts plate
 62
256
370
-1
 48
1.0
  6
BYLAYER
100
AcDbCircle
 10
-112.9460193737808993
 20
-5.0226500002859797
 30
0.0
 40
0.5
100
AcDbArc
 50
100.0
 51
190.0
  0
ARC
  5
11B
100
AcDbEntity
  8
edge cuts plate
 62
256
370
-1
 48
1.0
  6
BYLAYER
100
AcDbCircle
 10
-112.9460193737808709
 20
-24.3665269567094498
 30
0.0
 40
0.5
100
AcDbArc
 50
100.0
 51
190.0
  0
ARC
  5
11C
100
AcDbEntity
  8
edge cuts plate
 62
256
370
-1
 48
1.0
  6
BYLAYER
100
AcDbCircle
 10
-94.1854316788983112
 20
-21.0585291721544081
 30
0.0
 40
0.5
100
AcDbArc
 50
100.0
 51
190.0
  0
ARC
  5
11D
100
AcDbEntity
  8
edge cuts plate
 62
256
370
-1
 48
1.0
  6
BYLAYER
100
AcDbCircle
 10
-75.4248439840157516
 20
-17.7505313875993807
 30
0.0
 40
0.5
100
AcDbArc
 50
100.0
 51
190.0
  0
ARC
  5
11E
100
AcDbEntity
  8
edge cuts plate
 62
256
370
-1
 48
1.0
  6
BYLAYER
100
AcDbCircle
 10
-61.4267562891332162
 20
-34.6261678050918533
 30
0.0
 40
0.5
100
AcDbArc
 50
100.0
 51
190.0
  0
ARC
  5
11F
100
AcDbEntity
  8
edge cuts plate
 62
256
370
-1
 48
1.0
  6
BYLAYER
100
AcDbCircle
 10
-80.1873439840157687
 20
-37.9341655896468808
 30
0.0
 40
0.5
100
AcDbArc
 50
100.0
 51
190.0
  0
ARC
  5
120
100
AcDbEntity
  8
edge cuts plate
 62
256
370
-1
 48
1.0
  6
BYLAYER
100
AcDbCircle
 10
-98.9479316788983283
 20
-41.2421633742019367
 30
0.0
 40
0.5
100
AcDbArc
 50
100.0
 51
190.0
  0
ARC
  5
121
100
AcDbEntity
  8
edge cuts plate
 62
256
370
-1
 48
1.0
  6
BYLAYER
100
AcDbCircle
 10
-117.7085193737808595
 20
-44.5501611587569641
 30
0.0
 40
0.5
100
AcDbArc
 50
100.0
 51
190.0
  0
ARC
  5
122
100
AcDbEntity
  8
edge cuts plate
 62
256
370
-1
 48
1.0
  6
BYLAYER
100
AcDbCircle
 10
-62.8089054282988073
 20
-54.2137549461131911
 30
0.0
 40
0.5
100
AcDbArc
 50
100.0
 51
190.0
  0
ARC
  5
123
100
AcDbEntity
  8
edge cuts plate
 62
256
370
-1
 48
1.0
  6
BYLAYER
100
AcDbCircle
 10
5.40625
 20
-50.6499999999999986
 30
0.0
 40
0.5
100
AcDbArc
 50
90.0
 51
180.0
  0
ARC
  5
124
100
AcDbEntity
  8
edge cuts plate
 62
256
370
-1
 48
1.0
  6
BYLAYER
100
AcDbCircle
 10
-16.0249999999999986
 20
-50.6499999999999915
 30
0.0
 40
0.5
100
AcDbArc
 50
90.0
 51
180.0
  0
ARC
  5
125
100
AcDbEntity
  8
edge cuts plate
 62
256
370
-1
 48
1.0
  6
BYLAYER
100
AcDbCircle
 10
-35.0750000000000028
 20
-50.649999999999892
 30
0.0
 40
0.5
100
AcDbArc
 50
90.0
 51
180.0
  0
ARC
  5
126
100
AcDbEntity
  8
edge cuts plate
 62
256
370
-1
 48
1.0
  6
BYLAYER
100
AcDbCircle
 10
-20.7875000000000014
 20
-31.6000000000000227
 30
0.0
 40
0.5
100
AcDbArc
 50
90.0
 51
180.0
  0
ARC
  5
127
100
AcDbEntity
  8
edge cuts plate
 62
256
370
-1
 48
1.0
  6
BYLAYER
100
AcDbCircle
 10
-107.3653015494143972
 20
-62.0702497602556917
 30
0.0
 40
0.5
100
AcDbArc
 50
100.0
 51
190.0
  0
ARC
  5
128
100
AcDbEntity
  8
edge cuts plate
 62
256
370
-1
 48
1.0
  6
BYLAYER
100
AcDbCircle
 10
-123.6666062795047623
 20
-45.6007326336418188
 30
0.0
 40
0.5
100
AcDbArc
 50
9.9999999999999396
 51
100.0
  0
ARC
  5
129
100
AcDbEntity
  8
edge cuts plate
 62
256
370
-1
 48
1.0
  6
BYLAYER
100
AcDbCircle
 10
-22.0749999999999886
 20
6.5000000000000568
 30
0.0
 40
0.5
100
AcDbArc
 50
0.0
 51
90.0000000000000995
  0
ARC
  5
12A
100
AcDbEntity
  8
edge cuts plate
 62
256
370
-1
 48
1.0
  6
BYLAYER
100
AcDbCircle
 10
-22.0749999999999886
 20
-12.5499999999999545
 30
0.0
 40
0.5
100
AcDbArc
 50
0.0
 51
90.0000000000000995
  0
ARC
  5
12B
100
AcDbEntity
  8
edge cuts plate
 62
256
370
-1
 48
1.0
  6
BYLAYER
100
AcDbCircle
 10
-26.8375000000000057
 20
-31.6000000000000227
 30
0.0
 40
0.5
100
AcDbArc
 50
0.0
 51
90.0000000000000995
  0
ARC
  5
12C
100
AcDbEntity
  8
edge cuts plate
 62
256
370
-1
 48
1.0
  6
BYLAYER
100
AcDbCircle
 10
-43.8617554999744996
 20
-12.1851072933742621
 30
0.0
 40
0.5
100
AcDbArc
 50
10.0
 51
100.0000000000000995
  0
ARC
  5
12D
100
AcDbEntity
  8
edge cuts plate
 62
256
370
-1
 48
1.0
  6
BYLAYER
100
AcDbCircle
 10
-43.8617554999744783
 20
7.1587696630491831
 30
0.0
 40
0.5
100
AcDbArc
 50
10.0
 51
100.0000000000000995
  0
ARC
  5
12E
100
AcDbEntity
  8
edge cuts plate
 62
256
370
-1
 48
1.0
  6
BYLAYER
100
AcDbCircle
 10
-62.6223431948570592
 20
3.8507718784941529
 30
0.0
 40
0.5
100
AcDbArc
 50
10.0
 51
100.0000000000000995
  0
ARC
  5
12F
100
AcDbEntity
  8
edge cuts plate
 62
256
370
-1
 48
1.0
  6
BYLAYER
100
AcDbCircle
 10
-81.3829308897396118
 20
0.5427740939391255
 30
0.0
 40
0.5
100
AcDbArc
 50
10.0
 51
100.0000000000000995
  0
ARC
  5
130
100
AcDbEntity
  8
edge cuts plate
 62
256
370
-1
 48
1.0
  6
BYLAYER
100
AcDbCircle
 10
-100.1435185846221998
 20
-2.7652236906158878
 30
0.0
 40
0.5
100
AcDbArc
 50
10.0
 51
100.0000000000000995
  0
ARC
  5
131
100
AcDbEntity
  8
edge cuts plate
 62
256
370
-1
 48
1.0
  6
BYLAYER
100
AcDbCircle
 10
-100.1435185846221714
 20
-22.1091006470393587
 30
0.0
 40
0.5
100
AcDbArc
 50
10.0
 51
100.0000000000000995
  0
ARC
  5
132
100
AcDbEntity
  8
edge cuts plate
 62
256
370
-1
 48
1.0
  6
BYLAYER
100
AcDbCircle
 10
-81.3829308897396118
 20
-18.8011028624843171
 30
0.0
 40
0.5
100
AcDbArc
 50
10.0
 51
100.0000000000000995
  0
ARC
  5
133
100
AcDbEntity
  8
edge cuts plate
 62
256
370
-1
 48
1.0
  6
BYLAYER
100
AcDbCircle
 10
-62.6223431948570592
 20
-15.4931050779292896
 30
0.0
 40
0.5
100
AcDbArc
 50
10.0
 51
100.0000000000000995
  0
ARC
  5
134
100
AcDbEntity
  8
edge cuts plate
 62
256
370
-1
 48
1.0
  6
BYLAYER
100
AcDbCircle
 10
-48.6242554999745167
 20
-32.3687414954217658
 30
0.0
 40
0.5
100
AcDbArc
 50
10.0
 51
100.0000000000000995
  0
ARC
  5
135
100
AcDbEntity
  8
edge cuts plate
 62
256
370
-1
 48
1.0
  6
BYLAYER
100
AcDbCircle
 10
-67.3848431948570692
 20
-35.6767392799767933
 30
0.0
 40
0.5
100
AcDbArc
 50
10.0
 51
100.0000000000000995
  0
ARC
  5
136
100
AcDbEntity
  8
edge cuts plate
 62
256
370
-1
 48
1.0
  6
BYLAYER
100
AcDbCircle
 10
-86.1454308897396288
 20
-38.9847370645318492
 30
0.0
 40
0.5
100
AcDbArc
 50
10.0
 51
100.0000000000000995
  0
ARC
  5
137
100
AcDbEntity
  8
edge cuts plate
 62
256
370
-1
 48
1.0
  6
BYLAYER
100
AcDbCircle
 10
-104.90601858462216
 20
-42.2927348490868766
 30
0.0
 40
0.5
100
AcDbArc
 50
10.0
 51
100.0000000000000995
  0
ARC
  5
138
100
AcDbEntity
  8
edge cuts plate
 62
256
370
-1
 48
1.0
  6
BYLAYER
100
AcDbCircle
 10
-50.0064046391401078
 20
-51.9563286364431036
 30
0.0
 40
0.5
100
AcDbArc
 50
10.0
 51
100.0000000000000995
  0
ARC
  5
139
100
AcDbEntity
  8
edge cuts plate
 62
256
370
-1
 48
1.0
  6
BYLAYER
100
AcDbCircle
 10
-68.7669923340226887
 20
-55.2643264209981595
 30
0.0
 40
0.5
100
AcDbArc
 50
10.0
 51
100.0000000000000995
  0
ARC
  5
13A
100
AcDbEntity
  8
edge cuts plate
 62
256
370
-1
 48
1.0
  6
BYLAYER
100
AcDbCircle
 10
18.40625
 20
-50.6499999999999986
 30
0.0
 40
0.5
100
AcDbArc
 50
0.0
 51
90.0000000000000995
  0
ARC
  5
13B
100
AcDbEntity
  8
edge cuts plate
 62
256
370
-1
 48
1.0
  6
BYLAYER
100
AcDbCircle
 10
-3.0250000000000004
 20
-50.6499999999999915
 30
0.0
 40
0.5
100
AcDbArc
 50
0.0
 51
90.0000000000000995
  0
ARC
  5
13C
100
AcDbEntity
  8
edge cuts plate
 62
256
370
-1
 48
1.0
  6
BYLAYER
100
AcDbCircle
 10
-22.0749999999999993
 20
-50.649999999999892
 30
0.0
 40
0.5
100
AcDbArc
 50
0.0
 51
90.0000000000000995
  0
ARC
  5
13D
100
AcDbEntity
  8
edge cuts plate
 62
256
370
-1
 48
1.0
  6
BYLAYER
100
AcDbCircle
 10
18.40625
 20
-31.6000000000000227
 30
0.0
 40
0.5
100
AcDbArc
 50
0.0
 51
90.0000000000000995
  0
ARC
  5
13E
100
AcDbEntity
  8
edge cuts plate
 62
256
370
-1
 48
1.0
  6
BYLAYER
100
AcDbCircle
 10
-136.4691070686635044
 20
-47.8581589433118992
 30
0.0
 40
0.5
100
AcDbArc
 50
99.9999999999999005
 51
189.9999999999999716
  0
ARC
  5
13F
100
AcDbEntity
  8
edge cuts plate
 62
256
370
-1
 48
1.0
  6
BYLAYER
100
AcDbCircle
 10
-22.0749999999999886
 20
-6.4999999999999432
 30
0.0
 40
0.5
100
AcDbArc
 50
270.0
 51
0.0
  0
ARC
  5
140
100
AcDbEntity
  8
edge cuts plate
 62
256
370
-1
 48
1.0
  6
BYLAYER
100
AcDbCircle
 10
-22.0749999999999886
 20
-25.5499999999999545
 30
0.0
 40
0.5
100
AcDbArc
 50
270.0
 51
0.0
  0
ARC
  5
141
100
AcDbEntity
  8
edge cuts plate
 62
256
370
-1
 48
1.0
  6
BYLAYER
100
AcDbCircle
 10
-26.8375000000000057
 20
-44.6000000000000227
 30
0.0
 40
0.5
100
AcDbArc
 50
270.0
 51
0.0
  0
ARC
  5
142
100
AcDbEntity
  8
edge cuts plate
 62
256
370
-1
 48
1.0
  6
BYLAYER
100
AcDbCircle
 10
-41.604329190304405
 20
-24.9876080825329723
 30
0.0
 40
0.5
100
AcDbArc
 50
280.0
 51
10.0
  0
ARC
  5
143
100
AcDbEntity
  8
edge cuts plate
 62
256
370
-1
 48
1.0
  6
BYLAYER
100
AcDbCircle
 10
-41.6043291903043837
 20
-5.6437311261095253
 30
0.0
 40
0.5
100
AcDbArc
 50
280.0
 51
10.0
  0
ARC
  5
144
100
AcDbEntity
  8
edge cuts plate
 62
256
370
-1
 48
1.0
  6
BYLAYER
100
AcDbCircle
 10
-60.3649168851869646
 20
-8.9517289106645563
 30
0.0
 40
0.5
100
AcDbArc
 50
280.0
 51
10.0
  0
ARC
  5
145
100
AcDbEntity
  8
edge cuts plate
 62
256
370
-1
 48
1.0
  6
BYLAYER
100
AcDbCircle
 10
-79.1255045800695314
 20
-12.2597266952195838
 30
0.0
 40
0.5
100
AcDbArc
 50
280.0
 51
10.0
  0
ARC
  5
146
100
AcDbEntity
  8
edge cuts plate
 62
256
370
-1
 48
1.0
  6
BYLAYER
100
AcDbCircle
 10
-97.8860922749521194
 20
-15.5677244797745971
 30
0.0
 40
0.5
100
AcDbArc
 50
280.0
 51
10.0
  0
ARC
  5
147
100
AcDbEntity
  8
edge cuts plate
 62
256
370
-1
 48
1.0
  6
BYLAYER
100
AcDbCircle
 10
-97.886092274952091
 20
-34.9116014361980689
 30
0.0
 40
0.5
100
AcDbArc
 50
280.0
 51
10.0
  0
ARC
  5
148
100
AcDbEntity
  8
edge cuts plate
 62
256
370
-1
 48
1.0
  6
BYLAYER
100
AcDbCircle
 10
-79.1255045800695314
 20
-31.6036036516430272
 30
0.0
 40
0.5
100
AcDbArc
 50
280.0
 51
10.0
  0
ARC
  5
149
100
AcDbEntity
  8
edge cuts plate
 62
256
370
-1
 48
1.0
  6
BYLAYER
100
AcDbCircle
 10
-60.3649168851869646
 20
-28.2956058670879997
 30
0.0
 40
0.5
100
AcDbArc
 50
280.0
 51
10.0
  0
ARC
  5
14A
100
AcDbEntity
  8
edge cuts plate
 62
256
370
-1
 48
1.0
  6
BYLAYER
100
AcDbCircle
 10
-46.3668291903044221
 20
-45.1712422845804724
 30
0.0
 40
0.5
100
AcDbArc
 50
280.0
 51
10.0
  0
ARC
  5
14B
100
AcDbEntity
  8
edge cuts plate
 62
256
370
-1
 48
1.0
  6
BYLAYER
100
AcDbCircle
 10
-65.1274168851869888
 20
-48.4792400691354999
 30
0.0
 40
0.5
100
AcDbArc
 50
280.0
 51
10.0
  0
ARC
  5
14C
100
AcDbEntity
  8
edge cuts plate
 62
256
370
-1
 48
1.0
  6
BYLAYER
100
AcDbCircle
 10
-83.8880045800695484
 20
-51.7872378536905558
 30
0.0
 40
0.5
100
AcDbArc
 50
280.0
 51
10.0
  0
ARC
  5
14D
100
AcDbEntity
  8
edge cuts plate
 62
256
370
-1
 48
1.0
  6
BYLAYER
100
AcDbCircle
 10
-102.6485922749520796
 20
-55.0952356382455832
 30
0.0
 40
0.5
100
AcDbArc
 50
280.0
 51
10.0
  0
ARC
  5
14E
100
AcDbEntity
  8
edge cuts plate
 62
256
370
-1
 48
1.0
  6
BYLAYER
100
AcDbCircle
 10
-118.1011821852796402
 20
-77.1638211176831419
 30
0.0
 40
0.5
100
AcDbArc
 50
280.0
 51
10.0
  0
ARC
  5
14F
100
AcDbEntity
  8
edge cuts plate
 62
256
370
-1
 48
1.0
  6
BYLAYER
100
AcDbCircle
 10
-47.7489783294700132
 20
-64.7588294256018031
 30
0.0
 40
0.5
100
AcDbArc
 50
280.0
 51
10.0
  0
ARC
  5
150
100
AcDbEntity
  8
edge cuts plate
 62
256
370
-1
 48
1.0
  6
BYLAYER
100
AcDbCircle
 10
-66.5095660243526083
 20
-68.066827210156859
 30
0.0
 40
0.5
100
AcDbArc
 50
280.0
 51
10.0
  0
ARC
  5
151
100
AcDbEntity
  8
edge cuts plate
 62
256
370
-1
 48
1.0
  6
BYLAYER
100
AcDbCircle
 10
18.40625
 20
-63.6499999999999986
 30
0.0
 40
0.5
100
AcDbArc
 50
270.0
 51
0.0
  0
ARC
  5
152
100
AcDbEntity
  8
edge cuts plate
 62
256
370
-1
 48
1.0
  6
BYLAYER
100
AcDbCircle
 10
-3.0250000000000004
 20
-63.6499999999999915
 30
0.0
 40
0.5
100
AcDbArc
 50
270.0
 51
0.0
  0
ARC
  5
153
100
AcDbEntity
  8
edge cuts plate
 62
256
370
-1
 48
1.0
  6
BYLAYER
100
AcDbCircle
 10
-22.0749999999999993
 20
-63.649999999999892
 30
0.0
 40
0.5
100
AcDbArc
 50
270.0
 51
0.0
  0
ARC
  5
154
100
AcDbEntity
  8
edge cuts plate
 62
256
370
-1
 48
1.0
  6
BYLAYER
100
AcDbCircle
 10
18.40625
 20
-44.6000000000000227
 30
0.0
 40
0.5
100
AcDbArc
 50
270.0
 51
0.0
  0
ARC
  5
155
100
AcDbEntity
  8
edge cuts plate
 62
256
370
-1
 48
1.0
  6
BYLAYER
100
AcDbCircle
 10
-130.9036829744383681
 20
-79.4212474273531939
 30
0.0
 40
0.5
100
AcDbArc
 50
189.9999999999999716
 51
280.0
  0
ARC
  5
156
100
AcDbEntity
  8
edge cuts plate
 62
256
370
-1
 48
1.0
  6
BYLAYER
100
AcDbCircle
 10
-35.0749999999999886
 20
-6.4999999999999432
 30
0.0
 40
0.5
100
AcDbArc
 50
180.0
 51
270.0
  0
ARC
  5
157
100
AcDbEntity
  8
edge cuts plate
 62
256
370
-1
 48
1.0
  6
BYLAYER
100
AcDbCircle
 10
-35.0749999999999886
 20
-25.5499999999999545
 30
0.0
 40
0.5
100
AcDbArc
 50
180.0
 51
270.0
  0
ARC
  5
158
100
AcDbEntity
  8
edge cuts plate
 62
256
370
-1
 48
1.0
  6
BYLAYER
100
AcDbCircle
 10
-39.8375000000000057
 20
-44.6000000000000227
 30
0.0
 40
0.5
100
AcDbArc
 50
180.0
 51
270.0
  0
ARC
  5
159
100
AcDbEntity
  8
edge cuts plate
 62
256
370
-1
 48
1.0
  6
BYLAYER
100
AcDbCircle
 10
-54.4068299794631116
 20
-27.2450343922030598
 30
0.0
 40
0.5
100
AcDbArc
 50
190.0
 51
280.0
  0
ARC
  5
15A
100
AcDbEntity
  8
edge cuts plate
 62
256
370
-1
 48
1.0
  6
BYLAYER
100
AcDbCircle
 10
-54.4068299794630903
 20
-7.9011574357796137
 30
0.0
 40
0.5
100
AcDbArc
 50
190.0
 51
280.0
  0
ARC
  5
15B
100
AcDbEntity
  8
edge cuts plate
 62
256
370
-1
 48
1.0
  6
BYLAYER
100
AcDbCircle
 10
-73.1674176743456712
 20
-11.2091552203346438
 30
0.0
 40
0.5
100
AcDbArc
 50
190.0
 51
280.0
  0
ARC
  5
15C
100
AcDbEntity
  8
edge cuts plate
 62
256
370
-1
 48
1.0
  6
BYLAYER
100
AcDbCircle
 10
-91.9280053692282308
 20
-14.5171530048896713
 30
0.0
 40
0.5
100
AcDbArc
 50
190.0
 51
280.0
  0
ARC
  5
15D
100
AcDbEntity
  8
edge cuts plate
 62
256
370
-1
 48
1.0
  6
BYLAYER
100
AcDbCircle
 10
-110.6885930641108189
 20
-17.8251507894446846
 30
0.0
 40
0.5
100
AcDbArc
 50
190.0
 51
280.0
  0
ARC
  5
15E
100
AcDbEntity
  8
edge cuts plate
 62
256
370
-1
 48
1.0
  6
BYLAYER
100
AcDbCircle
 10
-110.6885930641107905
 20
-37.1690277458681564
 30
0.0
 40
0.5
100
AcDbArc
 50
190.0
 51
280.0
  0
ARC
  5
15F
100
AcDbEntity
  8
edge cuts plate
 62
256
370
-1
 48
1.0
  6
BYLAYER
100
AcDbCircle
 10
-91.9280053692282308
 20
-33.8610299613131147
 30
0.0
 40
0.5
100
AcDbArc
 50
190.0
 51
280.0
  0
ARC
  5
160
100
AcDbEntity
  8
edge cuts plate
 62
256
370
-1
 48
1.0
  6
BYLAYER
100
AcDbCircle
 10
-73.1674176743456712
 20
-30.5530321767580872
 30
0.0
 40
0.5
100
AcDbArc
 50
190.0
 51
280.0
  0
ARC
  5
161
100
AcDbEntity
  8
edge cuts plate
 62
256
370
-1
 48
1.0
  6
BYLAYER
100
AcDbCircle
 10
-59.1693299794631287
 20
-47.4286685942505599
 30
0.0
 40
0.5
100
AcDbArc
 50
190.0
 51
280.0
  0
ARC
  5
162
100
AcDbEntity
  8
edge cuts plate
 62
256
370
-1
 48
1.0
  6
BYLAYER
100
AcDbCircle
 10
-77.9299176743456883
 20
-50.7366663788055874
 30
0.0
 40
0.5
100
AcDbArc
 50
190.0
 51
280.0
  0
ARC
  5
163
100
AcDbEntity
  8
edge cuts plate
 62
256
370
-1
 48
1.0
  6
BYLAYER
100
AcDbCircle
 10
-96.6905053692282479
 20
-54.0446641633606433
 30
0.0
 40
0.5
100
AcDbArc
 50
190.0
 51
280.0
  0
ARC
  5
164
100
AcDbEntity
  8
edge cuts plate
 62
256
370
-1
 48
1.0
  6
BYLAYER
100
AcDbCircle
 10
-115.4510930641107791
 20
-57.3526619479156707
 30
0.0
 40
0.5
100
AcDbArc
 50
190.0
 51
280.0
  0
ARC
  5
165
100
AcDbEntity
  8
edge cuts plate
 62
256
370
-1
 48
1.0
  6
BYLAYER
100
AcDbCircle
 10
-60.5514791186287198
 20
-67.0162557352718977
 30
0.0
 40
0.5
100
AcDbArc
 50
190.0
 51
280.0
  0
ARC
  5
166
100
AcDbEntity
  8
edge cuts plate
 62
256
370
-1
 48
1.0
  6
BYLAYER
100
AcDbCircle
 10
5.40625
 20
-63.6499999999999986
 30
0.0
 40
0.5
100
AcDbArc
 50
180.0
 51
270.0
  0
ARC
  5
167
100
AcDbEntity
  8
edge cuts plate
 62
256
370
-1
 48
1.0
  6
BYLAYER
100
AcDbCircle
 10
-16.0249999999999986
 20
-63.6499999999999915
 30
0.0
 40
0.5
100
AcDbArc
 50
180.0
 51
270.0
  0
ARC
  5
168
100
AcDbEntity
  8
edge cuts plate
 62
256
370
-1
 48
1.0
  6
BYLAYER
100
AcDbCircle
 10
-35.0750000000000028
 20
-63.649999999999892
 30
0.0
 40
0.5
100
AcDbArc
 50
180.0
 51
270.0
  0
ARC
  5
169
100
AcDbEntity
  8
edge cuts plate
 62
256
370
-1
 48
1.0
  6
BYLAYER
100
AcDbCircle
 10
-20.7875000000000014
 20
-44.6000000000000227
 30
0.0
 40
0.5
100
AcDbArc
 50
180.0
 51
270.0
  0
ARC
  5
16A
100
AcDbEntity
  8
edge cuts plate
 62
256
370
-1
 48
1.0
  6
BYLAYER
100
AcDbCircle
 10
-105.1078752397443026
 20
-74.8727505494144054
 30
0.0
 40
0.5
100
AcDbArc
 50
190.0
 51
280.0
  0
ARC
  5
16B
100
AcDbEntity
  8
edge cuts plate
 62
256
370
-1
 48
1.0
  6
BYLAYER
100
AcDbCircle
 10
-118.1011821852796828
 20
-77.163821117683085
 30
0.0
 40
0.5
100
AcDbArc
 50
280.0
 51
9.9999999999999396
  0
ARC
  5
16C
100
AcDbEntity
  8
edge cuts plate
 62
256
370
-1
 48
1.0
  6
BYLAYER
100
AcDbCircle
 10
-7.9380000000000166
 20
-7.4999999999999432
 30
0.0
 40
0.5
100
AcDbArc
 50
90.0
 51
180.0
  0
ARC
  5
16D
100
AcDbEntity
  8
edge cuts plate
 62
256
370
-1
 48
1.0
  6
BYLAYER
100
AcDbCircle
 10
-5.556750000000017
 20
-26.5499999999999545
 30
0.0
 40
0.5
100
AcDbArc
 50
90.0
 51
180.0
  0
ARC
  5
16E
100
AcDbEntity
  8
edge cuts plate
 62
256
370
-1
 48
1.0
  6
BYLAYER
100
AcDbCircle
 10
-5.556750000000017
 20
-45.6000000000000227
 30
0.0
 40
0.5
100
AcDbArc
 50
90.0
 51
180.0
  0
ARC
  5
16F
100
AcDbEntity
  8
edge cuts plate
 62
256
370
-1
 48
1.0
  6
BYLAYER
100
AcDbCircle
 10
-83.940001375269631
 20
-56.9243106964735617
 30
0.0
 40
0.5
100
AcDbArc
 50
280.0
 51
9.9999999999999876
  0
ARC
  5
170
100
AcDbEntity
  8
edge cuts plate
 62
256
370
-1
 48
1.0
  6
BYLAYER
100
AcDbCircle
 10
-121.2775057137001085
 20
-53.3912247545846057
 30
0.0
 40
0.5
100
AcDbArc
 50
99.9999999999999858
 51
189.9999999999999716
  0
ARC
  5
171
100
AcDbEntity
  8
edge cuts plate
 62
256
370
-1
 48
1.0
  6
BYLAYER
100
AcDbCircle
 10
7.9380000000000166
 20
-7.4999999999999432
 30
0.0
 40
0.5
100
AcDbArc
 50
0.0
 51
89.999999999999801
  0
ARC
  5
172
100
AcDbEntity
  8
edge cuts plate
 62
256
370
-1
 48
1.0
  6
BYLAYER
100
AcDbCircle
 10
10.3192500000000162
 20
-26.5499999999999545
 30
0.0
 40
0.5
100
AcDbArc
 50
0.0
 51
89.999999999999801
  0
ARC
  5
173
100
AcDbEntity
  8
edge cuts plate
 62
256
370
-1
 48
1.0
  6
BYLAYER
100
AcDbCircle
 10
10.3192500000000162
 20
-45.6000000000000227
 30
0.0
 40
0.5
100
AcDbArc
 50
0.0
 51
89.999999999999801
  0
ARC
  5
174
100
AcDbEntity
  8
edge cuts plate
 62
256
370
-1
 48
1.0
  6
BYLAYER
100
AcDbCircle
 10
-99.5748092620914491
 20
-59.6811491651137516
 30
0.0
 40
0.5
100
AcDbArc
 50
190.0
 51
279.9999999999997158
  0
ARC
  5
175
100
AcDbEntity
  8
edge cuts plate
 62
256
370
-1
 48
1.0
  6
BYLAYER
100
AcDbCircle
 10
-118.5206672450599257
 20
-69.0260326414064309
 30
0.0
 40
0.5
100
AcDbArc
 50
190.000000000000199
 51
280.0
  0
ARC
  5
176
100
AcDbEntity
  8
edge cuts plate
 62
256
370
-1
 48
1.0
  6
BYLAYER
100
AcDbCircle
 10
-117.1314818237245134
 20
-76.9044946655040746
 30
0.0
 40
0.5
100
AcDbArc
 50
100.0000000000007674
 51
190.0000000000005684
  0
ARC
  5
177
100
AcDbEntity
  8
edge cuts plate
 62
256
370
-1
 48
1.0
  6
BYLAYER
100
AcDbCircle
 10
-122.6666911350355207
 20
-45.5127627304869335
 30
0.0
 40
0.5
100
AcDbArc
 50
189.9999999999998863
 51
280.0000000000000568
  0
ARC
  5
178
100
AcDbEntity
  8
edge cuts plate
 62
256
370
-1
 48
1.0
  6
BYLAYER
100
AcDbCircle
 10
-107.4532712861891213
 20
-61.0703345864491638
 30
0.0
 40
0.5
100
AcDbArc
 50
280.0000000000003411
 51
10.0000000000001972
  0
ARC
  5
179
100
AcDbEntity
  8
edge cuts plate
 62
256
370
-1
 48
1.0
  6
BYLAYER
100
AcDbCircle
 10
-76.0615393537124334
 20
-55.5351252607302328
 30
0.0
 40
0.5
100
AcDbArc
 50
189.9999999999998863
 51
280.0000000000000568
  0
ARC
  5
17A
100
AcDbEntity
  8
edge cuts plate
 62
256
370
-1
 48
1.0
  6
BYLAYER
100
AcDbCircle
 10
-13.5567500000000152
 20
-45.6000000000000227
 30
0.0
 40
0.5
100
AcDbArc
 50
0.0
 51
90.0
  0
ARC
  5
17B
100
AcDbEntity
  8
edge cuts plate
 62
256
370
-1
 48
1.0
  6
BYLAYER
100
AcDbCircle
 10
18.319250000000018
 20
-45.6000000000000156
 30
0.0
 40
0.5
100
AcDbArc
 50
90.0
 51
180.0
  0
ENDSEC
  0
SECTION
  2
OBJECTS
  0
DICTIONARY
  5
C
100
AcDbDictionary
280
0
281
1
  3
ACAD_GROUP
350
D
  3
ACAD_LAYOUT
350
1A
  3
ACAD_MLINESTYLE
350
17
  3
ACAD_PLOTSETTINGS
350
19
  3
ACAD_PLOTSTYLENAME
350
E
  3
AcDbVariableDictionary
350
17C
  3
QCAD_OBJECTS
350
17D
  0
DICTIONARY
  5
D
100
AcDbDictionary
280
0
281
1
  0
ACDBDICTIONARYWDFLT
  5
E
100
AcDbDictionary
281
1
  3
Normal
350
F
100
AcDbDictionaryWithDefault
340
F
  0
ACDBPLACEHOLDER
  5
F
  0
DICTIONARY
  5
17
100
AcDbDictionary
280
0
281
1
  3
Standard
350
18
  0
MLINESTYLE
  5
18
100
AcDbMlineStyle
  2
STANDARD
 70
0
  3

 62
256
 51
90.0
 52
90.0
 71
2
 49
0.5
 62
256
  6
BYLAYER
 49
-0.5
 62
256
  6
BYLAYER
  0
DICTIONARY
  5
19
100
AcDbDictionary
280
0
281
1
  0
DICTIONARY
  5
1A
100
AcDbDictionary
281
1
  3
Layout1
350
1E
  3
Layout2
350
26
  3
Model
350
22
  0
LAYOUT
  5
1E
100
AcDbPlotSettings
  1

  2
none_device
  4

  6

 40
0.0
 41
0.0
 42
0.0
 43
0.0
 44
0.0
 45
0.0
 46
0.0
 47
0.0
 48
0.0
 49
0.0
140
0.0
141
0.0
142
1.0
143
1.0
 70
688
 72
0
 73
0
 74
5
  7

 75
16
147
1.0
148
0.0
149
0.0
100
AcDbLayout
  1
Layout1
 70
1
 71
1
 10
0.0
 20
0.0
 11
420.0
 21
297.0
 12
0.0
 22
0.0
 32
0.0
 14
100000000000000000000.0
 24
100000000000000000000.0
 34
100000000000000000000.0
 15
-100000000000000000000.0
 25
-100000000000000000000.0
 35
-100000000000000000000.0
146
0.0
 13
0.0
 23
0.0
 33
0.0
 16
1.0
 26
0.0
 36
0.0
 17
0.0
 27
1.0
 37
0.0
 76
0
330
1B
  0
LAYOUT
  5
22
100
AcDbPlotSettings
  1

  2
none_device
  4

  6

 40
0.0
 41
0.0
 42
0.0
 43
0.0
 44
0.0
 45
0.0
 46
0.0
 47
0.0
 48
0.0
 49
0.0
140
0.0
141
0.0
142
1.0
143
1.0
 70
1712
 72
0
 73
0
 74
0
  7

 75
0
147
1.0
148
0.0
149
0.0
100
AcDbLayout
  1
Model
 70
1
 71
0
 10
0.0
 20
0.0
 11
12.0
 21
9.0
 12
0.0
 22
0.0
 32
0.0
 14
0.0
 24
0.0
 34
0.0
 15
0.0
 25
0.0
 35
0.0
146
0.0
 13
0.0
 23
0.0
 33
0.0
 16
1.0
 26
0.0
 36
0.0
 17
0.0
 27
1.0
 37
0.0
 76
0
330
1F
  0
LAYOUT
  5
26
100
AcDbPlotSettings
  1

  2
none_device
  4

  6

 40
0.0
 41
0.0
 42
0.0
 43
0.0
 44
0.0
 45
0.0
 46
0.0
 47
0.0
 48
0.0
 49
0.0
140
0.0
141
0.0
142
1.0
143
1.0
 70
688
 72
0
 73
0
 74
5
  7

 75
16
147
1.0
148
0.0
149
0.0
100
AcDbLayout
  1
Layout2
 70
1
 71
2
 10
0.0
 20
0.0
 11
12.0
 21
9.0
 12
0.0
 22
0.0
 32
0.0
 14
0.0
 24
0.0
 34
0.0
 15
0.0
 25
0.0
 35
0.0
146
0.0
 13
0.0
 23
0.0
 33
0.0
 16
1.0
 26
0.0
 36
0.0
 17
0.0
 27
1.0
 37
0.0
 76
0
330
23
  0
DICTIONARY
  5
17C
100
AcDbDictionary
281
1
  3
DIMASSOC
350
17F
  3
HIDETEXT
350
17E
  0
DICTIONARYVAR
  5
17E
100
DictionaryVariables
280
0
  1
2
  0
DICTIONARYVAR
  5
17F
100
DictionaryVariables
280
0
  1
1
  0
DICTIONARY
  5
17D
100
AcDbDictionary
281
1
  3
ColorSettings/BackgroundColor
350
180
  3
ColorSettings/ColorMode
350
181
  3
Grid/DisplayGrid00
350
182
  3
Grid/DisplayGrid01
350
183
  3
Grid/DisplayGrid02
350
184
  3
Grid/DisplayGrid03
350
185
  3
Grid/GridSpacingX00
350
186
  3
Grid/GridSpacingX01
350
187
  3
Grid/GridSpacingX02
350
188
  3
Grid/GridSpacingX03
350
189
  3
Grid/GridSpacingY00
350
18A
  3
Grid/GridSpacingY01
350
18B
  3
Grid/GridSpacingY02
350
18C
  3
Grid/GridSpacingY03
350
18D
  3
Grid/IsometricGrid00
350
18E
  3
Grid/IsometricGrid01
350
18F
  3
Grid/IsometricGrid02
350
190
  3
Grid/IsometricGrid03
350
191
  3
Grid/IsometricProjection00
350
192
  3
Grid/IsometricProjection01
350
193
  3
Grid/IsometricProjection02
350
194
  3
Grid/IsometricProjection03
350
195
  3
Grid/MetaGridSpacingX00
350
196
  3
Grid/MetaGridSpacingX01
350
197
  3
Grid/MetaGridSpacingX02
350
198
  3
Grid/MetaGridSpacingX03
350
199
  3
Grid/MetaGridSpacingY00
350
19A
  3
Grid/MetaGridSpacingY01
350
19B
  3
Grid/MetaGridSpacingY02
350
19C
  3
Grid/MetaGridSpacingY03
350
19D
  3
MultiPageSettings/Columns
350
19E
  3
MultiPageSettings/GlueMarginsBottom
350
19F
  3
MultiPageSettings/GlueMarginsLeft
350
1A0
  3
MultiPageSettings/GlueMarginsRight
350
1A1
  3
MultiPageSettings/GlueMarginsTop
350
1A2
  3
MultiPageSettings/PrintCropMarks
350
1A3
  3
MultiPageSettings/Rows
350
1A4
  3
PageSettings/OffsetX
350
1A5
  3
PageSettings/OffsetY
350
1A6
  3
PageSettings/PageOrientation
350
1A7
  3
PageSettings/PaperHeight
350
1A8
  3
PageSettings/PaperWidth
350
1A9
  3
PageSettings/Scale
350
1AA
  3
PageSettings/ShowPaperBorders
350
1AB
  3
PageTagSettings/EnablePageTags
350
1AC
  3
PageTagSettings/TagAlignment
350
1AD
  3
PageTagSettings/TagFont
350
1AE
  3
PageTagSettings/TagPosition
350
1AF
  3
QCADVersion
350
1B0
  3
UnitSettings/PaperUnit
350
1B1
  3
ViewportCenter
350
1B2
  3
ViewportHeight
350
1B3
  3
ViewportWidth
350
1B4
  0
XRECORD
  5
180
330
17D
100
AcDbXrecord
280
1
1000
Wit
  0
XRECORD
  5
181
330
17D
100
AcDbXrecord
280
1
1000
FullColor
  0
XRECORD
  5
182
330
17D
100
AcDbXrecord
280
1
290
1
  0
XRECORD
  5
183
330
17D
100
AcDbXrecord
280
1
290
1
  0
XRECORD
  5
184
330
17D
100
AcDbXrecord
280
1
290
1
  0
XRECORD
  5
185
330
17D
100
AcDbXrecord
280
1
290
1
  0
XRECORD
  5
186
330
17D
100
AcDbXrecord
280
1
1000
auto
  0
XRECORD
  5
187
330
17D
100
AcDbXrecord
280
1
1000
auto
  0
XRECORD
  5
188
330
17D
100
AcDbXrecord
280
1
1000
auto
  0
XRECORD
  5
189
330
17D
100
AcDbXrecord
280
1
1000
auto
  0
XRECORD
  5
18A
330
17D
100
AcDbXrecord
280
1
1000
auto
  0
XRECORD
  5
18B
330
17D
100
AcDbXrecord
280
1
1000
auto
  0
XRECORD
  5
18C
330
17D
100
AcDbXrecord
280
1
1000
auto
  0
XRECORD
  5
18D
330
17D
100
AcDbXrecord
280
1
1000
auto
  0
XRECORD
  5
18E
330
17D
100
AcDbXrecord
280
1
290
0
  0
XRECORD
  5
18F
330
17D
100
AcDbXrecord
280
1
290
0
  0
XRECORD
  5
190
330
17D
100
AcDbXrecord
280
1
290
0
  0
XRECORD
  5
191
330
17D
100
AcDbXrecord
280
1
290
0
  0
XRECORD
  5
192
330
17D
100
AcDbXrecord
280
1
 90
65537
  0
XRECORD
  5
193
330
17D
100
AcDbXrecord
280
1
 90
65537
  0
XRECORD
  5
194
330
17D
100
AcDbXrecord
280
1
 90
65537
  0
XRECORD
  5
195
330
17D
100
AcDbXrecord
280
1
 90
65537
  0
XRECORD
  5
196
330
17D
100
AcDbXrecord
280
1
1000
auto
  0
XRECORD
  5
197
330
17D
100
AcDbXrecord
280
1
1000
auto
  0
XRECORD
  5
198
330
17D
100
AcDbXrecord
280
1
1000
auto
  0
XRECORD
  5
199
330
17D
100
AcDbXrecord
280
1
1000
auto
  0
XRECORD
  5
19A
330
17D
100
AcDbXrecord
280
1
1000
auto
  0
XRECORD
  5
19B
330
17D
100
AcDbXrecord
280
1
1000
auto
  0
XRECORD
  5
19C
330
17D
100
AcDbXrecord
280
1
1000
auto
  0
XRECORD
  5
19D
330
17D
100
AcDbXrecord
280
1
1000
auto
  0
XRECORD
  5
19E
330
17D
100
AcDbXrecord
280
1
 90
1
  0
XRECORD
  5
19F
330
17D
100
AcDbXrecord
280
1
 40
10.0
  0
XRECORD
  5
1A0
330
17D
100
AcDbXrecord
280
1
 40
10.0
  0
XRECORD
  5
1A1
330
17D
100
AcDbXrecord
280
1
 40
10.0
  0
XRECORD
  5
1A2
330
17D
100
AcDbXrecord
280
1
 40
10.0
  0
XRECORD
  5
1A3
330
17D
100
AcDbXrecord
280
1
290
0
  0
XRECORD
  5
1A4
330
17D
100
AcDbXrecord
280
1
 90
1
  0
XRECORD
  5
1A5
330
17D
100
AcDbXrecord
280
1
 40
0.0
  0
XRECORD
  5
1A6
330
17D
100
AcDbXrecord
280
1
 40
0.0
  0
XRECORD
  5
1A7
330
17D
100
AcDbXrecord
280
1
1000
Portrait
  0
XRECORD
  5
1A8
330
17D
100
AcDbXrecord
280
1
 40
297.0
  0
XRECORD
  5
1A9
330
17D
100
AcDbXrecord
280
1
 40
210.0
  0
XRECORD
  5
1AA
330
17D
100
AcDbXrecord
280
1
1000
1:1
  0
XRECORD
  5
1AB
330
17D
100
AcDbXrecord
280
1
290
1
  0
XRECORD
  5
1AC
330
17D
100
AcDbXrecord
280
1
290
0
  0
XRECORD
  5
1AD
330
17D
100
AcDbXrecord
280
1
1000
Inside
  0
XRECORD
  5
1AE
330
17D
100
AcDbXrecord
280
1
1000
Arial,10,-1,5,50,0,0,0,0,0
  0
XRECORD
  5
1AF
330
17D
100
AcDbXrecord
280
1
1000
TopLeft
  0
XRECORD
  5
1B0
330
17D
100
AcDbXrecord
280
1
1000
3.28.1
  0
XRECORD
  5
1B1
330
17D
100
AcDbXrecord
280
1
 90
4
  0
XRECORD
  5
1B3
330
17D
100
AcDbXrecord
280
1
 40
96.7858990163618955
  0
XRECORD
  5
1B4
330
17D
100
AcDbXrecord
280
1
 40
189.6612566583253283
  0
ENDSEC
  0
EOF
