M48
; DRILL file {KiCad 7.0.6} date Sun Feb 11 12:35:43 2024
; FORMAT={-:-/ absolute / inch / decimal}
; #@! TF.CreationDate,2024-02-11T12:35:43+01:00
; #@! TF.GenerationSoftware,Kicad,Pcbnew,7.0.6
; #@! TF.FileFunction,Plated,1,2,PTH
FMAT,2
INCH
; #@! TA.AperFunction,Plated,PTH,ViaDrill
T1C0.0157
; #@! TA.AperFunction,Plated,PTH,ComponentDrill
T2C0.0320
; #@! TA.AperFunction,Plated,PTH,ComponentDrill
T3C0.0354
; #@! TA.AperFunction,Plated,PTH,ComponentDrill
T4C0.0394
; #@! TA.AperFunction,Plated,PTH,ComponentDrill
T5C0.0430
; #@! TA.AperFunction,Plated,PTH,ComponentDrill
T6C0.0579
; #@! TA.AperFunction,Plated,PTH,ComponentDrill
T7C0.0591
%
G90
G05
T1
X-4.3933Y-2.2881
X-4.3714Y-2.4122
X-4.3436Y-2.3433
X-4.3326Y-2.4054
X-4.2719Y-0.7436
X-4.25Y-0.8677
X-4.224Y-1.3161
X-3.9701Y-2.222
X-3.8461Y-0.7325
X-3.8189Y-0.8846
X-3.7461Y-0.6509
X-3.7243Y-0.775
X-3.6855Y-0.7681
X-2.9772Y-0.5793
X-2.5118Y-1.8791
X-2.4564Y-1.9466
X-2.4346Y-2.0707
X-2.424Y-0.4178
X-2.4067Y-2.0018
X-2.3958Y-2.0639
X-2.2471Y-0.5145
X-2.2386Y-0.449
X-2.0532Y-0.4803
X-1.7476Y-0.3626
X-1.6665Y-0.6618
X-1.337Y-0.5815
X-1.125Y-0.175
X-0.6378Y-0.6843
X-0.4688Y-0.15
X-0.3827Y-0.075
X-0.2902Y-1.65
X-0.1083Y-1.075
X-0.0197Y-0.312
X-0.0197Y-0.438
X-0.0197Y-1.938
X0.0197Y-0.438
X0.0197Y-1.938
T2
X-4.7077Y-2.2552
X-4.6556Y-2.5507
X-4.6277Y-2.2408
X-4.5756Y-2.5362
X-4.2862Y-2.5617
X-4.2341Y-2.8571
X-4.0342Y-1.7557
X-3.9821Y-2.0511
X-3.9548Y-1.7417
X-3.9027Y-2.0371
X-3.8467Y-0.1995
X-3.8467Y-0.9611
X-3.7946Y-0.4949
X-3.7946Y-1.2565
X-3.7673Y-0.1855
X-3.7673Y-0.9471
X-3.7152Y-0.4809
X-3.7152Y-1.2425
X-2.6114Y-2.2664
X-2.5593Y-2.5618
X-2.557Y-1.4952
X-2.532Y-2.2524
X-2.5049Y-1.7907
X-2.4799Y-2.5478
X-2.4776Y-1.4812
X-2.4255Y-1.7767
X-2.3695Y0.061
X-2.3695Y-0.7006
X-2.3174Y-0.2345
X-2.3174Y-0.996
X-2.2901Y0.075
X-2.2901Y-0.6866
X-2.238Y-0.2205
X-2.238Y-0.982
X-1.5403Y0.15
X-1.5403Y-0.15
X-1.5403Y-0.6
X-1.5403Y-0.9
X-0.9778Y-1.35
X-0.9778Y-1.65
X-0.8972Y-1.35
X-0.8972Y-1.65
X-0.75Y-2.1
X-0.75Y-2.4
X-0.7097Y0.15
X-0.7097Y-0.15
X-0.7097Y-0.6
X-0.7097Y-0.9
X-0.0403Y-2.1
X-0.0403Y-2.4
X0.0403Y-2.1
X0.0403Y-2.4
X0.8035Y-1.35
X0.8035Y-1.65
T4
X-5.2211Y-1.8374
X-5.122Y-2.3996
X-5.0273Y-1.8033
X-5.0251Y-2.3825
X-4.9281Y-2.3655
T5
X-1.425Y0.225
X-1.425Y0.125
X-1.425Y0.025
X-1.425Y-0.075
X-1.425Y-0.175
X-1.425Y-0.275
X-1.425Y-0.375
X-1.425Y-0.475
X-1.425Y-0.575
X-1.425Y-0.675
X-1.425Y-0.775
X-1.425Y-0.875
X-0.825Y0.225
X-0.825Y0.125
X-0.825Y0.025
X-0.825Y-0.075
X-0.825Y-0.175
X-0.825Y-0.275
X-0.825Y-0.375
X-0.825Y-0.475
X-0.825Y-0.575
X-0.825Y-0.675
X-0.825Y-0.775
X-0.825Y-0.875
T6
X-5.2414Y-2.0193
X-5.2256Y-2.3973
X-5.1112Y-2.7579
X-5.0837Y-2.6261
X-5.0126Y-1.8774
X-4.8824Y-2.616
X-4.5028Y-1.8891
X-4.3153Y-0.3329
X-4.3153Y-1.0945
X-4.274Y-1.7472
X-4.0956Y-2.5789
X-4.0865Y-0.191
X-4.0865Y-0.9526
X-3.8668Y-2.437
X-3.7642Y-1.7589
X-3.7263Y-2.5137
X-3.5767Y-0.2027
X-3.5767Y-0.9642
X-3.5354Y-1.617
X-3.4975Y-2.3718
X-3.3479Y-0.0608
X-3.3479Y-0.8223
X-3.08Y-2.3998
X-3.0256Y-1.6286
X-2.8512Y-2.2579
X-2.8381Y-0.0724
X-2.8381Y-0.834
X-2.7968Y-1.4867
X-2.6093Y0.0695
X-2.6093Y-0.6921
X-2.3414Y-2.2695
X-2.287Y-1.4984
X-2.1126Y-2.1277
X-2.0995Y0.0578
X-2.0995Y-0.7038
X-2.0582Y-1.3565
X-1.8707Y0.1997
X-1.8707Y-0.5619
X-1.4625Y-1.4
X-1.275Y0.1
X-1.275Y-0.65
X-1.275Y-2.15
X-1.2125Y-1.3
X-1.025Y0.2
X-1.025Y-0.55
X-1.025Y-2.05
X-0.7125Y-1.4
X-0.525Y-2.15
X-0.4625Y-1.3
X-0.275Y-2.05
X-0.15Y0.1
X-0.0563Y-0.65
X-0.0563Y-1.4
X0.1Y0.2
X0.1938Y-0.55
X0.1938Y-1.3
X0.3187Y-1.4
X0.3187Y-2.15
X0.5687Y-1.3
X0.5687Y-2.05
T3
G00X-3.1597Y-0.0658
M15
G01X-3.1624Y-0.0502
M16
G05
G00X-3.1392Y-0.1821
M15
G01X-3.1419Y-0.1666
M16
G05
G00X-3.1119Y-0.3372
M15
G01X-3.1146Y-0.3217
M16
G05
G00X-2.926Y-0.3484
M15
G01X-2.9287Y-0.3329
M16
G05
T7
G00X-5.289Y-2.1552
M15
G01X-5.2979Y-2.1048
M16
G05
G00X-4.8548Y-2.0787
M15
G01X-4.8637Y-2.0283
M16
G05
T0
M30
