%TF.GenerationSoftware,KiCad,Pcbnew,7.0.6*%
%TF.CreationDate,2024-02-11T12:35:39+01:00*%
%TF.ProjectId,chocobanan_right,63686f63-6f62-4616-9e61-6e5f72696768,rev?*%
%TF.SameCoordinates,Original*%
%TF.FileFunction,Paste,Bot*%
%TF.FilePolarity,Positive*%
%FSLAX46Y46*%
G04 Gerber Fmt 4.6, Leading zero omitted, Abs format (unit mm)*
G04 Created by KiCad (PCBNEW 7.0.6) date 2024-02-11 12:35:39*
%MOMM*%
%LPD*%
G01*
G04 APERTURE LIST*
G04 Aperture macros list*
%AMRotRect*
0 Rectangle, with rotation*
0 The origin of the aperture is its center*
0 $1 length*
0 $2 width*
0 $3 Rotation angle, in degrees counterclockwise*
0 Add horizontal line*
21,1,$1,$2,0,0,$3*%
G04 Aperture macros list end*
%ADD10R,0.950000X1.300000*%
%ADD11RotRect,1.300000X0.950000X100.000000*%
%ADD12R,1.600000X1.000000*%
%ADD13RotRect,1.600000X1.000000X10.000000*%
G04 APERTURE END LIST*
D10*
%TO.C,D12*%
X-19050000Y-58925000D03*
X-19050000Y-55375000D03*
%TD*%
D11*
%TO.C,D16*%
X-63343059Y-62710596D03*
X-63959511Y-59214528D03*
%TD*%
%TO.C,D21*%
X-96735487Y-10566951D03*
X-97351939Y-7070883D03*
%TD*%
%TO.C,D27*%
X-118604576Y-62782754D03*
X-119221028Y-59286686D03*
%TD*%
%TO.C,D17*%
X-94719585Y-10211493D03*
X-95336037Y-6715425D03*
%TD*%
%TO.C,D14*%
X-59214311Y-23294833D03*
X-59830763Y-19798765D03*
%TD*%
%TO.C,D23*%
X-99482085Y-49739005D03*
X-100098537Y-46242937D03*
%TD*%
D10*
%TO.C,D3*%
X20408250Y-39875000D03*
X20408250Y-36325000D03*
%TD*%
%TO.C,D4*%
X1023500Y-58925000D03*
X1023500Y-55375000D03*
%TD*%
%TO.C,D5*%
X-39123500Y-1775000D03*
X-39123500Y1775000D03*
%TD*%
D11*
%TO.C,D10*%
X-57198410Y-22939375D03*
X-57814862Y-19443307D03*
%TD*%
D10*
%TO.C,D7*%
X-22789000Y-39875000D03*
X-22789000Y-36325000D03*
%TD*%
D11*
%TO.C,D15*%
X-61960910Y-43123009D03*
X-62577362Y-39626941D03*
%TD*%
%TO.C,D24*%
X-107899947Y-70567178D03*
X-108516399Y-67071110D03*
%TD*%
%TO.C,D26*%
X-117190000Y-58920000D03*
X-116573548Y-62416068D03*
%TD*%
D10*
%TO.C,D6*%
X-39123500Y-20825000D03*
X-39123500Y-17275000D03*
%TD*%
D11*
%TO.C,D22*%
X-96735487Y-29910828D03*
X-97351939Y-26414760D03*
%TD*%
D10*
%TO.C,D11*%
X-24836000Y-39875000D03*
X-24836000Y-36325000D03*
%TD*%
D11*
%TO.C,D18*%
X-94719585Y-29555370D03*
X-95336037Y-26059302D03*
%TD*%
%TO.C,D25*%
X-101497987Y-50094462D03*
X-102114439Y-46598394D03*
%TD*%
%TO.C,D9*%
X-57198410Y-3595498D03*
X-57814862Y-99430D03*
%TD*%
D10*
%TO.C,D8*%
X-1023500Y-58925000D03*
X-1023500Y-55375000D03*
%TD*%
%TO.C,D2*%
X-18026500Y-20825000D03*
X-18026500Y-17275000D03*
%TD*%
D11*
%TO.C,D20*%
X-65358960Y-63066054D03*
X-65975412Y-59569986D03*
%TD*%
%TO.C,D13*%
X-59214311Y-3950956D03*
X-59830763Y-454888D03*
%TD*%
D10*
%TO.C,D1*%
X-18026500Y-1775000D03*
X-18026500Y1775000D03*
%TD*%
D11*
%TO.C,D19*%
X-63976811Y-43478467D03*
X-64593263Y-39982399D03*
%TD*%
D12*
%TO.C,RGB6*%
X-2500000Y-49225000D03*
X-2500000Y-46025000D03*
X2500000Y-46025000D03*
X2500000Y-49225000D03*
%TD*%
D13*
%TO.C,RGB5*%
X-63807270Y-52942811D03*
X-64362944Y-49791426D03*
X-59438906Y-48923185D03*
X-58883232Y-52074570D03*
%TD*%
%TO.C,RGB3*%
X-96565945Y-20031295D03*
X-97121619Y-16879910D03*
X-92197581Y-16011669D03*
X-91641907Y-19163054D03*
%TD*%
D12*
%TO.C,RGB1*%
X-2500000Y-11125000D03*
X-2500000Y-7925000D03*
X2500000Y-7925000D03*
X2500000Y-11125000D03*
%TD*%
D13*
%TO.C,RGB4*%
X-113003343Y-61617406D03*
X-113559017Y-58466021D03*
X-108634979Y-57597780D03*
X-108079305Y-60749165D03*
%TD*%
%TO.C,RGB2*%
X-59044770Y-13415300D03*
X-59600444Y-10263915D03*
X-54676406Y-9395674D03*
X-54120732Y-12547059D03*
%TD*%
M02*
