M48
; DRILL file {KiCad 7.0.6} date Sun Feb 11 12:35:43 2024
; FORMAT={-:-/ absolute / inch / decimal}
; #@! TF.CreationDate,2024-02-11T12:35:43+01:00
; #@! TF.GenerationSoftware,Kicad,Pcbnew,7.0.6
; #@! TF.FileFunction,NonPlated,1,2,NPTH
FMAT,2
INCH
; #@! TA.AperFunction,NonPlated,NPTH,ComponentDrill
T1C0.0315
; #@! TA.AperFunction,NonPlated,NPTH,ComponentDrill
T2C0.0689
; #@! TA.AperFunction,NonPlated,NPTH,ComponentDrill
T3C0.0827
; #@! TA.AperFunction,NonPlated,NPTH,ComponentDrill
T4C0.1200
; #@! TA.AperFunction,NonPlated,NPTH,ComponentDrill
T5C0.1570
%
G90
G05
T1
X-3.0828Y0.0198
X-3.035Y-0.2516
T2
X-5.2733Y-2.1265
X-5.1431Y-2.8651
X-5.046Y-2.2641
X-4.9765Y-2.658
X-4.8794Y-2.057
X-4.7491Y-2.7956
X-4.5347Y-1.9963
X-4.3472Y-0.4401
X-4.3472Y-1.2016
X-4.1408Y-1.9268
X-4.1275Y-2.686
X-3.9533Y-0.3706
X-3.9533Y-1.1322
X-3.7961Y-1.866
X-3.7582Y-2.6209
X-3.7336Y-2.6166
X-3.6086Y-0.3098
X-3.6086Y-1.0714
X-3.4022Y-1.7966
X-3.3643Y-2.5514
X-3.2147Y-0.2404
X-3.2147Y-1.0019
X-3.1119Y-2.5069
X-3.0575Y-1.7358
X-2.87Y-0.1796
X-2.87Y-0.9411
X-2.718Y-2.4375
X-2.6636Y-1.6663
X-2.4761Y-0.1101
X-2.4761Y-0.8717
X-2.3733Y-2.3767
X-2.3189Y-1.6055
X-2.1314Y-0.0493
X-2.1314Y-0.8109
X-1.9794Y-2.3073
X-1.925Y-1.5361
X-1.7375Y0.0201
X-1.7375Y-0.7415
X-1.5125Y-1.5
X-1.325Y0.0
X-1.325Y-0.75
X-1.325Y-2.25
X-1.1125Y-1.5
X-0.925Y0.0
X-0.925Y-0.75
X-0.925Y-2.25
X-0.7625Y-1.5
X-0.575Y-2.25
X-0.3625Y-1.5
X-0.2Y0.0
X-0.175Y-2.25
X-0.1062Y-0.75
X-0.1062Y-1.5
X0.2Y0.0
X0.2687Y-1.5
X0.2687Y-2.25
X0.2938Y-0.75
X0.2938Y-1.5
X0.6687Y-1.5
X0.6687Y-2.25
T3
X-5.4432Y-1.8349
X-5.203Y-3.1972
X-4.5171Y-0.1485
X0.6917Y0.3166
X0.8792Y-2.5666
T4
X-5.3634Y-2.0472
X-5.2007Y-2.9704
X-3.9751Y-2.9384
X-3.0518Y-2.7756
X-0.4688Y0.275
X-0.375Y-0.475
X-0.375Y-1.225
X0.4688Y0.275
X0.5625Y-0.475
X0.5625Y-1.225
T5
X-5.0763Y-2.0918
X-5.0112Y-2.4611
X-4.9461Y-2.8304
X-4.7726Y-1.943
X-4.6098Y-2.8663
X-4.3377Y-1.9615
X-4.1502Y-0.4053
X-4.1502Y-1.1669
X-4.0793Y-2.3475
X-3.9305Y-2.6513
X-3.5991Y-1.8313
X-3.5612Y-2.5862
X-3.4116Y-0.2751
X-3.4116Y-1.0367
X-3.156Y-2.1847
X-2.9149Y-2.4722
X-2.8605Y-1.7011
X-2.673Y-0.1449
X-2.673Y-0.9064
X-2.1763Y-2.342
X-2.1219Y-1.5708
X-1.9344Y-0.0146
X-1.9344Y-0.7762
X-1.3125Y-1.5
X-1.125Y0.0
X-1.125Y-0.75
X-1.125Y-2.25
X-0.5625Y-1.5
X-0.4688Y-0.325
X-0.375Y-1.075
X-0.375Y-1.825
X-0.375Y-2.25
X0.0Y0.0
X0.0938Y-0.75
X0.0938Y-1.5
X0.4688Y-0.325
X0.4688Y-1.5
X0.4688Y-2.25
X0.5625Y-1.075
X0.5625Y-1.825
T0
M30
