999
dxflib 3.26.4.0
  0
SECTION
  2
HEADER
  9
$ACADVER
  1
AC1015
  9
$HANDSEED
  5
FFFF
  9
$ANGBASE
 50
0.0
  9
$ANGDIR
 70
1
  9
$DIMADEC
 70
0
  9
$DIMASZ
 40
0.18
  9
$DIMATFIT
 70
0
  9
$DIMAUNIT
 70
0
  9
$DIMAZIN
 70
0
  9
$DIMBLK
  1
0
  9
$DIMBLK1
  1
0
  9
$DIMBLK2
  1
0
  9
$DIMDEC
 70
4
  9
$DIMDLI
 40
0.36
  9
$DIMDSEP
 70
0
  9
$DIMEXE
 40
0.18
  9
$DIMEXO
 40
0.0625
  9
$DIMGAP
 40
0.09
  9
$DIMLFAC
 40
0.0
  9
$DIMLUNIT
 70
2
  9
$DIMSCALE
 40
0.0
  9
$DIMTAD
 70
0
  9
$DIMTIH
 70
0
  9
$DIMTSZ
 40
0.0
  9
$DIMTXT
 40
0.18
  9
$DIMZIN
 70
0
  9
$DWGCODEPAGE
  3
ANSI_1252
  9
$INSUNITS
 70
0
  9
$LTSCALE
 40
1.0
  9
$MAXACTVP
 70
64
  9
$MEASUREMENT
 70
1
  9
$MIRRTEXT
 70
0
  9
$PDMODE
 70
0
  9
$PDSIZE
 40
0.0
  0
ENDSEC
  0
SECTION
  2
TABLES
  0
TABLE
  2
VPORT
  5
8
100
AcDbSymbolTable
 70
1
  0
VPORT
  5
30
100
AcDbSymbolTableRecord
100
AcDbViewportTableRecord
  2
*Active
 70
0
 10
0.0
 20
0.0
 11
1.0
 21
1.0
 12
286.3055555555554861
 22
148.5
 13
0.0
 23
0.0
 14
10.0
 24
10.0
 15
10.0
 25
10.0
 16
0.0
 26
0.0
 36
1.0
 17
0.0
 27
0.0
 37
0.0
 40
297.0
 41
1.92798353909465
 42
50.0
 43
0.0
 44
0.0
 50
0.0
 51
0.0
 71
0
 72
100
 73
1
 74
3
 75
1
 76
1
 77
0
 78
0
281
0
 65
1
110
0.0
120
0.0
130
0.0
111
1.0
121
0.0
131
0.0
112
0.0
122
1.0
132
0.0
 79
0
146
0.0
  0
ENDTAB
  0
TABLE
  2
LTYPE
  5
5
100
AcDbSymbolTable
 70
42
  0
LTYPE
  5
16
100
AcDbSymbolTableRecord
100
AcDbLinetypeTableRecord
  2
CONTINUOUS
 70
0
  3
Solid line
 72
65
 73
0
 40
0.0
  0
LTYPE
  5
31
100
AcDbSymbolTableRecord
100
AcDbLinetypeTableRecord
  2
ACAD_ISO02W100
 70
0
  3
ISO dash __ __ __ __ __ __ __ __ __ __ __ __ __
 72
65
 73
2
 40
15.0
 49
12.0
 74
0
 49
-3.0
 74
0
  0
LTYPE
  5
32
100
AcDbSymbolTableRecord
100
AcDbLinetypeTableRecord
  2
DOTX2
 70
0
  3
Dot (2x) .  .  .  .  .  .  .  .  .  .  .  .  .  .
 72
65
 73
2
 40
12.6999999999999993
 49
0.0
 74
0
 49
-12.6999999999999993
 74
0
  0
LTYPE
  5
33
100
AcDbSymbolTableRecord
100
AcDbLinetypeTableRecord
  2
DASHDOT
 70
0
  3
Dash Dot ____ _ ____ _
 72
65
 73
4
 40
2.0
 49
1.25
 74
0
 49
-0.25
 74
0
 49
0.25
 74
0
 49
-0.25
 74
0
  0
LTYPE
  5
14
100
AcDbSymbolTableRecord
100
AcDbLinetypeTableRecord
  2
BYBLOCK
 70
0
  3

 72
65
 73
0
 40
0.0
  0
LTYPE
  5
34
100
AcDbSymbolTableRecord
100
AcDbLinetypeTableRecord
  2
HIDDEN2
 70
0
  3
Hidden (.5x) _ _ _ _ _ _ _ _ _ _ _ _ _ _ _ _ _ 
 72
65
 73
2
 40
4.7624999999999993
 49
3.1749999999999998
 74
0
 49
-1.5874999999999999
 74
0
  0
LTYPE
  5
35
100
AcDbSymbolTableRecord
100
AcDbLinetypeTableRecord
  2
ACAD_ISO12W100
 70
0
  3
ISO dash double-dot __ . . __ . . __ . . __ . . 
 72
65
 73
6
 40
21.0
 49
12.0
 74
0
 49
-3.0
 74
0
 49
0.0
 74
0
 49
-3.0
 74
0
 49
0.0
 74
0
 49
-3.0
 74
0
  0
LTYPE
  5
36
100
AcDbSymbolTableRecord
100
AcDbLinetypeTableRecord
  2
HIDDENX2
 70
0
  3
Hidden (2x) ____ ____ ____ ____ ____ ____ ____ 
 72
65
 73
2
 40
19.0499999999999972
 49
12.6999999999999993
 74
0
 49
-6.3499999999999996
 74
0
  0
LTYPE
  5
37
100
AcDbSymbolTableRecord
100
AcDbLinetypeTableRecord
  2
ACAD_ISO03W100
 70
0
  3
ISO dash space __    __    __    __    __    __
 72
65
 73
2
 40
30.0
 49
12.0
 74
0
 49
-18.0
 74
0
  0
LTYPE
  5
38
100
AcDbSymbolTableRecord
100
AcDbLinetypeTableRecord
  2
ACAD_ISO10W100
 70
0
  3
ISO dash dot __ . __ . __ . __ . __ . __ . __ . 
 72
65
 73
4
 40
18.0
 49
12.0
 74
0
 49
-3.0
 74
0
 49
0.0
 74
0
 49
-3.0
 74
0
  0
LTYPE
  5
39
100
AcDbSymbolTableRecord
100
AcDbLinetypeTableRecord
  2
ACAD_ISO14W100
 70
0
  3
ISO dash triple-dot __ . . . __ . . . __ . . . _
 72
65
 73
8
 40
24.0
 49
12.0
 74
0
 49
-3.0
 74
0
 49
0.0
 74
0
 49
-3.0
 74
0
 49
0.0
 74
0
 49
-3.0
 74
0
 49
0.0
 74
0
 49
-3.0
 74
0
  0
LTYPE
  5
3A
100
AcDbSymbolTableRecord
100
AcDbLinetypeTableRecord
  2
CENTER
 70
0
  3
Center ____ _ ____ _ ____ _ ____ _ ____ _ ____
 72
65
 73
4
 40
50.8000000000000043
 49
31.75
 74
0
 49
-6.3499999999999996
 74
0
 49
6.3499999999999996
 74
0
 49
-6.3499999999999996
 74
0
  0
LTYPE
  5
3B
100
AcDbSymbolTableRecord
100
AcDbLinetypeTableRecord
  2
HIDDEN
 70
0
  3
Hidden __ __ __ __ __ __ __ __ __ __ __ __ __ __
 72
65
 73
2
 40
9.5249999999999986
 49
6.3499999999999996
 74
0
 49
-3.1749999999999998
 74
0
  0
LTYPE
  5
3C
100
AcDbSymbolTableRecord
100
AcDbLinetypeTableRecord
  2
ACAD_ISO15W100
 70
0
  3
ISO double-dash triple-dot __ __ . . . __ __ . .
 72
65
 73
10
 40
39.0
 49
12.0
 74
0
 49
-3.0
 74
0
 49
12.0
 74
0
 49
-3.0
 74
0
 49
0.0
 74
0
 49
-3.0
 74
0
 49
0.0
 74
0
 49
-3.0
 74
0
 49
0.0
 74
0
 49
-3.0
 74
0
  0
LTYPE
  5
3D
100
AcDbSymbolTableRecord
100
AcDbLinetypeTableRecord
  2
BORDER
 70
0
  3
Border __ __ . __ __ . __ __ . __ __ . __ __ .
 72
65
 73
6
 40
44.4499999999999957
 49
12.6999999999999993
 74
0
 49
-6.3499999999999996
 74
0
 49
12.6999999999999993
 74
0
 49
-6.3499999999999996
 74
0
 49
0.0
 74
0
 49
-6.3499999999999996
 74
0
  0
LTYPE
  5
3E
100
AcDbSymbolTableRecord
100
AcDbLinetypeTableRecord
  2
CENTER2
 70
0
  3
Center (.5x) ___ _ ___ _ ___ _ ___ _ ___ _ ___
 72
65
 73
4
 40
28.5750000000000028
 49
19.0500000000000007
 74
0
 49
-3.1749999999999998
 74
0
 49
3.1749999999999998
 74
0
 49
-3.1749999999999998
 74
0
  0
LTYPE
  5
3F
100
AcDbSymbolTableRecord
100
AcDbLinetypeTableRecord
  2
DASHEDX2
 70
0
  3
Dashed (2x) ____  ____  ____  ____  ____  ___
 72
65
 73
2
 40
38.0999999999999943
 49
25.3999999999999986
 74
0
 49
-12.6999999999999993
 74
0
  0
LTYPE
  5
40
100
AcDbSymbolTableRecord
100
AcDbLinetypeTableRecord
  2
DIVIDE
 70
0
  3
Divide ____ . . ____ . . ____ . . ____ . . ____
 72
65
 73
6
 40
31.75
 49
12.6999999999999993
 74
0
 49
-6.3499999999999996
 74
0
 49
0.0
 74
0
 49
-6.3499999999999996
 74
0
 49
0.0
 74
0
 49
-6.3499999999999996
 74
0
  0
LTYPE
  5
41
100
AcDbSymbolTableRecord
100
AcDbLinetypeTableRecord
  2
DIVIDEX2
 70
0
  3
Divide (2x) ________  .  .  ________  .  .  _
 72
65
 73
6
 40
63.5
 49
25.3999999999999986
 74
0
 49
-12.6999999999999993
 74
0
 49
0.0
 74
0
 49
-12.6999999999999993
 74
0
 49
0.0
 74
0
 49
-12.6999999999999993
 74
0
  0
LTYPE
  5
42
100
AcDbSymbolTableRecord
100
AcDbLinetypeTableRecord
  2
PHANTOM
 70
0
  3
Phantom ______  __  __  ______  __  __  ______ 
 72
65
 73
6
 40
63.5000000000000071
 49
31.75
 74
0
 49
-6.3499999999999996
 74
0
 49
6.3499999999999996
 74
0
 49
-6.3499999999999996
 74
0
 49
6.3499999999999996
 74
0
 49
-6.3499999999999996
 74
0
  0
LTYPE
  5
43
100
AcDbSymbolTableRecord
100
AcDbLinetypeTableRecord
  2
CENTERX2
 70
0
  3
Center (2x) ________  __  ________  __  _____
 72
65
 73
4
 40
101.6000000000000085
 49
63.5
 74
0
 49
-12.6999999999999993
 74
0
 49
12.6999999999999993
 74
0
 49
-12.6999999999999993
 74
0
  0
LTYPE
  5
44
100
AcDbSymbolTableRecord
100
AcDbLinetypeTableRecord
  2
ACAD_ISO08W100
 70
0
  3
ISO long-dash short-dash ____ __ ____ __ ____ _
 72
65
 73
4
 40
36.0
 49
24.0
 74
0
 49
-3.0
 74
0
 49
6.0
 74
0
 49
-3.0
 74
0
  0
LTYPE
  5
45
100
AcDbSymbolTableRecord
100
AcDbLinetypeTableRecord
  2
PHANTOMX2
 70
0
  3
Phantom (2x) ____________    ____    ____   _
 72
65
 73
6
 40
127.0000000000000142
 49
63.5
 74
0
 49
-12.6999999999999993
 74
0
 49
12.6999999999999993
 74
0
 49
-12.6999999999999993
 74
0
 49
12.6999999999999993
 74
0
 49
-12.6999999999999993
 74
0
  0
LTYPE
  5
46
100
AcDbSymbolTableRecord
100
AcDbLinetypeTableRecord
  2
DOTTED
 70
0
  3
Dotted .  .  .  .
 72
65
 73
2
 40
0.2
 49
0.1
 74
0
 49
-0.1
 74
0
  0
LTYPE
  5
47
100
AcDbSymbolTableRecord
100
AcDbLinetypeTableRecord
  2
ACAD_ISO11W100
 70
0
  3
ISO double-dash dot __ __ . __ __ . __ __ . __ _
 72
65
 73
6
 40
33.0
 49
12.0
 74
0
 49
-3.0
 74
0
 49
12.0
 74
0
 49
-3.0
 74
0
 49
0.0
 74
0
 49
-3.0
 74
0
  0
LTYPE
  5
48
100
AcDbSymbolTableRecord
100
AcDbLinetypeTableRecord
  2
DASHDOT2
 70
0
  3
Dash dot (.5x) _._._._._._._._._._._._._._._.
 72
65
 73
4
 40
12.6999999999999993
 49
6.3499999999999996
 74
0
 49
-3.1749999999999998
 74
0
 49
0.0
 74
0
 49
-3.1749999999999998
 74
0
  0
LTYPE
  5
49
100
AcDbSymbolTableRecord
100
AcDbLinetypeTableRecord
  2
ACAD_ISO04W100
 70
0
  3
ISO long-dash dot ____ . ____ . ____ . ____ . _
 72
65
 73
4
 40
30.0
 49
24.0
 74
0
 49
-3.0
 74
0
 49
0.0
 74
0
 49
-3.0
 74
0
  0
LTYPE
  5
4A
100
AcDbSymbolTableRecord
100
AcDbLinetypeTableRecord
  2
DASHED
 70
0
  3
Dashed __ __ __ __ __
 72
65
 73
2
 40
0.75
 49
0.5
 74
0
 49
-0.25
 74
0
  0
LTYPE
  5
4B
100
AcDbSymbolTableRecord
100
AcDbLinetypeTableRecord
  2
ACAD_ISO09W100
 70
0
  3
ISO long-dash double-short-dash ____ __ __ ____
 72
65
 73
6
 40
45.0
 49
24.0
 74
0
 49
-3.0
 74
0
 49
6.0
 74
0
 49
-3.0
 74
0
 49
6.0
 74
0
 49
-3.0
 74
0
  0
LTYPE
  5
4C
100
AcDbSymbolTableRecord
100
AcDbLinetypeTableRecord
  2
ACAD_ISO07W100
 70
0
  3
ISO dot . . . . . . . . . . . . . . . . . . . . 
 72
65
 73
2
 40
3.0
 49
0.0
 74
0
 49
-3.0
 74
0
  0
LTYPE
  5
4D
100
AcDbSymbolTableRecord
100
AcDbLinetypeTableRecord
  2
ACAD_ISO05W100
 70
0
  3
ISO long-dash double-dot ____ .. ____ .. ____ . 
 72
65
 73
6
 40
33.0
 49
24.0
 74
0
 49
-3.0
 74
0
 49
0.0
 74
0
 49
-3.0
 74
0
 49
0.0
 74
0
 49
-3.0
 74
0
  0
LTYPE
  5
4E
100
AcDbSymbolTableRecord
100
AcDbLinetypeTableRecord
  2
BORDER2
 70
0
  3
Border (.5x) __.__.__.__.__.__.__.__.__.__.__.
 72
65
 73
6
 40
22.2249999999999979
 49
6.3499999999999996
 74
0
 49
-3.1749999999999998
 74
0
 49
6.3499999999999996
 74
0
 49
-3.1749999999999998
 74
0
 49
0.0
 74
0
 49
-3.1749999999999998
 74
0
  0
LTYPE
  5
4F
100
AcDbSymbolTableRecord
100
AcDbLinetypeTableRecord
  2
BORDERX2
 70
0
  3
Border (2x) ____  ____  .  ____  ____  .  ___
 72
65
 73
6
 40
88.8999999999999915
 49
25.3999999999999986
 74
0
 49
-12.6999999999999993
 74
0
 49
25.3999999999999986
 74
0
 49
-12.6999999999999993
 74
0
 49
0.0
 74
0
 49
-12.6999999999999993
 74
0
  0
LTYPE
  5
50
100
AcDbSymbolTableRecord
100
AcDbLinetypeTableRecord
  2
DIVIDE2
 70
0
  3
Divide (.5x) __..__..__..__..__..__..__..__.._
 72
65
 73
6
 40
15.875
 49
6.3499999999999996
 74
0
 49
-3.1749999999999998
 74
0
 49
0.0
 74
0
 49
-3.1749999999999998
 74
0
 49
0.0
 74
0
 49
-3.1749999999999998
 74
0
  0
LTYPE
  5
51
100
AcDbSymbolTableRecord
100
AcDbLinetypeTableRecord
  2
DOT2
 70
0
  3
Dot (.5x) ........................................
 72
65
 73
2
 40
3.1749999999999998
 49
0.0
 74
0
 49
-3.1749999999999998
 74
0
  0
LTYPE
  5
52
100
AcDbSymbolTableRecord
100
AcDbLinetypeTableRecord
  2
DASHED2
 70
0
  3
Dashed (.5x) _ _ _ _ _ _ _ _ _ _ _ _ _ _ _ _ _ 
 72
65
 73
2
 40
9.5249999999999986
 49
6.3499999999999996
 74
0
 49
-3.1749999999999998
 74
0
  0
LTYPE
  5
53
100
AcDbSymbolTableRecord
100
AcDbLinetypeTableRecord
  2
PHANTOM2
 70
0
  3
Phantom (.5x) ___ _ _ ___ _ _ ___ _ _ ___ _ _
 72
65
 73
6
 40
31.7500000000000036
 49
15.875
 74
0
 49
-3.1749999999999998
 74
0
 49
3.1749999999999998
 74
0
 49
-3.1749999999999998
 74
0
 49
3.1749999999999998
 74
0
 49
-3.1749999999999998
 74
0
  0
LTYPE
  5
54
100
AcDbSymbolTableRecord
100
AcDbLinetypeTableRecord
  2
DASHDOTX2
 70
0
  3
Dash dot (2x) ____  .  ____  .  ____  .  ___
 72
65
 73
4
 40
50.7999999999999972
 49
25.3999999999999986
 74
0
 49
-12.6999999999999993
 74
0
 49
0.0
 74
0
 49
-12.6999999999999993
 74
0
  0
LTYPE
  5
55
100
AcDbSymbolTableRecord
100
AcDbLinetypeTableRecord
  2
ACAD_ISO13W100
 70
0
  3
ISO double-dash double-dot __ __ . . __ __ . . _
 72
65
 73
8
 40
36.0
 49
12.0
 74
0
 49
-3.0
 74
0
 49
12.0
 74
0
 49
-3.0
 74
0
 49
0.0
 74
0
 49
-3.0
 74
0
 49
0.0
 74
0
 49
-3.0
 74
0
  0
LTYPE
  5
15
100
AcDbSymbolTableRecord
100
AcDbLinetypeTableRecord
  2
BYLAYER
 70
0
  3

 72
65
 73
0
 40
0.0
  0
LTYPE
  5
56
100
AcDbSymbolTableRecord
100
AcDbLinetypeTableRecord
  2
ACAD_ISO06W100
 70
0
  3
ISO long-dash triple-dot ____ ... ____ ... ____
 72
65
 73
8
 40
36.0
 49
24.0
 74
0
 49
-3.0
 74
0
 49
0.0
 74
0
 49
-3.0
 74
0
 49
0.0
 74
0
 49
-3.0
 74
0
 49
0.0
 74
0
 49
-3.0
 74
0
  0
LTYPE
  5
57
100
AcDbSymbolTableRecord
100
AcDbLinetypeTableRecord
  2
DOT
 70
0
  3
Dot . . . . . . . . . . . . . . . . . . . . . . . .
 72
65
 73
2
 40
6.3499999999999996
 49
0.0
 74
0
 49
-6.3499999999999996
 74
0
  0
ENDTAB
  0
TABLE
  2
LAYER
  5
2
100
AcDbSymbolTable
 70
4
  0
LAYER
  5
58
100
AcDbSymbolTableRecord
100
AcDbLayerTableRecord
  2
edge cuts plate
 70
0
 62
7
420
16777215
  6
CONTINUOUS
370
25
390
F
  0
LAYER
  5
59
100
AcDbSymbolTableRecord
100
AcDbLayerTableRecord
  2
BLACK
 70
0
 62
7
420
16777215
  6
CONTINUOUS
370
5
390
F
  0
LAYER
  5
5A
100
AcDbSymbolTableRecord
100
AcDbLayerTableRecord
  2
coponent footprints
 70
1
 62
7
420
0
  6
CONTINUOUS
370
5
390
F
  0
LAYER
  5
10
100
AcDbSymbolTableRecord
100
AcDbLayerTableRecord
  2
0
 70
0
 62
7
420
16777215
  6
CONTINUOUS
370
25
390
F
  0
ENDTAB
  0
TABLE
  2
STYLE
  5
3
100
AcDbSymbolTable
 70
1
  0
STYLE
  5
5B
100
AcDbSymbolTableRecord
100
AcDbTextStyleTableRecord
  2
Standard
 70
0
 40
0.0
 41
1.0
 50
0.0
 71
0
 42
2.5
  3

  4

1001
ACAD
1000
txt
1071
0
  0
ENDTAB
  0
TABLE
  2
VIEW
  5
6
100
AcDbSymbolTable
 70
0
  0
ENDTAB
  0
TABLE
  2
UCS
  5
7
100
AcDbSymbolTable
 70
0
  0
ENDTAB
  0
TABLE
  2
APPID
  5
9
100
AcDbSymbolTable
 70
1
  0
APPID
  5
12
100
AcDbSymbolTableRecord
100
AcDbRegAppTableRecord
  2
ACAD
 70
0
  0
APPID
  5
5C
100
AcDbSymbolTableRecord
100
AcDbRegAppTableRecord
  2
QCAD
 70
0
  0
ENDTAB
  0
TABLE
  2
DIMSTYLE
  5
A
100
AcDbSymbolTable
 70
1
100
AcDbDimStyleTable
 71
0
  0
DIMSTYLE
105
27
100
AcDbSymbolTableRecord
100
AcDbDimStyleTableRecord
  2
Standard
 41
0.18
 42
0.0625
 43
3.75
 44
0.18
 70
0
 73
0
 74
0
 77
0
 78
8
140
0.18
141
2.5
143
0.03937007874016
147
0.09
171
3
172
1
271
2
272
2
274
3
278
44
283
0
284
8
340
5B
  0
ENDTAB
  0
TABLE
  2
BLOCK_RECORD
  5
1
100
AcDbSymbolTable
 70
1
  0
BLOCK_RECORD
  5
1F
100
AcDbSymbolTableRecord
100
AcDbBlockTableRecord
  2
*Model_Space
340
22
  0
BLOCK_RECORD
  5
1B
100
AcDbSymbolTableRecord
100
AcDbBlockTableRecord
  2
*Paper_Space
340
1E
  0
BLOCK_RECORD
  5
23
100
AcDbSymbolTableRecord
100
AcDbBlockTableRecord
  2
*Paper_Space0
340
26
  0
ENDTAB
  0
ENDSEC
  0
SECTION
  2
BLOCKS
  0
BLOCK
  5
20
100
AcDbEntity
  8
0
100
AcDbBlockBegin
  2
*Model_Space
 70
0
 10
0.0
 20
0.0
 30
0.0
  3
*Model_Space
  1

  0
ENDBLK
  5
21
100
AcDbEntity
  8
0
100
AcDbBlockEnd
  0
BLOCK
  5
1C
100
AcDbEntity
 67
1
  8
0
100
AcDbBlockBegin
  2
*Paper_Space
 70
0
 10
0.0
 20
0.0
 30
0.0
  3
*Paper_Space
  1

  0
ENDBLK
  5
1D
100
AcDbEntity
 67
1
  8
0
100
AcDbBlockEnd
  0
BLOCK
  5
24
100
AcDbEntity
  8
0
100
AcDbBlockBegin
  2
*Paper_Space0
 70
0
 10
0.0
 20
0.0
 30
0.0
  3
*Paper_Space0
  1

  0
ENDBLK
  5
25
100
AcDbEntity
  8
0
100
AcDbBlockEnd
  0
ENDSEC
  0
SECTION
  2
ENTITIES
  0
ARC
  5
5D
100
AcDbEntity
  8
BLACK
 62
256
370
-1
 48
1.0
  6
BYLAYER
100
AcDbCircle
 10
-138.8149999999999977
 20
-46.215600000000002
 30
0.0
 40
1.0
100
AcDbArc
 50
-260.0
 51
-170.0
  0
LINE
  5
5E
100
AcDbEntity
  8
edge cuts plate
 62
256
370
-1
 48
1.0
  6
BYLAYER
100
AcDbLine
 10
14.9380000000000166
 20
7.0000000000000568
 30
0.0
 11
-14.9380000000000166
 21
7.0000000000000568
 31
0.0
  0
LINE
  5
5F
100
AcDbEntity
  8
edge cuts plate
 62
256
370
-1
 48
1.0
  6
BYLAYER
100
AcDbLine
 10
17.319250000000018
 20
-12.0499999999999545
 30
0.0
 11
-12.556750000000017
 21
-12.0499999999999545
 31
0.0
  0
LINE
  5
60
100
AcDbEntity
  8
edge cuts plate
 62
256
370
-1
 48
1.0
  6
BYLAYER
100
AcDbLine
 10
18.40625
 20
-31.1000000000000227
 30
0.0
 11
-20.7875000000000014
 21
-31.1000000000000227
 31
0.0
  0
LINE
  5
61
100
AcDbEntity
  8
BLACK
 62
256
370
-1
 48
1.0
  6
CONTINUOUS
100
AcDbLine
 10
28.5749999999999993
 20
-46.625
 30
0.0
 11
28.5749999999999993
 21
-29.5749999999999993
 31
0.0
  0
LINE
  5
62
100
AcDbEntity
  8
edge cuts plate
 62
256
370
-1
 48
1.0
  6
BYLAYER
100
AcDbLine
 10
-105.0210511509108358
 20
-75.3651544259205082
 30
0.0
 11
-66.4227419355191415
 21
-68.5592310866629617
 31
0.0
  0
ARC
  5
63
100
AcDbEntity
  8
BLACK
 62
256
370
-1
 48
1.0
  6
BYLAYER
100
AcDbCircle
 10
20.0500000000000007
 20
-8.5250000000000004
 30
0.0
 40
1.0
100
AcDbArc
 50
-180.0
 51
-90.0
  0
ARC
  5
64
100
AcDbEntity
  8
BLACK
 62
256
370
-1
 48
1.0
  6
BYLAYER
100
AcDbCircle
 10
18.0500000000000007
 20
8.5250000000000004
 30
0.0
 40
1.0
100
AcDbArc
 50
-0.0
 51
90.0
  0
LINE
  5
65
100
AcDbEntity
  8
coponent footprints
 62
256
370
-1
 48
1.0
  6
BYLAYER
100
AcDbLine
 10
-23.8124999999999716
 20
-47.6249999999999432
 30
0.0
 11
-23.8125
 21
-28.5749999999999318
 31
0.0
  0
ARC
  5
66
100
AcDbEntity
  8
BLACK
 62
256
370
-1
 48
1.0
  6
BYLAYER
100
AcDbCircle
 10
-47.7749999999999986
 20
8.5250599999999999
 30
0.0
 40
0.999943
100
AcDbArc
 50
89.9997000000000043
 51
100.0
  0
LINE
  5
67
100
AcDbEntity
  8
edge cuts plate
 62
256
370
-1
 48
1.0
  6
BYLAYER
100
AcDbLine
 10
-131.3960868509444708
 20
-79.5080715161866465
 30
0.0
 11
-136.9615109451695503
 21
-47.9449830321453803
 31
0.0
  0
LINE
  5
68
100
AcDbEntity
  8
BLACK
 62
256
370
-1
 48
1.0
  6
CONTINUOUS
100
AcDbLine
 10
19.0500000000000007
 20
-8.5250000000000004
 30
0.0
 11
19.0500000000000007
 21
8.5250000000000004
 31
0.0
  0
LINE
  5
69
100
AcDbEntity
  8
BLACK
 62
256
370
-1
 48
1.0
  6
CONTINUOUS
100
AcDbLine
 10
-115.465999999999994
 20
-21.7391000000000005
 30
0.0
 11
-114.1269999999999953
 21
-21.5030999999999999
 31
0.0
  0
LINE
  5
6A
100
AcDbEntity
  8
BLACK
 62
256
370
-1
 48
1.0
  6
CONTINUOUS
100
AcDbLine
 10
-41.2882999999999996
 20
-66.6902000000000044
 30
0.0
 11
-132.3729999999999905
 21
-82.7519000000000062
 31
0.0
  0
LINE
  5
6B
100
AcDbEntity
  8
edge cuts plate
 62
256
370
-1
 48
1.0
  6
BYLAYER
100
AcDbLine
 10
-7.9380000000000166
 20
-6.9999999999999432
 30
0.0
 11
7.9380000000000166
 21
-6.9999999999999432
 31
0.0
  0
LINE
  5
6C
100
AcDbEntity
  8
edge cuts plate
 62
256
370
-1
 48
1.0
  6
BYLAYER
100
AcDbLine
 10
-5.556750000000017
 20
-26.0499999999999545
 30
0.0
 11
10.3192500000000162
 21
-26.0499999999999545
 31
0.0
  0
LINE
  5
6D
100
AcDbEntity
  8
edge cuts plate
 62
256
370
-1
 48
1.0
  6
BYLAYER
100
AcDbLine
 10
-5.556750000000017
 20
-45.1000000000000227
 30
0.0
 11
10.3192500000000162
 21
-45.1000000000000227
 31
0.0
  0
ARC
  5
6E
100
AcDbEntity
  8
BLACK
 62
256
370
-1
 48
1.0
  6
BYLAYER
100
AcDbCircle
 10
27.5749999999999993
 20
-46.625
 30
0.0
 40
1.0
100
AcDbArc
 50
-90.0
 51
-0.0
  0
LINE
  5
6F
100
AcDbEntity
  8
BLACK
 62
256
370
-1
 48
1.0
  6
CONTINUOUS
100
AcDbLine
 10
-113.3160000000000025
 20
-20.3446999999999996
 30
0.0
 11
-116.277000000000001
 21
-3.5537000000000001
 31
0.0
  0
LINE
  5
70
100
AcDbEntity
  8
edge cuts plate
 62
256
370
-1
 48
1.0
  6
BYLAYER
100
AcDbLine
 10
-83.85317728643615
 20
-57.4167145729796573
 30
0.0
 11
-99.4879851732580249
 21
-60.1735530416198685
 31
0.0
  0
LINE
  5
71
100
AcDbEntity
  8
BLACK
 62
256
370
-1
 48
1.0
  6
CONTINUOUS
100
AcDbLine
 10
-133.5310000000000059
 20
-81.9407999999999959
 30
0.0
 11
-139.8000000000000114
 21
-46.3892000000000024
 31
0.0
  0
ARC
  5
72
100
AcDbEntity
  8
BLACK
 62
256
370
-1
 48
1.0
  6
BYLAYER
100
AcDbCircle
 10
-132.5459999999999923
 20
-81.7670999999999992
 30
0.0
 40
0.999999
100
AcDbArc
 50
-170.0
 51
-79.9992000000000019
  0
LINE
  5
73
100
AcDbEntity
  8
edge cuts plate
 62
256
370
-1
 48
1.0
  6
BYLAYER
100
AcDbLine
 10
-121.769909590206268
 20
-53.4780488434180867
 30
0.0
 11
-119.0130711215660284
 21
-69.1128567302399119
 31
0.0
  0
ARC
  5
74
100
AcDbEntity
  8
BLACK
 62
256
370
-1
 48
1.0
  6
BYLAYER
100
AcDbCircle
 10
-115.2920000000000016
 20
-22.7239000000000004
 30
0.0
 40
1.0
100
AcDbArc
 50
-260.0
 51
-170.0
  0
LINE
  5
75
100
AcDbEntity
  8
BLACK
 62
256
370
-1
 48
1.0
  6
CONTINUOUS
100
AcDbLine
 10
22.8125
 20
-9.5250000000000004
 30
0.0
 11
20.0500000000000007
 21
-9.5250000000000004
 31
0.0
  0
ARC
  5
76
100
AcDbEntity
  8
BLACK
 62
256
370
-1
 48
1.0
  6
BYLAYER
100
AcDbCircle
 10
22.8125
 20
-10.5250000000000004
 30
0.0
 40
1.0
100
AcDbArc
 50
-0.0
 51
90.0
  0
LINE
  5
77
100
AcDbEntity
  8
BLACK
 62
256
370
-1
 48
1.0
  6
CONTINUOUS
100
AcDbLine
 10
-47.948599999999999
 20
9.5098099999999999
 30
0.0
 11
-115.465999999999994
 21
-2.3952399999999998
 31
0.0
  0
ARC
  5
78
100
AcDbEntity
  8
BLACK
 62
256
370
-1
 48
1.0
  6
BYLAYER
100
AcDbCircle
 10
-114.3010000000000019
 20
-20.5183
 30
0.0
 40
1.0
100
AcDbArc
 50
-80.0
 51
9.9999900000000004
  0
ARC
  5
79
100
AcDbEntity
  8
BLACK
 62
256
370
-1
 48
1.0
  6
BYLAYER
100
AcDbCircle
 10
24.8125
 20
-48.625
 30
0.0
 40
1.0
100
AcDbArc
 50
90.0
 51
180.0
  0
CIRCLE
  5
7A
100
AcDbEntity
  8
coponent footprints
 62
256
370
-1
 48
1.0
  6
BYLAYER
100
AcDbCircle
 10
0.0
 20
0.0
 30
0.0
 40
1.9939
  0
LINE
  5
7B
100
AcDbEntity
  8
BLACK
 62
256
370
-1
 48
1.0
  6
CONTINUOUS
100
AcDbLine
 10
23.8125
 20
-27.5749999999999993
 30
0.0
 11
23.8125
 21
-10.5250000000000004
 31
0.0
  0
CIRCLE
  5
7C
100
AcDbEntity
  8
coponent footprints
 62
256
370
-1
 48
1.0
  6
BYLAYER
100
AcDbCircle
 10
-4.7624999999999886
 20
0.0
 30
0.0
 40
1.9939
  0
CIRCLE
  5
7D
100
AcDbEntity
  8
coponent footprints
 62
256
370
-1
 48
1.0
  6
BYLAYER
100
AcDbCircle
 10
0.0
 20
0.0
 30
0.0
 40
1.9939
  0
ARC
  5
7E
100
AcDbEntity
  8
BLACK
 62
256
370
-1
 48
1.0
  6
BYLAYER
100
AcDbCircle
 10
27.5749999999999993
 20
-29.5749999999999993
 30
0.0
 40
1.0
100
AcDbArc
 50
-0.0
 51
90.0
  0
CIRCLE
  5
7F
100
AcDbEntity
  8
coponent footprints
 62
256
370
-1
 48
1.0
  6
BYLAYER
100
AcDbCircle
 10
-28.5749999999999886
 20
0.0000000000000568
 30
0.0
 40
1.9939
  0
ARC
  5
80
100
AcDbEntity
  8
BLACK
 62
256
370
-1
 48
1.0
  6
BYLAYER
100
AcDbCircle
 10
-114.3010000000000019
 20
-39.8622000000000014
 30
0.0
 40
1.0
100
AcDbArc
 50
-80.0
 51
9.9999900000000004
  0
CIRCLE
  5
81
100
AcDbEntity
  8
coponent footprints
 62
256
370
-1
 48
1.0
  6
BYLAYER
100
AcDbCircle
 10
-49.1342927397188021
 20
-0.3711938863652193
 30
0.0
 40
1.9939
  0
ARC
  5
82
100
AcDbEntity
  8
BLACK
 62
256
370
-1
 48
1.0
  6
BYLAYER
100
AcDbCircle
 10
-115.2920000000000016
 20
-3.3800500000000002
 30
0.0
 40
1.0
100
AcDbArc
 50
-260.0
 51
-170.0
  0
CIRCLE
  5
83
100
AcDbEntity
  8
coponent footprints
 62
256
370
-1
 48
1.0
  6
BYLAYER
100
AcDbCircle
 10
-67.8948804346013617
 20
-3.6791916709202468
 30
0.0
 40
1.9939
  0
ARC
  5
84
100
AcDbEntity
  8
BLACK
 62
256
370
-1
 48
1.0
  6
BYLAYER
100
AcDbCircle
 10
22.8125
 20
-65.6749999999999972
 30
0.0
 40
1.0
100
AcDbArc
 50
-90.0
 51
-0.0
  0
CIRCLE
  5
85
100
AcDbEntity
  8
coponent footprints
 62
256
370
-1
 48
1.0
  6
BYLAYER
100
AcDbCircle
 10
-86.6554681294839213
 20
-6.9871894554752743
 30
0.0
 40
1.9939
  0
LINE
  5
86
100
AcDbEntity
  8
edge cuts plate
 62
256
370
-1
 48
1.0
  6
BYLAYER
100
AcDbLine
 10
-14.9380000000000166
 20
-8.9999999999999432
 30
0.0
 11
-8.9380000000000166
 21
-8.9999999999999432
 31
0.0
  0
LINE
  5
87
100
AcDbEntity
  8
edge cuts plate
 62
256
370
-1
 48
1.0
  6
BYLAYER
100
AcDbLine
 10
-12.556750000000017
 20
-28.0499999999999545
 30
0.0
 11
-6.556750000000017
 21
-28.0499999999999545
 31
0.0
  0
LINE
  5
88
100
AcDbEntity
  8
edge cuts plate
 62
256
370
-1
 48
1.0
  6
BYLAYER
100
AcDbLine
 10
-12.556750000000017
 20
-47.1000000000000227
 30
0.0
 11
-6.556750000000017
 21
-47.1000000000000227
 31
0.0
  0
LINE
  5
89
100
AcDbEntity
  8
BLACK
 62
256
370
-1
 48
1.0
  6
CONTINUOUS
100
AcDbLine
 10
18.0500000000000007
 20
9.5250000000000004
 30
0.0
 11
-47.7749999999999986
 21
9.5250000000000004
 31
0.0
  0
CIRCLE
  5
8A
100
AcDbEntity
  8
coponent footprints
 62
256
370
-1
 48
1.0
  6
BYLAYER
100
AcDbCircle
 10
-28.5749999999999886
 20
-19.0499999999999545
 30
0.0
 40
1.9939
  0
LINE
  5
8B
100
AcDbEntity
  8
BLACK
 62
256
370
-1
 48
1.0
  6
CONTINUOUS
100
AcDbLine
 10
27.5749999999999993
 20
-28.5749999999999993
 30
0.0
 11
24.8125
 21
-28.5749999999999993
 31
0.0
  0
CIRCLE
  5
8C
100
AcDbEntity
  8
coponent footprints
 62
256
370
-1
 48
1.0
  6
BYLAYER
100
AcDbCircle
 10
-33.3375000000000057
 20
-38.1000000000000227
 30
0.0
 40
1.9939
  0
LINE
  5
8D
100
AcDbEntity
  8
edge cuts plate
 62
256
370
-1
 48
1.0
  6
BYLAYER
100
AcDbLine
 10
-77.3068193706845648
 20
-54.2315618232867394
 30
0.0
 11
-83.2156658887577976
 21
-55.2734508892883198
 31
0.0
  0
LINE
  5
8E
100
AcDbEntity
  8
BLACK
 62
256
370
-1
 48
1.0
  6
CONTINUOUS
100
AcDbLine
 10
-138.9890000000000043
 20
-45.2308000000000021
 30
0.0
 11
-114.1269999999999953
 21
-40.8470000000000013
 31
0.0
  0
CIRCLE
  5
8F
100
AcDbEntity
  8
coponent footprints
 62
256
370
-1
 48
1.0
  6
BYLAYER
100
AcDbCircle
 10
-53.8967927397188191
 20
-39.8987050448361629
 30
0.0
 40
1.9939
  0
LINE
  5
90
100
AcDbEntity
  8
BLACK
 62
256
370
-1
 48
1.0
  6
CONTINUOUS
100
AcDbLine
 10
23.8125
 20
-65.6749999999999972
 30
0.0
 11
23.8125
 21
-48.625
 31
0.0
  0
CIRCLE
  5
91
100
AcDbEntity
  8
coponent footprints
 62
256
370
-1
 48
1.0
  6
BYLAYER
100
AcDbCircle
 10
0.0
 20
-57.149999999999892
 30
0.0
 40
1.9939
  0
LINE
  5
92
100
AcDbEntity
  8
edge cuts plate
 62
256
370
-1
 48
1.0
  6
BYLAYER
100
AcDbLine
 10
-121.0158313278503073
 20
-46.2370982169987528
 30
0.0
 11
-119.9739422618487623
 21
-52.145944735072014
 31
0.0
  0
LINE
  5
93
100
AcDbEntity
  8
BLACK
 62
256
370
-1
 48
1.0
  6
CONTINUOUS
100
AcDbLine
 10
24.8125
 20
-47.625
 30
0.0
 11
27.5749999999999993
 21
-47.625
 31
0.0
  0
CIRCLE
  5
94
100
AcDbEntity
  8
coponent footprints
 62
256
370
-1
 48
1.0
  6
BYLAYER
100
AcDbCircle
 10
2.3812499999999943
 20
-19.0500000000000114
 30
0.0
 40
1.9939
  0
LINE
  5
95
100
AcDbEntity
  8
BLACK
 62
256
370
-1
 48
1.0
  6
CONTINUOUS
100
AcDbLine
 10
-113.3160000000000025
 20
-39.6884999999999977
 30
0.0
 11
-116.277000000000001
 21
-22.8976000000000006
 31
0.0
  0
CIRCLE
  5
96
100
AcDbEntity
  8
coponent footprints
 62
256
370
-1
 48
1.0
  6
BYLAYER
100
AcDbCircle
 10
-26.1937499999999943
 20
-57.149999999999892
 30
0.0
 40
1.9939
  0
ARC
  5
97
100
AcDbEntity
  8
BLACK
 62
256
370
-1
 48
1.0
  6
BYLAYER
100
AcDbCircle
 10
24.8125
 20
-27.5749999999999993
 30
0.0
 40
1.0
100
AcDbArc
 50
-180.0
 51
-90.0
  0
CIRCLE
  5
98
100
AcDbEntity
  8
coponent footprints
 62
256
370
-1
 48
1.0
  6
BYLAYER
100
AcDbCircle
 10
-127.2851446269715439
 20
-62.5109900304975312
 30
0.0
 40
1.9939
  0
LINE
  5
99
100
AcDbEntity
  8
edge cuts plate
 62
256
370
-1
 48
1.0
  6
BYLAYER
100
AcDbLine
 10
-15.4380000000000166
 20
6.5000000000000568
 30
0.0
 11
-15.4380000000000166
 21
-8.4999999999999432
 31
0.0
  0
LINE
  5
9A
100
AcDbEntity
  8
edge cuts plate
 62
256
370
-1
 48
1.0
  6
BYLAYER
100
AcDbLine
 10
-13.056750000000017
 20
-12.5499999999999545
 30
0.0
 11
-13.056750000000017
 21
-27.5499999999999545
 31
0.0
  0
LINE
  5
9B
100
AcDbEntity
  8
edge cuts plate
 62
256
370
-1
 48
1.0
  6
BYLAYER
100
AcDbLine
 10
-13.056750000000017
 20
-45.6000000000000227
 30
0.0
 11
-13.056750000000017
 21
-46.6000000000000227
 31
0.0
  0
ARC
  5
9C
100
AcDbEntity
  8
BLACK
 62
256
370
-1
 48
1.0
  6
BYLAYER
100
AcDbCircle
 10
-41.1146999999999991
 20
-67.6751000000000005
 30
0.0
 40
1.0000800000000001
100
AcDbArc
 50
90.0002999999999957
 51
100.0
  0
CIRCLE
  5
9D
100
AcDbEntity
  8
coponent footprints
 62
256
370
-1
 48
1.0
  6
BYLAYER
100
AcDbCircle
 10
-2.3812499999999943
 20
-38.0999999999999091
 30
0.0
 40
1.9939
  0
LINE
  5
9E
100
AcDbEntity
  8
BLACK
 62
256
370
-1
 48
1.0
  6
CONTINUOUS
100
AcDbLine
 10
22.8125
 20
-66.6749999999999972
 30
0.0
 11
-41.1146999999999991
 21
-66.6749999999999972
 31
0.0
  0
CIRCLE
  5
9F
100
AcDbEntity
  8
coponent footprints
 62
256
370
-1
 48
1.0
  6
BYLAYER
100
AcDbCircle
 10
-74.0395295737669983
 20
-62.7942899704125566
 30
0.0
 40
1.9939
  0
LINE
  5
A0
100
AcDbEntity
  8
edge cuts plate
 62
256
370
-1
 48
1.0
  6
BYLAYER
100
AcDbLine
 10
-76.5539432302185503
 20
-55.6219493495636996
 30
0.0
 11
-76.727591405344981
 21
-54.6371416109593895
 31
0.0
  0
CIRCLE
  5
A1
100
AcDbEntity
  8
coponent footprints
 62
256
370
-1
 48
1.0
  6
BYLAYER
100
AcDbCircle
 10
-9.8424999999999727
 20
0.0
 30
0.0
 40
0.875
  0
CIRCLE
  5
A2
100
AcDbEntity
  8
coponent footprints
 62
256
370
-1
 48
1.0
  6
BYLAYER
100
AcDbCircle
 10
-2.6987499999999898
 20
-19.0500000000000114
 30
0.0
 40
0.875
  0
LINE
  5
A3
100
AcDbEntity
  8
edge cuts plate
 62
256
370
-1
 48
1.0
  6
BYLAYER
100
AcDbLine
 10
-122.5798670462020681
 20
-46.0051666069930363
 30
0.0
 11
-121.5950592931898626
 21
-45.8315184293261311
 31
0.0
  0
CIRCLE
  5
A4
100
AcDbEntity
  8
coponent footprints
 62
256
370
-1
 48
1.0
  6
BYLAYER
100
AcDbCircle
 10
-7.4612499999999784
 20
-38.0999999999999091
 30
0.0
 40
0.875
  0
CIRCLE
  5
A5
100
AcDbEntity
  8
coponent footprints
 62
256
370
-1
 48
1.0
  6
BYLAYER
100
AcDbCircle
 10
-79.0423529590690066
 20
-63.6764227129605374
 30
0.0
 40
0.875
  0
CIRCLE
  5
A6
100
AcDbEntity
  8
coponent footprints
 62
256
370
-1
 48
1.0
  6
BYLAYER
100
AcDbCircle
 10
-5.0799999999999841
 20
-57.149999999999892
 30
0.0
 40
0.875
  0
CIRCLE
  5
A7
100
AcDbEntity
  8
coponent footprints
 62
256
370
-1
 48
1.0
  6
BYLAYER
100
AcDbCircle
 10
-31.2737499999999784
 20
-57.149999999999892
 30
0.0
 40
0.875
  0
CIRCLE
  5
A8
100
AcDbEntity
  8
coponent footprints
 62
256
370
-1
 48
1.0
  6
BYLAYER
100
AcDbCircle
 10
-38.4174999999999898
 20
-38.1000000000000227
 30
0.0
 40
0.875
  0
LINE
  5
A9
100
AcDbEntity
  8
edge cuts plate
 62
256
370
-1
 48
1.0
  6
BYLAYER
100
AcDbLine
 10
-8.4380000000000166
 20
-7.4999999999999432
 30
0.0
 11
-8.4380000000000166
 21
-8.4999999999999432
 31
0.0
  0
LINE
  5
AA
100
AcDbEntity
  8
edge cuts plate
 62
256
370
-1
 48
1.0
  6
BYLAYER
100
AcDbLine
 10
-6.056750000000017
 20
-26.5499999999999545
 30
0.0
 11
-6.056750000000017
 21
-27.5499999999999545
 31
0.0
  0
LINE
  5
AB
100
AcDbEntity
  8
edge cuts plate
 62
256
370
-1
 48
1.0
  6
BYLAYER
100
AcDbLine
 10
-6.056750000000017
 20
-45.6000000000000227
 30
0.0
 11
-6.056750000000017
 21
-46.6000000000000227
 31
0.0
  0
CIRCLE
  5
AC
100
AcDbEntity
  8
coponent footprints
 62
256
370
-1
 48
1.0
  6
BYLAYER
100
AcDbCircle
 10
-33.6549999999999727
 20
-19.0499999999999545
 30
0.0
 40
0.875
  0
CIRCLE
  5
AD
100
AcDbEntity
  8
coponent footprints
 62
256
370
-1
 48
1.0
  6
BYLAYER
100
AcDbCircle
 10
-33.6549999999999727
 20
0.0000000000000568
 30
0.0
 40
0.875
  0
LINE
  5
AE
100
AcDbEntity
  8
edge cuts plate
 62
256
370
-1
 48
1.0
  6
BYLAYER
100
AcDbLine
 10
-83.4475974987635141
 20
-56.8374866076401091
 30
0.0
 11
-83.6212456764304335
 21
-55.8526788546278681
 31
0.0
  0
CIRCLE
  5
AF
100
AcDbEntity
  8
coponent footprints
 62
256
370
-1
 48
1.0
  6
BYLAYER
100
AcDbCircle
 10
-54.1371161250208104
 20
-1.2533266289132143
 30
0.0
 40
0.875
  0
LINE
  5
B0
100
AcDbEntity
  8
edge cuts plate
 62
256
370
-1
 48
1.0
  6
BYLAYER
100
AcDbLine
 10
-121.3643298025336179
 20
-52.898820878078503
 30
0.0
 11
-120.3795220495214124
 21
-52.7251727004115693
 31
0.0
  0
CIRCLE
  5
B1
100
AcDbEntity
  8
coponent footprints
 62
256
370
-1
 48
1.0
  6
BYLAYER
100
AcDbCircle
 10
-54.137116125020782
 20
-20.5972035853366719
 30
0.0
 40
0.875
  0
CIRCLE
  5
B2
100
AcDbEntity
  8
coponent footprints
 62
256
370
-1
 48
1.0
  6
BYLAYER
100
AcDbCircle
 10
-72.89770381990337
 20
-4.5613244134682418
 30
0.0
 40
0.875
  0
CIRCLE
  5
B3
100
AcDbEntity
  8
coponent footprints
 62
256
370
-1
 48
1.0
  6
BYLAYER
100
AcDbCircle
 10
-91.6582915147859296
 20
-7.8693221980232693
 30
0.0
 40
0.875
  0
ARC
  5
B4
100
AcDbEntity
  8
edge cuts plate
 62
256
370
-1
 48
1.0
  6
BYLAYER
100
AcDbCircle
 10
-14.9380000000000166
 20
6.5000000000000568
 30
0.0
 40
0.5
100
AcDbArc
 50
90.0
 51
180.0
  0
ARC
  5
B5
100
AcDbEntity
  8
edge cuts plate
 62
256
370
-1
 48
1.0
  6
BYLAYER
100
AcDbCircle
 10
-12.556750000000017
 20
-12.5499999999999545
 30
0.0
 40
0.5
100
AcDbArc
 50
90.0
 51
180.0
  0
CIRCLE
  5
B6
100
AcDbEntity
  8
coponent footprints
 62
256
370
-1
 48
1.0
  6
BYLAYER
100
AcDbCircle
 10
-110.4188792096685177
 20
-11.1773199825782825
 30
0.0
 40
0.875
  0
CIRCLE
  5
B7
100
AcDbEntity
  8
coponent footprints
 62
256
370
-1
 48
1.0
  6
BYLAYER
100
AcDbCircle
 10
-110.4188792096684892
 20
-30.5211969390017686
 30
0.0
 40
0.875
  0
CIRCLE
  5
B8
100
AcDbEntity
  8
coponent footprints
 62
256
370
-1
 48
1.0
  6
BYLAYER
100
AcDbCircle
 10
-91.6582915147859296
 20
-27.2131991544467269
 30
0.0
 40
0.875
  0
ARC
  5
B9
100
AcDbEntity
  8
edge cuts plate
 62
256
370
-1
 48
1.0
  6
BYLAYER
100
AcDbCircle
 10
-14.9380000000000166
 20
-8.4999999999999432
 30
0.0
 40
0.5
100
AcDbArc
 50
180.0
 51
270.0
  0
ARC
  5
BA
100
AcDbEntity
  8
edge cuts plate
 62
256
370
-1
 48
1.0
  6
BYLAYER
100
AcDbCircle
 10
-12.556750000000017
 20
-27.5499999999999545
 30
0.0
 40
0.5
100
AcDbArc
 50
180.0
 51
270.0
  0
ARC
  5
BB
100
AcDbEntity
  8
edge cuts plate
 62
256
370
-1
 48
1.0
  6
BYLAYER
100
AcDbCircle
 10
-12.556750000000017
 20
-46.6000000000000227
 30
0.0
 40
0.5
100
AcDbArc
 50
180.0
 51
270.0
  0
CIRCLE
  5
BC
100
AcDbEntity
  8
coponent footprints
 62
256
370
-1
 48
1.0
  6
BYLAYER
100
AcDbCircle
 10
-72.89770381990337
 20
-23.9052013698916852
 30
0.0
 40
0.875
  0
ARC
  5
BD
100
AcDbEntity
  8
edge cuts plate
 62
256
370
-1
 48
1.0
  6
BYLAYER
100
AcDbCircle
 10
-77.2199952818510695
 20
-54.7239656997928634
 30
0.0
 40
0.5
100
AcDbArc
 50
9.9999999999999876
 51
99.9999999999999858
  0
CIRCLE
  5
BE
100
AcDbEntity
  8
coponent footprints
 62
256
370
-1
 48
1.0
  6
BYLAYER
100
AcDbCircle
 10
-58.899616125020799
 20
-40.7808377873841721
 30
0.0
 40
0.875
  0
ARC
  5
BF
100
AcDbEntity
  8
edge cuts plate
 62
256
370
-1
 48
1.0
  6
BYLAYER
100
AcDbCircle
 10
-121.5082352043564669
 20
-46.3239223058322338
 30
0.0
 40
0.5
100
AcDbArc
 50
10.0000000000000124
 51
99.9999999999999858
  0
CIRCLE
  5
C0
100
AcDbEntity
  8
coponent footprints
 62
256
370
-1
 48
1.0
  6
BYLAYER
100
AcDbCircle
 10
-77.6602038199033871
 20
-44.0888355719391996
 30
0.0
 40
0.875
  0
ARC
  5
C1
100
AcDbEntity
  8
edge cuts plate
 62
256
370
-1
 48
1.0
  6
BYLAYER
100
AcDbCircle
 10
-8.9380000000000166
 20
-8.4999999999999432
 30
0.0
 40
0.5
100
AcDbArc
 50
270.0
 51
0.0
  0
ARC
  5
C2
100
AcDbEntity
  8
edge cuts plate
 62
256
370
-1
 48
1.0
  6
BYLAYER
100
AcDbCircle
 10
-6.556750000000017
 20
-27.5499999999999545
 30
0.0
 40
0.5
100
AcDbArc
 50
270.0
 51
0.0
  0
ARC
  5
C3
100
AcDbEntity
  8
edge cuts plate
 62
256
370
-1
 48
1.0
  6
BYLAYER
100
AcDbCircle
 10
-6.556750000000017
 20
-46.6000000000000227
 30
0.0
 40
0.5
100
AcDbArc
 50
270.0
 51
0.0
  0
CIRCLE
  5
C4
100
AcDbEntity
  8
coponent footprints
 62
256
370
-1
 48
1.0
  6
BYLAYER
100
AcDbCircle
 10
-96.4207915147859467
 20
-47.396833356494227
 30
0.0
 40
0.875
  0
ARC
  5
C5
100
AcDbEntity
  8
edge cuts plate
 62
256
370
-1
 48
1.0
  6
BYLAYER
100
AcDbCircle
 10
-83.1288417999243734
 20
-55.7658547657944439
 30
0.0
 40
0.5
100
AcDbArc
 50
99.9999999999999858
 51
190.0
  0
CIRCLE
  5
C6
100
AcDbEntity
  8
coponent footprints
 62
256
370
-1
 48
1.0
  6
BYLAYER
100
AcDbCircle
 10
-115.1813792096684779
 20
-50.7048311410492545
 30
0.0
 40
0.875
  0
ARC
  5
C7
100
AcDbEntity
  8
edge cuts plate
 62
256
370
-1
 48
1.0
  6
BYLAYER
100
AcDbCircle
 10
-120.466346138354865
 20
-52.2327688239054666
 30
0.0
 40
0.5
100
AcDbArc
 50
280.0
 51
10.0000000000000124
  0
CIRCLE
  5
C8
100
AcDbEntity
  8
coponent footprints
 62
256
370
-1
 48
1.0
  6
BYLAYER
100
AcDbCircle
 10
-95.4578671920912143
 20
-66.5709207744461651
 30
0.0
 40
0.875
  0
LINE
  5
C9
100
AcDbEntity
  8
edge cuts plate
 62
256
370
-1
 48
1.0
  6
BYLAYER
100
AcDbLine
 10
8.9380000000000166
 20
-8.9999999999999432
 30
0.0
 11
14.9380000000000166
 21
-8.9999999999999432
 31
0.0
  0
LINE
  5
CA
100
AcDbEntity
  8
edge cuts plate
 62
256
370
-1
 48
1.0
  6
BYLAYER
100
AcDbLine
 10
11.3192500000000162
 20
-28.0499999999999545
 30
0.0
 11
17.319250000000018
 21
-28.0499999999999545
 31
0.0
  0
LINE
  5
CB
100
AcDbEntity
  8
edge cuts plate
 62
256
370
-1
 48
1.0
  6
BYLAYER
100
AcDbLine
 10
11.3192500000000162
 20
-47.1000000000000227
 30
0.0
 11
17.319250000000018
 21
-47.1000000000000227
 31
0.0
  0
CIRCLE
  5
CC
100
AcDbEntity
  8
coponent footprints
 62
256
370
-1
 48
1.0
  6
BYLAYER
100
AcDbCircle
 10
-60.2817652641863901
 20
-60.3684249284055099
 30
0.0
 40
0.875
  0
LINE
  5
CD
100
AcDbEntity
  8
edge cuts plate
 62
256
370
-1
 48
1.0
  6
BYLAYER
100
AcDbLine
 10
-100.8200892816040266
 20
-58.3775857132623628
 30
0.0
 11
-106.7289357996773163
 21
-59.4194747792639433
 31
0.0
  0
CIRCLE
  5
CE
100
AcDbEntity
  8
coponent footprints
 62
256
370
-1
 48
1.0
  6
BYLAYER
100
AcDbCircle
 10
-130.6339691199960384
 20
-72.7734166204868416
 30
0.0
 40
0.875
  0
LINE
  5
CF
100
AcDbEntity
  8
edge cuts plate
 62
256
370
-1
 48
1.0
  6
BYLAYER
100
AcDbLine
 10
-116.8698074378747123
 20
-69.7503681279182501
 30
0.0
 11
-115.8279183718731105
 21
-75.6592146459915114
 31
0.0
  0
CIRCLE
  5
D0
100
AcDbEntity
  8
coponent footprints
 62
256
370
-1
 48
1.0
  6
BYLAYER
100
AcDbCircle
 10
-133.9419669045510659
 20
-54.0128289256041683
 30
0.0
 40
0.875
  0
CIRCLE
  5
D1
100
AcDbEntity
  8
coponent footprints
 62
256
370
-1
 48
1.0
  6
BYLAYER
100
AcDbCircle
 10
-126.4030119999999897
 20
-67.5138129999999421
 30
0.0
 40
0.875
  0
LINE
  5
D2
100
AcDbEntity
  8
edge cuts plate
 62
256
370
-1
 48
1.0
  6
BYLAYER
100
AcDbLine
 10
8.4380000000000166
 20
-7.4999999999999432
 30
0.0
 11
8.4380000000000166
 21
-8.4999999999999432
 31
0.0
  0
LINE
  5
D3
100
AcDbEntity
  8
edge cuts plate
 62
256
370
-1
 48
1.0
  6
BYLAYER
100
AcDbLine
 10
10.8192500000000162
 20
-26.5499999999999545
 30
0.0
 11
10.8192500000000162
 21
-27.5499999999999545
 31
0.0
  0
LINE
  5
D4
100
AcDbEntity
  8
edge cuts plate
 62
256
370
-1
 48
1.0
  6
BYLAYER
100
AcDbLine
 10
10.8192500000000162
 20
-45.6000000000000227
 30
0.0
 11
10.8192500000000162
 21
-46.6000000000000227
 31
0.0
  0
CIRCLE
  5
D5
100
AcDbEntity
  8
coponent footprints
 62
256
370
-1
 48
1.0
  6
BYLAYER
100
AcDbCircle
 10
0.3174999999999955
 20
0.0
 30
0.0
 40
0.875
  0
LINE
  5
D6
100
AcDbEntity
  8
edge cuts plate
 62
256
370
-1
 48
1.0
  6
BYLAYER
100
AcDbLine
 10
-100.0672131385975518
 20
-59.7679732539472042
 30
0.0
 11
-100.2408613162645139
 21
-58.7831655009350058
 31
0.0
  0
CIRCLE
  5
D7
100
AcDbEntity
  8
coponent footprints
 62
256
370
-1
 48
1.0
  6
BYLAYER
100
AcDbCircle
 10
7.4612499999999784
 20
-19.0500000000000114
 30
0.0
 40
0.875
  0
LINE
  5
D8
100
AcDbEntity
  8
edge cuts plate
 62
256
370
-1
 48
1.0
  6
BYLAYER
100
AcDbLine
 10
-118.4338431562264731
 20
-69.5184365179125621
 30
0.0
 11
-117.4490354032142676
 21
-69.3447883402456284
 31
0.0
  0
CIRCLE
  5
D9
100
AcDbEntity
  8
coponent footprints
 62
256
370
-1
 48
1.0
  6
BYLAYER
100
AcDbCircle
 10
2.6987499999999898
 20
-38.0999999999999091
 30
0.0
 40
0.875
  0
LINE
  5
DA
100
AcDbEntity
  8
edge cuts plate
 62
256
370
-1
 48
1.0
  6
BYLAYER
100
AcDbLine
 10
15.4380000000000166
 20
6.5000000000000568
 30
0.0
 11
15.4380000000000166
 21
-8.4999999999999432
 31
0.0
  0
LINE
  5
DB
100
AcDbEntity
  8
edge cuts plate
 62
256
370
-1
 48
1.0
  6
BYLAYER
100
AcDbLine
 10
17.819250000000018
 20
-12.5499999999999545
 30
0.0
 11
17.819250000000018
 21
-27.5499999999999545
 31
0.0
  0
LINE
  5
DC
100
AcDbEntity
  8
edge cuts plate
 62
256
370
-1
 48
1.0
  6
BYLAYER
100
AcDbLine
 10
17.819250000000018
 20
-45.6000000000000156
 30
0.0
 11
17.819250000000018
 21
-46.6000000000000227
 31
0.0
  0
CIRCLE
  5
DD
100
AcDbEntity
  8
coponent footprints
 62
256
370
-1
 48
1.0
  6
BYLAYER
100
AcDbCircle
 10
-69.0367061884650184
 20
-61.9121572278645473
 30
0.0
 40
0.875
  0
LINE
  5
DE
100
AcDbEntity
  8
edge cuts plate
 62
256
370
-1
 48
1.0
  6
BYLAYER
100
AcDbLine
 10
-106.9608674096830185
 20
-60.983510497615697
 30
0.0
 11
-107.134515587349938
 21
-59.9987027446035057
 31
0.0
  0
CIRCLE
  5
DF
100
AcDbEntity
  8
coponent footprints
 62
256
370
-1
 48
1.0
  6
BYLAYER
100
AcDbCircle
 10
5.0799999999999841
 20
-57.149999999999892
 30
0.0
 40
0.875
  0
LINE
  5
E0
100
AcDbEntity
  8
edge cuts plate
 62
256
370
-1
 48
1.0
  6
BYLAYER
100
AcDbLine
 10
-117.2183059125579661
 20
-76.4120907889980003
 30
0.0
 11
-116.2334981595457606
 21
-76.2384426113310667
 31
0.0
  0
CIRCLE
  5
E1
100
AcDbEntity
  8
coponent footprints
 62
256
370
-1
 48
1.0
  6
BYLAYER
100
AcDbCircle
 10
-21.1137500000000102
 20
-57.149999999999892
 30
0.0
 40
0.875
  0
ARC
  5
E2
100
AcDbEntity
  8
edge cuts plate
 62
256
370
-1
 48
1.0
  6
BYLAYER
100
AcDbCircle
 10
14.9380000000000166
 20
6.5000000000000568
 30
0.0
 40
0.5
100
AcDbArc
 50
0.0
 51
90.0
  0
ARC
  5
E3
100
AcDbEntity
  8
edge cuts plate
 62
256
370
-1
 48
1.0
  6
BYLAYER
100
AcDbCircle
 10
17.319250000000018
 20
-12.5499999999999545
 30
0.0
 40
0.5
100
AcDbArc
 50
0.0
 51
90.0
  0
CIRCLE
  5
E4
100
AcDbEntity
  8
coponent footprints
 62
256
370
-1
 48
1.0
  6
BYLAYER
100
AcDbCircle
 10
-28.2575000000000216
 20
-38.1000000000000227
 30
0.0
 40
0.875
  0
CIRCLE
  5
E5
100
AcDbEntity
  8
coponent footprints
 62
256
370
-1
 48
1.0
  6
BYLAYER
100
AcDbCircle
 10
-23.4950000000000045
 20
-19.0499999999999545
 30
0.0
 40
0.875
  0
ARC
  5
E6
100
AcDbEntity
  8
edge cuts plate
 62
256
370
-1
 48
1.0
  6
BYLAYER
100
AcDbCircle
 10
8.9380000000000166
 20
-8.4999999999999432
 30
0.0
 40
0.5
100
AcDbArc
 50
180.0
 51
270.0
  0
ARC
  5
E7
100
AcDbEntity
  8
edge cuts plate
 62
256
370
-1
 48
1.0
  6
BYLAYER
100
AcDbCircle
 10
11.3192500000000162
 20
-27.5499999999999545
 30
0.0
 40
0.5
100
AcDbArc
 50
180.0
 51
270.0
  0
ARC
  5
E8
100
AcDbEntity
  8
edge cuts plate
 62
256
370
-1
 48
1.0
  6
BYLAYER
100
AcDbCircle
 10
11.3192500000000162
 20
-46.6000000000000227
 30
0.0
 40
0.5
100
AcDbArc
 50
180.0
 51
270.0
  0
CIRCLE
  5
E9
100
AcDbEntity
  8
coponent footprints
 62
256
370
-1
 48
1.0
  6
BYLAYER
100
AcDbCircle
 10
-23.4950000000000045
 20
0.0000000000000568
 30
0.0
 40
0.875
  0
ARC
  5
EA
100
AcDbEntity
  8
edge cuts plate
 62
256
370
-1
 48
1.0
  6
BYLAYER
100
AcDbCircle
 10
-100.7332651927706024
 20
-58.8699895897684797
 30
0.0
 40
0.5
100
AcDbArc
 50
9.9999999999999876
 51
99.9999999999999858
  0
CIRCLE
  5
EB
100
AcDbEntity
  8
coponent footprints
 62
256
370
-1
 48
1.0
  6
BYLAYER
100
AcDbCircle
 10
-44.1314693544167937
 20
0.5109388561827757
 30
0.0
 40
0.875
  0
ARC
  5
EC
100
AcDbEntity
  8
edge cuts plate
 62
256
370
-1
 48
1.0
  6
BYLAYER
100
AcDbCircle
 10
-117.362211314380815
 20
-69.8371922167517312
 30
0.0
 40
0.5
100
AcDbArc
 50
10.0000000000000124
 51
99.9999999999999858
  0
CIRCLE
  5
ED
100
AcDbEntity
  8
coponent footprints
 62
256
370
-1
 48
1.0
  6
BYLAYER
100
AcDbCircle
 10
-44.1314693544167937
 20
-18.8329381002406677
 30
0.0
 40
0.875
  0
ARC
  5
EE
100
AcDbEntity
  8
edge cuts plate
 62
256
370
-1
 48
1.0
  6
BYLAYER
100
AcDbCircle
 10
14.9380000000000166
 20
-8.4999999999999432
 30
0.0
 40
0.5
100
AcDbArc
 50
270.0
 51
0.0
  0
ARC
  5
EF
100
AcDbEntity
  8
edge cuts plate
 62
256
370
-1
 48
1.0
  6
BYLAYER
100
AcDbCircle
 10
17.319250000000018
 20
-27.5499999999999545
 30
0.0
 40
0.5
100
AcDbArc
 50
270.0
 51
0.0
  0
ARC
  5
F0
100
AcDbEntity
  8
edge cuts plate
 62
256
370
-1
 48
1.0
  6
BYLAYER
100
AcDbCircle
 10
17.319250000000018
 20
-46.6000000000000227
 30
0.0
 40
0.5
100
AcDbArc
 50
270.0
 51
0.0
  0
CIRCLE
  5
F1
100
AcDbEntity
  8
coponent footprints
 62
256
370
-1
 48
1.0
  6
BYLAYER
100
AcDbCircle
 10
-62.8920570492993605
 20
-2.7970589283722518
 30
0.0
 40
0.875
  0
ARC
  5
F2
100
AcDbEntity
  8
edge cuts plate
 62
256
370
-1
 48
1.0
  6
BYLAYER
100
AcDbCircle
 10
-106.6421117108438494
 20
-59.9118786557700389
 30
0.0
 40
0.5
100
AcDbArc
 50
99.9999999999999858
 51
190.0
  0
CIRCLE
  5
F3
100
AcDbEntity
  8
coponent footprints
 62
256
370
-1
 48
1.0
  6
BYLAYER
100
AcDbCircle
 10
-81.652644744181913
 20
-6.105056712927265
 30
0.0
 40
0.875
  0
ARC
  5
F4
100
AcDbEntity
  8
edge cuts plate
 62
256
370
-1
 48
1.0
  6
BYLAYER
100
AcDbCircle
 10
-116.3203222483792132
 20
-75.746038734824964
 30
0.0
 40
0.5
100
AcDbArc
 50
280.0
 51
10.0000000000000124
  0
CIRCLE
  5
F5
100
AcDbEntity
  8
coponent footprints
 62
256
370
-1
 48
1.0
  6
BYLAYER
100
AcDbCircle
 10
-100.413232439064501
 20
-9.4130544974822783
 30
0.0
 40
0.875
  0
CIRCLE
  5
F6
100
AcDbEntity
  8
coponent footprints
 62
256
370
-1
 48
1.0
  6
BYLAYER
100
AcDbCircle
 10
-100.4132324390644726
 20
-28.7569314539057643
 30
0.0
 40
0.875
  0
CIRCLE
  5
F7
100
AcDbEntity
  8
coponent footprints
 62
256
370
-1
 48
1.0
  6
BYLAYER
100
AcDbCircle
 10
-81.652644744181913
 20
-25.4489336693507227
 30
0.0
 40
0.875
  0
CIRCLE
  5
F8
100
AcDbEntity
  8
coponent footprints
 62
256
370
-1
 48
1.0
  6
BYLAYER
100
AcDbCircle
 10
-62.8920570492993605
 20
-22.140935884795681
 30
0.0
 40
0.875
  0
CIRCLE
  5
F9
100
AcDbEntity
  8
coponent footprints
 62
256
370
-1
 48
1.0
  6
BYLAYER
100
AcDbCircle
 10
-48.8939693544168108
 20
-39.0165723022881679
 30
0.0
 40
0.875
  0
LINE
  5
FA
100
AcDbEntity
  8
edge cuts plate
 62
256
370
-1
 48
1.0
  6
BYLAYER
100
AcDbLine
 10
-35.0749999999999886
 20
7.0000000000000568
 30
0.0
 11
-22.0749999999999886
 21
7.0000000000000568
 31
0.0
  0
LINE
  5
FB
100
AcDbEntity
  8
edge cuts plate
 62
256
370
-1
 48
1.0
  6
BYLAYER
100
AcDbLine
 10
-35.0749999999999886
 20
-12.0499999999999545
 30
0.0
 11
-22.0749999999999886
 21
-12.0499999999999545
 31
0.0
  0
LINE
  5
FC
100
AcDbEntity
  8
edge cuts plate
 62
256
370
-1
 48
1.0
  6
BYLAYER
100
AcDbLine
 10
-39.8375000000000057
 20
-31.1000000000000227
 30
0.0
 11
-26.8375000000000057
 21
-31.1000000000000227
 31
0.0
  0
LINE
  5
FD
100
AcDbEntity
  8
edge cuts plate
 62
256
370
-1
 48
1.0
  6
BYLAYER
100
AcDbLine
 10
-56.7510803779666659
 20
-13.9501297265382505
 30
0.0
 11
-43.9485795888079593
 21
-11.6927034168681594
 31
0.0
  0
LINE
  5
FE
100
AcDbEntity
  8
edge cuts plate
 62
256
370
-1
 48
1.0
  6
BYLAYER
100
AcDbLine
 10
-56.7510803779666446
 20
5.3937472298851947
 30
0.0
 11
-43.948579588807938
 21
7.6511735395552867
 31
0.0
  0
LINE
  5
FF
100
AcDbEntity
  8
edge cuts plate
 62
256
370
-1
 48
1.0
  6
BYLAYER
100
AcDbLine
 10
-75.5116680728492184
 20
2.0857494453301646
 30
0.0
 11
-62.709167283690519
 21
4.3431757550002565
 31
0.0
  0
LINE
  5
100
100
AcDbEntity
  8
edge cuts plate
 62
256
370
-1
 48
1.0
  6
BYLAYER
100
AcDbLine
 10
-94.2722557677317781
 20
-1.2222483392248629
 30
0.0
 11
-81.4697549785730786
 21
1.0351779704452291
 31
0.0
  0
LINE
  5
101
100
AcDbEntity
  8
edge cuts plate
 62
256
370
-1
 48
1.0
  6
BYLAYER
100
AcDbLine
 10
-113.0328434626143661
 20
-4.5302461237798761
 30
0.0
 11
-100.2303426734556666
 21
-2.2728198141097842
 31
0.0
  0
LINE
  5
102
100
AcDbEntity
  8
edge cuts plate
 62
256
370
-1
 48
1.0
  6
BYLAYER
100
AcDbLine
 10
-113.0328434626143377
 20
-23.8741230802033471
 30
0.0
 11
-100.2303426734556382
 21
-21.616696770533256
 31
0.0
  0
LINE
  5
103
100
AcDbEntity
  8
edge cuts plate
 62
256
370
-1
 48
1.0
  6
BYLAYER
100
AcDbLine
 10
-94.2722557677317781
 20
-20.5661252956483054
 30
0.0
 11
-81.4697549785730786
 21
-18.3086989859782143
 31
0.0
  0
LINE
  5
104
100
AcDbEntity
  8
edge cuts plate
 62
256
370
-1
 48
1.0
  6
BYLAYER
100
AcDbLine
 10
-75.5116680728492184
 20
-17.2581275110932779
 30
0.0
 11
-62.709167283690519
 21
-15.0007012014231869
 31
0.0
  0
LINE
  5
105
100
AcDbEntity
  8
edge cuts plate
 62
256
370
-1
 48
1.0
  6
BYLAYER
100
AcDbLine
 10
-61.513580377966683
 20
-34.1337639285857506
 30
0.0
 11
-48.7110795888079764
 21
-31.8763376189156595
 31
0.0
  0
LINE
  5
106
100
AcDbEntity
  8
edge cuts plate
 62
256
370
-1
 48
1.0
  6
BYLAYER
100
AcDbLine
 10
-80.2741680728492355
 20
-37.4417617131407781
 30
0.0
 11
-67.471667283690536
 21
-35.1843354034706834
 31
0.0
  0
LINE
  5
107
100
AcDbEntity
  8
edge cuts plate
 62
256
370
-1
 48
1.0
  6
BYLAYER
100
AcDbLine
 10
-99.0347557677317951
 20
-40.7497594976958339
 30
0.0
 11
-86.2322549785730956
 21
-38.4923331880257393
 31
0.0
  0
LINE
  5
108
100
AcDbEntity
  8
edge cuts plate
 62
256
370
-1
 48
1.0
  6
BYLAYER
100
AcDbLine
 10
-117.7953434626143263
 20
-44.0577572822508614
 30
0.0
 11
-104.9928426734556268
 21
-41.8003309725807668
 31
0.0
  0
LINE
  5
109
100
AcDbEntity
  8
edge cuts plate
 62
256
370
-1
 48
1.0
  6
BYLAYER
100
AcDbLine
 10
-62.8957295171322741
 20
-53.7213510696070884
 30
0.0
 11
-50.0932287279735675
 21
-51.4639247599370009
 31
0.0
  0
LINE
  5
10A
100
AcDbEntity
  8
edge cuts plate
 62
256
370
-1
 48
1.0
  6
BYLAYER
100
AcDbLine
 10
-75.9747152648789665
 20
-56.0275291372363426
 30
0.0
 11
-68.8538164228561556
 21
-54.7719225444920568
 31
0.0
  0
LINE
  5
10B
100
AcDbEntity
  8
edge cuts plate
 62
256
370
-1
 48
1.0
  6
BYLAYER
100
AcDbLine
 10
5.40625
 20
-50.1499999999999986
 30
0.0
 11
18.40625
 21
-50.1499999999999986
 31
0.0
  0
LINE
  5
10C
100
AcDbEntity
  8
edge cuts plate
 62
256
370
-1
 48
1.0
  6
BYLAYER
100
AcDbLine
 10
-16.0249999999999986
 20
-50.1499999999999915
 30
0.0
 11
-3.0250000000000004
 21
-50.1499999999999915
 31
0.0
  0
LINE
  5
10D
100
AcDbEntity
  8
edge cuts plate
 62
256
370
-1
 48
1.0
  6
BYLAYER
100
AcDbLine
 10
-35.0750000000000028
 20
-50.149999999999892
 30
0.0
 11
-22.0749999999999993
 21
-50.149999999999892
 31
0.0
  0
LINE
  5
10E
100
AcDbEntity
  8
edge cuts plate
 62
256
370
-1
 48
1.0
  6
BYLAYER
100
AcDbLine
 10
-107.4521256382478498
 20
-61.577845883749589
 30
0.0
 11
-107.3664471973556545
 21
-61.5627384629552594
 31
0.0
  0
CIRCLE
  5
10F
100
AcDbEntity
  8
coponent footprints
 62
256
370
-1
 48
1.0
  6
BYLAYER
100
AcDbCircle
 10
-67.6545570492993704
 20
-42.3245700868431811
 30
0.0
 40
0.875
  0
CIRCLE
  5
110
100
AcDbEntity
  8
coponent footprints
 62
256
370
-1
 48
1.0
  6
BYLAYER
100
AcDbCircle
 10
-86.41514474418193
 20
-45.632567871398237
 30
0.0
 40
0.875
  0
CIRCLE
  5
111
100
AcDbEntity
  8
coponent footprints
 62
256
370
-1
 48
1.0
  6
BYLAYER
100
AcDbCircle
 10
-105.1757324390644612
 20
-48.9405656559532645
 30
0.0
 40
0.875
  0
CIRCLE
  5
112
100
AcDbEntity
  8
coponent footprints
 62
256
370
-1
 48
1.0
  6
BYLAYER
100
AcDbCircle
 10
-85.4522204214871977
 20
-64.8066552893501466
 30
0.0
 40
0.875
  0
CIRCLE
  5
113
100
AcDbEntity
  8
coponent footprints
 62
256
370
-1
 48
1.0
  6
BYLAYER
100
AcDbCircle
 10
-74.0395295737669983
 20
-62.7942899704125281
 30
0.0
 40
0.875
  0
CIRCLE
  5
114
100
AcDbEntity
  8
coponent footprints
 62
256
370
-1
 48
1.0
  6
BYLAYER
100
AcDbCircle
 10
-50.2761184935824019
 20
-58.6041594433094986
 30
0.0
 40
0.875
  0
CIRCLE
  5
115
100
AcDbEntity
  8
coponent footprints
 62
256
370
-1
 48
1.0
  6
BYLAYER
100
AcDbCircle
 10
-120.6283223493920218
 20
-71.0091511353908231
 30
0.0
 40
0.875
  0
CIRCLE
  5
116
100
AcDbEntity
  8
coponent footprints
 62
256
370
-1
 48
1.0
  6
BYLAYER
100
AcDbCircle
 10
-123.9363201339470493
 20
-52.2485634405081782
 30
0.0
 40
0.875
  0
CIRCLE
  5
117
100
AcDbEntity
  8
coponent footprints
 62
256
370
-1
 48
1.0
  6
BYLAYER
100
AcDbCircle
 10
-8.5724999999999909
 20
2.5400000000000063
 30
0.0
 40
1.125
  0
CIRCLE
  5
118
100
AcDbEntity
  8
coponent footprints
 62
256
370
-1
 48
1.0
  6
BYLAYER
100
AcDbCircle
 10
-1.428750000000008
 20
-16.5100000000000051
 30
0.0
 40
1.125
  0
CIRCLE
  5
119
100
AcDbEntity
  8
coponent footprints
 62
256
370
-1
 48
1.0
  6
BYLAYER
100
AcDbCircle
 10
-6.1912499999999966
 20
-35.559999999999917
 30
0.0
 40
1.125
  0
CIRCLE
  5
11A
100
AcDbEntity
  8
coponent footprints
 62
256
370
-1
 48
1.0
  6
BYLAYER
100
AcDbCircle
 10
-78.2327134840175233
 20
-60.9544778346725238
 30
0.0
 40
1.125
  0
CIRCLE
  5
11B
100
AcDbEntity
  8
coponent footprints
 62
256
370
-1
 48
1.0
  6
BYLAYER
100
AcDbCircle
 10
-3.8100000000000023
 20
-54.6099999999999
 30
0.0
 40
1.125
  0
CIRCLE
  5
11C
100
AcDbEntity
  8
coponent footprints
 62
256
370
-1
 48
1.0
  6
BYLAYER
100
AcDbCircle
 10
-30.0037499999999966
 20
-54.6099999999999
 30
0.0
 40
1.125
  0
CIRCLE
  5
11D
100
AcDbEntity
  8
coponent footprints
 62
256
370
-1
 48
1.0
  6
BYLAYER
100
AcDbCircle
 10
-37.147500000000008
 20
-35.5600000000000307
 30
0.0
 40
1.125
  0
LINE
  5
11E
100
AcDbEntity
  8
edge cuts plate
 62
256
370
-1
 48
1.0
  6
BYLAYER
100
AcDbLine
 10
-123.7534303683382149
 20
-45.1083287571356877
 30
0.0
 11
-136.5559311574969001
 21
-47.3657550668057965
 31
0.0
  0
CIRCLE
  5
11F
100
AcDbEntity
  8
coponent footprints
 62
256
370
-1
 48
1.0
  6
BYLAYER
100
AcDbCircle
 10
-32.3849999999999909
 20
-16.5099999999999625
 30
0.0
 40
1.125
  0
CIRCLE
  5
120
100
AcDbEntity
  8
coponent footprints
 62
256
370
-1
 48
1.0
  6
BYLAYER
100
AcDbCircle
 10
-32.3849999999999909
 20
2.5400000000000489
 30
0.0
 40
1.125
  0
CIRCLE
  5
121
100
AcDbEntity
  8
coponent footprints
 62
256
370
-1
 48
1.0
  6
BYLAYER
100
AcDbCircle
 10
-53.3274766499693271
 20
1.4686182493747708
 30
0.0
 40
1.125
  0
CIRCLE
  5
122
100
AcDbEntity
  8
coponent footprints
 62
256
370
-1
 48
1.0
  6
BYLAYER
100
AcDbCircle
 10
-53.3274766499692987
 20
-17.8752587070486726
 30
0.0
 40
1.125
  0
CIRCLE
  5
123
100
AcDbEntity
  8
coponent footprints
 62
256
370
-1
 48
1.0
  6
BYLAYER
100
AcDbCircle
 10
-72.0880643448518867
 20
-1.8393795351802567
 30
0.0
 40
1.125
  0
CIRCLE
  5
124
100
AcDbEntity
  8
coponent footprints
 62
256
370
-1
 48
1.0
  6
BYLAYER
100
AcDbCircle
 10
-90.8486520397344464
 20
-5.1473773197352699
 30
0.0
 40
1.125
  0
LINE
  5
125
100
AcDbEntity
  8
edge cuts plate
 62
256
370
-1
 48
1.0
  6
BYLAYER
100
AcDbLine
 10
-35.0749999999999886
 20
-6.9999999999999432
 30
0.0
 11
-22.0749999999999886
 21
-6.9999999999999432
 31
0.0
  0
LINE
  5
126
100
AcDbEntity
  8
edge cuts plate
 62
256
370
-1
 48
1.0
  6
BYLAYER
100
AcDbLine
 10
-35.0749999999999886
 20
-26.0499999999999545
 30
0.0
 11
-22.0749999999999886
 21
-26.0499999999999545
 31
0.0
  0
LINE
  5
127
100
AcDbEntity
  8
edge cuts plate
 62
256
370
-1
 48
1.0
  6
BYLAYER
100
AcDbLine
 10
-39.8375000000000057
 20
-45.1000000000000227
 30
0.0
 11
-26.8375000000000057
 21
-45.1000000000000227
 31
0.0
  0
LINE
  5
128
100
AcDbEntity
  8
edge cuts plate
 62
256
370
-1
 48
1.0
  6
BYLAYER
100
AcDbLine
 10
-54.3200058906296448
 20
-27.7374382687091625
 30
0.0
 11
-41.5175051014709382
 21
-25.480011959039075
 31
0.0
  0
LINE
  5
129
100
AcDbEntity
  8
edge cuts plate
 62
256
370
-1
 48
1.0
  6
BYLAYER
100
AcDbLine
 10
-54.3200058906296235
 20
-8.3935613122857191
 30
0.0
 11
-41.5175051014709169
 21
-6.1361350026156298
 31
0.0
  0
LINE
  5
12A
100
AcDbEntity
  8
edge cuts plate
 62
256
370
-1
 48
1.0
  6
BYLAYER
100
AcDbLine
 10
-73.0805935855122044
 20
-11.7015590968407484
 30
0.0
 11
-60.2780927963534978
 21
-9.4441327871706591
 31
0.0
  0
LINE
  5
12B
100
AcDbEntity
  8
edge cuts plate
 62
256
370
-1
 48
1.0
  6
BYLAYER
100
AcDbLine
 10
-91.841181280394764
 20
-15.0095568813957758
 30
0.0
 11
-79.0386804912360645
 21
-12.7521305717256865
 31
0.0
  0
LINE
  5
12C
100
AcDbEntity
  8
edge cuts plate
 62
256
370
-1
 48
1.0
  6
BYLAYER
100
AcDbLine
 10
-110.6017689752773521
 20
-18.3175546659507873
 30
0.0
 11
-97.7992681861186526
 21
-16.0601283562806998
 31
0.0
  0
LINE
  5
12D
100
AcDbEntity
  8
edge cuts plate
 62
256
370
-1
 48
1.0
  6
BYLAYER
100
AcDbLine
 10
-110.6017689752773236
 20
-37.6614316223742591
 30
0.0
 11
-97.7992681861186242
 21
-35.4040053127041716
 31
0.0
  0
LINE
  5
12E
100
AcDbEntity
  8
edge cuts plate
 62
256
370
-1
 48
1.0
  6
BYLAYER
100
AcDbLine
 10
-91.841181280394764
 20
-34.3534338378192174
 30
0.0
 11
-79.0386804912360645
 21
-32.0960075281491299
 31
0.0
  0
LINE
  5
12F
100
AcDbEntity
  8
edge cuts plate
 62
256
370
-1
 48
1.0
  6
BYLAYER
100
AcDbLine
 10
-73.0805935855122044
 20
-31.04543605326419
 30
0.0
 11
-60.2780927963534978
 21
-28.7880097435941025
 31
0.0
  0
LINE
  5
130
100
AcDbEntity
  8
edge cuts plate
 62
256
370
-1
 48
1.0
  6
BYLAYER
100
AcDbLine
 10
-59.0825058906296618
 20
-47.9210724707566627
 30
0.0
 11
-46.2800051014709553
 21
-45.6636461610865751
 31
0.0
  0
LINE
  5
131
100
AcDbEntity
  8
edge cuts plate
 62
256
370
-1
 48
1.0
  6
BYLAYER
100
AcDbLine
 10
-77.8430935855122215
 20
-51.2290702553116901
 30
0.0
 11
-65.040592796353522
 21
-48.9716439456416026
 31
0.0
  0
LINE
  5
132
100
AcDbEntity
  8
edge cuts plate
 62
256
370
-1
 48
1.0
  6
BYLAYER
100
AcDbLine
 10
-96.6036812803947811
 20
-54.537068039866746
 30
0.0
 11
-83.8011804912360816
 21
-52.2796417301966585
 31
0.0
  0
LINE
  5
133
100
AcDbEntity
  8
edge cuts plate
 62
256
370
-1
 48
1.0
  6
BYLAYER
100
AcDbLine
 10
-115.3642689752773123
 20
-57.8450658244217735
 30
0.0
 11
-102.5617681861186128
 21
-55.587639514751686
 31
0.0
  0
LINE
  5
134
100
AcDbEntity
  8
edge cuts plate
 62
256
370
-1
 48
1.0
  6
BYLAYER
100
AcDbLine
 10
-60.464655029795253
 20
-67.5086596117780005
 30
0.0
 11
-47.6621542406365464
 21
-65.2512333021079201
 31
0.0
  0
LINE
  5
135
100
AcDbEntity
  8
edge cuts plate
 62
256
370
-1
 48
1.0
  6
BYLAYER
100
AcDbLine
 10
5.40625
 20
-64.1500000000000057
 30
0.0
 11
18.40625
 21
-64.1500000000000057
 31
0.0
  0
LINE
  5
136
100
AcDbEntity
  8
edge cuts plate
 62
256
370
-1
 48
1.0
  6
BYLAYER
100
AcDbLine
 10
-16.0249999999999986
 20
-64.1500000000000057
 30
0.0
 11
-3.0250000000000004
 21
-64.1500000000000057
 31
0.0
  0
LINE
  5
137
100
AcDbEntity
  8
edge cuts plate
 62
256
370
-1
 48
1.0
  6
BYLAYER
100
AcDbLine
 10
-35.0750000000000028
 20
-64.149999999999892
 30
0.0
 11
-22.0749999999999993
 21
-64.149999999999892
 31
0.0
  0
LINE
  5
138
100
AcDbEntity
  8
edge cuts plate
 62
256
370
-1
 48
1.0
  6
BYLAYER
100
AcDbLine
 10
-20.7875000000000014
 20
-45.1000000000000227
 30
0.0
 11
-13.5567500000000152
 21
-45.1000000000000227
 31
0.0
  0
LINE
  5
139
100
AcDbEntity
  8
edge cuts plate
 62
256
370
-1
 48
1.0
  6
BYLAYER
100
AcDbLine
 10
18.319250000000018
 20
-45.1000000000000227
 30
0.0
 11
18.40625
 21
-45.1000000000000227
 31
0.0
  0
CIRCLE
  5
13A
100
AcDbEntity
  8
coponent footprints
 62
256
370
-1
 48
1.0
  6
BYLAYER
100
AcDbCircle
 10
-109.6092397346170344
 20
-8.4553751042902832
 30
0.0
 40
1.125
  0
CIRCLE
  5
13B
100
AcDbEntity
  8
coponent footprints
 62
256
370
-1
 48
1.0
  6
BYLAYER
100
AcDbCircle
 10
-109.609239734617006
 20
-27.7992520607137692
 30
0.0
 40
1.125
  0
CIRCLE
  5
13C
100
AcDbEntity
  8
coponent footprints
 62
256
370
-1
 48
1.0
  6
BYLAYER
100
AcDbCircle
 10
-90.8486520397344464
 20
-24.4912542761587275
 30
0.0
 40
1.125
  0
CIRCLE
  5
13D
100
AcDbEntity
  8
coponent footprints
 62
256
370
-1
 48
1.0
  6
BYLAYER
100
AcDbCircle
 10
-72.0880643448518867
 20
-21.1832564916036858
 30
0.0
 40
1.125
  0
CIRCLE
  5
13E
100
AcDbEntity
  8
coponent footprints
 62
256
370
-1
 48
1.0
  6
BYLAYER
100
AcDbCircle
 10
-58.0899766499693158
 20
-38.0588929090961727
 30
0.0
 40
1.125
  0
CIRCLE
  5
13F
100
AcDbEntity
  8
coponent footprints
 62
256
370
-1
 48
1.0
  6
BYLAYER
100
AcDbCircle
 10
-76.8505643448519038
 20
-41.366890693651186
 30
0.0
 40
1.125
  0
CIRCLE
  5
140
100
AcDbEntity
  8
coponent footprints
 62
256
370
-1
 48
1.0
  6
BYLAYER
100
AcDbCircle
 10
-95.6111520397344634
 20
-44.6748884782062419
 30
0.0
 40
1.125
  0
CIRCLE
  5
141
100
AcDbEntity
  8
coponent footprints
 62
256
370
-1
 48
1.0
  6
BYLAYER
100
AcDbCircle
 10
-114.3717397346169946
 20
-47.9828862627612693
 30
0.0
 40
1.125
  0
CIRCLE
  5
142
100
AcDbEntity
  8
coponent footprints
 62
256
370
-1
 48
1.0
  6
BYLAYER
100
AcDbCircle
 10
-94.648227717039731
 20
-63.8489758961581444
 30
0.0
 40
1.125
  0
CIRCLE
  5
143
100
AcDbEntity
  8
coponent footprints
 62
256
370
-1
 48
1.0
  6
BYLAYER
100
AcDbCircle
 10
-59.4721257891349069
 20
-57.6464800501175034
 30
0.0
 40
1.125
  0
CIRCLE
  5
144
100
AcDbEntity
  8
coponent footprints
 62
256
370
-1
 48
1.0
  6
BYLAYER
100
AcDbCircle
 10
-129.8243296449445552
 20
-70.051471742198828
 30
0.0
 40
1.125
  0
CIRCLE
  5
145
100
AcDbEntity
  8
coponent footprints
 62
256
370
-1
 48
1.0
  6
BYLAYER
100
AcDbCircle
 10
-129.1249569999999949
 20
-66.7041739999999379
 30
0.0
 40
1.125
  0
CIRCLE
  5
146
100
AcDbEntity
  8
coponent footprints
 62
256
370
-1
 48
1.0
  6
BYLAYER
100
AcDbCircle
 10
-132.7290350000000103
 20
-60.8917109999999511
 30
0.0
 40
1.125
  0
CIRCLE
  5
147
100
AcDbEntity
  8
coponent footprints
 62
256
370
-1
 48
1.0
  6
BYLAYER
100
AcDbCircle
 10
-133.1323274294995826
 20
-51.2908840473161831
 30
0.0
 40
1.125
  0
CIRCLE
  5
148
100
AcDbEntity
  8
coponent footprints
 62
256
370
-1
 48
1.0
  6
BYLAYER
100
AcDbCircle
 10
-2.2224999999999966
 20
5.0800000000000125
 30
0.0
 40
1.125
  0
LINE
  5
149
100
AcDbEntity
  8
edge cuts plate
 62
256
370
-1
 48
1.0
  6
BYLAYER
100
AcDbLine
 10
-118.0143580964461734
 20
-77.6562249941891878
 30
0.0
 11
-130.8168588856049155
 21
-79.9136513038592966
 31
0.0
  0
CIRCLE
  5
14A
100
AcDbEntity
  8
coponent footprints
 62
256
370
-1
 48
1.0
  6
BYLAYER
100
AcDbCircle
 10
4.9212499999999864
 20
-13.9700000000000006
 30
0.0
 40
1.125
  0
CIRCLE
  5
14B
100
AcDbEntity
  8
coponent footprints
 62
256
370
-1
 48
1.0
  6
BYLAYER
100
AcDbCircle
 10
0.1587499999999977
 20
-33.019999999999925
 30
0.0
 40
1.125
  0
CIRCLE
  5
14C
100
AcDbEntity
  8
coponent footprints
 62
256
370
-1
 48
1.0
  6
BYLAYER
100
AcDbCircle
 10
-72.4202506236640033
 20
-57.3504002138365365
 30
0.0
 40
1.125
  0
CIRCLE
  5
14D
100
AcDbEntity
  8
coponent footprints
 62
256
370
-1
 48
1.0
  6
BYLAYER
100
AcDbCircle
 10
2.539999999999992
 20
-52.0699999999999079
 30
0.0
 40
1.125
  0
CIRCLE
  5
14E
100
AcDbEntity
  8
coponent footprints
 62
256
370
-1
 48
1.0
  6
BYLAYER
100
AcDbCircle
 10
-23.6537500000000023
 20
-52.0699999999999079
 30
0.0
 40
1.125
  0
CIRCLE
  5
14F
100
AcDbEntity
  8
coponent footprints
 62
256
370
-1
 48
1.0
  6
BYLAYER
100
AcDbCircle
 10
-30.7975000000000136
 20
-33.0200000000000244
 30
0.0
 40
1.125
  0
LINE
  5
150
100
AcDbEntity
  8
edge cuts plate
 62
256
370
-1
 48
1.0
  6
BYLAYER
100
AcDbLine
 10
-35.5749999999999886
 20
-6.4999999999999432
 30
0.0
 11
-35.5749999999999886
 21
6.5000000000000568
 31
0.0
  0
LINE
  5
151
100
AcDbEntity
  8
edge cuts plate
 62
256
370
-1
 48
1.0
  6
BYLAYER
100
AcDbLine
 10
-35.5749999999999886
 20
-25.5499999999999545
 30
0.0
 11
-35.5749999999999886
 21
-12.5499999999999545
 31
0.0
  0
LINE
  5
152
100
AcDbEntity
  8
edge cuts plate
 62
256
370
-1
 48
1.0
  6
BYLAYER
100
AcDbLine
 10
-40.3375000000000057
 20
-44.6000000000000227
 30
0.0
 11
-40.3375000000000057
 21
-31.6000000000000227
 31
0.0
  0
LINE
  5
153
100
AcDbEntity
  8
edge cuts plate
 62
256
370
-1
 48
1.0
  6
BYLAYER
100
AcDbLine
 10
-54.8992338559692143
 20
-27.3318584810365266
 30
0.0
 11
-57.1566601656393019
 21
-14.52935769187782
 31
0.0
  0
LINE
  5
154
100
AcDbEntity
  8
edge cuts plate
 62
256
370
-1
 48
1.0
  6
BYLAYER
100
AcDbLine
 10
-54.899233855969193
 20
-7.9879815246130796
 30
0.0
 11
-57.1566601656392805
 21
4.8145192645456252
 31
0.0
  0
LINE
  5
155
100
AcDbEntity
  8
edge cuts plate
 62
256
370
-1
 48
1.0
  6
BYLAYER
100
AcDbLine
 10
-73.659821550851774
 20
-11.2959793091681107
 30
0.0
 11
-75.9172478605218686
 21
1.506521479990595
 31
0.0
  0
LINE
  5
156
100
AcDbEntity
  8
edge cuts plate
 62
256
370
-1
 48
1.0
  6
BYLAYER
100
AcDbLine
 10
-92.4204092457343336
 20
-14.6039770937231381
 30
0.0
 11
-94.6778355554044282
 21
-1.8014763045644324
 31
0.0
  0
LINE
  5
157
100
AcDbEntity
  8
edge cuts plate
 62
256
370
-1
 48
1.0
  6
BYLAYER
100
AcDbLine
 10
-111.1809969406169216
 20
-17.9119748782781514
 30
0.0
 11
-113.4384232502870162
 21
-5.1094740891194457
 31
0.0
  0
LINE
  5
158
100
AcDbEntity
  8
edge cuts plate
 62
256
370
-1
 48
1.0
  6
BYLAYER
100
AcDbLine
 10
-111.1809969406168932
 20
-37.2558518347016232
 30
0.0
 11
-113.4384232502869878
 21
-24.4533510455429166
 31
0.0
  0
LINE
  5
159
100
AcDbEntity
  8
edge cuts plate
 62
256
370
-1
 48
1.0
  6
BYLAYER
100
AcDbLine
 10
-92.4204092457343336
 20
-33.9478540501465815
 30
0.0
 11
-94.6778355554044282
 21
-21.1453532609878749
 31
0.0
  0
LINE
  5
15A
100
AcDbEntity
  8
edge cuts plate
 62
256
370
-1
 48
1.0
  6
BYLAYER
100
AcDbLine
 10
-73.659821550851774
 20
-30.6398562655915541
 30
0.0
 11
-75.9172478605218686
 21
-17.8373554764328475
 31
0.0
  0
LINE
  5
15B
100
AcDbEntity
  8
edge cuts plate
 62
256
370
-1
 48
1.0
  6
BYLAYER
100
AcDbLine
 10
-59.6617338559692314
 20
-47.5154926830840267
 30
0.0
 11
-61.9191601656393189
 21
-34.7129918939253201
 31
0.0
  0
LINE
  5
15C
100
AcDbEntity
  8
edge cuts plate
 62
256
370
-1
 48
1.0
  6
BYLAYER
100
AcDbLine
 10
-78.422321550851791
 20
-50.8234904676390542
 30
0.0
 11
-80.6797478605218856
 21
-38.0209896784803476
 31
0.0
  0
LINE
  5
15D
100
AcDbEntity
  8
edge cuts plate
 62
256
370
-1
 48
1.0
  6
BYLAYER
100
AcDbLine
 10
-97.1829092457343506
 20
-54.1314882521941101
 30
0.0
 11
-99.4403355554044452
 21
-41.3289874630354035
 31
0.0
  0
LINE
  5
15E
100
AcDbEntity
  8
edge cuts plate
 62
256
370
-1
 48
1.0
  6
BYLAYER
100
AcDbLine
 10
-115.9434969406168818
 20
-57.4394860367491376
 30
0.0
 11
-118.2009232502869764
 21
-44.636985247590431
 31
0.0
  0
LINE
  5
15F
100
AcDbEntity
  8
edge cuts plate
 62
256
370
-1
 48
1.0
  6
BYLAYER
100
AcDbLine
 10
-61.0438829951348225
 20
-67.1030798241053645
 30
0.0
 11
-63.30130930480491
 21
-54.3005790349466579
 31
0.0
  0
LINE
  5
160
100
AcDbEntity
  8
edge cuts plate
 62
256
370
-1
 48
1.0
  6
BYLAYER
100
AcDbLine
 10
4.90625
 20
-63.6499999999999986
 30
0.0
 11
4.90625
 21
-50.6499999999999986
 31
0.0
  0
LINE
  5
161
100
AcDbEntity
  8
edge cuts plate
 62
256
370
-1
 48
1.0
  6
BYLAYER
100
AcDbLine
 10
-16.5249999999999986
 20
-63.6499999999999915
 30
0.0
 11
-16.5249999999999986
 21
-50.6499999999999915
 31
0.0
  0
LINE
  5
162
100
AcDbEntity
  8
edge cuts plate
 62
256
370
-1
 48
1.0
  6
BYLAYER
100
AcDbLine
 10
-35.5750000000000028
 20
-63.649999999999892
 30
0.0
 11
-35.5750000000000028
 21
-50.649999999999892
 31
0.0
  0
LINE
  5
163
100
AcDbEntity
  8
edge cuts plate
 62
256
370
-1
 48
1.0
  6
BYLAYER
100
AcDbLine
 10
-21.2875000000000014
 20
-44.6000000000000227
 30
0.0
 11
-21.2875000000000014
 21
-31.6000000000000227
 31
0.0
  0
LINE
  5
164
100
AcDbEntity
  8
edge cuts plate
 62
256
370
-1
 48
1.0
  6
BYLAYER
100
AcDbLine
 10
-105.6002791162504053
 20
-74.959574638247858
 30
0.0
 11
-107.8577054259204999
 21
-62.1570738490891586
 31
0.0
  0
CIRCLE
  5
165
100
AcDbEntity
  8
coponent footprints
 62
256
370
-1
 48
1.0
  6
BYLAYER
100
AcDbCircle
 10
-26.0349999999999966
 20
-13.969999999999958
 30
0.0
 40
1.125
  0
CIRCLE
  5
166
100
AcDbEntity
  8
coponent footprints
 62
256
370
-1
 48
1.0
  6
BYLAYER
100
AcDbCircle
 10
-26.0349999999999966
 20
5.0800000000000409
 30
0.0
 40
1.125
  0
CIRCLE
  5
167
100
AcDbEntity
  8
coponent footprints
 62
256
370
-1
 48
1.0
  6
BYLAYER
100
AcDbCircle
 10
-47.5150137896158071
 20
5.0726958702107936
 30
0.0
 40
1.125
  0
CIRCLE
  5
168
100
AcDbEntity
  8
coponent footprints
 62
256
370
-1
 48
1.0
  6
BYLAYER
100
AcDbCircle
 10
-47.5150137896158071
 20
-14.2711810862126516
 30
0.0
 40
1.125
  0
CIRCLE
  5
169
100
AcDbEntity
  8
coponent footprints
 62
256
370
-1
 48
1.0
  6
BYLAYER
100
AcDbCircle
 10
-66.2756014844983667
 20
1.7646980856557661
 30
0.0
 40
1.125
  0
CIRCLE
  5
16A
100
AcDbEntity
  8
coponent footprints
 62
256
370
-1
 48
1.0
  6
BYLAYER
100
AcDbCircle
 10
-85.0361891793809264
 20
-1.5432996988992613
 30
0.0
 40
1.125
  0
CIRCLE
  5
16B
100
AcDbEntity
  8
coponent footprints
 62
256
370
-1
 48
1.0
  6
BYLAYER
100
AcDbCircle
 10
-103.7967768742635144
 20
-4.8512974834542604
 30
0.0
 40
1.125
  0
CIRCLE
  5
16C
100
AcDbEntity
  8
coponent footprints
 62
256
370
-1
 48
1.0
  6
BYLAYER
100
AcDbCircle
 10
-103.796776874263486
 20
-24.1951744398777464
 30
0.0
 40
1.125
  0
CIRCLE
  5
16D
100
AcDbEntity
  8
coponent footprints
 62
256
370
-1
 48
1.0
  6
BYLAYER
100
AcDbCircle
 10
-66.2756014844983667
 20
-17.5791788707676631
 30
0.0
 40
1.125
  0
CIRCLE
  5
16E
100
AcDbEntity
  8
coponent footprints
 62
256
370
-1
 48
1.0
  6
BYLAYER
100
AcDbCircle
 10
-52.2775137896158242
 20
-34.4548152882601499
 30
0.0
 40
1.125
  0
CIRCLE
  5
16F
100
AcDbEntity
  8
coponent footprints
 62
256
370
-1
 48
1.0
  6
BYLAYER
100
AcDbCircle
 10
-71.0381014844983838
 20
-37.7628130728151632
 30
0.0
 40
1.125
  0
CIRCLE
  5
170
100
AcDbEntity
  8
coponent footprints
 62
256
370
-1
 48
1.0
  6
BYLAYER
100
AcDbCircle
 10
-89.7986891793809434
 20
-41.0708108573702191
 30
0.0
 40
1.125
  0
CIRCLE
  5
171
100
AcDbEntity
  8
coponent footprints
 62
256
370
-1
 48
1.0
  6
BYLAYER
100
AcDbCircle
 10
-108.5592768742634746
 20
-44.3788086419252465
 30
0.0
 40
1.125
  0
CIRCLE
  5
172
100
AcDbEntity
  8
coponent footprints
 62
256
370
-1
 48
1.0
  6
BYLAYER
100
AcDbCircle
 10
-88.835764856686211
 20
-60.2448982753221216
 30
0.0
 40
1.125
  0
LINE
  5
173
100
AcDbEntity
  8
edge cuts plate
 62
256
370
-1
 48
1.0
  6
BYLAYER
100
AcDbLine
 10
-123.1590950115416234
 20
-45.5995868193203862
 30
0.0
 11
-123.1742024029986595
 21
-45.5139085448083378
 31
0.0
  0
CIRCLE
  5
174
100
AcDbEntity
  8
coponent footprints
 62
256
370
-1
 48
1.0
  6
BYLAYER
100
AcDbCircle
 10
-98.2160590000000013
 20
-61.8988969999999412
 30
0.0
 40
1.125
  0
LINE
  5
175
100
AcDbEntity
  8
edge cuts plate
 62
256
370
-1
 48
1.0
  6
BYLAYER
100
AcDbLine
 10
-117.6087783087735232
 20
-77.0769970288496324
 30
0.0
 11
-117.6238857002305593
 21
-76.9913187543375273
 31
0.0
  0
CIRCLE
  5
176
100
AcDbEntity
  8
coponent footprints
 62
256
370
-1
 48
1.0
  6
BYLAYER
100
AcDbCircle
 10
-53.6596629287814153
 20
-54.0424024292814806
 30
0.0
 40
1.125
  0
CIRCLE
  5
177
100
AcDbEntity
  8
coponent footprints
 62
256
370
-1
 48
1.0
  6
BYLAYER
100
AcDbCircle
 10
-124.0118667845910352
 20
-66.4473941213628052
 30
0.0
 40
1.125
  0
CIRCLE
  5
178
100
AcDbEntity
  8
coponent footprints
 62
256
370
-1
 48
1.0
  6
BYLAYER
100
AcDbCircle
 10
-127.3198645691460626
 20
-47.6868064264801603
 30
0.0
 40
1.125
  0
CIRCLE
  5
179
100
AcDbEntity
  8
coponent footprints
 62
256
370
-1
 48
1.0
  6
BYLAYER
100
AcDbCircle
 10
-132.6167010000000062
 20
-46.6711619999999812
 30
0.0
 40
1.0
  0
CIRCLE
  5
17A
100
AcDbEntity
  8
coponent footprints
 62
256
370
-1
 48
1.0
  6
BYLAYER
100
AcDbCircle
 10
-127.6926619999999843
 20
-45.8029209999999409
 30
0.0
 40
1.0
  0
CIRCLE
  5
17B
100
AcDbEntity
  8
coponent footprints
 62
256
370
-1
 48
1.0
  6
BYLAYER
100
AcDbCircle
 10
-130.0988020000000063
 20
-60.9508749999999608
 30
0.0
 40
1.0
  0
CIRCLE
  5
17C
100
AcDbEntity
  8
coponent footprints
 62
256
370
-1
 48
1.0
  6
BYLAYER
100
AcDbCircle
 10
-127.6367830000000083
 20
-60.5167539999999562
 30
0.0
 40
1.0
  0
LINE
  5
17D
100
AcDbEntity
  8
edge cuts plate
 62
256
370
-1
 48
1.0
  6
BYLAYER
100
AcDbLine
 10
-21.5749999999999886
 20
-6.4999999999999432
 30
0.0
 11
-21.5749999999999886
 21
6.5000000000000568
 31
0.0
  0
LINE
  5
17E
100
AcDbEntity
  8
edge cuts plate
 62
256
370
-1
 48
1.0
  6
BYLAYER
100
AcDbLine
 10
-21.5749999999999886
 20
-25.5499999999999545
 30
0.0
 11
-21.5749999999999886
 21
-12.5499999999999545
 31
0.0
  0
LINE
  5
17F
100
AcDbEntity
  8
edge cuts plate
 62
256
370
-1
 48
1.0
  6
BYLAYER
100
AcDbLine
 10
-26.3375000000000057
 20
-44.6000000000000227
 30
0.0
 11
-26.3375000000000057
 21
-31.6000000000000227
 31
0.0
  0
LINE
  5
180
100
AcDbEntity
  8
edge cuts plate
 62
256
370
-1
 48
1.0
  6
BYLAYER
100
AcDbLine
 10
-41.1119253137983023
 20
-24.9007839936995055
 30
0.0
 11
-43.3693516234683898
 21
-12.0982832045407989
 31
0.0
  0
LINE
  5
181
100
AcDbEntity
  8
edge cuts plate
 62
256
370
-1
 48
1.0
  6
BYLAYER
100
AcDbLine
 10
-41.111925313798281
 20
-5.5569070372760594
 30
0.0
 11
-43.3693516234683756
 21
7.2455937518826481
 31
0.0
  0
LINE
  5
182
100
AcDbEntity
  8
edge cuts plate
 62
256
370
-1
 48
1.0
  6
BYLAYER
100
AcDbLine
 10
-59.8725130086808619
 20
-8.8649048218310895
 30
0.0
 11
-62.1299393183509494
 21
3.937595967327618
 31
0.0
  0
LINE
  5
183
100
AcDbEntity
  8
edge cuts plate
 62
256
370
-1
 48
1.0
  6
BYLAYER
100
AcDbLine
 10
-78.6331007035634144
 20
-12.172902606386117
 30
0.0
 11
-80.890527013233509
 21
0.6295981827725905
 31
0.0
  0
LINE
  5
184
100
AcDbEntity
  8
edge cuts plate
 62
256
370
-1
 48
1.0
  6
BYLAYER
100
AcDbLine
 10
-97.3936883984460025
 20
-15.4809003909411302
 30
0.0
 11
-99.6511147081160971
 21
-2.6783996017824228
 31
0.0
  0
LINE
  5
185
100
AcDbEntity
  8
edge cuts plate
 62
256
370
-1
 48
1.0
  6
BYLAYER
100
AcDbLine
 10
-97.393688398445974
 20
-34.8247773473646021
 30
0.0
 11
-99.6511147081160686
 21
-22.0222765582058955
 31
0.0
  0
LINE
  5
186
100
AcDbEntity
  8
edge cuts plate
 62
256
370
-1
 48
1.0
  6
BYLAYER
100
AcDbLine
 10
-78.6331007035634144
 20
-31.5167795628095604
 30
0.0
 11
-80.890527013233509
 21
-18.7142787736508538
 31
0.0
  0
LINE
  5
187
100
AcDbEntity
  8
edge cuts plate
 62
256
370
-1
 48
1.0
  6
BYLAYER
100
AcDbLine
 10
-59.8725130086808619
 20
-28.2087817782545329
 30
0.0
 11
-62.1299393183509494
 21
-15.4062809890958263
 31
0.0
  0
LINE
  5
188
100
AcDbEntity
  8
edge cuts plate
 62
256
370
-1
 48
1.0
  6
BYLAYER
100
AcDbLine
 10
-45.8744253137983193
 20
-45.0844181957470056
 30
0.0
 11
-48.1318516234684068
 21
-32.281917406588299
 31
0.0
  0
LINE
  5
189
100
AcDbEntity
  8
edge cuts plate
 62
256
370
-1
 48
1.0
  6
BYLAYER
100
AcDbLine
 10
-64.6350130086808718
 20
-48.3924159803020331
 30
0.0
 11
-66.8924393183509665
 21
-35.5899151911433265
 31
0.0
  0
LINE
  5
18A
100
AcDbEntity
  8
edge cuts plate
 62
256
370
-1
 48
1.0
  6
BYLAYER
100
AcDbLine
 10
-83.3956007035634315
 20
-51.7004137648570889
 30
0.0
 11
-85.6530270132335261
 21
-38.8979129756983824
 31
0.0
  0
LINE
  5
18B
100
AcDbEntity
  8
edge cuts plate
 62
256
370
-1
 48
1.0
  6
BYLAYER
100
AcDbLine
 10
-102.1561883984459627
 20
-55.0084115494121164
 30
0.0
 11
-104.4136147081160573
 21
-42.2059107602534098
 31
0.0
  0
LINE
  5
18C
100
AcDbEntity
  8
edge cuts plate
 62
256
370
-1
 48
1.0
  6
BYLAYER
100
AcDbLine
 10
-47.2565744529639105
 20
-64.6720053367683363
 30
0.0
 11
-49.514000762633998
 21
-51.8695045476096368
 31
0.0
  0
LINE
  5
18D
100
AcDbEntity
  8
edge cuts plate
 62
256
370
-1
 48
1.0
  6
BYLAYER
100
AcDbLine
 10
-66.0171621478464914
 20
-67.9800031213233922
 30
0.0
 11
-68.274588457516586
 21
-55.1775023321646927
 31
0.0
  0
LINE
  5
18E
100
AcDbEntity
  8
edge cuts plate
 62
256
370
-1
 48
1.0
  6
BYLAYER
100
AcDbLine
 10
18.90625
 20
-63.6499999999999986
 30
0.0
 11
18.90625
 21
-50.6499999999999986
 31
0.0
  0
LINE
  5
18F
100
AcDbEntity
  8
edge cuts plate
 62
256
370
-1
 48
1.0
  6
BYLAYER
100
AcDbLine
 10
-2.5250000000000004
 20
-63.6499999999999915
 30
0.0
 11
-2.5250000000000004
 21
-50.6499999999999915
 31
0.0
  0
LINE
  5
190
100
AcDbEntity
  8
edge cuts plate
 62
256
370
-1
 48
1.0
  6
BYLAYER
100
AcDbLine
 10
-21.5749999999999993
 20
-63.649999999999892
 30
0.0
 11
-21.5749999999999993
 21
-50.649999999999892
 31
0.0
  0
LINE
  5
191
100
AcDbEntity
  8
edge cuts plate
 62
256
370
-1
 48
1.0
  6
BYLAYER
100
AcDbLine
 10
18.90625
 20
-44.6000000000000227
 30
0.0
 11
18.90625
 21
-31.6000000000000227
 31
0.0
  0
CIRCLE
  5
192
100
AcDbEntity
  8
coponent footprints
 62
256
370
-1
 48
1.0
  6
BYLAYER
100
AcDbCircle
 10
-125.1747629999999845
 20
-60.0826340000000059
 30
0.0
 40
1.0
  0
CIRCLE
  5
193
100
AcDbEntity
  8
coponent footprints
 62
256
370
-1
 48
1.0
  6
BYLAYER
100
AcDbCircle
 10
9.5250000000000057
 20
-31.114999999999938
 30
0.0
 40
1.524
  0
CIRCLE
  5
194
100
AcDbEntity
  8
coponent footprints
 62
256
370
-1
 48
1.0
  6
BYLAYER
100
AcDbCircle
 10
-14.2874999999999943
 20
-31.1150000000000375
 30
0.0
 40
1.524
  0
CIRCLE
  5
195
100
AcDbEntity
  8
coponent footprints
 62
256
370
-1
 48
1.0
  6
BYLAYER
100
AcDbCircle
 10
-14.2874999999999943
 20
-46.3549999999999613
 30
0.0
 40
1.9938999999999991
  0
CIRCLE
  5
196
100
AcDbEntity
  8
coponent footprints
 62
256
370
-1
 48
1.0
  6
BYLAYER
100
AcDbCircle
 10
-103.6138770000000022
 20
-59.6266989999999382
 30
0.0
 40
1.9938999999999991
  0
CIRCLE
  5
197
100
AcDbEntity
  8
coponent footprints
 62
256
370
-1
 48
1.0
  6
BYLAYER
100
AcDbCircle
 10
9.5250000000000057
 20
-46.3550000000000182
 30
0.0
 40
1.9938999999999991
  0
CIRCLE
  5
198
100
AcDbEntity
  8
coponent footprints
 62
256
370
-1
 48
1.0
  6
BYLAYER
100
AcDbCircle
 10
10.0
 20
-8.2549999999999528
 30
0.0
 40
1.9938999999999991
  0
CIRCLE
  5
199
100
AcDbEntity
  8
coponent footprints
 62
256
370
-1
 48
1.0
  6
BYLAYER
100
AcDbCircle
 10
-121.2230559999999855
 20
-49.3521570000000054
 30
0.0
 40
1.9938999999999991
  0
CIRCLE
  5
19A
100
AcDbEntity
  8
coponent footprints
 62
256
370
-1
 48
1.0
  6
BYLAYER
100
AcDbCircle
 10
-84.8532889211490726
 20
-56.3187006881521199
 30
0.0
 40
1.9938999999999991
  0
ARC
  5
19B
100
AcDbEntity
  8
edge cuts plate
 62
256
370
-1
 48
1.0
  6
BYLAYER
100
AcDbCircle
 10
-35.0749999999999886
 20
6.5000000000000568
 30
0.0
 40
0.5
100
AcDbArc
 50
90.0
 51
180.0
  0
ARC
  5
19C
100
AcDbEntity
  8
edge cuts plate
 62
256
370
-1
 48
1.0
  6
BYLAYER
100
AcDbCircle
 10
-35.0749999999999886
 20
-12.5499999999999545
 30
0.0
 40
0.5
100
AcDbArc
 50
90.0
 51
180.0
  0
ARC
  5
19D
100
AcDbEntity
  8
edge cuts plate
 62
256
370
-1
 48
1.0
  6
BYLAYER
100
AcDbCircle
 10
-39.8375000000000057
 20
-31.6000000000000227
 30
0.0
 40
0.5
100
AcDbArc
 50
90.0
 51
180.0
  0
ARC
  5
19E
100
AcDbEntity
  8
edge cuts plate
 62
256
370
-1
 48
1.0
  6
BYLAYER
100
AcDbCircle
 10
-56.6642562891331991
 20
-14.442533603044355
 30
0.0
 40
0.5
100
AcDbArc
 50
100.0
 51
190.0
  0
ARC
  5
19F
100
AcDbEntity
  8
edge cuts plate
 62
256
370
-1
 48
1.0
  6
BYLAYER
100
AcDbCircle
 10
-56.6642562891331778
 20
4.9013433533790911
 30
0.0
 40
0.5
100
AcDbArc
 50
100.0
 51
190.0
  0
ARC
  5
1A0
100
AcDbEntity
  8
edge cuts plate
 62
256
370
-1
 48
1.0
  6
BYLAYER
100
AcDbCircle
 10
-75.4248439840157516
 20
1.593345568824061
 30
0.0
 40
0.5
100
AcDbArc
 50
100.0
 51
190.0
  0
ARC
  5
1A1
100
AcDbEntity
  8
edge cuts plate
 62
256
370
-1
 48
1.0
  6
BYLAYER
100
AcDbCircle
 10
-94.1854316788983112
 20
-1.7146522157309665
 30
0.0
 40
0.5
100
AcDbArc
 50
100.0
 51
190.0
  0
ARC
  5
1A2
100
AcDbEntity
  8
edge cuts plate
 62
256
370
-1
 48
1.0
  6
BYLAYER
100
AcDbCircle
 10
-112.9460193737808993
 20
-5.0226500002859797
 30
0.0
 40
0.5
100
AcDbArc
 50
100.0
 51
190.0
  0
ARC
  5
1A3
100
AcDbEntity
  8
edge cuts plate
 62
256
370
-1
 48
1.0
  6
BYLAYER
100
AcDbCircle
 10
-112.9460193737808709
 20
-24.3665269567094498
 30
0.0
 40
0.5
100
AcDbArc
 50
100.0
 51
190.0
  0
ARC
  5
1A4
100
AcDbEntity
  8
edge cuts plate
 62
256
370
-1
 48
1.0
  6
BYLAYER
100
AcDbCircle
 10
-94.1854316788983112
 20
-21.0585291721544081
 30
0.0
 40
0.5
100
AcDbArc
 50
100.0
 51
190.0
  0
ARC
  5
1A5
100
AcDbEntity
  8
edge cuts plate
 62
256
370
-1
 48
1.0
  6
BYLAYER
100
AcDbCircle
 10
-75.4248439840157516
 20
-17.7505313875993807
 30
0.0
 40
0.5
100
AcDbArc
 50
100.0
 51
190.0
  0
ARC
  5
1A6
100
AcDbEntity
  8
edge cuts plate
 62
256
370
-1
 48
1.0
  6
BYLAYER
100
AcDbCircle
 10
-61.4267562891332162
 20
-34.6261678050918533
 30
0.0
 40
0.5
100
AcDbArc
 50
100.0
 51
190.0
  0
ARC
  5
1A7
100
AcDbEntity
  8
edge cuts plate
 62
256
370
-1
 48
1.0
  6
BYLAYER
100
AcDbCircle
 10
-80.1873439840157687
 20
-37.9341655896468808
 30
0.0
 40
0.5
100
AcDbArc
 50
100.0
 51
190.0
  0
ARC
  5
1A8
100
AcDbEntity
  8
edge cuts plate
 62
256
370
-1
 48
1.0
  6
BYLAYER
100
AcDbCircle
 10
-98.9479316788983283
 20
-41.2421633742019367
 30
0.0
 40
0.5
100
AcDbArc
 50
100.0
 51
190.0
  0
ARC
  5
1A9
100
AcDbEntity
  8
edge cuts plate
 62
256
370
-1
 48
1.0
  6
BYLAYER
100
AcDbCircle
 10
-117.7085193737808595
 20
-44.5501611587569641
 30
0.0
 40
0.5
100
AcDbArc
 50
100.0
 51
190.0
  0
ARC
  5
1AA
100
AcDbEntity
  8
edge cuts plate
 62
256
370
-1
 48
1.0
  6
BYLAYER
100
AcDbCircle
 10
-62.8089054282988073
 20
-54.2137549461131911
 30
0.0
 40
0.5
100
AcDbArc
 50
100.0
 51
190.0
  0
ARC
  5
1AB
100
AcDbEntity
  8
edge cuts plate
 62
256
370
-1
 48
1.0
  6
BYLAYER
100
AcDbCircle
 10
5.40625
 20
-50.6499999999999986
 30
0.0
 40
0.5
100
AcDbArc
 50
90.0
 51
180.0
  0
ARC
  5
1AC
100
AcDbEntity
  8
edge cuts plate
 62
256
370
-1
 48
1.0
  6
BYLAYER
100
AcDbCircle
 10
-16.0249999999999986
 20
-50.6499999999999915
 30
0.0
 40
0.5
100
AcDbArc
 50
90.0
 51
180.0
  0
ARC
  5
1AD
100
AcDbEntity
  8
edge cuts plate
 62
256
370
-1
 48
1.0
  6
BYLAYER
100
AcDbCircle
 10
-35.0750000000000028
 20
-50.649999999999892
 30
0.0
 40
0.5
100
AcDbArc
 50
90.0
 51
180.0
  0
ARC
  5
1AE
100
AcDbEntity
  8
edge cuts plate
 62
256
370
-1
 48
1.0
  6
BYLAYER
100
AcDbCircle
 10
-20.7875000000000014
 20
-31.6000000000000227
 30
0.0
 40
0.5
100
AcDbArc
 50
90.0
 51
180.0
  0
ARC
  5
1AF
100
AcDbEntity
  8
edge cuts plate
 62
256
370
-1
 48
1.0
  6
BYLAYER
100
AcDbCircle
 10
-107.3653015494143972
 20
-62.0702497602556917
 30
0.0
 40
0.5
100
AcDbArc
 50
100.0
 51
190.0
  0
ARC
  5
1B0
100
AcDbEntity
  8
edge cuts plate
 62
256
370
-1
 48
1.0
  6
BYLAYER
100
AcDbCircle
 10
-123.6666062795047623
 20
-45.6007326336418188
 30
0.0
 40
0.5
100
AcDbArc
 50
9.9999999999999396
 51
100.0
  0
ARC
  5
1B1
100
AcDbEntity
  8
edge cuts plate
 62
256
370
-1
 48
1.0
  6
BYLAYER
100
AcDbCircle
 10
-22.0749999999999886
 20
6.5000000000000568
 30
0.0
 40
0.5
100
AcDbArc
 50
0.0
 51
90.0000000000000995
  0
ARC
  5
1B2
100
AcDbEntity
  8
edge cuts plate
 62
256
370
-1
 48
1.0
  6
BYLAYER
100
AcDbCircle
 10
-22.0749999999999886
 20
-12.5499999999999545
 30
0.0
 40
0.5
100
AcDbArc
 50
0.0
 51
90.0000000000000995
  0
ARC
  5
1B3
100
AcDbEntity
  8
edge cuts plate
 62
256
370
-1
 48
1.0
  6
BYLAYER
100
AcDbCircle
 10
-26.8375000000000057
 20
-31.6000000000000227
 30
0.0
 40
0.5
100
AcDbArc
 50
0.0
 51
90.0000000000000995
  0
ARC
  5
1B4
100
AcDbEntity
  8
edge cuts plate
 62
256
370
-1
 48
1.0
  6
BYLAYER
100
AcDbCircle
 10
-43.8617554999744996
 20
-12.1851072933742621
 30
0.0
 40
0.5
100
AcDbArc
 50
10.0
 51
100.0000000000000995
  0
ARC
  5
1B5
100
AcDbEntity
  8
edge cuts plate
 62
256
370
-1
 48
1.0
  6
BYLAYER
100
AcDbCircle
 10
-43.8617554999744783
 20
7.1587696630491831
 30
0.0
 40
0.5
100
AcDbArc
 50
10.0
 51
100.0000000000000995
  0
ARC
  5
1B6
100
AcDbEntity
  8
edge cuts plate
 62
256
370
-1
 48
1.0
  6
BYLAYER
100
AcDbCircle
 10
-62.6223431948570592
 20
3.8507718784941529
 30
0.0
 40
0.5
100
AcDbArc
 50
10.0
 51
100.0000000000000995
  0
ARC
  5
1B7
100
AcDbEntity
  8
edge cuts plate
 62
256
370
-1
 48
1.0
  6
BYLAYER
100
AcDbCircle
 10
-81.3829308897396118
 20
0.5427740939391255
 30
0.0
 40
0.5
100
AcDbArc
 50
10.0
 51
100.0000000000000995
  0
ARC
  5
1B8
100
AcDbEntity
  8
edge cuts plate
 62
256
370
-1
 48
1.0
  6
BYLAYER
100
AcDbCircle
 10
-100.1435185846221998
 20
-2.7652236906158878
 30
0.0
 40
0.5
100
AcDbArc
 50
10.0
 51
100.0000000000000995
  0
ARC
  5
1B9
100
AcDbEntity
  8
edge cuts plate
 62
256
370
-1
 48
1.0
  6
BYLAYER
100
AcDbCircle
 10
-100.1435185846221714
 20
-22.1091006470393587
 30
0.0
 40
0.5
100
AcDbArc
 50
10.0
 51
100.0000000000000995
  0
ARC
  5
1BA
100
AcDbEntity
  8
edge cuts plate
 62
256
370
-1
 48
1.0
  6
BYLAYER
100
AcDbCircle
 10
-81.3829308897396118
 20
-18.8011028624843171
 30
0.0
 40
0.5
100
AcDbArc
 50
10.0
 51
100.0000000000000995
  0
ARC
  5
1BB
100
AcDbEntity
  8
edge cuts plate
 62
256
370
-1
 48
1.0
  6
BYLAYER
100
AcDbCircle
 10
-62.6223431948570592
 20
-15.4931050779292896
 30
0.0
 40
0.5
100
AcDbArc
 50
10.0
 51
100.0000000000000995
  0
ARC
  5
1BC
100
AcDbEntity
  8
edge cuts plate
 62
256
370
-1
 48
1.0
  6
BYLAYER
100
AcDbCircle
 10
-48.6242554999745167
 20
-32.3687414954217658
 30
0.0
 40
0.5
100
AcDbArc
 50
10.0
 51
100.0000000000000995
  0
ARC
  5
1BD
100
AcDbEntity
  8
edge cuts plate
 62
256
370
-1
 48
1.0
  6
BYLAYER
100
AcDbCircle
 10
-67.3848431948570692
 20
-35.6767392799767933
 30
0.0
 40
0.5
100
AcDbArc
 50
10.0
 51
100.0000000000000995
  0
ARC
  5
1BE
100
AcDbEntity
  8
edge cuts plate
 62
256
370
-1
 48
1.0
  6
BYLAYER
100
AcDbCircle
 10
-86.1454308897396288
 20
-38.9847370645318492
 30
0.0
 40
0.5
100
AcDbArc
 50
10.0
 51
100.0000000000000995
  0
ARC
  5
1BF
100
AcDbEntity
  8
edge cuts plate
 62
256
370
-1
 48
1.0
  6
BYLAYER
100
AcDbCircle
 10
-104.90601858462216
 20
-42.2927348490868766
 30
0.0
 40
0.5
100
AcDbArc
 50
10.0
 51
100.0000000000000995
  0
ARC
  5
1C0
100
AcDbEntity
  8
edge cuts plate
 62
256
370
-1
 48
1.0
  6
BYLAYER
100
AcDbCircle
 10
-50.0064046391401078
 20
-51.9563286364431036
 30
0.0
 40
0.5
100
AcDbArc
 50
10.0
 51
100.0000000000000995
  0
ARC
  5
1C1
100
AcDbEntity
  8
edge cuts plate
 62
256
370
-1
 48
1.0
  6
BYLAYER
100
AcDbCircle
 10
-68.7669923340226887
 20
-55.2643264209981595
 30
0.0
 40
0.5
100
AcDbArc
 50
10.0
 51
100.0000000000000995
  0
ARC
  5
1C2
100
AcDbEntity
  8
edge cuts plate
 62
256
370
-1
 48
1.0
  6
BYLAYER
100
AcDbCircle
 10
18.40625
 20
-50.6499999999999986
 30
0.0
 40
0.5
100
AcDbArc
 50
0.0
 51
90.0000000000000995
  0
ARC
  5
1C3
100
AcDbEntity
  8
edge cuts plate
 62
256
370
-1
 48
1.0
  6
BYLAYER
100
AcDbCircle
 10
-3.0250000000000004
 20
-50.6499999999999915
 30
0.0
 40
0.5
100
AcDbArc
 50
0.0
 51
90.0000000000000995
  0
ARC
  5
1C4
100
AcDbEntity
  8
edge cuts plate
 62
256
370
-1
 48
1.0
  6
BYLAYER
100
AcDbCircle
 10
-22.0749999999999993
 20
-50.649999999999892
 30
0.0
 40
0.5
100
AcDbArc
 50
0.0
 51
90.0000000000000995
  0
ARC
  5
1C5
100
AcDbEntity
  8
edge cuts plate
 62
256
370
-1
 48
1.0
  6
BYLAYER
100
AcDbCircle
 10
18.40625
 20
-31.6000000000000227
 30
0.0
 40
0.5
100
AcDbArc
 50
0.0
 51
90.0000000000000995
  0
ARC
  5
1C6
100
AcDbEntity
  8
edge cuts plate
 62
256
370
-1
 48
1.0
  6
BYLAYER
100
AcDbCircle
 10
-136.4691070686635044
 20
-47.8581589433118992
 30
0.0
 40
0.5
100
AcDbArc
 50
99.9999999999999005
 51
189.9999999999999716
  0
ARC
  5
1C7
100
AcDbEntity
  8
edge cuts plate
 62
256
370
-1
 48
1.0
  6
BYLAYER
100
AcDbCircle
 10
-22.0749999999999886
 20
-6.4999999999999432
 30
0.0
 40
0.5
100
AcDbArc
 50
270.0
 51
0.0
  0
ARC
  5
1C8
100
AcDbEntity
  8
edge cuts plate
 62
256
370
-1
 48
1.0
  6
BYLAYER
100
AcDbCircle
 10
-22.0749999999999886
 20
-25.5499999999999545
 30
0.0
 40
0.5
100
AcDbArc
 50
270.0
 51
0.0
  0
ARC
  5
1C9
100
AcDbEntity
  8
edge cuts plate
 62
256
370
-1
 48
1.0
  6
BYLAYER
100
AcDbCircle
 10
-26.8375000000000057
 20
-44.6000000000000227
 30
0.0
 40
0.5
100
AcDbArc
 50
270.0
 51
0.0
  0
ARC
  5
1CA
100
AcDbEntity
  8
edge cuts plate
 62
256
370
-1
 48
1.0
  6
BYLAYER
100
AcDbCircle
 10
-41.604329190304405
 20
-24.9876080825329723
 30
0.0
 40
0.5
100
AcDbArc
 50
280.0
 51
10.0
  0
ARC
  5
1CB
100
AcDbEntity
  8
edge cuts plate
 62
256
370
-1
 48
1.0
  6
BYLAYER
100
AcDbCircle
 10
-41.6043291903043837
 20
-5.6437311261095253
 30
0.0
 40
0.5
100
AcDbArc
 50
280.0
 51
10.0
  0
ARC
  5
1CC
100
AcDbEntity
  8
edge cuts plate
 62
256
370
-1
 48
1.0
  6
BYLAYER
100
AcDbCircle
 10
-60.3649168851869646
 20
-8.9517289106645563
 30
0.0
 40
0.5
100
AcDbArc
 50
280.0
 51
10.0
  0
ARC
  5
1CD
100
AcDbEntity
  8
edge cuts plate
 62
256
370
-1
 48
1.0
  6
BYLAYER
100
AcDbCircle
 10
-79.1255045800695314
 20
-12.2597266952195838
 30
0.0
 40
0.5
100
AcDbArc
 50
280.0
 51
10.0
  0
ARC
  5
1CE
100
AcDbEntity
  8
edge cuts plate
 62
256
370
-1
 48
1.0
  6
BYLAYER
100
AcDbCircle
 10
-97.8860922749521194
 20
-15.5677244797745971
 30
0.0
 40
0.5
100
AcDbArc
 50
280.0
 51
10.0
  0
ARC
  5
1CF
100
AcDbEntity
  8
edge cuts plate
 62
256
370
-1
 48
1.0
  6
BYLAYER
100
AcDbCircle
 10
-97.886092274952091
 20
-34.9116014361980689
 30
0.0
 40
0.5
100
AcDbArc
 50
280.0
 51
10.0
  0
ARC
  5
1D0
100
AcDbEntity
  8
edge cuts plate
 62
256
370
-1
 48
1.0
  6
BYLAYER
100
AcDbCircle
 10
-79.1255045800695314
 20
-31.6036036516430272
 30
0.0
 40
0.5
100
AcDbArc
 50
280.0
 51
10.0
  0
ARC
  5
1D1
100
AcDbEntity
  8
edge cuts plate
 62
256
370
-1
 48
1.0
  6
BYLAYER
100
AcDbCircle
 10
-60.3649168851869646
 20
-28.2956058670879997
 30
0.0
 40
0.5
100
AcDbArc
 50
280.0
 51
10.0
  0
ARC
  5
1D2
100
AcDbEntity
  8
edge cuts plate
 62
256
370
-1
 48
1.0
  6
BYLAYER
100
AcDbCircle
 10
-46.3668291903044221
 20
-45.1712422845804724
 30
0.0
 40
0.5
100
AcDbArc
 50
280.0
 51
10.0
  0
ARC
  5
1D3
100
AcDbEntity
  8
edge cuts plate
 62
256
370
-1
 48
1.0
  6
BYLAYER
100
AcDbCircle
 10
-65.1274168851869888
 20
-48.4792400691354999
 30
0.0
 40
0.5
100
AcDbArc
 50
280.0
 51
10.0
  0
ARC
  5
1D4
100
AcDbEntity
  8
edge cuts plate
 62
256
370
-1
 48
1.0
  6
BYLAYER
100
AcDbCircle
 10
-83.8880045800695484
 20
-51.7872378536905558
 30
0.0
 40
0.5
100
AcDbArc
 50
280.0
 51
10.0
  0
ARC
  5
1D5
100
AcDbEntity
  8
edge cuts plate
 62
256
370
-1
 48
1.0
  6
BYLAYER
100
AcDbCircle
 10
-102.6485922749520796
 20
-55.0952356382455832
 30
0.0
 40
0.5
100
AcDbArc
 50
280.0
 51
10.0
  0
ARC
  5
1D6
100
AcDbEntity
  8
edge cuts plate
 62
256
370
-1
 48
1.0
  6
BYLAYER
100
AcDbCircle
 10
-118.1011821852796402
 20
-77.1638211176831419
 30
0.0
 40
0.5
100
AcDbArc
 50
280.0
 51
10.0
  0
ARC
  5
1D7
100
AcDbEntity
  8
edge cuts plate
 62
256
370
-1
 48
1.0
  6
BYLAYER
100
AcDbCircle
 10
-47.7489783294700132
 20
-64.7588294256018031
 30
0.0
 40
0.5
100
AcDbArc
 50
280.0
 51
10.0
  0
ARC
  5
1D8
100
AcDbEntity
  8
edge cuts plate
 62
256
370
-1
 48
1.0
  6
BYLAYER
100
AcDbCircle
 10
-66.5095660243526083
 20
-68.066827210156859
 30
0.0
 40
0.5
100
AcDbArc
 50
280.0
 51
10.0
  0
ARC
  5
1D9
100
AcDbEntity
  8
edge cuts plate
 62
256
370
-1
 48
1.0
  6
BYLAYER
100
AcDbCircle
 10
18.40625
 20
-63.6499999999999986
 30
0.0
 40
0.5
100
AcDbArc
 50
270.0
 51
0.0
  0
ARC
  5
1DA
100
AcDbEntity
  8
edge cuts plate
 62
256
370
-1
 48
1.0
  6
BYLAYER
100
AcDbCircle
 10
-3.0250000000000004
 20
-63.6499999999999915
 30
0.0
 40
0.5
100
AcDbArc
 50
270.0
 51
0.0
  0
ARC
  5
1DB
100
AcDbEntity
  8
edge cuts plate
 62
256
370
-1
 48
1.0
  6
BYLAYER
100
AcDbCircle
 10
-22.0749999999999993
 20
-63.649999999999892
 30
0.0
 40
0.5
100
AcDbArc
 50
270.0
 51
0.0
  0
ARC
  5
1DC
100
AcDbEntity
  8
edge cuts plate
 62
256
370
-1
 48
1.0
  6
BYLAYER
100
AcDbCircle
 10
18.40625
 20
-44.6000000000000227
 30
0.0
 40
0.5
100
AcDbArc
 50
270.0
 51
0.0
  0
CIRCLE
  5
1DD
100
AcDbEntity
  8
coponent footprints
 62
256
370
-1
 48
1.0
  6
BYLAYER
100
AcDbCircle
 10
-105.4160558243665093
 20
-10.2951872400302875
 30
0.0
 40
1.9938999999999965
  0
CIRCLE
  5
1DE
100
AcDbEntity
  8
coponent footprints
 62
256
370
-1
 48
1.0
  6
BYLAYER
100
AcDbCircle
 10
-72.6573804346013787
 20
-43.2067028293911903
 30
0.0
 40
1.9938999999999965
  0
CIRCLE
  5
1DF
100
AcDbEntity
  8
coponent footprints
 62
256
370
-1
 48
1.0
  6
BYLAYER
100
AcDbCircle
 10
-55.2789418788844102
 20
-59.4862921858575007
 30
0.0
 40
1.9938999999999965
  0
CIRCLE
  5
1E0
100
AcDbEntity
  8
coponent footprints
 62
256
370
-1
 48
1.0
  6
BYLAYER
100
AcDbCircle
 10
-91.4179681294839384
 20
-46.5147006139462462
 30
0.0
 40
1.9938999999999965
  0
CIRCLE
  5
1E1
100
AcDbEntity
  8
coponent footprints
 62
256
370
-1
 48
1.0
  6
BYLAYER
100
AcDbCircle
 10
-110.1785558243664696
 20
-49.8226983985012737
 30
0.0
 40
1.9938999999999965
  0
CIRCLE
  5
1E2
100
AcDbEntity
  8
coponent footprints
 62
256
370
-1
 48
1.0
  6
BYLAYER
100
AcDbCircle
 10
-90.455043806789206
 20
-65.6887880318981559
 30
0.0
 40
1.9938999999999965
  0
CIRCLE
  5
1E3
100
AcDbEntity
  8
coponent footprints
 62
256
370
-1
 48
1.0
  6
BYLAYER
100
AcDbCircle
 10
-99.8353376542305
 20
-67.3427869241756412
 30
0.0
 40
1.9938999999999965
  0
CIRCLE
  5
1E4
100
AcDbEntity
  8
coponent footprints
 62
256
370
-1
 48
1.0
  6
BYLAYER
100
AcDbCircle
 10
-105.4160558243664809
 20
-29.6390641964537593
 30
0.0
 40
1.9938999999999965
  0
CIRCLE
  5
1E5
100
AcDbEntity
  8
coponent footprints
 62
256
370
-1
 48
1.0
  6
BYLAYER
100
AcDbCircle
 10
-86.6554681294839213
 20
-26.3310664118987177
 30
0.0
 40
1.9938999999999965
  0
CIRCLE
  5
1E6
100
AcDbEntity
  8
coponent footprints
 62
256
370
-1
 48
1.0
  6
BYLAYER
100
AcDbCircle
 10
-67.8948804346013617
 20
-23.0230686273436902
 30
0.0
 40
1.9939000000000036
  0
CIRCLE
  5
1E7
100
AcDbEntity
  8
coponent footprints
 62
256
370
-1
 48
1.0
  6
BYLAYER
100
AcDbCircle
 10
-49.1342927397188021
 20
-19.7150708427886627
 30
0.0
 40
1.9939000000000036
  0
CIRCLE
  5
1E8
100
AcDbEntity
  8
coponent footprints
 62
256
370
-1
 48
1.0
  6
BYLAYER
100
AcDbCircle
 10
-125.6311457346940301
 20
-71.8912838779388323
 30
0.0
 40
1.9938999999999965
  0
ARC
  5
1E9
100
AcDbEntity
  8
edge cuts plate
 62
256
370
-1
 48
1.0
  6
BYLAYER
100
AcDbCircle
 10
-130.9036829744383681
 20
-79.4212474273531939
 30
0.0
 40
0.5
100
AcDbArc
 50
189.9999999999999716
 51
280.0
  0
CIRCLE
  5
1EA
100
AcDbEntity
  8
coponent footprints
 62
256
370
-1
 48
1.0
  6
BYLAYER
100
AcDbCircle
 10
-128.9391435192490576
 20
-53.1306961830561875
 30
0.0
 40
1.9938999999999965
  0
LINE
  5
1EB
100
AcDbEntity
  8
coponent footprints
 62
256
370
-1
 48
1.0
  6
BYLAYER
100
AcDbLine
 10
-18.0264999999999702
 20
-19.0499999999999687
 30
0.0
 11
-19.0499999999999829
 21
-19.0499999999999687
 31
0.0
  0
LINE
  5
1EC
100
AcDbEntity
  8
coponent footprints
 62
256
370
-1
 48
1.0
  6
BYLAYER
100
AcDbLine
 10
-8.501499999999993
 20
-57.1499999999999204
 30
0.0
 11
-9.5250000000000057
 21
-57.1499999999999204
 31
0.0
  0
LINE
  5
1ED
100
AcDbEntity
  8
coponent footprints
 62
256
370
-1
 48
1.0
  6
BYLAYER
100
AcDbLine
 10
-38.0999999999999943
 20
0.0000000000000284
 30
0.0
 11
-39.123500000000007
 21
0.0000000000000284
 31
0.0
  0
LINE
  5
1EE
100
AcDbEntity
  8
coponent footprints
 62
256
370
-1
 48
1.0
  6
BYLAYER
100
AcDbLine
 10
-38.0999999999999943
 20
-19.0499999999999545
 30
0.0
 11
-39.123500000000007
 21
-19.0499999999999545
 31
0.0
  0
ARC
  5
1EF
100
AcDbEntity
  8
edge cuts plate
 62
256
370
-1
 48
1.0
  6
BYLAYER
100
AcDbCircle
 10
-35.0749999999999886
 20
-6.4999999999999432
 30
0.0
 40
0.5
100
AcDbArc
 50
180.0
 51
270.0
  0
ARC
  5
1F0
100
AcDbEntity
  8
edge cuts plate
 62
256
370
-1
 48
1.0
  6
BYLAYER
100
AcDbCircle
 10
-35.0749999999999886
 20
-25.5499999999999545
 30
0.0
 40
0.5
100
AcDbArc
 50
180.0
 51
270.0
  0
ARC
  5
1F1
100
AcDbEntity
  8
edge cuts plate
 62
256
370
-1
 48
1.0
  6
BYLAYER
100
AcDbCircle
 10
-39.8375000000000057
 20
-44.6000000000000227
 30
0.0
 40
0.5
100
AcDbArc
 50
180.0
 51
270.0
  0
ARC
  5
1F2
100
AcDbEntity
  8
edge cuts plate
 62
256
370
-1
 48
1.0
  6
BYLAYER
100
AcDbCircle
 10
-54.4068299794631116
 20
-27.2450343922030598
 30
0.0
 40
0.5
100
AcDbArc
 50
190.0
 51
280.0
  0
ARC
  5
1F3
100
AcDbEntity
  8
edge cuts plate
 62
256
370
-1
 48
1.0
  6
BYLAYER
100
AcDbCircle
 10
-54.4068299794630903
 20
-7.9011574357796137
 30
0.0
 40
0.5
100
AcDbArc
 50
190.0
 51
280.0
  0
ARC
  5
1F4
100
AcDbEntity
  8
edge cuts plate
 62
256
370
-1
 48
1.0
  6
BYLAYER
100
AcDbCircle
 10
-73.1674176743456712
 20
-11.2091552203346438
 30
0.0
 40
0.5
100
AcDbArc
 50
190.0
 51
280.0
  0
ARC
  5
1F5
100
AcDbEntity
  8
edge cuts plate
 62
256
370
-1
 48
1.0
  6
BYLAYER
100
AcDbCircle
 10
-91.9280053692282308
 20
-14.5171530048896713
 30
0.0
 40
0.5
100
AcDbArc
 50
190.0
 51
280.0
  0
ARC
  5
1F6
100
AcDbEntity
  8
edge cuts plate
 62
256
370
-1
 48
1.0
  6
BYLAYER
100
AcDbCircle
 10
-110.6885930641108189
 20
-17.8251507894446846
 30
0.0
 40
0.5
100
AcDbArc
 50
190.0
 51
280.0
  0
ARC
  5
1F7
100
AcDbEntity
  8
edge cuts plate
 62
256
370
-1
 48
1.0
  6
BYLAYER
100
AcDbCircle
 10
-110.6885930641107905
 20
-37.1690277458681564
 30
0.0
 40
0.5
100
AcDbArc
 50
190.0
 51
280.0
  0
ARC
  5
1F8
100
AcDbEntity
  8
edge cuts plate
 62
256
370
-1
 48
1.0
  6
BYLAYER
100
AcDbCircle
 10
-91.9280053692282308
 20
-33.8610299613131147
 30
0.0
 40
0.5
100
AcDbArc
 50
190.0
 51
280.0
  0
ARC
  5
1F9
100
AcDbEntity
  8
edge cuts plate
 62
256
370
-1
 48
1.0
  6
BYLAYER
100
AcDbCircle
 10
-73.1674176743456712
 20
-30.5530321767580872
 30
0.0
 40
0.5
100
AcDbArc
 50
190.0
 51
280.0
  0
ARC
  5
1FA
100
AcDbEntity
  8
edge cuts plate
 62
256
370
-1
 48
1.0
  6
BYLAYER
100
AcDbCircle
 10
-59.1693299794631287
 20
-47.4286685942505599
 30
0.0
 40
0.5
100
AcDbArc
 50
190.0
 51
280.0
  0
ARC
  5
1FB
100
AcDbEntity
  8
edge cuts plate
 62
256
370
-1
 48
1.0
  6
BYLAYER
100
AcDbCircle
 10
-77.9299176743456883
 20
-50.7366663788055874
 30
0.0
 40
0.5
100
AcDbArc
 50
190.0
 51
280.0
  0
ARC
  5
1FC
100
AcDbEntity
  8
edge cuts plate
 62
256
370
-1
 48
1.0
  6
BYLAYER
100
AcDbCircle
 10
-96.6905053692282479
 20
-54.0446641633606433
 30
0.0
 40
0.5
100
AcDbArc
 50
190.0
 51
280.0
  0
ARC
  5
1FD
100
AcDbEntity
  8
edge cuts plate
 62
256
370
-1
 48
1.0
  6
BYLAYER
100
AcDbCircle
 10
-115.4510930641107791
 20
-57.3526619479156707
 30
0.0
 40
0.5
100
AcDbArc
 50
190.0
 51
280.0
  0
ARC
  5
1FE
100
AcDbEntity
  8
edge cuts plate
 62
256
370
-1
 48
1.0
  6
BYLAYER
100
AcDbCircle
 10
-60.5514791186287198
 20
-67.0162557352718977
 30
0.0
 40
0.5
100
AcDbArc
 50
190.0
 51
280.0
  0
ARC
  5
1FF
100
AcDbEntity
  8
edge cuts plate
 62
256
370
-1
 48
1.0
  6
BYLAYER
100
AcDbCircle
 10
5.40625
 20
-63.6499999999999986
 30
0.0
 40
0.5
100
AcDbArc
 50
180.0
 51
270.0
  0
ARC
  5
200
100
AcDbEntity
  8
edge cuts plate
 62
256
370
-1
 48
1.0
  6
BYLAYER
100
AcDbCircle
 10
-16.0249999999999986
 20
-63.6499999999999915
 30
0.0
 40
0.5
100
AcDbArc
 50
180.0
 51
270.0
  0
ARC
  5
201
100
AcDbEntity
  8
edge cuts plate
 62
256
370
-1
 48
1.0
  6
BYLAYER
100
AcDbCircle
 10
-35.0750000000000028
 20
-63.649999999999892
 30
0.0
 40
0.5
100
AcDbArc
 50
180.0
 51
270.0
  0
ARC
  5
202
100
AcDbEntity
  8
edge cuts plate
 62
256
370
-1
 48
1.0
  6
BYLAYER
100
AcDbCircle
 10
-20.7875000000000014
 20
-44.6000000000000227
 30
0.0
 40
0.5
100
AcDbArc
 50
180.0
 51
270.0
  0
ARC
  5
203
100
AcDbEntity
  8
edge cuts plate
 62
256
370
-1
 48
1.0
  6
BYLAYER
100
AcDbCircle
 10
-105.1078752397443026
 20
-74.8727505494144054
 30
0.0
 40
0.5
100
AcDbArc
 50
190.0
 51
280.0
  0
LINE
  5
204
100
AcDbEntity
  8
coponent footprints
 62
256
370
-1
 48
1.0
  6
BYLAYER
100
AcDbLine
 10
-40.147000000000034
 20
-19.0499999999999545
 30
0.0
 11
-39.123500000000007
 21
-19.0499999999999545
 31
0.0
  0
LINE
  5
205
100
AcDbEntity
  8
coponent footprints
 62
256
370
-1
 48
1.0
  6
BYLAYER
100
AcDbLine
 10
-58.5145865871600819
 20
-21.3690697350661765
 30
0.0
 11
-59.5225373223680947
 21
-21.5467986449082787
 31
0.0
  0
LINE
  5
206
100
AcDbEntity
  8
coponent footprints
 62
256
370
-1
 48
1.0
  6
BYLAYER
100
AcDbLine
 10
-58.5145865871600677
 20
-21.3690697350661765
 30
0.0
 11
-57.5066358519520691
 21
-21.1913408252240743
 31
0.0
  0
LINE
  5
207
100
AcDbEntity
  8
coponent footprints
 62
256
370
-1
 48
1.0
  6
BYLAYER
100
AcDbLine
 10
-109.2161239055483009
 20
-68.9968726405419943
 30
0.0
 11
-108.2081731703403022
 21
-68.8191437306998921
 31
0.0
  0
LINE
  5
208
100
AcDbEntity
  8
coponent footprints
 62
256
370
-1
 48
1.0
  6
BYLAYER
100
AcDbLine
 10
-96.0357619769251585
 20
-27.985065304176203
 30
0.0
 11
-97.0437127121331571
 21
-28.1627942140183052
 31
0.0
  0
LINE
  5
209
100
AcDbEntity
  8
coponent footprints
 62
256
370
-1
 48
1.0
  6
BYLAYER
100
AcDbLine
 10
-93.7077009019548086
 20
-27.1833649763094343
 30
0.0
 11
-94.7156516371628072
 21
-27.3610938861515365
 31
0.0
  0
LINE
  5
20A
100
AcDbEntity
  8
coponent footprints
 62
256
370
-1
 48
1.0
  6
BYLAYER
100
AcDbLine
 10
-82.0376742820426728
 20
-44.8607017216687041
 30
0.0
 11
-83.0456250172506429
 21
-45.0384306315108063
 31
0.0
  0
LINE
  5
20B
100
AcDbEntity
  8
coponent footprints
 62
256
370
-1
 48
1.0
  6
BYLAYER
100
AcDbLine
 10
-63.2770865871601202
 20
-41.5527039371136766
 30
0.0
 11
-64.2850373223680833
 21
-41.7304328469557788
 31
0.0
  0
LINE
  5
20C
100
AcDbEntity
  8
coponent footprints
 62
256
370
-1
 48
1.0
  6
BYLAYER
100
AcDbLine
 10
-81.0297235468346742
 20
-44.6829728118266019
 30
0.0
 11
-82.0376742820426728
 21
-44.8607017216687041
 31
0.0
  0
LINE
  5
20D
100
AcDbEntity
  8
coponent footprints
 62
256
370
-1
 48
1.0
  6
BYLAYER
100
AcDbLine
 10
-64.6592357263257043
 20
-61.1402910781350144
 30
0.0
 11
-65.6671864615336744
 21
-61.3180199879771166
 31
0.0
  0
LINE
  5
20E
100
AcDbEntity
  8
coponent footprints
 62
256
370
-1
 48
1.0
  6
BYLAYER
100
AcDbLine
 10
-63.6512849911176843
 20
-60.9625621682929122
 30
0.0
 11
-64.6592357263256758
 21
-61.1402910781350144
 31
0.0
  0
LINE
  5
20F
100
AcDbEntity
  8
coponent footprints
 62
256
370
-1
 48
1.0
  6
BYLAYER
100
AcDbLine
 10
-100.7982619769251755
 20
-48.1686995062237315
 30
0.0
 11
-101.8062127121331741
 21
-48.3464284160658622
 31
0.0
  0
LINE
  5
210
100
AcDbEntity
  8
coponent footprints
 62
256
370
-1
 48
1.0
  6
BYLAYER
100
AcDbLine
 10
-99.7903112417171769
 20
-47.9909705963816293
 30
0.0
 11
-100.7982619769251755
 21
-48.1686995062237315
 31
0.0
  0
LINE
  5
211
100
AcDbEntity
  8
coponent footprints
 62
256
370
-1
 48
1.0
  6
BYLAYER
100
AcDbLine
 10
-22.7889999999999873
 20
-38.0999999999998948
 30
0.0
 11
-23.8124999999999858
 21
-38.0999999999999943
 31
0.0
  0
ARC
  5
212
100
AcDbEntity
  8
edge cuts plate
 62
256
370
-1
 48
1.0
  6
BYLAYER
100
AcDbCircle
 10
-118.1011821852796828
 20
-77.163821117683085
 30
0.0
 40
0.5
100
AcDbArc
 50
280.0
 51
9.9999999999999396
  0
LINE
  5
213
100
AcDbEntity
  8
coponent footprints
 62
256
370
-1
 48
1.0
  6
BYLAYER
100
AcDbLine
 10
-23.8125
 20
-38.0999999999999943
 30
0.0
 11
-24.8359999999999843
 21
-38.0999999999999801
 31
0.0
  0
LINE
  5
214
100
AcDbEntity
  8
coponent footprints
 62
256
370
-1
 48
1.0
  6
BYLAYER
100
AcDbLine
 10
-96.0357619769251869
 20
-27.985065304176203
 30
0.0
 11
-97.0437127121331855
 21
-28.1627942140183194
 31
0.0
  0
ARC
  5
215
100
AcDbEntity
  8
edge cuts plate
 62
256
370
-1
 48
1.0
  6
BYLAYER
100
AcDbCircle
 10
-7.9380000000000166
 20
-7.4999999999999432
 30
0.0
 40
0.5
100
AcDbArc
 50
90.0
 51
180.0
  0
ARC
  5
216
100
AcDbEntity
  8
edge cuts plate
 62
256
370
-1
 48
1.0
  6
BYLAYER
100
AcDbCircle
 10
-5.556750000000017
 20
-26.5499999999999545
 30
0.0
 40
0.5
100
AcDbArc
 50
90.0
 51
180.0
  0
ARC
  5
217
100
AcDbEntity
  8
edge cuts plate
 62
256
370
-1
 48
1.0
  6
BYLAYER
100
AcDbCircle
 10
-5.556750000000017
 20
-45.6000000000000227
 30
0.0
 40
0.5
100
AcDbArc
 50
90.0
 51
180.0
  0
LINE
  5
218
100
AcDbEntity
  8
coponent footprints
 62
256
370
-1
 48
1.0
  6
BYLAYER
100
AcDbLine
 10
-100.798261976925204
 20
-48.1686995062237315
 30
0.0
 11
-101.8062127121332026
 21
-48.3464284160658337
 31
0.0
  0
ARC
  5
219
100
AcDbEntity
  8
edge cuts plate
 62
256
370
-1
 48
1.0
  6
BYLAYER
100
AcDbCircle
 10
-83.940001375269631
 20
-56.9243106964735617
 30
0.0
 40
0.5
100
AcDbArc
 50
280.0
 51
9.9999999999999876
  0
ARC
  5
21A
100
AcDbEntity
  8
edge cuts plate
 62
256
370
-1
 48
1.0
  6
BYLAYER
100
AcDbCircle
 10
-121.2775057137001085
 20
-53.3912247545846057
 30
0.0
 40
0.5
100
AcDbArc
 50
99.9999999999999858
 51
189.9999999999999716
  0
ARC
  5
21B
100
AcDbEntity
  8
edge cuts plate
 62
256
370
-1
 48
1.0
  6
BYLAYER
100
AcDbCircle
 10
7.9380000000000166
 20
-7.4999999999999432
 30
0.0
 40
0.5
100
AcDbArc
 50
0.0
 51
89.999999999999801
  0
ARC
  5
21C
100
AcDbEntity
  8
edge cuts plate
 62
256
370
-1
 48
1.0
  6
BYLAYER
100
AcDbCircle
 10
10.3192500000000162
 20
-26.5499999999999545
 30
0.0
 40
0.5
100
AcDbArc
 50
0.0
 51
89.999999999999801
  0
ARC
  5
21D
100
AcDbEntity
  8
edge cuts plate
 62
256
370
-1
 48
1.0
  6
BYLAYER
100
AcDbCircle
 10
10.3192500000000162
 20
-45.6000000000000227
 30
0.0
 40
0.5
100
AcDbArc
 50
0.0
 51
89.999999999999801
  0
ARC
  5
21E
100
AcDbEntity
  8
edge cuts plate
 62
256
370
-1
 48
1.0
  6
BYLAYER
100
AcDbCircle
 10
-99.5748092620914491
 20
-59.6811491651137516
 30
0.0
 40
0.5
100
AcDbArc
 50
190.0
 51
279.9999999999997158
  0
ARC
  5
21F
100
AcDbEntity
  8
edge cuts plate
 62
256
370
-1
 48
1.0
  6
BYLAYER
100
AcDbCircle
 10
-118.5206672450599257
 20
-69.0260326414064309
 30
0.0
 40
0.5
100
AcDbArc
 50
190.000000000000199
 51
280.0
  0
CIRCLE
  5
220
100
AcDbEntity
  8
coponent footprints
 62
256
370
-1
 48
1.0
  6
BYLAYER
100
AcDbCircle
 10
-39.123500000000007
 20
3.8100000000000307
 30
0.0
 40
0.6984999999999992
  0
ARC
  5
221
100
AcDbEntity
  8
edge cuts plate
 62
256
370
-1
 48
1.0
  6
BYLAYER
100
AcDbCircle
 10
-117.1314818237245134
 20
-76.9044946655040746
 30
0.0
 40
0.5
100
AcDbArc
 50
100.0000000000007674
 51
190.0000000000005684
  0
CIRCLE
  5
222
100
AcDbEntity
  8
coponent footprints
 62
256
370
-1
 48
1.0
  6
BYLAYER
100
AcDbCircle
 10
-39.123500000000007
 20
-15.239999999999954
 30
0.0
 40
0.6984999999999992
  0
ARC
  5
223
100
AcDbEntity
  8
edge cuts plate
 62
256
370
-1
 48
1.0
  6
BYLAYER
100
AcDbCircle
 10
-122.6666911350355207
 20
-45.5127627304869335
 30
0.0
 40
0.5
100
AcDbArc
 50
189.9999999999998863
 51
280.0000000000000568
  0
CIRCLE
  5
224
100
AcDbEntity
  8
coponent footprints
 62
256
370
-1
 48
1.0
  6
BYLAYER
100
AcDbCircle
 10
-43.8859999999999673
 20
-34.289999999999921
 30
0.0
 40
0.6984999999999992
  0
CIRCLE
  5
225
100
AcDbEntity
  8
coponent footprints
 62
256
370
-1
 48
1.0
  6
BYLAYER
100
AcDbCircle
 10
-18.0264999999999702
 20
-15.2399999999999682
 30
0.0
 40
0.6984999999999992
  0
CIRCLE
  5
226
100
AcDbEntity
  8
coponent footprints
 62
256
370
-1
 48
1.0
  6
BYLAYER
100
AcDbCircle
 10
-8.501499999999993
 20
-53.3399999999998897
 30
0.0
 40
0.6984999999999992
  0
CIRCLE
  5
227
100
AcDbEntity
  8
coponent footprints
 62
256
370
-1
 48
1.0
  6
BYLAYER
100
AcDbCircle
 10
-22.7889999999999873
 20
-34.2900000000000205
 30
0.0
 40
0.6984999999999992
  0
CIRCLE
  5
228
100
AcDbEntity
  8
coponent footprints
 62
256
370
-1
 48
1.0
  6
BYLAYER
100
AcDbCircle
 10
-24.8359999999999843
 20
-34.2899999999999778
 30
0.0
 40
0.6984999999999992
  0
CIRCLE
  5
229
100
AcDbEntity
  8
coponent footprints
 62
256
370
-1
 48
1.0
  6
BYLAYER
100
AcDbCircle
 10
-39.123500000000007
 20
-3.8099999999999739
 30
0.0
 40
0.6984999999999992
  0
CIRCLE
  5
22A
100
AcDbEntity
  8
coponent footprints
 62
256
370
-1
 48
1.0
  6
BYLAYER
100
AcDbCircle
 10
-39.123500000000007
 20
-22.8599999999999426
 30
0.0
 40
0.6984999999999992
  0
CIRCLE
  5
22B
100
AcDbEntity
  8
coponent footprints
 62
256
370
-1
 48
1.0
  6
BYLAYER
100
AcDbCircle
 10
-56.8450359999999932
 20
-24.9434589999999474
 30
0.0
 40
0.6984999999999992
  0
CIRCLE
  5
22C
100
AcDbEntity
  8
coponent footprints
 62
256
370
-1
 48
1.0
  6
BYLAYER
100
AcDbCircle
 10
-61.6075360000000103
 20
-45.1270932020474618
 30
0.0
 40
0.6984999999999992
  0
CIRCLE
  5
22D
100
AcDbEntity
  8
coponent footprints
 62
256
370
-1
 48
1.0
  6
BYLAYER
100
AcDbCircle
 10
-107.5465729999999951
 20
-72.5712619999999617
 30
0.0
 40
0.6984999999999992
  0
CIRCLE
  5
22E
100
AcDbEntity
  8
coponent footprints
 62
256
370
-1
 48
1.0
  6
BYLAYER
100
AcDbCircle
 10
-56.8450359999999932
 20
-24.9434589999999474
 30
0.0
 40
0.6984999999999992
  0
CIRCLE
  5
22F
100
AcDbEntity
  8
coponent footprints
 62
256
370
-1
 48
1.0
  6
BYLAYER
100
AcDbCircle
 10
-61.6075360000000103
 20
-45.1270932020474618
 30
0.0
 40
0.6984999999999992
  0
CIRCLE
  5
230
100
AcDbEntity
  8
coponent footprints
 62
256
370
-1
 48
1.0
  6
BYLAYER
100
AcDbCircle
 10
-43.8859999999999673
 20
-41.9099999999999113
 30
0.0
 40
0.6984999999999992
  0
CIRCLE
  5
231
100
AcDbEntity
  8
coponent footprints
 62
256
370
-1
 48
1.0
  6
BYLAYER
100
AcDbCircle
 10
-18.0264999999999702
 20
-22.8599999999999568
 30
0.0
 40
0.6984999999999992
  0
CIRCLE
  5
232
100
AcDbEntity
  8
coponent footprints
 62
256
370
-1
 48
1.0
  6
BYLAYER
100
AcDbCircle
 10
-8.501499999999993
 20
-60.9599999999999156
 30
0.0
 40
0.6984999999999992
  0
CIRCLE
  5
233
100
AcDbEntity
  8
coponent footprints
 62
256
370
-1
 48
1.0
  6
BYLAYER
100
AcDbCircle
 10
-22.7889999999999873
 20
-41.9099999999999397
 30
0.0
 40
0.6984999999999992
  0
CIRCLE
  5
234
100
AcDbEntity
  8
coponent footprints
 62
256
370
-1
 48
1.0
  6
BYLAYER
100
AcDbCircle
 10
-24.8359999999999843
 20
-41.9099999999999397
 30
0.0
 40
0.6984999999999992
  0
CIRCLE
  5
235
100
AcDbEntity
  8
coponent footprints
 62
256
370
-1
 48
1.0
  6
BYLAYER
100
AcDbCircle
 10
-77.0885030000000029
 20
-6.3918589999999682
 30
0.0
 40
0.4
  0
CIRCLE
  5
236
100
AcDbEntity
  8
coponent footprints
 62
256
370
-1
 48
1.0
  6
BYLAYER
100
AcDbCircle
 10
-78.3040399999999863
 20
0.501796000000013
 30
0.0
 40
0.4
  0
CIRCLE
  5
237
100
AcDbEntity
  8
coponent footprints
 62
256
370
-1
 48
1.0
  6
BYLAYER
100
AcDbCircle
 10
-97.7053122690441853
 20
-24.4106766750418274
 30
0.0
 40
0.6984999999999992
  0
CIRCLE
  5
238
100
AcDbEntity
  8
coponent footprints
 62
256
370
-1
 48
1.0
  6
BYLAYER
100
AcDbCircle
 10
-96.3821131552221573
 20
-31.9149117529948256
 30
0.0
 40
0.6984999999999992
  0
CIRCLE
  5
239
100
AcDbEntity
  8
coponent footprints
 62
256
370
-1
 48
1.0
  6
BYLAYER
100
AcDbCircle
 10
-95.6894107986281881
 20
-24.0552188553575945
 30
0.0
 40
0.6984999999999992
  0
CIRCLE
  5
23A
100
AcDbEntity
  8
coponent footprints
 62
256
370
-1
 48
1.0
  6
BYLAYER
100
AcDbCircle
 10
-94.3662116848061885
 20
-31.5594539333106212
 30
0.0
 40
0.6984999999999992
  0
CIRCLE
  5
23B
100
AcDbEntity
  8
coponent footprints
 62
256
370
-1
 48
1.0
  6
BYLAYER
100
AcDbCircle
 10
-99.1287116848062055
 20
-51.7430881353581356
 30
0.0
 40
0.6984999999999992
  0
CIRCLE
  5
23C
100
AcDbEntity
  8
coponent footprints
 62
256
370
-1
 48
1.0
  6
BYLAYER
100
AcDbCircle
 10
-101.1446131552221743
 20
-52.09854595504234
 30
0.0
 40
0.6984999999999992
  0
CIRCLE
  5
23D
100
AcDbEntity
  8
coponent footprints
 62
256
370
-1
 48
1.0
  6
BYLAYER
100
AcDbCircle
 10
-60.1841368792790377
 20
-17.7946811059317724
 30
0.0
 40
0.6984999999999992
  0
CIRCLE
  5
23E
100
AcDbEntity
  8
coponent footprints
 62
256
370
-1
 48
1.0
  6
BYLAYER
100
AcDbCircle
 10
-58.1682354088630404
 20
-17.4392232862475538
 30
0.0
 40
0.6984999999999992
  0
CIRCLE
  5
23F
100
AcDbEntity
  8
coponent footprints
 62
256
370
-1
 48
1.0
  6
BYLAYER
100
AcDbCircle
 10
-66.3287860184446743
 20
-57.5659024490006175
 30
0.0
 40
0.6984999999999992
  0
CIRCLE
  5
240
100
AcDbEntity
  8
coponent footprints
 62
256
370
-1
 48
1.0
  6
BYLAYER
100
AcDbCircle
 10
-65.0055869046226746
 20
-65.07013752695363
 30
0.0
 40
0.6984999999999992
  0
CIRCLE
  5
241
100
AcDbEntity
  8
coponent footprints
 62
256
370
-1
 48
1.0
  6
BYLAYER
100
AcDbCircle
 10
-64.312884548028677
 20
-57.2104446293164131
 30
0.0
 40
0.6984999999999992
  0
CIRCLE
  5
242
100
AcDbEntity
  8
coponent footprints
 62
256
370
-1
 48
1.0
  6
BYLAYER
100
AcDbCircle
 10
-108.8697729999999808
 20
-65.0670259999999416
 30
0.0
 40
0.6984999999999992
  0
CIRCLE
  5
243
100
AcDbEntity
  8
coponent footprints
 62
256
370
-1
 48
1.0
  6
BYLAYER
100
AcDbCircle
 10
-62.9896854342066277
 20
-64.714679707269454
 30
0.0
 40
0.6984999999999992
  0
CIRCLE
  5
244
100
AcDbEntity
  8
coponent footprints
 62
256
370
-1
 48
1.0
  6
BYLAYER
100
AcDbCircle
 10
-102.4678122690442024
 20
-44.5943108770893275
 30
0.0
 40
0.6984999999999992
  0
CIRCLE
  5
245
100
AcDbEntity
  8
coponent footprints
 62
256
370
-1
 48
1.0
  6
BYLAYER
100
AcDbCircle
 10
-101.1446131552221743
 20
-52.09854595504234
 30
0.0
 40
0.6984999999999992
  0
CIRCLE
  5
246
100
AcDbEntity
  8
coponent footprints
 62
256
370
-1
 48
1.0
  6
BYLAYER
100
AcDbCircle
 10
-100.4519107986282052
 20
-44.2388530574051231
 30
0.0
 40
0.6984999999999992
  0
CIRCLE
  5
247
100
AcDbEntity
  8
coponent footprints
 62
256
370
-1
 48
1.0
  6
BYLAYER
100
AcDbCircle
 10
-99.1287116848062055
 20
-51.7430881353581356
 30
0.0
 40
0.6984999999999992
  0
CIRCLE
  5
248
100
AcDbEntity
  8
coponent footprints
 62
256
370
-1
 48
1.0
  6
BYLAYER
100
AcDbCircle
 10
-119.5744010716492483
 20
-57.2826025090856206
 30
0.0
 40
0.6984999999999992
  0
CIRCLE
  5
249
100
AcDbEntity
  8
coponent footprints
 62
256
370
-1
 48
1.0
  6
BYLAYER
100
AcDbCircle
 10
-118.2512019578272202
 20
-64.7868375870386899
 30
0.0
 40
0.6984999999999992
  0
CIRCLE
  5
24A
100
AcDbEntity
  8
coponent footprints
 62
256
370
-1
 48
1.0
  6
BYLAYER
100
AcDbCircle
 10
-117.558499601233251
 20
-56.9271446894014446
 30
0.0
 40
0.6984999999999992
  0
CIRCLE
  5
24B
100
AcDbEntity
  8
coponent footprints
 62
256
370
-1
 48
1.0
  6
BYLAYER
100
AcDbCircle
 10
-116.2353004874112514
 20
-64.431379767354457
 30
0.0
 40
0.6984999999999992
  0
CIRCLE
  5
24C
100
AcDbEntity
  8
coponent footprints
 62
256
370
-1
 48
1.0
  6
BYLAYER
100
AcDbCircle
 10
-36.1949999999999932
 20
-22.2249999999999659
 30
0.0
 40
0.8763000000000005
  0
CIRCLE
  5
24D
100
AcDbEntity
  8
coponent footprints
 62
256
370
-1
 48
1.0
  6
BYLAYER
100
AcDbCircle
 10
-20.9549999999999841
 20
-22.2249999999999659
 30
0.0
 40
0.8763000000000005
  0
CIRCLE
  5
24E
100
AcDbEntity
  8
coponent footprints
 62
256
370
-1
 48
1.0
  6
BYLAYER
100
AcDbCircle
 10
-36.1950000000000216
 20
-19.6849999999999739
 30
0.0
 40
0.8763000000000005
  0
CIRCLE
  5
24F
100
AcDbEntity
  8
coponent footprints
 62
256
370
-1
 48
1.0
  6
BYLAYER
100
AcDbCircle
 10
-20.9549999999999557
 20
-19.6849999999999739
 30
0.0
 40
0.8763000000000005
  0
CIRCLE
  5
250
100
AcDbEntity
  8
coponent footprints
 62
256
370
-1
 48
1.0
  6
BYLAYER
100
AcDbCircle
 10
-36.1949999999999932
 20
-17.1449999999999676
 30
0.0
 40
0.8762999999999987
  0
CIRCLE
  5
251
100
AcDbEntity
  8
coponent footprints
 62
256
370
-1
 48
1.0
  6
BYLAYER
100
AcDbCircle
 10
-20.9549999999999699
 20
-17.1449999999999676
 30
0.0
 40
0.8762999999999987
  0
CIRCLE
  5
252
100
AcDbEntity
  8
coponent footprints
 62
256
370
-1
 48
1.0
  6
BYLAYER
100
AcDbCircle
 10
-36.1949999999999932
 20
-14.6049999999999773
 30
0.0
 40
0.8762999999999987
  0
CIRCLE
  5
253
100
AcDbEntity
  8
coponent footprints
 62
256
370
-1
 48
1.0
  6
BYLAYER
100
AcDbCircle
 10
-20.9549999999999699
 20
-14.6049999999999773
 30
0.0
 40
0.8762999999999987
  0
CIRCLE
  5
254
100
AcDbEntity
  8
coponent footprints
 62
256
370
-1
 48
1.0
  6
BYLAYER
100
AcDbCircle
 10
-36.1949999999999932
 20
-4.444999999999979
 30
0.0
 40
0.8763
  0
CIRCLE
  5
255
100
AcDbEntity
  8
coponent footprints
 62
256
370
-1
 48
1.0
  6
BYLAYER
100
AcDbCircle
 10
-20.9549999999999841
 20
-4.444999999999979
 30
0.0
 40
0.8763
  0
CIRCLE
  5
256
100
AcDbEntity
  8
coponent footprints
 62
256
370
-1
 48
1.0
  6
BYLAYER
100
AcDbCircle
 10
-36.1949999999999932
 20
-12.0649999999999711
 30
0.0
 40
0.8762999999999987
  0
CIRCLE
  5
257
100
AcDbEntity
  8
coponent footprints
 62
256
370
-1
 48
1.0
  6
BYLAYER
100
AcDbCircle
 10
-20.9549999999999841
 20
-12.0649999999999711
 30
0.0
 40
0.8762999999999987
  0
CIRCLE
  5
258
100
AcDbEntity
  8
coponent footprints
 62
256
370
-1
 48
1.0
  6
BYLAYER
100
AcDbCircle
 10
-36.1949999999999932
 20
-1.9049999999999727
 30
0.0
 40
0.8762999999999987
  0
CIRCLE
  5
259
100
AcDbEntity
  8
coponent footprints
 62
256
370
-1
 48
1.0
  6
BYLAYER
100
AcDbCircle
 10
-20.9549999999999841
 20
-1.9049999999999727
 30
0.0
 40
0.8762999999999987
  0
CIRCLE
  5
25A
100
AcDbEntity
  8
coponent footprints
 62
256
370
-1
 48
1.0
  6
BYLAYER
100
AcDbCircle
 10
-36.1949999999999932
 20
3.1750000000000114
 30
0.0
 40
0.8762999999999987
  0
CIRCLE
  5
25B
100
AcDbEntity
  8
coponent footprints
 62
256
370
-1
 48
1.0
  6
BYLAYER
100
AcDbCircle
 10
-20.9549999999999841
 20
3.1750000000000114
 30
0.0
 40
0.8762999999999987
  0
CIRCLE
  5
25C
100
AcDbEntity
  8
coponent footprints
 62
256
370
-1
 48
1.0
  6
BYLAYER
100
AcDbCircle
 10
-36.1949999999999932
 20
-9.5249999999999773
 30
0.0
 40
0.8762999999999987
  0
CIRCLE
  5
25D
100
AcDbEntity
  8
coponent footprints
 62
256
370
-1
 48
1.0
  6
BYLAYER
100
AcDbCircle
 10
-20.9549999999999699
 20
-9.5249999999999773
 30
0.0
 40
0.8762999999999987
  0
CIRCLE
  5
25E
100
AcDbEntity
  8
coponent footprints
 62
256
370
-1
 48
1.0
  6
BYLAYER
100
AcDbCircle
 10
-36.1949999999999932
 20
0.6350000000000193
 30
0.0
 40
0.8762999999999987
  0
CIRCLE
  5
25F
100
AcDbEntity
  8
coponent footprints
 62
256
370
-1
 48
1.0
  6
BYLAYER
100
AcDbCircle
 10
-20.9549999999999699
 20
0.6350000000000193
 30
0.0
 40
0.8762999999999987
  0
CIRCLE
  5
260
100
AcDbEntity
  8
coponent footprints
 62
256
370
-1
 48
1.0
  6
BYLAYER
100
AcDbCircle
 10
-36.1949999999999932
 20
5.7150000000000034
 30
0.0
 40
0.8762999999999987
  0
CIRCLE
  5
261
100
AcDbEntity
  8
coponent footprints
 62
256
370
-1
 48
1.0
  6
BYLAYER
100
AcDbCircle
 10
-20.9549999999999699
 20
5.7150000000000034
 30
0.0
 40
0.8762999999999987
  0
CIRCLE
  5
262
100
AcDbEntity
  8
coponent footprints
 62
256
370
-1
 48
1.0
  6
BYLAYER
100
AcDbCircle
 10
-36.1949999999999932
 20
-6.9849999999999852
 30
0.0
 40
0.8762999999999987
  0
CIRCLE
  5
263
100
AcDbEntity
  8
coponent footprints
 62
256
370
-1
 48
1.0
  6
BYLAYER
100
AcDbCircle
 10
-20.9549999999999699
 20
-6.9849999999999852
 30
0.0
 40
0.8762999999999987
  0
LINE
  5
264
100
AcDbEntity
  8
coponent footprints
 62
256
370
-1
 48
1.0
  6
BYLAYER
100
AcDbLine
 10
-96.9487081186008197
 20
-32.7240932205742325
 30
0.0
 11
-97.1912946228015073
 21
-31.3483167896161774
 31
0.0
  0
LINE
  5
265
100
AcDbEntity
  8
coponent footprints
 62
256
370
-1
 48
1.0
  6
BYLAYER
100
AcDbLine
 10
-94.9328066481848509
 20
-32.3686354008900139
 30
0.0
 11
-95.1753931523855385
 21
-30.992858969931973
 31
0.0
  0
LINE
  5
266
100
AcDbEntity
  8
coponent footprints
 62
256
370
-1
 48
1.0
  6
BYLAYER
100
AcDbLine
 10
-99.6953066481848964
 20
-52.552269602937514
 30
0.0
 11
-99.937893152385584
 21
-51.1764931719794731
 31
0.0
  0
LINE
  5
267
100
AcDbEntity
  8
coponent footprints
 62
256
370
-1
 48
1.0
  6
BYLAYER
100
AcDbLine
 10
-101.7112081186008652
 20
-52.9077274226217469
 30
0.0
 11
-101.9537946228015528
 21
-51.5319509916636775
 31
0.0
  0
LINE
  5
268
100
AcDbEntity
  8
coponent footprints
 62
256
370
-1
 48
1.0
  6
BYLAYER
100
AcDbLine
 10
-116.8018954507899139
 20
-65.2405612349338639
 30
0.0
 11
-117.0444819549906299
 21
-63.8647848039758159
 31
0.0
  0
LINE
  5
269
100
AcDbEntity
  8
coponent footprints
 62
256
370
-1
 48
1.0
  6
BYLAYER
100
AcDbLine
 10
-39.8220000000000027
 20
-4.5084999999999837
 30
0.0
 11
-39.8220000000000027
 21
-3.1114999999999782
 31
0.0
  0
LINE
  5
26A
100
AcDbEntity
  8
coponent footprints
 62
256
370
-1
 48
1.0
  6
BYLAYER
100
AcDbLine
 10
-39.8220000000000027
 20
-23.5584999999999667
 30
0.0
 11
-39.8220000000000027
 21
-22.1614999999999469
 31
0.0
  0
LINE
  5
26B
100
AcDbEntity
  8
coponent footprints
 62
256
370
-1
 48
1.0
  6
BYLAYER
100
AcDbLine
 10
-57.4116309633786699
 20
-25.7526404675793543
 30
0.0
 11
-57.6542174675793717
 21
-24.3768640366212708
 31
0.0
  0
LINE
  5
26C
100
AcDbEntity
  8
coponent footprints
 62
256
370
-1
 48
1.0
  6
BYLAYER
100
AcDbLine
 10
-62.1741309633786869
 20
-45.9362746696268403
 30
0.0
 11
-62.4167174675793888
 21
-44.5604982386687709
 31
0.0
  0
LINE
  5
26D
100
AcDbEntity
  8
coponent footprints
 62
256
370
-1
 48
1.0
  6
BYLAYER
100
AcDbLine
 10
-108.1131682817668889
 20
-73.3804433730551864
 30
0.0
 11
-108.3557547859676049
 21
-72.0046669420970886
 31
0.0
  0
LINE
  5
26E
100
AcDbEntity
  8
coponent footprints
 62
256
370
-1
 48
1.0
  6
BYLAYER
100
AcDbLine
 10
-44.5844999999999629
 20
-42.6084999999999354
 30
0.0
 11
-44.5844999999999629
 21
-41.2114999999999156
 31
0.0
  0
LINE
  5
26F
100
AcDbEntity
  8
coponent footprints
 62
256
370
-1
 48
1.0
  6
BYLAYER
100
AcDbLine
 10
-17.328000000000003
 20
-22.1614999999999895
 30
0.0
 11
-17.328000000000003
 21
-23.5584999999999667
 31
0.0
  0
LINE
  5
270
100
AcDbEntity
  8
coponent footprints
 62
256
370
-1
 48
1.0
  6
BYLAYER
100
AcDbLine
 10
-25.53449999999998
 20
-42.6084999999999638
 30
0.0
 11
-25.53449999999998
 21
-41.2114999999999156
 31
0.0
  0
LINE
  5
271
100
AcDbEntity
  8
coponent footprints
 62
256
370
-1
 48
1.0
  6
BYLAYER
100
AcDbLine
 10
-23.4874999999999829
 20
-42.6084999999999638
 30
0.0
 11
-23.4874999999999829
 21
-41.2114999999999156
 31
0.0
  0
LINE
  5
272
100
AcDbEntity
  8
coponent footprints
 62
256
370
-1
 48
1.0
  6
BYLAYER
100
AcDbLine
 10
-97.1912946228015073
 20
-31.3483167896161774
 30
0.0
 11
-95.8155181918434664
 21
-31.1057302854154472
 31
0.0
  0
LINE
  5
273
100
AcDbEntity
  8
coponent footprints
 62
256
370
-1
 48
1.0
  6
BYLAYER
100
AcDbLine
 10
-96.9487081186008197
 20
-32.7240932205742325
 30
0.0
 11
-95.5729316876427504
 21
-32.4815067163735449
 31
0.0
  0
LINE
  5
274
100
AcDbEntity
  8
coponent footprints
 62
256
370
-1
 48
1.0
  6
BYLAYER
100
AcDbLine
 10
-95.1753931523855385
 20
-30.992858969931973
 30
0.0
 11
-93.7996167214274976
 21
-30.7502724657312854
 31
0.0
  0
LINE
  5
275
100
AcDbEntity
  8
coponent footprints
 62
256
370
-1
 48
1.0
  6
BYLAYER
100
AcDbLine
 10
-99.937893152385584
 20
-51.1764931719794731
 30
0.0
 11
-98.5621167214275431
 21
-50.9339066677787855
 31
0.0
  0
LINE
  5
276
100
AcDbEntity
  8
coponent footprints
 62
256
370
-1
 48
1.0
  6
BYLAYER
100
AcDbLine
 10
-101.9537946228015528
 20
-51.5319509916636775
 30
0.0
 11
-100.5780181918435119
 21
-51.2893644874629615
 31
0.0
  0
LINE
  5
277
100
AcDbEntity
  8
coponent footprints
 62
256
370
-1
 48
1.0
  6
BYLAYER
100
AcDbLine
 10
-94.9328066481848509
 20
-32.3686354008900139
 30
0.0
 11
-93.5570302172267816
 21
-32.1260488966893263
 31
0.0
  0
LINE
  5
278
100
AcDbEntity
  8
coponent footprints
 62
256
370
-1
 48
1.0
  6
BYLAYER
100
AcDbLine
 10
-99.6953066481848964
 20
-52.552269602937514
 30
0.0
 11
-98.3195302172268271
 21
-52.3096830987368264
 31
0.0
  0
LINE
  5
279
100
AcDbEntity
  8
coponent footprints
 62
256
370
-1
 48
1.0
  6
BYLAYER
100
AcDbLine
 10
-101.7112081186008652
 20
-52.9077274226217469
 30
0.0
 11
-100.3354316876427959
 21
-52.6651409184210308
 31
0.0
  0
LINE
  5
27A
100
AcDbEntity
  8
coponent footprints
 62
256
370
-1
 48
1.0
  6
BYLAYER
100
AcDbLine
 10
-117.0444819549906299
 20
-63.8647848039758159
 30
0.0
 11
-115.6687055240325606
 21
-63.6221982997750999
 31
0.0
  0
LINE
  5
27B
100
AcDbEntity
  8
coponent footprints
 62
256
370
-1
 48
1.0
  6
BYLAYER
100
AcDbLine
 10
-116.8018954507899139
 20
-65.2405612349338639
 30
0.0
 11
-115.4261190198318729
 21
-64.9979747307331479
 31
0.0
  0
LINE
  5
27C
100
AcDbEntity
  8
coponent footprints
 62
256
370
-1
 48
1.0
  6
BYLAYER
100
AcDbLine
 10
-39.8220000000000027
 20
-3.1114999999999782
 30
0.0
 11
-38.4250000000000114
 21
-3.1114999999999782
 31
0.0
  0
LINE
  5
27D
100
AcDbEntity
  8
coponent footprints
 62
256
370
-1
 48
1.0
  6
BYLAYER
100
AcDbLine
 10
-39.8220000000000027
 20
-22.1614999999999469
 30
0.0
 11
-38.4250000000000114
 21
-22.1614999999999611
 31
0.0
  0
LINE
  5
27E
100
AcDbEntity
  8
coponent footprints
 62
256
370
-1
 48
1.0
  6
BYLAYER
100
AcDbLine
 10
-57.6542174675793717
 20
-24.3768640366212708
 30
0.0
 11
-56.2784410366213024
 21
-24.1342775324205832
 31
0.0
  0
LINE
  5
27F
100
AcDbEntity
  8
coponent footprints
 62
256
370
-1
 48
1.0
  6
BYLAYER
100
AcDbLine
 10
-62.4167174675793888
 20
-44.5604982386687709
 30
0.0
 11
-61.0409410366213194
 21
-44.3179117344680833
 31
0.0
  0
LINE
  5
280
100
AcDbEntity
  8
coponent footprints
 62
256
370
-1
 48
1.0
  6
BYLAYER
100
AcDbLine
 10
-108.3557547859676049
 20
-72.0046669420970886
 30
0.0
 11
-106.9799783550095356
 21
-71.762080437896401
 31
0.0
  0
LINE
  5
281
100
AcDbEntity
  8
coponent footprints
 62
256
370
-1
 48
1.0
  6
BYLAYER
100
AcDbLine
 10
-44.5844999999999629
 20
-41.2114999999999156
 30
0.0
 11
-43.1874999999999716
 21
-41.2114999999999441
 31
0.0
  0
LINE
  5
282
100
AcDbEntity
  8
coponent footprints
 62
256
370
-1
 48
1.0
  6
BYLAYER
100
AcDbLine
 10
-17.328000000000003
 20
-23.5584999999999667
 30
0.0
 11
-18.7249999999999943
 21
-23.5584999999999809
 31
0.0
  0
LINE
  5
283
100
AcDbEntity
  8
coponent footprints
 62
256
370
-1
 48
1.0
  6
BYLAYER
100
AcDbLine
 10
-25.53449999999998
 20
-41.2114999999999156
 30
0.0
 11
-24.1374999999999886
 21
-41.2114999999999725
 31
0.0
  0
LINE
  5
284
100
AcDbEntity
  8
coponent footprints
 62
256
370
-1
 48
1.0
  6
BYLAYER
100
AcDbLine
 10
-23.4874999999999829
 20
-41.2114999999999156
 30
0.0
 11
-22.0904999999999774
 21
-41.2114999999999156
 31
0.0
  0
LINE
  5
285
100
AcDbEntity
  8
coponent footprints
 62
256
370
-1
 48
1.0
  6
BYLAYER
100
AcDbLine
 10
-39.8220000000000027
 20
-4.5084999999999837
 30
0.0
 11
-38.4250000000000114
 21
-4.5084999999999837
 31
0.0
  0
LINE
  5
286
100
AcDbEntity
  8
coponent footprints
 62
256
370
-1
 48
1.0
  6
BYLAYER
100
AcDbLine
 10
-39.8220000000000027
 20
-23.5584999999999667
 30
0.0
 11
-38.4250000000000114
 21
-23.5584999999999525
 31
0.0
  0
LINE
  5
287
100
AcDbEntity
  8
coponent footprints
 62
256
370
-1
 48
1.0
  6
BYLAYER
100
AcDbLine
 10
-57.4116309633786699
 20
-25.7526404675793543
 30
0.0
 11
-56.0358545324206148
 21
-25.5100539633786383
 31
0.0
  0
LINE
  5
288
100
AcDbEntity
  8
coponent footprints
 62
256
370
-1
 48
1.0
  6
BYLAYER
100
AcDbLine
 10
-108.1131682817668889
 20
-73.3804433730551864
 30
0.0
 11
-106.7373918508088479
 21
-73.1378568688544703
 31
0.0
  0
LINE
  5
289
100
AcDbEntity
  8
coponent footprints
 62
256
370
-1
 48
1.0
  6
BYLAYER
100
AcDbLine
 10
-44.5844999999999629
 20
-42.6084999999999354
 30
0.0
 11
-43.1874999999999716
 21
-42.6084999999999354
 31
0.0
  0
LINE
  5
28A
100
AcDbEntity
  8
coponent footprints
 62
256
370
-1
 48
1.0
  6
BYLAYER
100
AcDbLine
 10
-17.328000000000003
 20
-22.1614999999999895
 30
0.0
 11
-18.7249999999999943
 21
-22.1614999999999895
 31
0.0
  0
LINE
  5
28B
100
AcDbEntity
  8
coponent footprints
 62
256
370
-1
 48
1.0
  6
BYLAYER
100
AcDbLine
 10
-25.53449999999998
 20
-42.6084999999999638
 30
0.0
 11
-24.1374999999999886
 21
-42.6084999999999354
 31
0.0
  0
LINE
  5
28C
100
AcDbEntity
  8
coponent footprints
 62
256
370
-1
 48
1.0
  6
BYLAYER
100
AcDbLine
 10
-23.4874999999999829
 20
-42.6084999999999638
 30
0.0
 11
-22.0904999999999774
 21
-42.6084999999999354
 31
0.0
  0
LINE
  5
28D
100
AcDbEntity
  8
coponent footprints
 62
256
370
-1
 48
1.0
  6
BYLAYER
100
AcDbLine
 10
-95.5729316876427504
 20
-32.4815067163735449
 30
0.0
 11
-95.8155181918434664
 21
-31.1057302854154472
 31
0.0
  0
LINE
  5
28E
100
AcDbEntity
  8
coponent footprints
 62
256
370
-1
 48
1.0
  6
BYLAYER
100
AcDbLine
 10
-98.3195302172268271
 20
-52.3096830987368264
 30
0.0
 11
-98.5621167214275431
 21
-50.9339066677787855
 31
0.0
  0
LINE
  5
28F
100
AcDbEntity
  8
coponent footprints
 62
256
370
-1
 48
1.0
  6
BYLAYER
100
AcDbLine
 10
-100.3354316876427959
 20
-52.6651409184210308
 30
0.0
 11
-100.5780181918435119
 21
-51.2893644874629615
 31
0.0
  0
LINE
  5
290
100
AcDbEntity
  8
coponent footprints
 62
256
370
-1
 48
1.0
  6
BYLAYER
100
AcDbLine
 10
-115.4261190198318729
 20
-64.9979747307331479
 30
0.0
 11
-115.6687055240325606
 21
-63.6221982997750999
 31
0.0
  0
LINE
  5
291
100
AcDbEntity
  8
coponent footprints
 62
256
370
-1
 48
1.0
  6
BYLAYER
100
AcDbLine
 10
-38.4250000000000114
 20
-4.5084999999999837
 30
0.0
 11
-38.4250000000000114
 21
-3.1114999999999782
 31
0.0
  0
LINE
  5
292
100
AcDbEntity
  8
coponent footprints
 62
256
370
-1
 48
1.0
  6
BYLAYER
100
AcDbLine
 10
-38.4250000000000114
 20
-23.5584999999999525
 30
0.0
 11
-38.4250000000000114
 21
-22.1614999999999611
 31
0.0
  0
LINE
  5
293
100
AcDbEntity
  8
coponent footprints
 62
256
370
-1
 48
1.0
  6
BYLAYER
100
AcDbLine
 10
-56.0358545324206148
 20
-25.5100539633786383
 30
0.0
 11
-56.2784410366213024
 21
-24.1342775324205832
 31
0.0
  0
LINE
  5
294
100
AcDbEntity
  8
coponent footprints
 62
256
370
-1
 48
1.0
  6
BYLAYER
100
AcDbLine
 10
-60.7983545324206318
 20
-45.6936881654261526
 30
0.0
 11
-61.0409410366213194
 21
-44.3179117344680833
 31
0.0
  0
LINE
  5
295
100
AcDbEntity
  8
coponent footprints
 62
256
370
-1
 48
1.0
  6
BYLAYER
100
AcDbLine
 10
-106.7373918508088479
 20
-73.1378568688544703
 30
0.0
 11
-106.9799783550095356
 21
-71.762080437896401
 31
0.0
  0
LINE
  5
296
100
AcDbEntity
  8
coponent footprints
 62
256
370
-1
 48
1.0
  6
BYLAYER
100
AcDbLine
 10
-43.1874999999999716
 20
-42.6084999999999354
 30
0.0
 11
-43.1874999999999716
 21
-41.2114999999999441
 31
0.0
  0
LINE
  5
297
100
AcDbEntity
  8
coponent footprints
 62
256
370
-1
 48
1.0
  6
BYLAYER
100
AcDbLine
 10
-18.7249999999999943
 20
-22.1614999999999895
 30
0.0
 11
-18.7249999999999943
 21
-23.5584999999999809
 31
0.0
  0
LINE
  5
298
100
AcDbEntity
  8
coponent footprints
 62
256
370
-1
 48
1.0
  6
BYLAYER
100
AcDbLine
 10
-24.1374999999999886
 20
-42.6084999999999354
 30
0.0
 11
-24.1374999999999886
 21
-41.2114999999999725
 31
0.0
  0
LINE
  5
299
100
AcDbEntity
  8
coponent footprints
 62
256
370
-1
 48
1.0
  6
BYLAYER
100
AcDbLine
 10
-22.0904999999999774
 20
-42.6084999999999354
 30
0.0
 11
-22.0904999999999774
 21
-41.2114999999999156
 31
0.0
  0
LINE
  5
29A
100
AcDbEntity
  8
coponent footprints
 62
256
370
-1
 48
1.0
  6
BYLAYER
100
AcDbLine
 10
-73.7230321620568247
 20
-7.6262030084688632
 30
0.0
 11
-73.7924914331236153
 21
-7.2322799072640009
 31
0.0
  0
LINE
  5
29B
100
AcDbEntity
  8
coponent footprints
 62
256
370
-1
 48
1.0
  6
BYLAYER
100
AcDbLine
 10
-78.0621351620568191
 20
-9.5082730084688478
 30
0.0
 11
-78.1315944331236096
 21
-9.1143499072639713
 31
0.0
  0
LINE
  5
29C
100
AcDbEntity
  8
coponent footprints
 62
256
370
-1
 48
1.0
  6
BYLAYER
100
AcDbLine
 10
-79.4686851620568291
 20
-1.5313300084688848
 30
0.0
 11
-79.5381444331235912
 21
-1.1374069072640225
 31
0.0
  0
LINE
  5
29D
100
AcDbEntity
  8
coponent footprints
 62
256
370
-1
 48
1.0
  6
BYLAYER
100
AcDbLine
 10
-75.3681838379431497
 20
-7.5101169915310777
 30
0.0
 11
-75.2987245668763876
 21
-7.9040400927359542
 31
0.0
  0
LINE
  5
29E
100
AcDbEntity
  8
coponent footprints
 62
256
370
-1
 48
1.0
  6
BYLAYER
100
AcDbLine
 10
-81.113836837943154
 20
-1.4152439915310993
 30
0.0
 11
-81.0443775668763635
 21
-1.8091670927359758
 31
0.0
  0
ARC
  5
29F
100
AcDbEntity
  8
coponent footprints
 62
256
370
-1
 48
1.0
  6
BYLAYER
100
AcDbCircle
 10
-74.5108783644665778
 20
-7.7651215506024016
 30
0.0
 40
0.7999999999999998
100
AcDbArc
 50
279.9999999999985789
 51
9.9999999999999396
  0
ARC
  5
2A0
100
AcDbEntity
  8
coponent footprints
 62
256
370
-1
 48
1.0
  6
BYLAYER
100
AcDbCircle
 10
-78.8499813644665721
 20
-9.6471915506023862
 30
0.0
 40
0.7999999999999998
100
AcDbArc
 50
279.9999999999985789
 51
9.9999999999999396
  0
ARC
  5
2A1
100
AcDbEntity
  8
coponent footprints
 62
256
370
-1
 48
1.0
  6
BYLAYER
100
AcDbCircle
 10
-80.2565313644665821
 20
-1.6702485506024232
 30
0.0
 40
0.7999999999999998
100
AcDbArc
 50
279.9999999999985789
 51
9.9999999999999396
  0
ARC
  5
2A2
100
AcDbEntity
  8
coponent footprints
 62
256
370
-1
 48
1.0
  6
BYLAYER
100
AcDbCircle
 10
-74.5803376355333683
 20
-7.3711984493975251
 30
0.0
 40
0.8000000000000013
100
AcDbArc
 50
10.0000000000001243
 51
100.000000000000469
  0
ARC
  5
2A3
100
AcDbEntity
  8
coponent footprints
 62
256
370
-1
 48
1.0
  6
BYLAYER
100
AcDbCircle
 10
-78.9194406355333626
 20
-9.2532684493975239
 30
0.0
 40
0.8000000000000013
100
AcDbArc
 50
10.0000000000001243
 51
100.000000000000469
  0
ARC
  5
2A4
100
AcDbEntity
  8
coponent footprints
 62
256
370
-1
 48
1.0
  6
BYLAYER
100
AcDbCircle
 10
-80.3259906355333726
 20
-1.2763254493975467
 30
0.0
 40
0.8000000000000013
100
AcDbArc
 50
10.0000000000001243
 51
100.000000000000469
  0
ARC
  5
2A5
100
AcDbEntity
  8
coponent footprints
 62
256
370
-1
 48
1.0
  6
BYLAYER
100
AcDbCircle
 10
-74.5803376355333967
 20
-7.3711984493975393
 30
0.0
 40
0.8000000000000076
100
AcDbArc
 50
99.9999999999994884
 51
189.9999999999993747
  0
ARC
  5
2A6
100
AcDbEntity
  8
coponent footprints
 62
256
370
-1
 48
1.0
  6
BYLAYER
100
AcDbCircle
 10
-78.9194406355333911
 20
-9.2532684493975381
 30
0.0
 40
0.8000000000000076
100
AcDbArc
 50
99.9999999999994884
 51
189.9999999999993747
  0
ARC
  5
2A7
100
AcDbEntity
  8
coponent footprints
 62
256
370
-1
 48
1.0
  6
BYLAYER
100
AcDbCircle
 10
-80.3259906355333726
 20
-1.2763254493975467
 30
0.0
 40
0.8000000000000076
100
AcDbArc
 50
99.9999999999994884
 51
189.9999999999993747
  0
ARC
  5
2A8
100
AcDbEntity
  8
coponent footprints
 62
256
370
-1
 48
1.0
  6
BYLAYER
100
AcDbCircle
 10
-74.5108783644666062
 20
-7.7651215506024016
 30
0.0
 40
0.8000000000000176
100
AcDbArc
 50
190.0000000000009663
 51
280.0000000000005684
  0
ARC
  5
2A9
100
AcDbEntity
  8
coponent footprints
 62
256
370
-1
 48
1.0
  6
BYLAYER
100
AcDbCircle
 10
-78.8499813644666006
 20
-9.6471915506023862
 30
0.0
 40
0.8000000000000176
100
AcDbArc
 50
190.0000000000009663
 51
280.0000000000005684
  0
ARC
  5
2AA
100
AcDbEntity
  8
coponent footprints
 62
256
370
-1
 48
1.0
  6
BYLAYER
100
AcDbCircle
 10
-80.2565313644666105
 20
-1.6702485506024232
 30
0.0
 40
0.8000000000000176
100
AcDbArc
 50
190.0000000000009663
 51
280.0000000000005684
  0
CIRCLE
  5
2AB
100
AcDbEntity
  8
coponent footprints
 62
256
370
-1
 48
1.0
  6
BYLAYER
100
AcDbCircle
 10
-79.367982119284477
 20
-12.808164480318057
 30
0.0
 40
0.3999999999999992
  0
LINE
  5
2AC
100
AcDbEntity
  8
coponent footprints
 62
256
370
-1
 48
1.0
  6
BYLAYER
100
AcDbLine
 10
-108.817910095948946
 20
-60.8794009026244325
 30
0.0
 11
-107.3406984664306663
 21
-60.6189286361240178
 31
0.0
  0
LINE
  5
2AD
100
AcDbEntity
  8
coponent footprints
 62
256
370
-1
 48
1.0
  6
BYLAYER
100
AcDbLine
 10
1.75
 20
-49.2249999999999943
 30
0.0
 11
3.2499999999999716
 21
-49.2249999999999943
 31
0.0
  0
LINE
  5
2AE
100
AcDbEntity
  8
coponent footprints
 62
256
370
-1
 48
1.0
  6
BYLAYER
100
AcDbLine
 10
1.75
 20
-11.1249999999999716
 30
0.0
 11
3.2499999999999716
 21
-11.1249999999999716
 31
0.0
  0
LINE
  5
2AF
100
AcDbEntity
  8
coponent footprints
 62
256
370
-1
 48
1.0
  6
BYLAYER
100
AcDbLine
 10
-108.7397684159988103
 20
-61.3225643914799079
 30
0.0
 11
-107.2625567864805021
 21
-61.0620921249795501
 31
0.0
  0
LINE
  5
2B0
100
AcDbEntity
  8
coponent footprints
 62
256
370
-1
 48
1.0
  6
BYLAYER
100
AcDbLine
 10
1.75
 20
-49.6749999999999829
 30
0.0
 11
3.25
 21
-49.6749999999999829
 31
0.0
  0
LINE
  5
2B1
100
AcDbEntity
  8
coponent footprints
 62
256
370
-1
 48
1.0
  6
BYLAYER
100
AcDbLine
 10
1.75
 20
-11.5749999999999904
 30
0.0
 11
3.25
 21
-11.5749999999999904
 31
0.0
  0
LINE
  5
2B2
100
AcDbEntity
  8
coponent footprints
 62
256
370
-1
 48
1.0
  6
BYLAYER
100
AcDbLine
 10
-108.8960517758990818
 20
-60.4362374137689571
 30
0.0
 11
-107.4188401463807736
 21
-60.1757651472685424
 31
0.0
  0
LINE
  5
2B3
100
AcDbEntity
  8
coponent footprints
 62
256
370
-1
 48
1.0
  6
BYLAYER
100
AcDbLine
 10
1.7499999999999716
 20
-48.7750000000000057
 30
0.0
 11
3.25
 21
-48.7750000000000057
 31
0.0
  0
LINE
  5
2B4
100
AcDbEntity
  8
coponent footprints
 62
256
370
-1
 48
1.0
  6
BYLAYER
100
AcDbLine
 10
1.7499999999999716
 20
-10.6749999999999972
 30
0.0
 11
3.25
 21
-10.6750000000000114
 31
0.0
  0
LINE
  5
2B5
100
AcDbEntity
  8
coponent footprints
 62
256
370
-1
 48
1.0
  6
BYLAYER
100
AcDbLine
 10
-109.373584264483128
 20
-57.7280160929853707
 30
0.0
 11
-107.8963726349648482
 21
-57.4675438264849561
 31
0.0
  0
LINE
  5
2B6
100
AcDbEntity
  8
coponent footprints
 62
256
370
-1
 48
1.0
  6
BYLAYER
100
AcDbLine
 10
1.75
 20
-46.0249999999999773
 30
0.0
 11
3.2499999999999432
 21
-46.0249999999999773
 31
0.0
  0
LINE
  5
2B7
100
AcDbEntity
  8
coponent footprints
 62
256
370
-1
 48
1.0
  6
BYLAYER
100
AcDbLine
 10
1.75
 20
-7.9249999999999829
 30
0.0
 11
3.2499999999999432
 21
-7.9249999999999687
 31
0.0
  0
LINE
  5
2B8
100
AcDbEntity
  8
coponent footprints
 62
256
370
-1
 48
1.0
  6
BYLAYER
100
AcDbLine
 10
-109.2954425845330206
 20
-58.1711795818408461
 30
0.0
 11
-107.8182309550147124
 21
-57.9107073153404599
 31
0.0
  0
LINE
  5
2B9
100
AcDbEntity
  8
coponent footprints
 62
256
370
-1
 48
1.0
  6
BYLAYER
100
AcDbLine
 10
1.7499999999999716
 20
-46.4749999999999943
 30
0.0
 11
3.25
 21
-46.4749999999999659
 31
0.0
  0
LINE
  5
2BA
100
AcDbEntity
  8
coponent footprints
 62
256
370
-1
 48
1.0
  6
BYLAYER
100
AcDbLine
 10
1.7499999999999716
 20
-8.3749999999999716
 30
0.0
 11
3.25
 21
-8.3749999999999716
 31
0.0
  0
LINE
  5
2BB
100
AcDbEntity
  8
coponent footprints
 62
256
370
-1
 48
1.0
  6
BYLAYER
100
AcDbLine
 10
-109.4517259444332637
 20
-57.2848526041298669
 30
0.0
 11
-107.9745143149149271
 21
-57.0243803376294807
 31
0.0
  0
LINE
  5
2BC
100
AcDbEntity
  8
coponent footprints
 62
256
370
-1
 48
1.0
  6
BYLAYER
100
AcDbLine
 10
1.7499999999999716
 20
-45.5749999999999886
 30
0.0
 11
3.25
 21
-45.5749999999999886
 31
0.0
  0
LINE
  5
2BD
100
AcDbEntity
  8
coponent footprints
 62
256
370
-1
 48
1.0
  6
BYLAYER
100
AcDbLine
 10
1.7499999999999716
 20
-7.4749999999999659
 30
0.0
 11
3.25
 21
-7.4749999999999659
 31
0.0
  0
LINE
  5
2BE
100
AcDbEntity
  8
coponent footprints
 62
256
370
-1
 48
1.0
  6
BYLAYER
100
AcDbLine
 10
-113.7419488610099734
 20
-61.7476417909590722
 30
0.0
 11
-112.2647372314916367
 21
-61.4871695244587144
 31
0.0
  0
LINE
  5
2BF
100
AcDbEntity
  8
coponent footprints
 62
256
370
-1
 48
1.0
  6
BYLAYER
100
AcDbLine
 10
-3.2499999999999716
 20
-49.2249999999999943
 30
0.0
 11
-1.7499999999999716
 21
-49.2250000000000227
 31
0.0
  0
LINE
  5
2C0
100
AcDbEntity
  8
coponent footprints
 62
256
370
-1
 48
1.0
  6
BYLAYER
100
AcDbLine
 10
-3.2499999999999716
 20
-11.1249999999999716
 30
0.0
 11
-1.7499999999999716
 21
-11.125
 31
0.0
  0
LINE
  5
2C1
100
AcDbEntity
  8
coponent footprints
 62
256
370
-1
 48
1.0
  6
BYLAYER
100
AcDbLine
 10
-113.6638071810598376
 20
-62.1908052798146045
 30
0.0
 11
-112.1865955515415294
 21
-61.9303330133141898
 31
0.0
  0
LINE
  5
2C2
100
AcDbEntity
  8
coponent footprints
 62
256
370
-1
 48
1.0
  6
BYLAYER
100
AcDbLine
 10
-3.2499999999999716
 20
-49.6750000000000114
 30
0.0
 11
-1.7499999999999716
 21
-49.6749999999999829
 31
0.0
  0
LINE
  5
2C3
100
AcDbEntity
  8
coponent footprints
 62
256
370
-1
 48
1.0
  6
BYLAYER
100
AcDbLine
 10
-3.2499999999999716
 20
-11.5749999999999904
 30
0.0
 11
-1.7499999999999716
 21
-11.5749999999999904
 31
0.0
  0
LINE
  5
2C4
100
AcDbEntity
  8
coponent footprints
 62
256
370
-1
 48
1.0
  6
BYLAYER
100
AcDbLine
 10
-113.8200905409600523
 20
-61.3044783021035968
 30
0.0
 11
-112.3428789114417441
 21
-61.0440060356031822
 31
0.0
  0
LINE
  5
2C5
100
AcDbEntity
  8
coponent footprints
 62
256
370
-1
 48
1.0
  6
BYLAYER
100
AcDbLine
 10
-3.2499999999999716
 20
-48.7750000000000057
 30
0.0
 11
-1.7499999999999716
 21
-48.7750000000000057
 31
0.0
  0
LINE
  5
2C6
100
AcDbEntity
  8
coponent footprints
 62
256
370
-1
 48
1.0
  6
BYLAYER
100
AcDbLine
 10
-3.2499999999999716
 20
-10.6749999999999829
 30
0.0
 11
-1.7499999999999716
 21
-10.6749999999999972
 31
0.0
  0
LINE
  5
2C7
100
AcDbEntity
  8
coponent footprints
 62
256
370
-1
 48
1.0
  6
BYLAYER
100
AcDbLine
 10
-114.2976230295441269
 20
-58.5962569813200105
 30
0.0
 11
-112.8204114000258187
 21
-58.3357847148196242
 31
0.0
  0
LINE
  5
2C8
100
AcDbEntity
  8
coponent footprints
 62
256
370
-1
 48
1.0
  6
BYLAYER
100
AcDbLine
 10
-3.2499999999999716
 20
-46.0249999999999773
 30
0.0
 11
-1.7499999999999716
 21
-46.0250000000000057
 31
0.0
  0
LINE
  5
2C9
100
AcDbEntity
  8
coponent footprints
 62
256
370
-1
 48
1.0
  6
BYLAYER
100
AcDbLine
 10
-3.2499999999999716
 20
-7.9249999999999829
 30
0.0
 11
-1.7499999999999716
 21
-7.9249999999999829
 31
0.0
  0
LINE
  5
2CA
100
AcDbEntity
  8
coponent footprints
 62
256
370
-1
 48
1.0
  6
BYLAYER
100
AcDbLine
 10
-114.2194813495940195
 20
-59.0394204701755143
 30
0.0
 11
-112.7422697200757113
 21
-58.7789482036750996
 31
0.0
  0
LINE
  5
2CB
100
AcDbEntity
  8
coponent footprints
 62
256
370
-1
 48
1.0
  6
BYLAYER
100
AcDbLine
 10
-3.2499999999999716
 20
-46.4749999999999943
 30
0.0
 11
-1.7499999999999716
 21
-46.4749999999999659
 31
0.0
  0
LINE
  5
2CC
100
AcDbEntity
  8
coponent footprints
 62
256
370
-1
 48
1.0
  6
BYLAYER
100
AcDbLine
 10
-3.2499999999999716
 20
-8.3749999999999716
 30
0.0
 11
-1.7499999999999716
 21
-8.3749999999999716
 31
0.0
  0
LINE
  5
2CD
100
AcDbEntity
  8
coponent footprints
 62
256
370
-1
 48
1.0
  6
BYLAYER
100
AcDbLine
 10
-114.3757647094942627
 20
-58.1530934924645067
 30
0.0
 11
-112.8985530799759545
 21
-57.8926212259641204
 31
0.0
  0
LINE
  5
2CE
100
AcDbEntity
  8
coponent footprints
 62
256
370
-1
 48
1.0
  6
BYLAYER
100
AcDbLine
 10
-3.2499999999999716
 20
-45.5749999999999886
 30
0.0
 11
-1.7499999999999716
 21
-45.5749999999999886
 31
0.0
  0
LINE
  5
2CF
100
AcDbEntity
  8
coponent footprints
 62
256
370
-1
 48
1.0
  6
BYLAYER
100
AcDbLine
 10
-3.2499999999999716
 20
-7.4749999999999659
 30
0.0
 11
-1.7499999999999716
 21
-7.4749999999999943
 31
0.0
  0
LINE
  5
2D0
100
AcDbEntity
  8
coponent footprints
 62
256
370
-1
 48
1.0
  6
BYLAYER
100
AcDbLine
 10
-108.0011626012396846
 20
-61.1923282582297574
 30
0.0
 11
-108.1574459611399277
 21
-60.3060012805187498
 31
0.0
  0
LINE
  5
2D1
100
AcDbEntity
  8
coponent footprints
 62
256
370
-1
 48
1.0
  6
BYLAYER
100
AcDbLine
 10
2.5
 20
-49.6750000000000114
 30
0.0
 11
2.5
 21
-48.7750000000000057
 31
0.0
  0
LINE
  5
2D2
100
AcDbEntity
  8
coponent footprints
 62
256
370
-1
 48
1.0
  6
BYLAYER
100
AcDbLine
 10
2.5
 20
-11.5749999999999904
 30
0.0
 11
2.5
 21
-10.6749999999999972
 31
0.0
  0
LINE
  5
2D3
100
AcDbEntity
  8
coponent footprints
 62
256
370
-1
 48
1.0
  6
BYLAYER
100
AcDbLine
 10
-108.7397684159988103
 20
-61.3225643914799079
 30
0.0
 11
-108.8960517758990818
 21
-60.4362374137689571
 31
0.0
  0
LINE
  5
2D4
100
AcDbEntity
  8
coponent footprints
 62
256
370
-1
 48
1.0
  6
BYLAYER
100
AcDbLine
 10
1.75
 20
-49.6749999999999829
 30
0.0
 11
1.7499999999999716
 21
-48.7750000000000057
 31
0.0
  0
LINE
  5
2D5
100
AcDbEntity
  8
coponent footprints
 62
256
370
-1
 48
1.0
  6
BYLAYER
100
AcDbLine
 10
1.75
 20
-11.5749999999999904
 30
0.0
 11
1.7499999999999716
 21
-10.6749999999999972
 31
0.0
  0
LINE
  5
2D6
100
AcDbEntity
  8
coponent footprints
 62
256
370
-1
 48
1.0
  6
BYLAYER
100
AcDbLine
 10
-107.2625567864805021
 20
-61.0620921249795501
 30
0.0
 11
-107.4188401463807736
 21
-60.1757651472685424
 31
0.0
  0
LINE
  5
2D7
100
AcDbEntity
  8
coponent footprints
 62
256
370
-1
 48
1.0
  6
BYLAYER
100
AcDbLine
 10
3.25
 20
-49.6749999999999829
 30
0.0
 11
3.25
 21
-48.7750000000000057
 31
0.0
  0
LINE
  5
2D8
100
AcDbEntity
  8
coponent footprints
 62
256
370
-1
 48
1.0
  6
BYLAYER
100
AcDbLine
 10
3.25
 20
-11.5749999999999904
 30
0.0
 11
3.25
 21
-10.6750000000000114
 31
0.0
  0
LINE
  5
2D9
100
AcDbEntity
  8
coponent footprints
 62
256
370
-1
 48
1.0
  6
BYLAYER
100
AcDbLine
 10
-108.5568367697738665
 20
-58.0409434485906672
 30
0.0
 11
-108.7131201296740812
 21
-57.154616470879688
 31
0.0
  0
LINE
  5
2DA
100
AcDbEntity
  8
coponent footprints
 62
256
370
-1
 48
1.0
  6
BYLAYER
100
AcDbLine
 10
2.4999999999999716
 20
-46.4749999999999943
 30
0.0
 11
2.5
 21
-45.5749999999999886
 31
0.0
  0
LINE
  5
2DB
100
AcDbEntity
  8
coponent footprints
 62
256
370
-1
 48
1.0
  6
BYLAYER
100
AcDbLine
 10
2.4999999999999716
 20
-8.3749999999999716
 30
0.0
 11
2.5
 21
-7.4749999999999943
 31
0.0
  0
LINE
  5
2DC
100
AcDbEntity
  8
coponent footprints
 62
256
370
-1
 48
1.0
  6
BYLAYER
100
AcDbLine
 10
-109.2954425845330206
 20
-58.1711795818408461
 30
0.0
 11
-109.4517259444332637
 21
-57.2848526041298669
 31
0.0
  0
LINE
  5
2DD
100
AcDbEntity
  8
coponent footprints
 62
256
370
-1
 48
1.0
  6
BYLAYER
100
AcDbLine
 10
1.7499999999999716
 20
-46.4749999999999943
 30
0.0
 11
1.7499999999999716
 21
-45.5749999999999886
 31
0.0
  0
LINE
  5
2DE
100
AcDbEntity
  8
coponent footprints
 62
256
370
-1
 48
1.0
  6
BYLAYER
100
AcDbLine
 10
1.7499999999999716
 20
-8.3749999999999716
 30
0.0
 11
1.7499999999999716
 21
-7.4749999999999659
 31
0.0
  0
LINE
  5
2DF
100
AcDbEntity
  8
coponent footprints
 62
256
370
-1
 48
1.0
  6
BYLAYER
100
AcDbLine
 10
-107.8182309550147124
 20
-57.9107073153404599
 30
0.0
 11
-107.9745143149149271
 21
-57.0243803376294807
 31
0.0
  0
LINE
  5
2E0
100
AcDbEntity
  8
coponent footprints
 62
256
370
-1
 48
1.0
  6
BYLAYER
100
AcDbLine
 10
3.25
 20
-46.4749999999999659
 30
0.0
 11
3.25
 21
-45.5749999999999886
 31
0.0
  0
LINE
  5
2E1
100
AcDbEntity
  8
coponent footprints
 62
256
370
-1
 48
1.0
  6
BYLAYER
100
AcDbLine
 10
3.25
 20
-8.3749999999999716
 30
0.0
 11
3.25
 21
-7.4749999999999659
 31
0.0
  0
LINE
  5
2E2
100
AcDbEntity
  8
coponent footprints
 62
256
370
-1
 48
1.0
  6
BYLAYER
100
AcDbLine
 10
-112.1865955515415294
 20
-61.9303330133141898
 30
0.0
 11
-112.3428789114417441
 21
-61.0440060356031822
 31
0.0
  0
LINE
  5
2E3
100
AcDbEntity
  8
coponent footprints
 62
256
370
-1
 48
1.0
  6
BYLAYER
100
AcDbLine
 10
-1.7499999999999716
 20
-49.6749999999999829
 30
0.0
 11
-1.7499999999999716
 21
-48.7750000000000057
 31
0.0
  0
LINE
  5
2E4
100
AcDbEntity
  8
coponent footprints
 62
256
370
-1
 48
1.0
  6
BYLAYER
100
AcDbLine
 10
-1.7499999999999716
 20
-11.5749999999999904
 30
0.0
 11
-1.7499999999999716
 21
-10.6749999999999972
 31
0.0
  0
LINE
  5
2E5
100
AcDbEntity
  8
coponent footprints
 62
256
370
-1
 48
1.0
  6
BYLAYER
100
AcDbLine
 10
-113.4808755348348654
 20
-58.909184336925307
 30
0.0
 11
-113.637158894735137
 21
-58.0228573592143277
 31
0.0
  0
LINE
  5
2E6
100
AcDbEntity
  8
coponent footprints
 62
256
370
-1
 48
1.0
  6
BYLAYER
100
AcDbLine
 10
-2.4999999999999716
 20
-46.4749999999999659
 30
0.0
 11
-2.5
 21
-45.5749999999999886
 31
0.0
  0
LINE
  5
2E7
100
AcDbEntity
  8
coponent footprints
 62
256
370
-1
 48
1.0
  6
BYLAYER
100
AcDbLine
 10
-2.4999999999999716
 20
-8.3749999999999716
 30
0.0
 11
-2.5
 21
-7.4749999999999659
 31
0.0
  0
LINE
  5
2E8
100
AcDbEntity
  8
coponent footprints
 62
256
370
-1
 48
1.0
  6
BYLAYER
100
AcDbLine
 10
-114.2194813495940195
 20
-59.0394204701755143
 30
0.0
 11
-114.3757647094942627
 21
-58.1530934924645067
 31
0.0
  0
LINE
  5
2E9
100
AcDbEntity
  8
coponent footprints
 62
256
370
-1
 48
1.0
  6
BYLAYER
100
AcDbLine
 10
-3.2499999999999716
 20
-46.4749999999999943
 30
0.0
 11
-3.2499999999999716
 21
-45.5749999999999886
 31
0.0
  0
LINE
  5
2EA
100
AcDbEntity
  8
coponent footprints
 62
256
370
-1
 48
1.0
  6
BYLAYER
100
AcDbLine
 10
-3.2499999999999716
 20
-8.3749999999999716
 30
0.0
 11
-3.2499999999999716
 21
-7.4749999999999659
 31
0.0
  0
LINE
  5
2EB
100
AcDbEntity
  8
coponent footprints
 62
256
370
-1
 48
1.0
  6
BYLAYER
100
AcDbLine
 10
-112.7422697200757113
 20
-58.7789482036750996
 30
0.0
 11
-112.898553079975926
 21
-57.8926212259641204
 31
0.0
  0
LINE
  5
2EC
100
AcDbEntity
  8
coponent footprints
 62
256
370
-1
 48
1.0
  6
BYLAYER
100
AcDbLine
 10
-1.7499999999999716
 20
-46.4749999999999659
 30
0.0
 11
-1.7499999999999716
 21
-45.5749999999999886
 31
0.0
  0
LINE
  5
2ED
100
AcDbEntity
  8
coponent footprints
 62
256
370
-1
 48
1.0
  6
BYLAYER
100
AcDbLine
 10
-1.7499999999999716
 20
-8.3749999999999716
 30
0.0
 11
-1.7499999999999716
 21
-7.4749999999999943
 31
0.0
  0
LINE
  5
2EE
100
AcDbEntity
  8
coponent footprints
 62
256
370
-1
 48
1.0
  6
BYLAYER
100
AcDbLine
 10
-112.904862270949593
 20
-61.6000408399422312
 30
0.0
 11
-108.0793042811897919
 21
-60.7491647693742252
 31
0.0
  0
LINE
  5
2EF
100
AcDbEntity
  8
coponent footprints
 62
256
370
-1
 48
1.0
  6
BYLAYER
100
AcDbLine
 10
-2.3999999999999773
 20
-49.2250000000000227
 30
0.0
 11
2.5
 21
-49.2249999999999943
 31
0.0
  0
LINE
  5
2F0
100
AcDbEntity
  8
coponent footprints
 62
256
370
-1
 48
1.0
  6
BYLAYER
100
AcDbLine
 10
-2.3999999999999773
 20
-11.125
 30
0.0
 11
2.5
 21
-11.1249999999999716
 31
0.0
  0
LINE
  5
2F1
100
AcDbEntity
  8
coponent footprints
 62
256
370
-1
 48
1.0
  6
BYLAYER
100
AcDbLine
 10
-113.5590172147850012
 20
-58.4660208480698316
 30
0.0
 11
-108.6349784497239455
 21
-57.5977799597351634
 31
0.0
  0
LINE
  5
2F2
100
AcDbEntity
  8
coponent footprints
 62
256
370
-1
 48
1.0
  6
BYLAYER
100
AcDbLine
 10
-2.4999999999999716
 20
-46.0250000000000057
 30
0.0
 11
2.5000000000000284
 21
-46.0250000000000057
 31
0.0
  0
LINE
  5
2F3
100
AcDbEntity
  8
coponent footprints
 62
256
370
-1
 48
1.0
  6
BYLAYER
100
AcDbLine
 10
-2.4999999999999716
 20
-7.9249999999999829
 30
0.0
 11
2.5000000000000284
 21
-7.9249999999999829
 31
0.0
  0
LINE
  5
2F4
100
AcDbEntity
  8
coponent footprints
 62
256
370
-1
 48
1.0
  6
BYLAYER
100
AcDbLine
 10
-108.0793042811898204
 20
-60.7491647693742252
 30
0.0
 11
-108.6349784497239739
 21
-57.5977799597351634
 31
0.0
  0
LINE
  5
2F5
100
AcDbEntity
  8
coponent footprints
 62
256
370
-1
 48
1.0
  6
BYLAYER
100
AcDbLine
 10
2.5
 20
-49.2249999999999943
 30
0.0
 11
2.5
 21
-46.0249999999999773
 31
0.0
  0
LINE
  5
2F6
100
AcDbEntity
  8
coponent footprints
 62
256
370
-1
 48
1.0
  6
BYLAYER
100
AcDbLine
 10
2.5
 20
-11.1249999999999716
 30
0.0
 11
2.5
 21
-7.9249999999999829
 31
0.0
  0
LINE
  5
2F7
100
AcDbEntity
  8
coponent footprints
 62
256
370
-1
 48
1.0
  6
BYLAYER
100
AcDbLine
 10
-113.0033430462508193
 20
-61.6174056577088649
 30
0.0
 11
-113.5590172147850012
 21
-58.4660208480698316
 31
0.0
  0
LINE
  5
2F8
100
AcDbEntity
  8
coponent footprints
 62
256
370
-1
 48
1.0
  6
BYLAYER
100
AcDbLine
 10
-2.5
 20
-49.2249999999999943
 30
0.0
 11
-2.5
 21
-46.0250000000000057
 31
0.0
  0
LINE
  5
2F9
100
AcDbEntity
  8
coponent footprints
 62
256
370
-1
 48
1.0
  6
BYLAYER
100
AcDbLine
 10
-2.5
 20
-11.1249999999999858
 30
0.0
 11
-2.5
 21
-7.9249999999999829
 31
0.0
  0
LINE
  5
2FA
100
AcDbEntity
  8
coponent footprints
 62
256
370
-1
 48
1.0
  6
BYLAYER
100
AcDbLine
 10
-4.7624999999999886
 20
0.0
 30
0.0
 11
0.3174999999999955
 21
0.0
 31
0.0
  0
LINE
  5
2FB
100
AcDbEntity
  8
coponent footprints
 62
256
370
-1
 48
1.0
  6
BYLAYER
100
AcDbLine
 10
2.3812499999999943
 20
-19.0500000000000114
 30
0.0
 11
7.4612499999999784
 21
-19.0500000000000114
 31
0.0
  0
LINE
  5
2FC
100
AcDbEntity
  8
coponent footprints
 62
256
370
-1
 48
1.0
  6
BYLAYER
100
AcDbLine
 10
-2.3812499999999943
 20
-38.0999999999999091
 30
0.0
 11
2.6987499999999898
 21
-38.0999999999999091
 31
0.0
  0
LINE
  5
2FD
100
AcDbEntity
  8
coponent footprints
 62
256
370
-1
 48
1.0
  6
BYLAYER
100
AcDbLine
 10
-74.0395295737669983
 20
-62.7942899704125566
 30
0.0
 11
-69.0367061884650184
 21
-61.9121572278645473
 31
0.0
  0
LINE
  5
2FE
100
AcDbEntity
  8
coponent footprints
 62
256
370
-1
 48
1.0
  6
BYLAYER
100
AcDbLine
 10
0.0
 20
-57.149999999999892
 30
0.0
 11
5.0799999999999841
 21
-57.149999999999892
 31
0.0
  0
LINE
  5
2FF
100
AcDbEntity
  8
coponent footprints
 62
256
370
-1
 48
1.0
  6
BYLAYER
100
AcDbLine
 10
-26.1937499999999943
 20
-57.149999999999892
 30
0.0
 11
-21.1137500000000102
 21
-57.149999999999892
 31
0.0
  0
LINE
  5
300
100
AcDbEntity
  8
coponent footprints
 62
256
370
-1
 48
1.0
  6
BYLAYER
100
AcDbLine
 10
-33.3375000000000057
 20
-38.1000000000000227
 30
0.0
 11
-28.2575000000000216
 21
-38.1000000000000227
 31
0.0
  0
LINE
  5
301
100
AcDbEntity
  8
coponent footprints
 62
256
370
-1
 48
1.0
  6
BYLAYER
100
AcDbLine
 10
-28.5749999999999886
 20
-19.0499999999999545
 30
0.0
 11
-23.4950000000000045
 21
-19.0499999999999545
 31
0.0
  0
LINE
  5
302
100
AcDbEntity
  8
coponent footprints
 62
256
370
-1
 48
1.0
  6
BYLAYER
100
AcDbLine
 10
-28.5749999999999886
 20
0.0000000000000568
 30
0.0
 11
-23.4950000000000045
 21
0.0000000000000568
 31
0.0
  0
LINE
  5
303
100
AcDbEntity
  8
coponent footprints
 62
256
370
-1
 48
1.0
  6
BYLAYER
100
AcDbLine
 10
-49.1342927397188021
 20
-0.3711938863652193
 30
0.0
 11
-44.1314693544167937
 21
0.5109388561827757
 31
0.0
  0
LINE
  5
304
100
AcDbEntity
  8
coponent footprints
 62
256
370
-1
 48
1.0
  6
BYLAYER
100
AcDbLine
 10
-49.1342927397188021
 20
-19.7150708427886627
 30
0.0
 11
-44.1314693544167937
 21
-18.8329381002406677
 31
0.0
  0
LINE
  5
305
100
AcDbEntity
  8
coponent footprints
 62
256
370
-1
 48
1.0
  6
BYLAYER
100
AcDbLine
 10
-67.8948804346013617
 20
-3.6791916709202468
 30
0.0
 11
-62.8920570492993605
 21
-2.7970589283722518
 31
0.0
  0
LINE
  5
306
100
AcDbEntity
  8
coponent footprints
 62
256
370
-1
 48
1.0
  6
BYLAYER
100
AcDbLine
 10
-86.6554681294839213
 20
-6.9871894554752743
 30
0.0
 11
-81.652644744181913
 21
-6.105056712927265
 31
0.0
  0
LINE
  5
307
100
AcDbEntity
  8
coponent footprints
 62
256
370
-1
 48
1.0
  6
BYLAYER
100
AcDbLine
 10
-105.4160558243665093
 20
-10.2951872400302875
 30
0.0
 11
-100.413232439064501
 21
-9.4130544974822783
 31
0.0
  0
LINE
  5
308
100
AcDbEntity
  8
coponent footprints
 62
256
370
-1
 48
1.0
  6
BYLAYER
100
AcDbLine
 10
-105.4160558243664809
 20
-29.6390641964537593
 30
0.0
 11
-100.4132324390644726
 21
-28.7569314539057643
 31
0.0
  0
LINE
  5
309
100
AcDbEntity
  8
coponent footprints
 62
256
370
-1
 48
1.0
  6
BYLAYER
100
AcDbLine
 10
-86.6554681294839213
 20
-26.3310664118987177
 30
0.0
 11
-81.652644744181913
 21
-25.4489336693507227
 31
0.0
  0
LINE
  5
30A
100
AcDbEntity
  8
coponent footprints
 62
256
370
-1
 48
1.0
  6
BYLAYER
100
AcDbLine
 10
-67.8948804346013617
 20
-23.0230686273436902
 30
0.0
 11
-62.8920570492993605
 21
-22.140935884795681
 31
0.0
  0
LINE
  5
30B
100
AcDbEntity
  8
coponent footprints
 62
256
370
-1
 48
1.0
  6
BYLAYER
100
AcDbLine
 10
-53.8967927397188191
 20
-39.8987050448361629
 30
0.0
 11
-48.8939693544168108
 21
-39.0165723022881679
 31
0.0
  0
LINE
  5
30C
100
AcDbEntity
  8
coponent footprints
 62
256
370
-1
 48
1.0
  6
BYLAYER
100
AcDbLine
 10
-41.8390000000000128
 20
-38.1000000000000227
 30
0.0
 11
-33.3375000000000057
 21
-38.1000000000000227
 31
0.0
  0
LINE
  5
30D
100
AcDbEntity
  8
coponent footprints
 62
256
370
-1
 48
1.0
  6
BYLAYER
100
AcDbLine
 10
-63.6512849911176843
 20
-60.9625621682929122
 30
0.0
 11
-55.2789418788844102
 21
-59.4862921858575007
 31
0.0
  0
LINE
  5
30E
100
AcDbEntity
  8
coponent footprints
 62
256
370
-1
 48
1.0
  6
BYLAYER
100
AcDbLine
 10
-72.6573804346013787
 20
-43.2067028293911903
 30
0.0
 11
-67.6545570492993704
 21
-42.3245700868431811
 31
0.0
  0
LINE
  5
30F
100
AcDbEntity
  8
coponent footprints
 62
256
370
-1
 48
1.0
  6
BYLAYER
100
AcDbLine
 10
-91.4179681294839384
 20
-46.5147006139462462
 30
0.0
 11
-86.41514474418193
 21
-45.632567871398237
 31
0.0
  0
LINE
  5
310
100
AcDbEntity
  8
coponent footprints
 62
256
370
-1
 48
1.0
  6
BYLAYER
100
AcDbLine
 10
-110.1785558243664696
 20
-49.8226983985012737
 30
0.0
 11
-105.1757324390644612
 21
-48.9405656559532645
 31
0.0
  0
LINE
  5
311
100
AcDbEntity
  8
coponent footprints
 62
256
370
-1
 48
1.0
  6
BYLAYER
100
AcDbLine
 10
-90.455043806789206
 20
-65.6887880318981559
 30
0.0
 11
-85.4522204214871977
 21
-64.8066552893501466
 31
0.0
  0
LINE
  5
312
100
AcDbEntity
  8
coponent footprints
 62
256
370
-1
 48
1.0
  6
BYLAYER
100
AcDbLine
 10
-62.3141622644653808
 20
-60.726791355065636
 30
0.0
 11
-57.3113388791634009
 21
-59.8446586125176268
 31
0.0
  0
LINE
  5
313
100
AcDbEntity
  8
coponent footprints
 62
256
370
-1
 48
1.0
  6
BYLAYER
100
AcDbLine
 10
-125.6311457346940301
 20
-71.8912838779388323
 30
0.0
 11
-120.6283223493920218
 21
-71.0091511353908231
 31
0.0
  0
LINE
  5
314
100
AcDbEntity
  8
coponent footprints
 62
256
370
-1
 48
1.0
  6
BYLAYER
100
AcDbLine
 10
-128.9391435192490576
 20
-53.1306961830561875
 30
0.0
 11
-123.9363201339470493
 21
-52.2485634405081782
 31
0.0
  0
CIRCLE
  5
315
100
AcDbEntity
  8
coponent footprints
 62
256
370
-1
 48
1.0
  6
BYLAYER
100
AcDbCircle
 10
0.0
 20
-9.5249999999999915
 30
0.0
 40
1.0999999999999996
  0
CIRCLE
  5
316
100
AcDbEntity
  8
coponent footprints
 62
256
370
-1
 48
1.0
  6
BYLAYER
100
AcDbCircle
 10
-110.8191607479873824
 20
-59.607592808722039
 30
0.0
 40
1.0999999999999996
  0
CIRCLE
  5
317
100
AcDbEntity
  8
coponent footprints
 62
256
370
-1
 48
1.0
  6
BYLAYER
100
AcDbCircle
 10
0.0
 20
-47.625
 30
0.0
 40
1.0999999999999996
  0
LINE
  5
318
100
AcDbEntity
  8
coponent footprints
 62
256
370
-1
 48
1.0
  6
BYLAYER
100
AcDbLine
 10
-113.8200905409600523
 20
-61.3044783021035968
 30
0.0
 11
-113.6638071810598376
 21
-62.1908052798146045
 31
0.0
  0
LINE
  5
319
100
AcDbEntity
  8
coponent footprints
 62
256
370
-1
 48
1.0
  6
BYLAYER
100
AcDbLine
 10
-3.2499999999999716
 20
-48.7750000000000057
 30
0.0
 11
-3.2499999999999716
 21
-49.6750000000000114
 31
0.0
  0
LINE
  5
31A
100
AcDbEntity
  8
coponent footprints
 62
256
370
-1
 48
1.0
  6
BYLAYER
100
AcDbLine
 10
-3.2499999999999716
 20
-10.6749999999999829
 30
0.0
 11
-3.2499999999999716
 21
-11.5749999999999904
 31
0.0
  0
LINE
  5
31B
100
AcDbEntity
  8
coponent footprints
 62
256
370
-1
 48
1.0
  6
BYLAYER
100
AcDbLine
 10
-114.9908634741212268
 20
-2.3115456855641412
 30
0.0
 11
-114.7335168748188323
 21
-3.7710307755282315
 31
0.0
  0
LINE
  5
31C
100
AcDbEntity
  8
coponent footprints
 62
256
370
-1
 48
1.0
  6
BYLAYER
100
AcDbLine
 10
-116.1930019647829226
 20
-4.028377374830626
 30
0.0
 11
-114.7335168748188323
 21
-3.7710307755282315
 31
0.0
  0
LINE
  5
31D
100
AcDbEntity
  8
coponent footprints
 62
256
370
-1
 48
1.0
  6
BYLAYER
100
AcDbLine
 10
-41.8390000000000128
 20
-38.1000000000000227
 30
0.0
 11
-42.8624999999999829
 21
-38.0999999999999375
 31
0.0
  0
LINE
  5
31E
100
AcDbEntity
  8
coponent footprints
 62
256
370
-1
 48
1.0
  6
BYLAYER
100
AcDbLine
 10
-43.8859999999999673
 20
-38.0999999999999375
 30
0.0
 11
-42.8624999999999829
 21
-38.0999999999999375
 31
0.0
  0
LINE
  5
31F
100
AcDbEntity
  8
coponent footprints
 62
256
370
-1
 48
1.0
  6
BYLAYER
100
AcDbLine
 10
-39.8220000000000027
 20
-23.5584999999999667
 30
0.0
 11
-40.0518097038856382
 21
-23.788309703885588
 31
0.0
  0
LINE
  5
320
100
AcDbEntity
  8
coponent footprints
 62
256
370
-1
 48
1.0
  6
BYLAYER
100
AcDbLine
 10
-57.4116309633786699
 20
-25.7526404675793401
 30
0.0
 11
-57.5980433051927605
 21
-26.018864881973272
 31
0.0
  0
LINE
  5
321
100
AcDbEntity
  8
coponent footprints
 62
256
370
-1
 48
1.0
  6
BYLAYER
100
AcDbLine
 10
-108.1131682817668889
 20
-73.3804433730551864
 30
0.0
 11
-108.2995806235809937
 21
-73.646667787449104
 31
0.0
  0
LINE
  5
322
100
AcDbEntity
  8
coponent footprints
 62
256
370
-1
 48
1.0
  6
BYLAYER
100
AcDbLine
 10
-56.0358545324206148
 20
-25.5100539633786383
 30
0.0
 11
-55.7696301180266829
 21
-25.6964663051927289
 31
0.0
  0
LINE
  5
323
100
AcDbEntity
  8
coponent footprints
 62
256
370
-1
 48
1.0
  6
BYLAYER
100
AcDbLine
 10
-106.7373918508088479
 20
-73.1378568688544703
 30
0.0
 11
-106.4711674364149019
 21
-73.3242692106685467
 31
0.0
  0
LINE
  5
324
100
AcDbEntity
  8
coponent footprints
 62
256
370
-1
 48
1.0
  6
BYLAYER
100
AcDbLine
 10
-93.55703021722681
 20
-32.1260488966893263
 30
0.0
 11
-93.2624801864398876
 21
-32.2633998317550521
 31
0.0
  0
LINE
  5
325
100
AcDbEntity
  8
coponent footprints
 62
256
370
-1
 48
1.0
  6
BYLAYER
100
AcDbLine
 10
-55.9794188746788564
 20
-25.8301164831076022
 30
0.0
 11
-56.0358545324206148
 21
-25.5100539633786383
 31
0.0
  0
LINE
  5
326
100
AcDbEntity
  8
coponent footprints
 62
256
370
-1
 48
1.0
  6
BYLAYER
100
AcDbLine
 10
-101.9537946228015528
 20
-51.5319509916636775
 30
0.0
 11
-102.3477177240064293
 21
-51.6014102627304396
 31
0.0
  0
LINE
  5
327
100
AcDbEntity
  8
coponent footprints
 62
256
370
-1
 48
1.0
  6
BYLAYER
100
AcDbLine
 10
-106.1964321144257895
 20
-59.0541603151504546
 30
0.0
 11
-106.6264869376774982
 21
-58.7530326860661489
 31
0.0
  0
LINE
  5
328
100
AcDbEntity
  8
coponent footprints
 62
256
370
-1
 48
1.0
  6
BYLAYER
100
AcDbLine
 10
-102.8647417943378173
 20
-51.6925755560055791
 30
0.0
 11
-102.3477177240064009
 21
-51.6014102627304396
 31
0.0
  0
LINE
  5
329
100
AcDbEntity
  8
coponent footprints
 62
256
370
-1
 48
1.0
  6
BYLAYER
100
AcDbLine
 10
-111.7237494824096586
 20
-30.7512807744104464
 30
0.0
 11
-112.240773552741075
 21
-30.8424460676855858
 31
0.0
  0
LINE
  5
32A
100
AcDbEntity
  8
coponent footprints
 62
256
370
-1
 48
1.0
  6
BYLAYER
100
AcDbLine
 10
-106.6809561930670895
 20
-73.4579193885834343
 30
0.0
 11
-106.7373918508088479
 21
-73.1378568688544703
 31
0.0
  0
LINE
  5
32B
100
AcDbEntity
  8
coponent footprints
 62
256
370
-1
 48
1.0
  6
BYLAYER
100
AcDbLine
 10
-96.9487081186008197
 20
-32.7240932205742325
 30
0.0
 11
-97.0860590536665597
 21
-33.0186432513611408
 31
0.0
  0
LINE
  5
32C
100
AcDbEntity
  8
coponent footprints
 62
256
370
-1
 48
1.0
  6
BYLAYER
100
AcDbLine
 10
-93.5570302172267816
 20
-32.1260488966893263
 30
0.0
 11
-93.7996167214274976
 21
-30.7502724657312854
 31
0.0
  0
LINE
  5
32D
100
AcDbEntity
  8
coponent footprints
 62
256
370
-1
 48
1.0
  6
BYLAYER
100
AcDbLine
 10
-41.5297777278211697
 20
-22.6753634888554245
 30
0.0
 11
-41.6079194077712771
 21
-22.2321999999999349
 31
0.0
  0
LINE
  5
32E
100
AcDbEntity
  8
coponent footprints
 62
256
370
-1
 48
1.0
  6
BYLAYER
100
AcDbLine
 10
-39.123500000000007
 20
-23.5584999999999525
 30
0.0
 11
-39.123500000000007
 21
-23.8834999999999553
 31
0.0
  0
LINE
  5
32F
100
AcDbEntity
  8
coponent footprints
 62
256
370
-1
 48
1.0
  6
BYLAYER
100
AcDbLine
 10
-66.2756014844983667
 20
1.7646980856557661
 30
0.0
 11
-66.5273913545537994
 21
3.1926693980650498
 31
0.0
  0
LINE
  5
330
100
AcDbEntity
  8
coponent footprints
 62
256
370
-1
 48
1.0
  6
BYLAYER
100
AcDbLine
 10
-47.5150137896158071
 20
5.0726958702107936
 30
0.0
 11
-47.7668036596712398
 21
6.5006671826200773
 31
0.0
  0
LINE
  5
331
100
AcDbEntity
  8
coponent footprints
 62
256
370
-1
 48
1.0
  6
BYLAYER
100
AcDbLine
 10
-114.3717397346169946
 20
-47.9828862627612693
 30
0.0
 11
-115.5595102575117323
 21
-47.1512003889670837
 31
0.0
  0
LINE
  5
332
100
AcDbEntity
  8
coponent footprints
 62
256
370
-1
 48
1.0
  6
BYLAYER
100
AcDbLine
 10
-132.4772451299445777
 20
-62.3196823124092063
 30
0.0
 11
-132.7290350000000103
 21
-60.8917109999999511
 31
0.0
  0
LINE
  5
333
100
AcDbEntity
  8
coponent footprints
 62
256
370
-1
 48
1.0
  6
BYLAYER
100
AcDbLine
 10
-129.1249569999999949
 20
-66.7041739999999379
 30
0.0
 11
-128.2932711262058092
 21
-65.5164034771052002
 31
0.0
  0
LINE
  5
334
100
AcDbEntity
  8
coponent footprints
 62
256
370
-1
 48
1.0
  6
BYLAYER
100
AcDbLine
 10
-132.7290350000000103
 20
-60.8917109999999511
 30
0.0
 11
-134.1570063124092655
 21
-61.1435008700553837
 31
0.0
  0
LINE
  5
335
100
AcDbEntity
  8
coponent footprints
 62
256
370
-1
 48
1.0
  6
BYLAYER
100
AcDbLine
 10
-132.7290350000000103
 20
-60.8917109999999511
 30
0.0
 11
-133.9168055228947196
 21
-60.0600251262057654
 31
0.0
  0
LINE
  5
336
100
AcDbEntity
  8
coponent footprints
 62
256
370
-1
 48
1.0
  6
BYLAYER
100
AcDbLine
 10
-109.609239734617006
 20
-27.7992520607137266
 30
0.0
 11
-110.7970102561766907
 21
-26.9675661878543593
 31
0.0
  0
LINE
  5
337
100
AcDbEntity
  8
coponent footprints
 62
256
370
-1
 48
1.0
  6
BYLAYER
100
AcDbLine
 10
-98.2160590000000013
 20
-61.8988969999999412
 30
0.0
 11
-99.4038295228947391
 21
-61.0672111262057555
 31
0.0
  0
LINE
  5
338
100
AcDbEntity
  8
coponent footprints
 62
256
370
-1
 48
1.0
  6
BYLAYER
100
AcDbLine
 10
-116.4123889009337347
 20
-50.9218913631329144
 30
0.0
 11
-115.1813792096684779
 21
-50.7048311410492545
 31
0.0
  0
LINE
  5
339
100
AcDbEntity
  8
coponent footprints
 62
256
370
-1
 48
1.0
  6
BYLAYER
100
AcDbLine
 10
-111.7237494824096586
 20
-30.7512807744104464
 30
0.0
 11
-110.4188792096684892
 21
-30.5211969390017686
 31
0.0
  0
LINE
  5
33A
100
AcDbEntity
  8
coponent footprints
 62
256
370
-1
 48
1.0
  6
BYLAYER
100
AcDbLine
 10
-111.6498889009337461
 20
-30.7382571610854285
 30
0.0
 11
-110.4188792096684892
 21
-30.5211969390017686
 31
0.0
  0
LINE
  5
33B
100
AcDbEntity
  8
coponent footprints
 62
256
370
-1
 48
1.0
  6
BYLAYER
100
AcDbLine
 10
-115.8983497551072901
 20
-51.7287711964104915
 30
0.0
 11
-115.1813792096684779
 21
-50.7048311410492545
 31
0.0
  0
LINE
  5
33C
100
AcDbEntity
  8
coponent footprints
 62
256
370
-1
 48
1.0
  6
BYLAYER
100
AcDbLine
 10
-126.4030119999999897
 20
-67.5138129999999421
 30
0.0
 11
-125.6860414545611775
 21
-66.4898729446387051
 31
0.0
  0
LINE
  5
33D
100
AcDbEntity
  8
coponent footprints
 62
256
370
-1
 48
1.0
  6
BYLAYER
100
AcDbLine
 10
-126.4030119999999897
 20
-67.5138129999999421
 30
0.0
 11
-126.6200722220836496
 21
-66.2828033087346853
 31
0.0
  0
LINE
  5
33E
100
AcDbEntity
  8
coponent footprints
 62
256
370
-1
 48
1.0
  6
BYLAYER
100
AcDbLine
 10
-50.4336172004303478
 20
-3.8675061265842317
 30
0.0
 11
-49.1342927397187879
 21
-0.3711938863652193
 31
0.0
  0
LINE
  5
33F
100
AcDbEntity
  8
coponent footprints
 62
256
370
-1
 48
1.0
  6
BYLAYER
100
AcDbLine
 10
-20.9549999999999841
 20
-1.9049999999999727
 30
0.0
 11
-20.9549999999999699
 21
0.6350000000000193
 31
0.0
  0
LINE
  5
340
100
AcDbEntity
  8
coponent footprints
 62
256
370
-1
 48
1.0
  6
BYLAYER
100
AcDbLine
 10
-20.9549999999999841
 20
-1.9049999999999727
 30
0.0
 11
-21.8044473762394091
 21
-1.0555526237605619
 31
0.0
  0
LINE
  5
341
100
AcDbEntity
  8
coponent footprints
 62
256
370
-1
 48
1.0
  6
BYLAYER
100
AcDbLine
 10
-23.4950000000000045
 20
0.0000000000000568
 30
0.0
 11
-22.2449999999999903
 21
0.0000000000000568
 31
0.0
  0
LINE
  5
342
100
AcDbEntity
  8
coponent footprints
 62
256
370
-1
 48
1.0
  6
BYLAYER
100
AcDbLine
 10
-23.4950000000000045
 20
0.0000000000000568
 30
0.0
 11
-22.611116523516813
 21
-0.8838834764831347
 31
0.0
  0
LINE
  5
343
100
AcDbEntity
  8
coponent footprints
 62
256
370
-1
 48
1.0
  6
BYLAYER
100
AcDbLine
 10
-22.611116523516813
 20
-0.8838834764831347
 30
0.0
 11
-21.8044473762394091
 21
-0.8838834764831489
 31
0.0
  0
LINE
  5
344
100
AcDbEntity
  8
coponent footprints
 62
256
370
-1
 48
1.0
  6
BYLAYER
100
AcDbLine
 10
-110.0489197872142313
 20
-61.0964611247080924
 30
0.0
 11
-109.9100012450806787
 21
-61.8843073271178739
 31
0.0
  0
LINE
  5
345
100
AcDbEntity
  8
coponent footprints
 62
256
370
-1
 48
1.0
  6
BYLAYER
100
AcDbLine
 10
-110.0489197872142313
 20
-61.0964611247080924
 30
0.0
 11
-109.2610735848044499
 21
-60.9575425825745683
 31
0.0
  0
LINE
  5
346
100
AcDbEntity
  8
coponent footprints
 62
256
370
-1
 48
1.0
  6
BYLAYER
100
AcDbLine
 10
-110.5077809362950632
 20
-61.7517827601393137
 30
0.0
 11
-110.0489197872142313
 21
-61.0964611247080924
 31
0.0
  0
LINE
  5
347
100
AcDbEntity
  8
coponent footprints
 62
256
370
-1
 48
1.0
  6
BYLAYER
100
AcDbLine
 10
-109.3935981517830385
 20
-61.5553222737889527
 30
0.0
 11
-110.0489197872142313
 21
-61.0964611247080924
 31
0.0
  0
LINE
  5
348
100
AcDbEntity
  8
coponent footprints
 62
256
370
-1
 48
1.0
  6
BYLAYER
100
AcDbLine
 10
-17.0171778579460096
 20
-42.9334999999999525
 30
0.0
 11
-17.0171778579460096
 21
-43.4584999999999582
 31
0.0
  0
LINE
  5
349
100
AcDbEntity
  8
coponent footprints
 62
256
370
-1
 48
1.0
  6
BYLAYER
100
AcDbLine
 10
-43.272949164093518
 20
-42.9334999999999525
 30
0.0
 11
-43.272949164093518
 21
-43.4584999999999582
 31
0.0
  0
LINE
  5
34A
100
AcDbEntity
  8
coponent footprints
 62
256
370
-1
 48
1.0
  6
BYLAYER
100
AcDbLine
 10
-43.272949164093518
 20
-42.9334999999999525
 30
0.0
 11
-43.1817838708183785
 21
-43.4505240703313405
 31
0.0
  0
LINE
  5
34B
100
AcDbEntity
  8
coponent footprints
 62
256
370
-1
 48
1.0
  6
BYLAYER
100
AcDbLine
 10
-109.4517259444332637
 20
-57.2848526041298669
 30
0.0
 11
-110.1671885995801858
 21
-57.4110079739215848
 31
0.0
  0
LINE
  5
34C
100
AcDbEntity
  8
coponent footprints
 62
256
370
-1
 48
1.0
  6
BYLAYER
100
AcDbLine
 10
-110.1671885995801858
 20
-57.4110079739215848
 30
0.0
 11
-110.6823158010044779
 21
-54.4895764416935435
 31
0.0
  0
LINE
  5
34D
100
AcDbEntity
  8
coponent footprints
 62
256
370
-1
 48
1.0
  6
BYLAYER
100
AcDbLine
 10
-110.4247522002923461
 20
-55.9502922078075642
 30
0.0
 11
-111.4327031129167267
 21
-56.1280211489329588
 31
0.0
  0
LINE
  5
34E
100
AcDbEntity
  8
coponent footprints
 62
256
370
-1
 48
1.0
  6
BYLAYER
100
AcDbLine
 10
-111.4327031129167267
 20
-56.1280211489329872
 30
0.0
 11
-112.9959352376412767
 21
-56.4036611496321427
 31
0.0
  0
LINE
  5
34F
100
AcDbEntity
  8
coponent footprints
 62
256
370
-1
 48
1.0
  6
BYLAYER
100
AcDbLine
 10
-14.2874999999999943
 20
-46.3549999999999613
 30
0.0
 11
-14.2874999999999943
 21
-43.9860999999999365
 31
0.0
  0
LINE
  5
350
100
AcDbEntity
  8
coponent footprints
 62
256
370
-1
 48
1.0
  6
BYLAYER
100
AcDbLine
 10
-101.6733877222837918
 20
-60.9854442200719618
 30
0.0
 11
-103.6138770000000022
 21
-59.6266989999999382
 31
0.0
  0
LINE
  5
351
100
AcDbEntity
  8
coponent footprints
 62
256
370
-1
 48
1.0
  6
BYLAYER
100
AcDbLine
 10
-106.8939383665504863
 20
-61.320201521337502
 30
0.0
 11
-107.2625567864805305
 21
-61.0620921249795217
 31
0.0
  0
LINE
  5
352
100
AcDbEntity
  8
coponent footprints
 62
256
370
-1
 48
1.0
  6
BYLAYER
100
AcDbLine
 10
-107.9230209212895772
 20
-61.6354917470852328
 30
0.0
 11
-108.001162601239713
 21
-61.1923282582297574
 31
0.0
  0
LINE
  5
353
100
AcDbEntity
  8
coponent footprints
 62
256
370
-1
 48
1.0
  6
BYLAYER
100
AcDbLine
 10
-103.6138770000000022
 20
-59.6266989999999666
 30
0.0
 11
-105.6158026810378772
 21
-58.2249355472016532
 31
0.0
  0
LINE
  5
354
100
AcDbEntity
  8
coponent footprints
 62
256
370
-1
 48
1.0
  6
BYLAYER
100
AcDbLine
 10
-106.020648667586471
 20
-60.0510777814001742
 30
0.0
 11
-103.613876999999917
 21
-59.6266989999999666
 31
0.0
  0
LINE
  5
355
100
AcDbEntity
  8
coponent footprints
 62
256
370
-1
 48
1.0
  6
BYLAYER
100
AcDbLine
 10
-103.6138770000000022
 20
-59.6266989999999382
 30
0.0
 11
-101.4305328860062616
 21
-60.545772277757969
 31
0.0
  0
LINE
  5
356
100
AcDbEntity
  8
coponent footprints
 62
256
370
-1
 48
1.0
  6
BYLAYER
100
AcDbLine
 10
-98.2160587492739978
 20
-61.8988971755601867
 30
0.0
 11
-99.5524803450040849
 21
-61.3363338267129379
 31
0.0
  0
LINE
  5
357
100
AcDbEntity
  8
coponent footprints
 62
256
370
-1
 48
1.0
  6
BYLAYER
100
AcDbLine
 10
-101.4305328860062616
 20
-60.545772277757969
 30
0.0
 11
-99.5524803450040849
 21
-61.3363338267129379
 31
0.0
  0
LINE
  5
358
100
AcDbEntity
  8
coponent footprints
 62
256
370
-1
 48
1.0
  6
BYLAYER
100
AcDbLine
 10
-76.2984033286898864
 20
-10.8727339128779761
 30
0.0
 11
-76.2072380354147469
 21
-11.38975798320938
 31
0.0
  0
LINE
  5
359
100
AcDbEntity
  8
coponent footprints
 62
256
370
-1
 48
1.0
  6
BYLAYER
100
AcDbLine
 10
-76.3895686219650258
 20
-10.3557098425465597
 30
0.0
 11
-76.2984033286898864
 21
-10.8727339128779761
 31
0.0
  0
LINE
  5
35A
100
AcDbEntity
  8
coponent footprints
 62
256
370
-1
 48
1.0
  6
BYLAYER
100
AcDbLine
 10
-112.0930523897893067
 20
-30.81639884103555
 30
0.0
 11
-111.6498889009337745
 21
-30.7382571610854285
 31
0.0
  0
LINE
  5
35B
100
AcDbEntity
  8
coponent footprints
 62
256
370
-1
 48
1.0
  6
BYLAYER
100
AcDbLine
 10
-127.6367830000000083
 20
-60.5167539999999562
 30
0.0
 11
-127.8668668354087004
 21
-59.2118837272587655
 31
0.0
  0
LINE
  5
35C
100
AcDbEntity
  8
coponent footprints
 62
256
370
-1
 48
1.0
  6
BYLAYER
100
AcDbLine
 10
-128.6438898470435106
 20
-64.4514793082137487
 30
0.0
 11
-127.2851446269715154
 21
-62.5109900304975596
 31
0.0
  0
LINE
  5
35D
100
AcDbEntity
  8
coponent footprints
 62
256
370
-1
 48
1.0
  6
BYLAYER
100
AcDbLine
 10
-126.87378945889634
 20
-64.8439011166082082
 30
0.0
 11
-127.2851446269715154
 21
-62.5109900304975596
 31
0.0
  0
LINE
  5
35E
100
AcDbEntity
  8
coponent footprints
 62
256
370
-1
 48
1.0
  6
BYLAYER
100
AcDbLine
 10
-121.2230559999999855
 20
-49.3521570000000054
 30
0.0
 11
-121.6344111680751894
 21
-47.0192459138893639
 31
0.0
  0
LINE
  5
35F
100
AcDbEntity
  8
coponent footprints
 62
256
370
-1
 48
1.0
  6
BYLAYER
100
AcDbLine
 10
-121.2230559999999855
 20
-49.3521570000000054
 30
0.0
 11
-119.8643107799279903
 21
-47.411667722283795
 31
0.0
  0
LINE
  5
360
100
AcDbEntity
  8
coponent footprints
 62
256
370
-1
 48
1.0
  6
BYLAYER
100
AcDbLine
 10
-121.2230559999999855
 20
-49.3521570000000054
 30
0.0
 11
-118.8901449138893724
 21
-48.9408018319248299
 31
0.0
  0
LINE
  5
361
100
AcDbEntity
  8
coponent footprints
 62
256
370
-1
 48
1.0
  6
BYLAYER
100
AcDbLine
 10
-128.6438898470435106
 20
-64.4514793082137487
 30
0.0
 11
-129.0288905108033646
 21
-65.0013172387567977
 31
0.0
  0
ARC
  5
362
100
AcDbEntity
  8
0
 62
256
370
-1
 48
1.0
  6
BYLAYER
100
AcDbCircle
 10
-107.4532712861891213
 20
-61.0703345864491638
 30
0.0
 40
0.5
100
AcDbArc
 50
280.0000000000003411
 51
10.0000000000001972
  0
ARC
  5
363
100
AcDbEntity
  8
0
 62
256
370
-1
 48
1.0
  6
BYLAYER
100
AcDbCircle
 10
-76.0615393537124334
 20
-55.5351252607302328
 30
0.0
 40
0.5
100
AcDbArc
 50
189.9999999999998863
 51
280.0000000000000568
  0
ARC
  5
364
100
AcDbEntity
  8
0
 62
256
370
-1
 48
1.0
  6
BYLAYER
100
AcDbCircle
 10
-13.5567500000000152
 20
-45.6000000000000227
 30
0.0
 40
0.5
100
AcDbArc
 50
0.0
 51
90.0
  0
ARC
  5
365
100
AcDbEntity
  8
0
 62
256
370
-1
 48
1.0
  6
BYLAYER
100
AcDbCircle
 10
18.319250000000018
 20
-45.6000000000000156
 30
0.0
 40
0.5
100
AcDbArc
 50
90.0
 51
180.0
  0
ENDSEC
  0
SECTION
  2
OBJECTS
  0
DICTIONARY
  5
C
100
AcDbDictionary
280
0
281
1
  3
ACAD_GROUP
350
D
  3
ACAD_LAYOUT
350
1A
  3
ACAD_MLINESTYLE
350
17
  3
ACAD_PLOTSETTINGS
350
19
  3
ACAD_PLOTSTYLENAME
350
E
  3
AcDbVariableDictionary
350
366
  3
QCAD_OBJECTS
350
367
  0
DICTIONARY
  5
D
100
AcDbDictionary
280
0
281
1
  0
ACDBDICTIONARYWDFLT
  5
E
100
AcDbDictionary
281
1
  3
Normal
350
F
100
AcDbDictionaryWithDefault
340
F
  0
ACDBPLACEHOLDER
  5
F
  0
DICTIONARY
  5
17
100
AcDbDictionary
280
0
281
1
  3
Standard
350
18
  0
MLINESTYLE
  5
18
100
AcDbMlineStyle
  2
STANDARD
 70
0
  3

 62
256
 51
90.0
 52
90.0
 71
2
 49
0.5
 62
256
  6
BYLAYER
 49
-0.5
 62
256
  6
BYLAYER
  0
DICTIONARY
  5
19
100
AcDbDictionary
280
0
281
1
  0
DICTIONARY
  5
1A
100
AcDbDictionary
281
1
  3
Layout1
350
1E
  3
Layout2
350
26
  3
Model
350
22
  0
LAYOUT
  5
1E
100
AcDbPlotSettings
  1

  2
none_device
  4

  6

 40
0.0
 41
0.0
 42
0.0
 43
0.0
 44
0.0
 45
0.0
 46
0.0
 47
0.0
 48
0.0
 49
0.0
140
0.0
141
0.0
142
1.0
143
1.0
 70
688
 72
0
 73
0
 74
5
  7

 75
16
147
1.0
148
0.0
149
0.0
100
AcDbLayout
  1
Layout1
 70
1
 71
1
 10
0.0
 20
0.0
 11
420.0
 21
297.0
 12
0.0
 22
0.0
 32
0.0
 14
100000000000000000000.0
 24
100000000000000000000.0
 34
100000000000000000000.0
 15
-100000000000000000000.0
 25
-100000000000000000000.0
 35
-100000000000000000000.0
146
0.0
 13
0.0
 23
0.0
 33
0.0
 16
1.0
 26
0.0
 36
0.0
 17
0.0
 27
1.0
 37
0.0
 76
0
330
1B
  0
LAYOUT
  5
22
100
AcDbPlotSettings
  1

  2
none_device
  4

  6

 40
0.0
 41
0.0
 42
0.0
 43
0.0
 44
0.0
 45
0.0
 46
0.0
 47
0.0
 48
0.0
 49
0.0
140
0.0
141
0.0
142
1.0
143
1.0
 70
1712
 72
0
 73
0
 74
0
  7

 75
0
147
1.0
148
0.0
149
0.0
100
AcDbLayout
  1
Model
 70
1
 71
0
 10
0.0
 20
0.0
 11
12.0
 21
9.0
 12
0.0
 22
0.0
 32
0.0
 14
0.0
 24
0.0
 34
0.0
 15
0.0
 25
0.0
 35
0.0
146
0.0
 13
0.0
 23
0.0
 33
0.0
 16
1.0
 26
0.0
 36
0.0
 17
0.0
 27
1.0
 37
0.0
 76
0
330
1F
  0
LAYOUT
  5
26
100
AcDbPlotSettings
  1

  2
none_device
  4

  6

 40
0.0
 41
0.0
 42
0.0
 43
0.0
 44
0.0
 45
0.0
 46
0.0
 47
0.0
 48
0.0
 49
0.0
140
0.0
141
0.0
142
1.0
143
1.0
 70
688
 72
0
 73
0
 74
5
  7

 75
16
147
1.0
148
0.0
149
0.0
100
AcDbLayout
  1
Layout2
 70
1
 71
2
 10
0.0
 20
0.0
 11
12.0
 21
9.0
 12
0.0
 22
0.0
 32
0.0
 14
0.0
 24
0.0
 34
0.0
 15
0.0
 25
0.0
 35
0.0
146
0.0
 13
0.0
 23
0.0
 33
0.0
 16
1.0
 26
0.0
 36
0.0
 17
0.0
 27
1.0
 37
0.0
 76
0
330
23
  0
DICTIONARY
  5
366
100
AcDbDictionary
281
1
  3
DIMASSOC
350
369
  3
HIDETEXT
350
368
  0
DICTIONARYVAR
  5
368
100
DictionaryVariables
280
0
  1
2
  0
DICTIONARYVAR
  5
369
100
DictionaryVariables
280
0
  1
1
  0
DICTIONARY
  5
367
100
AcDbDictionary
281
1
  3
ColorSettings/BackgroundColor
350
36A
  3
ColorSettings/ColorMode
350
36B
  3
Grid/DisplayGrid00
350
36C
  3
Grid/DisplayGrid01
350
36D
  3
Grid/DisplayGrid02
350
36E
  3
Grid/DisplayGrid03
350
36F
  3
Grid/GridSpacingX00
350
370
  3
Grid/GridSpacingX01
350
371
  3
Grid/GridSpacingX02
350
372
  3
Grid/GridSpacingX03
350
373
  3
Grid/GridSpacingY00
350
374
  3
Grid/GridSpacingY01
350
375
  3
Grid/GridSpacingY02
350
376
  3
Grid/GridSpacingY03
350
377
  3
Grid/IsometricGrid00
350
378
  3
Grid/IsometricGrid01
350
379
  3
Grid/IsometricGrid02
350
37A
  3
Grid/IsometricGrid03
350
37B
  3
Grid/IsometricProjection00
350
37C
  3
Grid/IsometricProjection01
350
37D
  3
Grid/IsometricProjection02
350
37E
  3
Grid/IsometricProjection03
350
37F
  3
Grid/MetaGridSpacingX00
350
380
  3
Grid/MetaGridSpacingX01
350
381
  3
Grid/MetaGridSpacingX02
350
382
  3
Grid/MetaGridSpacingX03
350
383
  3
Grid/MetaGridSpacingY00
350
384
  3
Grid/MetaGridSpacingY01
350
385
  3
Grid/MetaGridSpacingY02
350
386
  3
Grid/MetaGridSpacingY03
350
387
  3
MultiPageSettings/Columns
350
388
  3
MultiPageSettings/GlueMarginsBottom
350
389
  3
MultiPageSettings/GlueMarginsLeft
350
38A
  3
MultiPageSettings/GlueMarginsRight
350
38B
  3
MultiPageSettings/GlueMarginsTop
350
38C
  3
MultiPageSettings/PrintCropMarks
350
38D
  3
MultiPageSettings/Rows
350
38E
  3
PageSettings/OffsetX
350
38F
  3
PageSettings/OffsetY
350
390
  3
PageSettings/PageOrientation
350
391
  3
PageSettings/PaperHeight
350
392
  3
PageSettings/PaperWidth
350
393
  3
PageSettings/Scale
350
394
  3
PageSettings/ShowPaperBorders
350
395
  3
PageTagSettings/EnablePageTags
350
396
  3
PageTagSettings/TagAlignment
350
397
  3
PageTagSettings/TagFont
350
398
  3
PageTagSettings/TagPosition
350
399
  3
QCADVersion
350
39A
  3
UnitSettings/PaperUnit
350
39B
  3
ViewportCenter
350
39C
  3
ViewportHeight
350
39D
  3
ViewportWidth
350
39E
  0
XRECORD
  5
36A
330
367
100
AcDbXrecord
280
1
1000
Wit
  0
XRECORD
  5
36B
330
367
100
AcDbXrecord
280
1
1000
FullColor
  0
XRECORD
  5
36C
330
367
100
AcDbXrecord
280
1
290
1
  0
XRECORD
  5
36D
330
367
100
AcDbXrecord
280
1
290
1
  0
XRECORD
  5
36E
330
367
100
AcDbXrecord
280
1
290
1
  0
XRECORD
  5
36F
330
367
100
AcDbXrecord
280
1
290
1
  0
XRECORD
  5
370
330
367
100
AcDbXrecord
280
1
1000
auto
  0
XRECORD
  5
371
330
367
100
AcDbXrecord
280
1
1000
auto
  0
XRECORD
  5
372
330
367
100
AcDbXrecord
280
1
1000
auto
  0
XRECORD
  5
373
330
367
100
AcDbXrecord
280
1
1000
auto
  0
XRECORD
  5
374
330
367
100
AcDbXrecord
280
1
1000
auto
  0
XRECORD
  5
375
330
367
100
AcDbXrecord
280
1
1000
auto
  0
XRECORD
  5
376
330
367
100
AcDbXrecord
280
1
1000
auto
  0
XRECORD
  5
377
330
367
100
AcDbXrecord
280
1
1000
auto
  0
XRECORD
  5
378
330
367
100
AcDbXrecord
280
1
290
0
  0
XRECORD
  5
379
330
367
100
AcDbXrecord
280
1
290
0
  0
XRECORD
  5
37A
330
367
100
AcDbXrecord
280
1
290
0
  0
XRECORD
  5
37B
330
367
100
AcDbXrecord
280
1
290
0
  0
XRECORD
  5
37C
330
367
100
AcDbXrecord
280
1
 90
65537
  0
XRECORD
  5
37D
330
367
100
AcDbXrecord
280
1
 90
65537
  0
XRECORD
  5
37E
330
367
100
AcDbXrecord
280
1
 90
65537
  0
XRECORD
  5
37F
330
367
100
AcDbXrecord
280
1
 90
65537
  0
XRECORD
  5
380
330
367
100
AcDbXrecord
280
1
1000
auto
  0
XRECORD
  5
381
330
367
100
AcDbXrecord
280
1
1000
auto
  0
XRECORD
  5
382
330
367
100
AcDbXrecord
280
1
1000
auto
  0
XRECORD
  5
383
330
367
100
AcDbXrecord
280
1
1000
auto
  0
XRECORD
  5
384
330
367
100
AcDbXrecord
280
1
1000
auto
  0
XRECORD
  5
385
330
367
100
AcDbXrecord
280
1
1000
auto
  0
XRECORD
  5
386
330
367
100
AcDbXrecord
280
1
1000
auto
  0
XRECORD
  5
387
330
367
100
AcDbXrecord
280
1
1000
auto
  0
XRECORD
  5
388
330
367
100
AcDbXrecord
280
1
 90
1
  0
XRECORD
  5
389
330
367
100
AcDbXrecord
280
1
 40
10.0
  0
XRECORD
  5
38A
330
367
100
AcDbXrecord
280
1
 40
10.0
  0
XRECORD
  5
38B
330
367
100
AcDbXrecord
280
1
 40
10.0
  0
XRECORD
  5
38C
330
367
100
AcDbXrecord
280
1
 40
10.0
  0
XRECORD
  5
38D
330
367
100
AcDbXrecord
280
1
290
0
  0
XRECORD
  5
38E
330
367
100
AcDbXrecord
280
1
 90
1
  0
XRECORD
  5
38F
330
367
100
AcDbXrecord
280
1
 40
0.0
  0
XRECORD
  5
390
330
367
100
AcDbXrecord
280
1
 40
0.0
  0
XRECORD
  5
391
330
367
100
AcDbXrecord
280
1
1000
Portrait
  0
XRECORD
  5
392
330
367
100
AcDbXrecord
280
1
 40
297.0
  0
XRECORD
  5
393
330
367
100
AcDbXrecord
280
1
 40
210.0
  0
XRECORD
  5
394
330
367
100
AcDbXrecord
280
1
1000
1:1
  0
XRECORD
  5
395
330
367
100
AcDbXrecord
280
1
290
1
  0
XRECORD
  5
396
330
367
100
AcDbXrecord
280
1
290
0
  0
XRECORD
  5
397
330
367
100
AcDbXrecord
280
1
1000
Inside
  0
XRECORD
  5
398
330
367
100
AcDbXrecord
280
1
1000
Arial,10,-1,5,50,0,0,0,0,0
  0
XRECORD
  5
399
330
367
100
AcDbXrecord
280
1
1000
TopLeft
  0
XRECORD
  5
39A
330
367
100
AcDbXrecord
280
1
1000
3.28.1
  0
XRECORD
  5
39B
330
367
100
AcDbXrecord
280
1
 90
4
  0
XRECORD
  5
39D
330
367
100
AcDbXrecord
280
1
 40
200.695240200328044
  0
XRECORD
  5
39E
330
367
100
AcDbXrecord
280
1
 40
393.2815818067034002
  0
ENDSEC
  0
EOF
