%TF.GenerationSoftware,KiCad,Pcbnew,7.0.6*%
%TF.CreationDate,2024-02-11T12:35:39+01:00*%
%TF.ProjectId,chocobanan_right,63686f63-6f62-4616-9e61-6e5f72696768,rev?*%
%TF.SameCoordinates,Original*%
%TF.FileFunction,Profile,NP*%
%FSLAX46Y46*%
G04 Gerber Fmt 4.6, Leading zero omitted, Abs format (unit mm)*
G04 Created by KiCad (PCBNEW 7.0.6) date 2024-02-11 12:35:39*
%MOMM*%
%LPD*%
G01*
G04 APERTURE LIST*
%TA.AperFunction,Profile*%
%ADD10C,0.150000*%
%TD*%
G04 APERTURE END LIST*
D10*
X-138988629Y-45230753D02*
G75*
G03*
X-139799789Y-46389209I173648J-984808D01*
G01*
X28575000Y-46625000D02*
X28575000Y-29575000D01*
X19050000Y-8525000D02*
G75*
G03*
X20050000Y-9525000I1000000J0D01*
G01*
X19050000Y8525000D02*
G75*
G03*
X18050000Y9525000I-1000000J0D01*
G01*
X-47774988Y9525000D02*
G75*
G03*
X-47948636Y9509808I-6J-999943D01*
G01*
X19050000Y-8525000D02*
X19050000Y8525000D01*
X-115465541Y-21739121D02*
X-114127159Y-21503128D01*
X-41288348Y-66690194D02*
X-132372623Y-82751915D01*
X27575000Y-47625000D02*
G75*
G03*
X28575000Y-46625000I0J1000000D01*
G01*
X-113315999Y-20344672D02*
X-116276701Y-3553700D01*
X-133531091Y-81940757D02*
X-139799789Y-46389209D01*
X-133531091Y-81940757D02*
G75*
G03*
X-132372623Y-82751914I984807J173647D01*
G01*
X-115465541Y-21739121D02*
G75*
G03*
X-116276701Y-22897577I173648J-984808D01*
G01*
X22812500Y-9525000D02*
X20050000Y-9525000D01*
X23812500Y-10525000D02*
G75*
G03*
X22812500Y-9525000I-1000000J0D01*
G01*
X-47948636Y9509808D02*
X-115465541Y-2395244D01*
X-114127159Y-21503128D02*
G75*
G03*
X-113315999Y-20344672I-173648J984808D01*
G01*
X24812500Y-47625000D02*
G75*
G03*
X23812500Y-48625000I0J-1000000D01*
G01*
X23812500Y-27575000D02*
X23812500Y-10525000D01*
X28575000Y-29575000D02*
G75*
G03*
X27575000Y-28575000I-1000000J0D01*
G01*
X-114127159Y-40847005D02*
G75*
G03*
X-113315999Y-39688549I-173648J984808D01*
G01*
X-115465541Y-2395244D02*
G75*
G03*
X-116276701Y-3553700I173648J-984808D01*
G01*
X22812500Y-66675000D02*
G75*
G03*
X23812500Y-65675000I0J1000000D01*
G01*
X18050000Y9525000D02*
X-47774988Y9525000D01*
X27575000Y-28575000D02*
X24812500Y-28575000D01*
X-138988629Y-45230753D02*
X-114127159Y-40847005D01*
X23812500Y-65675000D02*
X23812500Y-48625000D01*
X24812500Y-47625000D02*
X27575000Y-47625000D01*
X-113315999Y-39688549D02*
X-116276701Y-22897577D01*
X23812500Y-27575000D02*
G75*
G03*
X24812500Y-28575000I1000000J0D01*
G01*
X-41114688Y-66675001D02*
G75*
G03*
X-41288348Y-66690195I5J-1000081D01*
G01*
X22812500Y-66675000D02*
X-41114688Y-66675000D01*
M02*
