%TF.GenerationSoftware,KiCad,Pcbnew,7.0.6*%
%TF.CreationDate,2024-02-11T12:35:39+01:00*%
%TF.ProjectId,chocobanan_right,63686f63-6f62-4616-9e61-6e5f72696768,rev?*%
%TF.SameCoordinates,Original*%
%TF.FileFunction,Soldermask,Top*%
%TF.FilePolarity,Negative*%
%FSLAX46Y46*%
G04 Gerber Fmt 4.6, Leading zero omitted, Abs format (unit mm)*
G04 Created by KiCad (PCBNEW 7.0.6) date 2024-02-11 12:35:39*
%MOMM*%
%LPD*%
G01*
G04 APERTURE LIST*
G04 Aperture macros list*
%AMHorizOval*
0 Thick line with rounded ends*
0 $1 width*
0 $2 $3 position (X,Y) of the first rounded end (center of the circle)*
0 $4 $5 position (X,Y) of the second rounded end (center of the circle)*
0 Add line between two ends*
20,1,$1,$2,$3,$4,$5,0*
0 Add two circle primitives to create the rounded ends*
1,1,$1,$2,$3*
1,1,$1,$4,$5*%
%AMRotRect*
0 Rectangle, with rotation*
0 The origin of the aperture is its center*
0 $1 length*
0 $2 width*
0 $3 Rotation angle, in degrees counterclockwise*
0 Add horizontal line*
21,1,$1,$2,0,0,$3*%
G04 Aperture macros list end*
%ADD10R,1.397000X1.397000*%
%ADD11C,1.397000*%
%ADD12RotRect,1.397000X1.397000X100.000000*%
%ADD13C,1.750000*%
%ADD14C,3.987800*%
%ADD15C,3.048000*%
%ADD16R,1.752600X1.752600*%
%ADD17C,1.752600*%
%ADD18C,2.100000*%
%ADD19C,0.800000*%
%ADD20HorizOval,1.600000X-0.034730X0.196962X0.034730X-0.196962X0*%
G04 APERTURE END LIST*
D10*
%TO.C,D12*%
X-19050000Y-60960000D03*
D11*
X-19050000Y-53340000D03*
%TD*%
D12*
%TO.C,D16*%
X-62989685Y-64714680D03*
D11*
X-64312885Y-57210444D03*
%TD*%
D13*
%TO.C,MX19*%
X-77660203Y-44088836D03*
D14*
X-72657380Y-43206703D03*
D13*
X-67654557Y-42324570D03*
%TD*%
D15*
%TO.C,MX1*%
X-11906250Y6985000D03*
D14*
X-11906250Y-8255000D03*
D13*
X-5080000Y0D03*
D14*
X0Y0D03*
D13*
X5080000Y0D03*
D15*
X11906250Y6985000D03*
D14*
X11906250Y-8255000D03*
%TD*%
D12*
%TO.C,D21*%
X-96382113Y-12571035D03*
D11*
X-97705313Y-5066799D03*
%TD*%
D13*
%TO.C,MX10*%
X-54137116Y-20597204D03*
D14*
X-49134293Y-19715071D03*
D13*
X-44131470Y-18832938D03*
%TD*%
%TO.C,MX16*%
X-60281765Y-60368425D03*
D14*
X-55278942Y-59486292D03*
D13*
X-50276119Y-58604159D03*
%TD*%
D12*
%TO.C,D27*%
X-118251202Y-64786838D03*
D11*
X-119574402Y-57282602D03*
%TD*%
D13*
%TO.C,MX24*%
X-104838161Y-68224920D03*
D14*
X-99835338Y-67342787D03*
D13*
X-94832515Y-66460654D03*
%TD*%
%TO.C,MX11*%
X-38417500Y-38100000D03*
D14*
X-33337500Y-38100000D03*
D13*
X-28257500Y-38100000D03*
%TD*%
%TO.C,MX7*%
X-19367500Y-38100000D03*
D14*
X-14287500Y-38100000D03*
D13*
X-9207500Y-38100000D03*
%TD*%
D12*
%TO.C,D17*%
X-94366211Y-12215577D03*
D11*
X-95689411Y-4711341D03*
%TD*%
D12*
%TO.C,D14*%
X-58860937Y-25298917D03*
D11*
X-60184137Y-17794681D03*
%TD*%
D13*
%TO.C,MX21*%
X-110418879Y-11177320D03*
D14*
X-105416056Y-10295187D03*
D13*
X-100413233Y-9413054D03*
%TD*%
D12*
%TO.C,D23*%
X-99128711Y-51743089D03*
D11*
X-100451911Y-44238853D03*
%TD*%
D13*
%TO.C,MX13*%
X-72897703Y-4561325D03*
D14*
X-67894880Y-3679192D03*
D13*
X-62892057Y-2797059D03*
%TD*%
D10*
%TO.C,D3*%
X20408250Y-41910000D03*
D11*
X20408250Y-34290000D03*
%TD*%
D13*
%TO.C,MX15*%
X-58899616Y-40780838D03*
D14*
X-53896793Y-39898705D03*
D13*
X-48893970Y-39016572D03*
%TD*%
D10*
%TO.C,D4*%
X1023500Y-60960000D03*
D11*
X1023500Y-53340000D03*
%TD*%
D10*
%TO.C,D5*%
X-39123500Y-3810000D03*
D11*
X-39123500Y3810000D03*
%TD*%
D13*
%TO.C,MX20*%
X-79042353Y-63676423D03*
D14*
X-74039530Y-62794290D03*
D13*
X-69036707Y-61912157D03*
%TD*%
D14*
%TO.C,MX24.1*%
X-103613877Y-59626699D03*
D15*
X-100967479Y-74635169D03*
D13*
X-95457867Y-66570921D03*
D14*
X-90455044Y-65688788D03*
D13*
X-85452221Y-64806655D03*
D14*
X-80163142Y-55491701D03*
D15*
X-77516744Y-70500172D03*
%TD*%
D12*
%TO.C,D10*%
X-56845036Y-24943459D03*
D11*
X-58168236Y-17439223D03*
%TD*%
D13*
%TO.C,MX25*%
X-115181379Y-50704831D03*
D14*
X-110178556Y-49822698D03*
D13*
X-105175733Y-48940565D03*
%TD*%
%TO.C,MX23*%
X-96420791Y-47396834D03*
D14*
X-91417968Y-46514701D03*
D13*
X-86415145Y-45632568D03*
%TD*%
D16*
%TO.C,U1*%
X-36195000Y5715000D03*
D17*
X-36195000Y3175000D03*
X-36195000Y635000D03*
X-36195000Y-1905000D03*
X-36195000Y-4445000D03*
X-36195000Y-6985000D03*
X-36195000Y-9525000D03*
X-36195000Y-12065000D03*
X-36195000Y-14605000D03*
X-36195000Y-17145000D03*
X-36195000Y-19685000D03*
X-36195000Y-22225000D03*
X-20955000Y-22225000D03*
X-20955000Y-19685000D03*
X-20955000Y-17145000D03*
X-20955000Y-14605000D03*
X-20955000Y-12065000D03*
X-20955000Y-9525000D03*
X-20955000Y-6985000D03*
X-20955000Y-4445000D03*
X-20955000Y-1905000D03*
X-20955000Y635000D03*
X-20955000Y3175000D03*
X-20955000Y5715000D03*
%TD*%
D13*
%TO.C,MX8*%
X-14605000Y-57150000D03*
D14*
X-9525000Y-57150000D03*
D13*
X-4445000Y-57150000D03*
%TD*%
D10*
%TO.C,D7*%
X-22789000Y-41910000D03*
D11*
X-22789000Y-34290000D03*
%TD*%
D15*
%TO.C,MX2*%
X-9525000Y-12065000D03*
D14*
X-9525000Y-27305000D03*
D13*
X-2698750Y-19050000D03*
D14*
X2381250Y-19050000D03*
D13*
X7461250Y-19050000D03*
D15*
X14287500Y-12065000D03*
D14*
X14287500Y-27305000D03*
%TD*%
D12*
%TO.C,D15*%
X-61607536Y-45127093D03*
D11*
X-62930736Y-37622857D03*
%TD*%
D12*
%TO.C,D24*%
X-107546573Y-72571262D03*
D11*
X-108869773Y-65067026D03*
%TD*%
%TO.C,D26*%
X-117543374Y-56915916D03*
D12*
X-116220174Y-64420152D03*
%TD*%
D15*
%TO.C,MX3.1*%
X-9525000Y-31115000D03*
D14*
X-9525000Y-46355000D03*
D13*
X-2698750Y-38100000D03*
D14*
X2381250Y-38100000D03*
D13*
X7461250Y-38100000D03*
D15*
X14287500Y-31115000D03*
D14*
X14287500Y-46355000D03*
%TD*%
D13*
%TO.C,MX3*%
X6826250Y-38100000D03*
D14*
X11906250Y-38100000D03*
D13*
X16986250Y-38100000D03*
%TD*%
D10*
%TO.C,D6*%
X-39123500Y-22860000D03*
D11*
X-39123500Y-15240000D03*
%TD*%
D15*
%TO.C,MX20.1*%
X-132096529Y-75449290D03*
D14*
X-117088058Y-72802892D03*
D13*
X-126403012Y-67513813D03*
D14*
X-127285145Y-62510990D03*
D13*
X-128167278Y-57508167D03*
D15*
X-136231526Y-51998555D03*
D14*
X-121223056Y-49352157D03*
%TD*%
D12*
%TO.C,D22*%
X-96382113Y-31914912D03*
D11*
X-97705313Y-24410676D03*
%TD*%
D13*
%TO.C,MX5*%
X-33655000Y0D03*
D14*
X-28575000Y0D03*
D13*
X-23495000Y0D03*
%TD*%
%TO.C,MX17*%
X-91658291Y-7869322D03*
D14*
X-86655468Y-6987189D03*
D13*
X-81652645Y-6105056D03*
%TD*%
%TO.C,MX9*%
X-54137116Y-1253327D03*
D14*
X-49134293Y-371194D03*
D13*
X-44131470Y510939D03*
%TD*%
%TO.C,MX14*%
X-72897703Y-23905202D03*
D14*
X-67894880Y-23023069D03*
D13*
X-62892057Y-22140936D03*
%TD*%
D10*
%TO.C,D11*%
X-24836000Y-41910000D03*
D11*
X-24836000Y-34290000D03*
%TD*%
D13*
%TO.C,MX22*%
X-110418879Y-30521197D03*
D14*
X-105416056Y-29639064D03*
D13*
X-100413233Y-28756931D03*
%TD*%
D12*
%TO.C,D18*%
X-94366211Y-31559454D03*
D11*
X-95689411Y-24055218D03*
%TD*%
D12*
%TO.C,D25*%
X-101144613Y-52098546D03*
D11*
X-102467813Y-44594310D03*
%TD*%
D13*
%TO.C,MX26*%
X-133941967Y-54012829D03*
D14*
X-128939144Y-53130696D03*
D13*
X-123936321Y-52248563D03*
%TD*%
D12*
%TO.C,D9*%
X-56845036Y-5599582D03*
D11*
X-58168236Y1904654D03*
%TD*%
D10*
%TO.C,D8*%
X-1023500Y-60960000D03*
D11*
X-1023500Y-53340000D03*
%TD*%
D13*
%TO.C,MX6*%
X-33655000Y-19050000D03*
D14*
X-28575000Y-19050000D03*
D13*
X-23495000Y-19050000D03*
%TD*%
D10*
%TO.C,D2*%
X-18026500Y-22860000D03*
D11*
X-18026500Y-15240000D03*
%TD*%
D13*
%TO.C,MX27*%
X-130633969Y-72773417D03*
D14*
X-125631146Y-71891284D03*
D13*
X-120628323Y-71009151D03*
%TD*%
D12*
%TO.C,D20*%
X-65005586Y-65070138D03*
D11*
X-66328786Y-57565902D03*
%TD*%
D12*
%TO.C,D13*%
X-58860937Y-5955040D03*
D11*
X-60184137Y1549196D03*
%TD*%
D13*
%TO.C,MX18*%
X-91658291Y-27213199D03*
D14*
X-86655468Y-26331066D03*
D13*
X-81652645Y-25448933D03*
%TD*%
D10*
%TO.C,D1*%
X-18026500Y-3810000D03*
D11*
X-18026500Y3810000D03*
%TD*%
D13*
%TO.C,MX12*%
X-33655000Y-57150000D03*
D14*
X-28575000Y-57150000D03*
D13*
X-23495000Y-57150000D03*
%TD*%
%TO.C,MX4*%
X6826250Y-57150000D03*
D14*
X11906250Y-57150000D03*
D13*
X16986250Y-57150000D03*
%TD*%
D12*
%TO.C,D19*%
X-63623437Y-45482551D03*
D11*
X-64946637Y-37978315D03*
%TD*%
D18*
%TO.C,H2*%
X22330500Y-65192830D03*
%TD*%
%TO.C,H3*%
X-114733517Y-3771031D03*
%TD*%
%TO.C,H5*%
X-132155302Y-81208745D03*
%TD*%
%TO.C,H1*%
X17568000Y8042830D03*
%TD*%
%TO.C,H4*%
X-138256605Y-46606540D03*
%TD*%
D19*
%TO.C,U2*%
X-77088503Y-6391859D03*
X-78304040Y501796D03*
D20*
X-74354595Y-8651449D03*
X-79075724Y-8366942D03*
X-79770316Y-4427711D03*
X-80291261Y-1473287D03*
%TD*%
M02*
