%TF.GenerationSoftware,KiCad,Pcbnew,7.0.6*%
%TF.CreationDate,2024-02-11T12:35:39+01:00*%
%TF.ProjectId,chocobanan_right,63686f63-6f62-4616-9e61-6e5f72696768,rev?*%
%TF.SameCoordinates,Original*%
%TF.FileFunction,Legend,Bot*%
%TF.FilePolarity,Positive*%
%FSLAX46Y46*%
G04 Gerber Fmt 4.6, Leading zero omitted, Abs format (unit mm)*
G04 Created by KiCad (PCBNEW 7.0.6) date 2024-02-11 12:35:39*
%MOMM*%
%LPD*%
G01*
G04 APERTURE LIST*
%ADD10C,0.150000*%
%ADD11C,0.381000*%
%ADD12C,0.120000*%
G04 APERTURE END LIST*
D10*
X20046101Y-65555125D02*
X19946101Y-64755125D01*
X19946101Y-64755125D02*
X19755625Y-64755125D01*
X19755625Y-64755125D02*
X19646101Y-64793220D01*
X19646101Y-64793220D02*
X19579435Y-64869410D01*
X19579435Y-64869410D02*
X19550863Y-64945601D01*
X19550863Y-64945601D02*
X19531816Y-65097982D01*
X19531816Y-65097982D02*
X19546101Y-65212268D01*
X19546101Y-65212268D02*
X19603244Y-65364649D01*
X19603244Y-65364649D02*
X19650863Y-65440839D01*
X19650863Y-65440839D02*
X19736577Y-65517030D01*
X19736577Y-65517030D02*
X19855625Y-65555125D01*
X19855625Y-65555125D02*
X20046101Y-65555125D01*
X18936577Y-65517030D02*
X19017530Y-65555125D01*
X19017530Y-65555125D02*
X19169911Y-65555125D01*
X19169911Y-65555125D02*
X19241339Y-65517030D01*
X19241339Y-65517030D02*
X19269911Y-65440839D01*
X19269911Y-65440839D02*
X19231816Y-65136077D01*
X19231816Y-65136077D02*
X19184196Y-65059887D01*
X19184196Y-65059887D02*
X19103244Y-65021791D01*
X19103244Y-65021791D02*
X18950863Y-65021791D01*
X18950863Y-65021791D02*
X18879435Y-65059887D01*
X18879435Y-65059887D02*
X18850863Y-65136077D01*
X18850863Y-65136077D02*
X18860387Y-65212268D01*
X18860387Y-65212268D02*
X19250863Y-65288458D01*
X18593721Y-65517030D02*
X18522292Y-65555125D01*
X18522292Y-65555125D02*
X18369911Y-65555125D01*
X18369911Y-65555125D02*
X18288959Y-65517030D01*
X18288959Y-65517030D02*
X18241340Y-65440839D01*
X18241340Y-65440839D02*
X18236578Y-65402744D01*
X18236578Y-65402744D02*
X18265149Y-65326553D01*
X18265149Y-65326553D02*
X18336578Y-65288458D01*
X18336578Y-65288458D02*
X18450863Y-65288458D01*
X18450863Y-65288458D02*
X18522292Y-65250363D01*
X18522292Y-65250363D02*
X18550863Y-65174172D01*
X18550863Y-65174172D02*
X18546102Y-65136077D01*
X18546102Y-65136077D02*
X18498482Y-65059887D01*
X18498482Y-65059887D02*
X18417530Y-65021791D01*
X18417530Y-65021791D02*
X18303244Y-65021791D01*
X18303244Y-65021791D02*
X18231816Y-65059887D01*
X17912768Y-65555125D02*
X17846102Y-65021791D01*
X17812768Y-64755125D02*
X17855625Y-64793220D01*
X17855625Y-64793220D02*
X17822292Y-64831315D01*
X17822292Y-64831315D02*
X17779435Y-64793220D01*
X17779435Y-64793220D02*
X17812768Y-64755125D01*
X17812768Y-64755125D02*
X17822292Y-64831315D01*
X17122292Y-65021791D02*
X17203245Y-65669410D01*
X17203245Y-65669410D02*
X17250864Y-65745601D01*
X17250864Y-65745601D02*
X17293721Y-65783696D01*
X17293721Y-65783696D02*
X17374673Y-65821791D01*
X17374673Y-65821791D02*
X17488959Y-65821791D01*
X17488959Y-65821791D02*
X17560388Y-65783696D01*
X17184197Y-65517030D02*
X17265150Y-65555125D01*
X17265150Y-65555125D02*
X17417531Y-65555125D01*
X17417531Y-65555125D02*
X17488959Y-65517030D01*
X17488959Y-65517030D02*
X17522292Y-65478934D01*
X17522292Y-65478934D02*
X17550864Y-65402744D01*
X17550864Y-65402744D02*
X17522292Y-65174172D01*
X17522292Y-65174172D02*
X17474673Y-65097982D01*
X17474673Y-65097982D02*
X17431816Y-65059887D01*
X17431816Y-65059887D02*
X17350864Y-65021791D01*
X17350864Y-65021791D02*
X17198483Y-65021791D01*
X17198483Y-65021791D02*
X17127054Y-65059887D01*
X16741340Y-65021791D02*
X16808006Y-65555125D01*
X16750863Y-65097982D02*
X16708006Y-65059887D01*
X16708006Y-65059887D02*
X16627054Y-65021791D01*
X16627054Y-65021791D02*
X16512768Y-65021791D01*
X16512768Y-65021791D02*
X16441340Y-65059887D01*
X16441340Y-65059887D02*
X16412768Y-65136077D01*
X16412768Y-65136077D02*
X16465149Y-65555125D01*
X15774672Y-65517030D02*
X15855625Y-65555125D01*
X15855625Y-65555125D02*
X16008006Y-65555125D01*
X16008006Y-65555125D02*
X16079434Y-65517030D01*
X16079434Y-65517030D02*
X16108006Y-65440839D01*
X16108006Y-65440839D02*
X16069911Y-65136077D01*
X16069911Y-65136077D02*
X16022291Y-65059887D01*
X16022291Y-65059887D02*
X15941339Y-65021791D01*
X15941339Y-65021791D02*
X15788958Y-65021791D01*
X15788958Y-65021791D02*
X15717530Y-65059887D01*
X15717530Y-65059887D02*
X15688958Y-65136077D01*
X15688958Y-65136077D02*
X15698482Y-65212268D01*
X15698482Y-65212268D02*
X16088958Y-65288458D01*
X15055625Y-65555125D02*
X14955625Y-64755125D01*
X15050863Y-65517030D02*
X15131816Y-65555125D01*
X15131816Y-65555125D02*
X15284197Y-65555125D01*
X15284197Y-65555125D02*
X15355625Y-65517030D01*
X15355625Y-65517030D02*
X15388958Y-65478934D01*
X15388958Y-65478934D02*
X15417530Y-65402744D01*
X15417530Y-65402744D02*
X15388958Y-65174172D01*
X15388958Y-65174172D02*
X15341339Y-65097982D01*
X15341339Y-65097982D02*
X15298482Y-65059887D01*
X15298482Y-65059887D02*
X15217530Y-65021791D01*
X15217530Y-65021791D02*
X15065149Y-65021791D01*
X15065149Y-65021791D02*
X14993720Y-65059887D01*
X14065148Y-65555125D02*
X13965148Y-64755125D01*
X14003243Y-65059887D02*
X13922291Y-65021791D01*
X13922291Y-65021791D02*
X13769910Y-65021791D01*
X13769910Y-65021791D02*
X13698482Y-65059887D01*
X13698482Y-65059887D02*
X13665148Y-65097982D01*
X13665148Y-65097982D02*
X13636577Y-65174172D01*
X13636577Y-65174172D02*
X13665148Y-65402744D01*
X13665148Y-65402744D02*
X13712767Y-65478934D01*
X13712767Y-65478934D02*
X13755624Y-65517030D01*
X13755624Y-65517030D02*
X13836577Y-65555125D01*
X13836577Y-65555125D02*
X13988958Y-65555125D01*
X13988958Y-65555125D02*
X14060386Y-65517030D01*
X13350862Y-65021791D02*
X13227053Y-65555125D01*
X12969910Y-65021791D02*
X13227053Y-65555125D01*
X13227053Y-65555125D02*
X13327053Y-65745601D01*
X13327053Y-65745601D02*
X13369910Y-65783696D01*
X13369910Y-65783696D02*
X13450862Y-65821791D01*
X11741338Y-65555125D02*
X12122290Y-65555125D01*
X12122290Y-65555125D02*
X12022290Y-64755125D01*
X11165147Y-65517030D02*
X11246100Y-65555125D01*
X11246100Y-65555125D02*
X11398481Y-65555125D01*
X11398481Y-65555125D02*
X11469909Y-65517030D01*
X11469909Y-65517030D02*
X11498481Y-65440839D01*
X11498481Y-65440839D02*
X11460386Y-65136077D01*
X11460386Y-65136077D02*
X11412766Y-65059887D01*
X11412766Y-65059887D02*
X11331814Y-65021791D01*
X11331814Y-65021791D02*
X11179433Y-65021791D01*
X11179433Y-65021791D02*
X11108005Y-65059887D01*
X11108005Y-65059887D02*
X11079433Y-65136077D01*
X11079433Y-65136077D02*
X11088957Y-65212268D01*
X11088957Y-65212268D02*
X11479433Y-65288458D01*
X11141338Y-64717030D02*
X11269909Y-64831315D01*
X10674672Y-65555125D02*
X10746100Y-65517030D01*
X10746100Y-65517030D02*
X10779433Y-65478934D01*
X10779433Y-65478934D02*
X10808005Y-65402744D01*
X10808005Y-65402744D02*
X10779433Y-65174172D01*
X10779433Y-65174172D02*
X10731814Y-65097982D01*
X10731814Y-65097982D02*
X10688957Y-65059887D01*
X10688957Y-65059887D02*
X10608005Y-65021791D01*
X10608005Y-65021791D02*
X10493719Y-65021791D01*
X10493719Y-65021791D02*
X10422291Y-65059887D01*
X10422291Y-65059887D02*
X10388957Y-65097982D01*
X10388957Y-65097982D02*
X10360386Y-65174172D01*
X10360386Y-65174172D02*
X10388957Y-65402744D01*
X10388957Y-65402744D02*
X10436576Y-65478934D01*
X10436576Y-65478934D02*
X10479433Y-65517030D01*
X10479433Y-65517030D02*
X10560386Y-65555125D01*
X10560386Y-65555125D02*
X10674672Y-65555125D01*
X9998481Y-65021791D02*
X10065147Y-65555125D01*
X10008004Y-65097982D02*
X9965147Y-65059887D01*
X9965147Y-65059887D02*
X9884195Y-65021791D01*
X9884195Y-65021791D02*
X9769909Y-65021791D01*
X9769909Y-65021791D02*
X9698481Y-65059887D01*
X9698481Y-65059887D02*
X9669909Y-65136077D01*
X9669909Y-65136077D02*
X9722290Y-65555125D01*
X8274670Y-65555125D02*
X8493718Y-65174172D01*
X8731813Y-65555125D02*
X8631813Y-64755125D01*
X8631813Y-64755125D02*
X8327051Y-64755125D01*
X8327051Y-64755125D02*
X8255623Y-64793220D01*
X8255623Y-64793220D02*
X8222289Y-64831315D01*
X8222289Y-64831315D02*
X8193718Y-64907506D01*
X8193718Y-64907506D02*
X8208004Y-65021791D01*
X8208004Y-65021791D02*
X8255623Y-65097982D01*
X8255623Y-65097982D02*
X8298480Y-65136077D01*
X8298480Y-65136077D02*
X8379432Y-65174172D01*
X8379432Y-65174172D02*
X8684194Y-65174172D01*
X7588956Y-65555125D02*
X7536575Y-65136077D01*
X7536575Y-65136077D02*
X7565147Y-65059887D01*
X7565147Y-65059887D02*
X7636575Y-65021791D01*
X7636575Y-65021791D02*
X7788956Y-65021791D01*
X7788956Y-65021791D02*
X7869908Y-65059887D01*
X7584194Y-65517030D02*
X7665147Y-65555125D01*
X7665147Y-65555125D02*
X7855623Y-65555125D01*
X7855623Y-65555125D02*
X7927051Y-65517030D01*
X7927051Y-65517030D02*
X7955623Y-65440839D01*
X7955623Y-65440839D02*
X7946099Y-65364649D01*
X7946099Y-65364649D02*
X7898480Y-65288458D01*
X7898480Y-65288458D02*
X7817528Y-65250363D01*
X7817528Y-65250363D02*
X7627051Y-65250363D01*
X7627051Y-65250363D02*
X7546099Y-65212268D01*
X7255622Y-65021791D02*
X6950860Y-65021791D01*
X7108003Y-64755125D02*
X7193718Y-65440839D01*
X7193718Y-65440839D02*
X7165146Y-65517030D01*
X7165146Y-65517030D02*
X7093718Y-65555125D01*
X7093718Y-65555125D02*
X7017527Y-65555125D01*
X6750860Y-65555125D02*
X6684194Y-65021791D01*
X6650860Y-64755125D02*
X6693717Y-64793220D01*
X6693717Y-64793220D02*
X6660384Y-64831315D01*
X6660384Y-64831315D02*
X6617527Y-64793220D01*
X6617527Y-64793220D02*
X6650860Y-64755125D01*
X6650860Y-64755125D02*
X6660384Y-64831315D01*
X6303242Y-65021791D02*
X6369908Y-65555125D01*
X6312765Y-65097982D02*
X6269908Y-65059887D01*
X6269908Y-65059887D02*
X6188956Y-65021791D01*
X6188956Y-65021791D02*
X6074670Y-65021791D01*
X6074670Y-65021791D02*
X6003242Y-65059887D01*
X6003242Y-65059887D02*
X5974670Y-65136077D01*
X5974670Y-65136077D02*
X6027051Y-65555125D01*
X5298479Y-65517030D02*
X5379432Y-65555125D01*
X5379432Y-65555125D02*
X5531813Y-65555125D01*
X5531813Y-65555125D02*
X5603241Y-65517030D01*
X5603241Y-65517030D02*
X5636574Y-65478934D01*
X5636574Y-65478934D02*
X5665146Y-65402744D01*
X5665146Y-65402744D02*
X5636574Y-65174172D01*
X5636574Y-65174172D02*
X5588955Y-65097982D01*
X5588955Y-65097982D02*
X5546098Y-65059887D01*
X5546098Y-65059887D02*
X5465146Y-65021791D01*
X5465146Y-65021791D02*
X5312765Y-65021791D01*
X5312765Y-65021791D02*
X5241336Y-65059887D01*
X4960384Y-65555125D02*
X4860384Y-64755125D01*
X4846099Y-65250363D02*
X4655622Y-65555125D01*
X4588956Y-65021791D02*
X4931813Y-65326553D01*
X4388956Y-65555125D02*
X3903241Y-65021791D01*
X4322289Y-65021791D02*
X3969908Y-65555125D01*
X3474670Y-65859887D02*
X3508003Y-65821791D01*
X3508003Y-65821791D02*
X3569908Y-65707506D01*
X3569908Y-65707506D02*
X3598480Y-65631315D01*
X3598480Y-65631315D02*
X3622289Y-65517030D01*
X3622289Y-65517030D02*
X3636575Y-65326553D01*
X3636575Y-65326553D02*
X3617527Y-65174172D01*
X3617527Y-65174172D02*
X3555622Y-64983696D01*
X3555622Y-64983696D02*
X3503241Y-64869410D01*
X3503241Y-64869410D02*
X3455622Y-64793220D01*
X3455622Y-64793220D02*
X3365146Y-64678934D01*
X3365146Y-64678934D02*
X3322289Y-64640839D01*
X2750861Y-65555125D02*
X3131813Y-65555125D01*
X3131813Y-65555125D02*
X3031813Y-64755125D01*
X2174670Y-65517030D02*
X2255623Y-65555125D01*
X2255623Y-65555125D02*
X2408004Y-65555125D01*
X2408004Y-65555125D02*
X2479432Y-65517030D01*
X2479432Y-65517030D02*
X2508004Y-65440839D01*
X2508004Y-65440839D02*
X2469909Y-65136077D01*
X2469909Y-65136077D02*
X2422289Y-65059887D01*
X2422289Y-65059887D02*
X2341337Y-65021791D01*
X2341337Y-65021791D02*
X2188956Y-65021791D01*
X2188956Y-65021791D02*
X2117528Y-65059887D01*
X2117528Y-65059887D02*
X2088956Y-65136077D01*
X2088956Y-65136077D02*
X2098480Y-65212268D01*
X2098480Y-65212268D02*
X2488956Y-65288458D01*
X1684195Y-65555125D02*
X1755623Y-65517030D01*
X1755623Y-65517030D02*
X1788956Y-65478934D01*
X1788956Y-65478934D02*
X1817528Y-65402744D01*
X1817528Y-65402744D02*
X1788956Y-65174172D01*
X1788956Y-65174172D02*
X1741337Y-65097982D01*
X1741337Y-65097982D02*
X1698480Y-65059887D01*
X1698480Y-65059887D02*
X1617528Y-65021791D01*
X1617528Y-65021791D02*
X1503242Y-65021791D01*
X1503242Y-65021791D02*
X1431814Y-65059887D01*
X1431814Y-65059887D02*
X1398480Y-65097982D01*
X1398480Y-65097982D02*
X1369909Y-65174172D01*
X1369909Y-65174172D02*
X1398480Y-65402744D01*
X1398480Y-65402744D02*
X1446099Y-65478934D01*
X1446099Y-65478934D02*
X1488956Y-65517030D01*
X1488956Y-65517030D02*
X1569909Y-65555125D01*
X1569909Y-65555125D02*
X1684195Y-65555125D01*
X1008004Y-65021791D02*
X1074670Y-65555125D01*
X1017527Y-65097982D02*
X974670Y-65059887D01*
X974670Y-65059887D02*
X893718Y-65021791D01*
X893718Y-65021791D02*
X779432Y-65021791D01*
X779432Y-65021791D02*
X708004Y-65059887D01*
X708004Y-65059887D02*
X679432Y-65136077D01*
X679432Y-65136077D02*
X731813Y-65555125D01*
X350860Y-65555125D02*
X284194Y-65021791D01*
X303241Y-65174172D02*
X255622Y-65097982D01*
X255622Y-65097982D02*
X212765Y-65059887D01*
X212765Y-65059887D02*
X131813Y-65021791D01*
X131813Y-65021791D02*
X55622Y-65021791D01*
X-487234Y-65555125D02*
X-539615Y-65136077D01*
X-539615Y-65136077D02*
X-511043Y-65059887D01*
X-511043Y-65059887D02*
X-439615Y-65021791D01*
X-439615Y-65021791D02*
X-287234Y-65021791D01*
X-287234Y-65021791D02*
X-206282Y-65059887D01*
X-491996Y-65517030D02*
X-411043Y-65555125D01*
X-411043Y-65555125D02*
X-220567Y-65555125D01*
X-220567Y-65555125D02*
X-149139Y-65517030D01*
X-149139Y-65517030D02*
X-120567Y-65440839D01*
X-120567Y-65440839D02*
X-130091Y-65364649D01*
X-130091Y-65364649D02*
X-177710Y-65288458D01*
X-177710Y-65288458D02*
X-258663Y-65250363D01*
X-258663Y-65250363D02*
X-449139Y-65250363D01*
X-449139Y-65250363D02*
X-530091Y-65212268D01*
X-820568Y-65021791D02*
X-1125330Y-65021791D01*
X-968187Y-64755125D02*
X-882473Y-65440839D01*
X-882473Y-65440839D02*
X-911044Y-65517030D01*
X-911044Y-65517030D02*
X-982473Y-65555125D01*
X-982473Y-65555125D02*
X-1058663Y-65555125D01*
X-1353901Y-65021791D02*
X-1925330Y-65021791D01*
X-1625330Y-64678934D02*
X-1268187Y-65707506D01*
X-1806282Y-65364649D02*
X-1234854Y-65364649D01*
X-1534854Y-65707506D02*
X-1891996Y-64678934D01*
X-2534854Y-65021791D02*
X-2468187Y-65555125D01*
X-2382473Y-64717030D02*
X-2120568Y-65288458D01*
X-2120568Y-65288458D02*
X-2615806Y-65288458D01*
X-3306282Y-65555125D02*
X-2849140Y-65555125D01*
X-3077711Y-65555125D02*
X-3177711Y-64755125D01*
X-3177711Y-64755125D02*
X-3087235Y-64869410D01*
X-3087235Y-64869410D02*
X-3001521Y-64945601D01*
X-3001521Y-64945601D02*
X-2920568Y-64983696D01*
X-4058664Y-65021791D02*
X-3991997Y-65555125D01*
X-3906283Y-64717030D02*
X-3644378Y-65288458D01*
X-3644378Y-65288458D02*
X-4139616Y-65288458D01*
X-4449140Y-65555125D02*
X-4601521Y-65555125D01*
X-4601521Y-65555125D02*
X-4682473Y-65517030D01*
X-4682473Y-65517030D02*
X-4725331Y-65478934D01*
X-4725331Y-65478934D02*
X-4815807Y-65364649D01*
X-4815807Y-65364649D02*
X-4872950Y-65212268D01*
X-4872950Y-65212268D02*
X-4911045Y-64907506D01*
X-4911045Y-64907506D02*
X-4882473Y-64831315D01*
X-4882473Y-64831315D02*
X-4849140Y-64793220D01*
X-4849140Y-64793220D02*
X-4777711Y-64755125D01*
X-4777711Y-64755125D02*
X-4625331Y-64755125D01*
X-4625331Y-64755125D02*
X-4544378Y-64793220D01*
X-4544378Y-64793220D02*
X-4501521Y-64831315D01*
X-4501521Y-64831315D02*
X-4453902Y-64907506D01*
X-4453902Y-64907506D02*
X-4430092Y-65097982D01*
X-4430092Y-65097982D02*
X-4458664Y-65174172D01*
X-4458664Y-65174172D02*
X-4491997Y-65212268D01*
X-4491997Y-65212268D02*
X-4563426Y-65250363D01*
X-4563426Y-65250363D02*
X-4715807Y-65250363D01*
X-4715807Y-65250363D02*
X-4796759Y-65212268D01*
X-4796759Y-65212268D02*
X-4839616Y-65174172D01*
X-4839616Y-65174172D02*
X-4887235Y-65097982D01*
X-5058664Y-65859887D02*
X-5101521Y-65821791D01*
X-5101521Y-65821791D02*
X-5191997Y-65707506D01*
X-5191997Y-65707506D02*
X-5239616Y-65631315D01*
X-5239616Y-65631315D02*
X-5291997Y-65517030D01*
X-5291997Y-65517030D02*
X-5353902Y-65326553D01*
X-5353902Y-65326553D02*
X-5372950Y-65174172D01*
X-5372950Y-65174172D02*
X-5358664Y-64983696D01*
X-5358664Y-64983696D02*
X-5334855Y-64869410D01*
X-5334855Y-64869410D02*
X-5306283Y-64793220D01*
X-5306283Y-64793220D02*
X-5244378Y-64678934D01*
X-5244378Y-64678934D02*
X-5211045Y-64640839D01*
X20046101Y-64055125D02*
X19946101Y-63255125D01*
X19322292Y-64055125D02*
X19222292Y-63255125D01*
X19317530Y-64017030D02*
X19398483Y-64055125D01*
X19398483Y-64055125D02*
X19550864Y-64055125D01*
X19550864Y-64055125D02*
X19622292Y-64017030D01*
X19622292Y-64017030D02*
X19655625Y-63978934D01*
X19655625Y-63978934D02*
X19684197Y-63902744D01*
X19684197Y-63902744D02*
X19655625Y-63674172D01*
X19655625Y-63674172D02*
X19608006Y-63597982D01*
X19608006Y-63597982D02*
X19565149Y-63559887D01*
X19565149Y-63559887D02*
X19484197Y-63521791D01*
X19484197Y-63521791D02*
X19331816Y-63521791D01*
X19331816Y-63521791D02*
X19260387Y-63559887D01*
X18631815Y-64017030D02*
X18712768Y-64055125D01*
X18712768Y-64055125D02*
X18865149Y-64055125D01*
X18865149Y-64055125D02*
X18936577Y-64017030D01*
X18936577Y-64017030D02*
X18965149Y-63940839D01*
X18965149Y-63940839D02*
X18927054Y-63636077D01*
X18927054Y-63636077D02*
X18879434Y-63559887D01*
X18879434Y-63559887D02*
X18798482Y-63521791D01*
X18798482Y-63521791D02*
X18646101Y-63521791D01*
X18646101Y-63521791D02*
X18574673Y-63559887D01*
X18574673Y-63559887D02*
X18546101Y-63636077D01*
X18546101Y-63636077D02*
X18555625Y-63712268D01*
X18555625Y-63712268D02*
X18946101Y-63788458D01*
X17912768Y-64055125D02*
X17860387Y-63636077D01*
X17860387Y-63636077D02*
X17888959Y-63559887D01*
X17888959Y-63559887D02*
X17960387Y-63521791D01*
X17960387Y-63521791D02*
X18112768Y-63521791D01*
X18112768Y-63521791D02*
X18193720Y-63559887D01*
X17908006Y-64017030D02*
X17988959Y-64055125D01*
X17988959Y-64055125D02*
X18179435Y-64055125D01*
X18179435Y-64055125D02*
X18250863Y-64017030D01*
X18250863Y-64017030D02*
X18279435Y-63940839D01*
X18279435Y-63940839D02*
X18269911Y-63864649D01*
X18269911Y-63864649D02*
X18222292Y-63788458D01*
X18222292Y-63788458D02*
X18141340Y-63750363D01*
X18141340Y-63750363D02*
X17950863Y-63750363D01*
X17950863Y-63750363D02*
X17869911Y-63712268D01*
X16922291Y-64055125D02*
X16822291Y-63255125D01*
X16860386Y-63559887D02*
X16779434Y-63521791D01*
X16779434Y-63521791D02*
X16627053Y-63521791D01*
X16627053Y-63521791D02*
X16555625Y-63559887D01*
X16555625Y-63559887D02*
X16522291Y-63597982D01*
X16522291Y-63597982D02*
X16493720Y-63674172D01*
X16493720Y-63674172D02*
X16522291Y-63902744D01*
X16522291Y-63902744D02*
X16569910Y-63978934D01*
X16569910Y-63978934D02*
X16612767Y-64017030D01*
X16612767Y-64017030D02*
X16693720Y-64055125D01*
X16693720Y-64055125D02*
X16846101Y-64055125D01*
X16846101Y-64055125D02*
X16917529Y-64017030D01*
X16208005Y-63521791D02*
X16084196Y-64055125D01*
X15827053Y-63521791D02*
X16084196Y-64055125D01*
X16084196Y-64055125D02*
X16184196Y-64245601D01*
X16184196Y-64245601D02*
X16227053Y-64283696D01*
X16227053Y-64283696D02*
X16308005Y-64321791D01*
X14979433Y-64055125D02*
X14879433Y-63255125D01*
X14646100Y-63521791D02*
X14341338Y-63521791D01*
X14498481Y-63255125D02*
X14584196Y-63940839D01*
X14584196Y-63940839D02*
X14555624Y-64017030D01*
X14555624Y-64017030D02*
X14484196Y-64055125D01*
X14484196Y-64055125D02*
X14408005Y-64055125D01*
X14174672Y-64017030D02*
X14103243Y-64055125D01*
X14103243Y-64055125D02*
X13950862Y-64055125D01*
X13950862Y-64055125D02*
X13869910Y-64017030D01*
X13869910Y-64017030D02*
X13822291Y-63940839D01*
X13822291Y-63940839D02*
X13817529Y-63902744D01*
X13817529Y-63902744D02*
X13846100Y-63826553D01*
X13846100Y-63826553D02*
X13917529Y-63788458D01*
X13917529Y-63788458D02*
X14031814Y-63788458D01*
X14031814Y-63788458D02*
X14103243Y-63750363D01*
X14103243Y-63750363D02*
X14131814Y-63674172D01*
X14131814Y-63674172D02*
X14127053Y-63636077D01*
X14127053Y-63636077D02*
X14079433Y-63559887D01*
X14079433Y-63559887D02*
X13998481Y-63521791D01*
X13998481Y-63521791D02*
X13884195Y-63521791D01*
X13884195Y-63521791D02*
X13812767Y-63559887D01*
X13493719Y-64055125D02*
X13393719Y-63255125D01*
X13393719Y-63255125D02*
X13198481Y-63826553D01*
X13198481Y-63826553D02*
X12860386Y-63255125D01*
X12860386Y-63255125D02*
X12960386Y-64055125D01*
X12236576Y-64055125D02*
X12184195Y-63636077D01*
X12184195Y-63636077D02*
X12212767Y-63559887D01*
X12212767Y-63559887D02*
X12284195Y-63521791D01*
X12284195Y-63521791D02*
X12436576Y-63521791D01*
X12436576Y-63521791D02*
X12517528Y-63559887D01*
X12231814Y-64017030D02*
X12312767Y-64055125D01*
X12312767Y-64055125D02*
X12503243Y-64055125D01*
X12503243Y-64055125D02*
X12574671Y-64017030D01*
X12574671Y-64017030D02*
X12603243Y-63940839D01*
X12603243Y-63940839D02*
X12593719Y-63864649D01*
X12593719Y-63864649D02*
X12546100Y-63788458D01*
X12546100Y-63788458D02*
X12465148Y-63750363D01*
X12465148Y-63750363D02*
X12274671Y-63750363D01*
X12274671Y-63750363D02*
X12193719Y-63712268D01*
X11855623Y-64055125D02*
X11788957Y-63521791D01*
X11808004Y-63674172D02*
X11760385Y-63597982D01*
X11760385Y-63597982D02*
X11717528Y-63559887D01*
X11717528Y-63559887D02*
X11636576Y-63521791D01*
X11636576Y-63521791D02*
X11560385Y-63521791D01*
X11408004Y-63521791D02*
X11103242Y-63521791D01*
X11260385Y-63255125D02*
X11346100Y-63940839D01*
X11346100Y-63940839D02*
X11317528Y-64017030D01*
X11317528Y-64017030D02*
X11246100Y-64055125D01*
X11246100Y-64055125D02*
X11169909Y-64055125D01*
X10650861Y-63255125D02*
X10574671Y-63255125D01*
X10574671Y-63255125D02*
X10503242Y-63293220D01*
X10503242Y-63293220D02*
X10469909Y-63331315D01*
X10469909Y-63331315D02*
X10441337Y-63407506D01*
X10441337Y-63407506D02*
X10422290Y-63559887D01*
X10422290Y-63559887D02*
X10446099Y-63750363D01*
X10446099Y-63750363D02*
X10503242Y-63902744D01*
X10503242Y-63902744D02*
X10550861Y-63978934D01*
X10550861Y-63978934D02*
X10593718Y-64017030D01*
X10593718Y-64017030D02*
X10674671Y-64055125D01*
X10674671Y-64055125D02*
X10750861Y-64055125D01*
X10750861Y-64055125D02*
X10822290Y-64017030D01*
X10822290Y-64017030D02*
X10855623Y-63978934D01*
X10855623Y-63978934D02*
X10884195Y-63902744D01*
X10884195Y-63902744D02*
X10903242Y-63750363D01*
X10903242Y-63750363D02*
X10879433Y-63559887D01*
X10879433Y-63559887D02*
X10822290Y-63407506D01*
X10822290Y-63407506D02*
X10774671Y-63331315D01*
X10774671Y-63331315D02*
X10731814Y-63293220D01*
X10731814Y-63293220D02*
X10650861Y-63255125D01*
X9698480Y-63255125D02*
X9850861Y-63255125D01*
X9850861Y-63255125D02*
X9931813Y-63293220D01*
X9931813Y-63293220D02*
X9974671Y-63331315D01*
X9974671Y-63331315D02*
X10065147Y-63445601D01*
X10065147Y-63445601D02*
X10122290Y-63597982D01*
X10122290Y-63597982D02*
X10160385Y-63902744D01*
X10160385Y-63902744D02*
X10131813Y-63978934D01*
X10131813Y-63978934D02*
X10098480Y-64017030D01*
X10098480Y-64017030D02*
X10027052Y-64055125D01*
X10027052Y-64055125D02*
X9874671Y-64055125D01*
X9874671Y-64055125D02*
X9793718Y-64017030D01*
X9793718Y-64017030D02*
X9750861Y-63978934D01*
X9750861Y-63978934D02*
X9703242Y-63902744D01*
X9703242Y-63902744D02*
X9679432Y-63712268D01*
X9679432Y-63712268D02*
X9708004Y-63636077D01*
X9708004Y-63636077D02*
X9741337Y-63597982D01*
X9741337Y-63597982D02*
X9812766Y-63559887D01*
X9812766Y-63559887D02*
X9965147Y-63559887D01*
X9965147Y-63559887D02*
X10046099Y-63597982D01*
X10046099Y-63597982D02*
X10088956Y-63636077D01*
X10088956Y-63636077D02*
X10136575Y-63712268D01*
X9350861Y-63521791D02*
X8779432Y-63521791D01*
X9079432Y-63178934D02*
X9436575Y-64207506D01*
X8898480Y-63864649D02*
X9469908Y-63864649D01*
X9169908Y-64207506D02*
X8812766Y-63178934D01*
X8327051Y-63255125D02*
X8250861Y-63255125D01*
X8250861Y-63255125D02*
X8179432Y-63293220D01*
X8179432Y-63293220D02*
X8146099Y-63331315D01*
X8146099Y-63331315D02*
X8117527Y-63407506D01*
X8117527Y-63407506D02*
X8098480Y-63559887D01*
X8098480Y-63559887D02*
X8122289Y-63750363D01*
X8122289Y-63750363D02*
X8179432Y-63902744D01*
X8179432Y-63902744D02*
X8227051Y-63978934D01*
X8227051Y-63978934D02*
X8269908Y-64017030D01*
X8269908Y-64017030D02*
X8350861Y-64055125D01*
X8350861Y-64055125D02*
X8427051Y-64055125D01*
X8427051Y-64055125D02*
X8498480Y-64017030D01*
X8498480Y-64017030D02*
X8531813Y-63978934D01*
X8531813Y-63978934D02*
X8560385Y-63902744D01*
X8560385Y-63902744D02*
X8579432Y-63750363D01*
X8579432Y-63750363D02*
X8555623Y-63559887D01*
X8555623Y-63559887D02*
X8498480Y-63407506D01*
X8498480Y-63407506D02*
X8450861Y-63331315D01*
X8450861Y-63331315D02*
X8408004Y-63293220D01*
X8408004Y-63293220D02*
X8327051Y-63255125D01*
X7793718Y-63255125D02*
X7298480Y-63255125D01*
X7298480Y-63255125D02*
X7603242Y-63559887D01*
X7603242Y-63559887D02*
X7488956Y-63559887D01*
X7488956Y-63559887D02*
X7417527Y-63597982D01*
X7417527Y-63597982D02*
X7384194Y-63636077D01*
X7384194Y-63636077D02*
X7355622Y-63712268D01*
X7355622Y-63712268D02*
X7379432Y-63902744D01*
X7379432Y-63902744D02*
X7427051Y-63978934D01*
X7427051Y-63978934D02*
X7469908Y-64017030D01*
X7469908Y-64017030D02*
X7550861Y-64055125D01*
X7550861Y-64055125D02*
X7779432Y-64055125D01*
X7779432Y-64055125D02*
X7850861Y-64017030D01*
X7850861Y-64017030D02*
X7884194Y-63978934D01*
X6884194Y-63597982D02*
X6955622Y-63559887D01*
X6955622Y-63559887D02*
X6988956Y-63521791D01*
X6988956Y-63521791D02*
X7017527Y-63445601D01*
X7017527Y-63445601D02*
X7012765Y-63407506D01*
X7012765Y-63407506D02*
X6965146Y-63331315D01*
X6965146Y-63331315D02*
X6922289Y-63293220D01*
X6922289Y-63293220D02*
X6841337Y-63255125D01*
X6841337Y-63255125D02*
X6688956Y-63255125D01*
X6688956Y-63255125D02*
X6617527Y-63293220D01*
X6617527Y-63293220D02*
X6584194Y-63331315D01*
X6584194Y-63331315D02*
X6555622Y-63407506D01*
X6555622Y-63407506D02*
X6560384Y-63445601D01*
X6560384Y-63445601D02*
X6608003Y-63521791D01*
X6608003Y-63521791D02*
X6650860Y-63559887D01*
X6650860Y-63559887D02*
X6731813Y-63597982D01*
X6731813Y-63597982D02*
X6884194Y-63597982D01*
X6884194Y-63597982D02*
X6965146Y-63636077D01*
X6965146Y-63636077D02*
X7008003Y-63674172D01*
X7008003Y-63674172D02*
X7055622Y-63750363D01*
X7055622Y-63750363D02*
X7074670Y-63902744D01*
X7074670Y-63902744D02*
X7046098Y-63978934D01*
X7046098Y-63978934D02*
X7012765Y-64017030D01*
X7012765Y-64017030D02*
X6941337Y-64055125D01*
X6941337Y-64055125D02*
X6788956Y-64055125D01*
X6788956Y-64055125D02*
X6708003Y-64017030D01*
X6708003Y-64017030D02*
X6665146Y-63978934D01*
X6665146Y-63978934D02*
X6617527Y-63902744D01*
X6617527Y-63902744D02*
X6598479Y-63750363D01*
X6598479Y-63750363D02*
X6627051Y-63674172D01*
X6627051Y-63674172D02*
X6660384Y-63636077D01*
X6660384Y-63636077D02*
X6731813Y-63597982D01*
X6041336Y-63255125D02*
X5965146Y-63255125D01*
X5965146Y-63255125D02*
X5893717Y-63293220D01*
X5893717Y-63293220D02*
X5860384Y-63331315D01*
X5860384Y-63331315D02*
X5831812Y-63407506D01*
X5831812Y-63407506D02*
X5812765Y-63559887D01*
X5812765Y-63559887D02*
X5836574Y-63750363D01*
X5836574Y-63750363D02*
X5893717Y-63902744D01*
X5893717Y-63902744D02*
X5941336Y-63978934D01*
X5941336Y-63978934D02*
X5984193Y-64017030D01*
X5984193Y-64017030D02*
X6065146Y-64055125D01*
X6065146Y-64055125D02*
X6141336Y-64055125D01*
X6141336Y-64055125D02*
X6212765Y-64017030D01*
X6212765Y-64017030D02*
X6246098Y-63978934D01*
X6246098Y-63978934D02*
X6274670Y-63902744D01*
X6274670Y-63902744D02*
X6293717Y-63750363D01*
X6293717Y-63750363D02*
X6269908Y-63559887D01*
X6269908Y-63559887D02*
X6212765Y-63407506D01*
X6212765Y-63407506D02*
X6165146Y-63331315D01*
X6165146Y-63331315D02*
X6122289Y-63293220D01*
X6122289Y-63293220D02*
X6041336Y-63255125D01*
X19579435Y-62478934D02*
X19622292Y-62517030D01*
X19622292Y-62517030D02*
X19741339Y-62555125D01*
X19741339Y-62555125D02*
X19817530Y-62555125D01*
X19817530Y-62555125D02*
X19927054Y-62517030D01*
X19927054Y-62517030D02*
X19993720Y-62440839D01*
X19993720Y-62440839D02*
X20022292Y-62364649D01*
X20022292Y-62364649D02*
X20041339Y-62212268D01*
X20041339Y-62212268D02*
X20027054Y-62097982D01*
X20027054Y-62097982D02*
X19969911Y-61945601D01*
X19969911Y-61945601D02*
X19922292Y-61869410D01*
X19922292Y-61869410D02*
X19836577Y-61793220D01*
X19836577Y-61793220D02*
X19717530Y-61755125D01*
X19717530Y-61755125D02*
X19641339Y-61755125D01*
X19641339Y-61755125D02*
X19531816Y-61793220D01*
X19531816Y-61793220D02*
X19498482Y-61831315D01*
X19246101Y-62555125D02*
X19146101Y-61755125D01*
X18903244Y-62555125D02*
X18850863Y-62136077D01*
X18850863Y-62136077D02*
X18879435Y-62059887D01*
X18879435Y-62059887D02*
X18950863Y-62021791D01*
X18950863Y-62021791D02*
X19065149Y-62021791D01*
X19065149Y-62021791D02*
X19146101Y-62059887D01*
X19146101Y-62059887D02*
X19188958Y-62097982D01*
X18408006Y-62555125D02*
X18479434Y-62517030D01*
X18479434Y-62517030D02*
X18512767Y-62478934D01*
X18512767Y-62478934D02*
X18541339Y-62402744D01*
X18541339Y-62402744D02*
X18512767Y-62174172D01*
X18512767Y-62174172D02*
X18465148Y-62097982D01*
X18465148Y-62097982D02*
X18422291Y-62059887D01*
X18422291Y-62059887D02*
X18341339Y-62021791D01*
X18341339Y-62021791D02*
X18227053Y-62021791D01*
X18227053Y-62021791D02*
X18155625Y-62059887D01*
X18155625Y-62059887D02*
X18122291Y-62097982D01*
X18122291Y-62097982D02*
X18093720Y-62174172D01*
X18093720Y-62174172D02*
X18122291Y-62402744D01*
X18122291Y-62402744D02*
X18169910Y-62478934D01*
X18169910Y-62478934D02*
X18212767Y-62517030D01*
X18212767Y-62517030D02*
X18293720Y-62555125D01*
X18293720Y-62555125D02*
X18408006Y-62555125D01*
X17450862Y-62517030D02*
X17531815Y-62555125D01*
X17531815Y-62555125D02*
X17684196Y-62555125D01*
X17684196Y-62555125D02*
X17755624Y-62517030D01*
X17755624Y-62517030D02*
X17788957Y-62478934D01*
X17788957Y-62478934D02*
X17817529Y-62402744D01*
X17817529Y-62402744D02*
X17788957Y-62174172D01*
X17788957Y-62174172D02*
X17741338Y-62097982D01*
X17741338Y-62097982D02*
X17698481Y-62059887D01*
X17698481Y-62059887D02*
X17617529Y-62021791D01*
X17617529Y-62021791D02*
X17465148Y-62021791D01*
X17465148Y-62021791D02*
X17393719Y-62059887D01*
X16998482Y-62555125D02*
X17069910Y-62517030D01*
X17069910Y-62517030D02*
X17103243Y-62478934D01*
X17103243Y-62478934D02*
X17131815Y-62402744D01*
X17131815Y-62402744D02*
X17103243Y-62174172D01*
X17103243Y-62174172D02*
X17055624Y-62097982D01*
X17055624Y-62097982D02*
X17012767Y-62059887D01*
X17012767Y-62059887D02*
X16931815Y-62021791D01*
X16931815Y-62021791D02*
X16817529Y-62021791D01*
X16817529Y-62021791D02*
X16746101Y-62059887D01*
X16746101Y-62059887D02*
X16712767Y-62097982D01*
X16712767Y-62097982D02*
X16684196Y-62174172D01*
X16684196Y-62174172D02*
X16712767Y-62402744D01*
X16712767Y-62402744D02*
X16760386Y-62478934D01*
X16760386Y-62478934D02*
X16803243Y-62517030D01*
X16803243Y-62517030D02*
X16884196Y-62555125D01*
X16884196Y-62555125D02*
X16998482Y-62555125D01*
X16388957Y-62555125D02*
X16288957Y-61755125D01*
X16327052Y-62059887D02*
X16246100Y-62021791D01*
X16246100Y-62021791D02*
X16093719Y-62021791D01*
X16093719Y-62021791D02*
X16022291Y-62059887D01*
X16022291Y-62059887D02*
X15988957Y-62097982D01*
X15988957Y-62097982D02*
X15960386Y-62174172D01*
X15960386Y-62174172D02*
X15988957Y-62402744D01*
X15988957Y-62402744D02*
X16036576Y-62478934D01*
X16036576Y-62478934D02*
X16079433Y-62517030D01*
X16079433Y-62517030D02*
X16160386Y-62555125D01*
X16160386Y-62555125D02*
X16312767Y-62555125D01*
X16312767Y-62555125D02*
X16384195Y-62517030D01*
X15322290Y-62555125D02*
X15269909Y-62136077D01*
X15269909Y-62136077D02*
X15298481Y-62059887D01*
X15298481Y-62059887D02*
X15369909Y-62021791D01*
X15369909Y-62021791D02*
X15522290Y-62021791D01*
X15522290Y-62021791D02*
X15603242Y-62059887D01*
X15317528Y-62517030D02*
X15398481Y-62555125D01*
X15398481Y-62555125D02*
X15588957Y-62555125D01*
X15588957Y-62555125D02*
X15660385Y-62517030D01*
X15660385Y-62517030D02*
X15688957Y-62440839D01*
X15688957Y-62440839D02*
X15679433Y-62364649D01*
X15679433Y-62364649D02*
X15631814Y-62288458D01*
X15631814Y-62288458D02*
X15550862Y-62250363D01*
X15550862Y-62250363D02*
X15360385Y-62250363D01*
X15360385Y-62250363D02*
X15279433Y-62212268D01*
X14874671Y-62021791D02*
X14941337Y-62555125D01*
X14884194Y-62097982D02*
X14841337Y-62059887D01*
X14841337Y-62059887D02*
X14760385Y-62021791D01*
X14760385Y-62021791D02*
X14646099Y-62021791D01*
X14646099Y-62021791D02*
X14574671Y-62059887D01*
X14574671Y-62059887D02*
X14546099Y-62136077D01*
X14546099Y-62136077D02*
X14598480Y-62555125D01*
X13874670Y-62555125D02*
X13822289Y-62136077D01*
X13822289Y-62136077D02*
X13850861Y-62059887D01*
X13850861Y-62059887D02*
X13922289Y-62021791D01*
X13922289Y-62021791D02*
X14074670Y-62021791D01*
X14074670Y-62021791D02*
X14155622Y-62059887D01*
X13869908Y-62517030D02*
X13950861Y-62555125D01*
X13950861Y-62555125D02*
X14141337Y-62555125D01*
X14141337Y-62555125D02*
X14212765Y-62517030D01*
X14212765Y-62517030D02*
X14241337Y-62440839D01*
X14241337Y-62440839D02*
X14231813Y-62364649D01*
X14231813Y-62364649D02*
X14184194Y-62288458D01*
X14184194Y-62288458D02*
X14103242Y-62250363D01*
X14103242Y-62250363D02*
X13912765Y-62250363D01*
X13912765Y-62250363D02*
X13831813Y-62212268D01*
X13427051Y-62021791D02*
X13493717Y-62555125D01*
X13436574Y-62097982D02*
X13393717Y-62059887D01*
X13393717Y-62059887D02*
X13312765Y-62021791D01*
X13312765Y-62021791D02*
X13198479Y-62021791D01*
X13198479Y-62021791D02*
X13127051Y-62059887D01*
X13127051Y-62059887D02*
X13098479Y-62136077D01*
X13098479Y-62136077D02*
X13150860Y-62555125D01*
X12174669Y-61755125D02*
X12008002Y-62555125D01*
X12008002Y-62555125D02*
X11641336Y-61755125D01*
X11055622Y-62555125D02*
X11512764Y-62555125D01*
X11284193Y-62555125D02*
X11184193Y-61755125D01*
X11184193Y-61755125D02*
X11274669Y-61869410D01*
X11274669Y-61869410D02*
X11360384Y-61945601D01*
X11360384Y-61945601D02*
X11441336Y-61983696D01*
X10703240Y-62478934D02*
X10669907Y-62517030D01*
X10669907Y-62517030D02*
X10712764Y-62555125D01*
X10712764Y-62555125D02*
X10746098Y-62517030D01*
X10746098Y-62517030D02*
X10703240Y-62478934D01*
X10703240Y-62478934D02*
X10712764Y-62555125D01*
X10079431Y-61755125D02*
X10003241Y-61755125D01*
X10003241Y-61755125D02*
X9931812Y-61793220D01*
X9931812Y-61793220D02*
X9898479Y-61831315D01*
X9898479Y-61831315D02*
X9869907Y-61907506D01*
X9869907Y-61907506D02*
X9850860Y-62059887D01*
X9850860Y-62059887D02*
X9874669Y-62250363D01*
X9874669Y-62250363D02*
X9931812Y-62402744D01*
X9931812Y-62402744D02*
X9979431Y-62478934D01*
X9979431Y-62478934D02*
X10022288Y-62517030D01*
X10022288Y-62517030D02*
X10103241Y-62555125D01*
X10103241Y-62555125D02*
X10179431Y-62555125D01*
X10179431Y-62555125D02*
X10250860Y-62517030D01*
X10250860Y-62517030D02*
X10284193Y-62478934D01*
X10284193Y-62478934D02*
X10312765Y-62402744D01*
X10312765Y-62402744D02*
X10331812Y-62250363D01*
X10331812Y-62250363D02*
X10308003Y-62059887D01*
X10308003Y-62059887D02*
X10250860Y-61907506D01*
X10250860Y-61907506D02*
X10203241Y-61831315D01*
X10203241Y-61831315D02*
X10160384Y-61793220D01*
X10160384Y-61793220D02*
X10079431Y-61755125D01*
X-22712126Y-14548247D02*
X-22826412Y-14586342D01*
X-22826412Y-14586342D02*
X-22864507Y-14624438D01*
X-22864507Y-14624438D02*
X-22902603Y-14700628D01*
X-22902603Y-14700628D02*
X-22902603Y-14814914D01*
X-22902603Y-14814914D02*
X-22864507Y-14891104D01*
X-22864507Y-14891104D02*
X-22826412Y-14929200D01*
X-22826412Y-14929200D02*
X-22750222Y-14967295D01*
X-22750222Y-14967295D02*
X-22445460Y-14967295D01*
X-22445460Y-14967295D02*
X-22445460Y-14167295D01*
X-22445460Y-14167295D02*
X-22712126Y-14167295D01*
X-22712126Y-14167295D02*
X-22788317Y-14205390D01*
X-22788317Y-14205390D02*
X-22826412Y-14243485D01*
X-22826412Y-14243485D02*
X-22864507Y-14319676D01*
X-22864507Y-14319676D02*
X-22864507Y-14395866D01*
X-22864507Y-14395866D02*
X-22826412Y-14472057D01*
X-22826412Y-14472057D02*
X-22788317Y-14510152D01*
X-22788317Y-14510152D02*
X-22712126Y-14548247D01*
X-22712126Y-14548247D02*
X-22445460Y-14548247D01*
X-23664507Y-14967295D02*
X-23207364Y-14967295D01*
X-23435936Y-14967295D02*
X-23435936Y-14167295D01*
X-23435936Y-14167295D02*
X-23359745Y-14281580D01*
X-23359745Y-14281580D02*
X-23283555Y-14357771D01*
X-23283555Y-14357771D02*
X-23207364Y-14395866D01*
X-33980730Y-12351104D02*
X-33942634Y-12389200D01*
X-33942634Y-12389200D02*
X-33828349Y-12427295D01*
X-33828349Y-12427295D02*
X-33752158Y-12427295D01*
X-33752158Y-12427295D02*
X-33637872Y-12389200D01*
X-33637872Y-12389200D02*
X-33561682Y-12313009D01*
X-33561682Y-12313009D02*
X-33523587Y-12236819D01*
X-33523587Y-12236819D02*
X-33485491Y-12084438D01*
X-33485491Y-12084438D02*
X-33485491Y-11970152D01*
X-33485491Y-11970152D02*
X-33523587Y-11817771D01*
X-33523587Y-11817771D02*
X-33561682Y-11741580D01*
X-33561682Y-11741580D02*
X-33637872Y-11665390D01*
X-33637872Y-11665390D02*
X-33752158Y-11627295D01*
X-33752158Y-11627295D02*
X-33828349Y-11627295D01*
X-33828349Y-11627295D02*
X-33942634Y-11665390D01*
X-33942634Y-11665390D02*
X-33980730Y-11703485D01*
X-34666444Y-11627295D02*
X-34514063Y-11627295D01*
X-34514063Y-11627295D02*
X-34437872Y-11665390D01*
X-34437872Y-11665390D02*
X-34399777Y-11703485D01*
X-34399777Y-11703485D02*
X-34323587Y-11817771D01*
X-34323587Y-11817771D02*
X-34285491Y-11970152D01*
X-34285491Y-11970152D02*
X-34285491Y-12274914D01*
X-34285491Y-12274914D02*
X-34323587Y-12351104D01*
X-34323587Y-12351104D02*
X-34361682Y-12389200D01*
X-34361682Y-12389200D02*
X-34437872Y-12427295D01*
X-34437872Y-12427295D02*
X-34590253Y-12427295D01*
X-34590253Y-12427295D02*
X-34666444Y-12389200D01*
X-34666444Y-12389200D02*
X-34704539Y-12351104D01*
X-34704539Y-12351104D02*
X-34742634Y-12274914D01*
X-34742634Y-12274914D02*
X-34742634Y-12084438D01*
X-34742634Y-12084438D02*
X-34704539Y-12008247D01*
X-34704539Y-12008247D02*
X-34666444Y-11970152D01*
X-34666444Y-11970152D02*
X-34590253Y-11932057D01*
X-34590253Y-11932057D02*
X-34437872Y-11932057D01*
X-34437872Y-11932057D02*
X-34361682Y-11970152D01*
X-34361682Y-11970152D02*
X-34323587Y-12008247D01*
X-34323587Y-12008247D02*
X-34285491Y-12084438D01*
X-22712126Y-4388247D02*
X-22445460Y-4388247D01*
X-22445460Y-4807295D02*
X-22445460Y-4007295D01*
X-22445460Y-4007295D02*
X-22826412Y-4007295D01*
X-23474031Y-4273961D02*
X-23474031Y-4807295D01*
X-23283555Y-3969200D02*
X-23093078Y-4540628D01*
X-23093078Y-4540628D02*
X-23588317Y-4540628D01*
X-22712126Y-12008247D02*
X-22445460Y-12008247D01*
X-22445460Y-12427295D02*
X-22445460Y-11627295D01*
X-22445460Y-11627295D02*
X-22826412Y-11627295D01*
X-23054983Y-11627295D02*
X-23588317Y-11627295D01*
X-23588317Y-11627295D02*
X-23245459Y-12427295D01*
X-22331174Y-1467295D02*
X-22597841Y-2267295D01*
X-22597841Y-2267295D02*
X-22864507Y-1467295D01*
X-23588317Y-2191104D02*
X-23550221Y-2229200D01*
X-23550221Y-2229200D02*
X-23435936Y-2267295D01*
X-23435936Y-2267295D02*
X-23359745Y-2267295D01*
X-23359745Y-2267295D02*
X-23245459Y-2229200D01*
X-23245459Y-2229200D02*
X-23169269Y-2153009D01*
X-23169269Y-2153009D02*
X-23131174Y-2076819D01*
X-23131174Y-2076819D02*
X-23093078Y-1924438D01*
X-23093078Y-1924438D02*
X-23093078Y-1810152D01*
X-23093078Y-1810152D02*
X-23131174Y-1657771D01*
X-23131174Y-1657771D02*
X-23169269Y-1581580D01*
X-23169269Y-1581580D02*
X-23245459Y-1505390D01*
X-23245459Y-1505390D02*
X-23359745Y-1467295D01*
X-23359745Y-1467295D02*
X-23435936Y-1467295D01*
X-23435936Y-1467295D02*
X-23550221Y-1505390D01*
X-23550221Y-1505390D02*
X-23588317Y-1543485D01*
X-24388317Y-2191104D02*
X-24350221Y-2229200D01*
X-24350221Y-2229200D02*
X-24235936Y-2267295D01*
X-24235936Y-2267295D02*
X-24159745Y-2267295D01*
X-24159745Y-2267295D02*
X-24045459Y-2229200D01*
X-24045459Y-2229200D02*
X-23969269Y-2153009D01*
X-23969269Y-2153009D02*
X-23931174Y-2076819D01*
X-23931174Y-2076819D02*
X-23893078Y-1924438D01*
X-23893078Y-1924438D02*
X-23893078Y-1810152D01*
X-23893078Y-1810152D02*
X-23931174Y-1657771D01*
X-23931174Y-1657771D02*
X-23969269Y-1581580D01*
X-23969269Y-1581580D02*
X-24045459Y-1505390D01*
X-24045459Y-1505390D02*
X-24159745Y-1467295D01*
X-24159745Y-1467295D02*
X-24235936Y-1467295D01*
X-24235936Y-1467295D02*
X-24350221Y-1505390D01*
X-24350221Y-1505390D02*
X-24388317Y-1543485D01*
X-22712126Y-22168247D02*
X-22826412Y-22206342D01*
X-22826412Y-22206342D02*
X-22864507Y-22244438D01*
X-22864507Y-22244438D02*
X-22902603Y-22320628D01*
X-22902603Y-22320628D02*
X-22902603Y-22434914D01*
X-22902603Y-22434914D02*
X-22864507Y-22511104D01*
X-22864507Y-22511104D02*
X-22826412Y-22549200D01*
X-22826412Y-22549200D02*
X-22750222Y-22587295D01*
X-22750222Y-22587295D02*
X-22445460Y-22587295D01*
X-22445460Y-22587295D02*
X-22445460Y-21787295D01*
X-22445460Y-21787295D02*
X-22712126Y-21787295D01*
X-22712126Y-21787295D02*
X-22788317Y-21825390D01*
X-22788317Y-21825390D02*
X-22826412Y-21863485D01*
X-22826412Y-21863485D02*
X-22864507Y-21939676D01*
X-22864507Y-21939676D02*
X-22864507Y-22015866D01*
X-22864507Y-22015866D02*
X-22826412Y-22092057D01*
X-22826412Y-22092057D02*
X-22788317Y-22130152D01*
X-22788317Y-22130152D02*
X-22712126Y-22168247D01*
X-22712126Y-22168247D02*
X-22445460Y-22168247D01*
X-23588317Y-21787295D02*
X-23435936Y-21787295D01*
X-23435936Y-21787295D02*
X-23359745Y-21825390D01*
X-23359745Y-21825390D02*
X-23321650Y-21863485D01*
X-23321650Y-21863485D02*
X-23245460Y-21977771D01*
X-23245460Y-21977771D02*
X-23207364Y-22130152D01*
X-23207364Y-22130152D02*
X-23207364Y-22434914D01*
X-23207364Y-22434914D02*
X-23245460Y-22511104D01*
X-23245460Y-22511104D02*
X-23283555Y-22549200D01*
X-23283555Y-22549200D02*
X-23359745Y-22587295D01*
X-23359745Y-22587295D02*
X-23512126Y-22587295D01*
X-23512126Y-22587295D02*
X-23588317Y-22549200D01*
X-23588317Y-22549200D02*
X-23626412Y-22511104D01*
X-23626412Y-22511104D02*
X-23664507Y-22434914D01*
X-23664507Y-22434914D02*
X-23664507Y-22244438D01*
X-23664507Y-22244438D02*
X-23626412Y-22168247D01*
X-23626412Y-22168247D02*
X-23588317Y-22130152D01*
X-23588317Y-22130152D02*
X-23512126Y-22092057D01*
X-23512126Y-22092057D02*
X-23359745Y-22092057D01*
X-23359745Y-22092057D02*
X-23283555Y-22130152D01*
X-23283555Y-22130152D02*
X-23245460Y-22168247D01*
X-23245460Y-22168247D02*
X-23207364Y-22244438D01*
X-33066444Y1034609D02*
X-32990254Y1072704D01*
X-32990254Y1072704D02*
X-32875968Y1072704D01*
X-32875968Y1072704D02*
X-32761682Y1034609D01*
X-32761682Y1034609D02*
X-32685492Y958419D01*
X-32685492Y958419D02*
X-32647397Y882228D01*
X-32647397Y882228D02*
X-32609301Y729847D01*
X-32609301Y729847D02*
X-32609301Y615561D01*
X-32609301Y615561D02*
X-32647397Y463180D01*
X-32647397Y463180D02*
X-32685492Y386990D01*
X-32685492Y386990D02*
X-32761682Y310800D01*
X-32761682Y310800D02*
X-32875968Y272704D01*
X-32875968Y272704D02*
X-32952159Y272704D01*
X-32952159Y272704D02*
X-33066444Y310800D01*
X-33066444Y310800D02*
X-33104540Y348895D01*
X-33104540Y348895D02*
X-33104540Y615561D01*
X-33104540Y615561D02*
X-32952159Y615561D01*
X-33447397Y272704D02*
X-33447397Y1072704D01*
X-33447397Y1072704D02*
X-33904540Y272704D01*
X-33904540Y272704D02*
X-33904540Y1072704D01*
X-34285492Y272704D02*
X-34285492Y1072704D01*
X-34285492Y1072704D02*
X-34475968Y1072704D01*
X-34475968Y1072704D02*
X-34590254Y1034609D01*
X-34590254Y1034609D02*
X-34666444Y958419D01*
X-34666444Y958419D02*
X-34704539Y882228D01*
X-34704539Y882228D02*
X-34742635Y729847D01*
X-34742635Y729847D02*
X-34742635Y615561D01*
X-34742635Y615561D02*
X-34704539Y463180D01*
X-34704539Y463180D02*
X-34666444Y386990D01*
X-34666444Y386990D02*
X-34590254Y310800D01*
X-34590254Y310800D02*
X-34475968Y272704D01*
X-34475968Y272704D02*
X-34285492Y272704D01*
X-33066444Y-1505390D02*
X-32990254Y-1467295D01*
X-32990254Y-1467295D02*
X-32875968Y-1467295D01*
X-32875968Y-1467295D02*
X-32761682Y-1505390D01*
X-32761682Y-1505390D02*
X-32685492Y-1581580D01*
X-32685492Y-1581580D02*
X-32647397Y-1657771D01*
X-32647397Y-1657771D02*
X-32609301Y-1810152D01*
X-32609301Y-1810152D02*
X-32609301Y-1924438D01*
X-32609301Y-1924438D02*
X-32647397Y-2076819D01*
X-32647397Y-2076819D02*
X-32685492Y-2153009D01*
X-32685492Y-2153009D02*
X-32761682Y-2229200D01*
X-32761682Y-2229200D02*
X-32875968Y-2267295D01*
X-32875968Y-2267295D02*
X-32952159Y-2267295D01*
X-32952159Y-2267295D02*
X-33066444Y-2229200D01*
X-33066444Y-2229200D02*
X-33104540Y-2191104D01*
X-33104540Y-2191104D02*
X-33104540Y-1924438D01*
X-33104540Y-1924438D02*
X-32952159Y-1924438D01*
X-33447397Y-2267295D02*
X-33447397Y-1467295D01*
X-33447397Y-1467295D02*
X-33904540Y-2267295D01*
X-33904540Y-2267295D02*
X-33904540Y-1467295D01*
X-34285492Y-2267295D02*
X-34285492Y-1467295D01*
X-34285492Y-1467295D02*
X-34475968Y-1467295D01*
X-34475968Y-1467295D02*
X-34590254Y-1505390D01*
X-34590254Y-1505390D02*
X-34666444Y-1581580D01*
X-34666444Y-1581580D02*
X-34704539Y-1657771D01*
X-34704539Y-1657771D02*
X-34742635Y-1810152D01*
X-34742635Y-1810152D02*
X-34742635Y-1924438D01*
X-34742635Y-1924438D02*
X-34704539Y-2076819D01*
X-34704539Y-2076819D02*
X-34666444Y-2153009D01*
X-34666444Y-2153009D02*
X-34590254Y-2229200D01*
X-34590254Y-2229200D02*
X-34475968Y-2267295D01*
X-34475968Y-2267295D02*
X-34285492Y-2267295D01*
X-33790253Y-22168247D02*
X-33904539Y-22206342D01*
X-33904539Y-22206342D02*
X-33942634Y-22244438D01*
X-33942634Y-22244438D02*
X-33980730Y-22320628D01*
X-33980730Y-22320628D02*
X-33980730Y-22434914D01*
X-33980730Y-22434914D02*
X-33942634Y-22511104D01*
X-33942634Y-22511104D02*
X-33904539Y-22549200D01*
X-33904539Y-22549200D02*
X-33828349Y-22587295D01*
X-33828349Y-22587295D02*
X-33523587Y-22587295D01*
X-33523587Y-22587295D02*
X-33523587Y-21787295D01*
X-33523587Y-21787295D02*
X-33790253Y-21787295D01*
X-33790253Y-21787295D02*
X-33866444Y-21825390D01*
X-33866444Y-21825390D02*
X-33904539Y-21863485D01*
X-33904539Y-21863485D02*
X-33942634Y-21939676D01*
X-33942634Y-21939676D02*
X-33942634Y-22015866D01*
X-33942634Y-22015866D02*
X-33904539Y-22092057D01*
X-33904539Y-22092057D02*
X-33866444Y-22130152D01*
X-33866444Y-22130152D02*
X-33790253Y-22168247D01*
X-33790253Y-22168247D02*
X-33523587Y-22168247D01*
X-34704539Y-21787295D02*
X-34323587Y-21787295D01*
X-34323587Y-21787295D02*
X-34285491Y-22168247D01*
X-34285491Y-22168247D02*
X-34323587Y-22130152D01*
X-34323587Y-22130152D02*
X-34399777Y-22092057D01*
X-34399777Y-22092057D02*
X-34590253Y-22092057D01*
X-34590253Y-22092057D02*
X-34666444Y-22130152D01*
X-34666444Y-22130152D02*
X-34704539Y-22168247D01*
X-34704539Y-22168247D02*
X-34742634Y-22244438D01*
X-34742634Y-22244438D02*
X-34742634Y-22434914D01*
X-34742634Y-22434914D02*
X-34704539Y-22511104D01*
X-34704539Y-22511104D02*
X-34666444Y-22549200D01*
X-34666444Y-22549200D02*
X-34590253Y-22587295D01*
X-34590253Y-22587295D02*
X-34399777Y-22587295D01*
X-34399777Y-22587295D02*
X-34323587Y-22549200D01*
X-34323587Y-22549200D02*
X-34285491Y-22511104D01*
X-22712126Y-6928247D02*
X-22445460Y-6928247D01*
X-22445460Y-7347295D02*
X-22445460Y-6547295D01*
X-22445460Y-6547295D02*
X-22826412Y-6547295D01*
X-23512126Y-6547295D02*
X-23131174Y-6547295D01*
X-23131174Y-6547295D02*
X-23093078Y-6928247D01*
X-23093078Y-6928247D02*
X-23131174Y-6890152D01*
X-23131174Y-6890152D02*
X-23207364Y-6852057D01*
X-23207364Y-6852057D02*
X-23397840Y-6852057D01*
X-23397840Y-6852057D02*
X-23474031Y-6890152D01*
X-23474031Y-6890152D02*
X-23512126Y-6928247D01*
X-23512126Y-6928247D02*
X-23550221Y-7004438D01*
X-23550221Y-7004438D02*
X-23550221Y-7194914D01*
X-23550221Y-7194914D02*
X-23512126Y-7271104D01*
X-23512126Y-7271104D02*
X-23474031Y-7309200D01*
X-23474031Y-7309200D02*
X-23397840Y-7347295D01*
X-23397840Y-7347295D02*
X-23207364Y-7347295D01*
X-23207364Y-7347295D02*
X-23131174Y-7309200D01*
X-23131174Y-7309200D02*
X-23093078Y-7271104D01*
X-33523587Y-7347295D02*
X-33523587Y-6547295D01*
X-33523587Y-6547295D02*
X-33714063Y-6547295D01*
X-33714063Y-6547295D02*
X-33828349Y-6585390D01*
X-33828349Y-6585390D02*
X-33904539Y-6661580D01*
X-33904539Y-6661580D02*
X-33942634Y-6737771D01*
X-33942634Y-6737771D02*
X-33980730Y-6890152D01*
X-33980730Y-6890152D02*
X-33980730Y-7004438D01*
X-33980730Y-7004438D02*
X-33942634Y-7156819D01*
X-33942634Y-7156819D02*
X-33904539Y-7233009D01*
X-33904539Y-7233009D02*
X-33828349Y-7309200D01*
X-33828349Y-7309200D02*
X-33714063Y-7347295D01*
X-33714063Y-7347295D02*
X-33523587Y-7347295D01*
X-34475968Y-6547295D02*
X-34552158Y-6547295D01*
X-34552158Y-6547295D02*
X-34628349Y-6585390D01*
X-34628349Y-6585390D02*
X-34666444Y-6623485D01*
X-34666444Y-6623485D02*
X-34704539Y-6699676D01*
X-34704539Y-6699676D02*
X-34742634Y-6852057D01*
X-34742634Y-6852057D02*
X-34742634Y-7042533D01*
X-34742634Y-7042533D02*
X-34704539Y-7194914D01*
X-34704539Y-7194914D02*
X-34666444Y-7271104D01*
X-34666444Y-7271104D02*
X-34628349Y-7309200D01*
X-34628349Y-7309200D02*
X-34552158Y-7347295D01*
X-34552158Y-7347295D02*
X-34475968Y-7347295D01*
X-34475968Y-7347295D02*
X-34399777Y-7309200D01*
X-34399777Y-7309200D02*
X-34361682Y-7271104D01*
X-34361682Y-7271104D02*
X-34323587Y-7194914D01*
X-34323587Y-7194914D02*
X-34285491Y-7042533D01*
X-34285491Y-7042533D02*
X-34285491Y-6852057D01*
X-34285491Y-6852057D02*
X-34323587Y-6699676D01*
X-34323587Y-6699676D02*
X-34361682Y-6623485D01*
X-34361682Y-6623485D02*
X-34399777Y-6585390D01*
X-34399777Y-6585390D02*
X-34475968Y-6547295D01*
X-33599777Y-17088247D02*
X-33866443Y-17088247D01*
X-33980729Y-17507295D02*
X-33599777Y-17507295D01*
X-33599777Y-17507295D02*
X-33599777Y-16707295D01*
X-33599777Y-16707295D02*
X-33980729Y-16707295D01*
X-34666444Y-16707295D02*
X-34514063Y-16707295D01*
X-34514063Y-16707295D02*
X-34437872Y-16745390D01*
X-34437872Y-16745390D02*
X-34399777Y-16783485D01*
X-34399777Y-16783485D02*
X-34323587Y-16897771D01*
X-34323587Y-16897771D02*
X-34285491Y-17050152D01*
X-34285491Y-17050152D02*
X-34285491Y-17354914D01*
X-34285491Y-17354914D02*
X-34323587Y-17431104D01*
X-34323587Y-17431104D02*
X-34361682Y-17469200D01*
X-34361682Y-17469200D02*
X-34437872Y-17507295D01*
X-34437872Y-17507295D02*
X-34590253Y-17507295D01*
X-34590253Y-17507295D02*
X-34666444Y-17469200D01*
X-34666444Y-17469200D02*
X-34704539Y-17431104D01*
X-34704539Y-17431104D02*
X-34742634Y-17354914D01*
X-34742634Y-17354914D02*
X-34742634Y-17164438D01*
X-34742634Y-17164438D02*
X-34704539Y-17088247D01*
X-34704539Y-17088247D02*
X-34666444Y-17050152D01*
X-34666444Y-17050152D02*
X-34590253Y-17012057D01*
X-34590253Y-17012057D02*
X-34437872Y-17012057D01*
X-34437872Y-17012057D02*
X-34361682Y-17050152D01*
X-34361682Y-17050152D02*
X-34323587Y-17088247D01*
X-34323587Y-17088247D02*
X-34285491Y-17164438D01*
X-33523587Y-14967295D02*
X-33523587Y-14167295D01*
X-33523587Y-14167295D02*
X-33714063Y-14167295D01*
X-33714063Y-14167295D02*
X-33828349Y-14205390D01*
X-33828349Y-14205390D02*
X-33904539Y-14281580D01*
X-33904539Y-14281580D02*
X-33942634Y-14357771D01*
X-33942634Y-14357771D02*
X-33980730Y-14510152D01*
X-33980730Y-14510152D02*
X-33980730Y-14624438D01*
X-33980730Y-14624438D02*
X-33942634Y-14776819D01*
X-33942634Y-14776819D02*
X-33904539Y-14853009D01*
X-33904539Y-14853009D02*
X-33828349Y-14929200D01*
X-33828349Y-14929200D02*
X-33714063Y-14967295D01*
X-33714063Y-14967295D02*
X-33523587Y-14967295D01*
X-34247396Y-14167295D02*
X-34780730Y-14167295D01*
X-34780730Y-14167295D02*
X-34437872Y-14967295D01*
X-22712126Y-9468247D02*
X-22445460Y-9468247D01*
X-22445460Y-9887295D02*
X-22445460Y-9087295D01*
X-22445460Y-9087295D02*
X-22826412Y-9087295D01*
X-23474031Y-9087295D02*
X-23321650Y-9087295D01*
X-23321650Y-9087295D02*
X-23245459Y-9125390D01*
X-23245459Y-9125390D02*
X-23207364Y-9163485D01*
X-23207364Y-9163485D02*
X-23131174Y-9277771D01*
X-23131174Y-9277771D02*
X-23093078Y-9430152D01*
X-23093078Y-9430152D02*
X-23093078Y-9734914D01*
X-23093078Y-9734914D02*
X-23131174Y-9811104D01*
X-23131174Y-9811104D02*
X-23169269Y-9849200D01*
X-23169269Y-9849200D02*
X-23245459Y-9887295D01*
X-23245459Y-9887295D02*
X-23397840Y-9887295D01*
X-23397840Y-9887295D02*
X-23474031Y-9849200D01*
X-23474031Y-9849200D02*
X-23512126Y-9811104D01*
X-23512126Y-9811104D02*
X-23550221Y-9734914D01*
X-23550221Y-9734914D02*
X-23550221Y-9544438D01*
X-23550221Y-9544438D02*
X-23512126Y-9468247D01*
X-23512126Y-9468247D02*
X-23474031Y-9430152D01*
X-23474031Y-9430152D02*
X-23397840Y-9392057D01*
X-23397840Y-9392057D02*
X-23245459Y-9392057D01*
X-23245459Y-9392057D02*
X-23169269Y-9430152D01*
X-23169269Y-9430152D02*
X-23131174Y-9468247D01*
X-23131174Y-9468247D02*
X-23093078Y-9544438D01*
X-22712126Y-19628247D02*
X-22826412Y-19666342D01*
X-22826412Y-19666342D02*
X-22864507Y-19704438D01*
X-22864507Y-19704438D02*
X-22902603Y-19780628D01*
X-22902603Y-19780628D02*
X-22902603Y-19894914D01*
X-22902603Y-19894914D02*
X-22864507Y-19971104D01*
X-22864507Y-19971104D02*
X-22826412Y-20009200D01*
X-22826412Y-20009200D02*
X-22750222Y-20047295D01*
X-22750222Y-20047295D02*
X-22445460Y-20047295D01*
X-22445460Y-20047295D02*
X-22445460Y-19247295D01*
X-22445460Y-19247295D02*
X-22712126Y-19247295D01*
X-22712126Y-19247295D02*
X-22788317Y-19285390D01*
X-22788317Y-19285390D02*
X-22826412Y-19323485D01*
X-22826412Y-19323485D02*
X-22864507Y-19399676D01*
X-22864507Y-19399676D02*
X-22864507Y-19475866D01*
X-22864507Y-19475866D02*
X-22826412Y-19552057D01*
X-22826412Y-19552057D02*
X-22788317Y-19590152D01*
X-22788317Y-19590152D02*
X-22712126Y-19628247D01*
X-22712126Y-19628247D02*
X-22445460Y-19628247D01*
X-23207364Y-19323485D02*
X-23245460Y-19285390D01*
X-23245460Y-19285390D02*
X-23321650Y-19247295D01*
X-23321650Y-19247295D02*
X-23512126Y-19247295D01*
X-23512126Y-19247295D02*
X-23588317Y-19285390D01*
X-23588317Y-19285390D02*
X-23626412Y-19323485D01*
X-23626412Y-19323485D02*
X-23664507Y-19399676D01*
X-23664507Y-19399676D02*
X-23664507Y-19475866D01*
X-23664507Y-19475866D02*
X-23626412Y-19590152D01*
X-23626412Y-19590152D02*
X-23169269Y-20047295D01*
X-23169269Y-20047295D02*
X-23664507Y-20047295D01*
X-33790253Y-19628247D02*
X-33904539Y-19666342D01*
X-33904539Y-19666342D02*
X-33942634Y-19704438D01*
X-33942634Y-19704438D02*
X-33980730Y-19780628D01*
X-33980730Y-19780628D02*
X-33980730Y-19894914D01*
X-33980730Y-19894914D02*
X-33942634Y-19971104D01*
X-33942634Y-19971104D02*
X-33904539Y-20009200D01*
X-33904539Y-20009200D02*
X-33828349Y-20047295D01*
X-33828349Y-20047295D02*
X-33523587Y-20047295D01*
X-33523587Y-20047295D02*
X-33523587Y-19247295D01*
X-33523587Y-19247295D02*
X-33790253Y-19247295D01*
X-33790253Y-19247295D02*
X-33866444Y-19285390D01*
X-33866444Y-19285390D02*
X-33904539Y-19323485D01*
X-33904539Y-19323485D02*
X-33942634Y-19399676D01*
X-33942634Y-19399676D02*
X-33942634Y-19475866D01*
X-33942634Y-19475866D02*
X-33904539Y-19552057D01*
X-33904539Y-19552057D02*
X-33866444Y-19590152D01*
X-33866444Y-19590152D02*
X-33790253Y-19628247D01*
X-33790253Y-19628247D02*
X-33523587Y-19628247D01*
X-34666444Y-19513961D02*
X-34666444Y-20047295D01*
X-34475968Y-19209200D02*
X-34285491Y-19780628D01*
X-34285491Y-19780628D02*
X-34780730Y-19780628D01*
X-22864507Y3574609D02*
X-22788317Y3612704D01*
X-22788317Y3612704D02*
X-22674031Y3612704D01*
X-22674031Y3612704D02*
X-22559745Y3574609D01*
X-22559745Y3574609D02*
X-22483555Y3498419D01*
X-22483555Y3498419D02*
X-22445460Y3422228D01*
X-22445460Y3422228D02*
X-22407364Y3269847D01*
X-22407364Y3269847D02*
X-22407364Y3155561D01*
X-22407364Y3155561D02*
X-22445460Y3003180D01*
X-22445460Y3003180D02*
X-22483555Y2926990D01*
X-22483555Y2926990D02*
X-22559745Y2850800D01*
X-22559745Y2850800D02*
X-22674031Y2812704D01*
X-22674031Y2812704D02*
X-22750222Y2812704D01*
X-22750222Y2812704D02*
X-22864507Y2850800D01*
X-22864507Y2850800D02*
X-22902603Y2888895D01*
X-22902603Y2888895D02*
X-22902603Y3155561D01*
X-22902603Y3155561D02*
X-22750222Y3155561D01*
X-23245460Y2812704D02*
X-23245460Y3612704D01*
X-23245460Y3612704D02*
X-23702603Y2812704D01*
X-23702603Y2812704D02*
X-23702603Y3612704D01*
X-24083555Y2812704D02*
X-24083555Y3612704D01*
X-24083555Y3612704D02*
X-24274031Y3612704D01*
X-24274031Y3612704D02*
X-24388317Y3574609D01*
X-24388317Y3574609D02*
X-24464507Y3498419D01*
X-24464507Y3498419D02*
X-24502602Y3422228D01*
X-24502602Y3422228D02*
X-24540698Y3269847D01*
X-24540698Y3269847D02*
X-24540698Y3155561D01*
X-24540698Y3155561D02*
X-24502602Y3003180D01*
X-24502602Y3003180D02*
X-24464507Y2926990D01*
X-24464507Y2926990D02*
X-24388317Y2850800D01*
X-24388317Y2850800D02*
X-24274031Y2812704D01*
X-24274031Y2812704D02*
X-24083555Y2812704D01*
X-30044172Y6152704D02*
X-30501315Y6152704D01*
X-30272743Y5352704D02*
X-30272743Y6152704D01*
X-30691791Y6152704D02*
X-31225125Y5352704D01*
X-31225125Y6152704D02*
X-30691791Y5352704D01*
X-31682268Y6152704D02*
X-31758458Y6152704D01*
X-31758458Y6152704D02*
X-31834649Y6114609D01*
X-31834649Y6114609D02*
X-31872744Y6076514D01*
X-31872744Y6076514D02*
X-31910839Y6000323D01*
X-31910839Y6000323D02*
X-31948934Y5847942D01*
X-31948934Y5847942D02*
X-31948934Y5657466D01*
X-31948934Y5657466D02*
X-31910839Y5505085D01*
X-31910839Y5505085D02*
X-31872744Y5428895D01*
X-31872744Y5428895D02*
X-31834649Y5390800D01*
X-31834649Y5390800D02*
X-31758458Y5352704D01*
X-31758458Y5352704D02*
X-31682268Y5352704D01*
X-31682268Y5352704D02*
X-31606077Y5390800D01*
X-31606077Y5390800D02*
X-31567982Y5428895D01*
X-31567982Y5428895D02*
X-31529887Y5505085D01*
X-31529887Y5505085D02*
X-31491791Y5657466D01*
X-31491791Y5657466D02*
X-31491791Y5847942D01*
X-31491791Y5847942D02*
X-31529887Y6000323D01*
X-31529887Y6000323D02*
X-31567982Y6076514D01*
X-31567982Y6076514D02*
X-31606077Y6114609D01*
X-31606077Y6114609D02*
X-31682268Y6152704D01*
X-32863220Y6190800D02*
X-32177506Y5162228D01*
X-33129887Y5352704D02*
X-33129887Y6152704D01*
X-33129887Y6152704D02*
X-33320363Y6152704D01*
X-33320363Y6152704D02*
X-33434649Y6114609D01*
X-33434649Y6114609D02*
X-33510839Y6038419D01*
X-33510839Y6038419D02*
X-33548934Y5962228D01*
X-33548934Y5962228D02*
X-33587030Y5809847D01*
X-33587030Y5809847D02*
X-33587030Y5695561D01*
X-33587030Y5695561D02*
X-33548934Y5543180D01*
X-33548934Y5543180D02*
X-33510839Y5466990D01*
X-33510839Y5466990D02*
X-33434649Y5390800D01*
X-33434649Y5390800D02*
X-33320363Y5352704D01*
X-33320363Y5352704D02*
X-33129887Y5352704D01*
X-33853696Y6152704D02*
X-34348934Y6152704D01*
X-34348934Y6152704D02*
X-34082268Y5847942D01*
X-34082268Y5847942D02*
X-34196553Y5847942D01*
X-34196553Y5847942D02*
X-34272744Y5809847D01*
X-34272744Y5809847D02*
X-34310839Y5771752D01*
X-34310839Y5771752D02*
X-34348934Y5695561D01*
X-34348934Y5695561D02*
X-34348934Y5505085D01*
X-34348934Y5505085D02*
X-34310839Y5428895D01*
X-34310839Y5428895D02*
X-34272744Y5390800D01*
X-34272744Y5390800D02*
X-34196553Y5352704D01*
X-34196553Y5352704D02*
X-33967982Y5352704D01*
X-33967982Y5352704D02*
X-33891791Y5390800D01*
X-33891791Y5390800D02*
X-33853696Y5428895D01*
X-33523587Y-4807295D02*
X-33523587Y-4007295D01*
X-33523587Y-4007295D02*
X-33714063Y-4007295D01*
X-33714063Y-4007295D02*
X-33828349Y-4045390D01*
X-33828349Y-4045390D02*
X-33904539Y-4121580D01*
X-33904539Y-4121580D02*
X-33942634Y-4197771D01*
X-33942634Y-4197771D02*
X-33980730Y-4350152D01*
X-33980730Y-4350152D02*
X-33980730Y-4464438D01*
X-33980730Y-4464438D02*
X-33942634Y-4616819D01*
X-33942634Y-4616819D02*
X-33904539Y-4693009D01*
X-33904539Y-4693009D02*
X-33828349Y-4769200D01*
X-33828349Y-4769200D02*
X-33714063Y-4807295D01*
X-33714063Y-4807295D02*
X-33523587Y-4807295D01*
X-34742634Y-4807295D02*
X-34285491Y-4807295D01*
X-34514063Y-4807295D02*
X-34514063Y-4007295D01*
X-34514063Y-4007295D02*
X-34437872Y-4121580D01*
X-34437872Y-4121580D02*
X-34361682Y-4197771D01*
X-34361682Y-4197771D02*
X-34285491Y-4235866D01*
X-22902603Y292704D02*
X-22635936Y673657D01*
X-22445460Y292704D02*
X-22445460Y1092704D01*
X-22445460Y1092704D02*
X-22750222Y1092704D01*
X-22750222Y1092704D02*
X-22826412Y1054609D01*
X-22826412Y1054609D02*
X-22864507Y1016514D01*
X-22864507Y1016514D02*
X-22902603Y940323D01*
X-22902603Y940323D02*
X-22902603Y826038D01*
X-22902603Y826038D02*
X-22864507Y749847D01*
X-22864507Y749847D02*
X-22826412Y711752D01*
X-22826412Y711752D02*
X-22750222Y673657D01*
X-22750222Y673657D02*
X-22445460Y673657D01*
X-23207364Y330800D02*
X-23321650Y292704D01*
X-23321650Y292704D02*
X-23512126Y292704D01*
X-23512126Y292704D02*
X-23588317Y330800D01*
X-23588317Y330800D02*
X-23626412Y368895D01*
X-23626412Y368895D02*
X-23664507Y445085D01*
X-23664507Y445085D02*
X-23664507Y521276D01*
X-23664507Y521276D02*
X-23626412Y597466D01*
X-23626412Y597466D02*
X-23588317Y635561D01*
X-23588317Y635561D02*
X-23512126Y673657D01*
X-23512126Y673657D02*
X-23359745Y711752D01*
X-23359745Y711752D02*
X-23283555Y749847D01*
X-23283555Y749847D02*
X-23245460Y787942D01*
X-23245460Y787942D02*
X-23207364Y864133D01*
X-23207364Y864133D02*
X-23207364Y940323D01*
X-23207364Y940323D02*
X-23245460Y1016514D01*
X-23245460Y1016514D02*
X-23283555Y1054609D01*
X-23283555Y1054609D02*
X-23359745Y1092704D01*
X-23359745Y1092704D02*
X-23550222Y1092704D01*
X-23550222Y1092704D02*
X-23664507Y1054609D01*
X-23893079Y1092704D02*
X-24350222Y1092704D01*
X-24121650Y292704D02*
X-24121650Y1092704D01*
X-22902603Y5352704D02*
X-22635936Y5733657D01*
X-22445460Y5352704D02*
X-22445460Y6152704D01*
X-22445460Y6152704D02*
X-22750222Y6152704D01*
X-22750222Y6152704D02*
X-22826412Y6114609D01*
X-22826412Y6114609D02*
X-22864507Y6076514D01*
X-22864507Y6076514D02*
X-22902603Y6000323D01*
X-22902603Y6000323D02*
X-22902603Y5886038D01*
X-22902603Y5886038D02*
X-22864507Y5809847D01*
X-22864507Y5809847D02*
X-22826412Y5771752D01*
X-22826412Y5771752D02*
X-22750222Y5733657D01*
X-22750222Y5733657D02*
X-22445460Y5733657D01*
X-23207364Y5581276D02*
X-23588317Y5581276D01*
X-23131174Y5352704D02*
X-23397841Y6152704D01*
X-23397841Y6152704D02*
X-23664507Y5352704D01*
X-23854983Y6152704D02*
X-24045459Y5352704D01*
X-24045459Y5352704D02*
X-24197840Y5924133D01*
X-24197840Y5924133D02*
X-24350221Y5352704D01*
X-24350221Y5352704D02*
X-24540698Y6152704D01*
X-33523587Y-9887295D02*
X-33523587Y-9087295D01*
X-33523587Y-9087295D02*
X-33714063Y-9087295D01*
X-33714063Y-9087295D02*
X-33828349Y-9125390D01*
X-33828349Y-9125390D02*
X-33904539Y-9201580D01*
X-33904539Y-9201580D02*
X-33942634Y-9277771D01*
X-33942634Y-9277771D02*
X-33980730Y-9430152D01*
X-33980730Y-9430152D02*
X-33980730Y-9544438D01*
X-33980730Y-9544438D02*
X-33942634Y-9696819D01*
X-33942634Y-9696819D02*
X-33904539Y-9773009D01*
X-33904539Y-9773009D02*
X-33828349Y-9849200D01*
X-33828349Y-9849200D02*
X-33714063Y-9887295D01*
X-33714063Y-9887295D02*
X-33523587Y-9887295D01*
X-34666444Y-9353961D02*
X-34666444Y-9887295D01*
X-34475968Y-9049200D02*
X-34285491Y-9620628D01*
X-34285491Y-9620628D02*
X-34780730Y-9620628D01*
X-33523587Y2812704D02*
X-33523587Y3612704D01*
X-33523587Y3612704D02*
X-33714063Y3612704D01*
X-33714063Y3612704D02*
X-33828349Y3574609D01*
X-33828349Y3574609D02*
X-33904539Y3498419D01*
X-33904539Y3498419D02*
X-33942634Y3422228D01*
X-33942634Y3422228D02*
X-33980730Y3269847D01*
X-33980730Y3269847D02*
X-33980730Y3155561D01*
X-33980730Y3155561D02*
X-33942634Y3003180D01*
X-33942634Y3003180D02*
X-33904539Y2926990D01*
X-33904539Y2926990D02*
X-33828349Y2850800D01*
X-33828349Y2850800D02*
X-33714063Y2812704D01*
X-33714063Y2812704D02*
X-33523587Y2812704D01*
X-34285491Y3536514D02*
X-34323587Y3574609D01*
X-34323587Y3574609D02*
X-34399777Y3612704D01*
X-34399777Y3612704D02*
X-34590253Y3612704D01*
X-34590253Y3612704D02*
X-34666444Y3574609D01*
X-34666444Y3574609D02*
X-34704539Y3536514D01*
X-34704539Y3536514D02*
X-34742634Y3460323D01*
X-34742634Y3460323D02*
X-34742634Y3384133D01*
X-34742634Y3384133D02*
X-34704539Y3269847D01*
X-34704539Y3269847D02*
X-34247396Y2812704D01*
X-34247396Y2812704D02*
X-34742634Y2812704D01*
X-22712126Y-17088247D02*
X-22826412Y-17126342D01*
X-22826412Y-17126342D02*
X-22864507Y-17164438D01*
X-22864507Y-17164438D02*
X-22902603Y-17240628D01*
X-22902603Y-17240628D02*
X-22902603Y-17354914D01*
X-22902603Y-17354914D02*
X-22864507Y-17431104D01*
X-22864507Y-17431104D02*
X-22826412Y-17469200D01*
X-22826412Y-17469200D02*
X-22750222Y-17507295D01*
X-22750222Y-17507295D02*
X-22445460Y-17507295D01*
X-22445460Y-17507295D02*
X-22445460Y-16707295D01*
X-22445460Y-16707295D02*
X-22712126Y-16707295D01*
X-22712126Y-16707295D02*
X-22788317Y-16745390D01*
X-22788317Y-16745390D02*
X-22826412Y-16783485D01*
X-22826412Y-16783485D02*
X-22864507Y-16859676D01*
X-22864507Y-16859676D02*
X-22864507Y-16935866D01*
X-22864507Y-16935866D02*
X-22826412Y-17012057D01*
X-22826412Y-17012057D02*
X-22788317Y-17050152D01*
X-22788317Y-17050152D02*
X-22712126Y-17088247D01*
X-22712126Y-17088247D02*
X-22445460Y-17088247D01*
X-23169269Y-16707295D02*
X-23664507Y-16707295D01*
X-23664507Y-16707295D02*
X-23397841Y-17012057D01*
X-23397841Y-17012057D02*
X-23512126Y-17012057D01*
X-23512126Y-17012057D02*
X-23588317Y-17050152D01*
X-23588317Y-17050152D02*
X-23626412Y-17088247D01*
X-23626412Y-17088247D02*
X-23664507Y-17164438D01*
X-23664507Y-17164438D02*
X-23664507Y-17354914D01*
X-23664507Y-17354914D02*
X-23626412Y-17431104D01*
X-23626412Y-17431104D02*
X-23588317Y-17469200D01*
X-23588317Y-17469200D02*
X-23512126Y-17507295D01*
X-23512126Y-17507295D02*
X-23283555Y-17507295D01*
X-23283555Y-17507295D02*
X-23207364Y-17469200D01*
X-23207364Y-17469200D02*
X-23169269Y-17431104D01*
X933332Y-51487295D02*
X1199999Y-51106342D01*
X1390475Y-51487295D02*
X1390475Y-50687295D01*
X1390475Y-50687295D02*
X1085713Y-50687295D01*
X1085713Y-50687295D02*
X1009523Y-50725390D01*
X1009523Y-50725390D02*
X971428Y-50763485D01*
X971428Y-50763485D02*
X933332Y-50839676D01*
X933332Y-50839676D02*
X933332Y-50953961D01*
X933332Y-50953961D02*
X971428Y-51030152D01*
X971428Y-51030152D02*
X1009523Y-51068247D01*
X1009523Y-51068247D02*
X1085713Y-51106342D01*
X1085713Y-51106342D02*
X1390475Y-51106342D01*
X171428Y-50725390D02*
X247618Y-50687295D01*
X247618Y-50687295D02*
X361904Y-50687295D01*
X361904Y-50687295D02*
X476190Y-50725390D01*
X476190Y-50725390D02*
X552380Y-50801580D01*
X552380Y-50801580D02*
X590475Y-50877771D01*
X590475Y-50877771D02*
X628571Y-51030152D01*
X628571Y-51030152D02*
X628571Y-51144438D01*
X628571Y-51144438D02*
X590475Y-51296819D01*
X590475Y-51296819D02*
X552380Y-51373009D01*
X552380Y-51373009D02*
X476190Y-51449200D01*
X476190Y-51449200D02*
X361904Y-51487295D01*
X361904Y-51487295D02*
X285713Y-51487295D01*
X285713Y-51487295D02*
X171428Y-51449200D01*
X171428Y-51449200D02*
X133332Y-51411104D01*
X133332Y-51411104D02*
X133332Y-51144438D01*
X133332Y-51144438D02*
X285713Y-51144438D01*
X-476190Y-51068247D02*
X-590476Y-51106342D01*
X-590476Y-51106342D02*
X-628571Y-51144438D01*
X-628571Y-51144438D02*
X-666667Y-51220628D01*
X-666667Y-51220628D02*
X-666667Y-51334914D01*
X-666667Y-51334914D02*
X-628571Y-51411104D01*
X-628571Y-51411104D02*
X-590476Y-51449200D01*
X-590476Y-51449200D02*
X-514286Y-51487295D01*
X-514286Y-51487295D02*
X-209524Y-51487295D01*
X-209524Y-51487295D02*
X-209524Y-50687295D01*
X-209524Y-50687295D02*
X-476190Y-50687295D01*
X-476190Y-50687295D02*
X-552381Y-50725390D01*
X-552381Y-50725390D02*
X-590476Y-50763485D01*
X-590476Y-50763485D02*
X-628571Y-50839676D01*
X-628571Y-50839676D02*
X-628571Y-50915866D01*
X-628571Y-50915866D02*
X-590476Y-50992057D01*
X-590476Y-50992057D02*
X-552381Y-51030152D01*
X-552381Y-51030152D02*
X-476190Y-51068247D01*
X-476190Y-51068247D02*
X-209524Y-51068247D01*
X-1352381Y-50687295D02*
X-1200000Y-50687295D01*
X-1200000Y-50687295D02*
X-1123809Y-50725390D01*
X-1123809Y-50725390D02*
X-1085714Y-50763485D01*
X-1085714Y-50763485D02*
X-1009524Y-50877771D01*
X-1009524Y-50877771D02*
X-971428Y-51030152D01*
X-971428Y-51030152D02*
X-971428Y-51334914D01*
X-971428Y-51334914D02*
X-1009524Y-51411104D01*
X-1009524Y-51411104D02*
X-1047619Y-51449200D01*
X-1047619Y-51449200D02*
X-1123809Y-51487295D01*
X-1123809Y-51487295D02*
X-1276190Y-51487295D01*
X-1276190Y-51487295D02*
X-1352381Y-51449200D01*
X-1352381Y-51449200D02*
X-1390476Y-51411104D01*
X-1390476Y-51411104D02*
X-1428571Y-51334914D01*
X-1428571Y-51334914D02*
X-1428571Y-51144438D01*
X-1428571Y-51144438D02*
X-1390476Y-51068247D01*
X-1390476Y-51068247D02*
X-1352381Y-51030152D01*
X-1352381Y-51030152D02*
X-1276190Y-50992057D01*
X-1276190Y-50992057D02*
X-1123809Y-50992057D01*
X-1123809Y-50992057D02*
X-1047619Y-51030152D01*
X-1047619Y-51030152D02*
X-1009524Y-51068247D01*
X-1009524Y-51068247D02*
X-971428Y-51144438D01*
X-60033253Y-54574544D02*
X-59836789Y-54153073D01*
X-59583055Y-54495162D02*
X-59721974Y-53707316D01*
X-59721974Y-53707316D02*
X-60022106Y-53760237D01*
X-60022106Y-53760237D02*
X-60090523Y-53810984D01*
X-60090523Y-53810984D02*
X-60121425Y-53855116D01*
X-60121425Y-53855116D02*
X-60145711Y-53936764D01*
X-60145711Y-53936764D02*
X-60125865Y-54049313D01*
X-60125865Y-54049313D02*
X-60075119Y-54117731D01*
X-60075119Y-54117731D02*
X-60030987Y-54148632D01*
X-60030987Y-54148632D02*
X-59949339Y-54172919D01*
X-59949339Y-54172919D02*
X-59649207Y-54119997D01*
X-60915886Y-53956518D02*
X-60847468Y-53905771D01*
X-60847468Y-53905771D02*
X-60734919Y-53885925D01*
X-60734919Y-53885925D02*
X-60615754Y-53903596D01*
X-60615754Y-53903596D02*
X-60527491Y-53965399D01*
X-60527491Y-53965399D02*
X-60476744Y-54033817D01*
X-60476744Y-54033817D02*
X-60412767Y-54177268D01*
X-60412767Y-54177268D02*
X-60392921Y-54289817D01*
X-60392921Y-54289817D02*
X-60403977Y-54446498D01*
X-60403977Y-54446498D02*
X-60428263Y-54528146D01*
X-60428263Y-54528146D02*
X-60490066Y-54616410D01*
X-60490066Y-54616410D02*
X-60596000Y-54673772D01*
X-60596000Y-54673772D02*
X-60671033Y-54687002D01*
X-60671033Y-54687002D02*
X-60790198Y-54669331D01*
X-60790198Y-54669331D02*
X-60834330Y-54638430D01*
X-60834330Y-54638430D02*
X-60880636Y-54375814D01*
X-60880636Y-54375814D02*
X-60730570Y-54349354D01*
X-61494130Y-54406624D02*
X-61600064Y-54463986D01*
X-61600064Y-54463986D02*
X-61630966Y-54508118D01*
X-61630966Y-54508118D02*
X-61655252Y-54589766D01*
X-61655252Y-54589766D02*
X-61635406Y-54702315D01*
X-61635406Y-54702315D02*
X-61584659Y-54770733D01*
X-61584659Y-54770733D02*
X-61540528Y-54801634D01*
X-61540528Y-54801634D02*
X-61458880Y-54825921D01*
X-61458880Y-54825921D02*
X-61158748Y-54772999D01*
X-61158748Y-54772999D02*
X-61297666Y-53985153D01*
X-61297666Y-53985153D02*
X-61560282Y-54031459D01*
X-61560282Y-54031459D02*
X-61628699Y-54082206D01*
X-61628699Y-54082206D02*
X-61659601Y-54126338D01*
X-61659601Y-54126338D02*
X-61683887Y-54207986D01*
X-61683887Y-54207986D02*
X-61670657Y-54283019D01*
X-61670657Y-54283019D02*
X-61619910Y-54351437D01*
X-61619910Y-54351437D02*
X-61575778Y-54382338D01*
X-61575778Y-54382338D02*
X-61494130Y-54406624D01*
X-61494130Y-54406624D02*
X-61231514Y-54360318D01*
X-62460677Y-54190223D02*
X-62085512Y-54124071D01*
X-62085512Y-54124071D02*
X-61981844Y-54492621D01*
X-61981844Y-54492621D02*
X-62025976Y-54461720D01*
X-62025976Y-54461720D02*
X-62107624Y-54437434D01*
X-62107624Y-54437434D02*
X-62295206Y-54470510D01*
X-62295206Y-54470510D02*
X-62363624Y-54521256D01*
X-62363624Y-54521256D02*
X-62394526Y-54565388D01*
X-62394526Y-54565388D02*
X-62418812Y-54647036D01*
X-62418812Y-54647036D02*
X-62385736Y-54834619D01*
X-62385736Y-54834619D02*
X-62334989Y-54903036D01*
X-62334989Y-54903036D02*
X-62290857Y-54933938D01*
X-62290857Y-54933938D02*
X-62209209Y-54958224D01*
X-62209209Y-54958224D02*
X-62021627Y-54925148D01*
X-62021627Y-54925148D02*
X-61953209Y-54874401D01*
X-61953209Y-54874401D02*
X-61922308Y-54830270D01*
X-92791928Y-21663028D02*
X-92595464Y-21241557D01*
X-92341730Y-21583646D02*
X-92480649Y-20795800D01*
X-92480649Y-20795800D02*
X-92780781Y-20848721D01*
X-92780781Y-20848721D02*
X-92849198Y-20899468D01*
X-92849198Y-20899468D02*
X-92880100Y-20943600D01*
X-92880100Y-20943600D02*
X-92904386Y-21025248D01*
X-92904386Y-21025248D02*
X-92884540Y-21137797D01*
X-92884540Y-21137797D02*
X-92833794Y-21206215D01*
X-92833794Y-21206215D02*
X-92789662Y-21237116D01*
X-92789662Y-21237116D02*
X-92708014Y-21261403D01*
X-92708014Y-21261403D02*
X-92407882Y-21208481D01*
X-93674561Y-21045002D02*
X-93606143Y-20994255D01*
X-93606143Y-20994255D02*
X-93493594Y-20974409D01*
X-93493594Y-20974409D02*
X-93374429Y-20992080D01*
X-93374429Y-20992080D02*
X-93286166Y-21053883D01*
X-93286166Y-21053883D02*
X-93235419Y-21122301D01*
X-93235419Y-21122301D02*
X-93171442Y-21265752D01*
X-93171442Y-21265752D02*
X-93151596Y-21378301D01*
X-93151596Y-21378301D02*
X-93162652Y-21534982D01*
X-93162652Y-21534982D02*
X-93186938Y-21616630D01*
X-93186938Y-21616630D02*
X-93248741Y-21704894D01*
X-93248741Y-21704894D02*
X-93354675Y-21762256D01*
X-93354675Y-21762256D02*
X-93429708Y-21775486D01*
X-93429708Y-21775486D02*
X-93548873Y-21757815D01*
X-93548873Y-21757815D02*
X-93593005Y-21726914D01*
X-93593005Y-21726914D02*
X-93639311Y-21464298D01*
X-93639311Y-21464298D02*
X-93489245Y-21437838D01*
X-94252805Y-21495108D02*
X-94358739Y-21552470D01*
X-94358739Y-21552470D02*
X-94389641Y-21596602D01*
X-94389641Y-21596602D02*
X-94413927Y-21678250D01*
X-94413927Y-21678250D02*
X-94394081Y-21790799D01*
X-94394081Y-21790799D02*
X-94343334Y-21859217D01*
X-94343334Y-21859217D02*
X-94299203Y-21890118D01*
X-94299203Y-21890118D02*
X-94217555Y-21914405D01*
X-94217555Y-21914405D02*
X-93917423Y-21861483D01*
X-93917423Y-21861483D02*
X-94056341Y-21073637D01*
X-94056341Y-21073637D02*
X-94318957Y-21119943D01*
X-94318957Y-21119943D02*
X-94387374Y-21170690D01*
X-94387374Y-21170690D02*
X-94418276Y-21214822D01*
X-94418276Y-21214822D02*
X-94442562Y-21296470D01*
X-94442562Y-21296470D02*
X-94429332Y-21371503D01*
X-94429332Y-21371503D02*
X-94378585Y-21439921D01*
X-94378585Y-21439921D02*
X-94334453Y-21470822D01*
X-94334453Y-21470822D02*
X-94252805Y-21495108D01*
X-94252805Y-21495108D02*
X-93990189Y-21448802D01*
X-94769154Y-21199325D02*
X-95256869Y-21285322D01*
X-95256869Y-21285322D02*
X-94941332Y-21539148D01*
X-94941332Y-21539148D02*
X-95053881Y-21558994D01*
X-95053881Y-21558994D02*
X-95122299Y-21609740D01*
X-95122299Y-21609740D02*
X-95153201Y-21653872D01*
X-95153201Y-21653872D02*
X-95177487Y-21735520D01*
X-95177487Y-21735520D02*
X-95144411Y-21923103D01*
X-95144411Y-21923103D02*
X-95093664Y-21991520D01*
X-95093664Y-21991520D02*
X-95049532Y-22022422D01*
X-95049532Y-22022422D02*
X-94967884Y-22046708D01*
X-94967884Y-22046708D02*
X-94742785Y-22007017D01*
X-94742785Y-22007017D02*
X-94674368Y-21956270D01*
X-94674368Y-21956270D02*
X-94643466Y-21912138D01*
X933332Y-13387295D02*
X1199999Y-13006342D01*
X1390475Y-13387295D02*
X1390475Y-12587295D01*
X1390475Y-12587295D02*
X1085713Y-12587295D01*
X1085713Y-12587295D02*
X1009523Y-12625390D01*
X1009523Y-12625390D02*
X971428Y-12663485D01*
X971428Y-12663485D02*
X933332Y-12739676D01*
X933332Y-12739676D02*
X933332Y-12853961D01*
X933332Y-12853961D02*
X971428Y-12930152D01*
X971428Y-12930152D02*
X1009523Y-12968247D01*
X1009523Y-12968247D02*
X1085713Y-13006342D01*
X1085713Y-13006342D02*
X1390475Y-13006342D01*
X171428Y-12625390D02*
X247618Y-12587295D01*
X247618Y-12587295D02*
X361904Y-12587295D01*
X361904Y-12587295D02*
X476190Y-12625390D01*
X476190Y-12625390D02*
X552380Y-12701580D01*
X552380Y-12701580D02*
X590475Y-12777771D01*
X590475Y-12777771D02*
X628571Y-12930152D01*
X628571Y-12930152D02*
X628571Y-13044438D01*
X628571Y-13044438D02*
X590475Y-13196819D01*
X590475Y-13196819D02*
X552380Y-13273009D01*
X552380Y-13273009D02*
X476190Y-13349200D01*
X476190Y-13349200D02*
X361904Y-13387295D01*
X361904Y-13387295D02*
X285713Y-13387295D01*
X285713Y-13387295D02*
X171428Y-13349200D01*
X171428Y-13349200D02*
X133332Y-13311104D01*
X133332Y-13311104D02*
X133332Y-13044438D01*
X133332Y-13044438D02*
X285713Y-13044438D01*
X-476190Y-12968247D02*
X-590476Y-13006342D01*
X-590476Y-13006342D02*
X-628571Y-13044438D01*
X-628571Y-13044438D02*
X-666667Y-13120628D01*
X-666667Y-13120628D02*
X-666667Y-13234914D01*
X-666667Y-13234914D02*
X-628571Y-13311104D01*
X-628571Y-13311104D02*
X-590476Y-13349200D01*
X-590476Y-13349200D02*
X-514286Y-13387295D01*
X-514286Y-13387295D02*
X-209524Y-13387295D01*
X-209524Y-13387295D02*
X-209524Y-12587295D01*
X-209524Y-12587295D02*
X-476190Y-12587295D01*
X-476190Y-12587295D02*
X-552381Y-12625390D01*
X-552381Y-12625390D02*
X-590476Y-12663485D01*
X-590476Y-12663485D02*
X-628571Y-12739676D01*
X-628571Y-12739676D02*
X-628571Y-12815866D01*
X-628571Y-12815866D02*
X-590476Y-12892057D01*
X-590476Y-12892057D02*
X-552381Y-12930152D01*
X-552381Y-12930152D02*
X-476190Y-12968247D01*
X-476190Y-12968247D02*
X-209524Y-12968247D01*
X-1428571Y-13387295D02*
X-971428Y-13387295D01*
X-1200000Y-13387295D02*
X-1200000Y-12587295D01*
X-1200000Y-12587295D02*
X-1123809Y-12701580D01*
X-1123809Y-12701580D02*
X-1047619Y-12777771D01*
X-1047619Y-12777771D02*
X-971428Y-12815866D01*
X-109229326Y-63249139D02*
X-109032862Y-62827668D01*
X-108779128Y-63169757D02*
X-108918047Y-62381911D01*
X-108918047Y-62381911D02*
X-109218179Y-62434832D01*
X-109218179Y-62434832D02*
X-109286596Y-62485579D01*
X-109286596Y-62485579D02*
X-109317498Y-62529711D01*
X-109317498Y-62529711D02*
X-109341784Y-62611359D01*
X-109341784Y-62611359D02*
X-109321938Y-62723908D01*
X-109321938Y-62723908D02*
X-109271192Y-62792326D01*
X-109271192Y-62792326D02*
X-109227060Y-62823227D01*
X-109227060Y-62823227D02*
X-109145412Y-62847514D01*
X-109145412Y-62847514D02*
X-108845280Y-62794592D01*
X-110111959Y-62631113D02*
X-110043541Y-62580366D01*
X-110043541Y-62580366D02*
X-109930992Y-62560520D01*
X-109930992Y-62560520D02*
X-109811827Y-62578191D01*
X-109811827Y-62578191D02*
X-109723564Y-62639994D01*
X-109723564Y-62639994D02*
X-109672817Y-62708412D01*
X-109672817Y-62708412D02*
X-109608840Y-62851863D01*
X-109608840Y-62851863D02*
X-109588994Y-62964412D01*
X-109588994Y-62964412D02*
X-109600050Y-63121093D01*
X-109600050Y-63121093D02*
X-109624336Y-63202741D01*
X-109624336Y-63202741D02*
X-109686139Y-63291005D01*
X-109686139Y-63291005D02*
X-109792073Y-63348367D01*
X-109792073Y-63348367D02*
X-109867106Y-63361597D01*
X-109867106Y-63361597D02*
X-109986271Y-63343926D01*
X-109986271Y-63343926D02*
X-110030403Y-63313025D01*
X-110030403Y-63313025D02*
X-110076709Y-63050409D01*
X-110076709Y-63050409D02*
X-109926643Y-63023949D01*
X-110690203Y-63081219D02*
X-110796137Y-63138581D01*
X-110796137Y-63138581D02*
X-110827039Y-63182713D01*
X-110827039Y-63182713D02*
X-110851325Y-63264361D01*
X-110851325Y-63264361D02*
X-110831479Y-63376910D01*
X-110831479Y-63376910D02*
X-110780732Y-63445328D01*
X-110780732Y-63445328D02*
X-110736601Y-63476229D01*
X-110736601Y-63476229D02*
X-110654953Y-63500516D01*
X-110654953Y-63500516D02*
X-110354821Y-63447594D01*
X-110354821Y-63447594D02*
X-110493739Y-62659748D01*
X-110493739Y-62659748D02*
X-110756355Y-62706054D01*
X-110756355Y-62706054D02*
X-110824772Y-62756801D01*
X-110824772Y-62756801D02*
X-110855674Y-62800933D01*
X-110855674Y-62800933D02*
X-110879960Y-62882581D01*
X-110879960Y-62882581D02*
X-110866730Y-62957614D01*
X-110866730Y-62957614D02*
X-110815983Y-63026032D01*
X-110815983Y-63026032D02*
X-110771851Y-63056933D01*
X-110771851Y-63056933D02*
X-110690203Y-63081219D01*
X-110690203Y-63081219D02*
X-110427587Y-63034913D01*
X-111572928Y-63120818D02*
X-111480315Y-63646049D01*
X-111438266Y-62787611D02*
X-111151457Y-63317282D01*
X-111151457Y-63317282D02*
X-111639171Y-63403279D01*
X-55270753Y-15047033D02*
X-55074289Y-14625562D01*
X-54820555Y-14967651D02*
X-54959474Y-14179805D01*
X-54959474Y-14179805D02*
X-55259606Y-14232726D01*
X-55259606Y-14232726D02*
X-55328023Y-14283473D01*
X-55328023Y-14283473D02*
X-55358925Y-14327605D01*
X-55358925Y-14327605D02*
X-55383211Y-14409253D01*
X-55383211Y-14409253D02*
X-55363365Y-14521802D01*
X-55363365Y-14521802D02*
X-55312619Y-14590220D01*
X-55312619Y-14590220D02*
X-55268487Y-14621121D01*
X-55268487Y-14621121D02*
X-55186839Y-14645408D01*
X-55186839Y-14645408D02*
X-54886707Y-14592486D01*
X-56153386Y-14429007D02*
X-56084968Y-14378260D01*
X-56084968Y-14378260D02*
X-55972419Y-14358414D01*
X-55972419Y-14358414D02*
X-55853254Y-14376085D01*
X-55853254Y-14376085D02*
X-55764991Y-14437888D01*
X-55764991Y-14437888D02*
X-55714244Y-14506306D01*
X-55714244Y-14506306D02*
X-55650267Y-14649757D01*
X-55650267Y-14649757D02*
X-55630421Y-14762306D01*
X-55630421Y-14762306D02*
X-55641477Y-14918987D01*
X-55641477Y-14918987D02*
X-55665763Y-15000635D01*
X-55665763Y-15000635D02*
X-55727566Y-15088899D01*
X-55727566Y-15088899D02*
X-55833500Y-15146261D01*
X-55833500Y-15146261D02*
X-55908533Y-15159491D01*
X-55908533Y-15159491D02*
X-56027698Y-15141820D01*
X-56027698Y-15141820D02*
X-56071830Y-15110919D01*
X-56071830Y-15110919D02*
X-56118136Y-14848303D01*
X-56118136Y-14848303D02*
X-55968070Y-14821843D01*
X-56731630Y-14879113D02*
X-56837564Y-14936475D01*
X-56837564Y-14936475D02*
X-56868466Y-14980607D01*
X-56868466Y-14980607D02*
X-56892752Y-15062255D01*
X-56892752Y-15062255D02*
X-56872906Y-15174804D01*
X-56872906Y-15174804D02*
X-56822159Y-15243222D01*
X-56822159Y-15243222D02*
X-56778028Y-15274123D01*
X-56778028Y-15274123D02*
X-56696380Y-15298410D01*
X-56696380Y-15298410D02*
X-56396248Y-15245488D01*
X-56396248Y-15245488D02*
X-56535166Y-14457642D01*
X-56535166Y-14457642D02*
X-56797782Y-14503948D01*
X-56797782Y-14503948D02*
X-56866199Y-14554695D01*
X-56866199Y-14554695D02*
X-56897101Y-14598827D01*
X-56897101Y-14598827D02*
X-56921387Y-14680475D01*
X-56921387Y-14680475D02*
X-56908157Y-14755508D01*
X-56908157Y-14755508D02*
X-56857410Y-14823926D01*
X-56857410Y-14823926D02*
X-56813278Y-14854827D01*
X-56813278Y-14854827D02*
X-56731630Y-14879113D01*
X-56731630Y-14879113D02*
X-56469014Y-14832807D01*
X-57272266Y-14664978D02*
X-57316397Y-14634077D01*
X-57316397Y-14634077D02*
X-57398045Y-14609791D01*
X-57398045Y-14609791D02*
X-57585628Y-14642867D01*
X-57585628Y-14642867D02*
X-57654046Y-14693613D01*
X-57654046Y-14693613D02*
X-57684947Y-14737745D01*
X-57684947Y-14737745D02*
X-57709233Y-14819393D01*
X-57709233Y-14819393D02*
X-57696003Y-14894426D01*
X-57696003Y-14894426D02*
X-57638641Y-15000361D01*
X-57638641Y-15000361D02*
X-57109061Y-15371176D01*
X-57109061Y-15371176D02*
X-57596775Y-15457174D01*
%TO.C,D12*%
X-19800000Y-59850000D02*
X-18300000Y-59850000D01*
X-18300000Y-59850000D02*
X-18300000Y-54450000D01*
X-19550000Y-57650000D02*
X-18550000Y-57650000D01*
X-19050000Y-57550000D02*
X-19550000Y-56650000D01*
X-19550000Y-56650000D02*
X-18550000Y-56650000D01*
X-18550000Y-56650000D02*
X-19050000Y-57550000D01*
X-19800000Y-54450000D02*
X-19800000Y-59850000D01*
X-18300000Y-54450000D02*
X-19800000Y-54450000D01*
%TO.C,D16*%
X-63921041Y-63751779D02*
X-62443829Y-63491307D01*
X-62443829Y-63491307D02*
X-63381529Y-58173345D01*
X-64056865Y-61541790D02*
X-63072057Y-61368142D01*
X-63581826Y-61356485D02*
X-64230513Y-60556982D01*
X-64230513Y-60556982D02*
X-63245705Y-60383334D01*
X-63245705Y-60383334D02*
X-63581826Y-61356485D01*
X-64858741Y-58433817D02*
X-63921041Y-63751779D01*
X-63381529Y-58173345D02*
X-64858741Y-58433817D01*
%TO.C,D21*%
X-97313469Y-11608134D02*
X-95836257Y-11347662D01*
X-95836257Y-11347662D02*
X-96773957Y-6029700D01*
X-97449293Y-9398145D02*
X-96464485Y-9224497D01*
X-96974254Y-9212840D02*
X-97622941Y-8413337D01*
X-97622941Y-8413337D02*
X-96638133Y-8239689D01*
X-96638133Y-8239689D02*
X-96974254Y-9212840D01*
X-98251169Y-6290172D02*
X-97313469Y-11608134D01*
X-96773957Y-6029700D02*
X-98251169Y-6290172D01*
%TO.C,D27*%
X-119182558Y-63823937D02*
X-117705346Y-63563465D01*
X-117705346Y-63563465D02*
X-118643046Y-58245503D01*
X-119318382Y-61613948D02*
X-118333574Y-61440300D01*
X-118843343Y-61428643D02*
X-119492030Y-60629140D01*
X-119492030Y-60629140D02*
X-118507222Y-60455492D01*
X-118507222Y-60455492D02*
X-118843343Y-61428643D01*
X-120120258Y-58505975D02*
X-119182558Y-63823937D01*
X-118643046Y-58245503D02*
X-120120258Y-58505975D01*
%TO.C,D17*%
X-95297567Y-11252676D02*
X-93820355Y-10992204D01*
X-93820355Y-10992204D02*
X-94758055Y-5674242D01*
X-95433391Y-9042687D02*
X-94448583Y-8869039D01*
X-94958352Y-8857382D02*
X-95607039Y-8057879D01*
X-95607039Y-8057879D02*
X-94622231Y-7884231D01*
X-94622231Y-7884231D02*
X-94958352Y-8857382D01*
X-96235267Y-5934714D02*
X-95297567Y-11252676D01*
X-94758055Y-5674242D02*
X-96235267Y-5934714D01*
%TO.C,D14*%
X-59792293Y-24336016D02*
X-58315081Y-24075544D01*
X-58315081Y-24075544D02*
X-59252781Y-18757582D01*
X-59928117Y-22126027D02*
X-58943309Y-21952379D01*
X-59453078Y-21940722D02*
X-60101765Y-21141219D01*
X-60101765Y-21141219D02*
X-59116957Y-20967571D01*
X-59116957Y-20967571D02*
X-59453078Y-21940722D01*
X-60729993Y-19018054D02*
X-59792293Y-24336016D01*
X-59252781Y-18757582D02*
X-60729993Y-19018054D01*
%TO.C,D23*%
X-100060067Y-50780188D02*
X-98582855Y-50519716D01*
X-98582855Y-50519716D02*
X-99520555Y-45201754D01*
X-100195891Y-48570199D02*
X-99211083Y-48396551D01*
X-99720852Y-48384894D02*
X-100369539Y-47585391D01*
X-100369539Y-47585391D02*
X-99384731Y-47411743D01*
X-99384731Y-47411743D02*
X-99720852Y-48384894D01*
X-100997767Y-45462226D02*
X-100060067Y-50780188D01*
X-99520555Y-45201754D02*
X-100997767Y-45462226D01*
%TO.C,D3*%
X19658250Y-40800000D02*
X21158250Y-40800000D01*
X21158250Y-40800000D02*
X21158250Y-35400000D01*
X19908250Y-38600000D02*
X20908250Y-38600000D01*
X20408250Y-38500000D02*
X19908250Y-37600000D01*
X19908250Y-37600000D02*
X20908250Y-37600000D01*
X20908250Y-37600000D02*
X20408250Y-38500000D01*
X19658250Y-35400000D02*
X19658250Y-40800000D01*
X21158250Y-35400000D02*
X19658250Y-35400000D01*
%TO.C,D4*%
X273500Y-59850000D02*
X1773500Y-59850000D01*
X1773500Y-59850000D02*
X1773500Y-54450000D01*
X523500Y-57650000D02*
X1523500Y-57650000D01*
X1023500Y-57550000D02*
X523500Y-56650000D01*
X523500Y-56650000D02*
X1523500Y-56650000D01*
X1523500Y-56650000D02*
X1023500Y-57550000D01*
X273500Y-54450000D02*
X273500Y-59850000D01*
X1773500Y-54450000D02*
X273500Y-54450000D01*
%TO.C,D5*%
X-39873500Y-2700000D02*
X-38373500Y-2700000D01*
X-38373500Y-2700000D02*
X-38373500Y2700000D01*
X-39623500Y-500000D02*
X-38623500Y-500000D01*
X-39123500Y-400000D02*
X-39623500Y500000D01*
X-39623500Y500000D02*
X-38623500Y500000D01*
X-38623500Y500000D02*
X-39123500Y-400000D01*
X-39873500Y2700000D02*
X-39873500Y-2700000D01*
X-38373500Y2700000D02*
X-39873500Y2700000D01*
%TO.C,D10*%
X-57776392Y-23980558D02*
X-56299180Y-23720086D01*
X-56299180Y-23720086D02*
X-57236880Y-18402124D01*
X-57912216Y-21770569D02*
X-56927408Y-21596921D01*
X-57437177Y-21585264D02*
X-58085864Y-20785761D01*
X-58085864Y-20785761D02*
X-57101056Y-20612113D01*
X-57101056Y-20612113D02*
X-57437177Y-21585264D01*
X-58714092Y-18662596D02*
X-57776392Y-23980558D01*
X-57236880Y-18402124D02*
X-58714092Y-18662596D01*
D11*
%TO.C,U1*%
X-37465000Y9525000D02*
X-37465000Y-23495000D01*
X-37465000Y9525000D02*
X-19685000Y9525000D01*
X-37465000Y-23495000D02*
X-19685000Y-23495000D01*
X-34925000Y6985000D02*
X-37465000Y6985000D01*
X-34925000Y6985000D02*
X-34925000Y4445000D01*
X-34925000Y4445000D02*
X-37465000Y4445000D01*
X-19685000Y-23495000D02*
X-19685000Y9525000D01*
D10*
%TO.C,D7*%
X-23539000Y-40800000D02*
X-22039000Y-40800000D01*
X-22039000Y-40800000D02*
X-22039000Y-35400000D01*
X-23289000Y-38600000D02*
X-22289000Y-38600000D01*
X-22789000Y-38500000D02*
X-23289000Y-37600000D01*
X-23289000Y-37600000D02*
X-22289000Y-37600000D01*
X-22289000Y-37600000D02*
X-22789000Y-38500000D01*
X-23539000Y-35400000D02*
X-23539000Y-40800000D01*
X-22039000Y-35400000D02*
X-23539000Y-35400000D01*
%TO.C,D15*%
X-62538892Y-44164192D02*
X-61061680Y-43903720D01*
X-61061680Y-43903720D02*
X-61999380Y-38585758D01*
X-62674716Y-41954203D02*
X-61689908Y-41780555D01*
X-62199677Y-41768898D02*
X-62848364Y-40969395D01*
X-62848364Y-40969395D02*
X-61863556Y-40795747D01*
X-61863556Y-40795747D02*
X-62199677Y-41768898D01*
X-63476592Y-38846230D02*
X-62538892Y-44164192D01*
X-61999380Y-38585758D02*
X-63476592Y-38846230D01*
%TO.C,D24*%
X-108477929Y-71608361D02*
X-107000717Y-71347889D01*
X-107000717Y-71347889D02*
X-107938417Y-66029927D01*
X-108613753Y-69398372D02*
X-107628945Y-69224724D01*
X-108138714Y-69213067D02*
X-108787401Y-68413564D01*
X-108787401Y-68413564D02*
X-107802593Y-68239916D01*
X-107802593Y-68239916D02*
X-108138714Y-69213067D01*
X-109415629Y-66290399D02*
X-108477929Y-71608361D01*
X-107938417Y-66029927D02*
X-109415629Y-66290399D01*
%TO.C,D26*%
X-116612018Y-57878817D02*
X-118089230Y-58139289D01*
X-118089230Y-58139289D02*
X-117151530Y-63457251D01*
X-116476194Y-60088806D02*
X-116812315Y-61061957D01*
X-117461002Y-60262454D02*
X-116476194Y-60088806D01*
X-116812315Y-61061957D02*
X-117461002Y-60262454D01*
X-117287354Y-61247262D02*
X-116302546Y-61073614D01*
X-115674318Y-63196779D02*
X-116612018Y-57878817D01*
X-117151530Y-63457251D02*
X-115674318Y-63196779D01*
%TO.C,D6*%
X-39873500Y-21750000D02*
X-38373500Y-21750000D01*
X-38373500Y-21750000D02*
X-38373500Y-16350000D01*
X-39623500Y-19550000D02*
X-38623500Y-19550000D01*
X-39123500Y-19450000D02*
X-39623500Y-18550000D01*
X-39623500Y-18550000D02*
X-38623500Y-18550000D01*
X-38623500Y-18550000D02*
X-39123500Y-19450000D01*
X-39873500Y-16350000D02*
X-39873500Y-21750000D01*
X-38373500Y-16350000D02*
X-39873500Y-16350000D01*
%TO.C,D22*%
X-97313469Y-30952011D02*
X-95836257Y-30691539D01*
X-95836257Y-30691539D02*
X-96773957Y-25373577D01*
X-97449293Y-28742022D02*
X-96464485Y-28568374D01*
X-96974254Y-28556717D02*
X-97622941Y-27757214D01*
X-97622941Y-27757214D02*
X-96638133Y-27583566D01*
X-96638133Y-27583566D02*
X-96974254Y-28556717D01*
X-98251169Y-25634049D02*
X-97313469Y-30952011D01*
X-96773957Y-25373577D02*
X-98251169Y-25634049D01*
%TO.C,D11*%
X-25586000Y-40800000D02*
X-24086000Y-40800000D01*
X-24086000Y-40800000D02*
X-24086000Y-35400000D01*
X-25336000Y-38600000D02*
X-24336000Y-38600000D01*
X-24836000Y-38500000D02*
X-25336000Y-37600000D01*
X-25336000Y-37600000D02*
X-24336000Y-37600000D01*
X-24336000Y-37600000D02*
X-24836000Y-38500000D01*
X-25586000Y-35400000D02*
X-25586000Y-40800000D01*
X-24086000Y-35400000D02*
X-25586000Y-35400000D01*
%TO.C,D18*%
X-95297567Y-30596553D02*
X-93820355Y-30336081D01*
X-93820355Y-30336081D02*
X-94758055Y-25018119D01*
X-95433391Y-28386564D02*
X-94448583Y-28212916D01*
X-94958352Y-28201259D02*
X-95607039Y-27401756D01*
X-95607039Y-27401756D02*
X-94622231Y-27228108D01*
X-94622231Y-27228108D02*
X-94958352Y-28201259D01*
X-96235267Y-25278591D02*
X-95297567Y-30596553D01*
X-94758055Y-25018119D02*
X-96235267Y-25278591D01*
%TO.C,D25*%
X-102075969Y-51135645D02*
X-100598757Y-50875173D01*
X-100598757Y-50875173D02*
X-101536457Y-45557211D01*
X-102211793Y-48925656D02*
X-101226985Y-48752008D01*
X-101736754Y-48740351D02*
X-102385441Y-47940848D01*
X-102385441Y-47940848D02*
X-101400633Y-47767200D01*
X-101400633Y-47767200D02*
X-101736754Y-48740351D01*
X-103013669Y-45817683D02*
X-102075969Y-51135645D01*
X-101536457Y-45557211D02*
X-103013669Y-45817683D01*
%TO.C,D9*%
X-57776392Y-4636681D02*
X-56299180Y-4376209D01*
X-56299180Y-4376209D02*
X-57236880Y941753D01*
X-57912216Y-2426692D02*
X-56927408Y-2253044D01*
X-57437177Y-2241387D02*
X-58085864Y-1441884D01*
X-58085864Y-1441884D02*
X-57101056Y-1268236D01*
X-57101056Y-1268236D02*
X-57437177Y-2241387D01*
X-58714092Y681281D02*
X-57776392Y-4636681D01*
X-57236880Y941753D02*
X-58714092Y681281D01*
%TO.C,D8*%
X-1773500Y-59850000D02*
X-273500Y-59850000D01*
X-273500Y-59850000D02*
X-273500Y-54450000D01*
X-1523500Y-57650000D02*
X-523500Y-57650000D01*
X-1023500Y-57550000D02*
X-1523500Y-56650000D01*
X-1523500Y-56650000D02*
X-523500Y-56650000D01*
X-523500Y-56650000D02*
X-1023500Y-57550000D01*
X-1773500Y-54450000D02*
X-1773500Y-59850000D01*
X-273500Y-54450000D02*
X-1773500Y-54450000D01*
%TO.C,D2*%
X-18776500Y-21750000D02*
X-17276500Y-21750000D01*
X-17276500Y-21750000D02*
X-17276500Y-16350000D01*
X-18526500Y-19550000D02*
X-17526500Y-19550000D01*
X-18026500Y-19450000D02*
X-18526500Y-18550000D01*
X-18526500Y-18550000D02*
X-17526500Y-18550000D01*
X-17526500Y-18550000D02*
X-18026500Y-19450000D01*
X-18776500Y-16350000D02*
X-18776500Y-21750000D01*
X-17276500Y-16350000D02*
X-18776500Y-16350000D01*
%TO.C,D20*%
X-65936942Y-64107237D02*
X-64459730Y-63846765D01*
X-64459730Y-63846765D02*
X-65397430Y-58528803D01*
X-66072766Y-61897248D02*
X-65087958Y-61723600D01*
X-65597727Y-61711943D02*
X-66246414Y-60912440D01*
X-66246414Y-60912440D02*
X-65261606Y-60738792D01*
X-65261606Y-60738792D02*
X-65597727Y-61711943D01*
X-66874642Y-58789275D02*
X-65936942Y-64107237D01*
X-65397430Y-58528803D02*
X-66874642Y-58789275D01*
%TO.C,D13*%
X-59792293Y-4992139D02*
X-58315081Y-4731667D01*
X-58315081Y-4731667D02*
X-59252781Y586295D01*
X-59928117Y-2782150D02*
X-58943309Y-2608502D01*
X-59453078Y-2596845D02*
X-60101765Y-1797342D01*
X-60101765Y-1797342D02*
X-59116957Y-1623694D01*
X-59116957Y-1623694D02*
X-59453078Y-2596845D01*
X-60729993Y325823D02*
X-59792293Y-4992139D01*
X-59252781Y586295D02*
X-60729993Y325823D01*
%TO.C,D1*%
X-18776500Y-2700000D02*
X-17276500Y-2700000D01*
X-17276500Y-2700000D02*
X-17276500Y2700000D01*
X-18526500Y-500000D02*
X-17526500Y-500000D01*
X-18026500Y-400000D02*
X-18526500Y500000D01*
X-18526500Y500000D02*
X-17526500Y500000D01*
X-17526500Y500000D02*
X-18026500Y-400000D01*
X-18776500Y2700000D02*
X-18776500Y-2700000D01*
X-17276500Y2700000D02*
X-18776500Y2700000D01*
%TO.C,D19*%
X-64554793Y-44519650D02*
X-63077581Y-44259178D01*
X-63077581Y-44259178D02*
X-64015281Y-38941216D01*
X-64690617Y-42309661D02*
X-63705809Y-42136013D01*
X-64215578Y-42124356D02*
X-64864265Y-41324853D01*
X-64864265Y-41324853D02*
X-63879457Y-41151205D01*
X-63879457Y-41151205D02*
X-64215578Y-42124356D01*
X-65492493Y-39201688D02*
X-64554793Y-44519650D01*
X-64015281Y-38941216D02*
X-65492493Y-39201688D01*
D12*
%TO.C,RGB6*%
X-3500000Y-45025000D02*
X3700000Y-45025000D01*
X-3500000Y-50225000D02*
X3500000Y-50225000D01*
X3700000Y-45025000D02*
X3700000Y-46517509D01*
%TO.C,RGB5*%
X-65521400Y-48980266D02*
X-58430785Y-47730000D01*
X-64618430Y-54101267D02*
X-57724776Y-52885730D01*
X-58430785Y-47730000D02*
X-58171613Y-49199834D01*
D10*
%TO.C,U2*%
X-75578214Y2607115D02*
X-73477071Y-9309059D01*
X-75824416Y2563703D02*
X-76171712Y4533319D01*
X-81339339Y1591273D02*
X-81686635Y3560889D01*
X-81686635Y3560889D02*
X-76171712Y4533319D01*
X-79484398Y-10368313D02*
X-73477071Y-9309059D01*
X-81585541Y1547861D02*
X-75578214Y2607115D01*
X-81585541Y1547861D02*
X-79484398Y-10368313D01*
D12*
%TO.C,RGB3*%
X-98280075Y-16068750D02*
X-91189460Y-14818484D01*
X-97377105Y-21189751D02*
X-90483451Y-19974214D01*
X-91189460Y-14818484D02*
X-90930288Y-16288318D01*
%TO.C,RGB1*%
X-3500000Y-6925000D02*
X3700000Y-6925000D01*
X-3500000Y-12125000D02*
X3500000Y-12125000D01*
X3700000Y-6925000D02*
X3700000Y-8417509D01*
%TO.C,RGB4*%
X-114717473Y-57654861D02*
X-107626858Y-56404595D01*
X-113814503Y-62775862D02*
X-106920849Y-61560325D01*
X-107626858Y-56404595D02*
X-107367686Y-57874429D01*
%TO.C,RGB2*%
X-60758900Y-9452755D02*
X-53668285Y-8202489D01*
X-59855930Y-14573756D02*
X-52962276Y-13358219D01*
X-53668285Y-8202489D02*
X-53409113Y-9672323D01*
%TD*%
M02*
