M48
; DRILL file {KiCad 7.0.6} date Sun Feb 25 17:14:15 2024
; FORMAT={-:-/ absolute / inch / decimal}
; #@! TF.CreationDate,2024-02-25T17:14:15+01:00
; #@! TF.GenerationSoftware,Kicad,Pcbnew,7.0.6
; #@! TF.FileFunction,Plated,1,2,PTH
FMAT,2
INCH
; #@! TA.AperFunction,Plated,PTH,ViaDrill
T1C0.0157
; #@! TA.AperFunction,Plated,PTH,ComponentDrill
T2C0.0320
; #@! TA.AperFunction,Plated,PTH,ComponentDrill
T3C0.0354
; #@! TA.AperFunction,Plated,PTH,ComponentDrill
T4C0.0394
; #@! TA.AperFunction,Plated,PTH,ComponentDrill
T5C0.0430
; #@! TA.AperFunction,Plated,PTH,ComponentDrill
T6C0.0579
; #@! TA.AperFunction,Plated,PTH,ComponentDrill
T7C0.0591
%
G90
G05
T1
X0.0339Y-1.812
X0.0339Y-1.938
X0.0733Y-1.812
X0.0733Y-1.938
X0.1678Y-0.312
X0.1678Y-0.438
X0.2072Y-0.312
X0.2072Y-0.438
X0.5222Y-0.375
X0.6731Y-1.015
X1.1162Y-0.1955
X1.1375Y-0.875
X1.1545Y-0.3089
X1.3844Y-0.3535
X2.0208Y-0.5077
X2.0427Y-0.3836
X2.0596Y-0.5145
X2.0814Y-0.3904
X2.2083Y-2.0639
X2.2302Y-1.9398
X2.2471Y-2.0707
X2.2689Y-1.9466
X3.498Y-0.7681
X3.5199Y-0.6441
X3.5368Y-0.775
X3.5586Y-0.6509
X3.6855Y-2.3243
X3.7074Y-2.2003
X3.7243Y-2.3312
X3.7461Y-2.2071
X3.7889Y-0.6915
X3.8277Y-0.6983
X4.7615Y-2.247
T2
X0.1472Y-2.1
X0.1472Y-2.4
X0.2278Y-2.1
X0.2278Y-2.4
X0.5222Y0.15
X0.5222Y-0.15
X0.5222Y-0.6
X0.5222Y-0.9
X0.7097Y-1.35
X0.7097Y-1.65
X0.7903Y-1.35
X0.7903Y-1.65
X1.3528Y0.15
X1.3528Y-0.15
X1.3528Y-0.6
X1.3528Y-0.9
X2.0505Y-0.2205
X2.0505Y-0.982
X2.1026Y0.075
X2.1026Y-0.6866
X2.1299Y-0.2345
X2.1299Y-0.996
X2.182Y0.061
X2.182Y-0.7006
X2.238Y-1.7767
X2.2901Y-1.4812
X2.3174Y-1.7907
X2.3695Y-1.4952
X2.6617Y-2.6129
X2.7138Y-2.3175
X2.7411Y-2.6269
X2.7932Y-2.3315
X3.5277Y-0.4809
X3.5277Y-1.2425
X3.5798Y-0.1855
X3.5798Y-0.9471
X3.6071Y-0.4949
X3.6071Y-1.2565
X3.6592Y-0.1995
X3.6592Y-0.9611
X3.7152Y-2.0371
X3.7673Y-1.7417
X3.7946Y-2.0511
X3.8467Y-1.7557
X4.3887Y-2.5367
X4.4408Y-2.2412
X4.4681Y-2.5507
X4.5202Y-2.2552
T4
X4.7406Y-2.3655
X4.8376Y-2.3825
X4.8398Y-1.8033
X4.9345Y-2.3996
X5.0336Y-1.8374
T5
X0.6375Y0.225
X0.6375Y0.125
X0.6375Y0.025
X0.6375Y-0.075
X0.6375Y-0.175
X0.6375Y-0.275
X0.6375Y-0.375
X0.6375Y-0.475
X0.6375Y-0.575
X0.6375Y-0.675
X0.6375Y-0.775
X0.6375Y-0.875
X1.2375Y0.225
X1.2375Y0.125
X1.2375Y0.025
X1.2375Y-0.075
X1.2375Y-0.175
X1.2375Y-0.275
X1.2375Y-0.375
X1.2375Y-0.475
X1.2375Y-0.575
X1.2375Y-0.675
X1.2375Y-0.775
X1.2375Y-0.875
X1.2937Y-1.9387
X1.3933Y-1.9474
X1.4929Y-1.9561
X1.5925Y-1.9648
X1.6921Y-1.9736
T6
X-0.4312Y-0.65
X-0.4312Y-2.15
X-0.2437Y-0.65
X-0.2437Y-1.4
X-0.1812Y-0.55
X-0.1812Y-2.05
X-0.15Y0.1
X0.0062Y-0.55
X0.0062Y-1.3
X0.1Y0.2
X0.4125Y-2.15
X0.5062Y-2.15
X0.6625Y-2.05
X0.7562Y-2.05
X0.7875Y0.1
X0.7875Y-0.65
X0.975Y-1.4
X1.0375Y0.2
X1.0375Y-0.55
X1.225Y-1.3
X1.6166Y0.1099
X1.6166Y-0.6517
X1.8041Y-1.4463
X1.8801Y0.165
X1.8801Y-0.5966
X2.0676Y-1.3912
X2.1355Y-2.2663
X2.2278Y-2.2826
X2.3552Y-0.0203
X2.3552Y-0.7819
X2.399Y-2.2112
X2.4913Y-2.2275
X2.5427Y-1.5765
X2.6187Y0.0347
X2.6187Y-0.7268
X2.8062Y-1.5215
X3.0938Y-0.1506
X3.0938Y-0.9121
X3.2813Y-1.7068
X3.3573Y-0.0955
X3.3573Y-0.8571
X3.428Y-2.4942
X3.5448Y-1.6517
X3.6916Y-2.4391
X3.8324Y-0.2808
X3.8324Y-1.0424
X4.0199Y-1.837
X4.0959Y-0.2257
X4.0959Y-0.9873
X4.2834Y-1.7819
X4.6283Y-2.7058
X4.6441Y-2.3279
X4.6992Y-2.5914
X4.7585Y-1.9672
X4.8918Y-2.6508
X5.0221Y-1.9122
T3
G00X2.746Y-0.3057
M15
G01X2.7487Y-0.2902
M16
G05
G00X2.7733Y-0.1506
M15
G01X2.7761Y-0.1351
M16
G05
G00X2.7939Y-0.0343
M15
G01X2.7966Y-0.0188
M16
G05
G00X2.9168Y-0.3798
M15
G01X2.9196Y-0.3643
M16
G05
T7
G00X4.6673Y-2.0787
M15
G01X4.6762Y-2.0283
M16
G05
G00X5.1015Y-2.1552
M15
G01X5.1104Y-2.1048
M16
G05
T0
M30
