M48
; DRILL file {KiCad 7.0.6} date Sun Feb 25 17:14:15 2024
; FORMAT={-:-/ absolute / inch / decimal}
; #@! TF.CreationDate,2024-02-25T17:14:15+01:00
; #@! TF.GenerationSoftware,Kicad,Pcbnew,7.0.6
; #@! TF.FileFunction,NonPlated,1,2,NPTH
FMAT,2
INCH
; #@! TA.AperFunction,NonPlated,NPTH,ComponentDrill
T1C0.0315
; #@! TA.AperFunction,NonPlated,NPTH,ComponentDrill
T2C0.0689
; #@! TA.AperFunction,NonPlated,NPTH,ComponentDrill
T3C0.0827
; #@! TA.AperFunction,NonPlated,NPTH,ComponentDrill
T4C0.1200
; #@! TA.AperFunction,NonPlated,NPTH,ComponentDrill
T5C0.1570
%
G90
G05
T1
X2.8475Y-0.2516
X2.8953Y0.0198
T2
X-0.4813Y-0.75
X-0.4813Y-2.25
X-0.2938Y-0.75
X-0.2938Y-1.5
X-0.2Y0.0
X-0.0813Y-0.75
X-0.0813Y-2.25
X0.1062Y-0.75
X0.1062Y-1.5
X0.2Y0.0
X0.3625Y-2.25
X0.4562Y-2.25
X0.7375Y0.0
X0.7375Y-0.75
X0.7625Y-2.25
X0.8562Y-2.25
X0.925Y-1.5
X1.1375Y0.0
X1.1375Y-0.75
X1.325Y-1.5
X1.55Y0.0201
X1.55Y-0.7415
X1.7375Y-1.5361
X1.9439Y-0.0493
X1.9439Y-0.8109
X2.0689Y-2.3561
X2.1314Y-1.6055
X2.1612Y-2.3724
X2.2886Y-0.1101
X2.2886Y-0.8717
X2.4628Y-2.4255
X2.4761Y-1.6663
X2.5551Y-2.4418
X2.6825Y-0.1796
X2.6825Y-0.9411
X2.87Y-1.7358
X3.0272Y-0.2404
X3.0272Y-1.0019
X3.2147Y-1.7966
X3.3614Y-2.584
X3.4211Y-0.3098
X3.4211Y-1.0714
X3.6086Y-1.866
X3.7553Y-2.6535
X3.7658Y-0.3706
X3.7658Y-1.1322
X3.9533Y-1.9268
X4.1597Y-0.4401
X4.1597Y-1.2016
X4.3472Y-1.9963
X4.5616Y-2.7956
X4.6919Y-2.057
X4.789Y-2.658
X4.8585Y-2.2641
X4.9556Y-2.8651
X5.0858Y-2.1265
T3
X-0.6916Y-2.5666
X-0.5041Y0.3166
X1.047Y-2.6265
X1.0844Y-2.199
X1.8157Y-2.6938
X1.8531Y-2.2663
X4.3296Y-0.1485
X5.0155Y-3.1972
X5.2557Y-1.8349
T4
X-0.5625Y-1.225
X0.375Y-1.225
X3.049Y-2.8082
X3.9722Y-2.971
X5.0132Y-2.9704
X5.1759Y-2.0472
T5
X-0.5625Y-1.825
X-0.2812Y-0.75
X-0.2812Y-2.25
X-0.0938Y-0.75
X-0.0938Y-1.5
X0.0Y0.0
X0.375Y-1.825
X0.5625Y-2.25
X0.6562Y-2.25
X0.9375Y0.0
X0.9375Y-0.75
X1.125Y-1.5
X1.7469Y-0.0146
X1.7469Y-0.7762
X1.9344Y-1.5708
X2.2658Y-2.3908
X2.3581Y-2.4071
X2.4855Y-0.1449
X2.4855Y-0.9064
X2.673Y-1.7011
X3.1532Y-2.2173
X3.2241Y-0.2751
X3.2241Y-1.0367
X3.4116Y-1.8313
X3.5584Y-2.6187
X3.9627Y-0.4053
X3.9627Y-1.1669
X4.0764Y-2.3801
X4.1502Y-1.9615
X4.4223Y-2.8663
X4.5851Y-1.943
X4.7586Y-2.8304
X4.8237Y-2.4611
X4.8888Y-2.0918
T0
M30
