%TF.GenerationSoftware,KiCad,Pcbnew,7.0.6*%
%TF.CreationDate,2024-02-25T17:14:13+01:00*%
%TF.ProjectId,chocobanan_left,63686f63-6f62-4616-9e61-6e5f6c656674,rev?*%
%TF.SameCoordinates,Original*%
%TF.FileFunction,Paste,Bot*%
%TF.FilePolarity,Positive*%
%FSLAX46Y46*%
G04 Gerber Fmt 4.6, Leading zero omitted, Abs format (unit mm)*
G04 Created by KiCad (PCBNEW 7.0.6) date 2024-02-25 17:14:13*
%MOMM*%
%LPD*%
G01*
G04 APERTURE LIST*
G04 Aperture macros list*
%AMRotRect*
0 Rectangle, with rotation*
0 The origin of the aperture is its center*
0 $1 length*
0 $2 width*
0 $3 Rotation angle, in degrees counterclockwise*
0 Add horizontal line*
21,1,$1,$2,0,0,$3*%
G04 Aperture macros list end*
%ADD10RotRect,1.300000X0.950000X80.000000*%
%ADD11R,0.950000X1.300000*%
%ADD12R,1.600000X1.000000*%
%ADD13RotRect,1.600000X1.000000X170.000000*%
G04 APERTURE END LIST*
D10*
%TO.C,D12*%
X67960853Y-64364595D03*
X68577305Y-60868527D03*
%TD*%
%TO.C,D16*%
X69976754Y-64720053D03*
X70593206Y-61223985D03*
%TD*%
%TO.C,D21*%
X91972987Y-10566951D03*
X92589439Y-7070883D03*
%TD*%
%TO.C,D17*%
X89957085Y-10211493D03*
X90573537Y-6715425D03*
%TD*%
%TO.C,D14*%
X54451811Y-23294833D03*
X55068263Y-19798765D03*
%TD*%
%TO.C,D23*%
X96735487Y-50094462D03*
X97351939Y-46598394D03*
%TD*%
D11*
%TO.C,D3*%
X18026500Y-39875000D03*
X18026500Y-36325000D03*
%TD*%
%TO.C,D4*%
X3739000Y-58925000D03*
X3739000Y-55375000D03*
%TD*%
%TO.C,D5*%
X34361000Y-1775000D03*
X34361000Y1775000D03*
%TD*%
D10*
%TO.C,D10*%
X52435910Y-22939375D03*
X53052362Y-19443307D03*
%TD*%
D11*
%TO.C,D7*%
X20073500Y-39875000D03*
X20073500Y-36325000D03*
%TD*%
D10*
%TO.C,D15*%
X59214311Y-43478467D03*
X59830763Y-39982399D03*
%TD*%
%TO.C,D24*%
X111826174Y-62427296D03*
X112442626Y-58931228D03*
%TD*%
D11*
%TO.C,D6*%
X34361000Y-20825000D03*
X34361000Y-17275000D03*
%TD*%
D10*
%TO.C,D22*%
X91972987Y-29910828D03*
X92589439Y-26414760D03*
%TD*%
%TO.C,D11*%
X57198410Y-43123009D03*
X57814862Y-39626941D03*
%TD*%
%TO.C,D18*%
X89957085Y-29555370D03*
X90573537Y-26059302D03*
%TD*%
%TO.C,D9*%
X52435910Y-3595498D03*
X53052362Y-99430D03*
%TD*%
D11*
%TO.C,D8*%
X5786000Y-58925000D03*
X5786000Y-55375000D03*
%TD*%
%TO.C,D2*%
X13264000Y-20825000D03*
X13264000Y-17275000D03*
%TD*%
D10*
%TO.C,D20*%
X113842076Y-62782754D03*
X114458528Y-59286686D03*
%TD*%
%TO.C,D13*%
X54451811Y-3950956D03*
X55068263Y-454888D03*
%TD*%
D11*
%TO.C,D1*%
X13264000Y-1775000D03*
X13264000Y1775000D03*
%TD*%
D10*
%TO.C,D19*%
X94719585Y-49739005D03*
X95336037Y-46242937D03*
%TD*%
D12*
%TO.C,RGB6*%
X3861625Y-46025000D03*
X3861625Y-49225000D03*
X-1138375Y-49225000D03*
X-1138375Y-46025000D03*
%TD*%
D13*
%TO.C,RGB5*%
X59600444Y-49791426D03*
X59044770Y-52942811D03*
X54120732Y-52074570D03*
X54676406Y-48923185D03*
%TD*%
%TO.C,RGB3*%
X92359119Y-16879910D03*
X91803445Y-20031295D03*
X86879407Y-19163054D03*
X87435081Y-16011669D03*
%TD*%
D12*
%TO.C,RGB1*%
X7262500Y-7925000D03*
X7262500Y-11125000D03*
X2262500Y-11125000D03*
X2262500Y-7925000D03*
%TD*%
D13*
%TO.C,RGB4*%
X97121619Y-56407421D03*
X96565945Y-59558806D03*
X91641907Y-58690565D03*
X92197581Y-55539180D03*
%TD*%
%TO.C,RGB2*%
X54837944Y-10263915D03*
X54282270Y-13415300D03*
X49358232Y-12547059D03*
X49913906Y-9395674D03*
%TD*%
M02*
