%TF.GenerationSoftware,KiCad,Pcbnew,7.0.6*%
%TF.CreationDate,2024-02-25T17:14:13+01:00*%
%TF.ProjectId,chocobanan_left,63686f63-6f62-4616-9e61-6e5f6c656674,rev?*%
%TF.SameCoordinates,Original*%
%TF.FileFunction,Soldermask,Bot*%
%TF.FilePolarity,Negative*%
%FSLAX46Y46*%
G04 Gerber Fmt 4.6, Leading zero omitted, Abs format (unit mm)*
G04 Created by KiCad (PCBNEW 7.0.6) date 2024-02-25 17:14:13*
%MOMM*%
%LPD*%
G01*
G04 APERTURE LIST*
G04 Aperture macros list*
%AMHorizOval*
0 Thick line with rounded ends*
0 $1 width*
0 $2 $3 position (X,Y) of the first rounded end (center of the circle)*
0 $4 $5 position (X,Y) of the second rounded end (center of the circle)*
0 Add line between two ends*
20,1,$1,$2,$3,$4,$5,0*
0 Add two circle primitives to create the rounded ends*
1,1,$1,$2,$3*
1,1,$1,$4,$5*%
%AMRotRect*
0 Rectangle, with rotation*
0 The origin of the aperture is its center*
0 $1 length*
0 $2 width*
0 $3 Rotation angle, in degrees counterclockwise*
0 Add horizontal line*
21,1,$1,$2,0,0,$3*%
G04 Aperture macros list end*
%ADD10RotRect,1.397000X1.397000X80.000000*%
%ADD11RotRect,1.300000X0.950000X80.000000*%
%ADD12C,1.397000*%
%ADD13C,2.100000*%
%ADD14C,1.750000*%
%ADD15C,3.987800*%
%ADD16C,2.250000*%
%ADD17C,3.048000*%
%ADD18R,1.397000X1.397000*%
%ADD19R,0.950000X1.300000*%
%ADD20R,1.752600X1.752600*%
%ADD21C,1.752600*%
%ADD22RotRect,3.200000X2.000000X80.000000*%
%ADD23RotRect,2.000000X2.000000X80.000000*%
%ADD24C,2.000000*%
%ADD25HorizOval,2.100000X0.000000X0.000000X0.000000X0.000000X0*%
%ADD26HorizOval,1.752600X0.000000X0.000000X0.000000X0.000000X0*%
%ADD27R,1.600000X1.000000*%
%ADD28RotRect,1.600000X1.000000X170.000000*%
%ADD29C,0.800000*%
%ADD30HorizOval,1.600000X0.034730X0.196962X-0.034730X-0.196962X0*%
G04 APERTURE END LIST*
D10*
%TO.C,D12*%
X67607479Y-66368679D03*
D11*
X67960853Y-64364595D03*
X68577305Y-60868527D03*
D12*
X68930679Y-58864443D03*
%TD*%
D13*
%TO.C,H2*%
X-17567830Y-65192830D03*
%TD*%
D10*
%TO.C,D16*%
X69623380Y-66724137D03*
D11*
X69976754Y-64720053D03*
X70593206Y-61223985D03*
D12*
X70946580Y-59219901D03*
%TD*%
D13*
%TO.C,H3*%
X109970820Y-3771169D03*
%TD*%
D14*
%TO.C,MX19*%
X81652645Y-45632568D03*
D15*
X86655468Y-46514701D03*
D14*
X91658291Y-47396834D03*
D16*
X83344417Y-43351690D03*
X90039012Y-41952944D03*
%TD*%
D14*
%TO.C,MX1*%
X-5080000Y0D03*
D15*
X0Y0D03*
D14*
X5080000Y0D03*
D16*
X-3810000Y2540000D03*
X2540000Y5080000D03*
%TD*%
D10*
%TO.C,D21*%
X91619613Y-12571035D03*
D11*
X91972987Y-10566951D03*
X92589439Y-7070883D03*
D12*
X92942813Y-5066799D03*
%TD*%
D14*
%TO.C,MX10*%
X39368970Y-18832938D03*
D15*
X44371793Y-19715071D03*
D14*
X49374616Y-20597204D03*
D16*
X41060742Y-16552060D03*
X47755337Y-15153314D03*
%TD*%
D15*
%TO.C,MX16*%
X80090789Y-56318700D03*
D17*
X77444391Y-71327171D03*
D14*
X85379868Y-65633654D03*
D15*
X90382691Y-66515787D03*
D14*
X95385514Y-67397920D03*
D15*
X103541524Y-60453698D03*
D17*
X100895126Y-75462168D03*
D16*
X87071640Y-63352776D03*
X93766235Y-61954030D03*
%TD*%
D14*
%TO.C,MX12.1*%
X54893913Y-60258158D03*
D15*
X59896736Y-61140291D03*
D14*
X64899559Y-62022424D03*
D16*
X56585685Y-57977280D03*
X63280280Y-56578534D03*
%TD*%
D14*
%TO.C,MX24*%
X119173821Y-52248563D03*
D15*
X124176644Y-53130696D03*
D14*
X129179467Y-54012829D03*
D16*
X120865593Y-49967685D03*
X127560188Y-48568939D03*
%TD*%
D14*
%TO.C,MX11*%
X44131470Y-39016572D03*
D15*
X49134293Y-39898705D03*
D14*
X54137116Y-40780838D03*
D16*
X45823242Y-36735694D03*
X52517837Y-35336948D03*
%TD*%
D14*
%TO.C,MX7*%
X23495000Y-38100000D03*
D15*
X28575000Y-38100000D03*
D14*
X33655000Y-38100000D03*
D16*
X24765000Y-35560000D03*
X31115000Y-33020000D03*
%TD*%
D10*
%TO.C,D17*%
X89603711Y-12215577D03*
D11*
X89957085Y-10211493D03*
X90573537Y-6715425D03*
D12*
X90926911Y-4711341D03*
%TD*%
D10*
%TO.C,D14*%
X54098437Y-25298917D03*
D11*
X54451811Y-23294833D03*
X55068263Y-19798765D03*
D12*
X55421637Y-17794681D03*
%TD*%
D14*
%TO.C,MX21*%
X95650733Y-9413054D03*
D15*
X100653556Y-10295187D03*
D14*
X105656379Y-11177320D03*
D16*
X97342505Y-7132176D03*
X104037100Y-5733430D03*
%TD*%
D10*
%TO.C,D23*%
X96382113Y-52098546D03*
D11*
X96735487Y-50094462D03*
X97351939Y-46598394D03*
D12*
X97705313Y-44594310D03*
%TD*%
D14*
%TO.C,MX13*%
X58129557Y-2797059D03*
D15*
X63132380Y-3679192D03*
D14*
X68135203Y-4561325D03*
D16*
X59821329Y-516181D03*
X66515924Y882565D03*
%TD*%
D18*
%TO.C,D3*%
X18026500Y-41910000D03*
D19*
X18026500Y-39875000D03*
X18026500Y-36325000D03*
D12*
X18026500Y-34290000D03*
%TD*%
D14*
%TO.C,MX15*%
X62892057Y-42324570D03*
D15*
X67894880Y-43206703D03*
D14*
X72897703Y-44088836D03*
D16*
X64583829Y-40043692D03*
X71278424Y-38644946D03*
%TD*%
D18*
%TO.C,D4*%
X3739000Y-60960000D03*
D19*
X3739000Y-58925000D03*
X3739000Y-55375000D03*
D12*
X3739000Y-53340000D03*
%TD*%
D13*
%TO.C,H5*%
X127392664Y-81208548D03*
%TD*%
%TO.C,H1*%
X-12805330Y8042830D03*
%TD*%
D18*
%TO.C,D5*%
X34361000Y-3810000D03*
D19*
X34361000Y-1775000D03*
X34361000Y1775000D03*
D12*
X34361000Y3810000D03*
%TD*%
D13*
%TO.C,H4*%
X133493908Y-46606678D03*
%TD*%
D14*
%TO.C,MX20*%
X115865823Y-71009151D03*
D15*
X120868646Y-71891284D03*
D14*
X125871469Y-72773417D03*
D16*
X117557595Y-68728273D03*
X124252190Y-67329527D03*
%TD*%
D10*
%TO.C,D10*%
X52082536Y-24943459D03*
D11*
X52435910Y-22939375D03*
X53052362Y-19443307D03*
D12*
X53405736Y-17439223D03*
%TD*%
D14*
%TO.C,MX23*%
X100413233Y-48940565D03*
D15*
X105416056Y-49822698D03*
D14*
X110418879Y-50704831D03*
D16*
X102105005Y-46659687D03*
X108799600Y-45260941D03*
%TD*%
D20*
%TO.C,U1*%
X16192500Y5715000D03*
D21*
X16192500Y3175000D03*
X16192500Y635000D03*
X16192500Y-1905000D03*
X16192500Y-4445000D03*
X16192500Y-6985000D03*
X16192500Y-9525000D03*
X16192500Y-12065000D03*
X16192500Y-14605000D03*
X16192500Y-17145000D03*
X16192500Y-19685000D03*
X16192500Y-22225000D03*
X31432500Y-22225000D03*
X31432500Y-19685000D03*
X31432500Y-17145000D03*
X31432500Y-14605000D03*
X31432500Y-12065000D03*
X31432500Y-9525000D03*
X31432500Y-6985000D03*
X31432500Y-4445000D03*
X31432500Y-1905000D03*
X31432500Y635000D03*
X31432500Y3175000D03*
X31432500Y5715000D03*
%TD*%
D14*
%TO.C,MX8*%
X11588750Y-57150000D03*
D15*
X16668750Y-57150000D03*
D14*
X21748750Y-57150000D03*
D16*
X12858750Y-54610000D03*
X19208750Y-52070000D03*
%TD*%
D18*
%TO.C,D7*%
X20073500Y-41910000D03*
D19*
X20073500Y-39875000D03*
X20073500Y-36325000D03*
D12*
X20073500Y-34290000D03*
%TD*%
D14*
%TO.C,MX2*%
X-7461250Y-19050000D03*
D15*
X-2381250Y-19050000D03*
D14*
X2698750Y-19050000D03*
D16*
X-6191250Y-16510000D03*
X158750Y-13970000D03*
%TD*%
D10*
%TO.C,D15*%
X58860937Y-45482551D03*
D11*
X59214311Y-43478467D03*
X59830763Y-39982399D03*
D12*
X60184137Y-37978315D03*
%TD*%
D10*
%TO.C,D24*%
X111472800Y-64431380D03*
D11*
X111826174Y-62427296D03*
X112442626Y-58931228D03*
D12*
X112796000Y-56927144D03*
%TD*%
D17*
%TO.C,MX3*%
X-14287500Y-31115000D03*
D15*
X-14287500Y-46355000D03*
D14*
X-7461250Y-38100000D03*
D15*
X-2381250Y-38100000D03*
D14*
X2698750Y-38100000D03*
D17*
X9525000Y-31115000D03*
D15*
X9525000Y-46355000D03*
D16*
X-6191250Y-35560000D03*
X158750Y-33020000D03*
%TD*%
D14*
%TO.C,MX2.1*%
X-12223750Y-19050000D03*
D15*
X-7143750Y-19050000D03*
D14*
X-2063750Y-19050000D03*
D16*
X-10953750Y-16510000D03*
X-4603750Y-13970000D03*
%TD*%
D18*
%TO.C,D6*%
X34361000Y-22860000D03*
D19*
X34361000Y-20825000D03*
X34361000Y-17275000D03*
D12*
X34361000Y-15240000D03*
%TD*%
D15*
%TO.C,MX20.1*%
X112325558Y-72802892D03*
D17*
X127334029Y-75449290D03*
D14*
X121640512Y-67513813D03*
D15*
X122522645Y-62510990D03*
D14*
X123404778Y-57508167D03*
D15*
X116460556Y-49352157D03*
D17*
X131469026Y-51998555D03*
D16*
X119359634Y-65822041D03*
X117960888Y-59127446D03*
%TD*%
D10*
%TO.C,D22*%
X91619613Y-31914912D03*
D11*
X91972987Y-29910828D03*
X92589439Y-26414760D03*
D12*
X92942813Y-24410676D03*
%TD*%
D14*
%TO.C,MX5*%
X18732500Y0D03*
D15*
X23812500Y0D03*
D14*
X28892500Y0D03*
D16*
X20002500Y2540000D03*
X26352500Y5080000D03*
%TD*%
D14*
%TO.C,MX4*%
X-12223750Y-57150000D03*
D15*
X-7143750Y-57150000D03*
D14*
X-2063750Y-57150000D03*
D16*
X-10953750Y-54610000D03*
X-4603750Y-52070000D03*
%TD*%
D14*
%TO.C,MX17*%
X76890145Y-6105056D03*
D15*
X81892968Y-6987189D03*
D14*
X86895791Y-7869322D03*
D16*
X78581917Y-3824178D03*
X85276512Y-2425432D03*
%TD*%
D14*
%TO.C,MX9*%
X39368970Y510939D03*
D15*
X44371793Y-371194D03*
D14*
X49374616Y-1253327D03*
D16*
X41060742Y2791817D03*
X47755337Y4190563D03*
%TD*%
D14*
%TO.C,MX14*%
X58129557Y-22140936D03*
D15*
X63132380Y-23023069D03*
D14*
X68135203Y-23905202D03*
D16*
X59821329Y-19860058D03*
X66515924Y-18461312D03*
%TD*%
D10*
%TO.C,D11*%
X56845036Y-45127093D03*
D11*
X57198410Y-43123009D03*
X57814862Y-39626941D03*
D12*
X58168236Y-37622857D03*
%TD*%
D14*
%TO.C,MX22*%
X95650733Y-28756931D03*
D15*
X100653556Y-29639064D03*
D14*
X105656379Y-30521197D03*
D16*
X97342505Y-26476053D03*
X104037100Y-25077307D03*
%TD*%
D10*
%TO.C,D18*%
X89603711Y-31559454D03*
D11*
X89957085Y-29555370D03*
X90573537Y-26059302D03*
D12*
X90926911Y-24055218D03*
%TD*%
D22*
%TO.C,SW1*%
X118661721Y-52158266D03*
X129691567Y-54103126D03*
D23*
X120412263Y-60082634D03*
D24*
X125336302Y-60950875D03*
X122874283Y-60516754D03*
X127854201Y-46671162D03*
X122930162Y-45802921D03*
%TD*%
D14*
%TO.C,MX8.1*%
X9207500Y-57150000D03*
D15*
X14287500Y-57150000D03*
D14*
X19367500Y-57150000D03*
D16*
X10477500Y-54610000D03*
X16827500Y-52070000D03*
%TD*%
D10*
%TO.C,D9*%
X52082536Y-5599582D03*
D11*
X52435910Y-3595498D03*
X53052362Y-99430D03*
D12*
X53405736Y1904654D03*
%TD*%
D18*
%TO.C,D8*%
X5786000Y-60960000D03*
D19*
X5786000Y-58925000D03*
X5786000Y-55375000D03*
D12*
X5786000Y-53340000D03*
%TD*%
D14*
%TO.C,MX6*%
X18732500Y-19050000D03*
D15*
X23812500Y-19050000D03*
D14*
X28892500Y-19050000D03*
D16*
X20002500Y-16510000D03*
X26352500Y-13970000D03*
%TD*%
D18*
%TO.C,D2*%
X13264000Y-22860000D03*
D19*
X13264000Y-20825000D03*
X13264000Y-17275000D03*
D12*
X13264000Y-15240000D03*
%TD*%
D10*
%TO.C,D20*%
X113488702Y-64786838D03*
D11*
X113842076Y-62782754D03*
X114458528Y-59286686D03*
D12*
X114811902Y-57282602D03*
%TD*%
D10*
%TO.C,D13*%
X54098437Y-5955040D03*
D11*
X54451811Y-3950956D03*
X55068263Y-454888D03*
D12*
X55421637Y1549196D03*
%TD*%
D14*
%TO.C,MX18*%
X76890145Y-25448933D03*
D15*
X81892968Y-26331066D03*
D14*
X86895791Y-27213199D03*
D16*
X78581917Y-23168055D03*
X85276512Y-21769309D03*
%TD*%
D18*
%TO.C,D1*%
X13264000Y-3810000D03*
D19*
X13264000Y-1775000D03*
X13264000Y1775000D03*
D12*
X13264000Y3810000D03*
%TD*%
D14*
%TO.C,MX12*%
X52548839Y-59844658D03*
D15*
X57551662Y-60726791D03*
D14*
X62554485Y-61608924D03*
D16*
X54240611Y-57563780D03*
X60935206Y-56165034D03*
%TD*%
D25*
%TO.C,U3*%
X46117965Y-68421625D03*
X47067963Y-57563103D03*
X26592549Y-66713373D03*
X27542547Y-55854851D03*
D26*
X42980372Y-50128555D03*
X40450037Y-49907180D03*
X37919703Y-49685804D03*
X35389368Y-49464429D03*
X32859034Y-49243053D03*
%TD*%
D10*
%TO.C,D19*%
X94366211Y-51743089D03*
D11*
X94719585Y-49739005D03*
X95336037Y-46242937D03*
D12*
X95689411Y-44238853D03*
%TD*%
D27*
%TO.C,RGB6*%
X3861625Y-46025000D03*
X3861625Y-49225000D03*
X-1138375Y-49225000D03*
X-1138375Y-46025000D03*
%TD*%
D28*
%TO.C,RGB5*%
X59600444Y-49791426D03*
X59044770Y-52942811D03*
X54120732Y-52074570D03*
X54676406Y-48923185D03*
%TD*%
D29*
%TO.C,U2*%
X72326003Y-6391859D03*
X73541540Y501796D03*
D30*
X74122211Y-9450230D03*
X69783108Y-7568160D03*
X70477701Y-3628929D03*
X70998645Y-674506D03*
%TD*%
D28*
%TO.C,RGB3*%
X92359119Y-16879910D03*
X91803445Y-20031295D03*
X86879407Y-19163054D03*
X87435081Y-16011669D03*
%TD*%
D27*
%TO.C,RGB1*%
X7262500Y-7925000D03*
X7262500Y-11125000D03*
X2262500Y-11125000D03*
X2262500Y-7925000D03*
%TD*%
D28*
%TO.C,RGB4*%
X97121619Y-56407421D03*
X96565945Y-59558806D03*
X91641907Y-58690565D03*
X92197581Y-55539180D03*
%TD*%
%TO.C,RGB2*%
X54837944Y-10263915D03*
X54282270Y-13415300D03*
X49358232Y-12547059D03*
X49913906Y-9395674D03*
%TD*%
M02*
